<?xml version="1.0" encoding="utf-8"?>
<!-- Generator: Adobe Illustrator 27.2.0, SVG Export Plug-In . SVG Version: 6.00 Build 0)  -->
<svg version="1.1" id="Calque_1" xmlns="http://www.w3.org/2000/svg" xmlns:xlink="http://www.w3.org/1999/xlink" x="0px" y="0px"
	 viewBox="0 0 360 100" style="enable-background:new 0 0 360 100;" xml:space="preserve">
<style type="text/css">
	.st0{fill:#FFFFFF;}
</style>
<rect x="-0.15" y="0.05" class="st0" width="360" height="100"/>
<path d="M26.03,26.1l-3.23-1.49l0.72-1.14l2.95,1.89L26.03,26.1z M35.63,26.1l-3.23-1.49l0.72-1.14l2.95,1.89L35.63,26.1z
	 M45.22,26.1l-3.23-1.49l0.72-1.14l2.95,1.89L45.22,26.1z M63.11,24.23v9.74c0,0.42,0.13,0.71,0.38,0.89
	c0.26,0.17,0.6,0.26,1.01,0.26c0.26,0,0.5-0.03,0.73-0.08c0.23-0.05,0.46-0.13,0.69-0.22l0.36,0.98c-0.23,0.11-0.51,0.21-0.86,0.3
	c-0.34,0.09-0.72,0.14-1.14,0.14c-0.75,0-1.35-0.21-1.82-0.62c-0.46-0.42-0.7-0.99-0.7-1.72v-8.6h-2.58v-1.06H63.11z M75.46,34.21
	c0,0.34,0.06,0.58,0.17,0.74s0.29,0.27,0.52,0.34l-0.33,0.94c-0.36-0.05-0.68-0.16-0.95-0.34c-0.27-0.19-0.47-0.47-0.59-0.84
	c-0.3,0.39-0.68,0.69-1.14,0.89c-0.45,0.2-0.95,0.3-1.5,0.3c-0.84,0-1.51-0.24-1.99-0.71c-0.49-0.47-0.73-1.1-0.73-1.89
	c0-0.87,0.34-1.54,1.02-2c0.68-0.46,1.66-0.7,2.94-0.7h1.24v-0.7c0-0.61-0.18-1.04-0.54-1.29c-0.35-0.26-0.84-0.38-1.47-0.38
	c-0.28,0-0.6,0.03-0.98,0.1c-0.37,0.06-0.78,0.17-1.22,0.33l-0.35-1.02c0.52-0.19,1-0.33,1.46-0.41c0.45-0.08,0.89-0.12,1.3-0.12
	c1.05,0,1.84,0.25,2.36,0.74c0.53,0.49,0.79,1.15,0.79,1.98V34.21z M71.98,35.21c0.42,0,0.81-0.1,1.19-0.31
	c0.38-0.21,0.69-0.51,0.94-0.88v-2.17h-1.22c-0.93,0-1.58,0.16-1.97,0.48c-0.38,0.32-0.57,0.75-0.57,1.29c0,0.52,0.13,0.92,0.4,1.19
	C71.02,35.08,71.43,35.21,71.98,35.21z M79.02,36.05v-8.42h1.14l0.1,1.17c0.34-0.43,0.77-0.76,1.28-0.99
	c0.52-0.23,1.02-0.35,1.5-0.35c0.83,0,1.43,0.22,1.8,0.66c0.38,0.44,0.57,1.05,0.57,1.82v6.12h-1.34v-5.13
	c0-0.58-0.03-1.04-0.1-1.39c-0.06-0.36-0.2-0.62-0.4-0.78c-0.2-0.17-0.52-0.25-0.94-0.25c-0.33,0-0.64,0.07-0.94,0.22
	c-0.29,0.14-0.55,0.33-0.78,0.54c-0.22,0.21-0.41,0.43-0.56,0.65v6.14H79.02z M95.46,26.73l0.42,1.26
	c-0.36,0.11-0.74,0.18-1.14,0.21c-0.41,0.03-0.85,0.04-1.32,0.04c0.49,0.22,0.85,0.51,1.1,0.87c0.25,0.35,0.37,0.77,0.37,1.25
	c0,0.55-0.13,1.05-0.38,1.48c-0.25,0.43-0.61,0.77-1.09,1.02c-0.47,0.25-1.04,0.37-1.7,0.37c-0.28,0-0.52-0.01-0.71-0.04
	c-0.19-0.03-0.37-0.07-0.54-0.12c-0.13,0.09-0.23,0.2-0.32,0.35c-0.08,0.15-0.12,0.3-0.12,0.46c0,0.2,0.08,0.37,0.24,0.5
	c0.16,0.13,0.46,0.2,0.89,0.2h1.52c0.57,0,1.07,0.1,1.52,0.3c0.45,0.2,0.81,0.47,1.06,0.82c0.26,0.34,0.39,0.73,0.39,1.17
	c0,0.83-0.35,1.46-1.06,1.9c-0.7,0.44-1.69,0.66-2.97,0.66c-0.9,0-1.6-0.09-2.12-0.28c-0.52-0.18-0.89-0.46-1.11-0.84
	c-0.22-0.37-0.33-0.85-0.33-1.42h1.22c0,0.33,0.06,0.59,0.19,0.81c0.13,0.21,0.36,0.37,0.7,0.47c0.34,0.11,0.82,0.16,1.45,0.16
	c0.62,0,1.12-0.05,1.51-0.16c0.39-0.1,0.69-0.26,0.87-0.46c0.19-0.2,0.29-0.46,0.29-0.76c0-0.4-0.18-0.7-0.54-0.9
	c-0.36-0.2-0.82-0.3-1.36-0.3h-1.5c-0.73,0-1.26-0.16-1.61-0.48c-0.34-0.32-0.51-0.69-0.51-1.1c0-0.27,0.08-0.54,0.23-0.79
	c0.16-0.26,0.39-0.48,0.7-0.68c-0.49-0.26-0.84-0.57-1.07-0.95c-0.23-0.38-0.34-0.84-0.34-1.38c0-0.57,0.14-1.07,0.42-1.51
	c0.28-0.44,0.68-0.79,1.18-1.04c0.51-0.25,1.09-0.38,1.75-0.38c0.71-0.01,1.29-0.03,1.73-0.09c0.44-0.06,0.82-0.14,1.14-0.25
	C94.8,27,95.13,26.87,95.46,26.73z M91.62,28.43c-0.68,0-1.18,0.18-1.5,0.55c-0.32,0.36-0.48,0.83-0.48,1.39
	c0,0.57,0.17,1.04,0.5,1.41c0.33,0.37,0.84,0.55,1.52,0.55c0.6,0,1.05-0.17,1.36-0.52c0.31-0.35,0.47-0.83,0.47-1.45
	c0-0.63-0.16-1.11-0.47-1.44C92.7,28.59,92.24,28.43,91.62,28.43z M104.24,34.21c0,0.34,0.06,0.58,0.17,0.74s0.29,0.27,0.52,0.34
	l-0.33,0.94c-0.36-0.05-0.68-0.16-0.95-0.34c-0.27-0.19-0.47-0.47-0.59-0.84c-0.3,0.39-0.68,0.69-1.14,0.89
	c-0.45,0.2-0.96,0.3-1.5,0.3c-0.84,0-1.51-0.24-1.99-0.71c-0.49-0.47-0.73-1.1-0.73-1.89c0-0.87,0.34-1.54,1.02-2
	c0.68-0.46,1.66-0.7,2.94-0.7h1.24v-0.7c0-0.61-0.18-1.04-0.54-1.29c-0.35-0.26-0.84-0.38-1.47-0.38c-0.28,0-0.6,0.03-0.98,0.1
	c-0.37,0.06-0.78,0.17-1.22,0.33l-0.35-1.02c0.52-0.19,1-0.33,1.46-0.41c0.45-0.08,0.89-0.12,1.3-0.12c1.05,0,1.84,0.25,2.36,0.74
	c0.53,0.49,0.79,1.15,0.79,1.98V34.21z M100.76,35.21c0.42,0,0.81-0.1,1.19-0.31c0.38-0.21,0.69-0.51,0.94-0.88v-2.17h-1.22
	c-0.93,0-1.58,0.16-1.97,0.48c-0.38,0.32-0.57,0.75-0.57,1.29c0,0.52,0.13,0.92,0.4,1.19C99.81,35.08,100.21,35.21,100.76,35.21z
	 M114.65,26.73l0.42,1.26c-0.36,0.11-0.74,0.18-1.14,0.21c-0.41,0.03-0.85,0.04-1.32,0.04c0.49,0.22,0.85,0.51,1.1,0.87
	c0.25,0.35,0.37,0.77,0.37,1.25c0,0.55-0.13,1.05-0.38,1.48c-0.25,0.43-0.61,0.77-1.09,1.02c-0.47,0.25-1.04,0.37-1.7,0.37
	c-0.28,0-0.52-0.01-0.71-0.04c-0.19-0.03-0.37-0.07-0.54-0.12c-0.13,0.09-0.24,0.2-0.32,0.35c-0.08,0.15-0.12,0.3-0.12,0.46
	c0,0.2,0.08,0.37,0.24,0.5c0.16,0.13,0.46,0.2,0.89,0.2h1.52c0.57,0,1.07,0.1,1.52,0.3c0.45,0.2,0.81,0.47,1.06,0.82
	c0.26,0.34,0.39,0.73,0.39,1.17c0,0.83-0.35,1.46-1.06,1.9c-0.7,0.44-1.69,0.66-2.97,0.66c-0.9,0-1.6-0.09-2.12-0.28
	c-0.52-0.18-0.89-0.46-1.11-0.84c-0.22-0.37-0.33-0.85-0.33-1.42h1.22c0,0.33,0.06,0.59,0.19,0.81c0.13,0.21,0.36,0.37,0.7,0.47
	c0.34,0.11,0.82,0.16,1.45,0.16c0.62,0,1.12-0.05,1.51-0.16c0.39-0.1,0.68-0.26,0.87-0.46c0.19-0.2,0.29-0.46,0.29-0.76
	c0-0.4-0.18-0.7-0.54-0.9c-0.36-0.2-0.82-0.3-1.36-0.3h-1.5c-0.73,0-1.26-0.16-1.61-0.48c-0.34-0.32-0.51-0.69-0.51-1.1
	c0-0.27,0.08-0.54,0.23-0.79c0.16-0.26,0.39-0.48,0.7-0.68c-0.49-0.26-0.84-0.57-1.07-0.95c-0.23-0.38-0.34-0.84-0.34-1.38
	c0-0.57,0.14-1.07,0.42-1.51c0.28-0.44,0.68-0.79,1.18-1.04c0.51-0.25,1.09-0.38,1.75-0.38c0.71-0.01,1.29-0.03,1.73-0.09
	c0.44-0.06,0.82-0.14,1.14-0.25C113.99,27,114.32,26.87,114.65,26.73z M110.81,28.43c-0.68,0-1.18,0.18-1.5,0.55
	c-0.32,0.36-0.48,0.83-0.48,1.39c0,0.57,0.17,1.04,0.5,1.41c0.33,0.37,0.84,0.55,1.52,0.55c0.6,0,1.05-0.17,1.36-0.52
	c0.31-0.35,0.47-0.83,0.47-1.45c0-0.63-0.16-1.11-0.47-1.44C111.89,28.59,111.43,28.43,110.81,28.43z M118.45,32.31
	c0.03,0.65,0.15,1.18,0.38,1.6c0.22,0.41,0.52,0.71,0.89,0.91c0.37,0.19,0.77,0.29,1.2,0.29s0.82-0.06,1.17-0.19
	c0.35-0.13,0.71-0.32,1.08-0.57l0.63,0.89c-0.39,0.31-0.85,0.55-1.35,0.73c-0.5,0.18-1.02,0.26-1.54,0.26
	c-0.82,0-1.51-0.18-2.09-0.55c-0.58-0.37-1.02-0.88-1.32-1.54c-0.3-0.66-0.45-1.43-0.45-2.3c0-0.85,0.15-1.61,0.46-2.27
	s0.73-1.18,1.28-1.56c0.55-0.38,1.2-0.57,1.94-0.57c0.71,0,1.32,0.17,1.83,0.5c0.51,0.33,0.9,0.81,1.18,1.42
	c0.28,0.61,0.42,1.35,0.42,2.2c0,0.14,0,0.28-0.01,0.41c-0.01,0.12-0.01,0.23-0.02,0.33H118.45z M120.74,28.55
	c-0.62,0-1.15,0.22-1.57,0.66c-0.42,0.44-0.65,1.13-0.71,2.06h4.39c-0.02-0.9-0.21-1.58-0.59-2.03
	C121.88,28.78,121.37,28.55,120.74,28.55z M25.26,56.07c0.42,0,0.81-0.07,1.18-0.21c0.37-0.14,0.71-0.31,1.02-0.53l0.66,0.88
	c-0.37,0.31-0.81,0.56-1.33,0.74c-0.52,0.18-1.02,0.27-1.52,0.27c-0.84,0-1.55-0.18-2.14-0.54c-0.59-0.36-1.03-0.87-1.34-1.52
	c-0.31-0.66-0.46-1.42-0.46-2.3c0-0.84,0.15-1.6,0.46-2.26c0.31-0.67,0.77-1.2,1.35-1.58c0.59-0.38,1.31-0.58,2.15-0.58
	c0.54,0,1.04,0.08,1.51,0.25c0.47,0.16,0.91,0.4,1.3,0.73l-0.66,0.9c-0.36-0.25-0.72-0.44-1.08-0.56c-0.36-0.13-0.72-0.19-1.1-0.19
	c-0.73,0-1.32,0.27-1.79,0.82c-0.47,0.54-0.7,1.37-0.7,2.49c0,0.75,0.11,1.36,0.32,1.83c0.22,0.47,0.51,0.82,0.89,1.04
	C24.35,55.97,24.78,56.07,25.26,56.07z M34.26,48.45c0.79,0,1.46,0.18,1.99,0.54c0.54,0.36,0.94,0.86,1.21,1.52
	c0.27,0.66,0.41,1.43,0.41,2.32c0,0.86-0.14,1.62-0.42,2.28c-0.28,0.66-0.69,1.18-1.22,1.56c-0.53,0.37-1.19,0.56-1.98,0.56
	c-0.79,0-1.45-0.18-1.99-0.54c-0.54-0.36-0.95-0.87-1.22-1.53c-0.27-0.66-0.41-1.43-0.41-2.31c0-0.87,0.14-1.63,0.42-2.3
	c0.28-0.66,0.69-1.18,1.22-1.54C32.8,48.64,33.47,48.45,34.26,48.45z M34.26,49.55c-0.73,0-1.27,0.27-1.65,0.81
	c-0.37,0.53-0.55,1.37-0.55,2.5c0,1.11,0.18,1.93,0.54,2.47c0.37,0.54,0.91,0.81,1.64,0.81c0.73,0,1.27-0.27,1.63-0.81
	c0.37-0.54,0.55-1.37,0.55-2.49s-0.18-1.95-0.54-2.48C35.52,49.82,34.98,49.55,34.26,49.55z M40.64,57.05v-8.42h1.14l0.1,1.17
	c0.34-0.43,0.77-0.76,1.28-0.99c0.52-0.23,1.02-0.35,1.5-0.35c0.83,0,1.43,0.22,1.8,0.66c0.38,0.44,0.57,1.05,0.57,1.82v6.12H45.7
	v-5.13c0-0.58-0.03-1.04-0.1-1.39c-0.06-0.36-0.2-0.62-0.4-0.78c-0.2-0.17-0.52-0.25-0.94-0.25c-0.33,0-0.64,0.07-0.94,0.22
	c-0.29,0.14-0.55,0.33-0.78,0.54c-0.22,0.21-0.41,0.43-0.56,0.65v6.14H40.64z M56.93,56.63c-0.29,0.19-0.64,0.34-1.05,0.45
	c-0.41,0.11-0.81,0.16-1.21,0.16c-0.91,0-1.61-0.24-2.1-0.71c-0.49-0.47-0.74-1.09-0.74-1.83v-5.02H49.9v-1.04h1.94v-1.91l1.34-0.16
	v2.07h2.91l-0.16,1.04h-2.75v5.01c0,0.47,0.12,0.83,0.37,1.07c0.25,0.25,0.66,0.37,1.24,0.37c0.31,0,0.61-0.04,0.87-0.11
	c0.27-0.07,0.51-0.17,0.74-0.29L56.93,56.63z M60.89,53.31c0.03,0.65,0.15,1.18,0.38,1.6c0.22,0.41,0.52,0.71,0.89,0.91
	c0.37,0.19,0.77,0.29,1.2,0.29c0.43,0,0.82-0.06,1.17-0.19c0.35-0.13,0.71-0.32,1.08-0.57l0.63,0.89c-0.39,0.31-0.85,0.55-1.35,0.73
	c-0.5,0.18-1.02,0.26-1.54,0.26c-0.82,0-1.51-0.18-2.09-0.55c-0.58-0.37-1.02-0.88-1.32-1.54c-0.3-0.66-0.45-1.43-0.45-2.3
	c0-0.85,0.15-1.61,0.46-2.27c0.3-0.66,0.73-1.18,1.28-1.56s1.2-0.57,1.94-0.57c0.71,0,1.32,0.17,1.83,0.5
	c0.51,0.33,0.9,0.81,1.18,1.42c0.28,0.61,0.42,1.35,0.42,2.2c0,0.14,0,0.28-0.01,0.41c-0.01,0.12-0.01,0.23-0.02,0.33H60.89z
	 M63.17,49.55c-0.62,0-1.15,0.22-1.57,0.66c-0.42,0.44-0.65,1.13-0.71,2.06h4.39c-0.02-0.9-0.21-1.58-0.59-2.03
	C64.32,49.78,63.81,49.55,63.17,49.55z M69.42,57.05v-8.42h1.14l0.1,1.17c0.34-0.43,0.77-0.76,1.28-0.99
	c0.52-0.23,1.02-0.35,1.5-0.35c0.83,0,1.43,0.22,1.8,0.66c0.38,0.44,0.57,1.05,0.57,1.82v6.12h-1.34v-5.13
	c0-0.58-0.03-1.04-0.1-1.39c-0.06-0.36-0.2-0.62-0.4-0.78c-0.2-0.17-0.52-0.25-0.94-0.25c-0.33,0-0.64,0.07-0.94,0.22
	c-0.29,0.14-0.55,0.33-0.78,0.54c-0.22,0.21-0.41,0.43-0.56,0.65v6.14H69.42z M85.71,56.63c-0.29,0.19-0.64,0.34-1.05,0.45
	c-0.41,0.11-0.81,0.16-1.21,0.16c-0.91,0-1.61-0.24-2.1-0.71s-0.74-1.09-0.74-1.83v-5.02h-1.94v-1.04h1.94v-1.91l1.34-0.16v2.07
	h2.91l-0.16,1.04h-2.75v5.01c0,0.47,0.12,0.83,0.37,1.07c0.25,0.25,0.66,0.37,1.24,0.37c0.31,0,0.61-0.04,0.87-0.11
	s0.51-0.17,0.74-0.29L85.71,56.63z M26.03,68.1l-3.23-1.49l0.72-1.14l2.95,1.89L26.03,68.1z M35.63,68.1l-3.23-1.49l0.72-1.14
	l2.95,1.89L35.63,68.1z M45.22,68.1l-3.23-1.49l0.72-1.14l2.95,1.89L45.22,68.1z"/>
</svg>
