<?xml version="1.0" encoding="utf-8"?>
<!-- Generator: Adobe Illustrator 27.2.0, SVG Export Plug-In . SVG Version: 6.00 Build 0)  -->
<svg version="1.1" id="Calque_1" xmlns="http://www.w3.org/2000/svg" xmlns:xlink="http://www.w3.org/1999/xlink" x="0px" y="0px"
	 viewBox="0 0 360 100" style="enable-background:new 0 0 360 100;" xml:space="preserve">
<style type="text/css">
	.st0{fill:#FFFFFF;}
</style>
<rect x="0.18" y="0.1" class="st0" width="360" height="100"/>
<path d="M26.36,26.15l-3.23-1.49l0.72-1.14l2.95,1.89L26.36,26.15z M35.95,26.15l-3.23-1.49l0.72-1.14l2.95,1.89L35.95,26.15z
	 M45.55,26.15l-3.23-1.49l0.72-1.14l2.95,1.89L45.55,26.15z M63.02,35.18c0.65,0,1.15-0.12,1.53-0.36c0.38-0.25,0.57-0.57,0.57-0.98
	c0-0.26-0.05-0.48-0.14-0.66c-0.09-0.19-0.28-0.35-0.57-0.5c-0.29-0.15-0.73-0.3-1.33-0.45c-0.58-0.14-1.09-0.31-1.52-0.5
	c-0.43-0.19-0.76-0.44-1-0.74c-0.23-0.3-0.35-0.7-0.35-1.18c0-0.47,0.13-0.88,0.4-1.22c0.27-0.35,0.65-0.61,1.13-0.79
	c0.48-0.19,1.04-0.28,1.67-0.28c0.68,0,1.27,0.09,1.77,0.27c0.51,0.18,0.94,0.39,1.29,0.66l-0.59,0.91
	c-0.32-0.22-0.67-0.4-1.06-0.54c-0.38-0.14-0.85-0.22-1.39-0.22c-0.66,0-1.13,0.1-1.41,0.31c-0.28,0.2-0.42,0.47-0.42,0.79
	c0,0.25,0.07,0.45,0.2,0.62c0.14,0.16,0.37,0.31,0.7,0.44c0.33,0.13,0.77,0.27,1.34,0.42c0.55,0.14,1.03,0.32,1.43,0.52
	c0.41,0.2,0.73,0.47,0.96,0.8s0.34,0.76,0.34,1.28c0,0.6-0.17,1.08-0.51,1.46c-0.34,0.37-0.78,0.64-1.33,0.81
	c-0.54,0.17-1.11,0.25-1.71,0.25c-0.76,0-1.41-0.11-1.95-0.33c-0.53-0.22-0.98-0.49-1.34-0.81l0.77-0.89
	c0.33,0.27,0.71,0.49,1.14,0.66C62.06,35.09,62.53,35.18,63.02,35.18z M70.81,32.37c0.03,0.65,0.15,1.18,0.38,1.6
	c0.22,0.41,0.52,0.71,0.89,0.91c0.37,0.19,0.77,0.29,1.2,0.29s0.82-0.06,1.17-0.19c0.35-0.13,0.71-0.32,1.08-0.57l0.63,0.89
	c-0.39,0.31-0.85,0.55-1.35,0.73c-0.5,0.18-1.02,0.26-1.54,0.26c-0.82,0-1.51-0.18-2.09-0.55c-0.58-0.37-1.02-0.88-1.32-1.54
	c-0.3-0.66-0.45-1.43-0.45-2.3c0-0.85,0.15-1.61,0.46-2.27s0.73-1.18,1.28-1.56c0.55-0.38,1.2-0.57,1.94-0.57
	c0.71,0,1.32,0.17,1.83,0.5c0.51,0.33,0.9,0.81,1.18,1.42c0.28,0.61,0.42,1.35,0.42,2.2c0,0.14,0,0.28-0.01,0.41
	c-0.01,0.12-0.01,0.23-0.02,0.33H70.81z M73.1,28.61c-0.62,0-1.15,0.22-1.57,0.66c-0.42,0.44-0.65,1.13-0.71,2.06h4.39
	c-0.02-0.9-0.21-1.58-0.59-2.03C74.24,28.84,73.73,28.61,73.1,28.61z M86.4,27.68l-3.79,3.79l4.23,4.63h-1.77l-4.14-4.6l3.73-3.82
	H86.4z M80.78,24.12V36.1h-1.34V24.29L80.78,24.12z M90.28,27.68v5.97c0,0.55,0.11,0.95,0.34,1.2c0.23,0.25,0.59,0.37,1.07,0.37
	c0.46,0,0.9-0.13,1.31-0.39c0.42-0.27,0.74-0.58,0.97-0.94v-6.2h1.34v8.42h-1.14l-0.11-1.14c-0.33,0.43-0.74,0.75-1.22,0.98
	c-0.49,0.22-0.98,0.34-1.47,0.34c-0.82,0-1.43-0.22-1.83-0.65c-0.4-0.44-0.6-1.05-0.6-1.83v-6.13H90.28z M98.53,36.1v-8.42h1.14
	l0.1,1.17c0.34-0.43,0.77-0.76,1.28-0.99c0.52-0.23,1.02-0.35,1.5-0.35c0.83,0,1.43,0.22,1.8,0.66c0.38,0.44,0.57,1.05,0.57,1.82
	v6.12h-1.34v-5.13c0-0.58-0.03-1.04-0.1-1.39c-0.06-0.36-0.2-0.62-0.4-0.78c-0.2-0.17-0.52-0.25-0.94-0.25
	c-0.33,0-0.64,0.07-0.94,0.22c-0.29,0.14-0.55,0.33-0.78,0.54c-0.22,0.21-0.41,0.43-0.56,0.65v6.14H98.53z M113.17,24.12l1.34,0.17
	V36.1h-1.18l-0.13-1.11c-0.31,0.45-0.68,0.78-1.09,0.98c-0.41,0.21-0.84,0.31-1.3,0.31c-0.73,0-1.33-0.18-1.81-0.55
	c-0.47-0.37-0.83-0.88-1.06-1.54c-0.23-0.66-0.34-1.43-0.34-2.3c0-0.84,0.13-1.59,0.39-2.26c0.26-0.67,0.64-1.19,1.13-1.57
	c0.5-0.38,1.09-0.58,1.78-0.58c0.49,0,0.91,0.09,1.28,0.26c0.37,0.17,0.69,0.41,0.98,0.74V24.12z M111.26,28.58
	c-0.7,0-1.25,0.27-1.62,0.82c-0.38,0.55-0.57,1.38-0.57,2.5c0,0.73,0.08,1.33,0.23,1.82c0.15,0.49,0.38,0.86,0.68,1.1
	c0.3,0.25,0.67,0.37,1.11,0.37c0.48,0,0.89-0.14,1.22-0.41c0.34-0.27,0.62-0.58,0.85-0.92v-4.21c-0.23-0.34-0.51-0.61-0.83-0.79
	C112.01,28.68,111.65,28.58,111.26,28.58z M28.63,47.78l0.42,1.26c-0.36,0.11-0.74,0.18-1.14,0.21s-0.85,0.04-1.32,0.04
	c0.49,0.22,0.85,0.51,1.1,0.87c0.25,0.35,0.37,0.77,0.37,1.25c0,0.55-0.13,1.05-0.38,1.48s-0.61,0.77-1.09,1.02
	c-0.47,0.25-1.04,0.37-1.7,0.37c-0.28,0-0.52-0.01-0.71-0.04c-0.19-0.03-0.37-0.07-0.54-0.12c-0.13,0.09-0.23,0.2-0.32,0.35
	c-0.08,0.15-0.12,0.3-0.12,0.46c0,0.2,0.08,0.37,0.24,0.5c0.16,0.13,0.46,0.2,0.89,0.2h1.52c0.57,0,1.07,0.1,1.52,0.3
	c0.45,0.2,0.81,0.47,1.06,0.82c0.26,0.34,0.39,0.73,0.39,1.17c0,0.83-0.35,1.46-1.06,1.9c-0.7,0.44-1.69,0.66-2.97,0.66
	c-0.9,0-1.6-0.09-2.12-0.28c-0.52-0.18-0.89-0.46-1.11-0.84c-0.22-0.37-0.33-0.85-0.33-1.42h1.22c0,0.33,0.06,0.59,0.19,0.81
	c0.13,0.21,0.36,0.37,0.7,0.47c0.34,0.11,0.82,0.16,1.45,0.16c0.62,0,1.12-0.05,1.51-0.16c0.39-0.1,0.69-0.26,0.87-0.46
	c0.19-0.2,0.29-0.46,0.29-0.76c0-0.4-0.18-0.7-0.54-0.9c-0.36-0.2-0.82-0.3-1.36-0.3h-1.5c-0.73,0-1.26-0.16-1.61-0.48
	c-0.34-0.32-0.51-0.69-0.51-1.1c0-0.27,0.08-0.54,0.23-0.79c0.16-0.26,0.39-0.48,0.7-0.68c-0.49-0.26-0.84-0.57-1.07-0.95
	s-0.34-0.84-0.34-1.38c0-0.57,0.14-1.07,0.42-1.51c0.28-0.44,0.68-0.79,1.18-1.04c0.51-0.25,1.09-0.38,1.75-0.38
	c0.71-0.01,1.29-0.03,1.73-0.09c0.44-0.06,0.82-0.14,1.14-0.25C27.98,48.05,28.3,47.93,28.63,47.78z M24.79,49.48
	c-0.68,0-1.18,0.18-1.5,0.55c-0.32,0.36-0.48,0.83-0.48,1.39c0,0.57,0.17,1.04,0.5,1.41s0.84,0.55,1.52,0.55
	c0.6,0,1.05-0.17,1.36-0.52c0.31-0.35,0.47-0.83,0.47-1.45c0-0.63-0.16-1.11-0.47-1.44C25.87,49.65,25.41,49.48,24.79,49.48z
	 M31.46,57.1v-1.03h1.31v-6.36h-1.31v-1.03h2.34l0.25,1.99c0.33-0.69,0.72-1.23,1.18-1.61s1.08-0.57,1.84-0.57
	c0.23,0,0.44,0.02,0.62,0.06c0.19,0.03,0.38,0.07,0.57,0.13l-0.39,1.2c-0.18-0.05-0.34-0.08-0.48-0.1c-0.14-0.03-0.31-0.04-0.5-0.04
	c-0.65,0-1.2,0.23-1.66,0.69c-0.46,0.46-0.83,1.15-1.11,2.08v3.57h1.71v1.03H31.46z M36.96,51.53V49.7l0.14-1.02h1.16l-0.19,2.85
	H36.96z M44.18,48.5c0.79,0,1.46,0.18,1.99,0.54c0.54,0.36,0.94,0.86,1.21,1.52c0.27,0.66,0.41,1.43,0.41,2.32
	c0,0.86-0.14,1.62-0.42,2.28c-0.28,0.66-0.69,1.18-1.22,1.56c-0.53,0.37-1.19,0.56-1.98,0.56s-1.45-0.18-1.99-0.54
	c-0.54-0.36-0.95-0.87-1.22-1.53c-0.27-0.66-0.41-1.43-0.41-2.31c0-0.87,0.14-1.63,0.42-2.3c0.28-0.66,0.69-1.18,1.22-1.54
	C42.72,48.69,43.39,48.5,44.18,48.5z M44.18,49.6c-0.73,0-1.27,0.27-1.65,0.81c-0.37,0.53-0.55,1.37-0.55,2.5
	c0,1.11,0.18,1.93,0.54,2.47c0.37,0.54,0.91,0.81,1.64,0.81s1.27-0.27,1.63-0.81c0.37-0.54,0.55-1.37,0.55-2.49
	s-0.18-1.95-0.54-2.48C45.44,49.87,44.9,49.6,44.18,49.6z M51.91,48.68v5.97c0,0.55,0.11,0.95,0.34,1.2
	c0.23,0.25,0.59,0.37,1.07,0.37c0.46,0,0.9-0.13,1.31-0.39c0.42-0.27,0.74-0.58,0.97-0.94v-6.2h1.34v8.42h-1.14l-0.11-1.14
	c-0.33,0.43-0.74,0.75-1.22,0.98c-0.49,0.22-0.98,0.34-1.47,0.34c-0.82,0-1.43-0.22-1.83-0.65c-0.4-0.44-0.6-1.05-0.6-1.83v-6.13
	H51.91z M63.93,48.5c0.75,0,1.34,0.18,1.78,0.54c0.45,0.36,0.77,0.87,0.97,1.54c0.2,0.66,0.3,1.42,0.3,2.3
	c0,0.85-0.12,1.61-0.36,2.27c-0.23,0.66-0.59,1.18-1.07,1.56c-0.48,0.38-1.09,0.57-1.82,0.57c-0.92,0-1.66-0.33-2.22-0.98v4.02
	l-1.34,0.17V48.68h1.14l0.11,1.18c0.31-0.43,0.68-0.77,1.1-1C62.95,48.62,63.42,48.5,63.93,48.5z M63.61,49.58
	c-0.46,0-0.87,0.14-1.23,0.42c-0.35,0.28-0.64,0.59-0.87,0.93v4.18c0.22,0.33,0.49,0.58,0.82,0.78c0.34,0.19,0.7,0.28,1.1,0.28
	c0.7,0,1.22-0.27,1.58-0.8c0.35-0.53,0.53-1.36,0.53-2.49c0-0.74-0.07-1.35-0.21-1.83c-0.14-0.49-0.35-0.86-0.63-1.1
	C64.41,49.71,64.05,49.58,63.61,49.58z M69.74,53.32v-1.17h6.42v1.17H69.74z M83.61,48.68v7.36h2.38v1.06h-6.32v-1.06h2.6v-6.3
	h-2.52v-1.06H83.61z M82.54,44.74c0.3,0,0.54,0.09,0.71,0.27c0.18,0.18,0.27,0.4,0.27,0.66c0,0.27-0.09,0.5-0.27,0.69
	c-0.18,0.18-0.41,0.27-0.71,0.27c-0.28,0-0.51-0.09-0.7-0.27c-0.18-0.19-0.27-0.42-0.27-0.69c0-0.26,0.09-0.48,0.27-0.66
	C82.02,44.83,82.26,44.74,82.54,44.74z M88.94,57.1v-8.42h1.14l0.1,1.17c0.34-0.43,0.77-0.76,1.28-0.99
	c0.52-0.23,1.02-0.35,1.5-0.35c0.83,0,1.43,0.22,1.8,0.66c0.38,0.44,0.57,1.05,0.57,1.82v6.12H94v-5.13c0-0.58-0.03-1.04-0.1-1.39
	c-0.06-0.36-0.2-0.62-0.4-0.78c-0.2-0.17-0.52-0.25-0.94-0.25c-0.33,0-0.64,0.07-0.94,0.22c-0.29,0.14-0.55,0.33-0.78,0.54
	c-0.22,0.21-0.41,0.43-0.56,0.65v6.14H88.94z M103.57,45.12l1.34,0.17V57.1h-1.18l-0.13-1.11c-0.32,0.45-0.68,0.78-1.09,0.98
	c-0.4,0.21-0.84,0.31-1.3,0.31c-0.73,0-1.33-0.18-1.81-0.55s-0.83-0.88-1.06-1.54c-0.23-0.66-0.34-1.43-0.34-2.3
	c0-0.84,0.13-1.59,0.39-2.26c0.26-0.67,0.64-1.19,1.13-1.57c0.5-0.38,1.09-0.58,1.78-0.58c0.49,0,0.91,0.09,1.28,0.26
	c0.37,0.17,0.69,0.41,0.98,0.74V45.12z M101.67,49.58c-0.7,0-1.25,0.27-1.62,0.82c-0.38,0.55-0.57,1.38-0.57,2.5
	c0,0.73,0.08,1.33,0.23,1.82c0.15,0.49,0.38,0.86,0.68,1.1c0.3,0.25,0.68,0.37,1.11,0.37c0.48,0,0.89-0.14,1.22-0.41
	c0.34-0.27,0.62-0.58,0.85-0.92v-4.21c-0.23-0.34-0.51-0.61-0.83-0.79C102.42,49.68,102.06,49.58,101.67,49.58z M109.18,53.37
	c0.03,0.65,0.15,1.18,0.38,1.6c0.22,0.41,0.52,0.71,0.89,0.91c0.37,0.19,0.77,0.29,1.2,0.29s0.82-0.06,1.17-0.19
	c0.35-0.13,0.71-0.32,1.08-0.57l0.63,0.89c-0.39,0.31-0.85,0.55-1.35,0.73c-0.5,0.18-1.02,0.26-1.54,0.26
	c-0.82,0-1.51-0.18-2.09-0.55c-0.58-0.37-1.02-0.88-1.32-1.54c-0.3-0.66-0.45-1.43-0.45-2.3c0-0.85,0.15-1.61,0.46-2.27
	s0.73-1.18,1.28-1.56c0.55-0.38,1.2-0.57,1.94-0.57c0.71,0,1.32,0.17,1.83,0.5c0.51,0.33,0.9,0.81,1.18,1.42
	c0.28,0.61,0.42,1.35,0.42,2.2c0,0.14,0,0.28-0.01,0.41c-0.01,0.12-0.01,0.23-0.02,0.33H109.18z M111.47,49.61
	c-0.62,0-1.15,0.22-1.57,0.66c-0.42,0.44-0.65,1.13-0.71,2.06h4.39c-0.02-0.9-0.21-1.58-0.59-2.03
	C112.61,49.84,112.11,49.61,111.47,49.61z M118.54,57.1H117l3.11-4.45l-2.73-3.98h1.59l1.95,3.14l1.98-3.14h1.54l-2.72,3.92l3.1,4.5
	h-1.65l-2.3-3.62L118.54,57.1z M26.36,68.15l-3.23-1.49l0.72-1.14l2.95,1.89L26.36,68.15z M35.95,68.15l-3.23-1.49l0.72-1.14
	l2.95,1.89L35.95,68.15z M45.55,68.15l-3.23-1.49l0.72-1.14l2.95,1.89L45.55,68.15z"/>
</svg>
