<?xml version="1.0" encoding="utf-8"?>
<!-- Generator: Adobe Illustrator 27.2.0, SVG Export Plug-In . SVG Version: 6.00 Build 0)  -->
<svg version="1.1" id="Calque_1" xmlns="http://www.w3.org/2000/svg" xmlns:xlink="http://www.w3.org/1999/xlink" x="0px" y="0px"
	 viewBox="0 0 360 295" style="enable-background:new 0 0 360 295;" xml:space="preserve">
<style type="text/css">
	.st0{clip-path:url(#SVGID_00000121244005392374197950000002546155512977833137_);}
	.st1{fill:#FFFFFF;}
	.st2{fill:#EFEFEF;}
	.st3{fill:none;stroke:#959595;}
	.st4{fill:#EED9D0;stroke:#FFFFFF;stroke-width:2;}
	.st5{fill:#222222;}
	.st6{fill:#3F3F46;}
	.st7{fill-rule:evenodd;clip-rule:evenodd;fill:#3F3F46;}
	.st8{fill:#242B35;}
	.st9{fill-rule:evenodd;clip-rule:evenodd;fill:#FFFFFF;}
</style>
<g>
	<defs>
		<rect id="SVGID_1_" x="-0.64" y="-0.39" width="360" height="295"/>
	</defs>
	<clipPath id="SVGID_00000017480816651185009560000014364017064892415159_">
		<use xlink:href="#SVGID_1_"  style="overflow:visible;"/>
	</clipPath>
	<g style="clip-path:url(#SVGID_00000017480816651185009560000014364017064892415159_);">
		<rect x="-0.64" y="-0.39" class="st1" width="360" height="295"/>
		<rect x="-0.64" y="29.61" class="st2" width="361" height="205"/>
		<path class="st3" d="M5.36,0.61l348,0"/>
		<circle class="st4" cx="309.36" cy="74.61" r="11"/>
		<circle class="st4" cx="309.36" cy="164.61" r="11"/>
		<circle class="st4" cx="309.36" cy="119.61" r="11"/>
		<circle class="st4" cx="309.36" cy="209.61" r="11"/>
		<circle class="st4" cx="291.36" cy="74.61" r="11"/>
		<circle class="st4" cx="291.36" cy="119.61" r="11"/>
		<circle class="st4" cx="273.36" cy="74.61" r="11"/>
		<circle class="st4" cx="273.36" cy="119.61" r="11"/>
		<path d="M70.49,68.8c0.35,0,0.58-0.21,0.58-0.58v-0.24c0-0.37-0.22-0.58-0.58-0.58h-6.02c-0.37,0-0.58,0.21-0.58,0.58v10.05
			c0,0.37,0.21,0.58,0.58,0.58h6.02c0.35,0,0.58-0.21,0.58-0.58v-0.24c0-0.37-0.22-0.58-0.58-0.58h-4.9v-3.41h4.19
			c0.37,0,0.58-0.22,0.58-0.59v-0.21c0-0.37-0.21-0.58-0.58-0.58H65.6V68.8H70.49z M76.3,78.78c1.07,0,2.11-0.37,2.86-1.44v0.69
			c0,0.37,0.22,0.58,0.59,0.58h0.48c0.37,0,0.58-0.21,0.58-0.58v-6.86c0-0.37-0.21-0.58-0.58-0.58h-0.48
			c-0.37,0-0.59,0.21-0.59,0.58v0.69c-0.75-1.07-1.79-1.44-2.86-1.44c-2.38,0-3.97,1.87-3.97,4.18S73.92,78.78,76.3,78.78z
			 M76.52,77.34c-1.62,0-2.54-1.25-2.54-2.75c0-1.49,0.93-2.75,2.54-2.75c1.58,0,2.66,1.17,2.67,2.75
			C79.18,76.17,78.11,77.34,76.52,77.34z M85.6,78.78c1.57,0,2.91-0.88,2.91-2.42c0-0.86-0.42-1.81-1.95-2.29l-1.15-0.38
			c-0.46-0.14-0.93-0.42-0.93-0.93c0-0.56,0.45-0.99,1.15-0.99c0.35,0,0.7,0.1,0.98,0.42c0.22,0.29,0.42,0.43,0.75,0.34l0.3-0.06
			c0.38-0.08,0.58-0.37,0.37-0.74c-0.53-0.98-1.47-1.31-2.45-1.31c-1.6,0-2.69,1.02-2.69,2.4c0,1.14,0.77,1.82,2,2.19l1.07,0.37
			c0.56,0.19,0.99,0.46,0.99,0.98c0,0.61-0.58,1.06-1.34,1.06c-0.62,0-1.17-0.26-1.49-0.66c-0.21-0.27-0.4-0.42-0.72-0.34l-0.34,0.1
			c-0.38,0.1-0.58,0.35-0.38,0.72C83.24,78.25,84.37,78.78,85.6,78.78z M91.71,82.19h0.38c0.34,0,0.54-0.13,0.67-0.45l4.46-10.48
			c0.18-0.42-0.02-0.67-0.45-0.67h-0.66c-0.34,0-0.58,0.14-0.69,0.46l-2.05,5.41l-2.22-5.42c-0.11-0.3-0.32-0.45-0.66-0.45h-0.64
			c-0.43,0-0.62,0.27-0.45,0.67l3.07,7.04l-1.23,3.22C91.11,81.92,91.28,82.19,91.71,82.19z M105.47,78.61h0.45
			c0.34,0,0.54-0.16,0.64-0.48l2.4-7.78l2.38,7.78c0.1,0.32,0.32,0.48,0.66,0.48h0.43c0.34,0,0.56-0.16,0.66-0.48l3.14-10.05
			c0.13-0.4-0.08-0.67-0.5-0.67h-0.5c-0.34,0-0.56,0.16-0.66,0.48l-2.46,7.87l-2.32-7.5c-0.1-0.32-0.32-0.48-0.66-0.48h-0.37
			c-0.34,0-0.54,0.16-0.64,0.48l-2.34,7.5l-2.45-7.87c-0.11-0.32-0.32-0.48-0.66-0.48h-0.51c-0.42,0-0.61,0.27-0.5,0.67l3.15,10.05
			C104.93,78.45,105.13,78.61,105.47,78.61z M118.06,78.61h0.48c0.37,0,0.58-0.21,0.58-0.58v-2.48c0-3.28,1.44-3.57,2.02-3.57
			c0.14,0,0.29,0.02,0.43,0.05c0.27,0.06,0.43-0.1,0.43-0.5v-0.46c0-0.32-0.05-0.59-0.38-0.64l-0.35-0.02
			c-0.96,0-1.87,0.69-2.14,1.97v-1.22c0-0.37-0.21-0.58-0.58-0.58h-0.48c-0.37,0-0.59,0.21-0.59,0.58v6.86
			C117.47,78.4,117.69,78.61,118.06,78.61z M124.26,69.13c0.64,0,1.14-0.48,1.14-1.09c0-0.62-0.48-1.12-1.14-1.12
			c-0.64,0-1.1,0.5-1.1,1.12C123.15,68.65,123.62,69.13,124.26,69.13z M124.03,78.61h0.48c0.37,0,0.58-0.21,0.58-0.58v-6.86
			c0-0.37-0.21-0.58-0.58-0.58h-0.48c-0.37,0-0.59,0.21-0.59,0.58v6.86C123.44,78.4,123.66,78.61,124.03,78.61z M130.49,78.78
			c1.54,0,2.4-0.88,2.4-2.08c0-0.02,0-0.32-0.06-0.59c-0.03-0.21-0.18-0.29-0.37-0.29h-0.74c-0.22,0-0.32,0.14-0.29,0.37
			c0.03,0.13,0.03,0.24,0.03,0.3c0,0.58-0.45,0.86-0.94,0.86c-0.51,0-0.93-0.34-0.93-1.2v-4.29h2.19c0.21,0,0.32-0.13,0.32-0.34
			v-0.62c0-0.21-0.11-0.32-0.32-0.32h-2.19v-1.81c0-0.3-0.18-0.5-0.48-0.5h-0.34c-0.29,0-0.46,0.16-0.51,0.46l-0.29,1.84h-1.01
			c-0.21,0-0.32,0.11-0.32,0.32v0.62c0,0.21,0.11,0.34,0.32,0.34h0.98v4.19C127.95,78.13,129.21,78.78,130.49,78.78z M138.27,78.78
			c1.01,0,2.08-0.24,3.01-0.99c0.37-0.3,0.37-0.64,0.11-0.91l-0.11-0.13c-0.26-0.26-0.51-0.27-0.82-0.08
			c-0.69,0.46-1.39,0.67-2.18,0.67c-1.74,0-2.98-1.09-2.93-2.58h6.21c0.38,0,0.61-0.21,0.56-0.59c-0.22-2.56-2.06-3.76-4.08-3.76
			c-2.5,0-4.32,1.87-4.32,4.21C133.72,76.91,135.45,78.78,138.27,78.78z M135.5,73.55c0.5-1.36,1.65-1.73,2.58-1.73
			c0.88,0,2,0.3,2.42,1.73H135.5z M144.45,78.61h0.48c0.37,0,0.58-0.21,0.58-0.58v-2.48c0-3.28,1.44-3.57,2.02-3.57
			c0.14,0,0.29,0.02,0.43,0.05c0.27,0.06,0.43-0.1,0.43-0.5v-0.46c0-0.32-0.05-0.59-0.38-0.64l-0.35-0.02
			c-0.96,0-1.87,0.69-2.14,1.97v-1.22c0-0.37-0.21-0.58-0.58-0.58h-0.48c-0.37,0-0.59,0.21-0.59,0.58v6.86
			C143.86,78.4,144.09,78.61,144.45,78.61z M152.17,78.78c1.57,0,2.91-0.88,2.91-2.42c0-0.86-0.42-1.81-1.95-2.29l-1.15-0.38
			c-0.46-0.14-0.93-0.42-0.93-0.93c0-0.56,0.45-0.99,1.15-0.99c0.35,0,0.7,0.1,0.98,0.42c0.22,0.29,0.42,0.43,0.75,0.34l0.3-0.06
			c0.38-0.08,0.58-0.37,0.37-0.74c-0.53-0.98-1.47-1.31-2.45-1.31c-1.6,0-2.69,1.02-2.69,2.4c0,1.14,0.77,1.82,2,2.19l1.07,0.37
			c0.56,0.19,0.99,0.46,0.99,0.98c0,0.61-0.58,1.06-1.34,1.06c-0.62,0-1.17-0.26-1.49-0.66c-0.21-0.27-0.4-0.42-0.72-0.34l-0.34,0.1
			c-0.38,0.1-0.58,0.35-0.38,0.72C149.8,78.25,150.94,78.78,152.17,78.78z"/>
		<path d="M64.03,168.61h0.53c0.37,0,0.58-0.18,0.61-0.54l0.7-8.08l3.33,8.03c0.13,0.3,0.32,0.45,0.66,0.45h0.27
			c0.34,0,0.54-0.14,0.67-0.45l3.33-8.03l0.69,8.08c0.03,0.37,0.26,0.54,0.62,0.54h0.53c0.38,0,0.59-0.21,0.56-0.61l-0.94-10.05
			c-0.03-0.37-0.24-0.54-0.61-0.54h-0.83c-0.34,0-0.53,0.13-0.67,0.45L70,166.19l-3.49-8.34c-0.13-0.32-0.34-0.45-0.66-0.45H65
			c-0.35,0-0.56,0.18-0.59,0.54L63.45,168C63.42,168.4,63.64,168.61,64.03,168.61z M79.62,159.13c0.64,0,1.14-0.48,1.14-1.09
			c0-0.62-0.48-1.12-1.14-1.12c-0.64,0-1.1,0.5-1.1,1.12C78.51,158.65,78.98,159.13,79.62,159.13z M79.39,168.61h0.48
			c0.37,0,0.58-0.21,0.58-0.58v-6.86c0-0.37-0.21-0.58-0.58-0.58h-0.48c-0.37,0-0.59,0.21-0.59,0.58v6.86
			C78.8,168.4,79.02,168.61,79.39,168.61z M88.68,168.78c0.16,0,0.7,0,1.25-0.26c0.4-0.19,0.48-0.46,0.4-0.66l-0.26-0.51
			c-0.11-0.19-0.24-0.22-0.46-0.14c-0.29,0.13-0.59,0.14-0.72,0.14c-0.7,0-0.93-0.4-1.39-1.06l-1.33-2.03l2.46-2.98
			c0.32-0.38,0.18-0.7-0.34-0.7h-0.61c-0.3,0-0.53,0.1-0.7,0.34l-2.45,3.02v-6.34c0-0.37-0.21-0.58-0.58-0.58h-0.48
			c-0.37,0-0.59,0.21-0.59,0.58v10.42c0,0.37,0.22,0.58,0.59,0.58h0.48c0.37,0,0.58-0.21,0.58-0.58v-3.52l1.57,2.54
			C86.6,167.77,87.15,168.78,88.68,168.78z M95.14,168.78c1.01,0,2.08-0.24,3.01-0.99c0.37-0.3,0.37-0.64,0.11-0.91l-0.11-0.13
			c-0.26-0.26-0.51-0.27-0.82-0.08c-0.69,0.46-1.39,0.67-2.18,0.67c-1.74,0-2.98-1.09-2.93-2.58h6.21c0.38,0,0.61-0.21,0.56-0.59
			c-0.22-2.56-2.06-3.76-4.08-3.76c-2.5,0-4.32,1.87-4.32,4.21C90.6,166.91,92.33,168.78,95.14,168.78z M92.37,163.55
			c0.5-1.36,1.65-1.73,2.58-1.73c0.88,0,2,0.3,2.42,1.73H92.37z M110.27,168.78c3.23,0,5.82-2.59,5.82-5.78
			c0-3.18-2.59-5.78-5.82-5.78s-5.82,2.59-5.82,5.78C104.44,166.19,107.04,168.78,110.27,168.78z M110.27,167.26
			c-2.26,0-4.1-1.84-4.1-4.26s1.84-4.26,4.1-4.26s4.1,1.84,4.1,4.26S112.52,167.26,110.27,167.26z M118.64,168.61h0.48
			c0.37,0,0.58-0.21,0.58-0.58v-10.42c0-0.37-0.21-0.58-0.58-0.58h-0.48c-0.37,0-0.59,0.21-0.59,0.58v10.42
			C118.05,168.4,118.27,168.61,118.64,168.61z M125.57,168.78c1.07,0,2.11-0.37,2.86-1.44v0.69c0,0.37,0.22,0.58,0.59,0.58h0.48
			c0.37,0,0.58-0.21,0.58-0.58v-10.42c0-0.37-0.21-0.58-0.58-0.58h-0.48c-0.37,0-0.59,0.21-0.59,0.58v4.24
			c-0.75-1.07-1.79-1.44-2.86-1.44c-2.38,0-3.97,1.87-3.97,4.18S123.18,168.78,125.57,168.78z M125.79,167.34
			c-1.62,0-2.54-1.25-2.54-2.75c0-1.49,0.93-2.75,2.54-2.75c1.58,0,2.66,1.17,2.67,2.75C128.45,166.17,127.37,167.34,125.79,167.34z
			 M133.61,168.61h0.53c0.37,0,0.58-0.21,0.58-0.58v-6.16h4.1v6.16c0,0.37,0.21,0.58,0.57,0.58h0.48c0.37,0,0.59-0.21,0.59-0.58
			v-6.85c0-0.37-0.22-0.59-0.59-0.59h-5.15v-0.56c0-1.42,0.83-1.76,1.71-1.76c0.42,0,0.93,0.1,1.22,0.43
			c0.22,0.27,0.42,0.37,0.74,0.27l0.38-0.11c0.37-0.11,0.42-0.35,0.21-0.7c-0.58-0.96-1.62-1.28-2.62-1.28
			c-1.57,0-3.31,0.58-3.31,3.15v0.56h-0.7c-0.35,0-0.54,0.21-0.54,0.56v0.16c0,0.35,0.19,0.56,0.54,0.56h0.7v6.16
			C133.03,168.4,133.24,168.61,133.61,168.61z M146.86,168.78c1.01,0,2.08-0.24,3.01-0.99c0.37-0.3,0.37-0.64,0.11-0.91l-0.11-0.13
			c-0.26-0.26-0.51-0.27-0.82-0.08c-0.69,0.46-1.39,0.67-2.18,0.67c-1.74,0-2.98-1.09-2.93-2.58h6.21c0.38,0,0.61-0.21,0.56-0.59
			c-0.22-2.56-2.06-3.76-4.08-3.76c-2.5,0-4.32,1.87-4.32,4.21C142.32,166.91,144.04,168.78,146.86,168.78z M144.09,163.55
			c0.5-1.36,1.65-1.73,2.58-1.73c0.88,0,2,0.3,2.42,1.73H144.09z M153.1,168.61h0.48c0.37,0,0.58-0.21,0.58-0.58v-10.42
			c0-0.37-0.21-0.58-0.58-0.58h-0.48c-0.37,0-0.59,0.21-0.59,0.58v10.42C152.5,168.4,152.73,168.61,153.1,168.61z M160.02,168.78
			c1.07,0,2.11-0.37,2.86-1.44v0.69c0,0.37,0.22,0.58,0.59,0.58h0.48c0.37,0,0.58-0.21,0.58-0.58v-10.42c0-0.37-0.21-0.58-0.58-0.58
			h-0.48c-0.37,0-0.59,0.21-0.59,0.58v4.24c-0.75-1.07-1.79-1.44-2.86-1.44c-2.38,0-3.97,1.87-3.97,4.18
			S157.64,168.78,160.02,168.78z M160.24,167.34c-1.62,0-2.54-1.25-2.54-2.75c0-1.49,0.93-2.75,2.54-2.75
			c1.58,0,2.66,1.17,2.67,2.75C162.9,166.17,161.83,167.34,160.24,167.34z"/>
		<path d="M68.19,211.78c2.42,0,4.46-1.49,4.46-4.34v-6.46c0-0.37-0.22-0.58-0.59-0.58h-0.53c-0.37,0-0.58,0.21-0.58,0.58v6.46
			c0,1.89-1.28,2.82-2.77,2.82c-1.47,0-2.75-0.93-2.75-2.82v-6.46c0-0.37-0.21-0.58-0.58-0.58h-0.54c-0.35,0-0.58,0.21-0.58,0.58
			v6.46C63.74,210.29,65.79,211.78,68.19,211.78z M75.73,211.61h0.48c0.37,0,0.58-0.21,0.58-0.58v-2.48c0-3.28,1.44-3.57,2.02-3.57
			c0.14,0,0.29,0.02,0.43,0.05c0.27,0.06,0.43-0.1,0.43-0.5v-0.46c0-0.32-0.05-0.59-0.38-0.64l-0.35-0.02
			c-0.96,0-1.87,0.69-2.14,1.97v-1.22c0-0.37-0.21-0.58-0.58-0.58h-0.48c-0.37,0-0.59,0.21-0.59,0.58v6.86
			C75.14,211.4,75.37,211.61,75.73,211.61z M83.45,211.78c1.57,0,2.91-0.88,2.91-2.42c0-0.86-0.42-1.81-1.95-2.29l-1.15-0.38
			c-0.46-0.14-0.93-0.42-0.93-0.93c0-0.56,0.45-0.99,1.15-0.99c0.35,0,0.7,0.1,0.98,0.42c0.22,0.29,0.42,0.43,0.75,0.34l0.3-0.06
			c0.38-0.08,0.58-0.37,0.37-0.74c-0.53-0.98-1.47-1.31-2.45-1.31c-1.6,0-2.69,1.02-2.69,2.4c0,1.14,0.77,1.82,2,2.19l1.07,0.37
			c0.56,0.19,0.99,0.46,0.99,0.98c0,0.61-0.58,1.06-1.34,1.06c-0.62,0-1.17-0.26-1.49-0.66c-0.21-0.27-0.4-0.42-0.72-0.34l-0.34,0.1
			c-0.38,0.1-0.58,0.35-0.38,0.72C81.08,211.25,82.22,211.78,83.45,211.78z M91.12,211.78c1.3,0,2.32-0.62,2.67-1.74v0.99
			c0,0.37,0.21,0.58,0.58,0.58h0.48c0.37,0,0.59-0.21,0.59-0.58v-6.86c0-0.37-0.22-0.58-0.59-0.58h-0.48
			c-0.37,0-0.58,0.21-0.58,0.58v3.18c0,2.42-1.66,2.99-2.5,2.99c-0.85,0-1.58-0.61-1.58-2.24v-3.94c0-0.37-0.22-0.58-0.59-0.58
			h-0.48c-0.37,0-0.58,0.21-0.58,0.58v3.95C88.06,210.63,89.34,211.78,91.12,211.78z M98.47,211.61h0.48c0.37,0,0.58-0.21,0.58-0.58
			v-10.42c0-0.37-0.21-0.58-0.58-0.58h-0.48c-0.37,0-0.59,0.21-0.59,0.58v10.42C97.88,211.4,98.1,211.61,98.47,211.61z
			 M105.38,211.78c1.07,0,2.11-0.37,2.86-1.44v0.69c0,0.37,0.22,0.58,0.59,0.58h0.48c0.37,0,0.58-0.21,0.58-0.58v-6.86
			c0-0.37-0.21-0.58-0.58-0.58h-0.48c-0.37,0-0.59,0.21-0.59,0.58v0.69c-0.75-1.07-1.79-1.44-2.86-1.44c-2.38,0-3.97,1.87-3.97,4.18
			S102.99,211.78,105.38,211.78z M105.6,210.34c-1.62,0-2.54-1.25-2.54-2.75c0-1.49,0.93-2.75,2.54-2.75c1.58,0,2.66,1.17,2.67,2.75
			C108.26,209.17,107.19,210.34,105.6,210.34z M116.34,211.61h8.18c0.37,0,0.59-0.21,0.59-0.58v-0.24c0-0.37-0.22-0.58-0.59-0.58
			h-6.58l6.54-8.24c0.18-0.21,0.26-0.43,0.26-0.7v-0.29c0-0.37-0.22-0.58-0.59-0.58h-7.39c-0.37,0-0.58,0.21-0.58,0.58v0.24
			c0,0.37,0.21,0.58,0.58,0.58h5.73l-6.48,8.24c-0.18,0.21-0.26,0.43-0.26,0.7v0.29C115.75,211.4,115.97,211.61,116.34,211.61z
			 M130.61,211.78c1.01,0,2.08-0.24,3.01-0.99c0.37-0.3,0.37-0.64,0.11-0.91l-0.11-0.13c-0.26-0.26-0.51-0.27-0.82-0.08
			c-0.69,0.46-1.39,0.67-2.18,0.67c-1.74,0-2.98-1.09-2.93-2.58h6.21c0.38,0,0.61-0.21,0.56-0.59c-0.22-2.56-2.06-3.76-4.08-3.76
			c-2.5,0-4.32,1.87-4.32,4.21C126.07,209.91,127.79,211.78,130.61,211.78z M127.84,206.55c0.5-1.36,1.65-1.73,2.58-1.73
			c0.88,0,2,0.3,2.42,1.73H127.84z M136.8,211.61h0.48c0.37,0,0.58-0.21,0.58-0.58v-3.18c0-2.43,1.66-2.99,2.5-2.99
			c0.85,0,1.6,0.59,1.6,2.24v3.94c0,0.37,0.21,0.58,0.58,0.58h0.48c0.37,0,0.59-0.21,0.59-0.58v-3.95c0-2.51-1.3-3.66-3.07-3.66
			c-1.3,0-2.32,0.62-2.67,1.74v-0.99c0-0.37-0.21-0.58-0.58-0.58h-0.48c-0.37,0-0.59,0.21-0.59,0.58v6.86
			C136.21,211.4,136.43,211.61,136.8,211.61z M146.53,211.61h0.48c0.37,0,0.58-0.21,0.58-0.58v-10.42c0-0.37-0.21-0.58-0.58-0.58
			h-0.48c-0.37,0-0.59,0.21-0.59,0.58v10.42C145.94,211.4,146.16,211.61,146.53,211.61z M150.91,202.13c0.64,0,1.14-0.48,1.14-1.09
			c0-0.62-0.48-1.12-1.14-1.12c-0.64,0-1.1,0.5-1.1,1.12C149.81,201.65,150.27,202.13,150.91,202.13z M150.69,211.61h0.48
			c0.37,0,0.58-0.21,0.58-0.58v-6.86c0-0.37-0.21-0.58-0.58-0.58h-0.48c-0.37,0-0.59,0.21-0.59,0.58v6.86
			C150.1,211.4,150.32,211.61,150.69,211.61z M154.8,211.61h0.48c0.37,0,0.58-0.21,0.58-0.58v-3.18c0-2.43,1.66-2.99,2.5-2.99
			c0.85,0,1.6,0.59,1.6,2.24v3.94c0,0.37,0.21,0.58,0.58,0.58h0.48c0.37,0,0.59-0.21,0.59-0.58v-3.95c0-2.51-1.3-3.66-3.07-3.66
			c-1.3,0-2.32,0.62-2.67,1.74v-0.99c0-0.37-0.21-0.58-0.58-0.58h-0.48c-0.37,0-0.59,0.21-0.59,0.58v6.86
			C154.21,211.4,154.43,211.61,154.8,211.61z M166.28,211.78c1.57,0,2.91-0.88,2.91-2.42c0-0.86-0.42-1.81-1.95-2.29l-1.15-0.38
			c-0.46-0.14-0.93-0.42-0.93-0.93c0-0.56,0.45-0.99,1.15-0.99c0.35,0,0.7,0.1,0.98,0.42c0.22,0.29,0.42,0.43,0.75,0.34l0.3-0.06
			c0.38-0.08,0.58-0.37,0.37-0.74c-0.53-0.98-1.47-1.31-2.45-1.31c-1.6,0-2.69,1.02-2.69,2.4c0,1.14,0.77,1.82,2,2.19l1.07,0.37
			c0.56,0.19,0.99,0.46,0.99,0.98c0,0.61-0.58,1.06-1.34,1.06c-0.62,0-1.17-0.26-1.49-0.66c-0.21-0.27-0.4-0.42-0.72-0.34l-0.34,0.1
			c-0.38,0.1-0.58,0.35-0.38,0.72C163.91,211.25,165.04,211.78,166.28,211.78z M176.78,211.78c0.16,0,0.7,0,1.25-0.26
			c0.4-0.19,0.48-0.46,0.4-0.66l-0.26-0.51c-0.11-0.19-0.24-0.22-0.46-0.14c-0.29,0.13-0.59,0.14-0.72,0.14
			c-0.7,0-0.93-0.4-1.39-1.06l-1.33-2.03l2.46-2.98c0.32-0.38,0.18-0.7-0.34-0.7h-0.61c-0.3,0-0.53,0.1-0.7,0.34l-2.45,3.02v-6.34
			c0-0.37-0.21-0.58-0.58-0.58h-0.48c-0.37,0-0.59,0.21-0.59,0.58v10.42c0,0.37,0.22,0.58,0.59,0.58h0.48
			c0.37,0,0.58-0.21,0.58-0.58v-3.52l1.57,2.54C174.7,210.77,175.24,211.78,176.78,211.78z M181.2,215.19h0.38
			c0.34,0,0.54-0.13,0.67-0.45l4.46-10.48c0.18-0.42-0.02-0.67-0.45-0.67h-0.66c-0.34,0-0.58,0.14-0.69,0.46l-2.05,5.41l-2.22-5.42
			c-0.11-0.3-0.32-0.45-0.66-0.45h-0.64c-0.43,0-0.62,0.27-0.45,0.67l3.07,7.04l-1.23,3.22
			C180.59,214.92,180.77,215.19,181.2,215.19z"/>
		<path d="M69.05,123.78c1.02,0,2.42-0.22,3.7-1.17c0.37-0.29,0.5-0.54,0.5-0.85v-3.23c0-0.37-0.21-0.58-0.58-0.58h-3.5
			c-0.37,0-0.58,0.21-0.58,0.58v0.19c0,0.37,0.21,0.59,0.58,0.59h2.53v2.22c-0.75,0.48-1.58,0.72-2.56,0.72
			c-2.88,0-4.32-2.1-4.32-4.24c0-2.38,1.82-4.27,4.1-4.27c0.85,0,1.62,0.02,2.86,0.69c0.35,0.19,0.62,0.14,0.8-0.21l0.16-0.27
			c0.18-0.34,0.11-0.61-0.19-0.8c-1.09-0.67-2.26-0.93-3.63-0.93c-3.23,0-5.82,2.58-5.82,5.81
			C63.08,121.19,65.58,123.78,69.05,123.78z M75.92,123.61h0.48c0.37,0,0.58-0.21,0.58-0.58v-2.48c0-3.28,1.44-3.57,2.02-3.57
			c0.14,0,0.29,0.02,0.43,0.05c0.27,0.06,0.43-0.1,0.43-0.5v-0.46c0-0.32-0.05-0.59-0.38-0.64l-0.35-0.02
			c-0.96,0-1.87,0.69-2.14,1.97v-1.22c0-0.37-0.21-0.58-0.58-0.58h-0.48c-0.37,0-0.59,0.21-0.59,0.58v6.86
			C75.33,123.4,75.55,123.61,75.92,123.61z M84.73,123.78c2.35,0,4.26-1.87,4.26-4.19c0-2.29-1.9-4.18-4.26-4.18
			c-2.34,0-4.22,1.87-4.22,4.18C80.5,121.93,82.39,123.78,84.73,123.78z M84.73,122.34c-1.42,0-2.59-1.22-2.59-2.74
			s1.17-2.75,2.59-2.75c1.46,0,2.61,1.23,2.61,2.75S86.18,122.34,84.73,122.34z M93.74,123.78c1.3,0,2.32-0.62,2.67-1.74v0.99
			c0,0.37,0.21,0.58,0.58,0.58h0.48c0.37,0,0.59-0.21,0.59-0.58v-6.86c0-0.37-0.22-0.58-0.59-0.58h-0.48
			c-0.37,0-0.58,0.21-0.58,0.58v3.18c0,2.42-1.66,2.99-2.5,2.99c-0.85,0-1.58-0.61-1.58-2.24v-3.94c0-0.37-0.22-0.58-0.59-0.58
			h-0.48c-0.37,0-0.58,0.21-0.58,0.58v3.95C90.69,122.63,91.97,123.78,93.74,123.78z M101.05,127.19h0.48
			c0.37,0,0.58-0.21,0.58-0.58v-4.27c0.75,1.07,1.81,1.44,2.88,1.44c2.38,0,3.97-1.89,3.97-4.19s-1.58-4.18-3.97-4.18
			c-1.07,0-2.13,0.37-2.88,1.44v-0.69c0-0.37-0.21-0.58-0.58-0.58h-0.48c-0.37,0-0.59,0.21-0.59,0.58v10.45
			C100.46,126.98,100.68,127.19,101.05,127.19z M104.74,122.34c-1.57,0-2.66-1.17-2.67-2.75c0.02-1.58,1.1-2.75,2.67-2.75
			c1.63,0,2.56,1.26,2.56,2.75C107.3,121.09,106.38,122.34,104.74,122.34z M114.72,123.78c1.01,0,2.08-0.24,3.01-0.99
			c0.37-0.3,0.37-0.64,0.11-0.91l-0.11-0.13c-0.26-0.26-0.51-0.27-0.82-0.08c-0.69,0.46-1.39,0.67-2.18,0.67
			c-1.74,0-2.98-1.09-2.93-2.58h6.21c0.38,0,0.61-0.21,0.56-0.59c-0.22-2.56-2.06-3.76-4.08-3.76c-2.5,0-4.32,1.87-4.32,4.21
			C110.18,121.91,111.9,123.78,114.72,123.78z M111.95,118.55c0.5-1.36,1.65-1.73,2.58-1.73c0.88,0,2,0.3,2.42,1.73H111.95z
			 M130.49,117.86c1.46-0.37,2.11-1.41,2.11-2.56c0-1.81-1.58-2.9-3.73-2.9h-3.46c-0.37,0-0.58,0.21-0.58,0.58v10.05
			c0,0.37,0.21,0.58,0.58,0.58h3.97c2.24,0,3.74-1.18,3.74-2.99C133.13,119.24,132.25,118.05,130.49,117.86z M128.85,113.8
			c1.07,0,2,0.56,2,1.63c0,0.96-0.72,1.9-2.62,1.9h-1.7v-3.54H128.85z M129.37,122.21h-2.83v-3.6h2.05c1.98,0,2.82,0.94,2.82,1.94
			C131.4,121.56,130.55,122.21,129.37,122.21z"/>
		<path class="st5" d="M19.36,54.61h30c1.66,0,3,1.34,3,3v30c0,1.66-1.34,3-3,3h-30c-1.66,0-3-1.34-3-3v-30
			C16.36,55.95,17.71,54.61,19.36,54.61z"/>
		<path class="st5" d="M19.36,99.61h30c1.66,0,3,1.34,3,3v30c0,1.66-1.34,3-3,3h-30c-1.66,0-3-1.34-3-3v-30
			C16.36,100.95,17.71,99.61,19.36,99.61z"/>
		<path class="st1" d="M30.51,67.57c0.4,0,0.65-0.23,0.65-0.65v-0.27c0-0.41-0.25-0.65-0.65-0.65h-6.77c-0.41,0-0.65,0.23-0.65,0.65
			v11.3c0,0.41,0.23,0.65,0.65,0.65h6.77c0.4,0,0.65-0.23,0.65-0.65v-0.27c0-0.41-0.25-0.65-0.65-0.65H25v-3.83h4.72
			c0.41,0,0.65-0.25,0.65-0.67v-0.23c0-0.41-0.23-0.65-0.65-0.65H25v-4.09H30.51z M37.06,78.61h0.5c0.38,0,0.61-0.18,0.72-0.54
			l2.7-8.75l2.68,8.75c0.11,0.36,0.36,0.54,0.74,0.54h0.49c0.38,0,0.63-0.18,0.74-0.54l3.53-11.3c0.14-0.45-0.09-0.76-0.56-0.76
			h-0.56c-0.38,0-0.63,0.18-0.74,0.54l-2.77,8.86l-2.61-8.44c-0.11-0.36-0.36-0.54-0.74-0.54h-0.41c-0.38,0-0.61,0.18-0.72,0.54
			l-2.63,8.44l-2.75-8.86c-0.13-0.36-0.36-0.54-0.74-0.54h-0.58c-0.47,0-0.68,0.31-0.56,0.76l3.55,11.3
			C36.44,78.43,36.68,78.61,37.06,78.61z"/>
		<path class="st1" d="M28.89,123.8c1.15,0,2.72-0.25,4.16-1.31c0.41-0.32,0.56-0.61,0.56-0.95v-3.64c0-0.41-0.23-0.65-0.65-0.65
			h-3.94c-0.41,0-0.65,0.23-0.65,0.65v0.22c0,0.41,0.23,0.67,0.65,0.67h2.84v2.5c-0.85,0.54-1.78,0.81-2.88,0.81
			c-3.24,0-4.86-2.36-4.86-4.77c0-2.68,2.05-4.81,4.61-4.81c0.95,0,1.82,0.02,3.22,0.77c0.4,0.22,0.7,0.16,0.9-0.23l0.18-0.31
			c0.2-0.38,0.13-0.68-0.22-0.9c-1.22-0.76-2.54-1.04-4.09-1.04c-3.64,0-6.55,2.9-6.55,6.53C22.17,120.89,24.98,123.8,28.89,123.8z
			 M42.68,117.14c1.64-0.41,2.38-1.58,2.38-2.88c0-2.03-1.78-3.26-4.19-3.26h-3.89c-0.41,0-0.65,0.23-0.65,0.65v11.3
			c0,0.41,0.23,0.65,0.65,0.65h4.46c2.52,0,4.21-1.33,4.21-3.37C45.65,118.69,44.66,117.36,42.68,117.14z M40.85,112.57
			c1.21,0,2.25,0.63,2.25,1.84c0,1.08-0.81,2.14-2.95,2.14h-1.91v-3.98H40.85z M41.42,122.04h-3.19v-4.05h2.3
			c2.23,0,3.17,1.06,3.17,2.18C43.71,121.3,42.75,122.04,41.42,122.04z"/>
		<path class="st6" d="M331.36,68.61c0-0.27-0.11-0.52-0.29-0.71c-0.19-0.19-0.44-0.29-0.71-0.29s-0.52,0.11-0.71,0.29
			c-0.19,0.19-0.29,0.44-0.29,0.71v7.27c-0.3,0.18-0.56,0.43-0.73,0.73c-0.18,0.3-0.27,0.65-0.27,1s0.09,0.7,0.27,1
			c0.18,0.3,0.43,0.56,0.73,0.73v1.27c0,0.27,0.11,0.52,0.29,0.71c0.19,0.19,0.44,0.29,0.71,0.29s0.52-0.11,0.71-0.29
			c0.19-0.19,0.29-0.44,0.29-0.71v-1.27c0.3-0.18,0.56-0.43,0.73-0.73c0.18-0.3,0.27-0.65,0.27-1s-0.09-0.7-0.27-1
			c-0.18-0.3-0.43-0.56-0.73-0.73V68.61z M337.36,68.61c0-0.27-0.11-0.52-0.29-0.71c-0.19-0.19-0.44-0.29-0.71-0.29
			s-0.52,0.11-0.71,0.29c-0.19,0.19-0.29,0.44-0.29,0.71v1.27c-0.3,0.18-0.56,0.43-0.73,0.73c-0.18,0.3-0.27,0.65-0.27,1
			s0.09,0.7,0.27,1c0.18,0.3,0.43,0.56,0.73,0.73v7.27c0,0.27,0.11,0.52,0.29,0.71c0.19,0.19,0.44,0.29,0.71,0.29
			s0.52-0.11,0.71-0.29c0.19-0.19,0.29-0.44,0.29-0.71v-7.27c0.3-0.18,0.56-0.43,0.73-0.73c0.18-0.3,0.27-0.65,0.27-1
			s-0.09-0.7-0.27-1c-0.18-0.3-0.43-0.56-0.73-0.73V68.61z M342.36,67.61c0.27,0,0.52,0.11,0.71,0.29c0.19,0.19,0.29,0.44,0.29,0.71
			v7.27c0.3,0.18,0.56,0.43,0.73,0.73c0.18,0.3,0.27,0.65,0.27,1s-0.09,0.7-0.27,1c-0.18,0.3-0.43,0.56-0.73,0.73v1.27
			c0,0.27-0.11,0.52-0.29,0.71c-0.19,0.19-0.44,0.29-0.71,0.29s-0.52-0.11-0.71-0.29c-0.19-0.19-0.29-0.44-0.29-0.71v-1.27
			c-0.3-0.18-0.56-0.43-0.73-0.73c-0.18-0.3-0.27-0.65-0.27-1s0.09-0.7,0.27-1c0.18-0.3,0.43-0.56,0.73-0.73v-7.27
			c0-0.27,0.11-0.52,0.29-0.71C341.84,67.71,342.1,67.61,342.36,67.61z"/>
		<path class="st6" d="M331.36,158.61c0-0.26-0.11-0.52-0.29-0.71c-0.19-0.19-0.44-0.29-0.71-0.29s-0.52,0.1-0.71,0.29
			c-0.19,0.19-0.29,0.44-0.29,0.71v7.27c-0.3,0.18-0.56,0.43-0.73,0.73s-0.27,0.65-0.27,1s0.09,0.7,0.27,1s0.43,0.56,0.73,0.73v1.27
			c0,0.26,0.11,0.52,0.29,0.71c0.19,0.19,0.44,0.29,0.71,0.29s0.52-0.1,0.71-0.29c0.19-0.19,0.29-0.44,0.29-0.71v-1.27
			c0.3-0.18,0.56-0.43,0.73-0.73s0.27-0.65,0.27-1s-0.09-0.7-0.27-1s-0.43-0.56-0.73-0.73V158.61z M337.36,158.61
			c0-0.26-0.11-0.52-0.29-0.71c-0.19-0.19-0.44-0.29-0.71-0.29s-0.52,0.1-0.71,0.29c-0.19,0.19-0.29,0.44-0.29,0.71v1.27
			c-0.3,0.18-0.56,0.43-0.73,0.73s-0.27,0.65-0.27,1s0.09,0.7,0.27,1s0.43,0.56,0.73,0.73v7.27c0,0.26,0.11,0.52,0.29,0.71
			c0.19,0.19,0.44,0.29,0.71,0.29s0.52-0.1,0.71-0.29c0.19-0.19,0.29-0.44,0.29-0.71v-7.27c0.3-0.18,0.56-0.43,0.73-0.73
			s0.27-0.65,0.27-1s-0.09-0.7-0.27-1s-0.43-0.56-0.73-0.73V158.61z M342.36,157.61c0.27,0,0.52,0.1,0.71,0.29
			c0.19,0.19,0.29,0.44,0.29,0.71v7.27c0.3,0.18,0.56,0.43,0.73,0.73s0.27,0.65,0.27,1s-0.09,0.7-0.27,1s-0.43,0.56-0.73,0.73v1.27
			c0,0.26-0.11,0.52-0.29,0.71c-0.19,0.19-0.44,0.29-0.71,0.29s-0.52-0.1-0.71-0.29c-0.19-0.19-0.29-0.44-0.29-0.71v-1.27
			c-0.3-0.18-0.56-0.43-0.73-0.73s-0.27-0.65-0.27-1s0.09-0.7,0.27-1s0.43-0.56,0.73-0.73v-7.27c0-0.26,0.11-0.52,0.29-0.71
			C341.84,157.71,342.1,157.61,342.36,157.61z"/>
		<path class="st6" d="M331.36,113.61c0-0.26-0.11-0.52-0.29-0.71c-0.19-0.19-0.44-0.29-0.71-0.29s-0.52,0.11-0.71,0.29
			c-0.19,0.19-0.29,0.44-0.29,0.71v7.27c-0.3,0.18-0.56,0.43-0.73,0.73s-0.27,0.65-0.27,1s0.09,0.7,0.27,1s0.43,0.56,0.73,0.73v1.27
			c0,0.26,0.11,0.52,0.29,0.71c0.19,0.19,0.44,0.29,0.71,0.29s0.52-0.11,0.71-0.29c0.19-0.19,0.29-0.44,0.29-0.71v-1.27
			c0.3-0.18,0.56-0.43,0.73-0.73s0.27-0.65,0.27-1s-0.09-0.7-0.27-1s-0.43-0.56-0.73-0.73V113.61z M337.36,113.61
			c0-0.26-0.11-0.52-0.29-0.71c-0.19-0.19-0.44-0.29-0.71-0.29s-0.52,0.11-0.71,0.29c-0.19,0.19-0.29,0.44-0.29,0.71v1.27
			c-0.3,0.18-0.56,0.43-0.73,0.73s-0.27,0.65-0.27,1s0.09,0.7,0.27,1s0.43,0.56,0.73,0.73v7.27c0,0.26,0.11,0.52,0.29,0.71
			c0.19,0.19,0.44,0.29,0.71,0.29s0.52-0.11,0.71-0.29c0.19-0.19,0.29-0.44,0.29-0.71v-7.27c0.3-0.18,0.56-0.43,0.73-0.73
			s0.27-0.65,0.27-1s-0.09-0.7-0.27-1s-0.43-0.56-0.73-0.73V113.61z M342.36,112.61c0.27,0,0.52,0.11,0.71,0.29
			c0.19,0.19,0.29,0.44,0.29,0.71v7.27c0.3,0.18,0.56,0.43,0.73,0.73s0.27,0.65,0.27,1s-0.09,0.7-0.27,1s-0.43,0.56-0.73,0.73v1.27
			c0,0.26-0.11,0.52-0.29,0.71c-0.19,0.19-0.44,0.29-0.71,0.29s-0.52-0.11-0.71-0.29c-0.19-0.19-0.29-0.44-0.29-0.71v-1.27
			c-0.3-0.18-0.56-0.43-0.73-0.73s-0.27-0.65-0.27-1s0.09-0.7,0.27-1s0.43-0.56,0.73-0.73v-7.27c0-0.26,0.11-0.52,0.29-0.71
			C341.84,112.71,342.1,112.61,342.36,112.61z"/>
		<path class="st6" d="M331.36,203.61c0-0.26-0.11-0.52-0.29-0.71c-0.19-0.19-0.44-0.29-0.71-0.29s-0.52,0.1-0.71,0.29
			c-0.19,0.19-0.29,0.44-0.29,0.71v7.27c-0.3,0.18-0.56,0.43-0.73,0.73s-0.27,0.65-0.27,1s0.09,0.7,0.27,1s0.43,0.56,0.73,0.73v1.27
			c0,0.26,0.11,0.52,0.29,0.71c0.19,0.19,0.44,0.29,0.71,0.29s0.52-0.1,0.71-0.29c0.19-0.19,0.29-0.44,0.29-0.71v-1.27
			c0.3-0.18,0.56-0.43,0.73-0.73s0.27-0.65,0.27-1s-0.09-0.7-0.27-1s-0.43-0.56-0.73-0.73V203.61z M337.36,203.61
			c0-0.26-0.11-0.52-0.29-0.71c-0.19-0.19-0.44-0.29-0.71-0.29s-0.52,0.1-0.71,0.29c-0.19,0.19-0.29,0.44-0.29,0.71v1.27
			c-0.3,0.18-0.56,0.43-0.73,0.73s-0.27,0.65-0.27,1s0.09,0.7,0.27,1s0.43,0.56,0.73,0.73v7.27c0,0.26,0.11,0.52,0.29,0.71
			c0.19,0.19,0.44,0.29,0.71,0.29s0.52-0.1,0.71-0.29c0.19-0.19,0.29-0.44,0.29-0.71v-7.27c0.3-0.18,0.56-0.43,0.73-0.73
			s0.27-0.65,0.27-1s-0.09-0.7-0.27-1s-0.43-0.56-0.73-0.73V203.61z M342.36,202.61c0.27,0,0.52,0.1,0.71,0.29
			c0.19,0.19,0.29,0.44,0.29,0.71v7.27c0.3,0.18,0.56,0.43,0.73,0.73s0.27,0.65,0.27,1s-0.09,0.7-0.27,1s-0.43,0.56-0.73,0.73v1.27
			c0,0.26-0.11,0.52-0.29,0.71c-0.19,0.19-0.44,0.29-0.71,0.29s-0.52-0.1-0.71-0.29c-0.19-0.19-0.29-0.44-0.29-0.71v-1.27
			c-0.3-0.18-0.56-0.43-0.73-0.73s-0.27-0.65-0.27-1s0.09-0.7,0.27-1s0.43-0.56,0.73-0.73v-7.27c0-0.26,0.11-0.52,0.29-0.71
			C341.84,202.71,342.1,202.61,342.36,202.61z"/>
		<path class="st7" d="M17.36,242.61c0.32,0,0.62,0.13,0.85,0.35c0.23,0.23,0.35,0.53,0.35,0.85v3.6h3.6c0.32,0,0.62,0.13,0.85,0.35
			c0.23,0.23,0.35,0.53,0.35,0.85s-0.13,0.62-0.35,0.85c-0.23,0.23-0.53,0.35-0.85,0.35h-3.6v3.6c0,0.32-0.13,0.62-0.35,0.85
			c-0.22,0.22-0.53,0.35-0.85,0.35s-0.62-0.13-0.85-0.35c-0.23-0.23-0.35-0.53-0.35-0.85v-3.6h-3.6c-0.32,0-0.62-0.13-0.85-0.35
			c-0.23-0.23-0.35-0.53-0.35-0.85s0.13-0.62,0.35-0.85c0.23-0.23,0.53-0.35,0.85-0.35h3.6v-3.6c0-0.32,0.13-0.62,0.35-0.85
			C16.74,242.73,17.05,242.61,17.36,242.61z"/>
		<path class="st7" d="M262.36,244.61c-1.06,0-2.08,0.42-2.83,1.17c-0.75,0.75-1.17,1.77-1.17,2.83s0.42,2.08,1.17,2.83
			c0.75,0.75,1.77,1.17,2.83,1.17s2.08-0.42,2.83-1.17c0.75-0.75,1.17-1.77,1.17-2.83s-0.42-2.08-1.17-2.83
			C264.44,245.03,263.43,244.61,262.36,244.61z M256.36,248.61c0-0.94,0.22-1.88,0.65-2.72c0.43-0.84,1.05-1.57,1.81-2.13
			c0.76-0.56,1.65-0.93,2.58-1.08c0.93-0.15,1.89-0.08,2.79,0.21c0.9,0.29,1.72,0.78,2.39,1.45c0.67,0.66,1.18,1.48,1.48,2.37
			c0.3,0.9,0.38,1.85,0.24,2.78c-0.14,0.93-0.5,1.82-1.04,2.59l4.82,4.82c0.18,0.19,0.28,0.44,0.28,0.7c0,0.26-0.11,0.51-0.29,0.7
			c-0.19,0.18-0.44,0.29-0.7,0.29c-0.26,0-0.51-0.1-0.7-0.28l-4.82-4.82c-0.9,0.64-1.95,1.02-3.05,1.09
			c-1.1,0.08-2.2-0.15-3.18-0.65c-0.98-0.5-1.8-1.27-2.37-2.21C256.67,250.79,256.36,249.71,256.36,248.61z"/>
		<path d="M35.89,275.74c2.17,0,3.43-1.37,3.43-3.92v-4.18c0-0.28-0.16-0.43-0.43-0.43h-0.4c-0.28,0-0.44,0.16-0.44,0.43v4.18
			c0,1.74-0.73,2.78-2.17,2.78c-1.37,0-1.93-0.94-1.93-1.96c0-0.11,0.02-0.3,0.07-0.52c0.06-0.3-0.05-0.48-0.36-0.48h-0.34
			c-0.25,0-0.42,0.1-0.49,0.34c-0.08,0.26-0.12,0.58-0.12,0.74C32.71,274.21,33.6,275.74,35.89,275.74z M43.85,275.74
			c1.76,0,3.19-1.4,3.19-3.14c0-1.72-1.43-3.13-3.19-3.13c-1.75,0-3.17,1.4-3.17,3.13C40.68,274.35,42.1,275.74,43.85,275.74z
			 M43.85,274.66c-1.07,0-1.94-0.91-1.94-2.05s0.88-2.06,1.94-2.06c1.09,0,1.96,0.92,1.96,2.06S44.94,274.66,43.85,274.66z
			 M49.05,268.5c0.48,0,0.85-0.36,0.85-0.82c0-0.47-0.36-0.84-0.85-0.84c-0.48,0-0.83,0.37-0.83,0.84
			C48.23,268.14,48.57,268.5,49.05,268.5z M48.89,275.61h0.36c0.28,0,0.43-0.16,0.43-0.43v-5.15c0-0.28-0.16-0.43-0.43-0.43h-0.36
			c-0.28,0-0.44,0.16-0.44,0.43v5.15C48.44,275.45,48.61,275.61,48.89,275.61z M51.97,275.61h0.36c0.28,0,0.43-0.16,0.43-0.43v-2.39
			c0-1.82,1.25-2.24,1.87-2.24c0.64,0,1.2,0.44,1.2,1.68v2.95c0,0.28,0.16,0.43,0.43,0.43h0.36c0.28,0,0.44-0.16,0.44-0.43v-2.96
			c0-1.88-0.97-2.75-2.3-2.75c-0.97,0-1.74,0.47-2,1.31v-0.74c0-0.28-0.16-0.43-0.43-0.43h-0.36c-0.28,0-0.44,0.16-0.44,0.43v5.15
			C51.52,275.45,51.69,275.61,51.97,275.61z M62.37,278.29h0.36c0.28,0,0.43-0.16,0.43-0.43v-3.2c0.56,0.8,1.36,1.08,2.16,1.08
			c1.79,0,2.98-1.42,2.98-3.14s-1.19-3.13-2.98-3.13c-0.8,0-1.6,0.28-2.16,1.08v-0.52c0-0.28-0.16-0.43-0.43-0.43h-0.36
			c-0.28,0-0.44,0.16-0.44,0.43v7.84C61.93,278.14,62.1,278.29,62.37,278.29z M65.14,274.66c-1.18,0-1.99-0.88-2-2.06
			c0.01-1.19,0.83-2.06,2-2.06c1.22,0,1.92,0.95,1.92,2.06C67.06,273.72,66.37,274.66,65.14,274.66z M71.87,275.74
			c0.97,0,1.74-0.47,2-1.31v0.74c0,0.28,0.16,0.43,0.43,0.43h0.36c0.28,0,0.44-0.16,0.44-0.43v-5.15c0-0.28-0.17-0.43-0.44-0.43
			h-0.36c-0.28,0-0.43,0.16-0.43,0.43v2.39c0,1.81-1.25,2.24-1.87,2.24c-0.64,0-1.19-0.46-1.19-1.68v-2.95
			c0-0.28-0.17-0.43-0.44-0.43h-0.36c-0.28,0-0.43,0.16-0.43,0.43v2.96C69.58,274.87,70.54,275.74,71.87,275.74z M80.3,275.74
			c1.79,0,2.98-1.42,2.98-3.14s-1.19-3.13-2.98-3.13c-0.8,0-1.6,0.28-2.16,1.08v-3.18c0-0.28-0.16-0.43-0.43-0.43h-0.36
			c-0.28,0-0.44,0.16-0.44,0.43v7.81c0,0.28,0.17,0.43,0.44,0.43h0.36c0.28,0,0.43-0.16,0.43-0.43v-0.52
			C78.71,275.46,79.5,275.74,80.3,275.74z M80.12,274.66c-1.18,0-1.99-0.88-2-2.06c0.01-1.19,0.83-2.06,2-2.06
			c1.22,0,1.92,0.95,1.92,2.06C82.04,273.72,81.35,274.66,80.12,274.66z M85.14,275.61h0.36c0.28,0,0.43-0.16,0.43-0.43v-7.81
			c0-0.28-0.16-0.43-0.43-0.43h-0.36c-0.28,0-0.44,0.16-0.44,0.43v7.81C84.7,275.45,84.87,275.61,85.14,275.61z M88.43,268.5
			c0.48,0,0.85-0.36,0.85-0.82c0-0.47-0.36-0.84-0.85-0.84c-0.48,0-0.83,0.37-0.83,0.84C87.6,268.14,87.95,268.5,88.43,268.5z
			 M88.26,275.61h0.36c0.28,0,0.43-0.16,0.43-0.43v-5.15c0-0.28-0.16-0.43-0.43-0.43h-0.36c-0.28,0-0.44,0.16-0.44,0.43v5.15
			C87.82,275.45,87.98,275.61,88.26,275.61z M93.85,275.74c0.43,0,1.02-0.07,1.62-0.4c0.38-0.19,0.47-0.48,0.3-0.71l-0.08-0.12
			c-0.16-0.23-0.35-0.25-0.61-0.12c-0.52,0.25-1.03,0.26-1.16,0.26c-1.27,0-2.21-0.85-2.21-2.06s0.94-2.05,2.21-2.05
			c0.13,0,0.65,0.01,1.16,0.26c0.26,0.12,0.44,0.11,0.61-0.12l0.1-0.12c0.17-0.23,0.13-0.47-0.12-0.61
			c-0.68-0.4-1.33-0.49-1.81-0.49c-2.17,0-3.38,1.44-3.38,3.2C90.47,274.38,91.73,275.74,93.85,275.74z M103.16,278.43
			c1.67,0,3.17-0.88,3.17-2.92v-5.48c0-0.28-0.17-0.43-0.44-0.43h-0.35c-0.28,0-0.44,0.16-0.44,0.42v0.53
			c-0.56-0.8-1.34-1.08-2.15-1.08c-1.8,0-2.98,1.42-2.98,3.13c0,1.73,1.18,3.14,2.98,3.14c0.8,0,1.58-0.28,2.15-1.08v0.77
			c0,1.27-0.79,1.93-1.94,1.93c-0.61,0-1.2-0.14-1.72-0.47c-0.25-0.16-0.46-0.13-0.59,0.14l-0.1,0.17c-0.12,0.24-0.08,0.46,0.13,0.6
			C101.43,278.16,102.12,278.43,103.16,278.43z M103.11,274.66c-1.21,0-1.91-0.94-1.91-2.06c0-1.12,0.7-2.06,1.91-2.06
			c1.19,0,1.99,0.88,2,2.06C105.11,273.78,104.3,274.66,103.11,274.66z M108.57,275.61h0.36c0.28,0,0.43-0.16,0.43-0.43v-1.86
			c0-2.46,1.08-2.68,1.51-2.68c0.11,0,0.22,0.01,0.32,0.04c0.2,0.05,0.32-0.07,0.32-0.37v-0.35c0-0.24-0.04-0.44-0.29-0.48
			l-0.26-0.01c-0.72,0-1.4,0.52-1.61,1.48v-0.91c0-0.28-0.16-0.43-0.43-0.43h-0.36c-0.28,0-0.44,0.16-0.44,0.43v5.15
			C108.12,275.45,108.29,275.61,108.57,275.61z M115.17,275.74c1.76,0,3.19-1.4,3.19-3.14c0-1.72-1.43-3.13-3.19-3.13
			c-1.75,0-3.17,1.4-3.17,3.13C112,274.35,113.42,275.74,115.17,275.74z M115.17,274.66c-1.07,0-1.94-0.91-1.94-2.05
			s0.88-2.06,1.94-2.06c1.09,0,1.96,0.92,1.96,2.06S116.26,274.66,115.17,274.66z M121.93,275.74c0.97,0,1.74-0.47,2-1.31v0.74
			c0,0.28,0.16,0.43,0.43,0.43h0.36c0.28,0,0.44-0.16,0.44-0.43v-5.15c0-0.28-0.17-0.43-0.44-0.43h-0.36
			c-0.28,0-0.43,0.16-0.43,0.43v2.39c0,1.81-1.25,2.24-1.87,2.24c-0.64,0-1.19-0.46-1.19-1.68v-2.95c0-0.28-0.17-0.43-0.44-0.43
			h-0.36c-0.28,0-0.43,0.16-0.43,0.43v2.96C119.64,274.87,120.6,275.74,121.93,275.74z M127.41,278.29h0.36
			c0.28,0,0.43-0.16,0.43-0.43v-3.2c0.56,0.8,1.36,1.08,2.16,1.08c1.79,0,2.98-1.42,2.98-3.14s-1.19-3.13-2.98-3.13
			c-0.8,0-1.6,0.28-2.16,1.08v-0.52c0-0.28-0.16-0.43-0.43-0.43h-0.36c-0.28,0-0.44,0.16-0.44,0.43v7.84
			C126.97,278.14,127.14,278.29,127.41,278.29z M130.18,274.66c-1.18,0-1.99-0.88-2-2.06c0.01-1.19,0.83-2.06,2-2.06
			c1.22,0,1.92,0.95,1.92,2.06C132.1,273.72,131.41,274.66,130.18,274.66z"/>
		<path d="M38.45,252.74c1.09,0,1.86-0.29,2.52-0.73c0.18-0.13,0.2-0.3,0.07-0.55l-0.11-0.19c-0.13-0.24-0.34-0.29-0.6-0.14
			c-0.53,0.29-1.22,0.48-1.88,0.48c-2.06,0-3.25-1.46-3.25-3.19s1.19-3.19,3.25-3.19c0.66,0,1.36,0.19,1.88,0.48
			c0.26,0.14,0.47,0.1,0.6-0.14l0.11-0.19c0.13-0.25,0.08-0.44-0.14-0.6c-0.65-0.42-1.4-0.68-2.45-0.68c-2.86,0-4.55,1.99-4.55,4.33
			S35.6,252.74,38.45,252.74z M42.91,252.61h0.36c0.28,0,0.43-0.16,0.43-0.43v-1.86c0-2.46,1.08-2.68,1.51-2.68
			c0.11,0,0.22,0.01,0.32,0.04c0.2,0.05,0.32-0.07,0.32-0.37v-0.35c0-0.24-0.04-0.44-0.29-0.48l-0.26-0.01
			c-0.72,0-1.4,0.52-1.61,1.48v-0.91c0-0.28-0.16-0.43-0.43-0.43h-0.36c-0.28,0-0.44,0.16-0.44,0.43v5.15
			C42.47,252.45,42.64,252.61,42.91,252.61z M49.76,252.74c0.76,0,1.56-0.18,2.26-0.74c0.28-0.23,0.28-0.48,0.08-0.68l-0.08-0.1
			c-0.19-0.19-0.38-0.2-0.61-0.06c-0.52,0.35-1.04,0.5-1.63,0.5c-1.31,0-2.23-0.82-2.2-1.93h4.66c0.29,0,0.46-0.16,0.42-0.44
			c-0.17-1.92-1.55-2.82-3.06-2.82c-1.87,0-3.24,1.4-3.24,3.16C46.35,251.33,47.64,252.74,49.76,252.74z M47.68,248.81
			c0.37-1.02,1.24-1.3,1.93-1.3c0.66,0,1.5,0.23,1.81,1.3H47.68z M56.5,252.74c0.8,0,1.58-0.28,2.15-1.08v0.52
			c0,0.28,0.17,0.43,0.44,0.43h0.36c0.28,0,0.43-0.16,0.43-0.43v-5.15c0-0.28-0.16-0.43-0.43-0.43h-0.36
			c-0.28,0-0.44,0.16-0.44,0.43v0.52c-0.56-0.8-1.34-1.08-2.15-1.08c-1.79,0-2.98,1.4-2.98,3.13
			C53.52,251.32,54.71,252.74,56.5,252.74z M56.66,251.66c-1.21,0-1.91-0.94-1.91-2.06c0-1.12,0.7-2.06,1.91-2.06
			c1.19,0,1.99,0.88,2,2.06C58.66,250.78,57.85,251.66,56.66,251.66z M63.89,252.74c1.15,0,1.8-0.66,1.8-1.56
			c0-0.01,0-0.24-0.05-0.44c-0.02-0.16-0.13-0.22-0.28-0.22h-0.55c-0.17,0-0.24,0.11-0.22,0.28c0.02,0.1,0.02,0.18,0.02,0.23
			c0,0.43-0.34,0.65-0.71,0.65c-0.38,0-0.7-0.25-0.7-0.9v-3.22h1.64c0.16,0,0.24-0.1,0.24-0.25v-0.47c0-0.16-0.08-0.24-0.24-0.24
			h-1.64v-1.36c0-0.23-0.13-0.37-0.36-0.37h-0.25c-0.22,0-0.35,0.12-0.38,0.35l-0.22,1.38h-0.76c-0.16,0-0.24,0.08-0.24,0.24v0.47
			c0,0.16,0.08,0.25,0.24,0.25h0.73v3.14C61.99,252.25,62.93,252.74,63.89,252.74z M69.72,252.74c0.76,0,1.56-0.18,2.26-0.74
			c0.28-0.23,0.28-0.48,0.08-0.68l-0.08-0.1c-0.19-0.19-0.38-0.2-0.61-0.06c-0.52,0.35-1.04,0.5-1.63,0.5
			c-1.31,0-2.23-0.82-2.2-1.93h4.66c0.29,0,0.46-0.16,0.42-0.44c-0.17-1.92-1.55-2.82-3.06-2.82c-1.87,0-3.24,1.4-3.24,3.16
			C66.32,251.33,67.61,252.74,69.72,252.74z M67.65,248.81c0.37-1.02,1.24-1.3,1.93-1.3c0.66,0,1.5,0.23,1.81,1.3H67.65z
			 M79.82,255.43c1.67,0,3.17-0.88,3.17-2.92v-5.48c0-0.28-0.17-0.43-0.44-0.43H82.2c-0.28,0-0.44,0.16-0.44,0.42v0.53
			c-0.56-0.8-1.34-1.08-2.15-1.08c-1.8,0-2.98,1.42-2.98,3.13c0,1.73,1.18,3.14,2.98,3.14c0.8,0,1.58-0.28,2.15-1.08v0.77
			c0,1.27-0.79,1.93-1.94,1.93c-0.61,0-1.2-0.14-1.72-0.47c-0.25-0.16-0.46-0.13-0.59,0.14l-0.1,0.17c-0.12,0.24-0.08,0.46,0.13,0.6
			C78.09,255.16,78.78,255.43,79.82,255.43z M79.77,251.66c-1.21,0-1.91-0.94-1.91-2.06c0-1.12,0.7-2.06,1.91-2.06
			c1.19,0,1.99,0.88,2,2.06C81.77,250.78,80.96,251.66,79.77,251.66z M85.23,252.61h0.36c0.28,0,0.43-0.16,0.43-0.43v-1.86
			c0-2.46,1.08-2.68,1.51-2.68c0.11,0,0.22,0.01,0.32,0.04c0.2,0.05,0.32-0.07,0.32-0.37v-0.35c0-0.24-0.04-0.44-0.29-0.48
			l-0.26-0.01c-0.72,0-1.4,0.52-1.61,1.48v-0.91c0-0.28-0.16-0.43-0.43-0.43h-0.36c-0.28,0-0.44,0.16-0.44,0.43v5.15
			C84.78,252.45,84.95,252.61,85.23,252.61z M91.83,252.74c1.76,0,3.19-1.4,3.19-3.14c0-1.72-1.43-3.13-3.19-3.13
			c-1.75,0-3.17,1.4-3.17,3.13C88.66,251.35,90.08,252.74,91.83,252.74z M91.83,251.66c-1.07,0-1.94-0.91-1.94-2.05
			s0.88-2.06,1.94-2.06c1.09,0,1.96,0.92,1.96,2.06S92.92,251.66,91.83,251.66z M98.59,252.74c0.97,0,1.74-0.47,2-1.31v0.74
			c0,0.28,0.16,0.43,0.43,0.43h0.36c0.28,0,0.44-0.16,0.44-0.43v-5.15c0-0.28-0.17-0.43-0.44-0.43h-0.36
			c-0.28,0-0.43,0.16-0.43,0.43v2.39c0,1.81-1.25,2.24-1.87,2.24c-0.64,0-1.19-0.46-1.19-1.68v-2.95c0-0.28-0.17-0.43-0.44-0.43
			h-0.36c-0.28,0-0.43,0.16-0.43,0.43v2.96C96.3,251.87,97.26,252.74,98.59,252.74z M104.07,255.29h0.36c0.28,0,0.43-0.16,0.43-0.43
			v-3.2c0.56,0.8,1.36,1.08,2.16,1.08c1.79,0,2.98-1.42,2.98-3.14c0-1.73-1.19-3.13-2.98-3.13c-0.8,0-1.6,0.28-2.16,1.08v-0.52
			c0-0.28-0.16-0.43-0.43-0.43h-0.36c-0.28,0-0.44,0.16-0.44,0.43v7.84C103.63,255.14,103.8,255.29,104.07,255.29z M106.84,251.66
			c-1.18,0-1.99-0.88-2-2.06c0.01-1.19,0.83-2.06,2-2.06c1.22,0,1.92,0.95,1.92,2.06C108.76,250.72,108.07,251.66,106.84,251.66z"/>
		<path d="M282.46,244.21h-4.51c-0.28,0-0.43,0.16-0.43,0.43v7.54c0,0.28,0.16,0.43,0.43,0.43h0.41c0.28,0,0.43-0.16,0.43-0.43
			v-3.17h3.14c0.28,0,0.44-0.17,0.44-0.44v-0.16c0-0.28-0.17-0.43-0.44-0.43h-3.14v-2.72h3.67c0.28,0,0.43-0.16,0.43-0.43v-0.18
			C282.89,244.36,282.74,244.21,282.46,244.21z M284.89,245.5c0.48,0,0.85-0.36,0.85-0.82c0-0.47-0.36-0.84-0.85-0.84
			c-0.48,0-0.83,0.37-0.83,0.84C284.06,245.14,284.41,245.5,284.89,245.5z M284.72,252.61h0.36c0.28,0,0.43-0.16,0.43-0.43v-5.15
			c0-0.28-0.16-0.43-0.43-0.43h-0.36c-0.28,0-0.44,0.16-0.44,0.43v5.15C284.27,252.45,284.44,252.61,284.72,252.61z M287.8,252.61
			h0.36c0.28,0,0.43-0.16,0.43-0.43v-2.39c0-1.82,1.25-2.24,1.87-2.24c0.64,0,1.2,0.44,1.2,1.68v2.95c0,0.28,0.16,0.43,0.43,0.43
			h0.36c0.28,0,0.44-0.16,0.44-0.43v-2.96c0-1.88-0.97-2.75-2.3-2.75c-0.97,0-1.74,0.47-2,1.31v-0.74c0-0.28-0.16-0.43-0.43-0.43
			h-0.36c-0.28,0-0.44,0.16-0.44,0.43v5.15C287.35,252.45,287.52,252.61,287.8,252.61z M297.18,252.74c0.8,0,1.58-0.28,2.15-1.08
			v0.52c0,0.28,0.17,0.43,0.44,0.43h0.36c0.28,0,0.43-0.16,0.43-0.43v-7.81c0-0.28-0.16-0.43-0.43-0.43h-0.36
			c-0.28,0-0.44,0.16-0.44,0.43v3.18c-0.56-0.8-1.34-1.08-2.15-1.08c-1.79,0-2.98,1.4-2.98,3.13
			C294.2,251.32,295.39,252.74,297.18,252.74z M297.34,251.66c-1.21,0-1.91-0.94-1.91-2.06c0-1.12,0.7-2.06,1.91-2.06
			c1.19,0,1.99,0.88,2,2.06C299.34,250.78,298.53,251.66,297.34,251.66z M305.96,255.29h0.36c0.28,0,0.43-0.16,0.43-0.43v-3.2
			c0.56,0.8,1.36,1.08,2.16,1.08c1.79,0,2.98-1.42,2.98-3.14c0-1.73-1.19-3.13-2.98-3.13c-0.8,0-1.6,0.28-2.16,1.08v-0.52
			c0-0.28-0.16-0.43-0.43-0.43h-0.36c-0.28,0-0.44,0.16-0.44,0.43v7.84C305.52,255.14,305.69,255.29,305.96,255.29z M308.73,251.66
			c-1.18,0-1.99-0.88-2-2.06c0.01-1.19,0.83-2.06,2-2.06c1.22,0,1.92,0.95,1.92,2.06C310.65,250.72,309.96,251.66,308.73,251.66z
			 M316.22,252.74c0.76,0,1.56-0.18,2.26-0.74c0.28-0.23,0.28-0.48,0.08-0.68l-0.08-0.1c-0.19-0.19-0.38-0.2-0.61-0.06
			c-0.52,0.35-1.04,0.5-1.63,0.5c-1.31,0-2.23-0.82-2.2-1.93h4.66c0.29,0,0.46-0.16,0.42-0.44c-0.17-1.92-1.55-2.82-3.06-2.82
			c-1.87,0-3.24,1.4-3.24,3.16C312.81,251.33,314.1,252.74,316.22,252.74z M314.14,248.81c0.37-1.02,1.24-1.3,1.93-1.3
			c0.66,0,1.5,0.23,1.81,1.3H314.14z M323.14,252.74c1.76,0,3.19-1.4,3.19-3.14c0-1.72-1.43-3.13-3.19-3.13
			c-1.75,0-3.17,1.4-3.17,3.13C319.97,251.35,321.38,252.74,323.14,252.74z M323.14,251.66c-1.07,0-1.94-0.91-1.94-2.05
			s0.88-2.06,1.94-2.06c1.09,0,1.96,0.92,1.96,2.06S324.23,251.66,323.14,251.66z M328.13,255.29h0.36c0.28,0,0.43-0.16,0.43-0.43
			v-3.2c0.56,0.8,1.36,1.08,2.16,1.08c1.79,0,2.98-1.42,2.98-3.14c0-1.73-1.19-3.13-2.98-3.13c-0.8,0-1.6,0.28-2.16,1.08v-0.52
			c0-0.28-0.16-0.43-0.43-0.43h-0.36c-0.28,0-0.44,0.16-0.44,0.43v7.84C327.69,255.14,327.86,255.29,328.13,255.29z M330.91,251.66
			c-1.18,0-1.99-0.88-2-2.06c0.01-1.19,0.83-2.06,2-2.06c1.22,0,1.92,0.95,1.92,2.06C332.83,250.72,332.13,251.66,330.91,251.66z
			 M335.9,252.61h0.36c0.28,0,0.43-0.16,0.43-0.43v-7.81c0-0.28-0.16-0.43-0.43-0.43h-0.36c-0.28,0-0.44,0.16-0.44,0.43v7.81
			C335.46,252.45,335.63,252.61,335.9,252.61z M341.51,252.74c0.76,0,1.56-0.18,2.26-0.74c0.28-0.23,0.28-0.48,0.08-0.68l-0.08-0.1
			c-0.19-0.19-0.38-0.2-0.61-0.06c-0.52,0.35-1.04,0.5-1.63,0.5c-1.31,0-2.23-0.82-2.2-1.93h4.66c0.29,0,0.46-0.16,0.42-0.44
			c-0.17-1.92-1.55-2.82-3.06-2.82c-1.87,0-3.24,1.4-3.24,3.16C338.1,251.33,339.39,252.74,341.51,252.74z M339.43,248.81
			c0.37-1.02,1.24-1.3,1.93-1.3c0.66,0,1.5,0.23,1.81,1.3H339.43z"/>
		<path d="M286.61,275.61h0.4c0.28,0,0.43-0.13,0.46-0.41l0.53-6.06l2.5,6.02c0.1,0.23,0.24,0.34,0.49,0.34h0.2
			c0.25,0,0.41-0.11,0.5-0.34l2.5-6.02l0.52,6.06c0.02,0.28,0.19,0.41,0.47,0.41h0.4c0.29,0,0.44-0.16,0.42-0.46l-0.71-7.54
			c-0.02-0.28-0.18-0.41-0.46-0.41h-0.62c-0.25,0-0.4,0.1-0.5,0.34l-2.6,6.25l-2.62-6.25c-0.1-0.24-0.25-0.34-0.49-0.34h-0.64
			c-0.26,0-0.42,0.13-0.44,0.41l-0.72,7.54C286.16,275.45,286.32,275.61,286.61,275.61z M298.83,278.29h0.29
			c0.25,0,0.41-0.1,0.5-0.34l3.35-7.86c0.13-0.31-0.01-0.5-0.34-0.5h-0.49c-0.25,0-0.43,0.11-0.52,0.35l-1.54,4.06l-1.67-4.07
			c-0.08-0.23-0.24-0.34-0.49-0.34h-0.48c-0.32,0-0.47,0.2-0.34,0.5l2.3,5.28l-0.92,2.41C298.38,278.09,298.51,278.29,298.83,278.29
			z M307.51,278.29h0.36c0.28,0,0.43-0.16,0.43-0.43v-3.2c0.56,0.8,1.36,1.08,2.16,1.08c1.79,0,2.98-1.42,2.98-3.14
			s-1.19-3.13-2.98-3.13c-0.8,0-1.6,0.28-2.16,1.08v-0.52c0-0.28-0.16-0.43-0.43-0.43h-0.36c-0.28,0-0.44,0.16-0.44,0.43v7.84
			C307.07,278.14,307.23,278.29,307.51,278.29z M310.28,274.66c-1.18,0-1.99-0.88-2-2.06c0.01-1.19,0.83-2.06,2-2.06
			c1.22,0,1.92,0.95,1.92,2.06C312.2,273.72,311.51,274.66,310.28,274.66z M315.24,275.61h0.36c0.28,0,0.43-0.16,0.43-0.43v-1.86
			c0-2.46,1.08-2.68,1.51-2.68c0.11,0,0.22,0.01,0.32,0.04c0.2,0.05,0.32-0.07,0.32-0.37v-0.35c0-0.24-0.04-0.44-0.29-0.48
			l-0.26-0.01c-0.72,0-1.4,0.52-1.61,1.48v-0.91c0-0.28-0.16-0.43-0.43-0.43h-0.36c-0.28,0-0.44,0.16-0.44,0.43v5.15
			C314.8,275.45,314.97,275.61,315.24,275.61z M321.85,275.74c1.76,0,3.19-1.4,3.19-3.14c0-1.72-1.43-3.13-3.19-3.13
			c-1.75,0-3.17,1.4-3.17,3.13C318.68,274.35,320.1,275.74,321.85,275.74z M321.85,274.66c-1.07,0-1.94-0.91-1.94-2.05
			s0.88-2.06,1.94-2.06c1.09,0,1.96,0.92,1.96,2.06S322.94,274.66,321.85,274.66z M327.12,275.61h0.4c0.28,0,0.43-0.16,0.43-0.43
			v-4.62h3.07v4.62c0,0.28,0.16,0.43,0.43,0.43h0.36c0.28,0,0.44-0.16,0.44-0.43v-5.14c0-0.28-0.17-0.44-0.44-0.44h-3.86v-0.42
			c0-1.07,0.62-1.32,1.28-1.32c0.31,0,0.7,0.07,0.91,0.32c0.17,0.2,0.31,0.28,0.55,0.2l0.29-0.08c0.28-0.08,0.31-0.26,0.16-0.53
			c-0.43-0.72-1.21-0.96-1.97-0.96c-1.18,0-2.48,0.43-2.48,2.36v0.42h-0.53c-0.26,0-0.41,0.16-0.41,0.42v0.12
			c0,0.26,0.14,0.42,0.41,0.42h0.53v4.62C326.69,275.45,326.85,275.61,327.12,275.61z M334.58,275.61h0.36
			c0.28,0,0.43-0.16,0.43-0.43v-7.81c0-0.28-0.16-0.43-0.43-0.43h-0.36c-0.28,0-0.44,0.16-0.44,0.43v7.81
			C334.14,275.45,334.3,275.61,334.58,275.61z M340.18,275.74c0.76,0,1.56-0.18,2.26-0.74c0.28-0.23,0.28-0.48,0.08-0.68l-0.08-0.1
			c-0.19-0.19-0.38-0.2-0.61-0.06c-0.52,0.35-1.04,0.5-1.63,0.5c-1.31,0-2.23-0.82-2.2-1.93h4.66c0.29,0,0.46-0.16,0.42-0.44
			c-0.17-1.92-1.55-2.82-3.06-2.82c-1.87,0-3.24,1.4-3.24,3.16C336.77,274.33,338.07,275.74,340.18,275.74z M338.11,271.81
			c0.37-1.02,1.24-1.3,1.93-1.3c0.66,0,1.5,0.23,1.81,1.3H338.11z"/>
		<path class="st7" d="M21.66,266.9c0.19-0.19,0.44-0.29,0.71-0.29s0.52,0.11,0.71,0.29l4,4c0.19,0.19,0.29,0.44,0.29,0.71
			s-0.11,0.52-0.29,0.71l-4,4c-0.19,0.18-0.44,0.28-0.7,0.28c-0.26,0-0.51-0.11-0.7-0.29c-0.19-0.19-0.29-0.44-0.29-0.7
			c0-0.26,0.1-0.51,0.28-0.7l2.29-2.29H12.36c-0.27,0-0.52-0.11-0.71-0.29c-0.19-0.19-0.29-0.44-0.29-0.71s0.11-0.52,0.29-0.71
			c0.19-0.19,0.44-0.29,0.71-0.29h11.59l-2.29-2.29c-0.19-0.19-0.29-0.44-0.29-0.71S21.47,267.09,21.66,266.9z"/>
		<rect x="0.36" y="-0.39" class="st8" width="360" height="30"/>
		<path class="st1" d="M14.15,18.78c1.46,0,2.48-0.38,3.36-0.98c0.24-0.18,0.27-0.4,0.1-0.74l-0.14-0.26
			c-0.18-0.32-0.45-0.38-0.8-0.19c-0.7,0.38-1.63,0.64-2.51,0.64c-2.75,0-4.34-1.95-4.34-4.26s1.58-4.26,4.34-4.26
			c0.88,0,1.81,0.26,2.51,0.64c0.35,0.19,0.62,0.13,0.8-0.19l0.14-0.26c0.18-0.34,0.11-0.59-0.19-0.8
			c-0.86-0.56-1.87-0.91-3.26-0.91c-3.81,0-6.06,2.66-6.06,5.78S10.34,18.78,14.15,18.78z M22.99,18.78c2.35,0,4.26-1.87,4.26-4.19
			c0-2.29-1.9-4.18-4.26-4.18c-2.34,0-4.22,1.87-4.22,4.18C18.77,16.93,20.66,18.78,22.99,18.78z M22.99,17.34
			c-1.42,0-2.59-1.22-2.59-2.74s1.17-2.75,2.59-2.75c1.46,0,2.61,1.23,2.61,2.75S24.45,17.34,22.99,17.34z M29.66,18.61h0.48
			c0.37,0,0.58-0.21,0.58-0.58v-3.18c0-2.43,1.66-2.99,2.5-2.99c0.85,0,1.6,0.59,1.6,2.24v3.94c0,0.37,0.21,0.58,0.58,0.58h0.48
			c0.37,0,0.59-0.21,0.59-0.58v-3.95c0-2.51-1.3-3.66-3.07-3.66c-1.3,0-2.32,0.62-2.67,1.74v-0.99c0-0.37-0.21-0.58-0.58-0.58h-0.48
			c-0.37,0-0.59,0.21-0.59,0.58v6.86C29.06,18.4,29.29,18.61,29.66,18.61z M41.6,18.78c1.54,0,2.4-0.88,2.4-2.08
			c0-0.02,0-0.32-0.06-0.59c-0.03-0.21-0.18-0.29-0.37-0.29h-0.74c-0.22,0-0.32,0.14-0.29,0.37c0.03,0.13,0.03,0.24,0.03,0.3
			c0,0.58-0.45,0.86-0.94,0.86c-0.51,0-0.93-0.34-0.93-1.2v-4.29h2.19c0.21,0,0.32-0.13,0.32-0.34v-0.62c0-0.21-0.11-0.32-0.32-0.32
			h-2.19V8.78c0-0.3-0.18-0.5-0.48-0.5h-0.34c-0.29,0-0.46,0.16-0.51,0.46l-0.29,1.84h-1.01c-0.21,0-0.32,0.11-0.32,0.32v0.62
			c0,0.21,0.11,0.34,0.32,0.34h0.98v4.19C39.06,18.13,40.32,18.78,41.6,18.78z M48.82,18.78c1.07,0,2.11-0.37,2.86-1.44v0.69
			c0,0.37,0.22,0.58,0.59,0.58h0.48c0.37,0,0.58-0.21,0.58-0.58v-6.86c0-0.37-0.21-0.58-0.58-0.58h-0.48
			c-0.37,0-0.59,0.21-0.59,0.58v0.69c-0.75-1.07-1.79-1.44-2.86-1.44c-2.38,0-3.97,1.87-3.97,4.18S46.43,18.78,48.82,18.78z
			 M49.04,17.34c-1.62,0-2.54-1.25-2.54-2.75c0-1.49,0.93-2.75,2.54-2.75c1.58,0,2.66,1.17,2.67,2.75
			C51.7,16.17,50.62,17.34,49.04,17.34z M59.67,18.78c0.58,0,1.36-0.1,2.16-0.53c0.51-0.26,0.62-0.64,0.4-0.94l-0.11-0.16
			c-0.21-0.3-0.46-0.34-0.82-0.16c-0.69,0.34-1.38,0.35-1.55,0.35c-1.7,0-2.94-1.14-2.94-2.75s1.25-2.74,2.94-2.74
			c0.18,0,0.86,0.02,1.55,0.35c0.35,0.16,0.59,0.14,0.82-0.16l0.13-0.16c0.22-0.3,0.18-0.62-0.16-0.82
			c-0.91-0.53-1.78-0.66-2.42-0.66c-2.9,0-4.51,1.92-4.51,4.27C55.16,16.97,56.84,18.78,59.67,18.78z M67.16,18.78
			c1.54,0,2.4-0.88,2.4-2.08c0-0.02,0-0.32-0.06-0.59c-0.03-0.21-0.18-0.29-0.37-0.29H68.4c-0.22,0-0.32,0.14-0.29,0.37
			c0.03,0.13,0.03,0.24,0.03,0.3c0,0.58-0.45,0.86-0.94,0.86c-0.51,0-0.93-0.34-0.93-1.2v-4.29h2.19c0.21,0,0.32-0.13,0.32-0.34
			v-0.62c0-0.21-0.11-0.32-0.32-0.32h-2.19V8.78c0-0.3-0.18-0.5-0.48-0.5h-0.34c-0.29,0-0.46,0.16-0.51,0.46l-0.29,1.84h-1.01
			c-0.21,0-0.32,0.11-0.32,0.32v0.62c0,0.21,0.11,0.34,0.32,0.34h0.98v4.19C64.62,18.13,65.88,18.78,67.16,18.78z M73.37,18.78
			c1.57,0,2.91-0.88,2.91-2.42c0-0.86-0.42-1.81-1.95-2.29l-1.15-0.38c-0.46-0.14-0.93-0.42-0.93-0.93c0-0.56,0.45-0.99,1.15-0.99
			c0.35,0,0.7,0.1,0.98,0.42c0.22,0.29,0.42,0.43,0.75,0.34l0.3-0.06c0.38-0.08,0.58-0.37,0.37-0.74c-0.53-0.98-1.47-1.31-2.45-1.31
			c-1.6,0-2.69,1.02-2.69,2.4c0,1.14,0.77,1.82,2,2.19l1.07,0.37c0.56,0.19,0.99,0.46,0.99,0.98c0,0.61-0.58,1.06-1.34,1.06
			c-0.62,0-1.17-0.26-1.49-0.66c-0.21-0.27-0.4-0.42-0.72-0.34l-0.34,0.1c-0.38,0.1-0.58,0.35-0.38,0.72
			C71,18.25,72.14,18.78,73.37,18.78z"/>
		<path class="st9" d="M348.07,17.31c-0.19,0.19-0.44,0.29-0.71,0.29s-0.52-0.11-0.71-0.29l-3.29-3.29l-3.29,3.29
			c-0.19,0.18-0.44,0.28-0.7,0.28c-0.26,0-0.51-0.11-0.7-0.29c-0.18-0.19-0.29-0.44-0.29-0.7c0-0.26,0.1-0.51,0.28-0.7l4-4
			c0.19-0.19,0.44-0.29,0.71-0.29s0.52,0.11,0.71,0.29l4,4c0.19,0.19,0.29,0.44,0.29,0.71C348.36,16.87,348.26,17.13,348.07,17.31z"
			/>
		<path class="st1" d="M321.36,9.61c0,0.8-0.32,1.56-0.88,2.12c-0.56,0.56-1.33,0.88-2.12,0.88s-1.56-0.32-2.12-0.88
			c-0.56-0.56-0.88-1.33-0.88-2.12c0-0.8,0.32-1.56,0.88-2.12c0.56-0.56,1.33-0.88,2.12-0.88s1.56,0.32,2.12,0.88
			C321.05,8.05,321.36,8.81,321.36,9.61z M329.36,9.61c0,0.39-0.08,0.78-0.23,1.15c-0.15,0.36-0.37,0.69-0.65,0.97
			c-0.28,0.28-0.61,0.5-0.97,0.65c-0.36,0.15-0.75,0.23-1.15,0.23s-0.78-0.08-1.15-0.23c-0.36-0.15-0.69-0.37-0.97-0.65
			c-0.28-0.28-0.5-0.61-0.65-0.97c-0.15-0.36-0.23-0.75-0.23-1.15c0-0.8,0.32-1.56,0.88-2.12c0.56-0.56,1.33-0.88,2.12-0.88
			s1.56,0.32,2.12,0.88C329.05,8.05,329.36,8.81,329.36,9.61z M325.29,20.61c0.05-0.33,0.07-0.66,0.07-1c0-1.57-0.53-3.1-1.5-4.33
			c0.76-0.44,1.62-0.67,2.5-0.67s1.74,0.23,2.5,0.67c0.76,0.44,1.39,1.07,1.83,1.83c0.44,0.76,0.67,1.62,0.67,2.5v1H325.29z
			 M318.36,14.61c1.33,0,2.6,0.53,3.54,1.46c0.94,0.94,1.46,2.21,1.46,3.54v1h-10v-1c0-1.33,0.53-2.6,1.46-3.54
			C315.77,15.13,317.04,14.61,318.36,14.61z"/>
		<path class="st7" d="M280.36,271.61c0,2.12-0.84,4.16-2.34,5.66s-3.54,2.34-5.66,2.34s-4.16-0.84-5.66-2.34s-2.34-3.54-2.34-5.66
			s0.84-4.16,2.34-5.66s3.54-2.34,5.66-2.34s4.16,0.84,5.66,2.34S280.36,269.48,280.36,271.61z M274.36,268.61
			c0,0.53-0.21,1.04-0.59,1.41s-0.88,0.59-1.41,0.59s-1.04-0.21-1.41-0.59s-0.59-0.88-0.59-1.41s0.21-1.04,0.59-1.41
			s0.88-0.59,1.41-0.59s1.04,0.21,1.41,0.59S274.36,268.08,274.36,268.61z M272.36,272.61c-0.96,0-1.89,0.27-2.7,0.79
			c-0.81,0.52-1.45,1.26-1.85,2.12c0.56,0.66,1.26,1.18,2.04,1.54c0.79,0.36,1.64,0.55,2.5,0.55c0.86,0,1.72-0.18,2.5-0.55
			c0.79-0.36,1.48-0.88,2.04-1.54c-0.4-0.87-1.04-1.61-1.85-2.12C274.26,272.88,273.32,272.61,272.36,272.61z"/>
	</g>
</g>
</svg>
