<?xml version="1.0" encoding="utf-8"?>
<!-- Generator: Adobe Illustrator 27.2.0, SVG Export Plug-In . SVG Version: 6.00 Build 0)  -->
<svg version="1.1" id="Calque_1" xmlns="http://www.w3.org/2000/svg" xmlns:xlink="http://www.w3.org/1999/xlink" x="0px" y="0px"
	 viewBox="0 0 600 600" style="enable-background:new 0 0 600 600;" xml:space="preserve">
<style type="text/css">
	.st0{fill:#FFFFFF;}
	.st1{fill:#3F3F46;}
	.st2{fill:none;stroke:#3F3F46;}
	.st3{fill:#FFFFFF;stroke:#AAAAAA;}
	.st4{fill:#EED9D0;stroke:#FFFFFF;stroke-width:2;}
	.st5{fill:none;stroke:#3F3F46;stroke-width:2;stroke-linecap:round;stroke-linejoin:round;}
	.st6{fill:#3F3F46;stroke:#3F3F46;}
	.st7{fill:#4F4F4F;}
</style>
<rect x="0.01" y="0.45" class="st0" width="600" height="600"/>
<path class="st1" d="M233.73,59.45h5.54c5.11,0,8.59-3.74,8.59-8.4c0-4.63-3.48-8.4-8.59-8.4h-5.54c-0.74,0-1.18,0.41-1.18,1.15
	v14.5C232.56,59.04,232.99,59.45,233.73,59.45z M236.37,56.23V45.87h2.52c3.19,0,5.14,2.18,5.14,5.18c0,2.98-1.94,5.18-5.14,5.18
	H236.37z M251.76,59.45h1.49c0.74,0,1.15-0.41,1.15-1.15V43.8c0-0.74-0.41-1.15-1.15-1.15h-1.49c-0.74,0-1.18,0.41-1.18,1.15v14.5
	C250.58,59.04,251.01,59.45,251.76,59.45z M263.53,59.71c3.58,0,6.38-1.75,6.38-5.04c-0.05-2.11-1.27-3.84-4.56-4.94l-2.18-0.79
	c-1.49-0.55-1.75-1.2-1.75-1.8c0-1.1,1.03-1.7,2.23-1.7c1.01,0,1.75,0.38,2.18,1.1c0.41,0.58,0.82,0.84,1.49,0.65l0.96-0.26
	c0.72-0.22,1.06-0.77,0.7-1.46c-0.91-1.92-2.76-3.07-5.38-3.07c-3.29,0-5.95,1.92-5.95,4.99c0.02,2.59,2.47,4.08,4.46,4.73
	l2.18,0.79c1.27,0.43,1.92,1.1,1.92,1.94c0,1.1-1.08,1.82-2.71,1.82c-1.42,0-2.47-0.6-3.02-1.49c-0.38-0.62-0.74-0.91-1.42-0.74
	l-1.03,0.24c-0.74,0.19-1.13,0.7-0.82,1.42C258.1,58.32,260.38,59.71,263.53,59.71z M280.8,59.71c2.23,0,3.84-0.65,5.26-1.66
	c0.53-0.38,0.55-0.91,0.12-1.54l-0.6-0.74c-0.43-0.6-0.96-0.6-1.61-0.22c-0.96,0.55-2.11,0.84-3.17,0.84c-3.36,0-5.4-2.4-5.4-5.35
	s2.04-5.35,5.4-5.35c1.06,0,2.21,0.29,3.17,0.84c0.65,0.38,1.18,0.38,1.61-0.22l0.6-0.74c0.43-0.6,0.36-1.2-0.24-1.61
	c-1.39-0.96-2.98-1.58-5.14-1.58c-5.69,0-9.22,3.98-9.22,8.66S275.11,59.71,280.8,59.71z M295.9,59.71c3.79,0,6.98-2.3,6.98-6.62
	V43.8c0-0.74-0.41-1.15-1.15-1.15h-1.49c-0.74,0-1.18,0.41-1.18,1.15v9.29c0,2.18-1.46,3.31-3.17,3.31c-1.7,0-3.14-1.13-3.14-3.31
	V43.8c0-0.74-0.41-1.15-1.15-1.15h-1.49c-0.74,0-1.18,0.41-1.18,1.15v9.29C288.94,57.41,292.13,59.71,295.9,59.71z M311.78,59.71
	c3.58,0,6.38-1.75,6.38-5.04c-0.05-2.11-1.27-3.84-4.56-4.94l-2.18-0.79c-1.49-0.55-1.75-1.2-1.75-1.8c0-1.1,1.03-1.7,2.23-1.7
	c1.01,0,1.75,0.38,2.18,1.1c0.41,0.58,0.82,0.84,1.49,0.65l0.96-0.26c0.72-0.22,1.06-0.77,0.7-1.46c-0.91-1.92-2.76-3.07-5.38-3.07
	c-3.29,0-5.95,1.92-5.95,4.99c0.02,2.59,2.47,4.08,4.46,4.73l2.18,0.79c1.27,0.43,1.92,1.1,1.92,1.94c0,1.1-1.08,1.82-2.71,1.82
	c-1.42,0-2.47-0.6-3.02-1.49c-0.38-0.62-0.74-0.91-1.42-0.74l-1.03,0.24c-0.74,0.19-1.13,0.7-0.82,1.42
	C306.36,58.32,308.64,59.71,311.78,59.71z M326.25,59.71c3.58,0,6.38-1.75,6.38-5.04c-0.05-2.11-1.27-3.84-4.56-4.94l-2.18-0.79
	c-1.49-0.55-1.75-1.2-1.75-1.8c0-1.1,1.03-1.7,2.23-1.7c1.01,0,1.75,0.38,2.18,1.1c0.41,0.58,0.82,0.84,1.49,0.65l0.96-0.26
	c0.72-0.22,1.06-0.77,0.7-1.46c-0.91-1.92-2.76-3.07-5.38-3.07c-3.29,0-5.95,1.92-5.95,4.99c0.02,2.59,2.47,4.08,4.46,4.73
	l2.18,0.79c1.27,0.43,1.92,1.1,1.92,1.94c0,1.1-1.08,1.82-2.71,1.82c-1.42,0-2.47-0.6-3.02-1.49c-0.38-0.62-0.74-0.91-1.42-0.74
	l-1.03,0.24c-0.74,0.19-1.13,0.7-0.82,1.42C320.82,58.32,323.1,59.71,326.25,59.71z M336.51,59.45h1.49c0.74,0,1.15-0.41,1.15-1.15
	V43.8c0-0.74-0.41-1.15-1.15-1.15h-1.49c-0.74,0-1.18,0.41-1.18,1.15v14.5C335.33,59.04,335.76,59.45,336.51,59.45z M350.77,59.71
	c5.26,0,8.9-3.94,8.9-8.66s-3.65-8.66-8.9-8.66c-5.26,0-8.9,3.94-8.9,8.66S345.52,59.71,350.77,59.71z M350.77,56.4
	c-2.98,0-5.06-2.38-5.06-5.35c0-2.98,2.09-5.35,5.06-5.35c2.98,0,5.09,2.38,5.09,5.35C355.86,54.03,353.75,56.4,350.77,56.4z
	 M363.6,59.45h1.49c0.74,0,1.15-0.41,1.15-1.15v-8.93l6.79,9.36c0.34,0.5,0.79,0.72,1.39,0.72h0.86c0.74,0,1.15-0.41,1.15-1.15V43.8
	c0-0.74-0.41-1.15-1.15-1.15h-1.49c-0.74,0-1.18,0.41-1.18,1.15v8.83l-6.74-9.26c-0.36-0.5-0.79-0.72-1.42-0.72h-0.86
	c-0.74,0-1.18,0.41-1.18,1.15v14.5C362.42,59.04,362.86,59.45,363.6,59.45z"/>
<line class="st2" x1="0.01" y1="99.95" x2="600.01" y2="99.95"/>
<path class="st3" d="M31.01,177.95h537c1.93,0,3.5,1.57,3.5,3.5v83c0,1.93-1.57,3.5-3.5,3.5h-537c-1.93,0-3.5-1.57-3.5-3.5v-83
	C27.51,179.52,29.08,177.95,31.01,177.95z"/>
<path d="M517.83,158.25h-3.95c-0.37,0-0.58,0.21-0.58,0.58v10.05c0,0.37,0.21,0.58,0.58,0.58h0.54c0.37,0,0.58-0.21,0.58-0.58v-3.62
	h2.83c2.16,0,3.41-1.57,3.41-3.46C521.24,159.9,520,158.25,517.83,158.25z M517.49,163.9H515v-4.26h2.5c1.23,0,2,0.88,2,2.14
	C519.49,163.02,518.74,163.9,517.49,163.9z M523.46,169.45h0.48c0.37,0,0.58-0.21,0.58-0.58v-2.48c0-3.28,1.44-3.57,2.02-3.57
	c0.14,0,0.29,0.02,0.43,0.05c0.27,0.06,0.43-0.1,0.43-0.5v-0.46c0-0.32-0.05-0.59-0.38-0.64l-0.35-0.02c-0.96,0-1.87,0.69-2.14,1.97
	v-1.22c0-0.37-0.21-0.58-0.58-0.58h-0.48c-0.37,0-0.59,0.21-0.59,0.58v6.86C522.87,169.24,523.09,169.45,523.46,169.45z
	 M532.59,169.63c1.01,0,2.08-0.24,3.01-0.99c0.37-0.3,0.37-0.64,0.11-0.91l-0.11-0.13c-0.26-0.26-0.51-0.27-0.82-0.08
	c-0.69,0.46-1.39,0.67-2.18,0.67c-1.74,0-2.98-1.09-2.93-2.58h6.21c0.38,0,0.61-0.21,0.56-0.59c-0.22-2.56-2.06-3.76-4.08-3.76
	c-2.5,0-4.32,1.87-4.32,4.21C528.04,167.75,529.77,169.63,532.59,169.63z M529.82,164.39c0.5-1.36,1.65-1.73,2.58-1.73
	c0.88,0,2,0.3,2.42,1.73H529.82z M540.64,169.45h0.83c0.34,0,0.56-0.16,0.69-0.46l2.67-6.9c0.14-0.4-0.02-0.66-0.45-0.66h-0.53
	c-0.34,0-0.54,0.14-0.67,0.46l-2.13,5.74l-2.13-5.74c-0.13-0.32-0.34-0.46-0.67-0.46h-0.53c-0.43,0-0.59,0.26-0.45,0.66l2.67,6.9
	C540.08,169.29,540.3,169.45,540.64,169.45z M547.5,159.98c0.64,0,1.14-0.48,1.14-1.09c0-0.62-0.48-1.12-1.14-1.12
	c-0.64,0-1.1,0.5-1.1,1.12C546.4,159.5,546.86,159.98,547.5,159.98z M547.28,169.45h0.48c0.37,0,0.58-0.21,0.58-0.58v-6.86
	c0-0.37-0.21-0.58-0.58-0.58h-0.48c-0.37,0-0.59,0.21-0.59,0.58v6.86C546.68,169.24,546.91,169.45,547.28,169.45z M554.74,169.63
	c1.01,0,2.08-0.24,3.01-0.99c0.37-0.3,0.37-0.64,0.11-0.91l-0.11-0.13c-0.26-0.26-0.51-0.27-0.82-0.08
	c-0.69,0.46-1.39,0.67-2.18,0.67c-1.74,0-2.98-1.09-2.93-2.58h6.21c0.38,0,0.61-0.21,0.56-0.59c-0.22-2.56-2.06-3.76-4.08-3.76
	c-2.5,0-4.32,1.87-4.32,4.21C550.2,167.75,551.93,169.63,554.74,169.63z M551.98,164.39c0.5-1.36,1.65-1.73,2.58-1.73
	c0.88,0,2,0.3,2.42,1.73H551.98z M562.63,169.45h0.53c0.34,0,0.56-0.16,0.66-0.48l1.62-4.99l1.62,4.99
	c0.11,0.32,0.32,0.48,0.66,0.48h0.53c0.34,0,0.54-0.13,0.67-0.46l2.48-6.9c0.14-0.42-0.03-0.66-0.46-0.66h-0.51
	c-0.34,0-0.56,0.13-0.67,0.46l-1.84,5.34l-1.65-5.09c-0.1-0.32-0.3-0.5-0.64-0.5h-0.35c-0.32,0-0.54,0.18-0.64,0.5l-1.63,5.09
	l-1.86-5.34c-0.11-0.34-0.34-0.46-0.67-0.46h-0.51c-0.42,0-0.61,0.24-0.46,0.66l2.5,6.9C562.09,169.31,562.3,169.45,562.63,169.45z"
	/>
<path d="M511.76,171.05h60.25v0.8h-60.25V171.05z"/>
<circle class="st4" cx="45.01" cy="153.45" r="17"/>
<circle class="st4" cx="45.01" cy="349.45" r="17"/>
<path d="M75.21,157.45h0.53c0.37,0,0.59-0.21,0.59-0.58v-4.03l3.89-5.89c0.27-0.4,0.1-0.7-0.37-0.7h-0.69
	c-0.32,0-0.54,0.11-0.7,0.38l-2.99,4.77l-2.98-4.77c-0.16-0.29-0.38-0.38-0.69-0.38h-0.7c-0.46,0-0.64,0.3-0.37,0.7l3.9,5.89v4.03
	C74.64,157.24,74.85,157.45,75.21,157.45z M84.08,157.63c2.35,0,4.26-1.87,4.26-4.19c0-2.29-1.9-4.18-4.26-4.18
	c-2.34,0-4.22,1.87-4.22,4.18C79.86,155.77,81.74,157.63,84.08,157.63z M84.08,156.19c-1.42,0-2.59-1.22-2.59-2.74
	s1.17-2.75,2.59-2.75c1.46,0,2.61,1.23,2.61,2.75S85.54,156.19,84.08,156.19z M93.09,157.63c1.3,0,2.32-0.62,2.67-1.74v0.99
	c0,0.37,0.21,0.58,0.58,0.58h0.48c0.37,0,0.59-0.21,0.59-0.58v-6.86c0-0.37-0.22-0.58-0.59-0.58h-0.48c-0.37,0-0.58,0.21-0.58,0.58
	v3.18c0,2.42-1.66,2.99-2.5,2.99c-0.85,0-1.58-0.61-1.58-2.24v-3.94c0-0.37-0.22-0.58-0.59-0.58h-0.48c-0.37,0-0.58,0.21-0.58,0.58
	v3.95C90.04,156.47,91.32,157.63,93.09,157.63z"/>
<path class="st5" d="M41.84,291.28c-0.75,0.75-1.77,1.17-2.83,1.17s-2.08-0.42-2.83-1.17 M36.01,286.45L36.01,286.45 M42.01,286.45
	L42.01,286.45 M48.01,288.45c0,1.18-0.23,2.35-0.69,3.44s-1.12,2.08-1.95,2.92c-0.84,0.84-1.83,1.5-2.92,1.95
	c-1.09,0.45-2.26,0.68-3.44,0.68s-2.35-0.23-3.44-0.68c-1.09-0.45-2.08-1.11-2.92-1.95c-0.84-0.84-1.5-1.83-1.95-2.92
	c-0.45-1.09-0.69-2.26-0.69-3.44c0-2.39,0.95-4.68,2.64-6.36c1.69-1.69,3.98-2.64,6.36-2.64s4.68,0.95,6.36,2.64
	C47.07,283.77,48.01,286.06,48.01,288.45z"/>
<path class="st6" d="M506.01,276.95h62c1.93,0,3.5,1.57,3.5,3.5v20c0,1.93-1.57,3.5-3.5,3.5h-62c-1.93,0-3.5-1.57-3.5-3.5v-20
	C502.51,278.52,504.08,276.95,506.01,276.95z"/>
<path class="st2" d="M442.01,276.95h48c1.93,0,3.5,1.57,3.5,3.5v20c0,1.93-1.57,3.5-3.5,3.5h-48c-1.93,0-3.5-1.57-3.5-3.5v-20
	C438.51,278.52,440.08,276.95,442.01,276.95z"/>
<path d="M450.8,294.63c1.46,0,2.48-0.38,3.36-0.98c0.24-0.18,0.27-0.4,0.1-0.74l-0.14-0.26c-0.18-0.32-0.45-0.38-0.8-0.19
	c-0.7,0.38-1.63,0.64-2.51,0.64c-2.75,0-4.34-1.95-4.34-4.26c0-2.3,1.58-4.26,4.34-4.26c0.88,0,1.81,0.26,2.51,0.64
	c0.35,0.19,0.62,0.13,0.8-0.19l0.14-0.26c0.18-0.34,0.11-0.59-0.19-0.8c-0.86-0.56-1.87-0.91-3.26-0.91c-3.81,0-6.06,2.66-6.06,5.78
	S446.99,294.63,450.8,294.63z M456.79,294.45h0.48c0.37,0,0.58-0.21,0.58-0.58v-10.42c0-0.37-0.21-0.58-0.58-0.58h-0.48
	c-0.37,0-0.59,0.21-0.59,0.58v10.42C456.2,294.24,456.42,294.45,456.79,294.45z M464.26,294.63c1.01,0,2.08-0.24,3.01-0.99
	c0.37-0.3,0.37-0.64,0.11-0.91l-0.11-0.13c-0.26-0.26-0.51-0.27-0.82-0.08c-0.69,0.46-1.39,0.67-2.18,0.67
	c-1.74,0-2.98-1.09-2.93-2.58h6.21c0.38,0,0.61-0.21,0.56-0.59c-0.22-2.56-2.06-3.76-4.08-3.76c-2.5,0-4.32,1.87-4.32,4.21
	C459.72,292.75,461.44,294.63,464.26,294.63z M461.49,289.39c0.5-1.36,1.65-1.73,2.58-1.73c0.88,0,2,0.3,2.42,1.73H461.49z
	 M473.25,294.63c1.07,0,2.11-0.37,2.86-1.44v0.69c0,0.37,0.22,0.58,0.59,0.58h0.48c0.37,0,0.58-0.21,0.58-0.58v-6.86
	c0-0.37-0.21-0.58-0.58-0.58h-0.48c-0.37,0-0.59,0.21-0.59,0.58v0.69c-0.75-1.07-1.79-1.44-2.86-1.44c-2.38,0-3.97,1.87-3.97,4.18
	C469.28,292.74,470.86,294.63,473.25,294.63z M473.47,293.19c-1.62,0-2.54-1.25-2.54-2.75c0-1.49,0.93-2.75,2.54-2.75
	c1.58,0,2.66,1.17,2.67,2.75C476.13,292.02,475.05,293.19,473.47,293.19z M480.76,294.45h0.48c0.37,0,0.58-0.21,0.58-0.58v-2.48
	c0-3.28,1.44-3.57,2.02-3.57c0.14,0,0.29,0.02,0.43,0.05c0.27,0.06,0.43-0.1,0.43-0.5v-0.46c0-0.32-0.05-0.59-0.38-0.64l-0.35-0.02
	c-0.96,0-1.87,0.69-2.14,1.97v-1.22c0-0.37-0.21-0.58-0.58-0.58h-0.48c-0.37,0-0.59,0.21-0.59,0.58v6.86
	C480.17,294.24,480.39,294.45,480.76,294.45z"/>
<path class="st0" d="M522.69,295.63c2.34,0,3.94-1.25,3.94-3.26c0-1.2-0.86-2.45-2.75-3.04l-1.66-0.62
	c-1.28-0.48-1.42-1.09-1.42-1.55c0-0.99,0.88-1.57,1.94-1.57c0.93,0,1.62,0.35,1.98,1.09c0.16,0.34,0.38,0.46,0.74,0.37l0.4-0.13
	c0.35-0.1,0.53-0.37,0.38-0.72c-0.51-1.26-1.76-2.11-3.52-2.11c-1.94,0-3.63,1.18-3.63,3.12c0,1.04,0.51,2.3,2.62,3.01l1.66,0.56
	c0.91,0.34,1.62,0.86,1.62,1.71c0,0.96-0.88,1.66-2.32,1.66c-1.12,0-1.97-0.54-2.37-1.23c-0.18-0.34-0.37-0.46-0.72-0.38l-0.46,0.11
	c-0.35,0.1-0.54,0.37-0.38,0.72C519.29,294.67,520.7,295.63,522.69,295.63z M532.48,295.63c1.01,0,2.08-0.24,3.01-0.99
	c0.37-0.3,0.37-0.64,0.11-0.91l-0.11-0.13c-0.26-0.26-0.51-0.27-0.82-0.08c-0.69,0.46-1.39,0.67-2.18,0.67
	c-1.74,0-2.98-1.09-2.93-2.58h6.21c0.39,0,0.61-0.21,0.56-0.59c-0.22-2.56-2.06-3.76-4.08-3.76c-2.5,0-4.32,1.87-4.32,4.21
	C527.93,293.75,529.66,295.63,532.48,295.63z M529.71,290.39c0.5-1.36,1.65-1.73,2.58-1.73c0.88,0,2,0.3,2.42,1.73H529.71z
	 M538.66,295.45h0.48c0.37,0,0.58-0.21,0.58-0.58v-3.18c0-2.43,1.66-2.99,2.5-2.99c0.85,0,1.6,0.59,1.6,2.24v3.94
	c0,0.37,0.21,0.58,0.58,0.58h0.48c0.37,0,0.59-0.21,0.59-0.58v-3.95c0-2.51-1.3-3.66-3.07-3.66c-1.3,0-2.32,0.62-2.67,1.74v-0.99
	c0-0.37-0.21-0.58-0.58-0.58h-0.48c-0.37,0-0.59,0.21-0.59,0.58v6.86C538.07,295.24,538.3,295.45,538.66,295.45z M551.17,295.63
	c1.07,0,2.11-0.37,2.86-1.44v0.69c0,0.37,0.22,0.58,0.59,0.58h0.48c0.37,0,0.58-0.21,0.58-0.58v-10.42c0-0.37-0.21-0.58-0.58-0.58
	h-0.48c-0.37,0-0.59,0.21-0.59,0.58v4.24c-0.75-1.07-1.79-1.44-2.86-1.44c-2.38,0-3.97,1.87-3.97,4.18
	C547.2,293.74,548.78,295.63,551.17,295.63z M551.39,294.19c-1.62,0-2.54-1.25-2.54-2.75c0-1.49,0.93-2.75,2.54-2.75
	c1.58,0,2.66,1.17,2.67,2.75C554.05,293.02,552.98,294.19,551.39,294.19z"/>
<path class="st7" d="M73.91,354.6c2.51,0,3.93-1.5,3.93-3.39c0-1.68-1.26-2.7-2.67-2.93c-0.18-0.04-0.39-0.06-0.6-0.06l2.7-2.46
	c0.17-0.17,0.24-0.32,0.24-0.55v-0.14c0-0.28-0.15-0.43-0.43-0.43h-5.73c-0.28,0-0.43,0.15-0.43,0.43v0.34
	c0,0.28,0.15,0.45,0.43,0.45h3.96l-2.86,2.77c-0.21,0.21-0.21,0.41-0.04,0.62l0.15,0.18c0.17,0.22,0.36,0.22,0.62,0.1
	c0.38-0.18,0.83-0.22,1.05-0.22c1.22,0,2.17,0.8,2.17,1.92c0,0.95-0.81,2.09-2.51,2.09c-0.92,0-1.51-0.11-2.24-0.56
	c-0.22-0.15-0.45-0.14-0.62,0.07l-0.27,0.29c-0.18,0.22-0.17,0.45,0.07,0.62C71.51,354.23,72.53,354.6,73.91,354.6z M86.25,354.6
	c0.94,0,1.85-0.32,2.51-1.26v0.6c0,0.32,0.2,0.5,0.52,0.5h0.42c0.32,0,0.5-0.18,0.5-0.5v-9.11c0-0.32-0.18-0.5-0.5-0.5h-0.42
	c-0.32,0-0.52,0.18-0.52,0.5v3.71c-0.66-0.94-1.57-1.26-2.51-1.26c-2.09,0-3.47,1.64-3.47,3.65
	C82.78,352.95,84.17,354.6,86.25,354.6z M86.45,353.34c-1.41,0-2.23-1.09-2.23-2.41c0-1.3,0.81-2.41,2.23-2.41
	c1.39,0,2.32,1.02,2.34,2.41C88.77,352.32,87.84,353.34,86.45,353.34z M95.29,354.6c0.94,0,1.85-0.32,2.51-1.26v0.6
	c0,0.32,0.2,0.5,0.52,0.5h0.42c0.32,0,0.5-0.18,0.5-0.5v-6.01c0-0.32-0.18-0.5-0.5-0.5h-0.42c-0.32,0-0.52,0.18-0.52,0.5v0.6
	c-0.66-0.94-1.57-1.26-2.51-1.26c-2.09,0-3.47,1.64-3.47,3.65C91.82,352.95,93.21,354.6,95.29,354.6z M95.49,353.34
	c-1.41,0-2.23-1.09-2.23-2.41c0-1.3,0.81-2.41,2.23-2.41c1.39,0,2.32,1.02,2.34,2.41C97.81,352.32,96.87,353.34,95.49,353.34z
	 M102.8,357.59h0.34c0.29,0,0.48-0.11,0.59-0.39l3.91-9.17c0.15-0.36-0.01-0.59-0.39-0.59h-0.57c-0.29,0-0.5,0.13-0.6,0.41
	l-1.79,4.73l-1.95-4.75c-0.1-0.27-0.28-0.39-0.57-0.39h-0.56c-0.38,0-0.55,0.24-0.39,0.59l2.69,6.16l-1.08,2.81
	C102.27,357.35,102.42,357.59,102.8,357.59z M111.01,354.6c1.37,0,2.55-0.77,2.55-2.11c0-0.76-0.36-1.58-1.71-2l-1.01-0.34
	c-0.41-0.13-0.81-0.36-0.81-0.81c0-0.49,0.39-0.87,1.01-0.87c0.31,0,0.62,0.08,0.85,0.36c0.2,0.25,0.36,0.38,0.66,0.29l0.27-0.06
	c0.34-0.07,0.5-0.32,0.32-0.64c-0.46-0.85-1.29-1.15-2.14-1.15c-1.4,0-2.35,0.9-2.35,2.1c0,0.99,0.67,1.6,1.75,1.92l0.94,0.32
	c0.49,0.17,0.87,0.41,0.87,0.85c0,0.53-0.5,0.92-1.18,0.92c-0.55,0-1.02-0.22-1.3-0.57c-0.18-0.24-0.35-0.36-0.63-0.29l-0.29,0.08
	c-0.34,0.08-0.5,0.31-0.34,0.63C108.93,354.14,109.93,354.6,111.01,354.6z M121.77,354.6c0.94,0,1.85-0.32,2.51-1.26v0.6
	c0,0.32,0.2,0.5,0.52,0.5h0.42c0.32,0,0.5-0.18,0.5-0.5v-6.01c0-0.32-0.18-0.5-0.5-0.5h-0.42c-0.32,0-0.52,0.18-0.52,0.5v0.6
	c-0.66-0.94-1.57-1.26-2.51-1.26c-2.09,0-3.47,1.64-3.47,3.65C118.3,352.95,119.69,354.6,121.77,354.6z M121.97,353.34
	c-1.41,0-2.23-1.09-2.23-2.41c0-1.3,0.81-2.41,2.23-2.41c1.39,0,2.32,1.02,2.34,2.41C124.29,352.32,123.36,353.34,121.97,353.34z
	 M131.05,357.74c1.95,0,3.7-1.02,3.7-3.4v-6.4c0-0.32-0.2-0.5-0.52-0.5h-0.41c-0.32,0-0.52,0.18-0.52,0.49v0.62
	c-0.66-0.94-1.57-1.26-2.51-1.26c-2.1,0-3.47,1.65-3.47,3.65c0,2.02,1.37,3.67,3.47,3.67c0.94,0,1.85-0.32,2.51-1.26v0.9
	c0,1.48-0.92,2.25-2.27,2.25c-0.71,0-1.4-0.17-2-0.55c-0.29-0.18-0.53-0.15-0.69,0.17l-0.11,0.2c-0.14,0.28-0.1,0.53,0.15,0.7
	C129.03,357.43,129.83,357.74,131.05,357.74z M130.99,353.34c-1.41,0-2.23-1.09-2.23-2.41c0-1.3,0.81-2.41,2.23-2.41
	c1.39,0,2.32,1.02,2.34,2.41C133.32,352.32,132.38,353.34,130.99,353.34z M140.02,354.6c2.06,0,3.72-1.64,3.72-3.67
	c0-2-1.67-3.65-3.72-3.65c-2.04,0-3.7,1.64-3.7,3.65C136.32,352.98,137.97,354.6,140.02,354.6z M140.02,353.34
	c-1.25,0-2.27-1.06-2.27-2.39s1.02-2.41,2.27-2.41c1.27,0,2.28,1.08,2.28,2.41S141.29,353.34,140.02,353.34z"/>
<path d="M71.86,380.45h4.94c0.32,0,0.52-0.18,0.52-0.5v-0.21c0-0.32-0.2-0.5-0.52-0.5h-3.96v-8.08c0-0.32-0.18-0.5-0.5-0.5h-0.48
	c-0.32,0-0.5,0.18-0.5,0.5v8.79C71.36,380.27,71.54,380.45,71.86,380.45z M79.34,372.16c0.56,0,0.99-0.42,0.99-0.95
	c0-0.55-0.42-0.98-0.99-0.98c-0.56,0-0.97,0.43-0.97,0.98C78.37,371.74,78.78,372.16,79.34,372.16z M79.14,380.45h0.42
	c0.32,0,0.5-0.18,0.5-0.5v-6.01c0-0.32-0.18-0.5-0.5-0.5h-0.42c-0.32,0-0.52,0.18-0.52,0.5v6.01
	C78.62,380.27,78.82,380.45,79.14,380.45z M84.31,380.6c1.37,0,2.55-0.77,2.55-2.11c0-0.76-0.36-1.58-1.71-2l-1.01-0.34
	c-0.41-0.13-0.81-0.36-0.81-0.81c0-0.49,0.39-0.87,1.01-0.87c0.31,0,0.62,0.08,0.85,0.36c0.2,0.25,0.36,0.38,0.66,0.29l0.27-0.06
	c0.34-0.07,0.5-0.32,0.32-0.64c-0.46-0.85-1.29-1.15-2.14-1.15c-1.4,0-2.35,0.9-2.35,2.1c0,0.99,0.67,1.6,1.75,1.92l0.94,0.32
	c0.49,0.17,0.87,0.41,0.87,0.85c0,0.53-0.5,0.92-1.18,0.92c-0.55,0-1.02-0.22-1.3-0.57c-0.18-0.24-0.35-0.36-0.63-0.29l-0.29,0.08
	c-0.34,0.08-0.5,0.31-0.34,0.63C82.23,380.14,83.23,380.6,84.31,380.6z M91.02,380.6c1.34,0,2.1-0.77,2.1-1.82
	c0-0.01,0-0.28-0.06-0.52c-0.03-0.18-0.15-0.25-0.32-0.25h-0.64c-0.2,0-0.28,0.13-0.25,0.32c0.03,0.11,0.03,0.21,0.03,0.27
	c0,0.5-0.39,0.76-0.83,0.76c-0.45,0-0.81-0.29-0.81-1.05v-3.75h1.92c0.18,0,0.28-0.11,0.28-0.29v-0.55c0-0.18-0.1-0.28-0.28-0.28
	h-1.92v-1.58c0-0.27-0.15-0.43-0.42-0.43h-0.29c-0.25,0-0.41,0.14-0.45,0.41l-0.25,1.61h-0.88c-0.18,0-0.28,0.1-0.28,0.28v0.55
	c0,0.18,0.1,0.29,0.28,0.29h0.85v3.67C88.79,380.03,89.9,380.6,91.02,380.6z M101.2,380.6c2.06,0,3.72-1.64,3.72-3.67
	c0-2-1.67-3.65-3.72-3.65c-2.04,0-3.7,1.64-3.7,3.65C97.51,378.98,99.16,380.6,101.2,380.6z M101.2,379.34
	c-1.25,0-2.27-1.06-2.27-2.39s1.02-2.41,2.27-2.41c1.27,0,2.28,1.08,2.28,2.41S102.48,379.34,101.2,379.34z M107.36,380.45h0.46
	c0.32,0,0.5-0.18,0.5-0.5v-5.39h1.53c0.18,0,0.28-0.11,0.28-0.29v-0.53c0-0.18-0.1-0.29-0.28-0.29h-1.53v-0.76
	c0-0.77,0.31-1.26,0.95-1.26c0.43,0,0.8,0.24,0.8,0.59v0.1c0,0.17,0.14,0.25,0.29,0.25h0.69c0.11,0,0.22-0.06,0.25-0.15
	c0.01-0.06,0.03-0.15,0.03-0.24c0-1.02-0.77-1.78-2.14-1.78c-1.11,0-2.34,0.48-2.34,2.73v0.52h-0.81c-0.18,0-0.28,0.11-0.28,0.29
	v0.53c0,0.18,0.1,0.29,0.28,0.29h0.81v5.39C106.85,380.27,107.04,380.45,107.36,380.45z M117.81,380.6c0.94,0,1.85-0.32,2.51-1.26
	v0.6c0,0.32,0.2,0.5,0.52,0.5h0.42c0.32,0,0.5-0.18,0.5-0.5v-9.11c0-0.32-0.18-0.5-0.5-0.5h-0.42c-0.32,0-0.52,0.18-0.52,0.5v3.71
	c-0.66-0.94-1.57-1.26-2.51-1.26c-2.09,0-3.47,1.64-3.47,3.65C114.34,378.95,115.72,380.6,117.81,380.6z M118.01,379.34
	c-1.41,0-2.23-1.09-2.23-2.41c0-1.3,0.81-2.41,2.23-2.41c1.39,0,2.32,1.02,2.34,2.41C120.33,378.32,119.39,379.34,118.01,379.34z
	 M127.06,380.6c2.06,0,3.72-1.64,3.72-3.67c0-2-1.67-3.65-3.72-3.65c-2.04,0-3.7,1.64-3.7,3.65
	C123.36,378.98,125.01,380.6,127.06,380.6z M127.06,379.34c-1.25,0-2.27-1.06-2.27-2.39s1.02-2.41,2.27-2.41
	c1.27,0,2.28,1.08,2.28,2.41S128.33,379.34,127.06,379.34z M135.81,380.6c0.5,0,1.19-0.08,1.89-0.46c0.45-0.22,0.55-0.56,0.35-0.83
	l-0.1-0.14c-0.18-0.27-0.41-0.29-0.71-0.14c-0.6,0.29-1.2,0.31-1.36,0.31c-1.48,0-2.58-0.99-2.58-2.41s1.09-2.39,2.58-2.39
	c0.15,0,0.76,0.01,1.36,0.31c0.31,0.14,0.52,0.13,0.71-0.14l0.11-0.14c0.2-0.27,0.15-0.55-0.14-0.71c-0.8-0.46-1.55-0.57-2.11-0.57
	c-2.53,0-3.95,1.68-3.95,3.74C131.86,379.02,133.33,380.6,135.81,380.6z M142.37,380.6c1.13,0,2.03-0.55,2.34-1.53v0.87
	c0,0.32,0.18,0.5,0.5,0.5h0.42c0.32,0,0.52-0.18,0.52-0.5v-6.01c0-0.32-0.2-0.5-0.52-0.5h-0.42c-0.32,0-0.5,0.18-0.5,0.5v2.79
	c0,2.11-1.46,2.62-2.18,2.62c-0.74,0-1.39-0.53-1.39-1.96v-3.44c0-0.32-0.2-0.5-0.52-0.5h-0.42c-0.32,0-0.5,0.18-0.5,0.5v3.46
	C139.69,379.6,140.81,380.6,142.37,380.6z M148.76,380.45h0.42c0.32,0,0.5-0.18,0.5-0.5v-2.79c0-2.13,1.2-2.62,1.92-2.62
	c0.74,0,1.39,0.52,1.39,1.95v3.46c0,0.32,0.2,0.5,0.52,0.5h0.42c0.32,0,0.5-0.18,0.5-0.5v-2.94c0.07-2.06,1.27-2.46,1.92-2.46
	c0.74,0,1.39,0.52,1.39,1.95v3.46c0,0.32,0.2,0.5,0.52,0.5h0.42c0.32,0,0.5-0.18,0.5-0.5v-3.46c0-2.2-1.02-3.21-2.69-3.21
	c-0.84,0-1.79,0.24-2.38,1.44c-0.53-1.22-1.53-1.44-2.21-1.44c-1.02,0-1.92,0.52-2.21,1.53v-0.87c0-0.32-0.18-0.5-0.5-0.5h-0.42
	c-0.32,0-0.52,0.18-0.52,0.5v6.01C148.24,380.27,148.44,380.45,148.76,380.45z M164.65,380.6c0.88,0,1.82-0.21,2.63-0.87
	c0.32-0.27,0.32-0.56,0.1-0.8l-0.1-0.11c-0.22-0.22-0.45-0.24-0.71-0.07c-0.6,0.41-1.22,0.59-1.9,0.59c-1.53,0-2.6-0.95-2.56-2.25
	h5.43c0.34,0,0.53-0.18,0.49-0.52c-0.2-2.24-1.81-3.29-3.57-3.29c-2.18,0-3.78,1.64-3.78,3.68
	C160.67,378.97,162.18,380.6,164.65,380.6z M162.22,376.03c0.43-1.19,1.44-1.51,2.25-1.51c0.77,0,1.75,0.27,2.11,1.51H162.22z
	 M170.06,380.45h0.42c0.32,0,0.5-0.18,0.5-0.5v-2.79c0-2.13,1.46-2.62,2.18-2.62c0.74,0,1.4,0.52,1.4,1.96v3.44
	c0,0.32,0.18,0.5,0.5,0.5h0.42c0.32,0,0.52-0.18,0.52-0.5v-3.46c0-2.2-1.13-3.21-2.69-3.21c-1.13,0-2.03,0.55-2.34,1.53v-0.87
	c0-0.32-0.18-0.5-0.5-0.5h-0.42c-0.32,0-0.52,0.18-0.52,0.5v6.01C169.54,380.27,169.74,380.45,170.06,380.45z M180.51,380.6
	c1.34,0,2.1-0.77,2.1-1.82c0-0.01,0-0.28-0.06-0.52c-0.03-0.18-0.15-0.25-0.32-0.25h-0.64c-0.2,0-0.28,0.13-0.25,0.32
	c0.03,0.11,0.03,0.21,0.03,0.27c0,0.5-0.39,0.76-0.83,0.76c-0.45,0-0.81-0.29-0.81-1.05v-3.75h1.92c0.18,0,0.28-0.11,0.28-0.29
	v-0.55c0-0.18-0.1-0.28-0.28-0.28h-1.92v-1.58c0-0.27-0.15-0.43-0.42-0.43h-0.29c-0.25,0-0.41,0.14-0.45,0.41l-0.25,1.61h-0.88
	c-0.18,0-0.28,0.1-0.28,0.28v0.55c0,0.18,0.1,0.29,0.28,0.29h0.85v3.67C178.29,380.03,179.39,380.6,180.51,380.6z M185.94,380.6
	c1.37,0,2.55-0.77,2.55-2.11c0-0.76-0.36-1.58-1.71-2l-1.01-0.34c-0.41-0.13-0.81-0.36-0.81-0.81c0-0.49,0.39-0.87,1.01-0.87
	c0.31,0,0.62,0.08,0.85,0.36c0.2,0.25,0.36,0.38,0.66,0.29l0.27-0.06c0.34-0.07,0.5-0.32,0.32-0.64c-0.46-0.85-1.29-1.15-2.14-1.15
	c-1.4,0-2.35,0.9-2.35,2.1c0,0.99,0.67,1.6,1.75,1.92l0.94,0.32c0.49,0.17,0.87,0.41,0.87,0.85c0,0.53-0.5,0.92-1.18,0.92
	c-0.55,0-1.02-0.22-1.3-0.57c-0.18-0.24-0.35-0.36-0.63-0.29l-0.29,0.08c-0.34,0.08-0.5,0.31-0.34,0.63
	C183.87,380.14,184.86,380.6,185.94,380.6z M197.2,380.6c0.88,0,1.82-0.21,2.63-0.87c0.32-0.27,0.32-0.56,0.1-0.8l-0.1-0.11
	c-0.22-0.22-0.45-0.24-0.71-0.07c-0.6,0.41-1.22,0.59-1.9,0.59c-1.53,0-2.6-0.95-2.56-2.25h5.43c0.34,0,0.53-0.18,0.49-0.52
	c-0.2-2.24-1.81-3.29-3.57-3.29c-2.18,0-3.78,1.64-3.78,3.68C193.22,378.97,194.74,380.6,197.2,380.6z M194.78,376.03
	c0.43-1.19,1.44-1.51,2.25-1.51c0.77,0,1.75,0.27,2.11,1.51H194.78z M201.78,380.45h0.5c0.27,0,0.45-0.08,0.63-0.29l2.03-2.45
	l2.04,2.45c0.17,0.21,0.35,0.29,0.62,0.29h0.5c0.43,0,0.56-0.29,0.29-0.63l-2.51-3.01l2.3-2.76c0.28-0.34,0.15-0.62-0.29-0.62h-0.42
	c-0.27,0-0.46,0.08-0.63,0.28l-1.9,2.25l-1.9-2.25c-0.17-0.2-0.35-0.28-0.62-0.28h-0.43c-0.43,0-0.56,0.28-0.29,0.62l2.3,2.76
	l-2.49,3.01C201.22,380.16,201.34,380.45,201.78,380.45z M213.17,380.6c0.5,0,1.19-0.08,1.89-0.46c0.45-0.22,0.55-0.56,0.35-0.83
	l-0.1-0.14c-0.18-0.27-0.41-0.29-0.71-0.14c-0.6,0.29-1.2,0.31-1.36,0.31c-1.48,0-2.58-0.99-2.58-2.41s1.09-2.39,2.58-2.39
	c0.15,0,0.76,0.01,1.36,0.31c0.31,0.14,0.52,0.13,0.71-0.14l0.11-0.14c0.2-0.27,0.15-0.55-0.14-0.71c-0.8-0.46-1.55-0.57-2.11-0.57
	c-2.53,0-3.95,1.68-3.95,3.74C209.22,379.02,210.69,380.6,213.17,380.6z M217.67,380.45h0.42c0.32,0,0.5-0.18,0.5-0.5v-2.79
	c0-2.13,1.46-2.62,2.18-2.62c0.74,0,1.4,0.52,1.4,1.96v3.44c0,0.32,0.18,0.5,0.5,0.5h0.42c0.32,0,0.52-0.18,0.52-0.5v-3.46
	c0-2.2-1.13-3.21-2.69-3.21c-1.13,0-2.03,0.55-2.34,1.53v-3.98c0-0.32-0.18-0.5-0.5-0.5h-0.42c-0.32,0-0.52,0.18-0.52,0.5v9.11
	C217.15,380.27,217.34,380.45,217.67,380.45z M228.56,380.6c0.94,0,1.85-0.32,2.51-1.26v0.6c0,0.32,0.2,0.5,0.52,0.5h0.42
	c0.32,0,0.5-0.18,0.5-0.5v-6.01c0-0.32-0.18-0.5-0.5-0.5h-0.42c-0.32,0-0.52,0.18-0.52,0.5v0.6c-0.66-0.94-1.57-1.26-2.51-1.26
	c-2.09,0-3.47,1.64-3.47,3.65C225.09,378.95,226.48,380.6,228.56,380.6z M228.76,379.34c-1.41,0-2.23-1.09-2.23-2.41
	c0-1.3,0.81-2.41,2.23-2.41c1.39,0,2.32,1.02,2.34,2.41C231.08,378.32,230.15,379.34,228.76,379.34z M235.14,380.45h0.42
	c0.32,0,0.5-0.18,0.5-0.5v-2.79c0-2.13,1.46-2.62,2.18-2.62c0.74,0,1.4,0.52,1.4,1.96v3.44c0,0.32,0.18,0.5,0.5,0.5h0.42
	c0.32,0,0.52-0.18,0.52-0.5v-3.46c0-2.2-1.13-3.21-2.69-3.21c-1.13,0-2.03,0.55-2.34,1.53v-0.87c0-0.32-0.18-0.5-0.5-0.5h-0.42
	c-0.32,0-0.52,0.18-0.52,0.5v6.01C234.62,380.27,234.82,380.45,235.14,380.45z M246.32,383.74c1.95,0,3.7-1.02,3.7-3.4v-6.4
	c0-0.32-0.2-0.5-0.52-0.5h-0.41c-0.32,0-0.52,0.18-0.52,0.49v0.62c-0.66-0.94-1.57-1.26-2.51-1.26c-2.1,0-3.47,1.65-3.47,3.65
	c0,2.02,1.37,3.67,3.47,3.67c0.94,0,1.85-0.32,2.51-1.26v0.9c0,1.48-0.92,2.25-2.27,2.25c-0.71,0-1.4-0.17-2-0.55
	c-0.29-0.18-0.53-0.15-0.69,0.17l-0.11,0.2c-0.14,0.28-0.1,0.53,0.15,0.7C244.3,383.43,245.1,383.74,246.32,383.74z M246.26,379.34
	c-1.41,0-2.23-1.09-2.23-2.41c0-1.3,0.81-2.41,2.23-2.41c1.39,0,2.32,1.02,2.34,2.41C248.58,378.32,247.65,379.34,246.26,379.34z
	 M255.56,380.6c0.88,0,1.82-0.21,2.63-0.87c0.32-0.27,0.32-0.56,0.1-0.8l-0.1-0.11c-0.22-0.22-0.45-0.24-0.71-0.07
	c-0.6,0.41-1.22,0.59-1.9,0.59c-1.53,0-2.6-0.95-2.56-2.25h5.43c0.34,0,0.53-0.18,0.49-0.52c-0.2-2.24-1.81-3.29-3.57-3.29
	c-2.18,0-3.78,1.64-3.78,3.68C251.59,378.97,253.1,380.6,255.56,380.6z M253.14,376.03c0.43-1.19,1.44-1.51,2.25-1.51
	c0.77,0,1.75,0.27,2.11,1.51H253.14z M263.44,380.6c0.94,0,1.85-0.32,2.51-1.26v0.6c0,0.32,0.2,0.5,0.52,0.5h0.42
	c0.32,0,0.5-0.18,0.5-0.5v-9.11c0-0.32-0.18-0.5-0.5-0.5h-0.42c-0.32,0-0.52,0.18-0.52,0.5v3.71c-0.66-0.94-1.57-1.26-2.51-1.26
	c-2.09,0-3.47,1.64-3.47,3.65C259.97,378.95,261.36,380.6,263.44,380.6z M263.64,379.34c-1.41,0-2.23-1.09-2.23-2.41
	c0-1.3,0.81-2.41,2.23-2.41c1.39,0,2.32,1.02,2.34,2.41C265.96,378.32,265.02,379.34,263.64,379.34z M275.05,380.45h0.46
	c0.29,0,0.49-0.14,0.57-0.42l1.41-4.37l1.41,4.37c0.1,0.28,0.28,0.42,0.57,0.42h0.46c0.29,0,0.48-0.11,0.59-0.41l2.17-6.03
	c0.13-0.36-0.03-0.57-0.41-0.57h-0.45c-0.29,0-0.49,0.11-0.59,0.41l-1.61,4.68l-1.44-4.45c-0.08-0.28-0.27-0.43-0.56-0.43h-0.31
	c-0.28,0-0.48,0.15-0.56,0.43l-1.43,4.45l-1.62-4.68c-0.1-0.29-0.29-0.41-0.59-0.41h-0.45c-0.36,0-0.53,0.21-0.41,0.57l2.18,6.03
	C274.57,380.32,274.75,380.45,275.05,380.45z M285.06,372.16c0.56,0,0.99-0.42,0.99-0.95c0-0.55-0.42-0.98-0.99-0.98
	c-0.56,0-0.97,0.43-0.97,0.98C284.09,371.74,284.5,372.16,285.06,372.16z M284.86,380.45h0.42c0.32,0,0.5-0.18,0.5-0.5v-6.01
	c0-0.32-0.18-0.5-0.5-0.5h-0.42c-0.32,0-0.52,0.18-0.52,0.5v6.01C284.35,380.27,284.54,380.45,284.86,380.45z M290.52,380.6
	c1.34,0,2.1-0.77,2.1-1.82c0-0.01,0-0.28-0.06-0.52c-0.03-0.18-0.15-0.25-0.32-0.25h-0.64c-0.2,0-0.28,0.13-0.25,0.32
	c0.03,0.11,0.03,0.21,0.03,0.27c0,0.5-0.39,0.76-0.83,0.76c-0.45,0-0.81-0.29-0.81-1.05v-3.75h1.92c0.18,0,0.28-0.11,0.28-0.29
	v-0.55c0-0.18-0.1-0.28-0.28-0.28h-1.92v-1.58c0-0.27-0.15-0.43-0.42-0.43h-0.29c-0.25,0-0.41,0.14-0.45,0.41l-0.25,1.61h-0.88
	c-0.18,0-0.28,0.1-0.28,0.28v0.55c0,0.18,0.1,0.29,0.28,0.29h0.85v3.67C288.29,380.03,289.4,380.6,290.52,380.6z M294.38,380.45
	h0.42c0.32,0,0.5-0.18,0.5-0.5v-2.79c0-2.13,1.46-2.62,2.18-2.62c0.74,0,1.4,0.52,1.4,1.96v3.44c0,0.32,0.18,0.5,0.5,0.5h0.42
	c0.32,0,0.52-0.18,0.52-0.5v-3.46c0-2.2-1.13-3.21-2.69-3.21c-1.13,0-2.03,0.55-2.34,1.53v-3.98c0-0.32-0.18-0.5-0.5-0.5h-0.42
	c-0.32,0-0.52,0.18-0.52,0.5v9.11C293.86,380.27,294.06,380.45,294.38,380.45z M308.94,380.6c0.94,0,1.85-0.32,2.51-1.26v0.6
	c0,0.32,0.2,0.5,0.52,0.5h0.42c0.32,0,0.5-0.18,0.5-0.5v-6.01c0-0.32-0.18-0.5-0.5-0.5h-0.42c-0.32,0-0.52,0.18-0.52,0.5v0.6
	c-0.66-0.94-1.57-1.26-2.51-1.26c-2.09,0-3.47,1.64-3.47,3.65C305.47,378.95,306.86,380.6,308.94,380.6z M309.14,379.34
	c-1.41,0-2.23-1.09-2.23-2.41c0-1.3,0.81-2.41,2.23-2.41c1.39,0,2.32,1.02,2.34,2.41C311.46,378.32,310.52,379.34,309.14,379.34z
	 M319.18,383.59h0.42c0.32,0,0.5-0.18,0.5-0.5v-3.74c0.66,0.94,1.58,1.26,2.52,1.26c2.09,0,3.47-1.65,3.47-3.67
	c0-2.02-1.39-3.65-3.47-3.65c-0.94,0-1.86,0.32-2.52,1.26v-0.6c0-0.32-0.18-0.5-0.5-0.5h-0.42c-0.32,0-0.52,0.18-0.52,0.5v9.14
	C318.66,383.4,318.86,383.59,319.18,383.59z M322.41,379.34c-1.37,0-2.32-1.02-2.34-2.41c0.01-1.39,0.97-2.41,2.34-2.41
	c1.43,0,2.24,1.11,2.24,2.41C324.65,378.25,323.84,379.34,322.41,379.34z M331.14,380.6c0.88,0,1.82-0.21,2.63-0.87
	c0.32-0.27,0.32-0.56,0.1-0.8l-0.1-0.11c-0.22-0.22-0.45-0.24-0.71-0.07c-0.6,0.41-1.22,0.59-1.9,0.59c-1.53,0-2.6-0.95-2.56-2.25
	h5.43c0.34,0,0.53-0.18,0.49-0.52c-0.2-2.24-1.81-3.29-3.57-3.29c-2.18,0-3.78,1.64-3.78,3.68
	C327.17,378.97,328.68,380.6,331.14,380.6z M328.72,376.03c0.43-1.19,1.44-1.51,2.25-1.51c0.77,0,1.75,0.27,2.11,1.51H328.72z
	 M336.56,380.45h0.42c0.32,0,0.5-0.18,0.5-0.5v-2.17c0-2.87,1.26-3.12,1.76-3.12c0.13,0,0.25,0.01,0.38,0.04
	c0.24,0.06,0.38-0.08,0.38-0.43v-0.41c0-0.28-0.04-0.52-0.34-0.56l-0.31-0.01c-0.84,0-1.64,0.6-1.88,1.72v-1.06
	c0-0.32-0.18-0.5-0.5-0.5h-0.42c-0.32,0-0.52,0.18-0.52,0.5v6.01C336.04,380.27,336.23,380.45,336.56,380.45z M343.31,380.6
	c1.37,0,2.55-0.77,2.55-2.11c0-0.76-0.36-1.58-1.71-2l-1.01-0.34c-0.41-0.13-0.81-0.36-0.81-0.81c0-0.49,0.39-0.87,1.01-0.87
	c0.31,0,0.62,0.08,0.85,0.36c0.2,0.25,0.36,0.38,0.66,0.29l0.27-0.06c0.34-0.07,0.5-0.32,0.32-0.64c-0.46-0.85-1.29-1.15-2.14-1.15
	c-1.4,0-2.35,0.9-2.35,2.1c0,0.99,0.67,1.6,1.75,1.92l0.94,0.32c0.49,0.17,0.87,0.41,0.87,0.85c0,0.53-0.5,0.92-1.18,0.92
	c-0.55,0-1.02-0.22-1.3-0.57c-0.18-0.24-0.35-0.36-0.63-0.29l-0.29,0.08c-0.34,0.08-0.5,0.31-0.34,0.63
	C341.23,380.14,342.23,380.6,343.31,380.6z M350.62,380.6c2.06,0,3.72-1.64,3.72-3.67c0-2-1.67-3.65-3.72-3.65
	c-2.04,0-3.7,1.64-3.7,3.65C346.92,378.98,348.57,380.6,350.62,380.6z M350.62,379.34c-1.25,0-2.27-1.06-2.27-2.39
	s1.02-2.41,2.27-2.41c1.27,0,2.28,1.08,2.28,2.41S351.89,379.34,350.62,379.34z M356.45,380.45h0.42c0.32,0,0.5-0.18,0.5-0.5v-2.79
	c0-2.13,1.46-2.62,2.18-2.62c0.74,0,1.4,0.52,1.4,1.96v3.44c0,0.32,0.18,0.5,0.5,0.5h0.42c0.32,0,0.52-0.18,0.52-0.5v-3.46
	c0-2.2-1.13-3.21-2.69-3.21c-1.13,0-2.03,0.55-2.34,1.53v-0.87c0-0.32-0.18-0.5-0.5-0.5h-0.42c-0.32,0-0.52,0.18-0.52,0.5v6.01
	C355.93,380.27,356.13,380.45,356.45,380.45z M368.83,372.16c0.56,0,0.99-0.42,0.99-0.95c0-0.55-0.42-0.98-0.99-0.98
	c-0.56,0-0.97,0.43-0.97,0.98C367.86,371.74,368.27,372.16,368.83,372.16z M368.63,380.45h0.42c0.32,0,0.5-0.18,0.5-0.5v-6.01
	c0-0.32-0.18-0.5-0.5-0.5h-0.42c-0.32,0-0.52,0.18-0.52,0.5v6.01C368.11,380.27,368.31,380.45,368.63,380.45z M372.23,380.45h0.42
	c0.32,0,0.5-0.18,0.5-0.5v-2.79c0-2.13,1.46-2.62,2.18-2.62c0.74,0,1.4,0.52,1.4,1.96v3.44c0,0.32,0.18,0.5,0.5,0.5h0.42
	c0.32,0,0.52-0.18,0.52-0.5v-3.46c0-2.2-1.13-3.21-2.69-3.21c-1.13,0-2.03,0.55-2.34,1.53v-0.87c0-0.32-0.18-0.5-0.5-0.5h-0.42
	c-0.32,0-0.52,0.18-0.52,0.5v6.01C371.71,380.27,371.9,380.45,372.23,380.45z M386.82,380.6c0.94,0,1.85-0.32,2.51-1.26v0.6
	c0,0.32,0.2,0.5,0.52,0.5h0.42c0.32,0,0.5-0.18,0.5-0.5v-6.01c0-0.32-0.18-0.5-0.5-0.5h-0.42c-0.32,0-0.52,0.18-0.52,0.5v0.6
	c-0.66-0.94-1.57-1.26-2.51-1.26c-2.09,0-3.47,1.64-3.47,3.65C383.34,378.95,384.73,380.6,386.82,380.6z M387.01,379.34
	c-1.41,0-2.23-1.09-2.23-2.41c0-1.3,0.81-2.41,2.23-2.41c1.39,0,2.32,1.02,2.34,2.41C389.34,378.32,388.4,379.34,387.01,379.34z
	 M393.43,380.45h0.42c0.32,0,0.5-0.18,0.5-0.5v-9.11c0-0.32-0.18-0.5-0.5-0.5h-0.42c-0.32,0-0.52,0.18-0.52,0.5v9.11
	C392.91,380.27,393.11,380.45,393.43,380.45z M397.03,383.59h0.42c0.32,0,0.5-0.18,0.5-0.5v-3.74c0.66,0.94,1.58,1.26,2.52,1.26
	c2.09,0,3.47-1.65,3.47-3.67c0-2.02-1.39-3.65-3.47-3.65c-0.94,0-1.86,0.32-2.52,1.26v-0.6c0-0.32-0.18-0.5-0.5-0.5h-0.42
	c-0.32,0-0.52,0.18-0.52,0.5v9.14C396.51,383.4,396.7,383.59,397.03,383.59z M400.26,379.34c-1.37,0-2.32-1.02-2.34-2.41
	c0.01-1.39,0.97-2.41,2.34-2.41c1.43,0,2.24,1.11,2.24,2.41C402.5,378.25,401.69,379.34,400.26,379.34z M406.05,380.45h0.42
	c0.32,0,0.5-0.18,0.5-0.5v-2.79c0-2.13,1.46-2.62,2.18-2.62c0.74,0,1.4,0.52,1.4,1.96v3.44c0,0.32,0.18,0.5,0.5,0.5h0.42
	c0.32,0,0.52-0.18,0.52-0.5v-3.46c0-2.2-1.13-3.21-2.69-3.21c-1.13,0-2.03,0.55-2.34,1.53v-3.98c0-0.32-0.18-0.5-0.5-0.5h-0.42
	c-0.32,0-0.52,0.18-0.52,0.5v9.11C405.53,380.27,405.73,380.45,406.05,380.45z M416.95,380.6c0.94,0,1.85-0.32,2.51-1.26v0.6
	c0,0.32,0.2,0.5,0.52,0.5h0.42c0.32,0,0.5-0.18,0.5-0.5v-6.01c0-0.32-0.18-0.5-0.5-0.5h-0.42c-0.32,0-0.52,0.18-0.52,0.5v0.6
	c-0.66-0.94-1.57-1.26-2.51-1.26c-2.09,0-3.47,1.64-3.47,3.65C413.48,378.95,414.86,380.6,416.95,380.6z M417.15,379.34
	c-1.41,0-2.23-1.09-2.23-2.41c0-1.3,0.81-2.41,2.23-2.41c1.39,0,2.32,1.02,2.34,2.41C419.47,378.32,418.53,379.34,417.15,379.34z
	 M426.97,380.6c2.09,0,3.47-1.65,3.47-3.67c0-2.02-1.39-3.65-3.47-3.65c-0.94,0-1.86,0.32-2.52,1.26v-3.71c0-0.32-0.18-0.5-0.5-0.5
	h-0.42c-0.32,0-0.52,0.18-0.52,0.5v9.11c0,0.32,0.2,0.5,0.52,0.5h0.42c0.32,0,0.5-0.18,0.5-0.5v-0.6
	C425.1,380.28,426.03,380.6,426.97,380.6z M426.76,379.34c-1.37,0-2.32-1.02-2.34-2.41c0.01-1.39,0.97-2.41,2.34-2.41
	c1.43,0,2.24,1.11,2.24,2.41C429,378.25,428.18,379.34,426.76,379.34z M435.51,380.6c0.88,0,1.82-0.21,2.63-0.87
	c0.32-0.27,0.32-0.56,0.1-0.8l-0.1-0.11c-0.22-0.22-0.45-0.24-0.71-0.07c-0.6,0.41-1.22,0.59-1.9,0.59c-1.53,0-2.6-0.95-2.56-2.25
	h5.43c0.34,0,0.53-0.18,0.49-0.52c-0.2-2.24-1.81-3.29-3.57-3.29c-2.18,0-3.78,1.64-3.78,3.68
	C431.54,378.97,433.05,380.6,435.51,380.6z M433.09,376.03c0.43-1.19,1.44-1.51,2.25-1.51c0.77,0,1.75,0.27,2.11,1.51H433.09z
	 M442.93,380.6c1.34,0,2.1-0.77,2.1-1.82c0-0.01,0-0.28-0.06-0.52c-0.03-0.18-0.15-0.25-0.32-0.25h-0.64c-0.2,0-0.28,0.13-0.25,0.32
	c0.03,0.11,0.03,0.21,0.03,0.27c0,0.5-0.39,0.76-0.83,0.76c-0.45,0-0.81-0.29-0.81-1.05v-3.75h1.92c0.18,0,0.28-0.11,0.28-0.29
	v-0.55c0-0.18-0.1-0.28-0.28-0.28h-1.92v-1.58c0-0.27-0.15-0.43-0.42-0.43h-0.29c-0.25,0-0.41,0.14-0.45,0.41l-0.25,1.61h-0.88
	c-0.18,0-0.28,0.1-0.28,0.28v0.55c0,0.18,0.1,0.29,0.28,0.29h0.85v3.67C440.7,380.03,441.81,380.6,442.93,380.6z M447.03,372.16
	c0.56,0,0.99-0.42,0.99-0.95c0-0.55-0.42-0.98-0.99-0.98c-0.56,0-0.97,0.43-0.97,0.98C446.06,371.74,446.47,372.16,447.03,372.16z
	 M446.83,380.45h0.42c0.32,0,0.5-0.18,0.5-0.5v-6.01c0-0.32-0.18-0.5-0.5-0.5h-0.42c-0.32,0-0.52,0.18-0.52,0.5v6.01
	C446.32,380.27,446.51,380.45,446.83,380.45z M453.36,380.6c0.5,0,1.19-0.08,1.89-0.46c0.45-0.22,0.55-0.56,0.35-0.83l-0.1-0.14
	c-0.18-0.27-0.41-0.29-0.71-0.14c-0.6,0.29-1.2,0.31-1.36,0.31c-1.48,0-2.58-0.99-2.58-2.41s1.09-2.39,2.58-2.39
	c0.15,0,0.76,0.01,1.36,0.31c0.31,0.14,0.52,0.13,0.71-0.14l0.11-0.14c0.2-0.27,0.15-0.55-0.14-0.71c-0.8-0.46-1.55-0.57-2.11-0.57
	c-2.53,0-3.95,1.68-3.95,3.74C449.41,379.02,450.88,380.6,453.36,380.6z M460.17,380.6c0.94,0,1.85-0.32,2.51-1.26v0.6
	c0,0.32,0.2,0.5,0.52,0.5h0.42c0.32,0,0.5-0.18,0.5-0.5v-6.01c0-0.32-0.18-0.5-0.5-0.5h-0.42c-0.32,0-0.52,0.18-0.52,0.5v0.6
	c-0.66-0.94-1.57-1.26-2.51-1.26c-2.09,0-3.47,1.64-3.47,3.65C456.69,378.95,458.08,380.6,460.17,380.6z M460.36,379.34
	c-1.41,0-2.23-1.09-2.23-2.41c0-1.3,0.81-2.41,2.23-2.41c1.39,0,2.32,1.02,2.34,2.41C462.69,378.32,461.75,379.34,460.36,379.34z
	 M466.78,380.45h0.42c0.32,0,0.5-0.18,0.5-0.5v-9.11c0-0.32-0.18-0.5-0.5-0.5h-0.42c-0.32,0-0.52,0.18-0.52,0.5v9.11
	C466.26,380.27,466.46,380.45,466.78,380.45z M476.7,380.6c2.06,0,3.72-1.64,3.72-3.67c0-2-1.67-3.65-3.72-3.65
	c-2.04,0-3.7,1.64-3.7,3.65C473,378.98,474.66,380.6,476.7,380.6z M476.7,379.34c-1.25,0-2.27-1.06-2.27-2.39s1.02-2.41,2.27-2.41
	c1.27,0,2.28,1.08,2.28,2.41S477.97,379.34,476.7,379.34z M482.53,380.45h0.42c0.32,0,0.5-0.18,0.5-0.5v-2.17
	c0-2.87,1.26-3.12,1.76-3.12c0.13,0,0.25,0.01,0.38,0.04c0.24,0.06,0.38-0.08,0.38-0.43v-0.41c0-0.28-0.04-0.52-0.34-0.56
	l-0.31-0.01c-0.84,0-1.64,0.6-1.88,1.72v-1.06c0-0.32-0.18-0.5-0.5-0.5h-0.42c-0.32,0-0.52,0.18-0.52,0.5v6.01
	C482.01,380.27,482.21,380.45,482.53,380.45z M490.05,380.6c0.94,0,1.85-0.32,2.51-1.26v0.6c0,0.32,0.2,0.5,0.52,0.5h0.42
	c0.32,0,0.5-0.18,0.5-0.5v-9.11c0-0.32-0.18-0.5-0.5-0.5h-0.42c-0.32,0-0.52,0.18-0.52,0.5v3.71c-0.66-0.94-1.57-1.26-2.51-1.26
	c-2.09,0-3.47,1.64-3.47,3.65C486.58,378.95,487.97,380.6,490.05,380.6z M490.25,379.34c-1.41,0-2.23-1.09-2.23-2.41
	c0-1.3,0.81-2.41,2.23-2.41c1.39,0,2.32,1.02,2.34,2.41C492.57,378.32,491.64,379.34,490.25,379.34z M499.58,380.6
	c0.88,0,1.82-0.21,2.63-0.87c0.32-0.27,0.32-0.56,0.1-0.8l-0.1-0.11c-0.22-0.22-0.45-0.24-0.71-0.07c-0.6,0.41-1.22,0.59-1.9,0.59
	c-1.53,0-2.6-0.95-2.56-2.25h5.43c0.34,0,0.53-0.18,0.49-0.52c-0.2-2.24-1.81-3.29-3.57-3.29c-2.18,0-3.78,1.64-3.78,3.68
	C495.6,378.97,497.12,380.6,499.58,380.6z M497.16,376.03c0.43-1.19,1.44-1.51,2.25-1.51c0.77,0,1.75,0.27,2.11,1.51H497.16z
	 M504.99,380.45h0.42c0.32,0,0.5-0.18,0.5-0.5v-2.17c0-2.87,1.26-3.12,1.76-3.12c0.13,0,0.25,0.01,0.38,0.04
	c0.24,0.06,0.38-0.08,0.38-0.43v-0.41c0-0.28-0.04-0.52-0.34-0.56l-0.31-0.01c-0.84,0-1.64,0.6-1.88,1.72v-1.06
	c0-0.32-0.18-0.5-0.5-0.5h-0.42c-0.32,0-0.52,0.18-0.52,0.5v6.01C504.48,380.27,504.67,380.45,504.99,380.45z M509.74,380.6
	c0.59,0,1.06-0.46,1.06-1.04c0-0.59-0.48-1.06-1.06-1.06c-0.59,0-1.05,0.48-1.05,1.06C508.69,380.14,509.16,380.6,509.74,380.6z
	 M70.81,400.45h0.46c0.29,0,0.48-0.13,0.59-0.41l0.6-1.6h4.68l0.6,1.6c0.11,0.28,0.31,0.41,0.6,0.41h0.45
	c0.38,0,0.52-0.24,0.39-0.59l-3.4-8.81c-0.1-0.27-0.29-0.41-0.59-0.41h-0.81c-0.28,0-0.49,0.14-0.59,0.41l-3.37,8.81
	C70.28,400.21,70.43,400.45,70.81,400.45z M72.88,397.24l1.9-5.15l1.93,5.15H72.88z M82.84,400.6c1.34,0,2.1-0.77,2.1-1.82
	c0-0.01,0-0.28-0.06-0.52c-0.03-0.18-0.15-0.25-0.32-0.25h-0.64c-0.2,0-0.28,0.13-0.25,0.32c0.03,0.11,0.03,0.21,0.03,0.27
	c0,0.5-0.39,0.76-0.83,0.76c-0.45,0-0.81-0.29-0.81-1.05v-3.75h1.92c0.18,0,0.28-0.11,0.28-0.29v-0.55c0-0.18-0.1-0.28-0.28-0.28
	h-1.92v-1.58c0-0.27-0.15-0.43-0.42-0.43h-0.29c-0.25,0-0.41,0.14-0.45,0.41l-0.25,1.61h-0.88c-0.18,0-0.28,0.1-0.28,0.28v0.55
	c0,0.18,0.1,0.29,0.28,0.29h0.85v3.67C80.61,400.03,81.72,400.6,82.84,400.6z M88.75,400.6c1.34,0,2.1-0.77,2.1-1.82
	c0-0.01,0-0.28-0.06-0.52c-0.03-0.18-0.15-0.25-0.32-0.25h-0.64c-0.2,0-0.28,0.13-0.25,0.32c0.03,0.11,0.03,0.21,0.03,0.27
	c0,0.5-0.39,0.76-0.83,0.76c-0.45,0-0.81-0.29-0.81-1.05v-3.75h1.92c0.18,0,0.28-0.11,0.28-0.29v-0.55c0-0.18-0.1-0.28-0.28-0.28
	h-1.92v-1.58c0-0.27-0.15-0.43-0.42-0.43h-0.29c-0.25,0-0.41,0.14-0.45,0.41l-0.25,1.61h-0.88c-0.18,0-0.28,0.1-0.28,0.28v0.55
	c0,0.18,0.1,0.29,0.28,0.29h0.85v3.67C86.52,400.03,87.63,400.6,88.75,400.6z M95.55,400.6c0.88,0,1.82-0.21,2.63-0.87
	c0.32-0.27,0.32-0.56,0.1-0.8l-0.1-0.11c-0.22-0.22-0.45-0.24-0.71-0.07c-0.6,0.41-1.22,0.59-1.9,0.59c-1.53,0-2.6-0.95-2.56-2.25
	h5.43c0.34,0,0.53-0.18,0.49-0.52c-0.2-2.24-1.81-3.29-3.57-3.29c-2.18,0-3.78,1.64-3.78,3.68C91.57,398.97,93.08,400.6,95.55,400.6
	z M93.13,396.03c0.43-1.19,1.44-1.51,2.25-1.51c0.77,0,1.75,0.27,2.11,1.51H93.13z M100.96,400.45h0.42c0.32,0,0.5-0.18,0.5-0.5
	v-2.79c0-2.13,1.46-2.62,2.18-2.62c0.74,0,1.4,0.52,1.4,1.96v3.44c0,0.32,0.18,0.5,0.5,0.5h0.42c0.32,0,0.52-0.18,0.52-0.5v-3.46
	c0-2.2-1.13-3.21-2.69-3.21c-1.13,0-2.03,0.55-2.34,1.53v-0.87c0-0.32-0.18-0.5-0.5-0.5h-0.42c-0.32,0-0.52,0.18-0.52,0.5v6.01
	C100.44,400.27,100.64,400.45,100.96,400.45z M111.41,400.6c1.34,0,2.1-0.77,2.1-1.82c0-0.01,0-0.28-0.06-0.52
	c-0.03-0.18-0.15-0.25-0.32-0.25h-0.64c-0.2,0-0.28,0.13-0.25,0.32c0.03,0.11,0.03,0.21,0.03,0.27c0,0.5-0.39,0.76-0.83,0.76
	c-0.45,0-0.81-0.29-0.81-1.05v-3.75h1.92c0.18,0,0.28-0.11,0.28-0.29v-0.55c0-0.18-0.1-0.28-0.28-0.28h-1.92v-1.58
	c0-0.27-0.15-0.43-0.42-0.43h-0.29c-0.25,0-0.41,0.14-0.45,0.41l-0.25,1.61h-0.88c-0.18,0-0.28,0.1-0.28,0.28v0.55
	c0,0.18,0.1,0.29,0.28,0.29h0.85v3.67C109.19,400.03,110.29,400.6,111.41,400.6z M115.51,392.16c0.56,0,0.99-0.42,0.99-0.95
	c0-0.55-0.42-0.98-0.99-0.98c-0.56,0-0.97,0.43-0.97,0.98C114.55,391.74,114.95,392.16,115.51,392.16z M115.32,400.45h0.42
	c0.32,0,0.5-0.18,0.5-0.5v-6.01c0-0.32-0.18-0.5-0.5-0.5h-0.42c-0.32,0-0.52,0.18-0.52,0.5v6.01
	C114.8,400.27,115,400.45,115.32,400.45z M121.57,400.6c2.06,0,3.72-1.64,3.72-3.67c0-2-1.67-3.65-3.72-3.65
	c-2.04,0-3.7,1.64-3.7,3.65C117.88,398.98,119.53,400.6,121.57,400.6z M121.57,399.34c-1.25,0-2.27-1.06-2.27-2.39
	s1.02-2.41,2.27-2.41c1.27,0,2.28,1.08,2.28,2.41S122.85,399.34,121.57,399.34z M127.4,400.45h0.42c0.32,0,0.5-0.18,0.5-0.5v-2.79
	c0-2.13,1.46-2.62,2.18-2.62c0.74,0,1.4,0.52,1.4,1.96v3.44c0,0.32,0.18,0.5,0.5,0.5h0.42c0.32,0,0.52-0.18,0.52-0.5v-3.46
	c0-2.2-1.13-3.21-2.69-3.21c-1.13,0-2.03,0.55-2.34,1.53v-0.87c0-0.32-0.18-0.5-0.5-0.5h-0.42c-0.32,0-0.52,0.18-0.52,0.5v6.01
	C126.89,400.27,127.08,400.45,127.4,400.45z M135.54,402.23c1.02-0.41,1.57-1.4,1.57-2.51c0-0.39-0.18-1.18-0.99-1.18
	c-0.69,0-1.02,0.43-1.01,0.94c0.01,0.41,0.31,0.83,0.84,0.78c0.07-0.01,0.15-0.03,0.24-0.06c0,0.49-0.25,1.15-0.9,1.48
	c-0.15,0.06-0.18,0.17-0.11,0.29l0.07,0.14C135.31,402.26,135.42,402.3,135.54,402.23z M145.2,400.6c1.34,0,2.1-0.77,2.1-1.82
	c0-0.01,0-0.28-0.06-0.52c-0.03-0.18-0.15-0.25-0.32-0.25h-0.64c-0.2,0-0.28,0.13-0.25,0.32c0.03,0.11,0.03,0.21,0.03,0.27
	c0,0.5-0.39,0.76-0.83,0.76c-0.45,0-0.81-0.29-0.81-1.05v-3.75h1.92c0.18,0,0.28-0.11,0.28-0.29v-0.55c0-0.18-0.1-0.28-0.28-0.28
	h-1.92v-1.58c0-0.27-0.15-0.43-0.42-0.43h-0.29c-0.25,0-0.41,0.14-0.45,0.41l-0.25,1.61h-0.88c-0.18,0-0.28,0.1-0.28,0.28v0.55
	c0,0.18,0.1,0.29,0.28,0.29h0.85v3.67C142.97,400.03,144.08,400.6,145.2,400.6z M149.06,400.45h0.42c0.32,0,0.5-0.18,0.5-0.5v-2.79
	c0-2.13,1.46-2.62,2.18-2.62c0.74,0,1.4,0.52,1.4,1.96v3.44c0,0.32,0.18,0.5,0.5,0.5h0.42c0.32,0,0.52-0.18,0.52-0.5v-3.46
	c0-2.2-1.13-3.21-2.69-3.21c-1.13,0-2.03,0.55-2.34,1.53v-3.98c0-0.32-0.18-0.5-0.5-0.5h-0.42c-0.32,0-0.52,0.18-0.52,0.5v9.11
	C148.54,400.27,148.74,400.45,149.06,400.45z M160.45,400.6c0.88,0,1.82-0.21,2.63-0.87c0.32-0.27,0.32-0.56,0.1-0.8l-0.1-0.11
	c-0.22-0.22-0.45-0.24-0.71-0.07c-0.6,0.41-1.22,0.59-1.9,0.59c-1.53,0-2.6-0.95-2.56-2.25h5.43c0.34,0,0.53-0.18,0.49-0.52
	c-0.2-2.24-1.81-3.29-3.57-3.29c-2.18,0-3.78,1.64-3.78,3.68C156.47,398.97,157.99,400.6,160.45,400.6z M158.03,396.03
	c0.43-1.19,1.44-1.51,2.25-1.51c0.77,0,1.75,0.27,2.11,1.51H158.03z M165.86,400.45h0.42c0.32,0,0.5-0.18,0.5-0.5v-2.17
	c0-2.87,1.26-3.12,1.76-3.12c0.13,0,0.25,0.01,0.38,0.04c0.24,0.06,0.38-0.08,0.38-0.43v-0.41c0-0.28-0.04-0.52-0.34-0.56
	l-0.31-0.01c-0.84,0-1.64,0.6-1.88,1.72v-1.06c0-0.32-0.18-0.5-0.5-0.5h-0.42c-0.32,0-0.52,0.18-0.52,0.5v6.01
	C165.34,400.27,165.54,400.45,165.86,400.45z M173.85,400.6c0.88,0,1.82-0.21,2.63-0.87c0.32-0.27,0.32-0.56,0.1-0.8l-0.1-0.11
	c-0.22-0.22-0.45-0.24-0.71-0.07c-0.6,0.41-1.22,0.59-1.9,0.59c-1.53,0-2.6-0.95-2.56-2.25h5.43c0.34,0,0.53-0.18,0.49-0.52
	c-0.2-2.24-1.81-3.29-3.57-3.29c-2.18,0-3.78,1.64-3.78,3.68C169.87,398.97,171.38,400.6,173.85,400.6z M171.43,396.03
	c0.43-1.19,1.44-1.51,2.25-1.51c0.77,0,1.75,0.27,2.11,1.51H171.43z M185.38,400.6c0.94,0,1.85-0.32,2.51-1.26v0.6
	c0,0.32,0.2,0.5,0.52,0.5h0.42c0.32,0,0.5-0.18,0.5-0.5v-6.01c0-0.32-0.18-0.5-0.5-0.5h-0.42c-0.32,0-0.52,0.18-0.52,0.5v0.6
	c-0.66-0.94-1.57-1.26-2.51-1.26c-2.09,0-3.47,1.64-3.47,3.65C181.9,398.95,183.29,400.6,185.38,400.6z M185.57,399.34
	c-1.41,0-2.23-1.09-2.23-2.41c0-1.3,0.81-2.41,2.23-2.41c1.39,0,2.32,1.02,2.34,2.41C187.9,398.32,186.96,399.34,185.57,399.34z
	 M191.95,400.45h0.42c0.32,0,0.5-0.18,0.5-0.5v-2.17c0-2.87,1.26-3.12,1.76-3.12c0.13,0,0.25,0.01,0.38,0.04
	c0.24,0.06,0.38-0.08,0.38-0.43v-0.41c0-0.28-0.04-0.52-0.34-0.56l-0.31-0.01c-0.84,0-1.64,0.6-1.88,1.72v-1.06
	c0-0.32-0.18-0.5-0.5-0.5h-0.42c-0.32,0-0.52,0.18-0.52,0.5v6.01C191.43,400.27,191.63,400.45,191.95,400.45z M199.93,400.6
	c0.88,0,1.82-0.21,2.63-0.87c0.32-0.27,0.32-0.56,0.1-0.8l-0.1-0.11c-0.22-0.22-0.45-0.24-0.71-0.07c-0.6,0.41-1.22,0.59-1.9,0.59
	c-1.53,0-2.6-0.95-2.56-2.25h5.43c0.34,0,0.53-0.18,0.49-0.52c-0.2-2.24-1.81-3.29-3.57-3.29c-2.18,0-3.78,1.64-3.78,3.68
	C195.96,398.97,197.47,400.6,199.93,400.6z M197.51,396.03c0.43-1.19,1.44-1.51,2.25-1.51c0.77,0,1.75,0.27,2.11,1.51H197.51z
	 M208.79,400.45h6.09c0.32,0,0.5-0.18,0.5-0.5v-0.2c0-0.32-0.18-0.52-0.5-0.52h-2.3c-0.15,0-1.71,0.03-2.18,0.07v-0.06l2.8-2.49
	c0.92-0.81,1.79-1.74,1.79-3.22c0-1.86-1.34-3.04-3.43-3.04c-2.28,0-3.18,1.27-3.39,2.34c-0.07,0.34,0.15,0.52,0.48,0.52h0.45
	c0.31,0,0.46-0.15,0.55-0.46c0.17-0.56,0.67-1.13,1.92-1.13c1.19,0,2,0.67,2,1.79c0,0.92-0.63,1.65-1.39,2.31l-3.74,3.37
	c-0.2,0.2-0.28,0.41-0.22,0.67l0.03,0.1C208.3,400.3,208.48,400.45,208.79,400.45z M221.22,403.59h0.42c0.32,0,0.5-0.18,0.5-0.5
	v-3.74c0.66,0.94,1.58,1.26,2.52,1.26c2.09,0,3.47-1.65,3.47-3.67c0-2.02-1.39-3.65-3.47-3.65c-0.94,0-1.86,0.32-2.52,1.26v-0.6
	c0-0.32-0.18-0.5-0.5-0.5h-0.42c-0.32,0-0.52,0.18-0.52,0.5v9.14C220.7,403.4,220.9,403.59,221.22,403.59z M224.45,399.34
	c-1.37,0-2.32-1.02-2.34-2.41c0.01-1.39,0.97-2.41,2.34-2.41c1.43,0,2.24,1.11,2.24,2.41C226.69,398.25,225.88,399.34,224.45,399.34
	z M232.69,400.6c0.94,0,1.85-0.32,2.51-1.26v0.6c0,0.32,0.2,0.5,0.52,0.5h0.42c0.32,0,0.5-0.18,0.5-0.5v-6.01
	c0-0.32-0.18-0.5-0.5-0.5h-0.42c-0.32,0-0.52,0.18-0.52,0.5v0.6c-0.66-0.94-1.57-1.26-2.51-1.26c-2.09,0-3.47,1.64-3.47,3.65
	C229.22,398.95,230.61,400.6,232.69,400.6z M232.89,399.34c-1.41,0-2.23-1.09-2.23-2.41c0-1.3,0.81-2.41,2.23-2.41
	c1.39,0,2.32,1.02,2.34,2.41C235.21,398.32,234.28,399.34,232.89,399.34z M239.27,400.45h0.42c0.32,0,0.5-0.18,0.5-0.5v-2.17
	c0-2.87,1.26-3.12,1.76-3.12c0.13,0,0.25,0.01,0.38,0.04c0.24,0.06,0.38-0.08,0.38-0.43v-0.41c0-0.28-0.04-0.52-0.34-0.56
	l-0.31-0.01c-0.84,0-1.64,0.6-1.88,1.72v-1.06c0-0.32-0.18-0.5-0.5-0.5h-0.42c-0.32,0-0.52,0.18-0.52,0.5v6.01
	C238.75,400.27,238.95,400.45,239.27,400.45z M246.51,400.6c1.34,0,2.1-0.77,2.1-1.82c0-0.01,0-0.28-0.06-0.52
	c-0.03-0.18-0.15-0.25-0.32-0.25h-0.64c-0.2,0-0.28,0.13-0.25,0.32c0.03,0.11,0.03,0.21,0.03,0.27c0,0.5-0.39,0.76-0.83,0.76
	c-0.45,0-0.81-0.29-0.81-1.05v-3.75h1.92c0.18,0,0.28-0.11,0.28-0.29v-0.55c0-0.18-0.1-0.28-0.28-0.28h-1.92v-1.58
	c0-0.27-0.15-0.43-0.42-0.43h-0.29c-0.25,0-0.41,0.14-0.45,0.41l-0.25,1.61h-0.88c-0.18,0-0.28,0.1-0.28,0.28v0.55
	c0,0.18,0.1,0.29,0.28,0.29h0.85v3.67C244.28,400.03,245.39,400.6,246.51,400.6z M251.94,400.6c1.37,0,2.55-0.77,2.55-2.11
	c0-0.76-0.36-1.58-1.71-2l-1.01-0.34c-0.41-0.13-0.81-0.36-0.81-0.81c0-0.49,0.39-0.87,1.01-0.87c0.31,0,0.62,0.08,0.85,0.36
	c0.2,0.25,0.36,0.38,0.66,0.29l0.27-0.06c0.34-0.07,0.5-0.32,0.32-0.64c-0.46-0.85-1.29-1.15-2.14-1.15c-1.4,0-2.35,0.9-2.35,2.1
	c0,0.99,0.67,1.6,1.75,1.92l0.94,0.32c0.49,0.17,0.87,0.41,0.87,0.85c0,0.53-0.5,0.92-1.18,0.92c-0.55,0-1.02-0.22-1.3-0.57
	c-0.18-0.24-0.35-0.36-0.63-0.29l-0.29,0.08c-0.34,0.08-0.5,0.31-0.34,0.63C249.86,400.14,250.86,400.6,251.94,400.6z M257,395.38
	c0.59,0,1.06-0.46,1.06-1.05c0-0.59-0.48-1.05-1.06-1.05c-0.59,0-1.05,0.46-1.05,1.05C255.95,394.92,256.41,395.38,257,395.38z
	 M257,400.6c0.59,0,1.06-0.46,1.06-1.04c0-0.59-0.48-1.06-1.06-1.06c-0.59,0-1.05,0.48-1.05,1.06
	C255.95,400.14,256.41,400.6,257,400.6z M264.5,400.45h0.48c0.32,0,0.5-0.18,0.5-0.5v-8.79c0-0.32-0.18-0.5-0.5-0.5h-0.48
	c-0.32,0-0.5,0.18-0.5,0.5v8.79C263.99,400.27,264.18,400.45,264.5,400.45z M268.32,400.45h0.42c0.32,0,0.5-0.18,0.5-0.5v-2.79
	c0-2.13,1.46-2.62,2.18-2.62c0.74,0,1.4,0.52,1.4,1.96v3.44c0,0.32,0.18,0.5,0.5,0.5h0.42c0.32,0,0.52-0.18,0.52-0.5v-3.46
	c0-2.2-1.13-3.21-2.69-3.21c-1.13,0-2.03,0.55-2.34,1.53v-0.87c0-0.32-0.18-0.5-0.5-0.5h-0.42c-0.32,0-0.52,0.18-0.52,0.5v6.01
	C267.8,400.27,268,400.45,268.32,400.45z M279.72,400.6c0.5,0,1.19-0.08,1.89-0.46c0.45-0.22,0.55-0.56,0.35-0.83l-0.1-0.14
	c-0.18-0.27-0.41-0.29-0.71-0.14c-0.6,0.29-1.2,0.31-1.36,0.31c-1.48,0-2.58-0.99-2.58-2.41s1.09-2.39,2.58-2.39
	c0.15,0,0.76,0.01,1.36,0.31c0.31,0.14,0.52,0.13,0.71-0.14l0.11-0.14c0.2-0.27,0.15-0.55-0.14-0.71c-0.8-0.46-1.55-0.57-2.11-0.57
	c-2.53,0-3.95,1.68-3.95,3.74C275.77,399.02,277.24,400.6,279.72,400.6z M286.73,400.6c2.06,0,3.72-1.64,3.72-3.67
	c0-2-1.67-3.65-3.72-3.65c-2.04,0-3.7,1.64-3.7,3.65C283.03,398.98,284.69,400.6,286.73,400.6z M286.73,399.34
	c-1.25,0-2.27-1.06-2.27-2.39s1.02-2.41,2.27-2.41c1.27,0,2.28,1.08,2.28,2.41S288,399.34,286.73,399.34z M292.56,400.45h0.42
	c0.32,0,0.5-0.18,0.5-0.5v-2.79c0-2.13,1.2-2.62,1.92-2.62c0.74,0,1.39,0.52,1.39,1.95v3.46c0,0.32,0.2,0.5,0.52,0.5h0.42
	c0.32,0,0.5-0.18,0.5-0.5v-2.94c0.07-2.06,1.27-2.46,1.92-2.46c0.74,0,1.39,0.52,1.39,1.95v3.46c0,0.32,0.2,0.5,0.52,0.5h0.42
	c0.32,0,0.5-0.18,0.5-0.5v-3.46c0-2.2-1.02-3.21-2.69-3.21c-0.84,0-1.79,0.24-2.38,1.44c-0.53-1.22-1.53-1.44-2.21-1.44
	c-1.02,0-1.92,0.52-2.21,1.53v-0.87c0-0.32-0.18-0.5-0.5-0.5h-0.42c-0.32,0-0.52,0.18-0.52,0.5v6.01
	C292.04,400.27,292.24,400.45,292.56,400.45z M305.75,392.16c0.56,0,0.99-0.42,0.99-0.95c0-0.55-0.42-0.98-0.99-0.98
	c-0.56,0-0.97,0.43-0.97,0.98C304.78,391.74,305.19,392.16,305.75,392.16z M305.55,400.45h0.42c0.32,0,0.5-0.18,0.5-0.5v-6.01
	c0-0.32-0.18-0.5-0.5-0.5h-0.42c-0.32,0-0.52,0.18-0.52,0.5v6.01C305.03,400.27,305.23,400.45,305.55,400.45z M309.14,400.45h0.42
	c0.32,0,0.5-0.18,0.5-0.5v-2.79c0-2.13,1.46-2.62,2.18-2.62c0.74,0,1.4,0.52,1.4,1.96v3.44c0,0.32,0.18,0.5,0.5,0.5h0.42
	c0.32,0,0.52-0.18,0.52-0.5v-3.46c0-2.2-1.13-3.21-2.69-3.21c-1.14,0-2.03,0.55-2.34,1.53v-0.87c0-0.32-0.18-0.5-0.5-0.5h-0.42
	c-0.32,0-0.52,0.18-0.52,0.5v6.01C308.63,400.27,308.82,400.45,309.14,400.45z M320.32,403.74c1.95,0,3.7-1.02,3.7-3.4v-6.4
	c0-0.32-0.2-0.5-0.52-0.5h-0.41c-0.32,0-0.52,0.18-0.52,0.49v0.62c-0.66-0.94-1.57-1.26-2.51-1.26c-2.1,0-3.47,1.65-3.47,3.65
	c0,2.02,1.37,3.67,3.47,3.67c0.94,0,1.85-0.32,2.51-1.26v0.9c0,1.48-0.92,2.25-2.27,2.25c-0.71,0-1.4-0.17-2-0.55
	c-0.29-0.18-0.53-0.15-0.69,0.17l-0.11,0.2c-0.14,0.28-0.1,0.53,0.15,0.7C318.31,403.43,319.1,403.74,320.32,403.74z M320.27,399.34
	c-1.41,0-2.23-1.09-2.23-2.41c0-1.3,0.81-2.41,2.23-2.41c1.39,0,2.32,1.02,2.34,2.41C322.59,398.32,321.65,399.34,320.27,399.34z
	 M332.74,400.6c0.94,0,1.85-0.32,2.51-1.26v0.6c0,0.32,0.2,0.5,0.52,0.5h0.42c0.32,0,0.5-0.18,0.5-0.5v-6.01
	c0-0.32-0.18-0.5-0.5-0.5h-0.42c-0.32,0-0.52,0.18-0.52,0.5v0.6c-0.66-0.94-1.57-1.26-2.51-1.26c-2.09,0-3.47,1.64-3.47,3.65
	C329.27,398.95,330.66,400.6,332.74,400.6z M332.94,399.34c-1.41,0-2.23-1.09-2.23-2.41c0-1.3,0.81-2.41,2.23-2.41
	c1.39,0,2.32,1.02,2.34,2.41C335.26,398.32,334.33,399.34,332.94,399.34z M339.32,400.45h0.42c0.32,0,0.5-0.18,0.5-0.5v-2.79
	c0-2.13,1.46-2.62,2.18-2.62c0.74,0,1.4,0.52,1.4,1.96v3.44c0,0.32,0.18,0.5,0.5,0.5h0.42c0.32,0,0.52-0.18,0.52-0.5v-3.46
	c0-2.2-1.13-3.21-2.69-3.21c-1.13,0-2.03,0.55-2.34,1.53v-0.87c0-0.32-0.18-0.5-0.5-0.5h-0.42c-0.32,0-0.52,0.18-0.52,0.5v6.01
	C338.8,400.27,339,400.45,339.32,400.45z M350.26,400.6c0.94,0,1.85-0.32,2.51-1.26v0.6c0,0.32,0.2,0.5,0.52,0.5h0.42
	c0.32,0,0.5-0.18,0.5-0.5v-9.11c0-0.32-0.18-0.5-0.5-0.5h-0.42c-0.32,0-0.52,0.18-0.52,0.5v3.71c-0.66-0.94-1.57-1.26-2.51-1.26
	c-2.09,0-3.47,1.64-3.47,3.65C346.79,398.95,348.17,400.6,350.26,400.6z M350.45,399.34c-1.41,0-2.23-1.09-2.23-2.41
	c0-1.3,0.81-2.41,2.23-2.41c1.39,0,2.32,1.02,2.34,2.41C352.78,398.32,351.84,399.34,350.45,399.34z M364.67,400.6
	c2.83,0,5.1-2.27,5.1-5.05c0-2.79-2.27-5.05-5.1-5.05s-5.1,2.27-5.1,5.05C359.57,398.34,361.84,400.6,364.67,400.6z M364.67,399.27
	c-1.97,0-3.58-1.61-3.58-3.72c0-2.11,1.61-3.72,3.58-3.72s3.58,1.61,3.58,3.72C368.25,397.66,366.64,399.27,364.67,399.27z
	 M374.01,400.6c1.13,0,2.03-0.55,2.34-1.53v0.87c0,0.32,0.18,0.5,0.5,0.5h0.42c0.32,0,0.52-0.18,0.52-0.5v-6.01
	c0-0.32-0.2-0.5-0.52-0.5h-0.42c-0.32,0-0.5,0.18-0.5,0.5v2.79c0,2.11-1.46,2.62-2.18,2.62c-0.74,0-1.39-0.53-1.39-1.96v-3.44
	c0-0.32-0.2-0.5-0.52-0.5h-0.42c-0.32,0-0.5,0.18-0.5,0.5v3.46C371.34,399.6,372.46,400.6,374.01,400.6z M382.46,400.6
	c1.34,0,2.1-0.77,2.1-1.82c0-0.01,0-0.28-0.06-0.52c-0.03-0.18-0.15-0.25-0.32-0.25h-0.64c-0.2,0-0.28,0.13-0.25,0.32
	c0.03,0.11,0.03,0.21,0.03,0.27c0,0.5-0.39,0.76-0.83,0.76c-0.45,0-0.81-0.29-0.81-1.05v-3.75h1.92c0.18,0,0.28-0.11,0.28-0.29
	v-0.55c0-0.18-0.1-0.28-0.28-0.28h-1.92v-1.58c0-0.27-0.15-0.43-0.42-0.43h-0.29c-0.25,0-0.41,0.14-0.45,0.41l-0.25,1.61h-0.88
	c-0.18,0-0.28,0.1-0.28,0.28v0.55c0,0.18,0.1,0.29,0.28,0.29h0.85v3.67C380.23,400.03,381.34,400.6,382.46,400.6z M389.02,403.74
	c1.95,0,3.7-1.02,3.7-3.4v-6.4c0-0.32-0.2-0.5-0.52-0.5h-0.41c-0.32,0-0.52,0.18-0.52,0.49v0.62c-0.66-0.94-1.57-1.26-2.51-1.26
	c-2.1,0-3.47,1.65-3.47,3.65c0,2.02,1.37,3.67,3.47,3.67c0.94,0,1.85-0.32,2.51-1.26v0.9c0,1.48-0.92,2.25-2.27,2.25
	c-0.71,0-1.4-0.17-2-0.55c-0.29-0.18-0.53-0.15-0.69,0.17l-0.11,0.2c-0.14,0.28-0.1,0.53,0.15,0.7
	C387.01,403.43,387.81,403.74,389.02,403.74z M388.97,399.34c-1.41,0-2.23-1.09-2.23-2.41c0-1.3,0.81-2.41,2.23-2.41
	c1.39,0,2.32,1.02,2.34,2.41C391.29,398.32,390.35,399.34,388.97,399.34z M397.99,400.6c2.06,0,3.72-1.64,3.72-3.67
	c0-2-1.67-3.65-3.72-3.65c-2.04,0-3.7,1.64-3.7,3.65C394.3,398.98,395.95,400.6,397.99,400.6z M397.99,399.34
	c-1.25,0-2.27-1.06-2.27-2.39s1.02-2.41,2.27-2.41c1.27,0,2.28,1.08,2.28,2.41S399.27,399.34,397.99,399.34z M404.06,392.16
	c0.56,0,0.99-0.42,0.99-0.95c0-0.55-0.42-0.98-0.99-0.98c-0.56,0-0.97,0.43-0.97,0.98C403.09,391.74,403.5,392.16,404.06,392.16z
	 M403.86,400.45h0.42c0.32,0,0.5-0.18,0.5-0.5v-6.01c0-0.32-0.18-0.5-0.5-0.5h-0.42c-0.32,0-0.52,0.18-0.52,0.5v6.01
	C403.35,400.27,403.54,400.45,403.86,400.45z M407.46,400.45h0.42c0.32,0,0.5-0.18,0.5-0.5v-2.79c0-2.13,1.46-2.62,2.18-2.62
	c0.74,0,1.4,0.52,1.4,1.96v3.44c0,0.32,0.18,0.5,0.5,0.5h0.42c0.32,0,0.52-0.18,0.52-0.5v-3.46c0-2.2-1.13-3.21-2.69-3.21
	c-1.13,0-2.03,0.55-2.34,1.53v-0.87c0-0.32-0.18-0.5-0.5-0.5h-0.42c-0.32,0-0.52,0.18-0.52,0.5v6.01
	C406.94,400.27,407.14,400.45,407.46,400.45z M418.64,403.74c1.95,0,3.7-1.02,3.7-3.4v-6.4c0-0.32-0.2-0.5-0.52-0.5h-0.41
	c-0.32,0-0.52,0.18-0.52,0.49v0.62c-0.66-0.94-1.57-1.26-2.51-1.26c-2.1,0-3.47,1.65-3.47,3.65c0,2.02,1.37,3.67,3.47,3.67
	c0.94,0,1.85-0.32,2.51-1.26v0.9c0,1.48-0.92,2.25-2.27,2.25c-0.71,0-1.4-0.17-2-0.55c-0.29-0.18-0.53-0.15-0.69,0.17l-0.11,0.2
	c-0.14,0.28-0.1,0.53,0.15,0.7C416.62,403.43,417.42,403.74,418.64,403.74z M418.58,399.34c-1.41,0-2.23-1.09-2.23-2.41
	c0-1.3,0.81-2.41,2.23-2.41c1.39,0,2.32,1.02,2.34,2.41C420.91,398.32,419.97,399.34,418.58,399.34z"/>
</svg>
