<?xml version="1.0" encoding="utf-8"?>
<!-- Generator: Adobe Illustrator 27.2.0, SVG Export Plug-In . SVG Version: 6.00 Build 0)  -->
<svg version="1.1" id="Calque_1" xmlns="http://www.w3.org/2000/svg" xmlns:xlink="http://www.w3.org/1999/xlink" x="0px" y="0px"
	 viewBox="0 0 360 445" style="enable-background:new 0 0 360 445;" xml:space="preserve">
<style type="text/css">
	.st0{fill:#FFFFFF;}
	.st1{fill-rule:evenodd;clip-rule:evenodd;fill:#3F3F46;}
	.st2{fill:#EED9D0;stroke:#FFFFFF;stroke-width:2;}
	.st3{fill:none;stroke:#3F3F46;}
</style>
<rect x="0.14" y="-0.18" class="st0" width="360" height="445"/>
<path class="st1" d="M338.43,13.12c0.19-0.19,0.44-0.29,0.71-0.29s0.52,0.11,0.71,0.29l4.29,4.29l4.29-4.29
	c0.09-0.1,0.2-0.17,0.33-0.22c0.12-0.05,0.25-0.08,0.39-0.08c0.13,0,0.26,0.02,0.39,0.07c0.12,0.05,0.24,0.12,0.33,0.22
	c0.09,0.09,0.17,0.21,0.22,0.33c0.05,0.12,0.08,0.25,0.07,0.39c0,0.13-0.03,0.26-0.08,0.39c-0.05,0.12-0.13,0.23-0.22,0.32
	l-4.29,4.29l4.29,4.29c0.18,0.19,0.28,0.44,0.28,0.7c0,0.26-0.11,0.51-0.29,0.7c-0.19,0.19-0.44,0.29-0.7,0.29
	c-0.26,0-0.51-0.1-0.7-0.28l-4.29-4.29l-4.29,4.29c-0.19,0.18-0.44,0.28-0.7,0.28c-0.26,0-0.51-0.11-0.7-0.29
	c-0.18-0.19-0.29-0.44-0.29-0.7c0-0.26,0.1-0.51,0.28-0.7l4.29-4.29l-4.29-4.29c-0.19-0.19-0.29-0.44-0.29-0.71
	C338.14,13.56,338.25,13.3,338.43,13.12z"/>
<path d="M43.33,49.11c0.53,0,0.86-0.31,0.86-0.86v-0.36c0-0.55-0.34-0.86-0.86-0.86h-9.02c-0.55,0-0.86,0.31-0.86,0.86v15.07
	c0,0.55,0.31,0.86,0.86,0.86h9.02c0.53,0,0.86-0.31,0.86-0.86V62.6c0-0.55-0.34-0.86-0.86-0.86h-7.34v-5.11h6.29
	c0.55,0,0.86-0.34,0.86-0.89v-0.31c0-0.55-0.31-0.86-0.86-0.86h-6.29v-5.45H43.33z M52.04,64.09c1.61,0,3.17-0.55,4.3-2.16v1.03
	c0,0.55,0.34,0.86,0.89,0.86h0.72c0.55,0,0.86-0.31,0.86-0.86v-10.3c0-0.55-0.31-0.86-0.86-0.86h-0.72c-0.55,0-0.89,0.31-0.89,0.86
	v1.03c-1.13-1.61-2.69-2.16-4.3-2.16c-3.58,0-5.95,2.81-5.95,6.26C46.09,61.26,48.47,64.09,52.04,64.09z M52.38,61.93
	c-2.42,0-3.82-1.87-3.82-4.13c0-2.23,1.39-4.13,3.82-4.13c2.38,0,3.98,1.75,4.01,4.13C56.36,60.18,54.75,61.93,52.38,61.93z
	 M66,64.09c2.35,0,4.37-1.32,4.37-3.62c0-1.3-0.62-2.71-2.93-3.43l-1.73-0.58c-0.7-0.22-1.39-0.62-1.39-1.39
	c0-0.84,0.67-1.49,1.73-1.49c0.53,0,1.06,0.14,1.46,0.62c0.34,0.43,0.62,0.65,1.13,0.5l0.46-0.1c0.58-0.12,0.86-0.55,0.55-1.1
	c-0.79-1.46-2.21-1.97-3.67-1.97c-2.4,0-4.03,1.54-4.03,3.6c0,1.7,1.15,2.74,3,3.29l1.61,0.55c0.84,0.29,1.49,0.7,1.49,1.46
	c0,0.91-0.86,1.58-2.02,1.58c-0.94,0-1.75-0.38-2.23-0.98c-0.31-0.41-0.6-0.62-1.08-0.5l-0.5,0.14c-0.58,0.14-0.86,0.53-0.58,1.08
	C62.45,63.3,64.15,64.09,66,64.09z M75.16,69.2h0.58c0.5,0,0.82-0.19,1.01-0.67l6.7-15.72c0.26-0.62-0.02-1.01-0.67-1.01h-0.98
	c-0.5,0-0.86,0.22-1.03,0.7l-3.07,8.11l-3.34-8.14c-0.17-0.46-0.48-0.67-0.98-0.67H72.4c-0.65,0-0.94,0.41-0.67,1.01l4.61,10.56
	l-1.85,4.82C74.25,68.79,74.51,69.2,75.16,69.2z M95.8,63.82h0.67c0.5,0,0.82-0.24,0.96-0.72l3.6-11.66l3.58,11.66
	c0.14,0.48,0.48,0.72,0.98,0.72h0.65c0.5,0,0.84-0.24,0.98-0.72l4.7-15.07c0.19-0.6-0.12-1.01-0.74-1.01h-0.74
	c-0.5,0-0.84,0.24-0.98,0.72l-3.7,11.81l-3.48-11.26c-0.14-0.48-0.48-0.72-0.98-0.72h-0.55c-0.5,0-0.82,0.24-0.96,0.72l-3.5,11.26
	L92.6,47.74c-0.17-0.48-0.48-0.72-0.98-0.72h-0.77c-0.62,0-0.91,0.41-0.74,1.01l4.73,15.07C94.98,63.58,95.29,63.82,95.8,63.82z
	 M114.69,63.82h0.72c0.55,0,0.86-0.31,0.86-0.86v-3.72c0-4.92,2.16-5.35,3.02-5.35c0.22,0,0.43,0.02,0.65,0.07
	c0.41,0.1,0.65-0.14,0.65-0.74v-0.7c0-0.48-0.07-0.89-0.58-0.96l-0.53-0.02c-1.44,0-2.81,1.03-3.22,2.95v-1.82
	c0-0.55-0.31-0.86-0.86-0.86h-0.72c-0.55,0-0.89,0.31-0.89,0.86v10.3C113.8,63.51,114.13,63.82,114.69,63.82z M123.98,49.62
	c0.96,0,1.7-0.72,1.7-1.63c0-0.94-0.72-1.68-1.7-1.68c-0.96,0-1.66,0.74-1.66,1.68C122.32,48.9,123.02,49.62,123.98,49.62z
	 M123.64,63.82h0.72c0.55,0,0.86-0.31,0.86-0.86v-10.3c0-0.55-0.31-0.86-0.86-0.86h-0.72c-0.55,0-0.89,0.31-0.89,0.86v10.3
	C122.75,63.51,123.09,63.82,123.64,63.82z M133.33,64.09c2.3,0,3.6-1.32,3.6-3.12c0-0.02,0-0.48-0.1-0.89
	c-0.05-0.31-0.26-0.43-0.55-0.43h-1.1c-0.34,0-0.48,0.22-0.43,0.55c0.05,0.19,0.05,0.36,0.05,0.46c0,0.86-0.67,1.3-1.42,1.3
	c-0.77,0-1.39-0.5-1.39-1.8v-6.43h3.29c0.31,0,0.48-0.19,0.48-0.5v-0.94c0-0.31-0.17-0.48-0.48-0.48h-3.29v-2.71
	c0-0.46-0.26-0.74-0.72-0.74h-0.5c-0.43,0-0.7,0.24-0.77,0.7l-0.43,2.76h-1.51c-0.31,0-0.48,0.17-0.48,0.48v0.94
	c0,0.31,0.17,0.5,0.48,0.5h1.46v6.29C129.52,63.1,131.41,64.09,133.33,64.09z M144.99,64.09c1.51,0,3.12-0.36,4.51-1.49
	c0.55-0.46,0.55-0.96,0.17-1.37l-0.17-0.19c-0.38-0.38-0.77-0.41-1.22-0.12c-1.03,0.7-2.09,1.01-3.26,1.01
	c-2.62,0-4.46-1.63-4.39-3.86h9.31c0.58,0,0.91-0.31,0.84-0.89c-0.34-3.84-3.1-5.64-6.12-5.64c-3.74,0-6.48,2.81-6.48,6.31
	C138.18,61.28,140.77,64.09,144.99,64.09z M140.84,56.24c0.74-2.04,2.47-2.59,3.86-2.59c1.32,0,3,0.46,3.62,2.59H140.84z
	 M154.27,63.82h0.72c0.55,0,0.86-0.31,0.86-0.86v-3.72c0-4.92,2.16-5.35,3.02-5.35c0.22,0,0.43,0.02,0.65,0.07
	c0.41,0.1,0.65-0.14,0.65-0.74v-0.7c0-0.48-0.07-0.89-0.58-0.96l-0.53-0.02c-1.44,0-2.81,1.03-3.22,2.95v-1.82
	c0-0.55-0.31-0.86-0.86-0.86h-0.72c-0.55,0-0.89,0.31-0.89,0.86v10.3C153.38,63.51,153.72,63.82,154.27,63.82z M165.84,64.09
	c2.35,0,4.37-1.32,4.37-3.62c0-1.3-0.62-2.71-2.93-3.43l-1.73-0.58c-0.7-0.22-1.39-0.62-1.39-1.39c0-0.84,0.67-1.49,1.73-1.49
	c0.53,0,1.06,0.14,1.46,0.62c0.34,0.43,0.62,0.65,1.13,0.5l0.46-0.1c0.58-0.12,0.86-0.55,0.55-1.1c-0.79-1.46-2.21-1.97-3.67-1.97
	c-2.4,0-4.03,1.54-4.03,3.6c0,1.7,1.15,2.74,3,3.29l1.61,0.55c0.84,0.29,1.49,0.7,1.49,1.46c0,0.91-0.86,1.58-2.02,1.58
	c-0.94,0-1.75-0.38-2.23-0.98c-0.31-0.41-0.6-0.62-1.08-0.5l-0.5,0.14c-0.58,0.14-0.86,0.53-0.58,1.08
	C162.29,63.3,164,64.09,165.84,64.09z"/>
<path d="M38.2,75.62h-3.95c-0.37,0-0.58,0.21-0.58,0.58v10.05c0,0.37,0.21,0.58,0.58,0.58h0.54c0.37,0,0.58-0.21,0.58-0.58v-3.62
	h2.83c2.16,0,3.41-1.57,3.41-3.46C41.61,77.27,40.38,75.62,38.2,75.62z M37.87,81.27h-2.5v-4.26h2.5c1.23,0,2,0.88,2,2.14
	C39.87,80.39,39.12,81.27,37.87,81.27z M46.3,87c1.3,0,2.32-0.62,2.67-1.74v0.99c0,0.37,0.21,0.58,0.58,0.58h0.48
	c0.37,0,0.59-0.21,0.59-0.58v-6.86c0-0.37-0.22-0.58-0.59-0.58h-0.48c-0.37,0-0.58,0.21-0.58,0.58v3.18c0,2.42-1.66,2.99-2.5,2.99
	c-0.85,0-1.58-0.61-1.58-2.24v-3.94c0-0.37-0.22-0.58-0.59-0.58h-0.48c-0.37,0-0.58,0.21-0.58,0.58v3.95
	C43.24,85.85,44.52,87,46.3,87z M57.54,87c2.38,0,3.97-1.89,3.97-4.19s-1.58-4.18-3.97-4.18c-1.07,0-2.13,0.37-2.88,1.44v-4.24
	c0-0.37-0.21-0.58-0.58-0.58H53.6c-0.37,0-0.59,0.21-0.59,0.58v10.42c0,0.37,0.22,0.58,0.59,0.58h0.48c0.37,0,0.58-0.21,0.58-0.58
	v-0.69C55.41,86.63,56.47,87,57.54,87z M57.3,85.56c-1.57,0-2.66-1.17-2.67-2.75c0.02-1.58,1.1-2.75,2.67-2.75
	c1.63,0,2.56,1.26,2.56,2.75C59.86,84.31,58.93,85.56,57.3,85.56z M63.99,86.82h0.48c0.37,0,0.58-0.21,0.58-0.58V75.83
	c0-0.37-0.21-0.58-0.58-0.58h-0.48c-0.37,0-0.59,0.21-0.59,0.58v10.42C63.4,86.62,63.63,86.82,63.99,86.82z M68.38,77.35
	c0.64,0,1.14-0.48,1.14-1.09c0-0.62-0.48-1.12-1.14-1.12c-0.64,0-1.1,0.5-1.1,1.12C67.27,76.87,67.74,77.35,68.38,77.35z
	 M68.15,86.82h0.48c0.37,0,0.58-0.21,0.58-0.58v-6.86c0-0.37-0.21-0.58-0.58-0.58h-0.48c-0.37,0-0.59,0.21-0.59,0.58v6.86
	C67.56,86.62,67.78,86.82,68.15,86.82z M75.6,87c0.58,0,1.36-0.1,2.16-0.53c0.51-0.26,0.62-0.64,0.4-0.94l-0.11-0.16
	c-0.21-0.3-0.46-0.34-0.82-0.16c-0.69,0.34-1.38,0.35-1.55,0.35c-1.7,0-2.94-1.14-2.94-2.75c0-1.62,1.25-2.74,2.94-2.74
	c0.18,0,0.86,0.02,1.55,0.35c0.35,0.16,0.59,0.14,0.82-0.16l0.13-0.16c0.22-0.3,0.18-0.62-0.16-0.82c-0.91-0.53-1.78-0.66-2.42-0.66
	c-2.9,0-4.51,1.92-4.51,4.27C71.09,85.19,72.77,87,75.6,87z"/>
<path d="M41.25,114.24c0.31,0,0.5-0.18,0.5-0.5v-0.21c0-0.32-0.2-0.5-0.5-0.5h-5.26c-0.32,0-0.5,0.18-0.5,0.5v8.79
	c0,0.32,0.18,0.5,0.5,0.5h5.26c0.31,0,0.5-0.18,0.5-0.5v-0.21c0-0.32-0.2-0.5-0.5-0.5h-4.28v-2.98h3.67c0.32,0,0.5-0.2,0.5-0.52
	v-0.18c0-0.32-0.18-0.5-0.5-0.5h-3.67v-3.18H41.25z M46.33,122.98c0.94,0,1.85-0.32,2.51-1.26v0.6c0,0.32,0.2,0.5,0.52,0.5h0.42
	c0.32,0,0.5-0.18,0.5-0.5v-6.01c0-0.32-0.18-0.5-0.5-0.5h-0.42c-0.32,0-0.52,0.18-0.52,0.5v0.6c-0.66-0.94-1.57-1.26-2.51-1.26
	c-2.09,0-3.47,1.64-3.47,3.65S44.25,122.98,46.33,122.98z M46.53,121.72c-1.41,0-2.23-1.09-2.23-2.41c0-1.3,0.81-2.41,2.23-2.41
	c1.39,0,2.32,1.02,2.34,2.41C48.85,120.7,47.92,121.72,46.53,121.72z M54.47,122.98c1.37,0,2.55-0.77,2.55-2.11
	c0-0.76-0.36-1.58-1.71-2l-1.01-0.34c-0.41-0.13-0.81-0.36-0.81-0.81c0-0.49,0.39-0.87,1.01-0.87c0.31,0,0.62,0.08,0.85,0.36
	c0.2,0.25,0.36,0.38,0.66,0.29l0.27-0.06c0.34-0.07,0.5-0.32,0.32-0.64c-0.46-0.85-1.29-1.15-2.14-1.15c-1.4,0-2.35,0.9-2.35,2.1
	c0,0.99,0.67,1.6,1.75,1.92L54.8,120c0.49,0.17,0.87,0.41,0.87,0.85c0,0.53-0.5,0.92-1.18,0.92c-0.55,0-1.02-0.22-1.3-0.57
	c-0.18-0.24-0.35-0.36-0.63-0.29l-0.29,0.08c-0.34,0.08-0.5,0.31-0.34,0.63C52.4,122.52,53.4,122.98,54.47,122.98z M59.82,125.96
	h0.34c0.29,0,0.48-0.11,0.59-0.39l3.91-9.17c0.15-0.36-0.01-0.59-0.39-0.59h-0.57c-0.29,0-0.5,0.13-0.6,0.41l-1.79,4.73l-1.95-4.75
	c-0.1-0.27-0.28-0.39-0.57-0.39h-0.56c-0.38,0-0.55,0.24-0.39,0.59l2.69,6.16l-1.08,2.81C59.29,125.72,59.44,125.96,59.82,125.96z
	 M76.23,122.98c0.5,0,0.99-0.13,1.41-0.41c0.27-0.17,0.28-0.42,0.15-0.7l-0.07-0.13c-0.15-0.29-0.36-0.32-0.67-0.18
	c-0.2,0.11-0.43,0.17-0.71,0.17c-1.06,0-1.72-1.6-1.82-2.66c1.46-0.28,2.3-1.5,2.3-2.95c0-1.67-1.09-3.09-2.98-3.09h-3.63
	c-0.32,0-0.5,0.18-0.5,0.5v8.79c0,0.32,0.18,0.5,0.5,0.5h0.48c0.32,0,0.5-0.18,0.5-0.5v-3.18h1.93
	C73.22,120.32,73.92,122.98,76.23,122.98z M71.19,117.97v-3.72h2.35c1.06,0,1.74,0.77,1.74,1.88c0,1.08-0.66,1.85-1.74,1.85H71.19z
	 M79.79,114.54c0.56,0,0.99-0.42,0.99-0.95c0-0.55-0.42-0.98-0.99-0.98c-0.56,0-0.97,0.43-0.97,0.98
	C78.83,114.12,79.23,114.54,79.79,114.54z M79.6,122.82h0.42c0.32,0,0.5-0.18,0.5-0.5v-6.01c0-0.32-0.18-0.5-0.5-0.5H79.6
	c-0.32,0-0.52,0.18-0.52,0.5v6.01C79.08,122.64,79.27,122.82,79.6,122.82z M85.65,122.98c0.94,0,1.85-0.32,2.51-1.26v0.6
	c0,0.32,0.2,0.5,0.52,0.5h0.42c0.32,0,0.5-0.18,0.5-0.5v-9.11c0-0.32-0.18-0.5-0.5-0.5h-0.42c-0.32,0-0.52,0.18-0.52,0.5v3.71
	c-0.66-0.94-1.57-1.26-2.51-1.26c-2.09,0-3.47,1.64-3.47,3.65S83.57,122.98,85.65,122.98z M85.85,121.72
	c-1.41,0-2.23-1.09-2.23-2.41c0-1.3,0.81-2.41,2.23-2.41c1.39,0,2.32,1.02,2.34,2.41C88.17,120.7,87.24,121.72,85.85,121.72z
	 M95.18,122.98c0.88,0,1.82-0.21,2.63-0.87c0.32-0.27,0.32-0.56,0.1-0.8l-0.1-0.11c-0.22-0.22-0.45-0.24-0.71-0.07
	c-0.6,0.41-1.22,0.59-1.9,0.59c-1.53,0-2.6-0.95-2.56-2.25h5.43c0.34,0,0.53-0.18,0.49-0.52c-0.2-2.24-1.81-3.29-3.57-3.29
	c-2.18,0-3.78,1.64-3.78,3.68C91.2,121.34,92.72,122.98,95.18,122.98z M92.76,118.4c0.43-1.19,1.44-1.51,2.25-1.51
	c0.77,0,1.75,0.27,2.11,1.51H92.76z M100.59,122.82h0.42c0.32,0,0.5-0.18,0.5-0.5v-2.17c0-2.87,1.26-3.12,1.76-3.12
	c0.13,0,0.25,0.01,0.38,0.04c0.24,0.06,0.38-0.08,0.38-0.43v-0.41c0-0.28-0.04-0.52-0.34-0.56l-0.31-0.01
	c-0.84,0-1.64,0.6-1.88,1.72v-1.06c0-0.32-0.18-0.5-0.5-0.5h-0.42c-0.32,0-0.52,0.18-0.52,0.5v6.01
	C100.08,122.64,100.27,122.82,100.59,122.82z M107.34,122.98c1.37,0,2.55-0.77,2.55-2.11c0-0.76-0.36-1.58-1.71-2l-1.01-0.34
	c-0.41-0.13-0.81-0.36-0.81-0.81c0-0.49,0.39-0.87,1.01-0.87c0.31,0,0.62,0.08,0.85,0.36c0.2,0.25,0.36,0.38,0.66,0.29l0.27-0.06
	c0.34-0.07,0.5-0.32,0.32-0.64c-0.46-0.85-1.29-1.15-2.14-1.15c-1.4,0-2.35,0.9-2.35,2.1c0,0.99,0.67,1.6,1.75,1.92l0.94,0.32
	c0.49,0.17,0.87,0.41,0.87,0.85c0,0.53-0.5,0.92-1.18,0.92c-0.55,0-1.02-0.22-1.3-0.57c-0.18-0.24-0.35-0.36-0.63-0.29l-0.29,0.08
	c-0.34,0.08-0.5,0.31-0.34,0.63C105.27,122.52,106.27,122.98,107.34,122.98z M115.9,114.54c0.56,0,0.99-0.42,0.99-0.95
	c0-0.55-0.42-0.98-0.99-0.98c-0.56,0-0.97,0.43-0.97,0.98C114.93,114.12,115.34,114.54,115.9,114.54z M115.7,122.82h0.42
	c0.32,0,0.5-0.18,0.5-0.5v-6.01c0-0.32-0.18-0.5-0.5-0.5h-0.42c-0.32,0-0.52,0.18-0.52,0.5v6.01
	C115.18,122.64,115.38,122.82,115.7,122.82z M120.87,122.98c1.37,0,2.55-0.77,2.55-2.11c0-0.76-0.36-1.58-1.71-2l-1.01-0.34
	c-0.41-0.13-0.81-0.36-0.81-0.81c0-0.49,0.39-0.87,1.01-0.87c0.31,0,0.62,0.08,0.85,0.36c0.2,0.25,0.36,0.38,0.66,0.29l0.27-0.06
	c0.34-0.07,0.5-0.32,0.32-0.64c-0.46-0.85-1.29-1.15-2.14-1.15c-1.4,0-2.35,0.9-2.35,2.1c0,0.99,0.67,1.6,1.75,1.92l0.94,0.32
	c0.49,0.17,0.87,0.41,0.87,0.85c0,0.53-0.5,0.92-1.18,0.92c-0.55,0-1.02-0.22-1.3-0.57c-0.18-0.24-0.35-0.36-0.63-0.29l-0.29,0.08
	c-0.34,0.08-0.5,0.31-0.34,0.63C118.79,122.52,119.79,122.98,120.87,122.98z M131.63,122.98c0.94,0,1.85-0.32,2.51-1.26v0.6
	c0,0.32,0.2,0.5,0.52,0.5h0.42c0.32,0,0.5-0.18,0.5-0.5v-6.01c0-0.32-0.18-0.5-0.5-0.5h-0.42c-0.32,0-0.52,0.18-0.52,0.5v0.6
	c-0.66-0.94-1.57-1.26-2.51-1.26c-2.09,0-3.47,1.64-3.47,3.65S129.55,122.98,131.63,122.98z M131.83,121.72
	c-1.41,0-2.23-1.09-2.23-2.41c0-1.3,0.81-2.41,2.23-2.41c1.39,0,2.32,1.02,2.34,2.41C134.15,120.7,133.21,121.72,131.83,121.72z
	 M144.57,126.11c1.95,0,3.7-1.02,3.7-3.4v-6.4c0-0.32-0.2-0.5-0.52-0.5h-0.41c-0.32,0-0.52,0.18-0.52,0.49v0.62
	c-0.66-0.94-1.57-1.26-2.51-1.26c-2.1,0-3.47,1.65-3.47,3.65c0,2.02,1.37,3.67,3.47,3.67c0.94,0,1.85-0.32,2.51-1.26v0.9
	c0,1.48-0.92,2.25-2.27,2.25c-0.71,0-1.4-0.17-2-0.55c-0.29-0.18-0.53-0.15-0.69,0.17l-0.11,0.2c-0.14,0.28-0.1,0.53,0.15,0.7
	C142.56,125.81,143.35,126.11,144.57,126.11z M144.52,121.72c-1.41,0-2.23-1.09-2.23-2.41c0-1.3,0.81-2.41,2.23-2.41
	c1.39,0,2.32,1.02,2.34,2.41C146.84,120.7,145.9,121.72,144.52,121.72z M150.88,122.82h0.42c0.32,0,0.5-0.18,0.5-0.5v-2.17
	c0-2.87,1.26-3.12,1.76-3.12c0.13,0,0.25,0.01,0.38,0.04c0.24,0.06,0.38-0.08,0.38-0.43v-0.41c0-0.28-0.04-0.52-0.34-0.56
	l-0.31-0.01c-0.84,0-1.64,0.6-1.88,1.72v-1.06c0-0.32-0.18-0.5-0.5-0.5h-0.42c-0.32,0-0.52,0.18-0.52,0.5v6.01
	C150.36,122.64,150.56,122.82,150.88,122.82z M158.58,122.98c2.06,0,3.72-1.64,3.72-3.67c0-2-1.67-3.65-3.72-3.65
	c-2.04,0-3.7,1.64-3.7,3.65C154.89,121.35,156.54,122.98,158.58,122.98z M158.58,121.72c-1.25,0-2.27-1.06-2.27-2.39
	s1.02-2.41,2.27-2.41c1.27,0,2.28,1.08,2.28,2.41S159.86,121.72,158.58,121.72z M166.47,122.98c1.13,0,2.03-0.55,2.34-1.53v0.87
	c0,0.32,0.18,0.5,0.5,0.5h0.42c0.32,0,0.52-0.18,0.52-0.5v-6.01c0-0.32-0.2-0.5-0.52-0.5h-0.42c-0.32,0-0.5,0.18-0.5,0.5v2.79
	c0,2.11-1.46,2.62-2.18,2.62c-0.74,0-1.39-0.53-1.39-1.96v-3.44c0-0.32-0.2-0.5-0.52-0.5h-0.42c-0.32,0-0.5,0.18-0.5,0.5v3.46
	C163.8,121.97,164.92,122.98,166.47,122.98z M172.86,125.96h0.42c0.32,0,0.5-0.18,0.5-0.5v-3.74c0.66,0.94,1.58,1.26,2.52,1.26
	c2.09,0,3.47-1.65,3.47-3.67s-1.39-3.65-3.47-3.65c-0.94,0-1.86,0.32-2.52,1.26v-0.6c0-0.32-0.18-0.5-0.5-0.5h-0.42
	c-0.32,0-0.52,0.18-0.52,0.5v9.14C172.35,125.78,172.54,125.96,172.86,125.96z M176.1,121.72c-1.37,0-2.32-1.02-2.34-2.41
	c0.01-1.39,0.97-2.41,2.34-2.41c1.43,0,2.24,1.11,2.24,2.41C178.34,120.63,177.53,121.72,176.1,121.72z M188.02,122.98
	c0.94,0,1.85-0.32,2.51-1.26v0.6c0,0.32,0.2,0.5,0.52,0.5h0.42c0.32,0,0.5-0.18,0.5-0.5v-9.11c0-0.32-0.18-0.5-0.5-0.5h-0.42
	c-0.32,0-0.52,0.18-0.52,0.5v3.71c-0.66-0.94-1.57-1.26-2.51-1.26c-2.09,0-3.47,1.64-3.47,3.65S185.93,122.98,188.02,122.98z
	 M188.21,121.72c-1.41,0-2.23-1.09-2.23-2.41c0-1.3,0.81-2.41,2.23-2.41c1.39,0,2.32,1.02,2.34,2.41
	C190.54,120.7,189.6,121.72,188.21,121.72z M197.54,122.98c0.88,0,1.82-0.21,2.63-0.87c0.32-0.27,0.32-0.56,0.1-0.8l-0.1-0.11
	c-0.22-0.22-0.45-0.24-0.71-0.07c-0.6,0.41-1.22,0.59-1.9,0.59c-1.53,0-2.6-0.95-2.56-2.25h5.43c0.34,0,0.53-0.18,0.49-0.52
	c-0.2-2.24-1.81-3.29-3.57-3.29c-2.18,0-3.78,1.64-3.78,3.68C193.57,121.34,195.08,122.98,197.54,122.98z M195.12,118.4
	c0.43-1.19,1.44-1.51,2.25-1.51c0.77,0,1.75,0.27,2.11,1.51H195.12z M205.42,122.98c0.94,0,1.85-0.32,2.51-1.26v0.6
	c0,0.32,0.2,0.5,0.52,0.5h0.42c0.32,0,0.5-0.18,0.5-0.5v-9.11c0-0.32-0.18-0.5-0.5-0.5h-0.42c-0.32,0-0.52,0.18-0.52,0.5v3.71
	c-0.66-0.94-1.57-1.26-2.51-1.26c-2.09,0-3.47,1.64-3.47,3.65S203.33,122.98,205.42,122.98z M205.62,121.72
	c-1.41,0-2.23-1.09-2.23-2.41c0-1.3,0.81-2.41,2.23-2.41c1.39,0,2.32,1.02,2.34,2.41C207.94,120.7,207,121.72,205.62,121.72z
	 M212.24,114.54c0.56,0,0.99-0.42,0.99-0.95c0-0.55-0.42-0.98-0.99-0.98c-0.56,0-0.97,0.43-0.97,0.98
	C211.28,114.12,211.68,114.54,212.24,114.54z M212.05,122.82h0.42c0.32,0,0.5-0.18,0.5-0.5v-6.01c0-0.32-0.18-0.5-0.5-0.5h-0.42
	c-0.32,0-0.52,0.18-0.52,0.5v6.01C211.53,122.64,211.73,122.82,212.05,122.82z M218.57,122.98c0.5,0,1.19-0.08,1.89-0.46
	c0.45-0.22,0.55-0.56,0.35-0.83l-0.1-0.14c-0.18-0.27-0.41-0.29-0.71-0.14c-0.6,0.29-1.2,0.31-1.36,0.31
	c-1.48,0-2.58-0.99-2.58-2.41s1.09-2.39,2.58-2.39c0.15,0,0.76,0.01,1.36,0.31c0.31,0.14,0.52,0.13,0.71-0.14l0.11-0.14
	c0.2-0.27,0.15-0.55-0.14-0.71c-0.8-0.46-1.55-0.57-2.11-0.57c-2.53,0-3.95,1.68-3.95,3.74
	C214.62,121.4,216.09,122.98,218.57,122.98z M225.38,122.98c0.94,0,1.85-0.32,2.51-1.26v0.6c0,0.32,0.2,0.5,0.52,0.5h0.42
	c0.32,0,0.5-0.18,0.5-0.5v-6.01c0-0.32-0.18-0.5-0.5-0.5h-0.42c-0.32,0-0.52,0.18-0.52,0.5v0.6c-0.66-0.94-1.57-1.26-2.51-1.26
	c-2.09,0-3.47,1.64-3.47,3.65S223.29,122.98,225.38,122.98z M225.58,121.72c-1.41,0-2.23-1.09-2.23-2.41c0-1.3,0.81-2.41,2.23-2.41
	c1.39,0,2.32,1.02,2.34,2.41C227.9,120.7,226.96,121.72,225.58,121.72z M234.01,122.98c1.34,0,2.1-0.77,2.1-1.82
	c0-0.01,0-0.28-0.06-0.52c-0.03-0.18-0.15-0.25-0.32-0.25h-0.64c-0.2,0-0.28,0.13-0.25,0.32c0.03,0.11,0.03,0.21,0.03,0.27
	c0,0.5-0.39,0.76-0.83,0.76c-0.45,0-0.81-0.29-0.81-1.05v-3.75h1.92c0.18,0,0.28-0.11,0.28-0.29v-0.55c0-0.18-0.1-0.28-0.28-0.28
	h-1.92v-1.58c0-0.27-0.15-0.43-0.42-0.43h-0.29c-0.25,0-0.41,0.14-0.45,0.41l-0.25,1.61h-0.88c-0.18,0-0.28,0.1-0.28,0.28v0.55
	c0,0.18,0.1,0.29,0.28,0.29h0.85v3.67C231.79,122.4,232.89,122.98,234.01,122.98z M240.81,122.98c0.88,0,1.82-0.21,2.63-0.87
	c0.32-0.27,0.32-0.56,0.1-0.8l-0.1-0.11c-0.22-0.22-0.45-0.24-0.71-0.07c-0.6,0.41-1.22,0.59-1.9,0.59c-1.53,0-2.6-0.95-2.56-2.25
	h5.43c0.34,0,0.53-0.18,0.49-0.52c-0.2-2.24-1.81-3.29-3.57-3.29c-2.18,0-3.78,1.64-3.78,3.68
	C236.84,121.34,238.35,122.98,240.81,122.98z M238.39,118.4c0.43-1.19,1.44-1.51,2.25-1.51c0.77,0,1.75,0.27,2.11,1.51H238.39z
	 M248.69,122.98c0.94,0,1.85-0.32,2.51-1.26v0.6c0,0.32,0.2,0.5,0.52,0.5h0.42c0.32,0,0.5-0.18,0.5-0.5v-9.11
	c0-0.32-0.18-0.5-0.5-0.5h-0.42c-0.32,0-0.52,0.18-0.52,0.5v3.71c-0.66-0.94-1.57-1.26-2.51-1.26c-2.09,0-3.47,1.64-3.47,3.65
	S246.61,122.98,248.69,122.98z M248.89,121.72c-1.41,0-2.23-1.09-2.23-2.41c0-1.3,0.81-2.41,2.23-2.41c1.39,0,2.32,1.02,2.34,2.41
	C251.21,120.7,250.27,121.72,248.89,121.72z M261,122.98c1.34,0,2.1-0.77,2.1-1.82c0-0.01,0-0.28-0.06-0.52
	c-0.03-0.18-0.15-0.25-0.32-0.25h-0.64c-0.2,0-0.28,0.13-0.25,0.32c0.03,0.11,0.03,0.21,0.03,0.27c0,0.5-0.39,0.76-0.83,0.76
	c-0.45,0-0.81-0.29-0.81-1.05v-3.75h1.92c0.18,0,0.28-0.11,0.28-0.29v-0.55c0-0.18-0.1-0.28-0.28-0.28h-1.92v-1.58
	c0-0.27-0.15-0.43-0.42-0.43h-0.29c-0.25,0-0.41,0.14-0.45,0.41l-0.25,1.61h-0.88c-0.18,0-0.28,0.1-0.28,0.28v0.55
	c0,0.18,0.1,0.29,0.28,0.29h0.85v3.67C258.77,122.4,259.88,122.98,261,122.98z M267.52,122.98c2.06,0,3.72-1.64,3.72-3.67
	c0-2-1.67-3.65-3.72-3.65c-2.04,0-3.7,1.64-3.7,3.65C263.83,121.35,265.48,122.98,267.52,122.98z M267.52,121.72
	c-1.25,0-2.27-1.06-2.27-2.39s1.02-2.41,2.27-2.41c1.27,0,2.28,1.08,2.28,2.41S268.8,121.72,267.52,121.72z M38.63,140.98
	c0.5,0,1.19-0.08,1.89-0.46c0.45-0.22,0.55-0.56,0.35-0.83l-0.1-0.14c-0.18-0.27-0.41-0.29-0.71-0.14c-0.6,0.29-1.2,0.31-1.36,0.31
	c-1.48,0-2.58-0.99-2.58-2.41c0-1.41,1.09-2.39,2.58-2.39c0.15,0,0.76,0.01,1.36,0.31c0.31,0.14,0.52,0.13,0.71-0.14l0.11-0.14
	c0.2-0.27,0.15-0.55-0.14-0.71c-0.8-0.46-1.55-0.57-2.11-0.57c-2.53,0-3.95,1.68-3.95,3.74C34.69,139.4,36.16,140.98,38.63,140.98z
	 M45.64,140.98c2.06,0,3.72-1.64,3.72-3.67c0-2-1.67-3.65-3.72-3.65c-2.04,0-3.7,1.64-3.7,3.65
	C41.94,139.35,43.6,140.98,45.64,140.98z M45.64,139.72c-1.25,0-2.27-1.06-2.27-2.39s1.02-2.41,2.27-2.41
	c1.27,0,2.28,1.08,2.28,2.41S46.91,139.72,45.64,139.72z M51.47,140.82h0.42c0.32,0,0.5-0.18,0.5-0.5v-2.79
	c0-2.13,1.46-2.62,2.18-2.62c0.74,0,1.4,0.52,1.4,1.96v3.44c0,0.32,0.18,0.5,0.5,0.5h0.42c0.32,0,0.52-0.18,0.52-0.5v-3.46
	c0-2.2-1.13-3.21-2.69-3.21c-1.13,0-2.03,0.55-2.34,1.53v-0.87c0-0.32-0.18-0.5-0.5-0.5h-0.42c-0.32,0-0.52,0.18-0.52,0.5v6.01
	C50.95,140.64,51.15,140.82,51.47,140.82z M61.92,140.98c1.34,0,2.1-0.77,2.1-1.82c0-0.01,0-0.28-0.06-0.52
	c-0.03-0.18-0.15-0.25-0.32-0.25H63c-0.2,0-0.28,0.13-0.25,0.32c0.03,0.11,0.03,0.21,0.03,0.27c0,0.5-0.39,0.76-0.83,0.76
	c-0.45,0-0.81-0.29-0.81-1.05v-3.75h1.92c0.18,0,0.28-0.11,0.28-0.29v-0.55c0-0.18-0.1-0.28-0.28-0.28h-1.92v-1.58
	c0-0.27-0.15-0.43-0.42-0.43h-0.29c-0.25,0-0.41,0.14-0.45,0.41l-0.25,1.61h-0.88c-0.18,0-0.28,0.1-0.28,0.28v0.55
	c0,0.18,0.1,0.29,0.28,0.29h0.85v3.67C59.7,140.4,60.8,140.98,61.92,140.98z M68.73,140.98c0.88,0,1.82-0.21,2.63-0.87
	c0.32-0.27,0.32-0.56,0.1-0.8l-0.1-0.11c-0.22-0.22-0.45-0.24-0.71-0.07c-0.6,0.41-1.22,0.59-1.9,0.59c-1.53,0-2.6-0.95-2.56-2.25
	h5.43c0.34,0,0.53-0.18,0.49-0.52c-0.2-2.24-1.81-3.29-3.57-3.29c-2.18,0-3.78,1.64-3.78,3.68
	C64.75,139.34,66.26,140.98,68.73,140.98z M66.3,136.4c0.43-1.19,1.44-1.51,2.25-1.51c0.77,0,1.75,0.27,2.11,1.51H66.3z
	 M74.14,140.82h0.42c0.32,0,0.5-0.18,0.5-0.5v-2.79c0-2.13,1.46-2.62,2.18-2.62c0.74,0,1.4,0.52,1.4,1.96v3.44
	c0,0.32,0.18,0.5,0.5,0.5h0.42c0.32,0,0.52-0.18,0.52-0.5v-3.46c0-2.2-1.13-3.21-2.69-3.21c-1.13,0-2.03,0.55-2.34,1.53v-0.87
	c0-0.32-0.18-0.5-0.5-0.5h-0.42c-0.32,0-0.52,0.18-0.52,0.5v6.01C73.62,140.64,73.82,140.82,74.14,140.82z M84.59,140.98
	c1.34,0,2.1-0.77,2.1-1.82c0-0.01,0-0.28-0.06-0.52c-0.03-0.18-0.15-0.25-0.32-0.25h-0.64c-0.2,0-0.28,0.13-0.25,0.32
	c0.03,0.11,0.03,0.21,0.03,0.27c0,0.5-0.39,0.76-0.83,0.76c-0.45,0-0.81-0.29-0.81-1.05v-3.75h1.92c0.18,0,0.28-0.11,0.28-0.29
	v-0.55c0-0.18-0.1-0.28-0.28-0.28h-1.92v-1.58c0-0.27-0.15-0.43-0.42-0.43h-0.29c-0.25,0-0.41,0.14-0.45,0.41l-0.25,1.61h-0.88
	c-0.18,0-0.28,0.1-0.28,0.28v0.55c0,0.18,0.1,0.29,0.28,0.29h0.85v3.67C82.37,140.4,83.47,140.98,84.59,140.98z M94.58,140.98
	c0.94,0,1.85-0.32,2.51-1.26v0.6c0,0.32,0.2,0.5,0.52,0.5h0.42c0.32,0,0.5-0.18,0.5-0.5v-9.11c0-0.32-0.18-0.5-0.5-0.5h-0.42
	c-0.32,0-0.52,0.18-0.52,0.5v3.71c-0.66-0.94-1.57-1.26-2.51-1.26c-2.09,0-3.47,1.64-3.47,3.65
	C91.11,139.33,92.5,140.98,94.58,140.98z M94.78,139.72c-1.41,0-2.23-1.09-2.23-2.41c0-1.3,0.81-2.41,2.23-2.41
	c1.39,0,2.32,1.02,2.34,2.41C97.1,138.7,96.16,139.72,94.78,139.72z M104.11,140.98c0.88,0,1.82-0.21,2.63-0.87
	c0.32-0.27,0.32-0.56,0.1-0.8l-0.1-0.11c-0.22-0.22-0.45-0.24-0.71-0.07c-0.6,0.41-1.22,0.59-1.9,0.59c-1.53,0-2.6-0.95-2.56-2.25
	h5.43c0.34,0,0.53-0.18,0.49-0.52c-0.2-2.24-1.81-3.29-3.57-3.29c-2.18,0-3.78,1.64-3.78,3.68
	C100.13,139.34,101.64,140.98,104.11,140.98z M101.69,136.4c0.43-1.19,1.44-1.51,2.25-1.51c0.77,0,1.75,0.27,2.11,1.51H101.69z
	 M111.09,140.98c1.37,0,2.55-0.77,2.55-2.11c0-0.76-0.36-1.58-1.71-2l-1.01-0.34c-0.41-0.13-0.81-0.36-0.81-0.81
	c0-0.49,0.39-0.87,1.01-0.87c0.31,0,0.62,0.08,0.85,0.36c0.2,0.25,0.36,0.38,0.66,0.29l0.27-0.06c0.34-0.07,0.5-0.32,0.32-0.64
	c-0.46-0.85-1.29-1.15-2.14-1.15c-1.4,0-2.35,0.9-2.35,2.1c0,0.99,0.67,1.6,1.75,1.92l0.94,0.32c0.49,0.17,0.87,0.41,0.87,0.85
	c0,0.53-0.5,0.92-1.18,0.92c-0.55,0-1.02-0.22-1.3-0.57c-0.18-0.24-0.35-0.36-0.63-0.29l-0.29,0.08c-0.34,0.08-0.5,0.31-0.34,0.63
	C109.02,140.52,110.01,140.98,111.09,140.98z M115.98,132.54c0.56,0,0.99-0.42,0.99-0.95c0-0.55-0.42-0.98-0.99-0.98
	c-0.56,0-0.97,0.43-0.97,0.98C115.01,132.12,115.42,132.54,115.98,132.54z M115.78,140.82h0.42c0.32,0,0.5-0.18,0.5-0.5v-6.01
	c0-0.32-0.18-0.5-0.5-0.5h-0.42c-0.32,0-0.52,0.18-0.52,0.5v6.01C115.27,140.64,115.46,140.82,115.78,140.82z M122.08,144.11
	c1.95,0,3.7-1.02,3.7-3.4v-6.4c0-0.32-0.2-0.5-0.52-0.5h-0.41c-0.32,0-0.52,0.18-0.52,0.49v0.62c-0.66-0.94-1.57-1.26-2.51-1.26
	c-2.1,0-3.47,1.65-3.47,3.65c0,2.02,1.37,3.67,3.47,3.67c0.94,0,1.85-0.32,2.51-1.26v0.9c0,1.48-0.92,2.25-2.27,2.25
	c-0.71,0-1.4-0.17-2-0.55c-0.29-0.18-0.53-0.15-0.69,0.17l-0.11,0.2c-0.14,0.28-0.1,0.53,0.15,0.7
	C120.07,143.81,120.86,144.11,122.08,144.11z M122.03,139.72c-1.41,0-2.23-1.09-2.23-2.41c0-1.3,0.81-2.41,2.23-2.41
	c1.39,0,2.32,1.02,2.34,2.41C124.35,138.7,123.41,139.72,122.03,139.72z M128.39,140.82h0.42c0.32,0,0.5-0.18,0.5-0.5v-2.79
	c0-2.13,1.46-2.62,2.18-2.62c0.74,0,1.4,0.52,1.4,1.96v3.44c0,0.32,0.18,0.5,0.5,0.5h0.42c0.32,0,0.52-0.18,0.52-0.5v-3.46
	c0-2.2-1.13-3.21-2.69-3.21c-1.13,0-2.03,0.55-2.34,1.53v-0.87c0-0.32-0.18-0.5-0.5-0.5h-0.42c-0.32,0-0.52,0.18-0.52,0.5v6.01
	C127.87,140.64,128.07,140.82,128.39,140.82z M137.12,140.98c0.59,0,1.06-0.46,1.06-1.04c0-0.59-0.48-1.06-1.06-1.06
	s-1.05,0.48-1.05,1.06C136.07,140.52,136.53,140.98,137.12,140.98z M144.46,140.82h0.48c0.32,0,0.5-0.18,0.5-0.5v-8.79
	c0-0.32-0.18-0.5-0.5-0.5h-0.48c-0.32,0-0.5,0.18-0.5,0.5v8.79C143.96,140.64,144.14,140.82,144.46,140.82z M148.28,140.82h0.42
	c0.32,0,0.5-0.18,0.5-0.5v-2.79c0-2.13,1.46-2.62,2.18-2.62c0.74,0,1.4,0.52,1.4,1.96v3.44c0,0.32,0.18,0.5,0.5,0.5h0.42
	c0.32,0,0.52-0.18,0.52-0.5v-3.46c0-2.2-1.13-3.21-2.69-3.21c-1.13,0-2.03,0.55-2.34,1.53v-0.87c0-0.32-0.18-0.5-0.5-0.5h-0.42
	c-0.32,0-0.52,0.18-0.52,0.5v6.01C147.76,140.64,147.96,140.82,148.28,140.82z M160.42,143.96h0.42c0.32,0,0.5-0.18,0.5-0.5v-3.74
	c0.66,0.94,1.58,1.26,2.52,1.26c2.09,0,3.47-1.65,3.47-3.67c0-2.02-1.39-3.65-3.47-3.65c-0.94,0-1.86,0.32-2.52,1.26v-0.6
	c0-0.32-0.18-0.5-0.5-0.5h-0.42c-0.32,0-0.52,0.18-0.52,0.5v9.14C159.9,143.78,160.1,143.96,160.42,143.96z M163.66,139.72
	c-1.37,0-2.32-1.02-2.34-2.41c0.01-1.39,0.97-2.41,2.34-2.41c1.43,0,2.24,1.11,2.24,2.41C165.9,138.63,165.08,139.72,163.66,139.72z
	 M171.9,140.98c0.94,0,1.85-0.32,2.51-1.26v0.6c0,0.32,0.2,0.5,0.52,0.5h0.42c0.32,0,0.5-0.18,0.5-0.5v-6.01
	c0-0.32-0.18-0.5-0.5-0.5h-0.42c-0.32,0-0.52,0.18-0.52,0.5v0.6c-0.66-0.94-1.57-1.26-2.51-1.26c-2.09,0-3.47,1.64-3.47,3.65
	C168.42,139.33,169.81,140.98,171.9,140.98z M172.09,139.72c-1.41,0-2.23-1.09-2.23-2.41c0-1.3,0.81-2.41,2.23-2.41
	c1.39,0,2.32,1.02,2.34,2.41C174.42,138.7,173.48,139.72,172.09,139.72z M178.47,140.82h0.42c0.32,0,0.5-0.18,0.5-0.5v-2.17
	c0-2.87,1.26-3.12,1.76-3.12c0.13,0,0.25,0.01,0.38,0.04c0.24,0.06,0.38-0.08,0.38-0.43v-0.41c0-0.28-0.04-0.52-0.34-0.56
	l-0.31-0.01c-0.84,0-1.64,0.6-1.88,1.72v-1.06c0-0.32-0.18-0.5-0.5-0.5h-0.42c-0.32,0-0.52,0.18-0.52,0.5v6.01
	C177.95,140.64,178.15,140.82,178.47,140.82z M185.71,140.98c1.34,0,2.1-0.77,2.1-1.82c0-0.01,0-0.28-0.06-0.52
	c-0.03-0.18-0.15-0.25-0.32-0.25h-0.64c-0.2,0-0.28,0.13-0.25,0.32c0.03,0.11,0.03,0.21,0.03,0.27c0,0.5-0.39,0.76-0.83,0.76
	c-0.45,0-0.81-0.29-0.81-1.05v-3.75h1.92c0.18,0,0.28-0.11,0.28-0.29v-0.55c0-0.18-0.1-0.28-0.28-0.28h-1.92v-1.58
	c0-0.27-0.15-0.43-0.42-0.43h-0.29c-0.25,0-0.41,0.14-0.45,0.41l-0.25,1.61h-0.88c-0.18,0-0.28,0.1-0.28,0.28v0.55
	c0,0.18,0.1,0.29,0.28,0.29h0.85v3.67C183.48,140.4,184.59,140.98,185.71,140.98z M189.81,132.54c0.56,0,0.99-0.42,0.99-0.95
	c0-0.55-0.42-0.98-0.99-0.98c-0.56,0-0.97,0.43-0.97,0.98C188.84,132.12,189.25,132.54,189.81,132.54z M189.61,140.82h0.42
	c0.32,0,0.5-0.18,0.5-0.5v-6.01c0-0.32-0.18-0.5-0.5-0.5h-0.42c-0.32,0-0.52,0.18-0.52,0.5v6.01
	C189.09,140.64,189.29,140.82,189.61,140.82z M196.13,140.98c0.5,0,1.19-0.08,1.89-0.46c0.45-0.22,0.55-0.56,0.35-0.83l-0.1-0.14
	c-0.18-0.27-0.41-0.29-0.71-0.14c-0.6,0.29-1.2,0.31-1.36,0.31c-1.48,0-2.58-0.99-2.58-2.41c0-1.41,1.09-2.39,2.58-2.39
	c0.15,0,0.76,0.01,1.36,0.31c0.31,0.14,0.52,0.13,0.71-0.14l0.11-0.14c0.2-0.27,0.15-0.55-0.14-0.71c-0.8-0.46-1.55-0.57-2.11-0.57
	c-2.53,0-3.95,1.68-3.95,3.74C192.19,139.4,193.66,140.98,196.13,140.98z M202.69,140.98c1.13,0,2.03-0.55,2.34-1.53v0.87
	c0,0.32,0.18,0.5,0.5,0.5h0.42c0.32,0,0.52-0.18,0.52-0.5v-6.01c0-0.32-0.2-0.5-0.52-0.5h-0.42c-0.32,0-0.5,0.18-0.5,0.5v2.79
	c0,2.11-1.46,2.62-2.18,2.62c-0.74,0-1.39-0.53-1.39-1.96v-3.44c0-0.32-0.2-0.5-0.52-0.5h-0.42c-0.32,0-0.5,0.18-0.5,0.5v3.46
	C200.02,139.97,201.14,140.98,202.69,140.98z M209.12,140.82h0.42c0.32,0,0.5-0.18,0.5-0.5v-9.11c0-0.32-0.18-0.5-0.5-0.5h-0.42
	c-0.32,0-0.52,0.18-0.52,0.5v9.11C208.6,140.64,208.8,140.82,209.12,140.82z M215.17,140.98c0.94,0,1.85-0.32,2.51-1.26v0.6
	c0,0.32,0.2,0.5,0.52,0.5h0.42c0.32,0,0.5-0.18,0.5-0.5v-6.01c0-0.32-0.18-0.5-0.5-0.5h-0.42c-0.32,0-0.52,0.18-0.52,0.5v0.6
	c-0.66-0.94-1.57-1.26-2.51-1.26c-2.09,0-3.47,1.64-3.47,3.65C211.7,139.33,213.08,140.98,215.17,140.98z M215.36,139.72
	c-1.41,0-2.23-1.09-2.23-2.41c0-1.3,0.81-2.41,2.23-2.41c1.39,0,2.32,1.02,2.34,2.41C217.69,138.7,216.75,139.72,215.36,139.72z
	 M221.74,140.82h0.42c0.32,0,0.5-0.18,0.5-0.5v-2.17c0-2.87,1.26-3.12,1.76-3.12c0.13,0,0.25,0.01,0.38,0.04
	c0.24,0.06,0.38-0.08,0.38-0.43v-0.41c0-0.28-0.04-0.52-0.34-0.56l-0.31-0.01c-0.84,0-1.64,0.6-1.88,1.72v-1.06
	c0-0.32-0.18-0.5-0.5-0.5h-0.42c-0.32,0-0.52,0.18-0.52,0.5v6.01C221.22,140.64,221.42,140.82,221.74,140.82z M225.9,142.6
	c1.02-0.41,1.57-1.4,1.57-2.51c0-0.39-0.18-1.18-0.99-1.18c-0.69,0-1.02,0.43-1.01,0.94c0.01,0.41,0.31,0.83,0.84,0.78
	c0.07-0.01,0.15-0.03,0.24-0.06c0,0.49-0.25,1.15-0.9,1.48c-0.15,0.06-0.18,0.17-0.11,0.29l0.07,0.14
	C225.66,142.63,225.78,142.67,225.9,142.6z M233.74,132.54c0.56,0,0.99-0.42,0.99-0.95c0-0.55-0.42-0.98-0.99-0.98
	c-0.56,0-0.97,0.43-0.97,0.98C232.77,132.12,233.18,132.54,233.74,132.54z M233.54,140.82h0.42c0.32,0,0.5-0.18,0.5-0.5v-6.01
	c0-0.32-0.18-0.5-0.5-0.5h-0.42c-0.32,0-0.52,0.18-0.52,0.5v6.01C233.02,140.64,233.22,140.82,233.54,140.82z M239.19,140.98
	c1.34,0,2.1-0.77,2.1-1.82c0-0.01,0-0.28-0.06-0.52c-0.03-0.18-0.15-0.25-0.32-0.25h-0.64c-0.2,0-0.28,0.13-0.25,0.32
	c0.03,0.11,0.03,0.21,0.03,0.27c0,0.5-0.39,0.76-0.83,0.76c-0.45,0-0.81-0.29-0.81-1.05v-3.75h1.92c0.18,0,0.28-0.11,0.28-0.29
	v-0.55c0-0.18-0.1-0.28-0.28-0.28h-1.92v-1.58c0-0.27-0.15-0.43-0.42-0.43h-0.29c-0.25,0-0.41,0.14-0.45,0.41l-0.25,1.61h-0.88
	c-0.18,0-0.28,0.1-0.28,0.28v0.55c0,0.18,0.1,0.29,0.28,0.29h0.85v3.67C236.97,140.4,238.07,140.98,239.19,140.98z M246.96,132.54
	c0.56,0,0.99-0.42,0.99-0.95c0-0.55-0.42-0.98-0.99-0.98c-0.56,0-0.97,0.43-0.97,0.98C245.99,132.12,246.4,132.54,246.96,132.54z
	 M246.76,140.82h0.42c0.32,0,0.5-0.18,0.5-0.5v-6.01c0-0.32-0.18-0.5-0.5-0.5h-0.42c-0.32,0-0.52,0.18-0.52,0.5v6.01
	C246.24,140.64,246.44,140.82,246.76,140.82z M251.92,140.98c1.37,0,2.55-0.77,2.55-2.11c0-0.76-0.36-1.58-1.71-2l-1.01-0.34
	c-0.41-0.13-0.81-0.36-0.81-0.81c0-0.49,0.39-0.87,1.01-0.87c0.31,0,0.62,0.08,0.85,0.36c0.2,0.25,0.36,0.38,0.66,0.29l0.27-0.06
	c0.34-0.07,0.5-0.32,0.32-0.64c-0.46-0.85-1.29-1.15-2.14-1.15c-1.4,0-2.35,0.9-2.35,2.1c0,0.99,0.67,1.6,1.75,1.92l0.94,0.32
	c0.49,0.17,0.87,0.41,0.87,0.85c0,0.53-0.5,0.92-1.18,0.92c-0.55,0-1.02-0.22-1.3-0.57c-0.18-0.24-0.35-0.36-0.63-0.29l-0.29,0.08
	c-0.34,0.08-0.5,0.31-0.34,0.63C249.85,140.52,250.85,140.98,251.92,140.98z M262.69,140.98c0.94,0,1.85-0.32,2.51-1.26v0.6
	c0,0.32,0.2,0.5,0.52,0.5h0.42c0.32,0,0.5-0.18,0.5-0.5v-6.01c0-0.32-0.18-0.5-0.5-0.5h-0.42c-0.32,0-0.52,0.18-0.52,0.5v0.6
	c-0.66-0.94-1.57-1.26-2.51-1.26c-2.09,0-3.47,1.64-3.47,3.65C259.22,139.33,260.6,140.98,262.69,140.98z M262.89,139.72
	c-1.41,0-2.23-1.09-2.23-2.41c0-1.3,0.81-2.41,2.23-2.41c1.39,0,2.32,1.02,2.34,2.41C265.21,138.7,264.27,139.72,262.89,139.72z
	 M272.71,140.98c2.09,0,3.47-1.65,3.47-3.67c0-2.02-1.39-3.65-3.47-3.65c-0.94,0-1.86,0.32-2.52,1.26v-3.71c0-0.32-0.18-0.5-0.5-0.5
	h-0.42c-0.32,0-0.52,0.18-0.52,0.5v9.11c0,0.32,0.2,0.5,0.52,0.5h0.42c0.32,0,0.5-0.18,0.5-0.5v-0.6
	C270.85,140.66,271.77,140.98,272.71,140.98z M272.5,139.72c-1.37,0-2.32-1.02-2.34-2.41c0.01-1.39,0.97-2.41,2.34-2.41
	c1.43,0,2.24,1.11,2.24,2.41C274.74,138.63,273.93,139.72,272.5,139.72z M280.97,140.98c2.06,0,3.72-1.64,3.72-3.67
	c0-2-1.67-3.65-3.72-3.65c-2.04,0-3.7,1.64-3.7,3.65C277.28,139.35,278.93,140.98,280.97,140.98z M280.97,139.72
	c-1.25,0-2.27-1.06-2.27-2.39s1.02-2.41,2.27-2.41c1.27,0,2.28,1.08,2.28,2.41S282.25,139.72,280.97,139.72z M288.86,140.98
	c1.13,0,2.03-0.55,2.34-1.53v0.87c0,0.32,0.18,0.5,0.5,0.5h0.42c0.32,0,0.52-0.18,0.52-0.5v-6.01c0-0.32-0.2-0.5-0.52-0.5h-0.42
	c-0.32,0-0.5,0.18-0.5,0.5v2.79c0,2.11-1.46,2.62-2.18,2.62c-0.74,0-1.39-0.53-1.39-1.96v-3.44c0-0.32-0.2-0.5-0.52-0.5h-0.42
	c-0.32,0-0.5,0.18-0.5,0.5v3.46C286.19,139.97,287.31,140.98,288.86,140.98z M297.31,140.98c1.34,0,2.1-0.77,2.1-1.82
	c0-0.01,0-0.28-0.06-0.52c-0.03-0.18-0.15-0.25-0.32-0.25h-0.64c-0.2,0-0.28,0.13-0.25,0.32c0.03,0.11,0.03,0.21,0.03,0.27
	c0,0.5-0.39,0.76-0.83,0.76c-0.45,0-0.81-0.29-0.81-1.05v-3.75h1.92c0.18,0,0.28-0.11,0.28-0.29v-0.55c0-0.18-0.1-0.28-0.28-0.28
	h-1.92v-1.58c0-0.27-0.15-0.43-0.42-0.43h-0.29c-0.25,0-0.41,0.14-0.45,0.41l-0.25,1.61h-0.88c-0.18,0-0.28,0.1-0.28,0.28v0.55
	c0,0.18,0.1,0.29,0.28,0.29h0.85v3.67C295.09,140.4,296.19,140.98,297.31,140.98z M37.28,158.98c1.37,0,2.55-0.77,2.55-2.11
	c0-0.76-0.36-1.58-1.71-2l-1.01-0.34c-0.41-0.13-0.81-0.36-0.81-0.81c0-0.49,0.39-0.87,1.01-0.87c0.31,0,0.62,0.08,0.85,0.36
	c0.2,0.25,0.36,0.38,0.66,0.29l0.27-0.06c0.34-0.07,0.5-0.32,0.32-0.64c-0.46-0.85-1.29-1.15-2.14-1.15c-1.4,0-2.35,0.9-2.35,2.1
	c0,0.99,0.67,1.6,1.75,1.92L37.6,156c0.49,0.17,0.87,0.41,0.87,0.85c0,0.53-0.5,0.92-1.18,0.92c-0.55,0-1.02-0.22-1.3-0.57
	c-0.18-0.24-0.35-0.36-0.63-0.29l-0.29,0.08c-0.34,0.08-0.5,0.31-0.34,0.63C35.2,158.52,36.2,158.98,37.28,158.98z M41.93,158.82
	h0.42c0.32,0,0.5-0.18,0.5-0.5v-2.79c0-2.13,1.46-2.62,2.18-2.62c0.74,0,1.4,0.52,1.4,1.96v3.44c0,0.32,0.18,0.5,0.5,0.5h0.42
	c0.32,0,0.52-0.18,0.52-0.5v-3.46c0-2.2-1.13-3.21-2.69-3.21c-1.13,0-2.03,0.55-2.34,1.53v-3.98c0-0.32-0.18-0.5-0.5-0.5h-0.42
	c-0.32,0-0.52,0.18-0.52,0.5v9.11C41.41,158.64,41.61,158.82,41.93,158.82z M52.83,158.98c0.94,0,1.85-0.32,2.51-1.26v0.6
	c0,0.32,0.2,0.5,0.52,0.5h0.42c0.32,0,0.5-0.18,0.5-0.5v-6.01c0-0.32-0.18-0.5-0.5-0.5h-0.42c-0.32,0-0.52,0.18-0.52,0.5v0.6
	c-0.66-0.94-1.57-1.26-2.51-1.26c-2.09,0-3.47,1.64-3.47,3.65C49.36,157.33,50.74,158.98,52.83,158.98z M53.02,157.72
	c-1.41,0-2.23-1.09-2.23-2.41c0-1.3,0.81-2.41,2.23-2.41c1.39,0,2.32,1.02,2.34,2.41C55.35,156.7,54.41,157.72,53.02,157.72z
	 M59.4,158.82h0.42c0.32,0,0.5-0.18,0.5-0.5v-2.17c0-2.87,1.26-3.12,1.76-3.12c0.13,0,0.25,0.01,0.38,0.04
	c0.24,0.06,0.38-0.08,0.38-0.43v-0.41c0-0.28-0.04-0.52-0.34-0.56l-0.31-0.01c-0.84,0-1.64,0.6-1.88,1.72v-1.06
	c0-0.32-0.18-0.5-0.5-0.5H59.4c-0.32,0-0.52,0.18-0.52,0.5v6.01C58.88,158.64,59.08,158.82,59.4,158.82z M64.82,150.54
	c0.56,0,0.99-0.42,0.99-0.95c0-0.55-0.42-0.98-0.99-0.98c-0.56,0-0.97,0.43-0.97,0.98C63.85,150.12,64.26,150.54,64.82,150.54z
	 M64.62,158.82h0.42c0.32,0,0.5-0.18,0.5-0.5v-6.01c0-0.32-0.18-0.5-0.5-0.5h-0.42c-0.32,0-0.52,0.18-0.52,0.5v6.01
	C64.11,158.64,64.3,158.82,64.62,158.82z M68.22,158.82h0.42c0.32,0,0.5-0.18,0.5-0.5v-2.79c0-2.13,1.46-2.62,2.18-2.62
	c0.74,0,1.4,0.52,1.4,1.96v3.44c0,0.32,0.18,0.5,0.5,0.5h0.42c0.32,0,0.52-0.18,0.52-0.5v-3.46c0-2.2-1.13-3.21-2.69-3.21
	c-1.13,0-2.03,0.55-2.34,1.53v-0.87c0-0.32-0.18-0.5-0.5-0.5h-0.42c-0.32,0-0.52,0.18-0.52,0.5v6.01
	C67.7,158.64,67.9,158.82,68.22,158.82z M79.4,162.11c1.95,0,3.7-1.02,3.7-3.4v-6.4c0-0.32-0.2-0.5-0.52-0.5h-0.41
	c-0.32,0-0.52,0.18-0.52,0.49v0.62c-0.66-0.94-1.57-1.26-2.51-1.26c-2.1,0-3.47,1.65-3.47,3.65c0,2.02,1.37,3.67,3.47,3.67
	c0.94,0,1.85-0.32,2.51-1.26v0.9c0,1.48-0.92,2.25-2.27,2.25c-0.71,0-1.4-0.17-2-0.55c-0.29-0.18-0.53-0.15-0.69,0.17l-0.11,0.2
	c-0.14,0.28-0.1,0.53,0.15,0.7C77.38,161.81,78.18,162.11,79.4,162.11z M79.34,157.72c-1.41,0-2.23-1.09-2.23-2.41
	c0-1.3,0.81-2.41,2.23-2.41c1.39,0,2.32,1.02,2.34,2.41C81.67,156.7,80.73,157.72,79.34,157.72z M91.43,158.98
	c1.34,0,2.1-0.77,2.1-1.82c0-0.01,0-0.28-0.06-0.52c-0.03-0.18-0.15-0.25-0.32-0.25h-0.64c-0.2,0-0.28,0.13-0.25,0.32
	c0.03,0.11,0.03,0.21,0.03,0.27c0,0.5-0.39,0.76-0.83,0.76c-0.45,0-0.81-0.29-0.81-1.05v-3.75h1.92c0.18,0,0.28-0.11,0.28-0.29
	v-0.55c0-0.18-0.1-0.28-0.28-0.28h-1.92v-1.58c0-0.27-0.15-0.43-0.42-0.43h-0.29c-0.25,0-0.41,0.14-0.45,0.41l-0.25,1.61h-0.88
	c-0.18,0-0.28,0.1-0.28,0.28v0.55c0,0.18,0.1,0.29,0.28,0.29h0.85v3.67C89.2,158.4,90.31,158.98,91.43,158.98z M98.23,158.98
	c0.88,0,1.82-0.21,2.63-0.87c0.32-0.27,0.32-0.56,0.1-0.8l-0.1-0.11c-0.22-0.22-0.45-0.24-0.71-0.07c-0.6,0.41-1.22,0.59-1.9,0.59
	c-1.53,0-2.6-0.95-2.56-2.25h5.43c0.34,0,0.53-0.18,0.49-0.52c-0.2-2.24-1.81-3.29-3.57-3.29c-2.18,0-3.78,1.64-3.78,3.68
	C94.25,157.34,95.77,158.98,98.23,158.98z M95.81,154.4c0.43-1.19,1.44-1.51,2.25-1.51c0.77,0,1.75,0.27,2.11,1.51H95.81z
	 M106.57,158.98c0.5,0,1.19-0.08,1.89-0.46c0.45-0.22,0.55-0.56,0.35-0.83l-0.1-0.14c-0.18-0.27-0.41-0.29-0.71-0.14
	c-0.6,0.29-1.2,0.31-1.36,0.31c-1.48,0-2.58-0.99-2.58-2.41c0-1.41,1.09-2.39,2.58-2.39c0.15,0,0.76,0.01,1.36,0.31
	c0.31,0.14,0.52,0.13,0.71-0.14l0.11-0.14c0.2-0.27,0.15-0.55-0.14-0.71c-0.8-0.46-1.55-0.57-2.11-0.57c-2.53,0-3.95,1.68-3.95,3.74
	C102.62,157.4,104.09,158.98,106.57,158.98z M111.07,158.82h0.42c0.32,0,0.5-0.18,0.5-0.5v-2.79c0-2.13,1.46-2.62,2.18-2.62
	c0.74,0,1.4,0.52,1.4,1.96v3.44c0,0.32,0.18,0.5,0.5,0.5h0.42c0.32,0,0.52-0.18,0.52-0.5v-3.46c0-2.2-1.13-3.21-2.69-3.21
	c-1.13,0-2.03,0.55-2.34,1.53v-3.98c0-0.32-0.18-0.5-0.5-0.5h-0.42c-0.32,0-0.52,0.18-0.52,0.5v9.11
	C110.55,158.64,110.74,158.82,111.07,158.82z M119.52,158.82h0.42c0.32,0,0.5-0.18,0.5-0.5v-2.79c0-2.13,1.46-2.62,2.18-2.62
	c0.74,0,1.4,0.52,1.4,1.96v3.44c0,0.32,0.18,0.5,0.5,0.5h0.42c0.32,0,0.52-0.18,0.52-0.5v-3.46c0-2.2-1.13-3.21-2.69-3.21
	c-1.13,0-2.03,0.55-2.34,1.53v-0.87c0-0.32-0.18-0.5-0.5-0.5h-0.42c-0.32,0-0.52,0.18-0.52,0.5v6.01
	C119,158.64,119.19,158.82,119.52,158.82z M128.23,150.54c0.56,0,0.99-0.42,0.99-0.95c0-0.55-0.42-0.98-0.99-0.98
	c-0.56,0-0.97,0.43-0.97,0.98C127.26,150.12,127.67,150.54,128.23,150.54z M128.03,158.82h0.42c0.32,0,0.5-0.18,0.5-0.5v-6.01
	c0-0.32-0.18-0.5-0.5-0.5h-0.42c-0.32,0-0.52,0.18-0.52,0.5v6.01C127.52,158.64,127.71,158.82,128.03,158.82z M137.1,161.96h0.42
	c0.32,0,0.5-0.18,0.5-0.5v-9.14c0-0.32-0.18-0.5-0.5-0.5h-0.42c-0.32,0-0.52,0.18-0.52,0.5v0.6c-0.66-0.94-1.57-1.26-2.51-1.26
	c-2.09,0-3.47,1.64-3.47,3.65c0,2.02,1.39,3.67,3.47,3.67c0.94,0,1.85-0.32,2.51-1.26v3.74
	C136.59,161.78,136.78,161.96,137.1,161.96z M134.28,157.72c-1.41,0-2.23-1.09-2.23-2.41c0-1.3,0.81-2.41,2.23-2.41
	c1.39,0,2.32,1.02,2.34,2.41C136.6,156.7,135.66,157.72,134.28,157.72z M142.71,158.98c1.13,0,2.03-0.55,2.34-1.53v0.87
	c0,0.32,0.18,0.5,0.5,0.5h0.42c0.32,0,0.52-0.18,0.52-0.5v-6.01c0-0.32-0.2-0.5-0.52-0.5h-0.42c-0.32,0-0.5,0.18-0.5,0.5v2.79
	c0,2.11-1.46,2.62-2.18,2.62c-0.74,0-1.39-0.53-1.39-1.96v-3.44c0-0.32-0.2-0.5-0.52-0.5h-0.42c-0.32,0-0.5,0.18-0.5,0.5v3.46
	C140.04,157.97,141.16,158.98,142.71,158.98z M152.04,158.98c0.88,0,1.82-0.21,2.63-0.87c0.32-0.27,0.32-0.56,0.1-0.8l-0.1-0.11
	c-0.22-0.22-0.45-0.24-0.71-0.07c-0.6,0.41-1.22,0.59-1.9,0.59c-1.53,0-2.6-0.95-2.56-2.25h5.43c0.34,0,0.53-0.18,0.49-0.52
	c-0.2-2.24-1.81-3.29-3.57-3.29c-2.18,0-3.78,1.64-3.78,3.68C148.07,157.34,149.58,158.98,152.04,158.98z M149.62,154.4
	c0.43-1.19,1.44-1.51,2.25-1.51c0.77,0,1.75,0.27,2.11,1.51H149.62z M159.02,158.98c1.37,0,2.55-0.77,2.55-2.11
	c0-0.76-0.36-1.58-1.71-2l-1.01-0.34c-0.41-0.13-0.81-0.36-0.81-0.81c0-0.49,0.39-0.87,1.01-0.87c0.31,0,0.62,0.08,0.85,0.36
	c0.2,0.25,0.36,0.38,0.66,0.29l0.27-0.06c0.34-0.07,0.5-0.32,0.32-0.64c-0.46-0.85-1.29-1.15-2.14-1.15c-1.4,0-2.35,0.9-2.35,2.1
	c0,0.99,0.67,1.6,1.75,1.92l0.94,0.32c0.49,0.17,0.87,0.41,0.87,0.85c0,0.53-0.5,0.92-1.18,0.92c-0.55,0-1.02-0.22-1.3-0.57
	c-0.18-0.24-0.35-0.36-0.63-0.29l-0.29,0.08c-0.34,0.08-0.5,0.31-0.34,0.63C156.95,158.52,157.95,158.98,159.02,158.98z
	 M169.4,158.98c1.34,0,2.1-0.77,2.1-1.82c0-0.01,0-0.28-0.06-0.52c-0.03-0.18-0.15-0.25-0.32-0.25h-0.64c-0.2,0-0.28,0.13-0.25,0.32
	c0.03,0.11,0.03,0.21,0.03,0.27c0,0.5-0.39,0.76-0.83,0.76c-0.45,0-0.81-0.29-0.81-1.05v-3.75h1.92c0.18,0,0.28-0.11,0.28-0.29
	v-0.55c0-0.18-0.1-0.28-0.28-0.28h-1.92v-1.58c0-0.27-0.15-0.43-0.42-0.43h-0.29c-0.25,0-0.41,0.14-0.45,0.41l-0.25,1.61h-0.88
	c-0.18,0-0.28,0.1-0.28,0.28v0.55c0,0.18,0.1,0.29,0.28,0.29h0.85v3.67C167.17,158.4,168.28,158.98,169.4,158.98z M175.92,158.98
	c2.06,0,3.72-1.64,3.72-3.67c0-2-1.67-3.65-3.72-3.65c-2.04,0-3.7,1.64-3.7,3.65C172.22,157.35,173.88,158.98,175.92,158.98z
	 M175.92,157.72c-1.25,0-2.27-1.06-2.27-2.39s1.02-2.41,2.27-2.41c1.27,0,2.28,1.08,2.28,2.41S177.19,157.72,175.92,157.72z
	 M185.41,161.96h0.42c0.32,0,0.5-0.18,0.5-0.5v-3.74c0.66,0.94,1.58,1.26,2.52,1.26c2.09,0,3.47-1.65,3.47-3.67
	c0-2.02-1.39-3.65-3.47-3.65c-0.94,0-1.86,0.32-2.52,1.26v-0.6c0-0.32-0.18-0.5-0.5-0.5h-0.42c-0.32,0-0.52,0.18-0.52,0.5v9.14
	C184.9,161.78,185.09,161.96,185.41,161.96z M188.65,157.72c-1.37,0-2.32-1.02-2.34-2.41c0.01-1.39,0.97-2.41,2.34-2.41
	c1.43,0,2.24,1.11,2.24,2.41C190.89,156.63,190.08,157.72,188.65,157.72z M194.44,158.82h0.42c0.32,0,0.5-0.18,0.5-0.5v-2.17
	c0-2.87,1.26-3.12,1.76-3.12c0.13,0,0.25,0.01,0.38,0.04c0.24,0.06,0.38-0.08,0.38-0.43v-0.41c0-0.28-0.04-0.52-0.34-0.56
	l-0.31-0.01c-0.84,0-1.64,0.6-1.88,1.72v-1.06c0-0.32-0.18-0.5-0.5-0.5h-0.42c-0.32,0-0.52,0.18-0.52,0.5v6.01
	C193.92,158.64,194.12,158.82,194.44,158.82z M202.14,158.98c2.06,0,3.72-1.64,3.72-3.67c0-2-1.67-3.65-3.72-3.65
	c-2.04,0-3.7,1.64-3.7,3.65C198.45,157.35,200.1,158.98,202.14,158.98z M202.14,157.72c-1.25,0-2.27-1.06-2.27-2.39
	s1.02-2.41,2.27-2.41c1.27,0,2.28,1.08,2.28,2.41S203.42,157.72,202.14,157.72z M210.44,158.98c0.94,0,1.85-0.32,2.51-1.26v0.6
	c0,0.32,0.2,0.5,0.52,0.5h0.42c0.32,0,0.5-0.18,0.5-0.5v-9.11c0-0.32-0.18-0.5-0.5-0.5h-0.42c-0.32,0-0.52,0.18-0.52,0.5v3.71
	c-0.66-0.94-1.57-1.26-2.51-1.26c-2.09,0-3.47,1.64-3.47,3.65C206.97,157.33,208.35,158.98,210.44,158.98z M210.63,157.72
	c-1.41,0-2.23-1.09-2.23-2.41c0-1.3,0.81-2.41,2.23-2.41c1.39,0,2.32,1.02,2.34,2.41C212.96,156.7,212.02,157.72,210.63,157.72z
	 M219.08,158.98c1.13,0,2.03-0.55,2.34-1.53v0.87c0,0.32,0.18,0.5,0.5,0.5h0.42c0.32,0,0.52-0.18,0.52-0.5v-6.01
	c0-0.32-0.2-0.5-0.52-0.5h-0.42c-0.32,0-0.5,0.18-0.5,0.5v2.79c0,2.11-1.46,2.62-2.18,2.62c-0.74,0-1.39-0.53-1.39-1.96v-3.44
	c0-0.32-0.2-0.5-0.52-0.5h-0.42c-0.32,0-0.5,0.18-0.5,0.5v3.46C216.41,157.97,217.53,158.98,219.08,158.98z M228.4,158.98
	c0.5,0,1.19-0.08,1.89-0.46c0.45-0.22,0.55-0.56,0.35-0.83l-0.1-0.14c-0.18-0.27-0.41-0.29-0.71-0.14c-0.6,0.29-1.2,0.31-1.36,0.31
	c-1.48,0-2.58-0.99-2.58-2.41c0-1.41,1.09-2.39,2.58-2.39c0.15,0,0.76,0.01,1.36,0.31c0.31,0.14,0.52,0.13,0.71-0.14l0.11-0.14
	c0.2-0.27,0.15-0.55-0.14-0.71c-0.8-0.46-1.55-0.57-2.11-0.57c-2.53,0-3.95,1.68-3.95,3.74C224.45,157.4,225.92,158.98,228.4,158.98
	z M235.69,158.98c0.88,0,1.82-0.21,2.63-0.87c0.32-0.27,0.32-0.56,0.1-0.8l-0.1-0.11c-0.22-0.22-0.45-0.24-0.71-0.07
	c-0.6,0.41-1.22,0.59-1.9,0.59c-1.53,0-2.6-0.95-2.56-2.25h5.43c0.34,0,0.53-0.18,0.49-0.52c-0.2-2.24-1.81-3.29-3.57-3.29
	c-2.18,0-3.78,1.64-3.78,3.68C231.71,157.34,233.22,158.98,235.69,158.98z M233.26,154.4c0.43-1.19,1.44-1.51,2.25-1.51
	c0.77,0,1.75,0.27,2.11,1.51H233.26z M246.82,158.98c1.34,0,2.1-0.77,2.1-1.82c0-0.01,0-0.28-0.06-0.52
	c-0.03-0.18-0.15-0.25-0.32-0.25h-0.64c-0.2,0-0.28,0.13-0.25,0.32c0.03,0.11,0.03,0.21,0.03,0.27c0,0.5-0.39,0.76-0.83,0.76
	c-0.45,0-0.81-0.29-0.81-1.05v-3.75h1.92c0.18,0,0.28-0.11,0.28-0.29v-0.55c0-0.18-0.1-0.28-0.28-0.28h-1.92v-1.58
	c0-0.27-0.15-0.43-0.42-0.43h-0.29c-0.25,0-0.41,0.14-0.45,0.41l-0.25,1.61h-0.88c-0.18,0-0.28,0.1-0.28,0.28v0.55
	c0,0.18,0.1,0.29,0.28,0.29h0.85v3.67C244.6,158.4,245.7,158.98,246.82,158.98z M253.62,158.98c0.88,0,1.82-0.21,2.63-0.87
	c0.32-0.27,0.32-0.56,0.1-0.8l-0.1-0.11c-0.22-0.22-0.45-0.24-0.71-0.07c-0.6,0.41-1.22,0.59-1.9,0.59c-1.53,0-2.6-0.95-2.56-2.25
	h5.43c0.34,0,0.53-0.18,0.49-0.52c-0.2-2.24-1.81-3.29-3.57-3.29c-2.18,0-3.78,1.64-3.78,3.68
	C249.65,157.34,251.16,158.98,253.62,158.98z M251.2,154.4c0.43-1.19,1.44-1.51,2.25-1.51c0.77,0,1.75,0.27,2.11,1.51H251.2z
	 M258.2,158.82h0.5c0.27,0,0.45-0.08,0.63-0.29l2.03-2.45l2.04,2.45c0.17,0.21,0.35,0.29,0.62,0.29h0.5c0.43,0,0.56-0.29,0.29-0.63
	l-2.51-3.01l2.3-2.76c0.28-0.34,0.15-0.62-0.29-0.62h-0.42c-0.27,0-0.46,0.08-0.63,0.28l-1.9,2.25l-1.9-2.25
	c-0.17-0.2-0.35-0.28-0.62-0.28h-0.43c-0.43,0-0.56,0.28-0.29,0.62l2.3,2.76l-2.49,3.01C257.64,158.53,257.77,158.82,258.2,158.82z
	 M269.05,158.98c1.34,0,2.1-0.77,2.1-1.82c0-0.01,0-0.28-0.06-0.52c-0.03-0.18-0.15-0.25-0.32-0.25h-0.64
	c-0.2,0-0.28,0.13-0.25,0.32c0.03,0.11,0.03,0.21,0.03,0.27c0,0.5-0.39,0.76-0.83,0.76c-0.45,0-0.81-0.29-0.81-1.05v-3.75h1.92
	c0.18,0,0.28-0.11,0.28-0.29v-0.55c0-0.18-0.1-0.28-0.28-0.28h-1.92v-1.58c0-0.27-0.15-0.43-0.42-0.43h-0.29
	c-0.25,0-0.41,0.14-0.45,0.41l-0.25,1.61h-0.88c-0.18,0-0.28,0.1-0.28,0.28v0.55c0,0.18,0.1,0.29,0.28,0.29h0.85v3.67
	C266.83,158.4,267.93,158.98,269.05,158.98z M278.64,158.98c1.34,0,2.1-0.77,2.1-1.82c0-0.01,0-0.28-0.06-0.52
	c-0.03-0.18-0.15-0.25-0.32-0.25h-0.64c-0.2,0-0.28,0.13-0.25,0.32c0.03,0.11,0.03,0.21,0.03,0.27c0,0.5-0.39,0.76-0.83,0.76
	c-0.45,0-0.81-0.29-0.81-1.05v-3.75h1.92c0.18,0,0.28-0.11,0.28-0.29v-0.55c0-0.18-0.1-0.28-0.28-0.28h-1.92v-1.58
	c0-0.27-0.15-0.43-0.42-0.43h-0.29c-0.25,0-0.41,0.14-0.45,0.41l-0.25,1.61h-0.88c-0.18,0-0.28,0.1-0.28,0.28v0.55
	c0,0.18,0.1,0.29,0.28,0.29h0.85v3.67C276.41,158.4,277.52,158.98,278.64,158.98z M282.5,158.82h0.42c0.32,0,0.5-0.18,0.5-0.5v-2.79
	c0-2.13,1.46-2.62,2.18-2.62c0.74,0,1.4,0.52,1.4,1.96v3.44c0,0.32,0.18,0.5,0.5,0.5h0.42c0.32,0,0.52-0.18,0.52-0.5v-3.46
	c0-2.2-1.13-3.21-2.69-3.21c-1.13,0-2.03,0.55-2.34,1.53v-3.98c0-0.32-0.18-0.5-0.5-0.5h-0.42c-0.32,0-0.52,0.18-0.52,0.5v9.11
	C281.98,158.64,282.18,158.82,282.5,158.82z M293.4,158.98c0.94,0,1.85-0.32,2.51-1.26v0.6c0,0.32,0.2,0.5,0.52,0.5h0.42
	c0.32,0,0.5-0.18,0.5-0.5v-6.01c0-0.32-0.18-0.5-0.5-0.5h-0.42c-0.32,0-0.52,0.18-0.52,0.5v0.6c-0.66-0.94-1.57-1.26-2.51-1.26
	c-2.09,0-3.47,1.64-3.47,3.65C289.93,157.33,291.31,158.98,293.4,158.98z M293.59,157.72c-1.41,0-2.23-1.09-2.23-2.41
	c0-1.3,0.81-2.41,2.23-2.41c1.39,0,2.32,1.02,2.34,2.41C295.92,156.7,294.98,157.72,293.59,157.72z M302.03,158.98
	c1.34,0,2.1-0.77,2.1-1.82c0-0.01,0-0.28-0.06-0.52c-0.03-0.18-0.15-0.25-0.32-0.25h-0.64c-0.2,0-0.28,0.13-0.25,0.32
	c0.03,0.11,0.03,0.21,0.03,0.27c0,0.5-0.39,0.76-0.83,0.76c-0.45,0-0.81-0.29-0.81-1.05v-3.75h1.92c0.18,0,0.28-0.11,0.28-0.29
	v-0.55c0-0.18-0.1-0.28-0.28-0.28h-1.92v-1.58c0-0.27-0.15-0.43-0.42-0.43h-0.29c-0.25,0-0.41,0.14-0.45,0.41l-0.25,1.61h-0.88
	c-0.18,0-0.28,0.1-0.28,0.28v0.55c0,0.18,0.1,0.29,0.28,0.29h0.85v3.67C299.8,158.4,300.91,158.98,302.03,158.98z M35.95,168.54
	c0.56,0,0.99-0.42,0.99-0.95c0-0.55-0.42-0.98-0.99-0.98c-0.56,0-0.97,0.43-0.97,0.98C34.98,168.12,35.39,168.54,35.95,168.54z
	 M35.75,176.82h0.42c0.32,0,0.5-0.18,0.5-0.5v-6.01c0-0.32-0.18-0.5-0.5-0.5h-0.42c-0.32,0-0.52,0.18-0.52,0.5v6.01
	C35.23,176.64,35.43,176.82,35.75,176.82z M40.91,176.98c1.37,0,2.55-0.77,2.55-2.11c0-0.76-0.36-1.58-1.71-2l-1.01-0.34
	c-0.41-0.13-0.81-0.36-0.81-0.81c0-0.49,0.39-0.87,1.01-0.87c0.31,0,0.62,0.08,0.85,0.36c0.2,0.25,0.36,0.38,0.66,0.29l0.27-0.06
	c0.34-0.07,0.5-0.32,0.32-0.64c-0.46-0.85-1.29-1.15-2.14-1.15c-1.4,0-2.35,0.9-2.35,2.1c0,0.99,0.67,1.6,1.75,1.92l0.94,0.32
	c0.49,0.17,0.87,0.41,0.87,0.85c0,0.53-0.5,0.92-1.18,0.92c-0.55,0-1.02-0.22-1.3-0.57c-0.18-0.24-0.35-0.36-0.63-0.29l-0.29,0.08
	c-0.34,0.08-0.5,0.31-0.34,0.63C38.84,176.52,39.83,176.98,40.91,176.98z M54.7,179.96h0.42c0.32,0,0.5-0.18,0.5-0.5v-9.14
	c0-0.32-0.18-0.5-0.5-0.5H54.7c-0.32,0-0.52,0.18-0.52,0.5v0.6c-0.66-0.94-1.57-1.26-2.51-1.26c-2.09,0-3.47,1.64-3.47,3.65
	c0,2.02,1.39,3.67,3.47,3.67c0.94,0,1.85-0.32,2.51-1.26v3.74C54.18,179.78,54.38,179.96,54.7,179.96z M51.87,175.72
	c-1.41,0-2.23-1.09-2.23-2.41c0-1.3,0.81-2.41,2.23-2.41c1.39,0,2.32,1.02,2.34,2.41C54.2,174.7,53.26,175.72,51.87,175.72z
	 M60.31,176.98c1.13,0,2.03-0.55,2.34-1.53v0.87c0,0.32,0.18,0.5,0.5,0.5h0.42c0.32,0,0.52-0.18,0.52-0.5v-6.01
	c0-0.32-0.2-0.5-0.52-0.5h-0.42c-0.32,0-0.5,0.18-0.5,0.5v2.79c0,2.11-1.46,2.62-2.18,2.62c-0.74,0-1.39-0.53-1.39-1.96v-3.44
	c0-0.32-0.2-0.5-0.52-0.5h-0.42c-0.32,0-0.5,0.18-0.5,0.5v3.46C57.64,175.97,58.76,176.98,60.31,176.98z M66.94,168.54
	c0.56,0,0.99-0.42,0.99-0.95c0-0.55-0.42-0.98-0.99-0.98c-0.56,0-0.97,0.43-0.97,0.98C65.97,168.12,66.38,168.54,66.94,168.54z
	 M66.74,176.82h0.42c0.32,0,0.5-0.18,0.5-0.5v-6.01c0-0.32-0.18-0.5-0.5-0.5h-0.42c-0.32,0-0.52,0.18-0.52,0.5v6.01
	C66.23,176.64,66.42,176.82,66.74,176.82z M73.26,176.98c0.5,0,1.19-0.08,1.89-0.46c0.45-0.22,0.55-0.56,0.35-0.83l-0.1-0.14
	c-0.18-0.27-0.41-0.29-0.71-0.14c-0.6,0.29-1.2,0.31-1.36,0.31c-1.48,0-2.58-0.99-2.58-2.41c0-1.41,1.09-2.39,2.58-2.39
	c0.15,0,0.76,0.01,1.36,0.31c0.31,0.14,0.52,0.13,0.71-0.14l0.11-0.14c0.2-0.27,0.15-0.55-0.14-0.71c-0.8-0.46-1.55-0.57-2.11-0.57
	c-2.53,0-3.95,1.68-3.95,3.74C69.32,175.4,70.79,176.98,73.26,176.98z M82.3,176.98c0.14,0,0.62,0,1.09-0.22
	c0.35-0.17,0.42-0.41,0.35-0.57l-0.22-0.45c-0.1-0.17-0.21-0.2-0.41-0.13c-0.25,0.11-0.52,0.13-0.63,0.13
	c-0.62,0-0.81-0.35-1.22-0.92l-1.16-1.78l2.16-2.6c0.28-0.34,0.15-0.62-0.29-0.62h-0.53c-0.27,0-0.46,0.08-0.62,0.29l-2.14,2.65
	v-5.54c0-0.32-0.18-0.5-0.5-0.5h-0.42c-0.32,0-0.52,0.18-0.52,0.5v9.11c0,0.32,0.2,0.5,0.52,0.5h0.42c0.32,0,0.5-0.18,0.5-0.5v-3.08
	l1.37,2.23C80.48,176.1,80.95,176.98,82.3,176.98z M90.96,176.98c1.34,0,2.1-0.77,2.1-1.82c0-0.01,0-0.28-0.06-0.52
	c-0.03-0.18-0.15-0.25-0.32-0.25h-0.64c-0.2,0-0.28,0.13-0.25,0.32c0.03,0.11,0.03,0.21,0.03,0.27c0,0.5-0.39,0.76-0.83,0.76
	c-0.45,0-0.81-0.29-0.81-1.05v-3.75h1.92c0.18,0,0.28-0.11,0.28-0.29v-0.55c0-0.18-0.1-0.28-0.28-0.28h-1.92v-1.58
	c0-0.27-0.15-0.43-0.42-0.43h-0.29c-0.25,0-0.41,0.14-0.45,0.41l-0.25,1.61h-0.88c-0.18,0-0.28,0.1-0.28,0.28v0.55
	c0,0.18,0.1,0.29,0.28,0.29h0.85v3.67C88.74,176.4,89.84,176.98,90.96,176.98z M97.48,176.98c2.06,0,3.72-1.64,3.72-3.67
	c0-2-1.67-3.65-3.72-3.65c-2.04,0-3.7,1.64-3.7,3.65C93.79,175.35,95.44,176.98,97.48,176.98z M97.48,175.72
	c-1.25,0-2.27-1.06-2.27-2.39s1.02-2.41,2.27-2.41c1.27,0,2.28,1.08,2.28,2.41S98.76,175.72,97.48,175.72z M106.98,176.82h0.42
	c0.32,0,0.5-0.18,0.5-0.5v-2.17c0-2.87,1.26-3.12,1.76-3.12c0.13,0,0.25,0.01,0.38,0.04c0.24,0.06,0.38-0.08,0.38-0.43v-0.41
	c0-0.28-0.04-0.52-0.34-0.56l-0.31-0.01c-0.84,0-1.64,0.6-1.88,1.72v-1.06c0-0.32-0.18-0.5-0.5-0.5h-0.42
	c-0.32,0-0.52,0.18-0.52,0.5v6.01C106.46,176.64,106.66,176.82,106.98,176.82z M114.96,176.98c0.88,0,1.82-0.21,2.63-0.87
	c0.32-0.27,0.32-0.56,0.1-0.8l-0.1-0.11c-0.22-0.22-0.45-0.24-0.71-0.07c-0.6,0.41-1.22,0.59-1.9,0.59c-1.53,0-2.6-0.95-2.56-2.25
	h5.43c0.34,0,0.53-0.18,0.49-0.52c-0.2-2.24-1.81-3.29-3.57-3.29c-2.18,0-3.78,1.64-3.78,3.68
	C110.99,175.34,112.5,176.98,114.96,176.98z M112.54,172.4c0.43-1.19,1.44-1.51,2.25-1.51c0.77,0,1.75,0.27,2.11,1.51H112.54z
	 M122.83,176.98c0.94,0,1.85-0.32,2.51-1.26v0.6c0,0.32,0.2,0.5,0.52,0.5h0.42c0.32,0,0.5-0.18,0.5-0.5v-6.01
	c0-0.32-0.18-0.5-0.5-0.5h-0.42c-0.32,0-0.52,0.18-0.52,0.5v0.6c-0.66-0.94-1.57-1.26-2.51-1.26c-2.09,0-3.47,1.64-3.47,3.65
	C119.36,175.33,120.74,176.98,122.83,176.98z M123.02,175.72c-1.41,0-2.23-1.09-2.23-2.41c0-1.3,0.81-2.41,2.23-2.41
	c1.39,0,2.32,1.02,2.34,2.41C125.35,174.7,124.41,175.72,123.02,175.72z M131.86,176.98c0.94,0,1.85-0.32,2.51-1.26v0.6
	c0,0.32,0.2,0.5,0.52,0.5h0.42c0.32,0,0.5-0.18,0.5-0.5v-9.11c0-0.32-0.18-0.5-0.5-0.5h-0.42c-0.32,0-0.52,0.18-0.52,0.5v3.71
	c-0.66-0.94-1.57-1.26-2.51-1.26c-2.09,0-3.47,1.64-3.47,3.65C128.39,175.33,129.78,176.98,131.86,176.98z M132.06,175.72
	c-1.41,0-2.23-1.09-2.23-2.41c0-1.3,0.81-2.41,2.23-2.41c1.39,0,2.32,1.02,2.34,2.41C134.38,174.7,133.45,175.72,132.06,175.72z
	 M144.57,176.98c0.94,0,1.85-0.32,2.51-1.26v0.6c0,0.32,0.2,0.5,0.52,0.5h0.42c0.32,0,0.5-0.18,0.5-0.5v-6.01
	c0-0.32-0.18-0.5-0.5-0.5h-0.42c-0.32,0-0.52,0.18-0.52,0.5v0.6c-0.66-0.94-1.57-1.26-2.51-1.26c-2.09,0-3.47,1.64-3.47,3.65
	C141.09,175.33,142.48,176.98,144.57,176.98z M144.76,175.72c-1.41,0-2.23-1.09-2.23-2.41c0-1.3,0.81-2.41,2.23-2.41
	c1.39,0,2.32,1.02,2.34,2.41C147.09,174.7,146.15,175.72,144.76,175.72z M151.14,176.82h0.42c0.32,0,0.5-0.18,0.5-0.5v-2.79
	c0-2.13,1.46-2.62,2.18-2.62c0.74,0,1.4,0.52,1.4,1.96v3.44c0,0.32,0.18,0.5,0.5,0.5h0.42c0.32,0,0.52-0.18,0.52-0.5v-3.46
	c0-2.2-1.13-3.21-2.69-3.21c-1.13,0-2.03,0.55-2.34,1.53v-0.87c0-0.32-0.18-0.5-0.5-0.5h-0.42c-0.32,0-0.52,0.18-0.52,0.5v6.01
	C150.62,176.64,150.82,176.82,151.14,176.82z M162.08,176.98c0.94,0,1.85-0.32,2.51-1.26v0.6c0,0.32,0.2,0.5,0.52,0.5h0.42
	c0.32,0,0.5-0.18,0.5-0.5v-9.11c0-0.32-0.18-0.5-0.5-0.5h-0.42c-0.32,0-0.52,0.18-0.52,0.5v3.71c-0.66-0.94-1.57-1.26-2.51-1.26
	c-2.09,0-3.47,1.64-3.47,3.65C158.61,175.33,159.99,176.98,162.08,176.98z M162.28,175.72c-1.41,0-2.23-1.09-2.23-2.41
	c0-1.3,0.81-2.41,2.23-2.41c1.39,0,2.32,1.02,2.34,2.41C164.6,174.7,163.66,175.72,162.28,175.72z M175.27,176.98
	c0.88,0,1.82-0.21,2.63-0.87c0.32-0.27,0.32-0.56,0.1-0.8l-0.1-0.11c-0.22-0.22-0.45-0.24-0.71-0.07c-0.6,0.41-1.22,0.59-1.9,0.59
	c-1.53,0-2.6-0.95-2.56-2.25h5.43c0.34,0,0.53-0.18,0.49-0.52c-0.2-2.24-1.81-3.29-3.57-3.29c-2.18,0-3.78,1.64-3.78,3.68
	C171.29,175.34,172.81,176.98,175.27,176.98z M172.85,172.4c0.43-1.19,1.44-1.51,2.25-1.51c0.77,0,1.75,0.27,2.11,1.51H172.85z
	 M183.13,176.98c0.94,0,1.85-0.32,2.51-1.26v0.6c0,0.32,0.2,0.5,0.52,0.5h0.42c0.32,0,0.5-0.18,0.5-0.5v-6.01
	c0-0.32-0.18-0.5-0.5-0.5h-0.42c-0.32,0-0.52,0.18-0.52,0.5v0.6c-0.66-0.94-1.57-1.26-2.51-1.26c-2.09,0-3.47,1.64-3.47,3.65
	C179.66,175.33,181.05,176.98,183.13,176.98z M183.33,175.72c-1.41,0-2.23-1.09-2.23-2.41c0-1.3,0.81-2.41,2.23-2.41
	c1.39,0,2.32,1.02,2.34,2.41C185.65,174.7,184.72,175.72,183.33,175.72z M191.28,176.98c1.37,0,2.55-0.77,2.55-2.11
	c0-0.76-0.36-1.58-1.71-2l-1.01-0.34c-0.41-0.13-0.81-0.36-0.81-0.81c0-0.49,0.39-0.87,1.01-0.87c0.31,0,0.62,0.08,0.85,0.36
	c0.2,0.25,0.36,0.38,0.66,0.29l0.27-0.06c0.34-0.07,0.5-0.32,0.32-0.64c-0.46-0.85-1.29-1.15-2.14-1.15c-1.4,0-2.35,0.9-2.35,2.1
	c0,0.99,0.67,1.6,1.75,1.92l0.94,0.32c0.49,0.17,0.87,0.41,0.87,0.85c0,0.53-0.5,0.92-1.18,0.92c-0.55,0-1.02-0.22-1.3-0.57
	c-0.18-0.24-0.35-0.36-0.63-0.29l-0.29,0.08c-0.34,0.08-0.5,0.31-0.34,0.63C189.2,176.52,190.2,176.98,191.28,176.98z
	 M196.62,179.96h0.34c0.29,0,0.48-0.11,0.59-0.39l3.91-9.17c0.15-0.36-0.01-0.59-0.39-0.59h-0.57c-0.29,0-0.5,0.13-0.6,0.41
	l-1.79,4.73l-1.95-4.75c-0.1-0.27-0.28-0.39-0.57-0.39h-0.56c-0.38,0-0.55,0.24-0.39,0.59l2.69,6.16l-1.08,2.81
	C196.09,179.72,196.24,179.96,196.62,179.96z M208.8,176.98c1.34,0,2.1-0.77,2.1-1.82c0-0.01,0-0.28-0.06-0.52
	c-0.03-0.18-0.15-0.25-0.32-0.25h-0.64c-0.2,0-0.28,0.13-0.25,0.32c0.03,0.11,0.03,0.21,0.03,0.27c0,0.5-0.39,0.76-0.83,0.76
	c-0.45,0-0.81-0.29-0.81-1.05v-3.75h1.92c0.18,0,0.28-0.11,0.28-0.29v-0.55c0-0.18-0.1-0.28-0.28-0.28h-1.92v-1.58
	c0-0.27-0.15-0.43-0.42-0.43h-0.29c-0.25,0-0.41,0.14-0.45,0.41l-0.25,1.61h-0.88c-0.18,0-0.28,0.1-0.28,0.28v0.55
	c0,0.18,0.1,0.29,0.28,0.29h0.85v3.67C206.57,176.4,207.68,176.98,208.8,176.98z M215.32,176.98c2.06,0,3.72-1.64,3.72-3.67
	c0-2-1.67-3.65-3.72-3.65c-2.04,0-3.7,1.64-3.7,3.65C211.63,175.35,213.28,176.98,215.32,176.98z M215.32,175.72
	c-1.25,0-2.27-1.06-2.27-2.39s1.02-2.41,2.27-2.41c1.27,0,2.28,1.08,2.28,2.41S216.6,175.72,215.32,175.72z M226.87,176.98
	c1.13,0,2.03-0.55,2.34-1.53v0.87c0,0.32,0.18,0.5,0.5,0.5h0.42c0.32,0,0.52-0.18,0.52-0.5v-6.01c0-0.32-0.2-0.5-0.52-0.5h-0.42
	c-0.32,0-0.5,0.18-0.5,0.5v2.79c0,2.11-1.46,2.62-2.18,2.62c-0.74,0-1.39-0.53-1.39-1.96v-3.44c0-0.32-0.2-0.5-0.52-0.5h-0.42
	c-0.32,0-0.5,0.18-0.5,0.5v3.46C224.2,175.97,225.32,176.98,226.87,176.98z M233.27,176.82h0.42c0.32,0,0.5-0.18,0.5-0.5v-2.79
	c0-2.13,1.46-2.62,2.18-2.62c0.74,0,1.4,0.52,1.4,1.96v3.44c0,0.32,0.18,0.5,0.5,0.5h0.42c0.32,0,0.52-0.18,0.52-0.5v-3.46
	c0-2.2-1.13-3.21-2.69-3.21c-1.13,0-2.03,0.55-2.34,1.53v-0.87c0-0.32-0.18-0.5-0.5-0.5h-0.42c-0.32,0-0.52,0.18-0.52,0.5v6.01
	C232.75,176.64,232.94,176.82,233.27,176.82z M244.21,176.98c0.94,0,1.85-0.32,2.51-1.26v0.6c0,0.32,0.2,0.5,0.52,0.5h0.42
	c0.32,0,0.5-0.18,0.5-0.5v-9.11c0-0.32-0.18-0.5-0.5-0.5h-0.42c-0.32,0-0.52,0.18-0.52,0.5v3.71c-0.66-0.94-1.57-1.26-2.51-1.26
	c-2.09,0-3.47,1.64-3.47,3.65C240.73,175.33,242.12,176.98,244.21,176.98z M244.4,175.72c-1.41,0-2.23-1.09-2.23-2.41
	c0-1.3,0.81-2.41,2.23-2.41c1.39,0,2.32,1.02,2.34,2.41C246.73,174.7,245.79,175.72,244.4,175.72z M253.73,176.98
	c0.88,0,1.82-0.21,2.63-0.87c0.32-0.27,0.32-0.56,0.1-0.8l-0.1-0.11c-0.22-0.22-0.45-0.24-0.71-0.07c-0.6,0.41-1.22,0.59-1.9,0.59
	c-1.53,0-2.6-0.95-2.56-2.25h5.43c0.34,0,0.53-0.18,0.49-0.52c-0.2-2.24-1.81-3.29-3.57-3.29c-2.18,0-3.78,1.64-3.78,3.68
	C249.76,175.34,251.27,176.98,253.73,176.98z M251.31,172.4c0.43-1.19,1.44-1.51,2.25-1.51c0.77,0,1.75,0.27,2.11,1.51H251.31z
	 M259.15,176.82h0.42c0.32,0,0.5-0.18,0.5-0.5v-2.17c0-2.87,1.26-3.12,1.76-3.12c0.13,0,0.25,0.01,0.38,0.04
	c0.24,0.06,0.38-0.08,0.38-0.43v-0.41c0-0.28-0.04-0.52-0.34-0.56l-0.31-0.01c-0.84,0-1.64,0.6-1.88,1.72v-1.06
	c0-0.32-0.18-0.5-0.5-0.5h-0.42c-0.32,0-0.52,0.18-0.52,0.5v6.01C258.63,176.64,258.82,176.82,259.15,176.82z M265.9,176.98
	c1.37,0,2.55-0.77,2.55-2.11c0-0.76-0.36-1.58-1.71-2l-1.01-0.34c-0.41-0.13-0.81-0.36-0.81-0.81c0-0.49,0.39-0.87,1.01-0.87
	c0.31,0,0.62,0.08,0.85,0.36c0.2,0.25,0.36,0.38,0.66,0.29l0.27-0.06c0.34-0.07,0.5-0.32,0.32-0.64c-0.46-0.85-1.29-1.15-2.14-1.15
	c-1.4,0-2.35,0.9-2.35,2.1c0,0.99,0.67,1.6,1.75,1.92l0.94,0.32c0.49,0.17,0.87,0.41,0.87,0.85c0,0.53-0.5,0.92-1.18,0.92
	c-0.55,0-1.02-0.22-1.3-0.57c-0.18-0.24-0.35-0.36-0.63-0.29l-0.29,0.08c-0.34,0.08-0.5,0.31-0.34,0.63
	C263.82,176.52,264.82,176.98,265.9,176.98z M272.61,176.98c1.34,0,2.1-0.77,2.1-1.82c0-0.01,0-0.28-0.06-0.52
	c-0.03-0.18-0.15-0.25-0.32-0.25h-0.64c-0.2,0-0.28,0.13-0.25,0.32c0.03,0.11,0.03,0.21,0.03,0.27c0,0.5-0.39,0.76-0.83,0.76
	c-0.45,0-0.81-0.29-0.81-1.05v-3.75h1.92c0.18,0,0.28-0.11,0.28-0.29v-0.55c0-0.18-0.1-0.28-0.28-0.28h-1.92v-1.58
	c0-0.27-0.15-0.43-0.42-0.43h-0.29c-0.25,0-0.41,0.14-0.45,0.41l-0.25,1.61h-0.88c-0.18,0-0.28,0.1-0.28,0.28v0.55
	c0,0.18,0.1,0.29,0.28,0.29h0.85v3.67C270.38,176.4,271.49,176.98,272.61,176.98z M278.92,176.98c0.94,0,1.85-0.32,2.51-1.26v0.6
	c0,0.32,0.2,0.5,0.52,0.5h0.42c0.32,0,0.5-0.18,0.5-0.5v-6.01c0-0.32-0.18-0.5-0.5-0.5h-0.42c-0.32,0-0.52,0.18-0.52,0.5v0.6
	c-0.66-0.94-1.57-1.26-2.51-1.26c-2.09,0-3.47,1.64-3.47,3.65C275.45,175.33,276.83,176.98,278.92,176.98z M279.12,175.72
	c-1.41,0-2.23-1.09-2.23-2.41c0-1.3,0.81-2.41,2.23-2.41c1.39,0,2.32,1.02,2.34,2.41C281.44,174.7,280.5,175.72,279.12,175.72z
	 M285.49,176.82h0.42c0.32,0,0.5-0.18,0.5-0.5v-2.79c0-2.13,1.46-2.62,2.18-2.62c0.74,0,1.4,0.52,1.4,1.96v3.44
	c0,0.32,0.18,0.5,0.5,0.5h0.42c0.32,0,0.52-0.18,0.52-0.5v-3.46c0-2.2-1.13-3.21-2.69-3.21c-1.13,0-2.03,0.55-2.34,1.53v-0.87
	c0-0.32-0.18-0.5-0.5-0.5h-0.42c-0.32,0-0.52,0.18-0.52,0.5v6.01C284.97,176.64,285.17,176.82,285.49,176.82z M296.43,176.98
	c0.94,0,1.85-0.32,2.51-1.26v0.6c0,0.32,0.2,0.5,0.52,0.5h0.42c0.32,0,0.5-0.18,0.5-0.5v-9.11c0-0.32-0.18-0.5-0.5-0.5h-0.42
	c-0.32,0-0.52,0.18-0.52,0.5v3.71c-0.66-0.94-1.57-1.26-2.51-1.26c-2.09,0-3.47,1.64-3.47,3.65
	C292.96,175.33,294.35,176.98,296.43,176.98z M296.63,175.72c-1.41,0-2.23-1.09-2.23-2.41c0-1.3,0.81-2.41,2.23-2.41
	c1.39,0,2.32,1.02,2.34,2.41C298.95,174.7,298.02,175.72,296.63,175.72z M303.27,176.98c0.59,0,1.06-0.46,1.06-1.04
	c0-0.59-0.48-1.06-1.06-1.06c-0.59,0-1.05,0.48-1.05,1.06C302.22,176.52,302.68,176.98,303.27,176.98z"/>
<path d="M37.83,228c1.02,0,2.42-0.22,3.7-1.17c0.37-0.29,0.5-0.54,0.5-0.85v-3.23c0-0.37-0.21-0.58-0.58-0.58h-3.5
	c-0.37,0-0.58,0.21-0.58,0.58v0.19c0,0.37,0.21,0.59,0.58,0.59h2.53v2.22c-0.75,0.48-1.58,0.72-2.56,0.72
	c-2.88,0-4.32-2.1-4.32-4.24c0-2.38,1.82-4.27,4.1-4.27c0.85,0,1.62,0.02,2.86,0.69c0.35,0.19,0.62,0.14,0.8-0.21l0.16-0.27
	c0.18-0.34,0.11-0.61-0.19-0.8c-1.09-0.67-2.26-0.93-3.63-0.93c-3.23,0-5.82,2.58-5.82,5.81C31.86,225.41,34.36,228,37.83,228z
	 M44.7,227.82h0.48c0.37,0,0.58-0.21,0.58-0.58v-2.48c0-3.28,1.44-3.57,2.02-3.57c0.14,0,0.29,0.02,0.43,0.05
	c0.27,0.06,0.43-0.1,0.43-0.5v-0.46c0-0.32-0.05-0.59-0.38-0.64l-0.35-0.02c-0.96,0-1.87,0.69-2.14,1.97v-1.22
	c0-0.37-0.21-0.58-0.58-0.58H44.7c-0.37,0-0.59,0.21-0.59,0.58v6.86C44.1,227.62,44.33,227.82,44.7,227.82z M53.5,228
	c2.35,0,4.26-1.87,4.26-4.19c0-2.29-1.9-4.18-4.26-4.18c-2.34,0-4.22,1.87-4.22,4.18C49.28,226.14,51.17,228,53.5,228z M53.5,226.56
	c-1.42,0-2.59-1.22-2.59-2.74s1.17-2.75,2.59-2.75c1.46,0,2.61,1.23,2.61,2.75S54.96,226.56,53.5,226.56z M62.52,228
	c1.3,0,2.32-0.62,2.67-1.74v0.99c0,0.37,0.21,0.58,0.58,0.58h0.48c0.37,0,0.59-0.21,0.59-0.58v-6.86c0-0.37-0.22-0.58-0.59-0.58
	h-0.48c-0.37,0-0.58,0.21-0.58,0.58v3.18c0,2.42-1.66,2.99-2.5,2.99c-0.85,0-1.58-0.61-1.58-2.24v-3.94c0-0.37-0.22-0.58-0.59-0.58
	h-0.48c-0.37,0-0.58,0.21-0.58,0.58v3.95C59.46,226.85,60.74,228,62.52,228z M69.82,231.41h0.48c0.37,0,0.58-0.21,0.58-0.58v-4.27
	c0.75,1.07,1.81,1.44,2.88,1.44c2.38,0,3.97-1.89,3.97-4.19s-1.58-4.18-3.97-4.18c-1.07,0-2.13,0.37-2.88,1.44v-0.69
	c0-0.37-0.21-0.58-0.58-0.58h-0.48c-0.37,0-0.59,0.21-0.59,0.58v10.45C69.23,231.2,69.45,231.41,69.82,231.41z M73.52,226.56
	c-1.57,0-2.66-1.17-2.67-2.75c0.02-1.58,1.1-2.75,2.67-2.75c1.63,0,2.56,1.26,2.56,2.75C76.08,225.31,75.15,226.56,73.52,226.56z
	 M84.32,227.82h0.48c0.37,0,0.58-0.21,0.58-0.58v-3.18c0-2.43,1.38-2.99,2.19-2.99c0.85,0,1.58,0.59,1.58,2.22v3.95
	c0,0.37,0.22,0.58,0.59,0.58h0.48c0.37,0,0.58-0.21,0.58-0.58v-3.36c0.08-2.35,1.46-2.82,2.19-2.82c0.85,0,1.58,0.59,1.58,2.22v3.95
	c0,0.37,0.22,0.58,0.59,0.58h0.48c0.37,0,0.58-0.21,0.58-0.58v-3.95c0-2.51-1.17-3.66-3.07-3.66c-0.96,0-2.05,0.27-2.72,1.65
	c-0.61-1.39-1.74-1.65-2.53-1.65c-1.17,0-2.19,0.59-2.53,1.74v-0.99c0-0.37-0.21-0.58-0.58-0.58h-0.48c-0.37,0-0.59,0.21-0.59,0.58
	v6.86C83.73,227.62,83.95,227.82,84.32,227.82z M102.48,228c1.01,0,2.08-0.24,3.01-0.99c0.37-0.3,0.37-0.64,0.11-0.91l-0.11-0.13
	c-0.26-0.26-0.51-0.27-0.82-0.08c-0.69,0.46-1.39,0.67-2.18,0.67c-1.74,0-2.98-1.09-2.93-2.58h6.21c0.38,0,0.61-0.21,0.56-0.59
	c-0.22-2.56-2.06-3.76-4.08-3.76c-2.5,0-4.32,1.87-4.32,4.21C97.93,226.13,99.66,228,102.48,228z M99.71,222.77
	c0.5-1.36,1.65-1.73,2.58-1.73c0.88,0,2,0.3,2.42,1.73H99.71z M108.67,227.82h0.48c0.37,0,0.58-0.21,0.58-0.58v-3.18
	c0-2.43,1.38-2.99,2.19-2.99c0.85,0,1.58,0.59,1.58,2.22v3.95c0,0.37,0.22,0.58,0.59,0.58h0.48c0.37,0,0.58-0.21,0.58-0.58v-3.36
	c0.08-2.35,1.46-2.82,2.19-2.82c0.85,0,1.58,0.59,1.58,2.22v3.95c0,0.37,0.22,0.58,0.59,0.58h0.48c0.37,0,0.58-0.21,0.58-0.58v-3.95
	c0-2.51-1.17-3.66-3.07-3.66c-0.96,0-2.05,0.27-2.72,1.65c-0.61-1.39-1.74-1.65-2.53-1.65c-1.17,0-2.19,0.59-2.53,1.74v-0.99
	c0-0.37-0.21-0.58-0.58-0.58h-0.48c-0.37,0-0.59,0.21-0.59,0.58v6.86C108.07,227.62,108.3,227.82,108.67,227.82z M127.4,228
	c2.38,0,3.97-1.89,3.97-4.19s-1.58-4.18-3.97-4.18c-1.07,0-2.13,0.37-2.88,1.44v-4.24c0-0.37-0.21-0.58-0.58-0.58h-0.48
	c-0.37,0-0.59,0.21-0.59,0.58v10.42c0,0.37,0.22,0.58,0.59,0.58h0.48c0.37,0,0.58-0.21,0.58-0.58v-0.69
	C125.27,227.63,126.33,228,127.4,228z M127.16,226.56c-1.57,0-2.66-1.17-2.67-2.75c0.02-1.58,1.1-2.75,2.67-2.75
	c1.63,0,2.56,1.26,2.56,2.75C129.72,225.31,128.79,226.56,127.16,226.56z M137.17,228c1.01,0,2.08-0.24,3.01-0.99
	c0.37-0.3,0.37-0.64,0.11-0.91l-0.11-0.13c-0.26-0.26-0.51-0.27-0.82-0.08c-0.69,0.46-1.39,0.67-2.18,0.67
	c-1.74,0-2.98-1.09-2.93-2.58h6.21c0.38,0,0.61-0.21,0.56-0.59c-0.22-2.56-2.06-3.76-4.08-3.76c-2.5,0-4.32,1.87-4.32,4.21
	C132.62,226.13,134.35,228,137.17,228z M134.4,222.77c0.5-1.36,1.65-1.73,2.58-1.73c0.88,0,2,0.3,2.42,1.73H134.4z M143.35,227.82
	h0.48c0.37,0,0.58-0.21,0.58-0.58v-2.48c0-3.28,1.44-3.57,2.02-3.57c0.14,0,0.29,0.02,0.43,0.05c0.27,0.06,0.43-0.1,0.43-0.5v-0.46
	c0-0.32-0.05-0.59-0.38-0.64l-0.35-0.02c-0.96,0-1.87,0.69-2.14,1.97v-1.22c0-0.37-0.21-0.58-0.58-0.58h-0.48
	c-0.37,0-0.59,0.21-0.59,0.58v6.86C142.76,227.62,142.99,227.82,143.35,227.82z M151.07,228c1.57,0,2.91-0.88,2.91-2.42
	c0-0.86-0.42-1.81-1.95-2.29l-1.15-0.38c-0.46-0.14-0.93-0.42-0.93-0.93c0-0.56,0.45-0.99,1.15-0.99c0.35,0,0.7,0.1,0.98,0.42
	c0.22,0.29,0.42,0.43,0.75,0.34l0.3-0.06c0.38-0.08,0.58-0.37,0.37-0.74c-0.53-0.98-1.47-1.31-2.45-1.31c-1.6,0-2.69,1.02-2.69,2.4
	c0,1.14,0.77,1.82,2,2.19l1.07,0.37c0.56,0.19,0.99,0.46,0.99,0.98c0,0.61-0.58,1.06-1.34,1.06c-0.62,0-1.17-0.26-1.49-0.66
	c-0.21-0.27-0.4-0.42-0.72-0.34l-0.34,0.1c-0.38,0.1-0.58,0.35-0.38,0.72C148.7,227.47,149.84,228,151.07,228z"/>
<path d="M67.17,267.82h6.05c0.5,0,0.78-0.27,0.78-0.77v-0.61c0-0.5-0.29-0.77-0.78-0.77h-4.29v-8.29c0-0.5-0.27-0.77-0.77-0.77
	h-0.99c-0.5,0-0.78,0.27-0.78,0.77v9.66C66.39,267.55,66.68,267.82,67.17,267.82z M78.62,268c1.09,0,2.05-0.42,2.64-1.33v0.38
	c0,0.5,0.27,0.77,0.77,0.77h0.94c0.5,0,0.77-0.27,0.77-0.77v-6.69c0-0.5-0.27-0.77-0.77-0.77h-0.94c-0.5,0-0.77,0.27-0.77,0.77v0.4
	c-0.59-0.93-1.55-1.34-2.64-1.34c-2.3,0-3.95,1.87-3.95,4.29C74.67,266.14,76.31,268,78.62,268z M79.19,266.02
	c-1.3,0-2.05-1.02-2.05-2.3c0-1.26,0.75-2.3,2.05-2.3c1.26,0,2.1,0.99,2.1,2.3S80.46,266.02,79.19,266.02z M88.61,268
	c1.23,0,2.1-0.54,2.51-1.47v0.53c0,0.5,0.27,0.77,0.77,0.77h0.93c0.5,0,0.78-0.27,0.78-0.77v-6.69c0-0.5-0.29-0.77-0.78-0.77h-0.93
	c-0.5,0-0.77,0.27-0.77,0.77v3.42c0,1.54-0.9,2.21-1.73,2.21c-0.85,0-1.3-0.69-1.3-1.84v-3.79c0-0.5-0.27-0.77-0.77-0.77h-0.94
	c-0.5,0-0.77,0.27-0.77,0.77v3.97C85.61,266.27,86.41,268,88.61,268z M96.35,267.82h0.94c0.5,0,0.77-0.27,0.77-0.77v-2.59
	c0-2.06,0.88-2.69,1.84-2.69c0.13,0,0.26,0.02,0.4,0.03c0.34,0.05,0.56-0.14,0.56-0.59v-1.12c0-0.32-0.08-0.62-0.46-0.66l-0.27-0.02
	c-0.7,0-1.86,0.46-2.13,1.97v-1.02c0-0.5-0.27-0.77-0.77-0.77h-0.88c-0.5,0-0.77,0.27-0.77,0.77v6.69
	C95.58,267.55,95.86,267.82,96.35,267.82z M106.14,268c1.06,0,2.16-0.24,3.1-0.93c0.43-0.32,0.46-0.75,0.14-1.14l-0.18-0.22
	c-0.3-0.37-0.66-0.4-1.09-0.16c-0.62,0.35-1.23,0.5-1.82,0.5c-1.58,0-2.56-0.94-2.53-1.92h5.73c0.48,0,0.8-0.21,0.78-0.67
	c-0.11-2.62-2.03-4.03-4.37-4.03c-2.77,0-4.51,2-4.51,4.32C101.4,266.1,103.19,268,106.14,268z M103.83,262.75
	c0.27-1.07,1.25-1.46,2.11-1.46c0.85,0,1.79,0.35,2.02,1.46H103.83z M112.46,267.82h0.94c0.5,0,0.77-0.27,0.77-0.77v-3.42
	c0-1.54,0.88-2.19,1.73-2.19s1.3,0.67,1.3,1.82v3.79c0,0.5,0.27,0.77,0.77,0.77h0.93c0.5,0,0.78-0.27,0.78-0.77v-3.97
	c0-1.94-0.8-3.66-3.01-3.66c-1.22,0-2.1,0.54-2.5,1.49v-0.54c0-0.5-0.27-0.77-0.77-0.77h-0.94c-0.5,0-0.77,0.27-0.77,0.77v6.69
	C111.69,267.55,111.97,267.82,112.46,267.82z M124.87,268c1.49,0,2.75-0.74,2.75-2.51c0-0.13-0.03-0.38-0.1-0.62
	c-0.06-0.24-0.24-0.32-0.45-0.32h-0.98c-0.27,0-0.37,0.14-0.34,0.43c0.02,0.11,0.02,0.21,0.02,0.29c0,0.43-0.27,0.75-0.69,0.75
	c-0.37,0-0.67-0.24-0.67-0.85v-3.73h1.86c0.26,0,0.4-0.14,0.4-0.4V260c0-0.26-0.14-0.4-0.4-0.4h-1.86v-1.62
	c0-0.35-0.19-0.56-0.56-0.56h-0.78c-0.34,0-0.56,0.18-0.62,0.51l-0.27,1.66h-1.01c-0.26,0-0.42,0.14-0.42,0.4v1.04
	c0,0.26,0.16,0.4,0.42,0.4h0.82v3.65C121.99,267.36,123.48,268,124.87,268z M135.92,270.85l0.48-0.27c0.19-0.13,0.22-0.3,0.11-0.48
	c-0.83-1.25-2.21-3.62-2.21-6.77c0-3.18,1.38-5.55,2.21-6.78c0.11-0.19,0.06-0.37-0.13-0.48l-0.46-0.29
	c-0.19-0.11-0.35-0.1-0.48,0.06c-0.98,1.1-2.77,3.73-2.77,7.46c0,3.76,1.79,6.38,2.77,7.49
	C135.57,270.94,135.74,270.96,135.92,270.85z M141.01,268c1.07,0,2.11-0.37,2.86-1.44v0.69c0,0.37,0.22,0.58,0.59,0.58h0.48
	c0.37,0,0.58-0.21,0.58-0.58v-6.86c0-0.37-0.21-0.58-0.58-0.58h-0.48c-0.37,0-0.59,0.21-0.59,0.58v0.69
	c-0.75-1.07-1.79-1.44-2.86-1.44c-2.38,0-3.97,1.87-3.97,4.18C137.04,266.11,138.63,268,141.01,268z M141.24,266.56
	c-1.62,0-2.54-1.25-2.54-2.75c0-1.49,0.93-2.75,2.54-2.75c1.58,0,2.66,1.17,2.67,2.75C143.89,265.39,142.82,266.56,141.24,266.56z
	 M151.34,268c1.07,0,2.11-0.37,2.86-1.44v0.69c0,0.37,0.22,0.58,0.59,0.58h0.48c0.37,0,0.58-0.21,0.58-0.58v-10.42
	c0-0.37-0.21-0.58-0.58-0.58h-0.48c-0.37,0-0.59,0.21-0.59,0.58v4.24c-0.75-1.07-1.79-1.44-2.86-1.44c-2.38,0-3.97,1.87-3.97,4.18
	C147.37,266.11,148.96,268,151.34,268z M151.57,266.56c-1.62,0-2.54-1.25-2.54-2.75c0-1.49,0.93-2.75,2.54-2.75
	c1.58,0,2.66,1.17,2.67,2.75C154.22,265.39,153.15,266.56,151.57,266.56z M158.87,267.82h0.48c0.37,0,0.58-0.21,0.58-0.58v-3.18
	c0-2.43,1.38-2.99,2.19-2.99c0.85,0,1.58,0.59,1.58,2.22v3.95c0,0.37,0.22,0.58,0.59,0.58h0.48c0.37,0,0.58-0.21,0.58-0.58v-3.36
	c0.08-2.35,1.46-2.82,2.19-2.82c0.85,0,1.58,0.59,1.58,2.22v3.95c0,0.37,0.22,0.58,0.59,0.58h0.48c0.37,0,0.58-0.21,0.58-0.58v-3.95
	c0-2.51-1.17-3.66-3.07-3.66c-0.96,0-2.05,0.27-2.72,1.65c-0.61-1.39-1.74-1.65-2.53-1.65c-1.17,0-2.19,0.59-2.53,1.74v-0.99
	c0-0.37-0.21-0.58-0.58-0.58h-0.48c-0.37,0-0.59,0.21-0.59,0.58v6.86C158.28,267.62,158.5,267.82,158.87,267.82z M173.94,258.35
	c0.64,0,1.14-0.48,1.14-1.09c0-0.62-0.48-1.12-1.14-1.12c-0.64,0-1.1,0.5-1.1,1.12C172.83,257.87,173.3,258.35,173.94,258.35z
	 M173.71,267.82h0.48c0.37,0,0.58-0.21,0.58-0.58v-6.86c0-0.37-0.21-0.58-0.58-0.58h-0.48c-0.37,0-0.59,0.21-0.59,0.58v6.86
	C173.12,267.62,173.35,267.82,173.71,267.82z M177.82,267.82h0.48c0.37,0,0.58-0.21,0.58-0.58v-3.18c0-2.43,1.66-2.99,2.5-2.99
	c0.85,0,1.6,0.59,1.6,2.24v3.94c0,0.37,0.21,0.58,0.58,0.58h0.48c0.37,0,0.59-0.21,0.59-0.58v-3.95c0-2.51-1.3-3.66-3.07-3.66
	c-1.3,0-2.32,0.62-2.67,1.74v-0.99c0-0.37-0.21-0.58-0.58-0.58h-0.48c-0.37,0-0.59,0.21-0.59,0.58v6.86
	C177.23,267.62,177.45,267.82,177.82,267.82z M186.9,270.78c0.96-1.1,2.75-3.73,2.75-7.49c0-3.73-1.79-6.35-2.75-7.47
	c-0.14-0.14-0.32-0.16-0.48-0.06l-0.5,0.3c-0.18,0.11-0.22,0.29-0.1,0.48c0.82,1.23,2.19,3.6,2.19,6.78c0,3.15-1.38,5.52-2.19,6.77
	c-0.13,0.18-0.08,0.35,0.1,0.48l0.5,0.27C186.58,270.96,186.75,270.94,186.9,270.78z"/>
<circle class="st2" cx="46.14" cy="263.82" r="11"/>
<path d="M71.84,298c1.49,0,2.56-0.43,3.5-1.1c0.35-0.26,0.37-0.61,0.08-1.02l-0.4-0.5c-0.29-0.4-0.64-0.4-1.07-0.14
	c-0.64,0.37-1.41,0.56-2.11,0.56c-2.24,0-3.6-1.6-3.6-3.57c0-1.97,1.36-3.57,3.6-3.57c0.7,0,1.47,0.19,2.11,0.56
	c0.43,0.26,0.78,0.26,1.07-0.14l0.4-0.5c0.29-0.4,0.24-0.8-0.16-1.07c-0.93-0.64-1.98-1.06-3.42-1.06c-3.79,0-6.14,2.66-6.14,5.78
	S68.05,298,71.84,298z M80.46,298c1.09,0,2.05-0.42,2.64-1.33v0.38c0,0.5,0.27,0.77,0.77,0.77h0.94c0.5,0,0.77-0.27,0.77-0.77v-6.69
	c0-0.5-0.27-0.77-0.77-0.77h-0.94c-0.5,0-0.77,0.27-0.77,0.77v0.4c-0.59-0.93-1.55-1.34-2.64-1.34c-2.3,0-3.95,1.87-3.95,4.29
	C76.51,296.14,78.16,298,80.46,298z M81.04,296.02c-1.3,0-2.05-1.02-2.05-2.3c0-1.26,0.75-2.3,2.05-2.3c1.26,0,2.1,0.99,2.1,2.3
	S82.3,296.02,81.04,296.02z M88.34,297.82h0.94c0.5,0,0.77-0.27,0.77-0.77v-3.42c0-1.54,0.88-2.19,1.73-2.19s1.3,0.67,1.3,1.82v3.79
	c0,0.5,0.27,0.77,0.77,0.77h0.93c0.5,0,0.78-0.27,0.78-0.77v-3.97c0-1.94-0.8-3.66-3.01-3.66c-1.22,0-2.1,0.54-2.5,1.49v-0.54
	c0-0.5-0.27-0.77-0.77-0.77h-0.94c-0.5,0-0.77,0.27-0.77,0.77v6.69C87.57,297.55,87.84,297.82,88.34,297.82z M100.9,298
	c1.07,0,2.03-0.42,2.62-1.33v0.38c0,0.5,0.29,0.77,0.78,0.77h0.93c0.5,0,0.77-0.27,0.77-0.77v-10.03c0-0.5-0.27-0.77-0.77-0.77
	h-0.93c-0.5,0-0.78,0.27-0.78,0.77v3.74c-0.59-0.93-1.55-1.34-2.62-1.34c-2.32,0-3.97,1.87-3.97,4.29
	C96.93,296.14,98.58,298,100.9,298z M101.46,296.02c-1.28,0-2.05-1.02-2.05-2.3c0-1.26,0.77-2.3,2.05-2.3c1.26,0,2.1,0.99,2.11,2.3
	C103.56,295.02,102.72,296.02,101.46,296.02z M109.25,288.62c0.91,0,1.49-0.56,1.49-1.28c0-0.74-0.54-1.3-1.49-1.3
	c-0.96,0-1.49,0.56-1.49,1.3C107.77,288.06,108.34,288.62,109.25,288.62z M108.79,297.82h0.93c0.5,0,0.78-0.27,0.78-0.77v-6.69
	c0-0.5-0.29-0.77-0.78-0.77h-0.93c-0.5,0-0.77,0.27-0.77,0.77v6.69C108.02,297.55,108.29,297.82,108.79,297.82z M115.98,298
	c1.07,0,2.03-0.42,2.62-1.33v0.38c0,0.5,0.29,0.77,0.78,0.77h0.93c0.5,0,0.77-0.27,0.77-0.77v-10.03c0-0.5-0.27-0.77-0.77-0.77
	h-0.93c-0.5,0-0.78,0.27-0.78,0.77v3.74c-0.59-0.93-1.55-1.34-2.62-1.34c-2.32,0-3.97,1.87-3.97,4.29
	C112.01,296.14,113.66,298,115.98,298z M116.54,296.02c-1.28,0-2.05-1.02-2.05-2.3c0-1.26,0.77-2.3,2.05-2.3
	c1.26,0,2.1,0.99,2.11,2.3C118.63,295.02,117.8,296.02,116.54,296.02z M127.29,298c1.06,0,2.16-0.24,3.1-0.93
	c0.43-0.32,0.46-0.75,0.14-1.14l-0.18-0.22c-0.3-0.37-0.66-0.4-1.09-0.16c-0.62,0.35-1.23,0.5-1.82,0.5c-1.58,0-2.56-0.94-2.53-1.92
	h5.73c0.48,0,0.8-0.21,0.78-0.67c-0.11-2.62-2.03-4.03-4.37-4.03c-2.77,0-4.51,2-4.51,4.32C122.56,296.1,124.35,298,127.29,298z
	 M124.99,292.75c0.27-1.07,1.25-1.46,2.11-1.46c0.85,0,1.79,0.35,2.02,1.46H124.99z"/>
<path d="M48.29,336c1.01,0,2.08-0.24,3.01-0.99c0.37-0.3,0.37-0.64,0.11-0.91l-0.11-0.13c-0.26-0.26-0.51-0.27-0.82-0.08
	c-0.69,0.46-1.39,0.67-2.18,0.67c-1.74,0-2.98-1.09-2.93-2.58h6.21c0.38,0,0.61-0.21,0.56-0.59c-0.22-2.56-2.06-3.76-4.08-3.76
	c-2.5,0-4.32,1.87-4.32,4.21C43.75,334.13,45.48,336,48.29,336z M45.52,330.77c0.5-1.36,1.65-1.73,2.58-1.73c0.88,0,2,0.3,2.42,1.73
	H45.52z M54.48,335.82h0.48c0.37,0,0.58-0.21,0.58-0.58v-3.18c0-2.43,1.38-2.99,2.19-2.99c0.85,0,1.58,0.59,1.58,2.22v3.95
	c0,0.37,0.22,0.58,0.59,0.58h0.48c0.37,0,0.58-0.21,0.58-0.58v-3.36c0.08-2.35,1.46-2.82,2.19-2.82c0.85,0,1.58,0.59,1.58,2.22v3.95
	c0,0.37,0.22,0.58,0.59,0.58h0.48c0.37,0,0.58-0.21,0.58-0.58v-3.95c0-2.51-1.17-3.66-3.07-3.66c-0.96,0-2.05,0.27-2.72,1.65
	c-0.61-1.39-1.74-1.65-2.53-1.65c-1.17,0-2.19,0.59-2.53,1.74v-0.99c0-0.37-0.21-0.58-0.58-0.58h-0.48c-0.37,0-0.59,0.21-0.59,0.58
	v6.86C53.89,335.62,54.11,335.82,54.48,335.82z M72.08,336c1.07,0,2.11-0.37,2.86-1.44v0.69c0,0.37,0.22,0.58,0.59,0.58h0.48
	c0.37,0,0.58-0.21,0.58-0.58v-6.86c0-0.37-0.21-0.58-0.58-0.58h-0.48c-0.37,0-0.59,0.21-0.59,0.58v0.69
	c-0.75-1.07-1.79-1.44-2.86-1.44c-2.38,0-3.97,1.87-3.97,4.18C68.11,334.11,69.69,336,72.08,336z M72.3,334.56
	c-1.62,0-2.54-1.25-2.54-2.75c0-1.49,0.93-2.75,2.54-2.75c1.58,0,2.66,1.17,2.67,2.75C74.96,333.39,73.88,334.56,72.3,334.56z
	 M79.86,326.35c0.64,0,1.14-0.48,1.14-1.09c0-0.62-0.48-1.12-1.14-1.12c-0.64,0-1.1,0.5-1.1,1.12
	C78.76,325.87,79.22,326.35,79.86,326.35z M79.64,335.82h0.48c0.37,0,0.58-0.21,0.58-0.58v-6.86c0-0.37-0.21-0.58-0.58-0.58h-0.48
	c-0.37,0-0.59,0.21-0.59,0.58v6.86C79.04,335.62,79.27,335.82,79.64,335.82z M83.79,335.82h0.48c0.37,0,0.58-0.21,0.58-0.58v-10.42
	c0-0.37-0.21-0.58-0.58-0.58h-0.48c-0.37,0-0.59,0.21-0.59,0.58v10.42C83.2,335.62,83.42,335.82,83.79,335.82z M94.44,336
	c1.54,0,2.4-0.88,2.4-2.08c0-0.02,0-0.32-0.06-0.59c-0.03-0.21-0.18-0.29-0.37-0.29h-0.74c-0.22,0-0.32,0.14-0.29,0.37
	c0.03,0.13,0.03,0.24,0.03,0.3c0,0.58-0.45,0.86-0.94,0.86c-0.51,0-0.93-0.34-0.93-1.2v-4.29h2.19c0.21,0,0.32-0.13,0.32-0.34v-0.62
	c0-0.21-0.11-0.32-0.32-0.32h-2.19V326c0-0.3-0.18-0.5-0.48-0.5h-0.34c-0.29,0-0.46,0.16-0.51,0.46l-0.29,1.84h-1.01
	c-0.21,0-0.32,0.11-0.32,0.32v0.62c0,0.21,0.11,0.34,0.32,0.34h0.98v4.19C91.9,335.34,93.16,336,94.44,336z M101.89,336
	c2.35,0,4.26-1.87,4.26-4.19c0-2.29-1.9-4.18-4.26-4.18c-2.34,0-4.22,1.87-4.22,4.18C97.67,334.14,99.56,336,101.89,336z
	 M101.89,334.56c-1.42,0-2.59-1.22-2.59-2.74s1.17-2.75,2.59-2.75c1.46,0,2.61,1.23,2.61,2.75S103.35,334.56,101.89,334.56z
	 M115.54,336c1.07,0,2.11-0.37,2.86-1.44v0.69c0,0.37,0.22,0.58,0.59,0.58h0.48c0.37,0,0.58-0.21,0.58-0.58v-6.86
	c0-0.37-0.21-0.58-0.58-0.58H119c-0.37,0-0.59,0.21-0.59,0.58v0.69c-0.75-1.07-1.79-1.44-2.86-1.44c-2.38,0-3.97,1.87-3.97,4.18
	C111.58,334.11,113.16,336,115.54,336z M115.77,334.56c-1.62,0-2.54-1.25-2.54-2.75c0-1.49,0.93-2.75,2.54-2.75
	c1.58,0,2.66,1.17,2.67,2.75C118.42,333.39,117.35,334.56,115.77,334.56z M125.87,336c1.07,0,2.11-0.37,2.86-1.44v0.69
	c0,0.37,0.22,0.58,0.59,0.58h0.48c0.37,0,0.58-0.21,0.58-0.58v-10.42c0-0.37-0.21-0.58-0.58-0.58h-0.48c-0.37,0-0.59,0.21-0.59,0.58
	v4.24c-0.75-1.07-1.79-1.44-2.86-1.44c-2.38,0-3.97,1.87-3.97,4.18C121.9,334.11,123.49,336,125.87,336z M126.1,334.56
	c-1.62,0-2.54-1.25-2.54-2.75c0-1.49,0.93-2.75,2.54-2.75c1.58,0,2.66,1.17,2.67,2.75C128.75,333.39,127.68,334.56,126.1,334.56z
	 M133.4,335.82h0.48c0.37,0,0.58-0.21,0.58-0.58v-3.18c0-2.43,1.38-2.99,2.19-2.99c0.85,0,1.58,0.59,1.58,2.22v3.95
	c0,0.37,0.22,0.58,0.59,0.58h0.48c0.37,0,0.58-0.21,0.58-0.58v-3.36c0.08-2.35,1.46-2.82,2.19-2.82c0.85,0,1.58,0.59,1.58,2.22v3.95
	c0,0.37,0.22,0.58,0.59,0.58h0.48c0.37,0,0.58-0.21,0.58-0.58v-3.95c0-2.51-1.17-3.66-3.07-3.66c-0.96,0-2.05,0.27-2.72,1.65
	c-0.61-1.39-1.74-1.65-2.53-1.65c-1.17,0-2.19,0.59-2.53,1.74v-0.99c0-0.37-0.21-0.58-0.58-0.58h-0.48c-0.37,0-0.59,0.21-0.59,0.58
	v6.86C132.81,335.62,133.03,335.82,133.4,335.82z M148.47,326.35c0.64,0,1.14-0.48,1.14-1.09c0-0.62-0.48-1.12-1.14-1.12
	c-0.64,0-1.1,0.5-1.1,1.12C147.37,325.87,147.83,326.35,148.47,326.35z M148.25,335.82h0.48c0.37,0,0.58-0.21,0.58-0.58v-6.86
	c0-0.37-0.21-0.58-0.58-0.58h-0.48c-0.37,0-0.59,0.21-0.59,0.58v6.86C147.65,335.62,147.88,335.82,148.25,335.82z M152.35,335.82
	h0.48c0.37,0,0.58-0.21,0.58-0.58v-3.18c0-2.43,1.66-2.99,2.5-2.99c0.85,0,1.6,0.59,1.6,2.24v3.94c0,0.37,0.21,0.58,0.58,0.58h0.48
	c0.37,0,0.59-0.21,0.59-0.58v-3.95c0-2.51-1.3-3.66-3.07-3.66c-1.3,0-2.32,0.62-2.67,1.74v-0.99c0-0.37-0.21-0.58-0.58-0.58h-0.48
	c-0.37,0-0.59,0.21-0.59,0.58v6.86C151.76,335.62,151.99,335.82,152.35,335.82z"/>
<circle class="st2" cx="46.14" cy="292.82" r="11"/>
<path class="st3" d="M38.14,392.32h141c1.93,0,3.5,1.57,3.5,3.5v20c0,1.93-1.57,3.5-3.5,3.5h-141c-1.93,0-3.5-1.57-3.5-3.5v-20
	C34.64,393.89,36.21,392.32,38.14,392.32z"/>
<path class="st3" d="M38.14,318.32h127c1.93,0,3.5,1.57,3.5,3.5v20c0,1.93-1.57,3.5-3.5,3.5h-127c-1.93,0-3.5-1.57-3.5-3.5v-20
	C34.64,319.89,36.21,318.32,38.14,318.32z"/>
<path d="M42.25,409.82h5.65c0.37,0,0.59-0.21,0.59-0.58v-0.24c0-0.37-0.22-0.58-0.59-0.58h-4.53v-9.23c0-0.37-0.21-0.58-0.58-0.58
	h-0.54c-0.37,0-0.58,0.21-0.58,0.58v10.05C41.68,409.62,41.88,409.82,42.25,409.82z M53.64,410c1.01,0,2.08-0.24,3.01-0.99
	c0.37-0.3,0.37-0.64,0.11-0.91l-0.11-0.13c-0.26-0.26-0.51-0.27-0.82-0.08c-0.69,0.46-1.39,0.67-2.18,0.67
	c-1.74,0-2.98-1.09-2.93-2.58h6.21c0.38,0,0.61-0.21,0.56-0.59c-0.22-2.56-2.06-3.76-4.08-3.76c-2.5,0-4.32,1.87-4.32,4.21
	C49.09,408.13,50.82,410,53.64,410z M50.87,404.77c0.5-1.36,1.65-1.73,2.58-1.73c0.88,0,2,0.3,2.42,1.73H50.87z M62.62,410
	c1.07,0,2.11-0.37,2.86-1.44v0.69c0,0.37,0.22,0.58,0.59,0.58h0.48c0.37,0,0.58-0.21,0.58-0.58v-6.86c0-0.37-0.21-0.58-0.58-0.58
	h-0.48c-0.37,0-0.59,0.21-0.59,0.58v0.69c-0.75-1.07-1.79-1.44-2.86-1.44c-2.38,0-3.97,1.87-3.97,4.18
	C58.65,408.11,60.24,410,62.62,410z M62.85,408.56c-1.62,0-2.54-1.25-2.54-2.75c0-1.49,0.93-2.75,2.54-2.75
	c1.58,0,2.66,1.17,2.67,2.75C65.5,407.39,64.43,408.56,62.85,408.56z M72.31,409.82h0.83c0.34,0,0.56-0.16,0.69-0.46l2.67-6.9
	c0.14-0.4-0.02-0.66-0.45-0.66h-0.53c-0.34,0-0.54,0.14-0.67,0.46l-2.13,5.74l-2.13-5.74c-0.13-0.32-0.34-0.46-0.67-0.46H69.4
	c-0.43,0-0.59,0.26-0.45,0.66l2.67,6.9C71.75,409.66,71.97,409.82,72.31,409.82z M81.95,410c1.01,0,2.08-0.24,3.01-0.99
	c0.37-0.3,0.37-0.64,0.11-0.91l-0.11-0.13c-0.26-0.26-0.51-0.27-0.82-0.08c-0.69,0.46-1.39,0.67-2.18,0.67
	c-1.74,0-2.98-1.09-2.93-2.58h6.21c0.38,0,0.61-0.21,0.56-0.59c-0.22-2.56-2.06-3.76-4.08-3.76c-2.5,0-4.32,1.87-4.32,4.21
	C77.4,408.13,79.13,410,81.95,410z M79.18,404.77c0.5-1.36,1.65-1.73,2.58-1.73c0.88,0,2,0.3,2.42,1.73H79.18z M94.67,410
	c1.54,0,2.4-0.88,2.4-2.08c0-0.02,0-0.32-0.06-0.59c-0.03-0.21-0.18-0.29-0.37-0.29h-0.74c-0.22,0-0.32,0.14-0.29,0.37
	c0.03,0.13,0.03,0.24,0.03,0.3c0,0.58-0.45,0.86-0.94,0.86c-0.51,0-0.93-0.34-0.93-1.2v-4.29h2.19c0.21,0,0.32-0.13,0.32-0.34v-0.62
	c0-0.21-0.11-0.32-0.32-0.32h-2.19V400c0-0.3-0.18-0.5-0.48-0.5h-0.34c-0.29,0-0.46,0.16-0.51,0.46l-0.29,1.84h-1.01
	c-0.21,0-0.32,0.11-0.32,0.32v0.62c0,0.21,0.11,0.34,0.32,0.34h0.98v4.19C92.13,409.34,93.39,410,94.67,410z M99.09,409.82h0.48
	c0.37,0,0.58-0.21,0.58-0.58v-3.18c0-2.43,1.66-2.99,2.5-2.99c0.85,0,1.6,0.59,1.6,2.24v3.94c0,0.37,0.21,0.58,0.58,0.58h0.48
	c0.37,0,0.59-0.21,0.59-0.58v-3.95c0-2.51-1.3-3.66-3.07-3.66c-1.3,0-2.32,0.62-2.67,1.74v-4.54c0-0.37-0.21-0.58-0.58-0.58h-0.48
	c-0.37,0-0.59,0.21-0.59,0.58v10.42C98.5,409.62,98.72,409.82,99.09,409.82z M109.02,400.35c0.64,0,1.14-0.48,1.14-1.09
	c0-0.62-0.48-1.12-1.14-1.12c-0.64,0-1.1,0.5-1.1,1.12C107.91,399.87,108.38,400.35,109.02,400.35z M108.79,409.82h0.48
	c0.37,0,0.58-0.21,0.58-0.58v-6.86c0-0.37-0.21-0.58-0.58-0.58h-0.48c-0.37,0-0.59,0.21-0.59,0.58v6.86
	C108.2,409.62,108.42,409.82,108.79,409.82z M114.69,410c1.57,0,2.91-0.88,2.91-2.42c0-0.86-0.42-1.81-1.95-2.29l-1.15-0.38
	c-0.46-0.14-0.93-0.42-0.93-0.93c0-0.56,0.45-0.99,1.15-0.99c0.35,0,0.7,0.1,0.98,0.42c0.22,0.29,0.42,0.43,0.75,0.34l0.3-0.06
	c0.38-0.08,0.58-0.37,0.37-0.74c-0.53-0.98-1.47-1.31-2.45-1.31c-1.6,0-2.69,1.02-2.69,2.4c0,1.14,0.77,1.82,2,2.19l1.07,0.37
	c0.56,0.19,0.99,0.46,0.99,0.98c0,0.61-0.58,1.06-1.34,1.06c-0.62,0-1.17-0.26-1.49-0.66c-0.21-0.27-0.4-0.42-0.72-0.34l-0.34,0.1
	c-0.38,0.1-0.58,0.35-0.38,0.72C112.32,409.47,113.46,410,114.69,410z M127.29,413.58c2.22,0,4.22-1.17,4.22-3.89v-7.31
	c0-0.37-0.22-0.58-0.59-0.58h-0.46c-0.37,0-0.59,0.21-0.59,0.56v0.7c-0.75-1.07-1.79-1.44-2.86-1.44c-2.4,0-3.97,1.89-3.97,4.18
	c0,2.3,1.57,4.19,3.97,4.19c1.07,0,2.11-0.37,2.86-1.44v1.02c0,1.7-1.06,2.58-2.59,2.58c-0.82,0-1.6-0.19-2.29-0.62
	c-0.34-0.21-0.61-0.18-0.78,0.19l-0.13,0.22c-0.16,0.32-0.11,0.61,0.18,0.8C124.98,413.23,125.89,413.58,127.29,413.58z
	 M127.22,408.56c-1.62,0-2.54-1.25-2.54-2.75c0-1.49,0.93-2.75,2.54-2.75c1.58,0,2.66,1.17,2.67,2.75
	C129.88,407.39,128.81,408.56,127.22,408.56z M134.49,409.82h0.48c0.37,0,0.58-0.21,0.58-0.58v-2.48c0-3.28,1.44-3.57,2.02-3.57
	c0.14,0,0.29,0.02,0.43,0.05c0.27,0.06,0.43-0.1,0.43-0.5v-0.46c0-0.32-0.05-0.59-0.38-0.64l-0.35-0.02c-0.96,0-1.87,0.69-2.14,1.97
	v-1.22c0-0.37-0.21-0.58-0.58-0.58h-0.48c-0.37,0-0.59,0.21-0.59,0.58v6.86C133.9,409.62,134.13,409.82,134.49,409.82z M143.3,410
	c2.35,0,4.26-1.87,4.26-4.19c0-2.29-1.9-4.18-4.26-4.18c-2.34,0-4.22,1.87-4.22,4.18C139.08,408.14,140.96,410,143.3,410z
	 M143.3,408.56c-1.42,0-2.59-1.22-2.59-2.74s1.17-2.75,2.59-2.75c1.46,0,2.61,1.23,2.61,2.75S144.76,408.56,143.3,408.56z
	 M152.31,410c1.3,0,2.32-0.62,2.67-1.74v0.99c0,0.37,0.21,0.58,0.58,0.58h0.48c0.37,0,0.59-0.21,0.59-0.58v-6.86
	c0-0.37-0.22-0.58-0.59-0.58h-0.48c-0.37,0-0.58,0.21-0.58,0.58v3.18c0,2.42-1.66,2.99-2.5,2.99c-0.85,0-1.58-0.61-1.58-2.24v-3.94
	c0-0.37-0.22-0.58-0.59-0.58h-0.48c-0.37,0-0.58,0.21-0.58,0.58v3.95C149.26,408.85,150.54,410,152.31,410z M159.62,413.41h0.48
	c0.37,0,0.58-0.21,0.58-0.58v-4.27c0.75,1.07,1.81,1.44,2.88,1.44c2.38,0,3.97-1.89,3.97-4.19c0-2.3-1.58-4.18-3.97-4.18
	c-1.07,0-2.13,0.37-2.88,1.44v-0.69c0-0.37-0.21-0.58-0.58-0.58h-0.48c-0.37,0-0.59,0.21-0.59,0.58v10.45
	C159.03,413.2,159.25,413.41,159.62,413.41z M163.32,408.56c-1.57,0-2.66-1.17-2.67-2.75c0.02-1.58,1.1-2.75,2.67-2.75
	c1.63,0,2.56,1.26,2.56,2.75C165.88,407.31,164.95,408.56,163.32,408.56z"/>
</svg>
