<?xml version="1.0" encoding="utf-8"?>
<!-- Generator: Adobe Illustrator 27.2.0, SVG Export Plug-In . SVG Version: 6.00 Build 0)  -->
<svg version="1.1" id="Calque_1" xmlns="http://www.w3.org/2000/svg" xmlns:xlink="http://www.w3.org/1999/xlink" x="0px" y="0px"
	 viewBox="0 0 360 595" style="enable-background:new 0 0 360 595;" xml:space="preserve">
<style type="text/css">
	.st0{fill:#FFFFFF;}
	.st1{fill-rule:evenodd;clip-rule:evenodd;fill:#3F3F46;}
	.st2{fill:#FFFFFF;stroke:#AAAAAA;}
	.st3{fill-rule:evenodd;clip-rule:evenodd;fill:#959595;}
	.st4{fill:#3F3F46;stroke:#3F3F46;}
	.st5{fill:none;stroke:#3F3F46;}
	.st6{fill:#FFFFFF;stroke:#959595;}
	.st7{fill:#EED9D0;stroke:#FFFFFF;stroke-width:2;}
	.st8{fill:none;stroke:#AAAAAA;}
</style>
<rect x="-0.33" y="0.33" class="st0" width="360" height="594"/>
<path class="st1" d="M337.96,11.63c0.19-0.19,0.44-0.29,0.71-0.29s0.52,0.11,0.71,0.29l4.29,4.29l4.29-4.29
	c0.09-0.1,0.2-0.17,0.33-0.22c0.12-0.05,0.25-0.08,0.39-0.08c0.13,0,0.26,0.02,0.39,0.07c0.12,0.05,0.24,0.12,0.33,0.22
	c0.09,0.09,0.17,0.21,0.22,0.33c0.05,0.12,0.08,0.25,0.07,0.39c0,0.13-0.03,0.26-0.08,0.39c-0.05,0.12-0.13,0.23-0.22,0.32
	l-4.29,4.29l4.29,4.29c0.18,0.19,0.28,0.44,0.28,0.7c0,0.26-0.11,0.51-0.29,0.7c-0.19,0.19-0.44,0.29-0.7,0.29
	c-0.26,0-0.51-0.1-0.7-0.28l-4.29-4.29l-4.29,4.29c-0.19,0.18-0.44,0.28-0.7,0.28c-0.26,0-0.51-0.11-0.7-0.29
	c-0.18-0.19-0.29-0.44-0.29-0.7c0-0.26,0.1-0.51,0.28-0.7l4.29-4.29l-4.29-4.29c-0.19-0.19-0.29-0.44-0.29-0.71
	C337.67,12.07,337.77,11.81,337.96,11.63z"/>
<path class="st2" d="M26.67,383.83h294c1.93,0,3.5,1.57,3.5,3.5v20c0,1.93-1.57,3.5-3.5,3.5h-294c-1.93,0-3.5-1.57-3.5-3.5v-20
	C23.17,385.4,24.73,383.83,26.67,383.83z"/>
<path class="st3" d="M304.96,395.63c0.19-0.19,0.44-0.29,0.71-0.29s0.52,0.11,0.71,0.29l3.29,3.29l3.29-3.29
	c0.09-0.1,0.2-0.17,0.33-0.22c0.12-0.05,0.25-0.08,0.39-0.08c0.13,0,0.26,0.02,0.39,0.07c0.12,0.05,0.24,0.12,0.33,0.22
	c0.09,0.09,0.17,0.2,0.22,0.33c0.05,0.12,0.08,0.26,0.07,0.39c0,0.13-0.03,0.26-0.08,0.39c-0.05,0.12-0.13,0.23-0.22,0.33l-4,4
	c-0.19,0.19-0.44,0.29-0.71,0.29s-0.52-0.11-0.71-0.29l-4-4c-0.19-0.19-0.29-0.44-0.29-0.71S304.77,395.81,304.96,395.63z"/>
<path class="st4" d="M239.67,543.83h83c1.93,0,3.5,1.57,3.5,3.5v20c0,1.93-1.57,3.5-3.5,3.5h-83c-1.93,0-3.5-1.57-3.5-3.5v-20
	C236.17,545.4,237.73,543.83,239.67,543.83z"/>
<path class="st5" d="M26.67,544.83h141c1.93,0,3.5,1.57,3.5,3.5v20c0,1.93-1.57,3.5-3.5,3.5h-141c-1.93,0-3.5-1.57-3.5-3.5v-20
	C23.17,546.4,24.73,544.83,26.67,544.83z"/>
<path class="st2" d="M28.67,46.83h294c1.93,0,3.5,1.57,3.5,3.5v20c0,1.93-1.57,3.5-3.5,3.5h-294c-1.93,0-3.5-1.57-3.5-3.5v-20
	C25.17,48.4,26.73,46.83,28.67,46.83z"/>
<path class="st2" d="M28.67,109.83h294c1.93,0,3.5,1.57,3.5,3.5v132c0,1.93-1.57,3.5-3.5,3.5h-294c-1.93,0-3.5-1.57-3.5-3.5v-132
	C25.17,111.4,26.73,109.83,28.67,109.83z"/>
<path d="M40.79,55.53c0.35,0,0.58-0.21,0.58-0.58v-0.24c0-0.37-0.22-0.58-0.58-0.58h-6.02c-0.37,0-0.58,0.21-0.58,0.58v10.05
	c0,0.37,0.21,0.58,0.58,0.58h6.02c0.35,0,0.58-0.21,0.58-0.58v-0.24c0-0.37-0.22-0.58-0.58-0.58h-4.9v-3.41h4.19
	c0.37,0,0.58-0.22,0.58-0.59v-0.21c0-0.37-0.21-0.58-0.58-0.58H35.9v-3.63H40.79z M46.6,65.51c1.07,0,2.11-0.37,2.86-1.44v0.69
	c0,0.37,0.22,0.58,0.59,0.58h0.48c0.37,0,0.58-0.21,0.58-0.58v-6.86c0-0.37-0.21-0.58-0.58-0.58h-0.48c-0.37,0-0.59,0.21-0.59,0.58
	v0.69c-0.75-1.07-1.79-1.44-2.86-1.44c-2.38,0-3.97,1.87-3.97,4.18C42.63,63.62,44.22,65.51,46.6,65.51z M46.83,64.07
	c-1.62,0-2.54-1.25-2.54-2.75c0-1.49,0.93-2.75,2.54-2.75c1.58,0,2.66,1.17,2.67,2.75C49.48,62.9,48.41,64.07,46.83,64.07z
	 M55.91,65.51c1.57,0,2.91-0.88,2.91-2.42c0-0.86-0.42-1.81-1.95-2.29l-1.15-0.38c-0.46-0.14-0.93-0.42-0.93-0.93
	c0-0.56,0.45-0.99,1.15-0.99c0.35,0,0.7,0.1,0.98,0.42c0.22,0.29,0.42,0.43,0.75,0.34l0.3-0.06c0.38-0.08,0.58-0.37,0.37-0.74
	c-0.53-0.98-1.47-1.31-2.45-1.31c-1.6,0-2.69,1.02-2.69,2.4c0,1.14,0.77,1.82,2,2.19l1.07,0.37c0.56,0.19,0.99,0.46,0.99,0.98
	c0,0.61-0.58,1.06-1.34,1.06c-0.62,0-1.17-0.26-1.49-0.66c-0.21-0.27-0.4-0.42-0.72-0.34l-0.34,0.1c-0.38,0.1-0.58,0.35-0.38,0.72
	C53.54,64.98,54.67,65.51,55.91,65.51z M62.02,68.92h0.38c0.34,0,0.54-0.13,0.67-0.45l4.46-10.48c0.18-0.42-0.02-0.67-0.45-0.67
	h-0.66c-0.34,0-0.58,0.14-0.69,0.46l-2.05,5.41l-2.22-5.42c-0.11-0.3-0.32-0.45-0.66-0.45h-0.64c-0.43,0-0.62,0.27-0.45,0.67
	l3.07,7.04l-1.23,3.22C61.41,68.65,61.58,68.92,62.02,68.92z M75.77,65.33h0.45c0.34,0,0.54-0.16,0.64-0.48l2.4-7.78l2.38,7.78
	c0.1,0.32,0.32,0.48,0.66,0.48h0.43c0.34,0,0.56-0.16,0.66-0.48l3.14-10.05c0.13-0.4-0.08-0.67-0.5-0.67h-0.5
	c-0.34,0-0.56,0.16-0.66,0.48l-2.46,7.87l-2.32-7.5c-0.1-0.32-0.32-0.48-0.66-0.48h-0.37c-0.34,0-0.54,0.16-0.64,0.48l-2.34,7.5
	l-2.45-7.87c-0.11-0.32-0.32-0.48-0.66-0.48h-0.51c-0.42,0-0.61,0.27-0.5,0.67l3.15,10.05C75.23,65.17,75.44,65.33,75.77,65.33z
	 M88.36,65.33h0.48c0.37,0,0.58-0.21,0.58-0.58v-2.48c0-3.28,1.44-3.57,2.02-3.57c0.14,0,0.29,0.02,0.43,0.05
	c0.27,0.06,0.43-0.1,0.43-0.5V57.8c0-0.32-0.05-0.59-0.38-0.64l-0.35-0.02c-0.96,0-1.87,0.69-2.14,1.97v-1.22
	c0-0.37-0.21-0.58-0.58-0.58h-0.48c-0.37,0-0.59,0.21-0.59,0.58v6.86C87.77,65.13,88,65.33,88.36,65.33z M94.56,55.86
	c0.64,0,1.14-0.48,1.14-1.09c0-0.62-0.48-1.12-1.14-1.12c-0.64,0-1.1,0.5-1.1,1.12C93.45,55.38,93.92,55.86,94.56,55.86z
	 M94.33,65.33h0.48c0.37,0,0.58-0.21,0.58-0.58v-6.86c0-0.37-0.21-0.58-0.58-0.58h-0.48c-0.37,0-0.59,0.21-0.59,0.58v6.86
	C93.74,65.13,93.97,65.33,94.33,65.33z M100.79,65.51c1.54,0,2.4-0.88,2.4-2.08c0-0.02,0-0.32-0.06-0.59
	c-0.03-0.21-0.18-0.29-0.37-0.29h-0.74c-0.22,0-0.32,0.14-0.29,0.37c0.03,0.13,0.03,0.24,0.03,0.3c0,0.58-0.45,0.86-0.94,0.86
	c-0.51,0-0.93-0.34-0.93-1.2V58.6h2.19c0.21,0,0.32-0.13,0.32-0.34v-0.62c0-0.21-0.11-0.32-0.32-0.32H99.9v-1.81
	c0-0.3-0.18-0.5-0.48-0.5h-0.34c-0.29,0-0.46,0.16-0.51,0.46l-0.29,1.84h-1.01c-0.21,0-0.32,0.11-0.32,0.32v0.62
	c0,0.21,0.11,0.34,0.32,0.34h0.98v4.19C98.25,64.85,99.52,65.51,100.79,65.51z M108.57,65.51c1.01,0,2.08-0.24,3.01-0.99
	c0.37-0.3,0.37-0.64,0.11-0.91l-0.11-0.13c-0.26-0.26-0.51-0.27-0.82-0.08c-0.69,0.46-1.39,0.67-2.18,0.67
	c-1.74,0-2.98-1.09-2.93-2.58h6.21c0.38,0,0.61-0.21,0.56-0.59c-0.22-2.56-2.06-3.76-4.08-3.76c-2.5,0-4.32,1.87-4.32,4.21
	C104.02,63.64,105.75,65.51,108.57,65.51z M105.8,60.28c0.5-1.36,1.65-1.73,2.58-1.73c0.88,0,2,0.3,2.42,1.73H105.8z M114.76,65.33
	h0.48c0.37,0,0.58-0.21,0.58-0.58v-2.48c0-3.28,1.44-3.57,2.02-3.57c0.14,0,0.29,0.02,0.43,0.05c0.27,0.06,0.43-0.1,0.43-0.5V57.8
	c0-0.32-0.05-0.59-0.38-0.64l-0.35-0.02c-0.96,0-1.87,0.69-2.14,1.97v-1.22c0-0.37-0.21-0.58-0.58-0.58h-0.48
	c-0.37,0-0.59,0.21-0.59,0.58v6.86C114.16,65.13,114.39,65.33,114.76,65.33z M122.47,65.51c1.57,0,2.91-0.88,2.91-2.42
	c0-0.86-0.42-1.81-1.95-2.29l-1.15-0.38c-0.46-0.14-0.93-0.42-0.93-0.93c0-0.56,0.45-0.99,1.15-0.99c0.35,0,0.7,0.1,0.98,0.42
	c0.22,0.29,0.42,0.43,0.75,0.34l0.3-0.06c0.38-0.08,0.58-0.37,0.37-0.74c-0.53-0.98-1.47-1.31-2.45-1.31c-1.6,0-2.69,1.02-2.69,2.4
	c0,1.14,0.77,1.82,2,2.19l1.07,0.37c0.56,0.19,0.99,0.46,0.99,0.98c0,0.61-0.58,1.06-1.34,1.06c-0.62,0-1.17-0.26-1.49-0.66
	c-0.21-0.27-0.4-0.42-0.72-0.34l-0.34,0.1c-0.38,0.1-0.58,0.35-0.38,0.72C120.1,64.98,121.24,65.51,122.47,65.51z"/>
<path d="M36.58,401.33h0.53c0.34,0,0.54-0.14,0.67-0.46l0.69-1.82h5.34l0.69,1.82c0.13,0.32,0.35,0.46,0.69,0.46h0.51
	c0.43,0,0.59-0.27,0.45-0.67l-3.89-10.06c-0.11-0.3-0.34-0.46-0.67-0.46h-0.93c-0.32,0-0.56,0.16-0.67,0.46l-3.86,10.06
	C35.97,401.06,36.15,401.33,36.58,401.33z M38.95,397.67l2.18-5.89l2.21,5.89H38.95z M51.02,401.51c1.07,0,2.11-0.37,2.86-1.44v0.69
	c0,0.37,0.22,0.58,0.59,0.58h0.48c0.37,0,0.58-0.21,0.58-0.58v-10.42c0-0.37-0.21-0.58-0.58-0.58h-0.48c-0.37,0-0.59,0.21-0.59,0.58
	v4.24c-0.75-1.07-1.79-1.44-2.86-1.44c-2.38,0-3.97,1.87-3.97,4.18C47.06,399.62,48.64,401.51,51.02,401.51z M51.25,400.07
	c-1.62,0-2.54-1.25-2.54-2.75c0-1.49,0.93-2.75,2.54-2.75c1.58,0,2.66,1.17,2.67,2.75C53.9,398.9,52.83,400.07,51.25,400.07z
	 M61.37,401.51c1.07,0,2.11-0.37,2.86-1.44v0.69c0,0.37,0.22,0.58,0.59,0.58h0.48c0.37,0,0.58-0.21,0.58-0.58v-10.42
	c0-0.37-0.21-0.58-0.58-0.58h-0.48c-0.37,0-0.59,0.21-0.59,0.58v4.24c-0.75-1.07-1.79-1.44-2.86-1.44c-2.38,0-3.97,1.87-3.97,4.18
	C57.4,399.62,58.98,401.51,61.37,401.51z M61.59,400.07c-1.62,0-2.54-1.25-2.54-2.75c0-1.49,0.93-2.75,2.54-2.75
	c1.58,0,2.66,1.17,2.67,2.75C64.25,398.9,63.18,400.07,61.59,400.07z M75.88,401.51c1.07,0,2.11-0.37,2.86-1.44v0.69
	c0,0.37,0.22,0.58,0.59,0.58h0.48c0.37,0,0.58-0.21,0.58-0.58v-6.86c0-0.37-0.21-0.58-0.58-0.58h-0.48c-0.37,0-0.59,0.21-0.59,0.58
	v0.69c-0.75-1.07-1.79-1.44-2.86-1.44c-2.38,0-3.97,1.87-3.97,4.18C71.92,399.62,73.5,401.51,75.88,401.51z M76.11,400.07
	c-1.62,0-2.54-1.25-2.54-2.75c0-1.49,0.93-2.75,2.54-2.75c1.58,0,2.66,1.17,2.67,2.75C78.76,398.9,77.69,400.07,76.11,400.07z
	 M83.4,401.33h0.48c0.37,0,0.58-0.21,0.58-0.58v-3.18c0-2.43,1.66-2.99,2.5-2.99c0.85,0,1.6,0.59,1.6,2.24v3.94
	c0,0.37,0.21,0.58,0.58,0.58h0.48c0.37,0,0.59-0.21,0.59-0.58v-3.95c0-2.51-1.3-3.66-3.07-3.66c-1.3,0-2.32,0.62-2.67,1.74v-0.99
	c0-0.37-0.21-0.58-0.58-0.58H83.4c-0.37,0-0.59,0.21-0.59,0.58v6.86C82.8,401.13,83.03,401.33,83.4,401.33z M100.07,401.51
	c1.07,0,2.11-0.37,2.86-1.44v0.69c0,0.37,0.22,0.58,0.59,0.58h0.48c0.37,0,0.58-0.21,0.58-0.58v-6.86c0-0.37-0.21-0.58-0.58-0.58
	h-0.48c-0.37,0-0.59,0.21-0.59,0.58v0.69c-0.75-1.07-1.79-1.44-2.86-1.44c-2.38,0-3.97,1.87-3.97,4.18
	C96.1,399.62,97.69,401.51,100.07,401.51z M100.3,400.07c-1.62,0-2.54-1.25-2.54-2.75c0-1.49,0.93-2.75,2.54-2.75
	c1.58,0,2.66,1.17,2.67,2.75C102.95,398.9,101.88,400.07,100.3,400.07z M110.4,401.51c1.07,0,2.11-0.37,2.86-1.44v0.69
	c0,0.37,0.22,0.58,0.59,0.58h0.48c0.37,0,0.58-0.21,0.58-0.58v-10.42c0-0.37-0.21-0.58-0.58-0.58h-0.48c-0.37,0-0.59,0.21-0.59,0.58
	v4.24c-0.75-1.07-1.79-1.44-2.86-1.44c-2.38,0-3.97,1.87-3.97,4.18C106.43,399.62,108.02,401.51,110.4,401.51z M110.62,400.07
	c-1.62,0-2.54-1.25-2.54-2.75c0-1.49,0.93-2.75,2.54-2.75c1.58,0,2.66,1.17,2.67,2.75C113.28,398.9,112.21,400.07,110.62,400.07z
	 M117.93,401.33h0.48c0.37,0,0.58-0.21,0.58-0.58v-3.18c0-2.43,1.38-2.99,2.19-2.99c0.85,0,1.58,0.59,1.58,2.22v3.95
	c0,0.37,0.22,0.58,0.59,0.58h0.48c0.37,0,0.58-0.21,0.58-0.58v-3.36c0.08-2.35,1.46-2.82,2.19-2.82c0.85,0,1.58,0.59,1.58,2.22v3.95
	c0,0.37,0.22,0.58,0.59,0.58h0.48c0.37,0,0.58-0.21,0.58-0.58v-3.95c0-2.51-1.17-3.66-3.07-3.66c-0.96,0-2.05,0.27-2.72,1.65
	c-0.61-1.39-1.74-1.65-2.53-1.65c-1.17,0-2.19,0.59-2.53,1.74v-0.99c0-0.37-0.21-0.58-0.58-0.58h-0.48c-0.37,0-0.59,0.21-0.59,0.58
	v6.86C117.34,401.13,117.56,401.33,117.93,401.33z M133,391.86c0.64,0,1.14-0.48,1.14-1.09c0-0.62-0.48-1.12-1.14-1.12
	c-0.64,0-1.1,0.5-1.1,1.12C131.89,391.38,132.36,391.86,133,391.86z M132.77,401.33h0.48c0.37,0,0.58-0.21,0.58-0.58v-6.86
	c0-0.37-0.21-0.58-0.58-0.58h-0.48c-0.37,0-0.59,0.21-0.59,0.58v6.86C132.18,401.13,132.4,401.33,132.77,401.33z M136.88,401.33
	h0.48c0.37,0,0.58-0.21,0.58-0.58v-3.18c0-2.43,1.66-2.99,2.5-2.99c0.85,0,1.6,0.59,1.6,2.24v3.94c0,0.37,0.21,0.58,0.58,0.58h0.48
	c0.37,0,0.59-0.21,0.59-0.58v-3.95c0-2.51-1.3-3.66-3.07-3.66c-1.3,0-2.32,0.62-2.67,1.74v-0.99c0-0.37-0.21-0.58-0.58-0.58h-0.48
	c-0.37,0-0.59,0.21-0.59,0.58v6.86C136.29,401.13,136.51,401.33,136.88,401.33z"/>
<path class="st2" d="M26.67,422.83h294c1.93,0,3.5,1.57,3.5,3.5v20c0,1.93-1.57,3.5-3.5,3.5h-294c-1.93,0-3.5-1.57-3.5-3.5v-20
	C23.17,424.4,24.73,422.83,26.67,422.83z"/>
<path class="st3" d="M304.96,434.63c0.19-0.19,0.44-0.29,0.71-0.29s0.52,0.11,0.71,0.29l3.29,3.29l3.29-3.29
	c0.09-0.1,0.2-0.17,0.33-0.22c0.12-0.05,0.25-0.08,0.39-0.08c0.13,0,0.26,0.02,0.39,0.07c0.12,0.05,0.24,0.12,0.33,0.22
	c0.09,0.09,0.17,0.2,0.22,0.33c0.05,0.12,0.08,0.26,0.07,0.39c0,0.13-0.03,0.26-0.08,0.39c-0.05,0.12-0.13,0.23-0.22,0.33l-4,4
	c-0.19,0.19-0.44,0.29-0.71,0.29s-0.52-0.11-0.71-0.29l-4-4c-0.19-0.19-0.29-0.44-0.29-0.71S304.77,434.81,304.96,434.63z"/>
<path d="M36.58,440.33h0.53c0.34,0,0.54-0.14,0.67-0.46l0.69-1.82h5.34l0.69,1.82c0.13,0.32,0.35,0.46,0.69,0.46h0.51
	c0.43,0,0.59-0.27,0.45-0.67l-3.89-10.06c-0.11-0.3-0.34-0.46-0.67-0.46h-0.93c-0.32,0-0.56,0.16-0.67,0.46l-3.86,10.06
	C35.97,440.06,36.15,440.33,36.58,440.33z M38.95,436.67l2.18-5.89l2.21,5.89H38.95z M51.02,440.51c1.07,0,2.11-0.37,2.86-1.44v0.69
	c0,0.37,0.22,0.58,0.59,0.58h0.48c0.37,0,0.58-0.21,0.58-0.58v-10.42c0-0.37-0.21-0.58-0.58-0.58h-0.48c-0.37,0-0.59,0.21-0.59,0.58
	v4.24c-0.75-1.07-1.79-1.44-2.86-1.44c-2.38,0-3.97,1.87-3.97,4.18C47.06,438.62,48.64,440.51,51.02,440.51z M51.25,439.07
	c-1.62,0-2.54-1.25-2.54-2.75c0-1.49,0.93-2.75,2.54-2.75c1.58,0,2.66,1.17,2.67,2.75C53.9,437.9,52.83,439.07,51.25,439.07z
	 M61.37,440.51c1.07,0,2.11-0.37,2.86-1.44v0.69c0,0.37,0.22,0.58,0.59,0.58h0.48c0.37,0,0.58-0.21,0.58-0.58v-10.42
	c0-0.37-0.21-0.58-0.58-0.58h-0.48c-0.37,0-0.59,0.21-0.59,0.58v4.24c-0.75-1.07-1.79-1.44-2.86-1.44c-2.38,0-3.97,1.87-3.97,4.18
	C57.4,438.62,58.98,440.51,61.37,440.51z M61.59,439.07c-1.62,0-2.54-1.25-2.54-2.75c0-1.49,0.93-2.75,2.54-2.75
	c1.58,0,2.66,1.17,2.67,2.75C64.25,437.9,63.18,439.07,61.59,439.07z M75.88,440.51c1.07,0,2.11-0.37,2.86-1.44v0.69
	c0,0.37,0.22,0.58,0.59,0.58h0.48c0.37,0,0.58-0.21,0.58-0.58v-6.86c0-0.37-0.21-0.58-0.58-0.58h-0.48c-0.37,0-0.59,0.21-0.59,0.58
	v0.69c-0.75-1.07-1.79-1.44-2.86-1.44c-2.38,0-3.97,1.87-3.97,4.18C71.92,438.62,73.5,440.51,75.88,440.51z M76.11,439.07
	c-1.62,0-2.54-1.25-2.54-2.75c0-1.49,0.93-2.75,2.54-2.75c1.58,0,2.66,1.17,2.67,2.75C78.76,437.9,77.69,439.07,76.11,439.07z
	 M83.4,440.33h0.48c0.37,0,0.58-0.21,0.58-0.58v-3.18c0-2.43,1.66-2.99,2.5-2.99c0.85,0,1.6,0.59,1.6,2.24v3.94
	c0,0.37,0.21,0.58,0.58,0.58h0.48c0.37,0,0.59-0.21,0.59-0.58v-3.95c0-2.51-1.3-3.66-3.07-3.66c-1.3,0-2.32,0.62-2.67,1.74v-0.99
	c0-0.37-0.21-0.58-0.58-0.58H83.4c-0.37,0-0.59,0.21-0.59,0.58v6.86C82.8,440.13,83.03,440.33,83.4,440.33z M99.62,440.51
	c1.3,0,2.32-0.62,2.67-1.74v0.99c0,0.37,0.21,0.58,0.58,0.58h0.48c0.37,0,0.59-0.21,0.59-0.58v-6.86c0-0.37-0.22-0.58-0.59-0.58
	h-0.48c-0.37,0-0.58,0.21-0.58,0.58v3.18c0,2.42-1.66,2.99-2.5,2.99c-0.85,0-1.58-0.61-1.58-2.24v-3.94c0-0.37-0.22-0.58-0.59-0.58
	h-0.48c-0.37,0-0.58,0.21-0.58,0.58v3.95C96.57,439.36,97.85,440.51,99.62,440.51z M108.72,440.51c1.57,0,2.91-0.88,2.91-2.42
	c0-0.86-0.42-1.81-1.95-2.29l-1.15-0.38c-0.46-0.14-0.93-0.42-0.93-0.93c0-0.56,0.45-0.99,1.15-0.99c0.35,0,0.7,0.1,0.98,0.42
	c0.22,0.29,0.42,0.43,0.75,0.34l0.3-0.06c0.38-0.08,0.58-0.37,0.37-0.74c-0.53-0.98-1.47-1.31-2.45-1.31c-1.6,0-2.69,1.02-2.69,2.4
	c0,1.14,0.77,1.82,2,2.19l1.07,0.37c0.56,0.19,0.99,0.46,0.99,0.98c0,0.61-0.58,1.06-1.34,1.06c-0.62,0-1.17-0.26-1.49-0.66
	c-0.21-0.27-0.4-0.42-0.72-0.34l-0.34,0.1c-0.38,0.1-0.58,0.35-0.38,0.72C106.35,439.98,107.49,440.51,108.72,440.51z M117.4,440.51
	c1.01,0,2.08-0.24,3.01-0.99c0.37-0.3,0.37-0.64,0.11-0.91l-0.11-0.13c-0.26-0.26-0.51-0.27-0.82-0.08
	c-0.69,0.46-1.39,0.67-2.18,0.67c-1.74,0-2.98-1.09-2.93-2.58h6.21c0.38,0,0.61-0.21,0.56-0.59c-0.22-2.56-2.06-3.76-4.08-3.76
	c-2.5,0-4.32,1.87-4.32,4.21C112.85,438.64,114.58,440.51,117.4,440.51z M114.63,435.28c0.5-1.36,1.65-1.73,2.58-1.73
	c0.88,0,2,0.3,2.42,1.73H114.63z M123.58,440.33h0.48c0.37,0,0.58-0.21,0.58-0.58v-2.48c0-3.28,1.44-3.57,2.02-3.57
	c0.14,0,0.29,0.02,0.43,0.05c0.27,0.06,0.43-0.1,0.43-0.5v-0.46c0-0.32-0.05-0.59-0.38-0.64l-0.35-0.02c-0.96,0-1.87,0.69-2.14,1.97
	v-1.22c0-0.37-0.21-0.58-0.58-0.58h-0.48c-0.37,0-0.59,0.21-0.59,0.58v6.86C122.99,440.13,123.22,440.33,123.58,440.33z"/>
<path d="M52.73,85.13h-3.95c-0.37,0-0.58,0.21-0.58,0.58v10.05c0,0.37,0.21,0.58,0.58,0.58h0.54c0.37,0,0.58-0.21,0.58-0.58v-3.62
	h2.83c2.16,0,3.41-1.57,3.41-3.46C56.14,86.78,54.91,85.13,52.73,85.13z M52.39,90.78h-2.5v-4.26h2.5c1.23,0,2,0.88,2,2.14
	C54.39,89.9,53.64,90.78,52.39,90.78z M60.83,96.51c1.3,0,2.32-0.62,2.67-1.74v0.99c0,0.37,0.21,0.58,0.58,0.58h0.48
	c0.37,0,0.59-0.21,0.59-0.58v-6.86c0-0.37-0.22-0.58-0.59-0.58h-0.48c-0.37,0-0.58,0.21-0.58,0.58v3.18c0,2.42-1.66,2.99-2.5,2.99
	c-0.85,0-1.58-0.61-1.58-2.24v-3.94c0-0.37-0.22-0.58-0.59-0.58h-0.48c-0.37,0-0.58,0.21-0.58,0.58v3.95
	C57.77,95.36,59.05,96.51,60.83,96.51z M72.07,96.51c2.38,0,3.97-1.89,3.97-4.19s-1.58-4.18-3.97-4.18c-1.07,0-2.13,0.37-2.88,1.44
	v-4.24c0-0.37-0.21-0.58-0.58-0.58h-0.48c-0.37,0-0.59,0.21-0.59,0.58v10.42c0,0.37,0.22,0.58,0.59,0.58h0.48
	c0.37,0,0.58-0.21,0.58-0.58v-0.69C69.94,96.14,70.99,96.51,72.07,96.51z M71.83,95.07c-1.57,0-2.66-1.17-2.67-2.75
	c0.02-1.58,1.1-2.75,2.67-2.75c1.63,0,2.56,1.26,2.56,2.75C74.39,93.82,73.46,95.07,71.83,95.07z M78.52,96.33H79
	c0.37,0,0.58-0.21,0.58-0.58V85.34c0-0.37-0.21-0.58-0.58-0.58h-0.48c-0.37,0-0.59,0.21-0.59,0.58v10.42
	C77.93,96.13,78.15,96.33,78.52,96.33z M82.9,86.86c0.64,0,1.14-0.48,1.14-1.09c0-0.62-0.48-1.12-1.14-1.12
	c-0.64,0-1.1,0.5-1.1,1.12C81.8,86.38,82.26,86.86,82.9,86.86z M82.68,96.33h0.48c0.37,0,0.58-0.21,0.58-0.58v-6.86
	c0-0.37-0.21-0.58-0.58-0.58h-0.48c-0.37,0-0.59,0.21-0.59,0.58v6.86C82.09,96.13,82.31,96.33,82.68,96.33z M90.13,96.51
	c0.58,0,1.36-0.1,2.16-0.53c0.51-0.26,0.62-0.64,0.4-0.94l-0.11-0.16c-0.21-0.3-0.46-0.34-0.82-0.16c-0.69,0.34-1.38,0.35-1.55,0.35
	c-1.7,0-2.94-1.14-2.94-2.75c0-1.62,1.25-2.74,2.94-2.74c0.18,0,0.86,0.02,1.55,0.35c0.35,0.16,0.59,0.14,0.82-0.16l0.13-0.16
	c0.22-0.3,0.18-0.62-0.16-0.82c-0.91-0.53-1.78-0.66-2.42-0.66c-2.9,0-4.51,1.92-4.51,4.27C85.62,94.7,87.3,96.51,90.13,96.51z"/>
<path d="M31.35,285.51c1.02,0,2.42-0.22,3.7-1.17c0.37-0.29,0.5-0.54,0.5-0.85v-3.23c0-0.37-0.21-0.58-0.58-0.58h-3.5
	c-0.37,0-0.58,0.21-0.58,0.58v0.19c0,0.37,0.21,0.59,0.58,0.59h2.53v2.22c-0.75,0.48-1.58,0.72-2.56,0.72
	c-2.88,0-4.32-2.1-4.32-4.24c0-2.38,1.82-4.27,4.1-4.27c0.85,0,1.62,0.02,2.86,0.69c0.35,0.19,0.62,0.14,0.8-0.21l0.16-0.27
	c0.18-0.34,0.11-0.61-0.19-0.8c-1.09-0.67-2.26-0.93-3.63-0.93c-3.23,0-5.82,2.58-5.82,5.81C25.39,282.92,27.88,285.51,31.35,285.51
	z M38.22,285.33h0.48c0.37,0,0.58-0.21,0.58-0.58v-2.48c0-3.28,1.44-3.57,2.02-3.57c0.14,0,0.29,0.02,0.43,0.05
	c0.27,0.06,0.43-0.1,0.43-0.5v-0.46c0-0.32-0.05-0.59-0.38-0.64l-0.35-0.02c-0.96,0-1.87,0.69-2.14,1.97v-1.22
	c0-0.37-0.21-0.58-0.58-0.58h-0.48c-0.37,0-0.59,0.21-0.59,0.58v6.86C37.63,285.13,37.86,285.33,38.22,285.33z M47.03,285.51
	c2.35,0,4.26-1.87,4.26-4.19c0-2.29-1.9-4.18-4.26-4.18c-2.34,0-4.22,1.87-4.22,4.18C42.81,283.65,44.69,285.51,47.03,285.51z
	 M47.03,284.07c-1.42,0-2.59-1.22-2.59-2.74s1.17-2.75,2.59-2.75c1.46,0,2.61,1.23,2.61,2.75S48.49,284.07,47.03,284.07z
	 M56.05,285.51c1.3,0,2.32-0.62,2.67-1.74v0.99c0,0.37,0.21,0.58,0.58,0.58h0.48c0.37,0,0.59-0.21,0.59-0.58v-6.86
	c0-0.37-0.22-0.58-0.59-0.58h-0.48c-0.37,0-0.58,0.21-0.58,0.58v3.18c0,2.42-1.66,2.99-2.5,2.99c-0.85,0-1.58-0.61-1.58-2.24v-3.94
	c0-0.37-0.22-0.58-0.59-0.58h-0.48c-0.37,0-0.58,0.21-0.58,0.58v3.95C52.99,284.36,54.27,285.51,56.05,285.51z M63.35,288.92h0.48
	c0.37,0,0.58-0.21,0.58-0.58v-4.27c0.75,1.07,1.81,1.44,2.88,1.44c2.38,0,3.97-1.89,3.97-4.19c0-2.3-1.58-4.18-3.97-4.18
	c-1.07,0-2.13,0.37-2.88,1.44v-0.69c0-0.37-0.21-0.58-0.58-0.58h-0.48c-0.37,0-0.59,0.21-0.59,0.58v10.45
	C62.76,288.71,62.98,288.92,63.35,288.92z M67.05,284.07c-1.57,0-2.66-1.17-2.67-2.75c0.02-1.58,1.1-2.75,2.67-2.75
	c1.63,0,2.56,1.26,2.56,2.75C69.61,282.82,68.68,284.07,67.05,284.07z M77.85,285.33h0.48c0.37,0,0.58-0.21,0.58-0.58v-3.18
	c0-2.43,1.38-2.99,2.19-2.99c0.85,0,1.58,0.59,1.58,2.22v3.95c0,0.37,0.22,0.58,0.59,0.58h0.48c0.37,0,0.58-0.21,0.58-0.58v-3.36
	c0.08-2.35,1.46-2.82,2.19-2.82c0.85,0,1.58,0.59,1.58,2.22v3.95c0,0.37,0.22,0.58,0.59,0.58h0.48c0.37,0,0.58-0.21,0.58-0.58v-3.95
	c0-2.51-1.17-3.66-3.07-3.66c-0.96,0-2.05,0.27-2.72,1.65c-0.61-1.39-1.74-1.65-2.53-1.65c-1.17,0-2.19,0.59-2.53,1.74v-0.99
	c0-0.37-0.21-0.58-0.58-0.58h-0.48c-0.37,0-0.59,0.21-0.59,0.58v6.86C77.26,285.13,77.48,285.33,77.85,285.33z M96.01,285.51
	c1.01,0,2.08-0.24,3.01-0.99c0.37-0.3,0.37-0.64,0.11-0.91l-0.11-0.13c-0.26-0.26-0.51-0.27-0.82-0.08
	c-0.69,0.46-1.39,0.67-2.18,0.67c-1.74,0-2.98-1.09-2.93-2.58h6.21c0.38,0,0.61-0.21,0.56-0.59c-0.22-2.56-2.06-3.76-4.08-3.76
	c-2.5,0-4.32,1.87-4.32,4.21C91.46,283.64,93.19,285.51,96.01,285.51z M93.24,280.28c0.5-1.36,1.65-1.73,2.58-1.73
	c0.88,0,2,0.3,2.42,1.73H93.24z M102.19,285.33h0.48c0.37,0,0.58-0.21,0.58-0.58v-3.18c0-2.43,1.38-2.99,2.19-2.99
	c0.85,0,1.58,0.59,1.58,2.22v3.95c0,0.37,0.22,0.58,0.59,0.58h0.48c0.37,0,0.58-0.21,0.58-0.58v-3.36c0.08-2.35,1.46-2.82,2.19-2.82
	c0.85,0,1.58,0.59,1.58,2.22v3.95c0,0.37,0.22,0.58,0.59,0.58h0.48c0.37,0,0.58-0.21,0.58-0.58v-3.95c0-2.51-1.17-3.66-3.07-3.66
	c-0.96,0-2.05,0.27-2.72,1.65c-0.61-1.39-1.74-1.65-2.53-1.65c-1.17,0-2.19,0.59-2.53,1.74v-0.99c0-0.37-0.21-0.58-0.58-0.58h-0.48
	c-0.37,0-0.59,0.21-0.59,0.58v6.86C101.6,285.13,101.82,285.33,102.19,285.33z M120.93,285.51c2.38,0,3.97-1.89,3.97-4.19
	c0-2.3-1.58-4.18-3.97-4.18c-1.07,0-2.13,0.37-2.88,1.44v-4.24c0-0.37-0.21-0.58-0.58-0.58h-0.48c-0.37,0-0.59,0.21-0.59,0.58v10.42
	c0,0.37,0.22,0.58,0.59,0.58h0.48c0.37,0,0.58-0.21,0.58-0.58v-0.69C118.8,285.14,119.85,285.51,120.93,285.51z M120.69,284.07
	c-1.57,0-2.66-1.17-2.67-2.75c0.02-1.58,1.1-2.75,2.67-2.75c1.63,0,2.56,1.26,2.56,2.75C123.25,282.82,122.32,284.07,120.69,284.07z
	 M130.69,285.51c1.01,0,2.08-0.24,3.01-0.99c0.37-0.3,0.37-0.64,0.11-0.91l-0.11-0.13c-0.26-0.26-0.51-0.27-0.82-0.08
	c-0.69,0.46-1.39,0.67-2.18,0.67c-1.74,0-2.98-1.09-2.93-2.58h6.21c0.38,0,0.61-0.21,0.56-0.59c-0.22-2.56-2.06-3.76-4.08-3.76
	c-2.5,0-4.32,1.87-4.32,4.21C126.15,283.64,127.88,285.51,130.69,285.51z M127.93,280.28c0.5-1.36,1.65-1.73,2.58-1.73
	c0.88,0,2,0.3,2.42,1.73H127.93z M136.88,285.33h0.48c0.37,0,0.58-0.21,0.58-0.58v-2.48c0-3.28,1.44-3.57,2.02-3.57
	c0.14,0,0.29,0.02,0.43,0.05c0.27,0.06,0.43-0.1,0.43-0.5v-0.46c0-0.32-0.05-0.59-0.38-0.64l-0.35-0.02c-0.96,0-1.87,0.69-2.14,1.97
	v-1.22c0-0.37-0.21-0.58-0.58-0.58h-0.48c-0.37,0-0.59,0.21-0.59,0.58v6.86C136.29,285.13,136.51,285.33,136.88,285.33z
	 M144.59,285.51c1.57,0,2.91-0.88,2.91-2.42c0-0.86-0.42-1.81-1.95-2.29l-1.15-0.38c-0.46-0.14-0.93-0.42-0.93-0.93
	c0-0.56,0.45-0.99,1.15-0.99c0.35,0,0.7,0.1,0.98,0.42c0.22,0.29,0.42,0.43,0.75,0.34l0.3-0.06c0.38-0.08,0.58-0.37,0.37-0.74
	c-0.53-0.98-1.47-1.31-2.45-1.31c-1.6,0-2.69,1.02-2.69,2.4c0,1.14,0.77,1.82,2,2.19l1.07,0.37c0.56,0.19,0.99,0.46,0.99,0.98
	c0,0.61-0.58,1.06-1.34,1.06c-0.62,0-1.17-0.26-1.49-0.66c-0.21-0.27-0.4-0.42-0.72-0.34l-0.34,0.1c-0.38,0.1-0.58,0.35-0.38,0.72
	C142.23,284.98,143.36,285.51,144.59,285.51z"/>
<path d="M60.7,325.33h6.05c0.5,0,0.78-0.27,0.78-0.77v-0.61c0-0.5-0.29-0.77-0.78-0.77h-4.29v-8.29c0-0.5-0.27-0.77-0.77-0.77H60.7
	c-0.5,0-0.78,0.27-0.78,0.77v9.66C59.91,325.06,60.2,325.33,60.7,325.33z M72.15,325.51c1.09,0,2.05-0.42,2.64-1.33v0.38
	c0,0.5,0.27,0.77,0.77,0.77h0.94c0.5,0,0.77-0.27,0.77-0.77v-6.69c0-0.5-0.27-0.77-0.77-0.77h-0.94c-0.5,0-0.77,0.27-0.77,0.77v0.4
	c-0.59-0.93-1.55-1.34-2.64-1.34c-2.3,0-3.95,1.87-3.95,4.29C68.19,323.65,69.84,325.51,72.15,325.51z M72.72,323.53
	c-1.3,0-2.05-1.02-2.05-2.3c0-1.26,0.75-2.3,2.05-2.3c1.26,0,2.1,0.99,2.1,2.3S73.99,323.53,72.72,323.53z M82.13,325.51
	c1.23,0,2.1-0.54,2.51-1.47v0.53c0,0.5,0.27,0.77,0.77,0.77h0.93c0.5,0,0.78-0.27,0.78-0.77v-6.69c0-0.5-0.29-0.77-0.78-0.77h-0.93
	c-0.5,0-0.77,0.27-0.77,0.77v3.42c0,1.54-0.9,2.21-1.73,2.21c-0.85,0-1.3-0.69-1.3-1.84v-3.79c0-0.5-0.27-0.77-0.77-0.77h-0.94
	c-0.5,0-0.77,0.27-0.77,0.77v3.97C79.14,323.78,79.94,325.51,82.13,325.51z M89.88,325.33h0.94c0.5,0,0.77-0.27,0.77-0.77v-2.59
	c0-2.06,0.88-2.69,1.84-2.69c0.13,0,0.26,0.02,0.4,0.03c0.34,0.05,0.56-0.14,0.56-0.59v-1.12c0-0.32-0.08-0.62-0.46-0.66l-0.27-0.02
	c-0.7,0-1.86,0.46-2.13,1.97v-1.02c0-0.5-0.27-0.77-0.77-0.77h-0.88c-0.5,0-0.77,0.27-0.77,0.77v6.69
	C89.11,325.06,89.38,325.33,89.88,325.33z M99.66,325.51c1.06,0,2.16-0.24,3.1-0.93c0.43-0.32,0.46-0.75,0.14-1.14l-0.18-0.22
	c-0.3-0.37-0.66-0.4-1.09-0.16c-0.62,0.35-1.23,0.5-1.82,0.5c-1.58,0-2.56-0.94-2.53-1.92h5.73c0.48,0,0.8-0.21,0.78-0.67
	c-0.11-2.62-2.03-4.03-4.37-4.03c-2.77,0-4.51,2-4.51,4.32C94.93,323.61,96.72,325.51,99.66,325.51z M97.36,320.26
	c0.27-1.07,1.25-1.46,2.11-1.46c0.85,0,1.79,0.35,2.02,1.46H97.36z M105.99,325.33h0.94c0.5,0,0.77-0.27,0.77-0.77v-3.42
	c0-1.54,0.88-2.19,1.73-2.19s1.3,0.67,1.3,1.82v3.79c0,0.5,0.27,0.77,0.77,0.77h0.93c0.5,0,0.78-0.27,0.78-0.77v-3.97
	c0-1.94-0.8-3.66-3.01-3.66c-1.22,0-2.1,0.54-2.5,1.49v-0.54c0-0.5-0.27-0.77-0.77-0.77h-0.94c-0.5,0-0.77,0.27-0.77,0.77v6.69
	C105.22,325.06,105.49,325.33,105.99,325.33z M118.39,325.51c1.49,0,2.75-0.74,2.75-2.51c0-0.13-0.03-0.38-0.1-0.62
	c-0.06-0.24-0.24-0.32-0.45-0.32h-0.98c-0.27,0-0.37,0.14-0.34,0.43c0.02,0.11,0.02,0.21,0.02,0.29c0,0.43-0.27,0.75-0.69,0.75
	c-0.37,0-0.67-0.24-0.67-0.85v-3.73h1.86c0.26,0,0.4-0.14,0.4-0.4v-1.04c0-0.26-0.14-0.4-0.4-0.4h-1.86v-1.62
	c0-0.35-0.19-0.56-0.56-0.56h-0.78c-0.34,0-0.56,0.18-0.62,0.51l-0.27,1.66h-1.01c-0.26,0-0.42,0.14-0.42,0.4v1.04
	c0,0.26,0.16,0.4,0.42,0.4h0.82v3.65C115.51,324.87,117,325.51,118.39,325.51z M129.45,328.36l0.48-0.27
	c0.19-0.13,0.22-0.3,0.11-0.48c-0.83-1.25-2.21-3.62-2.21-6.77c0-3.18,1.38-5.55,2.21-6.78c0.11-0.19,0.06-0.37-0.13-0.48
	l-0.46-0.29c-0.19-0.11-0.35-0.1-0.48,0.06c-0.98,1.1-2.77,3.73-2.77,7.46c0,3.76,1.79,6.38,2.77,7.49
	C129.09,328.45,129.27,328.47,129.45,328.36z M134.54,325.51c1.07,0,2.11-0.37,2.86-1.44v0.69c0,0.37,0.22,0.58,0.59,0.58h0.48
	c0.37,0,0.58-0.21,0.58-0.58v-6.86c0-0.37-0.21-0.58-0.58-0.58H138c-0.37,0-0.59,0.21-0.59,0.58v0.69
	c-0.75-1.07-1.79-1.44-2.86-1.44c-2.38,0-3.97,1.87-3.97,4.18C130.57,323.62,132.16,325.51,134.54,325.51z M134.76,324.07
	c-1.62,0-2.54-1.25-2.54-2.75c0-1.49,0.93-2.75,2.54-2.75c1.58,0,2.66,1.17,2.67,2.75C137.42,322.9,136.35,324.07,134.76,324.07z
	 M144.87,325.51c1.07,0,2.11-0.37,2.86-1.44v0.69c0,0.37,0.22,0.58,0.59,0.58h0.48c0.37,0,0.58-0.21,0.58-0.58v-10.42
	c0-0.37-0.21-0.58-0.58-0.58h-0.48c-0.37,0-0.59,0.21-0.59,0.58v4.24c-0.75-1.07-1.79-1.44-2.86-1.44c-2.38,0-3.97,1.87-3.97,4.18
	C140.9,323.62,142.48,325.51,144.87,325.51z M145.09,324.07c-1.62,0-2.54-1.25-2.54-2.75c0-1.49,0.93-2.75,2.54-2.75
	c1.58,0,2.66,1.17,2.67,2.75C147.75,322.9,146.68,324.07,145.09,324.07z M152.4,325.33h0.48c0.37,0,0.58-0.21,0.58-0.58v-3.18
	c0-2.43,1.38-2.99,2.19-2.99c0.85,0,1.58,0.59,1.58,2.22v3.95c0,0.37,0.22,0.58,0.59,0.58h0.48c0.37,0,0.58-0.21,0.58-0.58v-3.36
	c0.08-2.35,1.46-2.82,2.19-2.82c0.85,0,1.58,0.59,1.58,2.22v3.95c0,0.37,0.22,0.58,0.59,0.58h0.48c0.37,0,0.58-0.21,0.58-0.58v-3.95
	c0-2.51-1.17-3.66-3.07-3.66c-0.96,0-2.05,0.27-2.72,1.65c-0.61-1.39-1.74-1.65-2.53-1.65c-1.17,0-2.19,0.59-2.53,1.74v-0.99
	c0-0.37-0.21-0.58-0.58-0.58h-0.48c-0.37,0-0.59,0.21-0.59,0.58v6.86C151.8,325.13,152.03,325.33,152.4,325.33z M167.46,315.86
	c0.64,0,1.14-0.48,1.14-1.09c0-0.62-0.48-1.12-1.14-1.12c-0.64,0-1.1,0.5-1.1,1.12C166.36,315.38,166.82,315.86,167.46,315.86z
	 M167.24,325.33h0.48c0.37,0,0.58-0.21,0.58-0.58v-6.86c0-0.37-0.21-0.58-0.58-0.58h-0.48c-0.37,0-0.59,0.21-0.59,0.58v6.86
	C166.65,325.13,166.87,325.33,167.24,325.33z M171.35,325.33h0.48c0.37,0,0.58-0.21,0.58-0.58v-3.18c0-2.43,1.66-2.99,2.5-2.99
	c0.85,0,1.6,0.59,1.6,2.24v3.94c0,0.37,0.21,0.58,0.58,0.58h0.48c0.37,0,0.59-0.21,0.59-0.58v-3.95c0-2.51-1.3-3.66-3.07-3.66
	c-1.3,0-2.32,0.62-2.67,1.74v-0.99c0-0.37-0.21-0.58-0.58-0.58h-0.48c-0.37,0-0.59,0.21-0.59,0.58v6.86
	C170.76,325.13,170.98,325.33,171.35,325.33z M180.42,328.29c0.96-1.1,2.75-3.73,2.75-7.49c0-3.73-1.79-6.35-2.75-7.47
	c-0.14-0.14-0.32-0.16-0.48-0.06l-0.5,0.3c-0.18,0.11-0.22,0.29-0.1,0.48c0.82,1.23,2.19,3.6,2.19,6.78c0,3.15-1.38,5.52-2.19,6.77
	c-0.13,0.18-0.08,0.35,0.1,0.48l0.5,0.27C180.1,328.47,180.28,328.45,180.42,328.29z"/>
<path d="M30.78,562.33h5.65c0.37,0,0.59-0.21,0.59-0.58v-0.24c0-0.37-0.22-0.58-0.59-0.58H31.9v-9.23c0-0.37-0.21-0.58-0.58-0.58
	h-0.54c-0.37,0-0.58,0.21-0.58,0.58v10.05C30.2,562.13,30.41,562.33,30.78,562.33z M42.16,562.51c1.01,0,2.08-0.24,3.01-0.99
	c0.37-0.3,0.37-0.64,0.11-0.91l-0.11-0.13c-0.26-0.26-0.51-0.27-0.82-0.08c-0.69,0.46-1.39,0.67-2.18,0.67
	c-1.74,0-2.98-1.09-2.93-2.58h6.21c0.38,0,0.61-0.21,0.56-0.59c-0.22-2.56-2.06-3.76-4.08-3.76c-2.5,0-4.32,1.87-4.32,4.21
	C37.62,560.64,39.35,562.51,42.16,562.51z M39.39,557.28c0.5-1.36,1.65-1.73,2.58-1.73c0.88,0,2,0.3,2.42,1.73H39.39z M51.15,562.51
	c1.07,0,2.11-0.37,2.86-1.44v0.69c0,0.37,0.22,0.58,0.59,0.58h0.48c0.37,0,0.58-0.21,0.58-0.58v-6.86c0-0.37-0.21-0.58-0.58-0.58
	h-0.48c-0.37,0-0.59,0.21-0.59,0.58v0.69c-0.75-1.07-1.79-1.44-2.86-1.44c-2.38,0-3.97,1.87-3.97,4.18S48.77,562.51,51.15,562.51z
	 M51.37,561.07c-1.62,0-2.54-1.25-2.54-2.75c0-1.49,0.93-2.75,2.54-2.75c1.58,0,2.66,1.17,2.67,2.75
	C54.03,559.9,52.96,561.07,51.37,561.07z M60.84,562.33h0.83c0.34,0,0.56-0.16,0.69-0.46l2.67-6.9c0.14-0.4-0.02-0.66-0.45-0.66
	h-0.53c-0.34,0-0.54,0.14-0.67,0.46l-2.13,5.74l-2.13-5.74c-0.13-0.32-0.34-0.46-0.67-0.46h-0.53c-0.43,0-0.59,0.26-0.45,0.66
	l2.67,6.9C60.28,562.17,60.5,562.33,60.84,562.33z M70.47,562.51c1.01,0,2.08-0.24,3.01-0.99c0.37-0.3,0.37-0.64,0.11-0.91
	l-0.11-0.13c-0.26-0.26-0.51-0.27-0.82-0.08c-0.69,0.46-1.39,0.67-2.18,0.67c-1.74,0-2.98-1.09-2.93-2.58h6.21
	c0.38,0,0.61-0.21,0.56-0.59c-0.22-2.56-2.06-3.76-4.08-3.76c-2.5,0-4.32,1.87-4.32,4.21C65.93,560.64,67.66,562.51,70.47,562.51z
	 M67.71,557.28c0.5-1.36,1.65-1.73,2.58-1.73c0.88,0,2,0.3,2.42,1.73H67.71z M83.2,562.51c1.54,0,2.4-0.88,2.4-2.08
	c0-0.02,0-0.32-0.06-0.59c-0.03-0.21-0.18-0.29-0.37-0.29h-0.74c-0.22,0-0.32,0.14-0.29,0.37c0.03,0.13,0.03,0.24,0.03,0.3
	c0,0.58-0.45,0.86-0.94,0.86c-0.51,0-0.93-0.34-0.93-1.2v-4.29h2.19c0.21,0,0.32-0.13,0.32-0.34v-0.62c0-0.21-0.11-0.32-0.32-0.32
	h-2.19v-1.81c0-0.3-0.18-0.5-0.48-0.5h-0.34c-0.29,0-0.46,0.16-0.51,0.46l-0.29,1.84h-1.01c-0.21,0-0.32,0.11-0.32,0.32v0.62
	c0,0.21,0.11,0.34,0.32,0.34h0.98v4.19C80.66,561.85,81.92,562.51,83.2,562.51z M87.61,562.33h0.48c0.37,0,0.58-0.21,0.58-0.58
	v-3.18c0-2.43,1.66-2.99,2.5-2.99c0.85,0,1.6,0.59,1.6,2.24v3.94c0,0.37,0.21,0.58,0.58,0.58h0.48c0.37,0,0.59-0.21,0.59-0.58v-3.95
	c0-2.51-1.3-3.66-3.07-3.66c-1.3,0-2.32,0.62-2.67,1.74v-4.54c0-0.37-0.21-0.58-0.58-0.58h-0.48c-0.37,0-0.59,0.21-0.59,0.58v10.42
	C87.02,562.13,87.25,562.33,87.61,562.33z M97.54,552.86c0.64,0,1.14-0.48,1.14-1.09c0-0.62-0.48-1.12-1.14-1.12
	c-0.64,0-1.1,0.5-1.1,1.12C96.44,552.38,96.9,552.86,97.54,552.86z M97.32,562.33h0.48c0.37,0,0.58-0.21,0.58-0.58v-6.86
	c0-0.37-0.21-0.58-0.58-0.58h-0.48c-0.37,0-0.59,0.21-0.59,0.58v6.86C96.73,562.13,96.95,562.33,97.32,562.33z M103.22,562.51
	c1.57,0,2.91-0.88,2.91-2.42c0-0.86-0.42-1.81-1.95-2.29l-1.15-0.38c-0.46-0.14-0.93-0.42-0.93-0.93c0-0.56,0.45-0.99,1.15-0.99
	c0.35,0,0.7,0.1,0.98,0.42c0.22,0.29,0.42,0.43,0.75,0.34l0.3-0.06c0.38-0.08,0.58-0.37,0.37-0.74c-0.53-0.98-1.47-1.31-2.45-1.31
	c-1.6,0-2.69,1.02-2.69,2.4c0,1.14,0.77,1.82,2,2.19l1.07,0.37c0.56,0.19,0.99,0.46,0.99,0.98c0,0.61-0.58,1.06-1.34,1.06
	c-0.62,0-1.17-0.26-1.49-0.66c-0.21-0.27-0.4-0.42-0.72-0.34l-0.34,0.1c-0.38,0.1-0.58,0.35-0.38,0.72
	C100.85,561.98,101.99,562.51,103.22,562.51z M115.81,566.09c2.22,0,4.22-1.17,4.22-3.89v-7.31c0-0.37-0.22-0.58-0.59-0.58h-0.46
	c-0.37,0-0.59,0.21-0.59,0.56v0.7c-0.75-1.07-1.79-1.44-2.86-1.44c-2.4,0-3.97,1.89-3.97,4.18c0,2.3,1.57,4.19,3.97,4.19
	c1.07,0,2.11-0.37,2.86-1.44v1.02c0,1.7-1.06,2.58-2.59,2.58c-0.82,0-1.6-0.19-2.29-0.62c-0.34-0.21-0.61-0.18-0.78,0.19l-0.13,0.22
	c-0.16,0.32-0.11,0.61,0.18,0.8C113.51,565.74,114.42,566.09,115.81,566.09z M115.75,561.07c-1.62,0-2.54-1.25-2.54-2.75
	c0-1.49,0.93-2.75,2.54-2.75c1.58,0,2.66,1.17,2.67,2.75C118.4,559.9,117.33,561.07,115.75,561.07z M123.02,562.33h0.48
	c0.37,0,0.58-0.21,0.58-0.58v-2.48c0-3.28,1.44-3.57,2.02-3.57c0.14,0,0.29,0.02,0.43,0.05c0.27,0.06,0.43-0.1,0.43-0.5v-0.46
	c0-0.32-0.05-0.59-0.38-0.64l-0.35-0.02c-0.96,0-1.87,0.69-2.14,1.97v-1.22c0-0.37-0.21-0.58-0.58-0.58h-0.48
	c-0.37,0-0.59,0.21-0.59,0.58v6.86C122.43,562.13,122.65,562.33,123.02,562.33z M131.83,562.51c2.35,0,4.26-1.87,4.26-4.19
	c0-2.29-1.9-4.18-4.26-4.18c-2.34,0-4.22,1.87-4.22,4.18C127.6,560.65,129.49,562.51,131.83,562.51z M131.83,561.07
	c-1.42,0-2.59-1.22-2.59-2.74s1.17-2.75,2.59-2.75c1.46,0,2.61,1.23,2.61,2.75S133.28,561.07,131.83,561.07z M140.84,562.51
	c1.3,0,2.32-0.62,2.67-1.74v0.99c0,0.37,0.21,0.58,0.58,0.58h0.48c0.37,0,0.59-0.21,0.59-0.58v-6.86c0-0.37-0.22-0.58-0.59-0.58
	h-0.48c-0.37,0-0.58,0.21-0.58,0.58v3.18c0,2.42-1.66,2.99-2.5,2.99c-0.85,0-1.58-0.61-1.58-2.24v-3.94c0-0.37-0.22-0.58-0.59-0.58
	h-0.48c-0.37,0-0.58,0.21-0.58,0.58v3.95C137.79,561.36,139.07,562.51,140.84,562.51z M148.15,565.92h0.48
	c0.37,0,0.58-0.21,0.58-0.58v-4.27c0.75,1.07,1.81,1.44,2.88,1.44c2.38,0,3.97-1.89,3.97-4.19s-1.58-4.18-3.97-4.18
	c-1.07,0-2.13,0.37-2.88,1.44v-0.69c0-0.37-0.21-0.58-0.58-0.58h-0.48c-0.37,0-0.59,0.21-0.59,0.58v10.45
	C147.55,565.71,147.78,565.92,148.15,565.92z M151.84,561.07c-1.57,0-2.66-1.17-2.67-2.75c0.02-1.58,1.1-2.75,2.67-2.75
	c1.63,0,2.56,1.26,2.56,2.75C154.4,559.82,153.47,561.07,151.84,561.07z"/>
<path class="st0" d="M257.49,562.51c2.42,0,4.46-1.49,4.46-4.34v-6.46c0-0.37-0.22-0.58-0.59-0.58h-0.53
	c-0.37,0-0.58,0.21-0.58,0.58v6.46c0,1.89-1.28,2.82-2.77,2.82c-1.47,0-2.75-0.93-2.75-2.82v-6.46c0-0.37-0.21-0.58-0.58-0.58h-0.54
	c-0.35,0-0.58,0.21-0.58,0.58v6.46C253.04,561.02,255.09,562.51,257.49,562.51z M265.04,565.92h0.48c0.37,0,0.58-0.21,0.58-0.58
	v-4.27c0.75,1.07,1.81,1.44,2.88,1.44c2.38,0,3.97-1.89,3.97-4.19s-1.58-4.18-3.97-4.18c-1.07,0-2.13,0.37-2.88,1.44v-0.69
	c0-0.37-0.21-0.58-0.58-0.58h-0.48c-0.37,0-0.59,0.21-0.59,0.58v10.45C264.44,565.71,264.67,565.92,265.04,565.92z M268.73,561.07
	c-1.57,0-2.66-1.17-2.67-2.75c0.02-1.58,1.1-2.75,2.67-2.75c1.63,0,2.56,1.26,2.56,2.75C271.29,559.82,270.36,561.07,268.73,561.07z
	 M278.17,562.51c1.07,0,2.11-0.37,2.86-1.44v0.69c0,0.37,0.22,0.58,0.59,0.58h0.48c0.37,0,0.58-0.21,0.58-0.58v-10.42
	c0-0.37-0.21-0.58-0.58-0.58h-0.48c-0.37,0-0.59,0.21-0.59,0.58v4.24c-0.75-1.07-1.79-1.44-2.86-1.44c-2.38,0-3.97,1.87-3.97,4.18
	S275.78,562.51,278.17,562.51z M278.39,561.07c-1.62,0-2.54-1.25-2.54-2.75c0-1.49,0.93-2.75,2.54-2.75c1.58,0,2.66,1.17,2.67,2.75
	C281.05,559.9,279.97,561.07,278.39,561.07z M288.49,562.51c1.07,0,2.11-0.37,2.86-1.44v0.69c0,0.37,0.22,0.58,0.59,0.58h0.48
	c0.37,0,0.58-0.21,0.58-0.58v-6.86c0-0.37-0.21-0.58-0.58-0.58h-0.48c-0.37,0-0.59,0.21-0.59,0.58v0.69
	c-0.75-1.07-1.79-1.44-2.86-1.44c-2.38,0-3.97,1.87-3.97,4.18S286.11,562.51,288.49,562.51z M288.72,561.07
	c-1.62,0-2.54-1.25-2.54-2.75c0-1.49,0.93-2.75,2.54-2.75c1.58,0,2.66,1.17,2.67,2.75C291.37,559.9,290.3,561.07,288.72,561.07z
	 M298.36,562.51c1.54,0,2.4-0.88,2.4-2.08c0-0.02,0-0.32-0.06-0.59c-0.03-0.21-0.18-0.29-0.37-0.29h-0.74
	c-0.22,0-0.32,0.14-0.29,0.37c0.03,0.13,0.03,0.24,0.03,0.3c0,0.58-0.45,0.86-0.94,0.86c-0.51,0-0.93-0.34-0.93-1.2v-4.29h2.19
	c0.21,0,0.32-0.13,0.32-0.34v-0.62c0-0.21-0.11-0.32-0.32-0.32h-2.19v-1.81c0-0.3-0.18-0.5-0.48-0.5h-0.34
	c-0.29,0-0.46,0.16-0.51,0.46l-0.29,1.84h-1.01c-0.21,0-0.32,0.11-0.32,0.32v0.62c0,0.21,0.11,0.34,0.32,0.34h0.98v4.19
	C295.81,561.85,297.08,562.51,298.36,562.51z M306.13,562.51c1.01,0,2.08-0.24,3.01-0.99c0.37-0.3,0.37-0.64,0.11-0.91l-0.11-0.13
	c-0.26-0.26-0.51-0.27-0.82-0.08c-0.69,0.46-1.39,0.67-2.18,0.67c-1.74,0-2.98-1.09-2.93-2.58h6.21c0.38,0,0.61-0.21,0.56-0.59
	c-0.22-2.56-2.06-3.76-4.08-3.76c-2.5,0-4.32,1.87-4.32,4.21C301.59,560.64,303.32,562.51,306.13,562.51z M303.36,557.28
	c0.5-1.36,1.65-1.73,2.58-1.73c0.88,0,2,0.3,2.42,1.73H303.36z"/>
<path class="st6" d="M27.67,82.83h8c1.93,0,3.5,1.57,3.5,3.5v8c0,1.93-1.57,3.5-3.5,3.5h-8c-1.93,0-3.5-1.57-3.5-3.5v-8
	C24.17,84.4,25.73,82.83,27.67,82.83z"/>
<path d="M40.79,117.53c0.35,0,0.58-0.21,0.58-0.58v-0.24c0-0.37-0.22-0.58-0.58-0.58h-6.02c-0.37,0-0.58,0.21-0.58,0.58v10.05
	c0,0.37,0.21,0.58,0.58,0.58h6.02c0.35,0,0.58-0.21,0.58-0.58v-0.24c0-0.37-0.22-0.58-0.58-0.58h-4.9v-3.41h4.19
	c0.37,0,0.58-0.22,0.58-0.59v-0.21c0-0.37-0.21-0.58-0.58-0.58H35.9v-3.63H40.79z M46.6,127.51c1.07,0,2.11-0.37,2.86-1.44v0.69
	c0,0.37,0.22,0.58,0.59,0.58h0.48c0.37,0,0.58-0.21,0.58-0.58v-6.86c0-0.37-0.21-0.58-0.58-0.58h-0.48c-0.37,0-0.59,0.21-0.59,0.58
	v0.69c-0.75-1.07-1.79-1.44-2.86-1.44c-2.38,0-3.97,1.87-3.97,4.18S44.22,127.51,46.6,127.51z M46.83,126.07
	c-1.62,0-2.54-1.25-2.54-2.75c0-1.49,0.93-2.75,2.54-2.75c1.58,0,2.66,1.17,2.67,2.75C49.48,124.9,48.41,126.07,46.83,126.07z
	 M55.91,127.51c1.57,0,2.91-0.88,2.91-2.42c0-0.86-0.42-1.81-1.95-2.29l-1.15-0.38c-0.46-0.14-0.93-0.42-0.93-0.93
	c0-0.56,0.45-0.99,1.15-0.99c0.35,0,0.7,0.1,0.98,0.42c0.22,0.29,0.42,0.43,0.75,0.34l0.3-0.06c0.38-0.08,0.58-0.37,0.37-0.74
	c-0.53-0.98-1.47-1.31-2.45-1.31c-1.6,0-2.69,1.02-2.69,2.4c0,1.14,0.77,1.82,2,2.19l1.07,0.37c0.56,0.19,0.99,0.46,0.99,0.98
	c0,0.61-0.58,1.06-1.34,1.06c-0.62,0-1.17-0.26-1.49-0.66c-0.21-0.27-0.4-0.42-0.72-0.34l-0.34,0.1c-0.38,0.1-0.58,0.35-0.38,0.72
	C53.54,126.98,54.67,127.51,55.91,127.51z M62.02,130.92h0.38c0.34,0,0.54-0.13,0.67-0.45l4.46-10.48c0.18-0.42-0.02-0.67-0.45-0.67
	h-0.66c-0.34,0-0.58,0.14-0.69,0.46l-2.05,5.41l-2.22-5.42c-0.11-0.3-0.32-0.45-0.66-0.45h-0.64c-0.43,0-0.62,0.27-0.45,0.67
	l3.07,7.04l-1.23,3.22C61.41,130.65,61.58,130.92,62.02,130.92z M80.77,127.51c0.58,0,1.14-0.14,1.62-0.46
	c0.3-0.19,0.32-0.48,0.18-0.8l-0.08-0.14c-0.18-0.34-0.42-0.37-0.77-0.21c-0.22,0.13-0.5,0.19-0.82,0.19
	c-1.22,0-1.97-1.82-2.08-3.04c1.66-0.32,2.62-1.71,2.62-3.38c0-1.9-1.25-3.54-3.41-3.54h-4.14c-0.37,0-0.58,0.21-0.58,0.58v10.05
	c0,0.37,0.21,0.58,0.58,0.58h0.54c0.37,0,0.58-0.21,0.58-0.58v-3.63h2.21C77.33,124.47,78.13,127.51,80.77,127.51z M75.01,121.78
	v-4.26h2.69c1.22,0,1.98,0.88,1.98,2.14c0,1.23-0.75,2.11-1.98,2.11H75.01z M84.84,117.86c0.64,0,1.14-0.48,1.14-1.09
	c0-0.62-0.48-1.12-1.14-1.12c-0.64,0-1.1,0.5-1.1,1.12C83.74,117.38,84.2,117.86,84.84,117.86z M84.62,127.33h0.48
	c0.37,0,0.58-0.21,0.58-0.58v-6.86c0-0.37-0.21-0.58-0.58-0.58h-0.48c-0.37,0-0.59,0.21-0.59,0.58v6.86
	C84.02,127.13,84.25,127.33,84.62,127.33z M91.54,127.51c1.07,0,2.11-0.37,2.86-1.44v0.69c0,0.37,0.22,0.58,0.59,0.58h0.48
	c0.37,0,0.58-0.21,0.58-0.58v-10.42c0-0.37-0.21-0.58-0.58-0.58H95c-0.37,0-0.59,0.21-0.59,0.58v4.24
	c-0.75-1.07-1.79-1.44-2.86-1.44c-2.38,0-3.97,1.87-3.97,4.18S89.16,127.51,91.54,127.51z M91.76,126.07
	c-1.62,0-2.54-1.25-2.54-2.75c0-1.49,0.93-2.75,2.54-2.75c1.58,0,2.66,1.17,2.67,2.75C94.42,124.9,93.35,126.07,91.76,126.07z
	 M102.43,127.51c1.01,0,2.08-0.24,3.01-0.99c0.37-0.3,0.37-0.64,0.11-0.91l-0.11-0.13c-0.26-0.26-0.51-0.27-0.82-0.08
	c-0.69,0.46-1.39,0.67-2.18,0.67c-1.74,0-2.98-1.09-2.93-2.58h6.21c0.38,0,0.61-0.21,0.56-0.59c-0.22-2.56-2.06-3.76-4.08-3.76
	c-2.5,0-4.32,1.87-4.32,4.21C97.88,125.64,99.61,127.51,102.43,127.51z M99.66,122.28c0.5-1.36,1.65-1.73,2.58-1.73
	c0.88,0,2,0.3,2.42,1.73H99.66z M108.61,127.33h0.48c0.37,0,0.58-0.21,0.58-0.58v-2.48c0-3.28,1.44-3.57,2.02-3.57
	c0.14,0,0.29,0.02,0.43,0.05c0.27,0.06,0.43-0.1,0.43-0.5v-0.46c0-0.32-0.05-0.59-0.38-0.64l-0.35-0.02c-0.96,0-1.87,0.69-2.14,1.97
	v-1.22c0-0.37-0.21-0.58-0.58-0.58h-0.48c-0.37,0-0.59,0.21-0.59,0.58v6.86C108.02,127.13,108.25,127.33,108.61,127.33z
	 M116.33,127.51c1.57,0,2.91-0.88,2.91-2.42c0-0.86-0.42-1.81-1.95-2.29l-1.15-0.38c-0.46-0.14-0.93-0.42-0.93-0.93
	c0-0.56,0.45-0.99,1.15-0.99c0.35,0,0.7,0.1,0.98,0.42c0.22,0.29,0.42,0.43,0.75,0.34l0.3-0.06c0.38-0.08,0.58-0.37,0.37-0.74
	c-0.53-0.98-1.47-1.31-2.45-1.31c-1.6,0-2.69,1.02-2.69,2.4c0,1.14,0.77,1.82,2,2.19l1.07,0.37c0.56,0.19,0.99,0.46,0.99,0.98
	c0,0.61-0.58,1.06-1.34,1.06c-0.62,0-1.17-0.26-1.49-0.66c-0.21-0.27-0.4-0.42-0.72-0.34l-0.34,0.1c-0.38,0.1-0.58,0.35-0.38,0.72
	C113.96,126.98,115.1,127.51,116.33,127.51z M126.11,117.86c0.64,0,1.14-0.48,1.14-1.09c0-0.62-0.48-1.12-1.14-1.12
	c-0.64,0-1.1,0.5-1.1,1.12C125,117.38,125.47,117.86,126.11,117.86z M125.88,127.33h0.48c0.37,0,0.58-0.21,0.58-0.58v-6.86
	c0-0.37-0.21-0.58-0.58-0.58h-0.48c-0.37,0-0.59,0.21-0.59,0.58v6.86C125.29,127.13,125.51,127.33,125.88,127.33z M131.78,127.51
	c1.57,0,2.91-0.88,2.91-2.42c0-0.86-0.42-1.81-1.95-2.29l-1.15-0.38c-0.46-0.14-0.93-0.42-0.93-0.93c0-0.56,0.45-0.99,1.15-0.99
	c0.35,0,0.7,0.1,0.98,0.42c0.22,0.29,0.42,0.43,0.75,0.34l0.3-0.06c0.38-0.08,0.58-0.37,0.37-0.74c-0.53-0.98-1.47-1.31-2.45-1.31
	c-1.6,0-2.69,1.02-2.69,2.4c0,1.14,0.77,1.82,2,2.19l1.07,0.37c0.56,0.19,0.99,0.46,0.99,0.98c0,0.61-0.58,1.06-1.34,1.06
	c-0.62,0-1.17-0.26-1.49-0.66c-0.21-0.27-0.4-0.42-0.72-0.34l-0.34,0.1c-0.38,0.1-0.58,0.35-0.38,0.72
	C129.41,126.98,130.55,127.51,131.78,127.51z M144.09,127.51c1.07,0,2.11-0.37,2.86-1.44v0.69c0,0.37,0.22,0.58,0.59,0.58h0.48
	c0.37,0,0.58-0.21,0.58-0.58v-6.86c0-0.37-0.21-0.58-0.58-0.58h-0.48c-0.37,0-0.59,0.21-0.59,0.58v0.69
	c-0.75-1.07-1.79-1.44-2.86-1.44c-2.38,0-3.97,1.87-3.97,4.18S141.7,127.51,144.09,127.51z M144.31,126.07
	c-1.62,0-2.54-1.25-2.54-2.75c0-1.49,0.93-2.75,2.54-2.75c1.58,0,2.66,1.17,2.67,2.75C146.97,124.9,145.89,126.07,144.31,126.07z
	 M158.87,131.09c2.22,0,4.22-1.17,4.22-3.89v-7.31c0-0.37-0.22-0.58-0.59-0.58h-0.46c-0.37,0-0.59,0.21-0.59,0.56v0.7
	c-0.75-1.07-1.79-1.44-2.86-1.44c-2.4,0-3.97,1.89-3.97,4.18c0,2.3,1.57,4.19,3.97,4.19c1.07,0,2.11-0.37,2.86-1.44v1.02
	c0,1.7-1.06,2.58-2.59,2.58c-0.82,0-1.6-0.19-2.29-0.62c-0.34-0.21-0.61-0.18-0.78,0.19l-0.13,0.22c-0.16,0.32-0.11,0.61,0.18,0.8
	C156.57,130.74,157.48,131.09,158.87,131.09z M158.81,126.07c-1.62,0-2.54-1.25-2.54-2.75c0-1.49,0.93-2.75,2.54-2.75
	c1.58,0,2.66,1.17,2.67,2.75C161.47,124.9,160.39,126.07,158.81,126.07z M166.08,127.33h0.48c0.37,0,0.58-0.21,0.58-0.58v-2.48
	c0-3.28,1.44-3.57,2.02-3.57c0.14,0,0.29,0.02,0.43,0.05c0.27,0.06,0.43-0.1,0.43-0.5v-0.46c0-0.32-0.05-0.59-0.38-0.64l-0.35-0.02
	c-0.96,0-1.87,0.69-2.14,1.97v-1.22c0-0.37-0.21-0.58-0.58-0.58h-0.48c-0.37,0-0.59,0.21-0.59,0.58v6.86
	C165.49,127.13,165.72,127.33,166.08,127.33z M174.89,127.51c2.35,0,4.26-1.87,4.26-4.19c0-2.29-1.9-4.18-4.26-4.18
	c-2.34,0-4.22,1.87-4.22,4.18C170.67,125.65,172.55,127.51,174.89,127.51z M174.89,126.07c-1.42,0-2.59-1.22-2.59-2.74
	s1.17-2.75,2.59-2.75c1.46,0,2.61,1.23,2.61,2.75S176.35,126.07,174.89,126.07z M183.9,127.51c1.3,0,2.32-0.62,2.67-1.74v0.99
	c0,0.37,0.21,0.58,0.58,0.58h0.48c0.37,0,0.59-0.21,0.59-0.58v-6.86c0-0.37-0.22-0.58-0.59-0.58h-0.48c-0.37,0-0.58,0.21-0.58,0.58
	v3.18c0,2.42-1.66,2.99-2.5,2.99c-0.85,0-1.58-0.61-1.58-2.24v-3.94c0-0.37-0.22-0.58-0.59-0.58h-0.48c-0.37,0-0.58,0.21-0.58,0.58
	v3.95C180.85,126.36,182.13,127.51,183.9,127.51z M191.21,130.92h0.48c0.37,0,0.58-0.21,0.58-0.58v-4.27
	c0.75,1.07,1.81,1.44,2.88,1.44c2.38,0,3.97-1.89,3.97-4.19s-1.58-4.18-3.97-4.18c-1.07,0-2.13,0.37-2.88,1.44v-0.69
	c0-0.37-0.21-0.58-0.58-0.58h-0.48c-0.37,0-0.59,0.21-0.59,0.58v10.45C190.62,130.71,190.84,130.92,191.21,130.92z M194.9,126.07
	c-1.57,0-2.66-1.17-2.67-2.75c0.02-1.58,1.1-2.75,2.67-2.75c1.63,0,2.56,1.26,2.56,2.75C197.46,124.82,196.54,126.07,194.9,126.07z
	 M208.52,127.51c1.07,0,2.11-0.37,2.86-1.44v0.69c0,0.37,0.22,0.58,0.59,0.58h0.48c0.37,0,0.58-0.21,0.58-0.58v-10.42
	c0-0.37-0.21-0.58-0.58-0.58h-0.48c-0.37,0-0.59,0.21-0.59,0.58v4.24c-0.75-1.07-1.79-1.44-2.86-1.44c-2.38,0-3.97,1.87-3.97,4.18
	S206.14,127.51,208.52,127.51z M208.75,126.07c-1.62,0-2.54-1.25-2.54-2.75c0-1.49,0.93-2.75,2.54-2.75c1.58,0,2.66,1.17,2.67,2.75
	C211.4,124.9,210.33,126.07,208.75,126.07z M219.41,127.51c1.01,0,2.08-0.24,3.01-0.99c0.37-0.3,0.37-0.64,0.11-0.91l-0.11-0.13
	c-0.26-0.26-0.51-0.27-0.82-0.08c-0.69,0.46-1.39,0.67-2.18,0.67c-1.74,0-2.98-1.09-2.93-2.58h6.21c0.38,0,0.61-0.21,0.56-0.59
	c-0.22-2.56-2.06-3.76-4.08-3.76c-2.5,0-4.32,1.87-4.32,4.21C214.87,125.64,216.6,127.51,219.41,127.51z M216.64,122.28
	c0.5-1.36,1.65-1.73,2.58-1.73c0.88,0,2,0.3,2.42,1.73H216.64z M228.42,127.51c1.07,0,2.11-0.37,2.86-1.44v0.69
	c0,0.37,0.22,0.58,0.59,0.58h0.48c0.37,0,0.58-0.21,0.58-0.58v-10.42c0-0.37-0.21-0.58-0.58-0.58h-0.48c-0.37,0-0.59,0.21-0.59,0.58
	v4.24c-0.75-1.07-1.79-1.44-2.86-1.44c-2.38,0-3.97,1.87-3.97,4.18S226.03,127.51,228.42,127.51z M228.64,126.07
	c-1.62,0-2.54-1.25-2.54-2.75c0-1.49,0.93-2.75,2.54-2.75c1.58,0,2.66,1.17,2.67,2.75C231.3,124.9,230.22,126.07,228.64,126.07z
	 M236.21,117.86c0.64,0,1.14-0.48,1.14-1.09c0-0.62-0.48-1.12-1.14-1.12c-0.64,0-1.1,0.5-1.1,1.12
	C235.11,117.38,235.57,117.86,236.21,117.86z M235.99,127.33h0.48c0.37,0,0.58-0.21,0.58-0.58v-6.86c0-0.37-0.21-0.58-0.58-0.58
	h-0.48c-0.37,0-0.59,0.21-0.59,0.58v6.86C235.4,127.13,235.62,127.33,235.99,127.33z M243.44,127.51c0.58,0,1.36-0.1,2.16-0.53
	c0.51-0.26,0.62-0.64,0.4-0.94l-0.11-0.16c-0.21-0.3-0.46-0.34-0.82-0.16c-0.69,0.34-1.38,0.35-1.55,0.35
	c-1.7,0-2.94-1.14-2.94-2.75c0-1.62,1.25-2.74,2.94-2.74c0.18,0,0.86,0.02,1.55,0.35c0.35,0.16,0.59,0.14,0.82-0.16l0.13-0.16
	c0.22-0.3,0.18-0.62-0.16-0.82c-0.91-0.53-1.78-0.66-2.42-0.66c-2.9,0-4.51,1.92-4.51,4.27
	C238.93,125.7,240.61,127.51,243.44,127.51z M251.23,127.51c1.07,0,2.11-0.37,2.86-1.44v0.69c0,0.37,0.22,0.58,0.59,0.58h0.48
	c0.37,0,0.58-0.21,0.58-0.58v-6.86c0-0.37-0.21-0.58-0.58-0.58h-0.48c-0.37,0-0.59,0.21-0.59,0.58v0.69
	c-0.75-1.07-1.79-1.44-2.86-1.44c-2.38,0-3.97,1.87-3.97,4.18S248.84,127.51,251.23,127.51z M251.45,126.07
	c-1.62,0-2.54-1.25-2.54-2.75c0-1.49,0.93-2.75,2.54-2.75c1.58,0,2.66,1.17,2.67,2.75C254.11,124.9,253.04,126.07,251.45,126.07z
	 M261.09,127.51c1.54,0,2.4-0.88,2.4-2.08c0-0.02,0-0.32-0.06-0.59c-0.03-0.21-0.18-0.29-0.37-0.29h-0.74
	c-0.22,0-0.32,0.14-0.29,0.37c0.03,0.13,0.03,0.24,0.03,0.3c0,0.58-0.45,0.86-0.94,0.86c-0.51,0-0.93-0.34-0.93-1.2v-4.29h2.19
	c0.21,0,0.32-0.13,0.32-0.34v-0.62c0-0.21-0.11-0.32-0.32-0.32h-2.19v-1.81c0-0.3-0.18-0.5-0.48-0.5h-0.34
	c-0.29,0-0.46,0.16-0.51,0.46l-0.29,1.84h-1.01c-0.21,0-0.32,0.11-0.32,0.32v0.62c0,0.21,0.11,0.34,0.32,0.34h0.98v4.19
	C258.55,126.85,259.81,127.51,261.09,127.51z M268.87,127.51c1.01,0,2.08-0.24,3.01-0.99c0.37-0.3,0.37-0.64,0.11-0.91l-0.11-0.13
	c-0.26-0.26-0.51-0.27-0.82-0.08c-0.69,0.46-1.39,0.67-2.18,0.67c-1.74,0-2.98-1.09-2.93-2.58h6.21c0.38,0,0.61-0.21,0.56-0.59
	c-0.22-2.56-2.06-3.76-4.08-3.76c-2.5,0-4.32,1.87-4.32,4.21C264.32,125.64,266.05,127.51,268.87,127.51z M266.1,122.28
	c0.5-1.36,1.65-1.73,2.58-1.73c0.88,0,2,0.3,2.42,1.73H266.1z M277.87,127.51c1.07,0,2.11-0.37,2.86-1.44v0.69
	c0,0.37,0.22,0.58,0.59,0.58h0.48c0.37,0,0.58-0.21,0.58-0.58v-10.42c0-0.37-0.21-0.58-0.58-0.58h-0.48c-0.37,0-0.59,0.21-0.59,0.58
	v4.24c-0.75-1.07-1.79-1.44-2.86-1.44c-2.38,0-3.97,1.87-3.97,4.18S275.48,127.51,277.87,127.51z M278.09,126.07
	c-1.62,0-2.54-1.25-2.54-2.75c0-1.49,0.93-2.75,2.54-2.75c1.58,0,2.66,1.17,2.67,2.75C280.75,124.9,279.68,126.07,278.09,126.07z
	 M291.94,127.51c1.54,0,2.4-0.88,2.4-2.08c0-0.02,0-0.32-0.06-0.59c-0.03-0.21-0.18-0.29-0.37-0.29h-0.74
	c-0.22,0-0.32,0.14-0.29,0.37c0.03,0.13,0.03,0.24,0.03,0.3c0,0.58-0.45,0.86-0.94,0.86c-0.51,0-0.93-0.34-0.93-1.2v-4.29h2.19
	c0.21,0,0.32-0.13,0.32-0.34v-0.62c0-0.21-0.11-0.32-0.32-0.32h-2.19v-1.81c0-0.3-0.18-0.5-0.48-0.5h-0.34
	c-0.29,0-0.46,0.16-0.51,0.46l-0.29,1.84h-1.01c-0.21,0-0.32,0.11-0.32,0.32v0.62c0,0.21,0.11,0.34,0.32,0.34h0.98v4.19
	C289.39,126.85,290.66,127.51,291.94,127.51z M299.39,127.51c2.35,0,4.26-1.87,4.26-4.19c0-2.29-1.9-4.18-4.26-4.18
	c-2.34,0-4.22,1.87-4.22,4.18C295.17,125.65,297.05,127.51,299.39,127.51z M299.39,126.07c-1.42,0-2.59-1.22-2.59-2.74
	s1.17-2.75,2.59-2.75c1.46,0,2.61,1.23,2.61,2.75S300.85,126.07,299.39,126.07z M37.8,147.51c0.58,0,1.36-0.1,2.16-0.53
	c0.51-0.26,0.62-0.64,0.4-0.94l-0.11-0.16c-0.21-0.3-0.46-0.34-0.82-0.16c-0.69,0.34-1.38,0.35-1.55,0.35
	c-1.7,0-2.94-1.14-2.94-2.75c0-1.62,1.25-2.74,2.94-2.74c0.18,0,0.86,0.02,1.55,0.35c0.35,0.16,0.59,0.14,0.82-0.16l0.13-0.16
	c0.22-0.3,0.18-0.62-0.16-0.82c-0.91-0.53-1.78-0.66-2.42-0.66c-2.9,0-4.51,1.92-4.51,4.27C33.29,145.7,34.97,147.51,37.8,147.51z
	 M45.81,147.51c2.35,0,4.26-1.87,4.26-4.19c0-2.29-1.9-4.18-4.26-4.18c-2.34,0-4.22,1.87-4.22,4.18
	C41.59,145.65,43.48,147.51,45.81,147.51z M45.81,146.07c-1.42,0-2.59-1.22-2.59-2.74s1.17-2.75,2.59-2.75
	c1.46,0,2.61,1.23,2.61,2.75S47.27,146.07,45.81,146.07z M52.47,147.33h0.48c0.37,0,0.58-0.21,0.58-0.58v-3.18
	c0-2.43,1.66-2.99,2.5-2.99c0.85,0,1.6,0.59,1.6,2.24v3.94c0,0.37,0.21,0.58,0.58,0.58h0.48c0.37,0,0.59-0.21,0.59-0.58v-3.95
	c0-2.51-1.3-3.66-3.07-3.66c-1.3,0-2.32,0.62-2.67,1.74v-0.99c0-0.37-0.21-0.58-0.58-0.58h-0.48c-0.37,0-0.59,0.21-0.59,0.58v6.86
	C51.88,147.13,52.11,147.33,52.47,147.33z M64.42,147.51c1.54,0,2.4-0.88,2.4-2.08c0-0.02,0-0.32-0.06-0.59
	c-0.03-0.21-0.18-0.29-0.37-0.29h-0.74c-0.22,0-0.32,0.14-0.29,0.37c0.03,0.13,0.03,0.24,0.03,0.3c0,0.58-0.45,0.86-0.94,0.86
	c-0.51,0-0.93-0.34-0.93-1.2v-4.29h2.19c0.21,0,0.32-0.13,0.32-0.34v-0.62c0-0.21-0.11-0.32-0.32-0.32h-2.19v-1.81
	c0-0.3-0.18-0.5-0.48-0.5h-0.34c-0.29,0-0.46,0.16-0.51,0.46l-0.29,1.84H60.9c-0.21,0-0.32,0.11-0.32,0.32v0.62
	c0,0.21,0.11,0.34,0.32,0.34h0.98v4.19C61.88,146.85,63.14,147.51,64.42,147.51z M72.19,147.51c1.01,0,2.08-0.24,3.01-0.99
	c0.37-0.3,0.37-0.64,0.11-0.91l-0.11-0.13c-0.26-0.26-0.51-0.27-0.82-0.08c-0.69,0.46-1.39,0.67-2.18,0.67
	c-1.74,0-2.98-1.09-2.93-2.58h6.21c0.38,0,0.61-0.21,0.56-0.59c-0.22-2.56-2.06-3.76-4.08-3.76c-2.5,0-4.32,1.87-4.32,4.21
	C67.65,145.64,69.38,147.51,72.19,147.51z M69.43,142.28c0.5-1.36,1.65-1.73,2.58-1.73c0.88,0,2,0.3,2.42,1.73H69.43z M78.38,147.33
	h0.48c0.37,0,0.58-0.21,0.58-0.58v-3.18c0-2.43,1.66-2.99,2.5-2.99c0.85,0,1.6,0.59,1.6,2.24v3.94c0,0.37,0.21,0.58,0.58,0.58h0.48
	c0.37,0,0.59-0.21,0.59-0.58v-3.95c0-2.51-1.3-3.66-3.07-3.66c-1.3,0-2.32,0.62-2.67,1.74v-0.99c0-0.37-0.21-0.58-0.58-0.58h-0.48
	c-0.37,0-0.59,0.21-0.59,0.58v6.86C77.79,147.13,78.01,147.33,78.38,147.33z M90.33,147.51c1.54,0,2.4-0.88,2.4-2.08
	c0-0.02,0-0.32-0.06-0.59c-0.03-0.21-0.18-0.29-0.37-0.29h-0.74c-0.22,0-0.32,0.14-0.29,0.37c0.03,0.13,0.03,0.24,0.03,0.3
	c0,0.58-0.45,0.86-0.94,0.86c-0.51,0-0.93-0.34-0.93-1.2v-4.29h2.19c0.21,0,0.32-0.13,0.32-0.34v-0.62c0-0.21-0.11-0.32-0.32-0.32
	h-2.19v-1.81c0-0.3-0.18-0.5-0.48-0.5h-0.34c-0.29,0-0.46,0.16-0.51,0.46l-0.29,1.84h-1.01c-0.21,0-0.32,0.11-0.32,0.32v0.62
	c0,0.21,0.11,0.34,0.32,0.34h0.98v4.19C87.78,146.85,89.05,147.51,90.33,147.51z M101.74,147.51c1.07,0,2.11-0.37,2.86-1.44v0.69
	c0,0.37,0.22,0.58,0.59,0.58h0.48c0.37,0,0.58-0.21,0.58-0.58v-10.42c0-0.37-0.21-0.58-0.58-0.58h-0.48c-0.37,0-0.59,0.21-0.59,0.58
	v4.24c-0.75-1.07-1.79-1.44-2.86-1.44c-2.38,0-3.97,1.87-3.97,4.18S99.36,147.51,101.74,147.51z M101.97,146.07
	c-1.62,0-2.54-1.25-2.54-2.75c0-1.49,0.93-2.75,2.54-2.75c1.58,0,2.66,1.17,2.67,2.75C104.62,144.9,103.55,146.07,101.97,146.07z
	 M112.63,147.51c1.01,0,2.08-0.24,3.01-0.99c0.37-0.3,0.37-0.64,0.11-0.91l-0.11-0.13c-0.26-0.26-0.51-0.27-0.82-0.08
	c-0.69,0.46-1.39,0.67-2.18,0.67c-1.74,0-2.98-1.09-2.93-2.58h6.21c0.38,0,0.61-0.21,0.56-0.59c-0.22-2.56-2.06-3.76-4.08-3.76
	c-2.5,0-4.32,1.87-4.32,4.21C108.09,145.64,109.82,147.51,112.63,147.51z M109.86,142.28c0.5-1.36,1.65-1.73,2.58-1.73
	c0.88,0,2,0.3,2.42,1.73H109.86z M120.61,147.51c1.57,0,2.91-0.88,2.91-2.42c0-0.86-0.42-1.81-1.95-2.29l-1.15-0.38
	c-0.46-0.14-0.93-0.42-0.93-0.93c0-0.56,0.45-0.99,1.15-0.99c0.35,0,0.7,0.1,0.98,0.42c0.22,0.29,0.42,0.43,0.75,0.34l0.3-0.06
	c0.38-0.08,0.58-0.37,0.37-0.74c-0.53-0.98-1.47-1.31-2.45-1.31c-1.6,0-2.69,1.02-2.69,2.4c0,1.14,0.77,1.82,2,2.19l1.07,0.37
	c0.56,0.19,0.99,0.46,0.99,0.98c0,0.61-0.58,1.06-1.34,1.06c-0.62,0-1.17-0.26-1.49-0.66c-0.21-0.27-0.4-0.42-0.72-0.34l-0.34,0.1
	c-0.38,0.1-0.58,0.35-0.38,0.72C118.24,146.98,119.38,147.51,120.61,147.51z M126.2,137.86c0.64,0,1.14-0.48,1.14-1.09
	c0-0.62-0.48-1.12-1.14-1.12c-0.64,0-1.1,0.5-1.1,1.12C125.1,137.38,125.56,137.86,126.2,137.86z M125.98,147.33h0.48
	c0.37,0,0.58-0.21,0.58-0.58v-6.86c0-0.37-0.21-0.58-0.58-0.58h-0.48c-0.37,0-0.59,0.21-0.59,0.58v6.86
	C125.38,147.13,125.61,147.33,125.98,147.33z M133.17,151.09c2.22,0,4.22-1.17,4.22-3.89v-7.31c0-0.37-0.22-0.58-0.59-0.58h-0.46
	c-0.37,0-0.59,0.21-0.59,0.56v0.7c-0.75-1.07-1.79-1.44-2.86-1.44c-2.4,0-3.97,1.89-3.97,4.18c0,2.3,1.57,4.19,3.97,4.19
	c1.07,0,2.11-0.37,2.86-1.44v1.02c0,1.7-1.06,2.58-2.59,2.58c-0.82,0-1.6-0.19-2.29-0.62c-0.34-0.21-0.61-0.18-0.78,0.19l-0.13,0.22
	c-0.16,0.32-0.11,0.61,0.18,0.8C130.87,150.74,131.78,151.09,133.17,151.09z M133.11,146.07c-1.62,0-2.54-1.25-2.54-2.75
	c0-1.49,0.93-2.75,2.54-2.75c1.58,0,2.66,1.17,2.67,2.75C135.76,144.9,134.69,146.07,133.11,146.07z M140.38,147.33h0.48
	c0.37,0,0.58-0.21,0.58-0.58v-3.18c0-2.43,1.66-2.99,2.5-2.99c0.85,0,1.6,0.59,1.6,2.24v3.94c0,0.37,0.21,0.58,0.58,0.58h0.48
	c0.37,0,0.59-0.21,0.59-0.58v-3.95c0-2.51-1.3-3.66-3.07-3.66c-1.3,0-2.32,0.62-2.67,1.74v-0.99c0-0.37-0.21-0.58-0.58-0.58h-0.48
	c-0.37,0-0.59,0.21-0.59,0.58v6.86C139.79,147.13,140.01,147.33,140.38,147.33z M150.36,147.51c0.67,0,1.22-0.53,1.22-1.18
	c0-0.67-0.54-1.22-1.22-1.22s-1.2,0.54-1.2,1.22C149.16,146.98,149.68,147.51,150.36,147.51z M158.75,147.33h0.54
	c0.37,0,0.58-0.21,0.58-0.58v-10.05c0-0.37-0.21-0.58-0.58-0.58h-0.54c-0.37,0-0.58,0.21-0.58,0.58v10.05
	C158.17,147.13,158.38,147.33,158.75,147.33z M163.11,147.33h0.48c0.37,0,0.58-0.21,0.58-0.58v-3.18c0-2.43,1.66-2.99,2.5-2.99
	c0.85,0,1.6,0.59,1.6,2.24v3.94c0,0.37,0.21,0.58,0.58,0.58h0.48c0.37,0,0.59-0.21,0.59-0.58v-3.95c0-2.51-1.3-3.66-3.07-3.66
	c-1.3,0-2.32,0.62-2.67,1.74v-0.99c0-0.37-0.21-0.58-0.58-0.58h-0.48c-0.37,0-0.59,0.21-0.59,0.58v6.86
	C162.52,147.13,162.75,147.33,163.11,147.33z M176.99,150.92h0.48c0.37,0,0.58-0.21,0.58-0.58v-4.27c0.75,1.07,1.81,1.44,2.88,1.44
	c2.38,0,3.97-1.89,3.97-4.19s-1.58-4.18-3.97-4.18c-1.07,0-2.13,0.37-2.88,1.44v-0.69c0-0.37-0.21-0.58-0.58-0.58h-0.48
	c-0.37,0-0.59,0.21-0.59,0.58v10.45C176.4,150.71,176.62,150.92,176.99,150.92z M180.69,146.07c-1.57,0-2.66-1.17-2.67-2.75
	c0.02-1.58,1.1-2.75,2.67-2.75c1.63,0,2.56,1.26,2.56,2.75C183.25,144.82,182.32,146.07,180.69,146.07z M190.1,147.51
	c1.07,0,2.11-0.37,2.86-1.44v0.69c0,0.37,0.22,0.58,0.59,0.58h0.48c0.37,0,0.58-0.21,0.58-0.58v-6.86c0-0.37-0.21-0.58-0.58-0.58
	h-0.48c-0.37,0-0.59,0.21-0.59,0.58v0.69c-0.75-1.07-1.79-1.44-2.86-1.44c-2.38,0-3.97,1.87-3.97,4.18S187.72,147.51,190.1,147.51z
	 M190.33,146.07c-1.62,0-2.54-1.25-2.54-2.75c0-1.49,0.93-2.75,2.54-2.75c1.58,0,2.66,1.17,2.67,2.75
	C192.98,144.9,191.91,146.07,190.33,146.07z M197.61,147.33h0.48c0.37,0,0.58-0.21,0.58-0.58v-2.48c0-3.28,1.44-3.57,2.02-3.57
	c0.14,0,0.29,0.02,0.43,0.05c0.27,0.06,0.43-0.1,0.43-0.5v-0.46c0-0.32-0.05-0.59-0.38-0.64l-0.35-0.02c-0.96,0-1.87,0.69-2.14,1.97
	v-1.22c0-0.37-0.21-0.58-0.58-0.58h-0.48c-0.37,0-0.59,0.21-0.59,0.58v6.86C197.02,147.13,197.25,147.33,197.61,147.33z
	 M205.89,147.51c1.54,0,2.4-0.88,2.4-2.08c0-0.02,0-0.32-0.06-0.59c-0.03-0.21-0.18-0.29-0.37-0.29h-0.74
	c-0.22,0-0.32,0.14-0.29,0.37c0.03,0.13,0.03,0.24,0.03,0.3c0,0.58-0.45,0.86-0.94,0.86c-0.51,0-0.93-0.34-0.93-1.2v-4.29h2.19
	c0.21,0,0.32-0.13,0.32-0.34v-0.62c0-0.21-0.11-0.32-0.32-0.32h-2.19v-1.81c0-0.3-0.18-0.5-0.48-0.5h-0.34
	c-0.29,0-0.46,0.16-0.51,0.46l-0.29,1.84h-1.01c-0.21,0-0.32,0.11-0.32,0.32v0.62c0,0.21,0.11,0.34,0.32,0.34h0.98v4.19
	C203.34,146.85,204.61,147.51,205.89,147.51z M210.57,137.86c0.64,0,1.14-0.48,1.14-1.09c0-0.62-0.48-1.12-1.14-1.12
	c-0.64,0-1.1,0.5-1.1,1.12C209.47,137.38,209.93,137.86,210.57,137.86z M210.35,147.33h0.48c0.37,0,0.58-0.21,0.58-0.58v-6.86
	c0-0.37-0.21-0.58-0.58-0.58h-0.48c-0.37,0-0.59,0.21-0.59,0.58v6.86C209.76,147.13,209.98,147.33,210.35,147.33z M217.8,147.51
	c0.58,0,1.36-0.1,2.16-0.53c0.51-0.26,0.62-0.64,0.4-0.94l-0.11-0.16c-0.21-0.3-0.46-0.34-0.82-0.16c-0.69,0.34-1.38,0.35-1.55,0.35
	c-1.7,0-2.94-1.14-2.94-2.75c0-1.62,1.25-2.74,2.94-2.74c0.18,0,0.86,0.02,1.55,0.35c0.35,0.16,0.59,0.14,0.82-0.16l0.13-0.16
	c0.22-0.3,0.18-0.62-0.16-0.82c-0.91-0.53-1.78-0.66-2.42-0.66c-2.9,0-4.51,1.92-4.51,4.27C213.29,145.7,214.97,147.51,217.8,147.51
	z M225.29,147.51c1.3,0,2.32-0.62,2.67-1.74v0.99c0,0.37,0.21,0.58,0.58,0.58h0.48c0.37,0,0.59-0.21,0.59-0.58v-6.86
	c0-0.37-0.22-0.58-0.59-0.58h-0.48c-0.37,0-0.58,0.21-0.58,0.58v3.18c0,2.42-1.66,2.99-2.5,2.99c-0.85,0-1.58-0.61-1.58-2.24v-3.94
	c0-0.37-0.22-0.58-0.59-0.58h-0.48c-0.37,0-0.58,0.21-0.58,0.58v3.95C222.24,146.36,223.52,147.51,225.29,147.51z M232.65,147.33
	h0.48c0.37,0,0.58-0.21,0.58-0.58v-10.42c0-0.37-0.21-0.58-0.58-0.58h-0.48c-0.37,0-0.59,0.21-0.59,0.58v10.42
	C232.06,147.13,232.28,147.33,232.65,147.33z M239.56,147.51c1.07,0,2.11-0.37,2.86-1.44v0.69c0,0.37,0.22,0.58,0.59,0.58h0.48
	c0.37,0,0.58-0.21,0.58-0.58v-6.86c0-0.37-0.21-0.58-0.58-0.58h-0.48c-0.37,0-0.59,0.21-0.59,0.58v0.69
	c-0.75-1.07-1.79-1.44-2.86-1.44c-2.38,0-3.97,1.87-3.97,4.18S237.17,147.51,239.56,147.51z M239.78,146.07
	c-1.62,0-2.54-1.25-2.54-2.75c0-1.49,0.93-2.75,2.54-2.75c1.58,0,2.66,1.17,2.67,2.75C242.44,144.9,241.36,146.07,239.78,146.07z
	 M247.07,147.33h0.48c0.37,0,0.58-0.21,0.58-0.58v-2.48c0-3.28,1.44-3.57,2.02-3.57c0.14,0,0.29,0.02,0.43,0.05
	c0.27,0.06,0.43-0.1,0.43-0.5v-0.46c0-0.32-0.05-0.59-0.38-0.64l-0.35-0.02c-0.96,0-1.87,0.69-2.14,1.97v-1.22
	c0-0.37-0.21-0.58-0.58-0.58h-0.48c-0.37,0-0.59,0.21-0.59,0.58v6.86C246.48,147.13,246.7,147.33,247.07,147.33z M251.82,149.37
	c1.17-0.46,1.79-1.6,1.79-2.86c0-0.45-0.21-1.34-1.14-1.34c-0.78,0-1.17,0.5-1.15,1.07c0.02,0.46,0.35,0.94,0.96,0.9
	c0.08-0.02,0.18-0.03,0.27-0.06c0,0.56-0.29,1.31-1.02,1.7c-0.18,0.06-0.21,0.19-0.13,0.34l0.08,0.16
	C251.55,149.4,251.68,149.45,251.82,149.37z M260.78,137.86c0.64,0,1.14-0.48,1.14-1.09c0-0.62-0.48-1.12-1.14-1.12
	c-0.64,0-1.1,0.5-1.1,1.12C259.67,137.38,260.14,137.86,260.78,137.86z M260.55,147.33h0.48c0.37,0,0.58-0.21,0.58-0.58v-6.86
	c0-0.37-0.21-0.58-0.58-0.58h-0.48c-0.37,0-0.59,0.21-0.59,0.58v6.86C259.96,147.13,260.19,147.33,260.55,147.33z M267.01,147.51
	c1.54,0,2.4-0.88,2.4-2.08c0-0.02,0-0.32-0.06-0.59c-0.03-0.21-0.18-0.29-0.37-0.29h-0.74c-0.22,0-0.32,0.14-0.29,0.37
	c0.03,0.13,0.03,0.24,0.03,0.3c0,0.58-0.45,0.86-0.94,0.86c-0.51,0-0.93-0.34-0.93-1.2v-4.29h2.19c0.21,0,0.32-0.13,0.32-0.34v-0.62
	c0-0.21-0.11-0.32-0.32-0.32h-2.19v-1.81c0-0.3-0.18-0.5-0.48-0.5h-0.34c-0.29,0-0.46,0.16-0.51,0.46l-0.29,1.84h-1.01
	c-0.21,0-0.32,0.11-0.32,0.32v0.62c0,0.21,0.11,0.34,0.32,0.34h0.98v4.19C264.47,146.85,265.73,147.51,267.01,147.51z
	 M275.89,137.86c0.64,0,1.14-0.48,1.14-1.09c0-0.62-0.48-1.12-1.14-1.12c-0.64,0-1.1,0.5-1.1,1.12
	C274.78,137.38,275.25,137.86,275.89,137.86z M275.66,147.33h0.48c0.37,0,0.58-0.21,0.58-0.58v-6.86c0-0.37-0.21-0.58-0.58-0.58
	h-0.48c-0.37,0-0.59,0.21-0.59,0.58v6.86C275.07,147.13,275.29,147.33,275.66,147.33z M281.56,147.51c1.57,0,2.91-0.88,2.91-2.42
	c0-0.86-0.42-1.81-1.95-2.29l-1.15-0.38c-0.46-0.14-0.93-0.42-0.93-0.93c0-0.56,0.45-0.99,1.15-0.99c0.35,0,0.7,0.1,0.98,0.42
	c0.22,0.29,0.42,0.43,0.75,0.34l0.3-0.06c0.38-0.08,0.58-0.37,0.37-0.74c-0.53-0.98-1.47-1.31-2.45-1.31c-1.6,0-2.69,1.02-2.69,2.4
	c0,1.14,0.77,1.82,2,2.19l1.07,0.37c0.56,0.19,0.99,0.46,0.99,0.98c0,0.61-0.58,1.06-1.34,1.06c-0.62,0-1.17-0.26-1.49-0.66
	c-0.21-0.27-0.4-0.42-0.72-0.34l-0.34,0.1c-0.38,0.1-0.58,0.35-0.38,0.72C279.2,146.98,280.33,147.51,281.56,147.51z M37.26,167.51
	c1.07,0,2.11-0.37,2.86-1.44v0.69c0,0.37,0.22,0.58,0.59,0.58h0.48c0.37,0,0.58-0.21,0.58-0.58v-6.86c0-0.37-0.21-0.58-0.58-0.58
	h-0.48c-0.37,0-0.59,0.21-0.59,0.58v0.69c-0.75-1.07-1.79-1.44-2.86-1.44c-2.38,0-3.97,1.87-3.97,4.18S34.87,167.51,37.26,167.51z
	 M37.48,166.07c-1.62,0-2.54-1.25-2.54-2.75c0-1.49,0.93-2.75,2.54-2.75c1.58,0,2.66,1.17,2.67,2.75
	C40.14,164.9,39.07,166.07,37.48,166.07z M48.71,167.51c2.38,0,3.97-1.89,3.97-4.19s-1.58-4.18-3.97-4.18
	c-1.07,0-2.13,0.37-2.88,1.44v-4.24c0-0.37-0.21-0.58-0.58-0.58h-0.48c-0.37,0-0.59,0.21-0.59,0.58v10.42
	c0,0.37,0.22,0.58,0.59,0.58h0.48c0.37,0,0.58-0.21,0.58-0.58v-0.69C46.58,167.14,47.64,167.51,48.71,167.51z M48.47,166.07
	c-1.57,0-2.66-1.17-2.67-2.75c0.02-1.58,1.1-2.75,2.67-2.75c1.63,0,2.56,1.26,2.56,2.75C51.03,164.82,50.1,166.07,48.47,166.07z
	 M58.15,167.51c2.35,0,4.26-1.87,4.26-4.19c0-2.29-1.9-4.18-4.26-4.18c-2.34,0-4.22,1.87-4.22,4.18
	C53.93,165.65,55.82,167.51,58.15,167.51z M58.15,166.07c-1.42,0-2.59-1.22-2.59-2.74s1.17-2.75,2.59-2.75
	c1.46,0,2.61,1.23,2.61,2.75S59.61,166.07,58.15,166.07z M67.17,167.51c1.3,0,2.32-0.62,2.67-1.74v0.99c0,0.37,0.21,0.58,0.58,0.58
	h0.48c0.37,0,0.59-0.21,0.59-0.58v-6.86c0-0.37-0.22-0.58-0.59-0.58h-0.48c-0.37,0-0.58,0.21-0.58,0.58v3.18
	c0,2.42-1.66,2.99-2.5,2.99c-0.85,0-1.58-0.61-1.58-2.24v-3.94c0-0.37-0.22-0.58-0.59-0.58h-0.48c-0.37,0-0.58,0.21-0.58,0.58v3.95
	C64.11,166.36,65.39,167.51,67.17,167.51z M76.83,167.51c1.54,0,2.4-0.88,2.4-2.08c0-0.02,0-0.32-0.06-0.59
	c-0.03-0.21-0.18-0.29-0.37-0.29h-0.74c-0.22,0-0.32,0.14-0.29,0.37c0.03,0.13,0.03,0.24,0.03,0.3c0,0.58-0.45,0.86-0.94,0.86
	c-0.51,0-0.93-0.34-0.93-1.2v-4.29h2.19c0.21,0,0.32-0.13,0.32-0.34v-0.62c0-0.21-0.11-0.32-0.32-0.32h-2.19v-1.81
	c0-0.3-0.18-0.5-0.48-0.5h-0.34c-0.29,0-0.46,0.16-0.51,0.46l-0.29,1.84h-1.01c-0.21,0-0.32,0.11-0.32,0.32v0.62
	c0,0.21,0.11,0.34,0.32,0.34h0.98v4.19C74.28,166.85,75.55,167.51,76.83,167.51z M87.22,167.51c1.57,0,2.91-0.88,2.91-2.42
	c0-0.86-0.42-1.81-1.95-2.29l-1.15-0.38c-0.46-0.14-0.93-0.42-0.93-0.93c0-0.56,0.45-0.99,1.15-0.99c0.35,0,0.7,0.1,0.98,0.42
	c0.22,0.29,0.42,0.43,0.75,0.34l0.3-0.06c0.38-0.08,0.58-0.37,0.37-0.74c-0.53-0.98-1.47-1.31-2.45-1.31c-1.6,0-2.69,1.02-2.69,2.4
	c0,1.14,0.77,1.82,2,2.19l1.07,0.37c0.56,0.19,0.99,0.46,0.99,0.98c0,0.61-0.58,1.06-1.34,1.06c-0.62,0-1.17-0.26-1.49-0.66
	c-0.21-0.27-0.4-0.42-0.72-0.34l-0.34,0.1c-0.38,0.1-0.58,0.35-0.38,0.72C84.85,166.98,85.99,167.51,87.22,167.51z M92.54,167.33
	h0.48c0.37,0,0.58-0.21,0.58-0.58v-3.18c0-2.43,1.66-2.99,2.5-2.99c0.85,0,1.6,0.59,1.6,2.24v3.94c0,0.37,0.21,0.58,0.58,0.58h0.48
	c0.37,0,0.59-0.21,0.59-0.58v-3.95c0-2.51-1.3-3.66-3.07-3.66c-1.3,0-2.32,0.62-2.67,1.74v-4.54c0-0.37-0.21-0.58-0.58-0.58h-0.48
	c-0.37,0-0.59,0.21-0.59,0.58v10.42C91.94,167.13,92.17,167.33,92.54,167.33z M104.99,167.51c1.07,0,2.11-0.37,2.86-1.44v0.69
	c0,0.37,0.22,0.58,0.59,0.58h0.48c0.37,0,0.58-0.21,0.58-0.58v-6.86c0-0.37-0.21-0.58-0.58-0.58h-0.48c-0.37,0-0.59,0.21-0.59,0.58
	v0.69c-0.75-1.07-1.79-1.44-2.86-1.44c-2.38,0-3.97,1.87-3.97,4.18S102.61,167.51,104.99,167.51z M105.22,166.07
	c-1.62,0-2.54-1.25-2.54-2.75c0-1.49,0.93-2.75,2.54-2.75c1.58,0,2.66,1.17,2.67,2.75C107.87,164.9,106.8,166.07,105.22,166.07z
	 M112.51,167.33h0.48c0.37,0,0.58-0.21,0.58-0.58v-2.48c0-3.28,1.44-3.57,2.02-3.57c0.14,0,0.29,0.02,0.43,0.05
	c0.27,0.06,0.43-0.1,0.43-0.5v-0.46c0-0.32-0.05-0.59-0.38-0.64l-0.35-0.02c-0.96,0-1.87,0.69-2.14,1.97v-1.22
	c0-0.37-0.21-0.58-0.58-0.58h-0.48c-0.37,0-0.59,0.21-0.59,0.58v6.86C111.91,167.13,112.14,167.33,112.51,167.33z M118.7,157.86
	c0.64,0,1.14-0.48,1.14-1.09c0-0.62-0.48-1.12-1.14-1.12c-0.64,0-1.1,0.5-1.1,1.12C117.6,157.38,118.06,157.86,118.7,157.86z
	 M118.48,167.33h0.48c0.37,0,0.58-0.21,0.58-0.58v-6.86c0-0.37-0.21-0.58-0.58-0.58h-0.48c-0.37,0-0.59,0.21-0.59,0.58v6.86
	C117.88,167.13,118.11,167.33,118.48,167.33z M122.58,167.33h0.48c0.37,0,0.58-0.21,0.58-0.58v-3.18c0-2.43,1.66-2.99,2.5-2.99
	c0.85,0,1.6,0.59,1.6,2.24v3.94c0,0.37,0.21,0.58,0.58,0.58h0.48c0.37,0,0.59-0.21,0.59-0.58v-3.95c0-2.51-1.3-3.66-3.07-3.66
	c-1.3,0-2.32,0.62-2.67,1.74v-0.99c0-0.37-0.21-0.58-0.58-0.58h-0.48c-0.37,0-0.59,0.21-0.59,0.58v6.86
	C121.99,167.13,122.22,167.33,122.58,167.33z M135.36,171.09c2.22,0,4.22-1.17,4.22-3.89v-7.31c0-0.37-0.22-0.58-0.59-0.58h-0.46
	c-0.37,0-0.59,0.21-0.59,0.56v0.7c-0.75-1.07-1.79-1.44-2.86-1.44c-2.4,0-3.97,1.89-3.97,4.18c0,2.3,1.57,4.19,3.97,4.19
	c1.07,0,2.11-0.37,2.86-1.44v1.02c0,1.7-1.06,2.58-2.59,2.58c-0.82,0-1.6-0.19-2.29-0.62c-0.34-0.21-0.61-0.18-0.78,0.19l-0.13,0.22
	c-0.16,0.32-0.11,0.61,0.18,0.8C133.06,170.74,133.97,171.09,135.36,171.09z M135.3,166.07c-1.62,0-2.54-1.25-2.54-2.75
	c0-1.49,0.93-2.75,2.54-2.75c1.58,0,2.66,1.17,2.67,2.75C137.95,164.9,136.88,166.07,135.3,166.07z M149.11,167.51
	c1.54,0,2.4-0.88,2.4-2.08c0-0.02,0-0.32-0.06-0.59c-0.03-0.21-0.18-0.29-0.37-0.29h-0.74c-0.22,0-0.32,0.14-0.29,0.37
	c0.03,0.13,0.03,0.24,0.03,0.3c0,0.58-0.45,0.86-0.94,0.86c-0.51,0-0.93-0.34-0.93-1.2v-4.29h2.19c0.21,0,0.32-0.13,0.32-0.34v-0.62
	c0-0.21-0.11-0.32-0.32-0.32h-2.19v-1.81c0-0.3-0.18-0.5-0.48-0.5h-0.34c-0.29,0-0.46,0.16-0.51,0.46l-0.29,1.84h-1.01
	c-0.21,0-0.32,0.11-0.32,0.32v0.62c0,0.21,0.11,0.34,0.32,0.34h0.98v4.19C146.56,166.85,147.83,167.51,149.11,167.51z
	 M156.88,167.51c1.01,0,2.08-0.24,3.01-0.99c0.37-0.3,0.37-0.64,0.11-0.91l-0.11-0.13c-0.26-0.26-0.51-0.27-0.82-0.08
	c-0.69,0.46-1.39,0.67-2.18,0.67c-1.74,0-2.98-1.09-2.93-2.58h6.21c0.39,0,0.61-0.21,0.56-0.59c-0.22-2.56-2.06-3.76-4.08-3.76
	c-2.5,0-4.32,1.87-4.32,4.21C152.34,165.64,154.07,167.51,156.88,167.51z M154.11,162.28c0.5-1.36,1.65-1.73,2.58-1.73
	c0.88,0,2,0.3,2.42,1.73H154.11z M166.41,167.51c0.58,0,1.36-0.1,2.16-0.53c0.51-0.26,0.62-0.64,0.4-0.94l-0.11-0.16
	c-0.21-0.3-0.46-0.34-0.82-0.16c-0.69,0.34-1.38,0.35-1.55,0.35c-1.7,0-2.94-1.14-2.94-2.75c0-1.62,1.25-2.74,2.94-2.74
	c0.18,0,0.86,0.02,1.55,0.35c0.35,0.16,0.59,0.14,0.82-0.16l0.13-0.16c0.22-0.3,0.18-0.62-0.16-0.82c-0.91-0.53-1.78-0.66-2.42-0.66
	c-2.9,0-4.51,1.92-4.51,4.27C161.9,165.7,163.58,167.51,166.41,167.51z M171.55,167.33h0.48c0.37,0,0.58-0.21,0.58-0.58v-3.18
	c0-2.43,1.66-2.99,2.5-2.99c0.85,0,1.6,0.59,1.6,2.24v3.94c0,0.37,0.21,0.58,0.58,0.58h0.48c0.37,0,0.59-0.21,0.59-0.58v-3.95
	c0-2.51-1.3-3.66-3.07-3.66c-1.3,0-2.32,0.62-2.67,1.74v-4.54c0-0.37-0.21-0.58-0.58-0.58h-0.48c-0.37,0-0.59,0.21-0.59,0.58v10.42
	C170.96,167.13,171.18,167.33,171.55,167.33z M181.21,167.33h0.48c0.37,0,0.58-0.21,0.58-0.58v-3.18c0-2.43,1.66-2.99,2.5-2.99
	c0.85,0,1.6,0.59,1.6,2.24v3.94c0,0.37,0.21,0.58,0.58,0.58h0.48c0.37,0,0.59-0.21,0.59-0.58v-3.95c0-2.51-1.3-3.66-3.07-3.66
	c-1.3,0-2.32,0.62-2.67,1.74v-0.99c0-0.37-0.21-0.58-0.58-0.58h-0.48c-0.37,0-0.59,0.21-0.59,0.58v6.86
	C180.62,167.13,180.84,167.33,181.21,167.33z M191.17,157.86c0.64,0,1.14-0.48,1.14-1.09c0-0.62-0.48-1.12-1.14-1.12
	c-0.64,0-1.1,0.5-1.1,1.12C190.06,157.38,190.53,157.86,191.17,157.86z M190.94,167.33h0.48c0.37,0,0.58-0.21,0.58-0.58v-6.86
	c0-0.37-0.21-0.58-0.58-0.58h-0.48c-0.37,0-0.59,0.21-0.59,0.58v6.86C190.35,167.13,190.58,167.33,190.94,167.33z M201.31,170.92
	h0.48c0.37,0,0.58-0.21,0.58-0.58v-10.45c0-0.37-0.21-0.58-0.58-0.58h-0.48c-0.37,0-0.59,0.21-0.59,0.58v0.69
	c-0.75-1.07-1.79-1.44-2.86-1.44c-2.38,0-3.97,1.87-3.97,4.18s1.58,4.19,3.97,4.19c1.07,0,2.11-0.37,2.86-1.44v4.27
	C200.72,170.71,200.94,170.92,201.31,170.92z M198.08,166.07c-1.62,0-2.54-1.25-2.54-2.75c0-1.49,0.93-2.75,2.54-2.75
	c1.58,0,2.66,1.17,2.67,2.75C200.73,164.9,199.66,166.07,198.08,166.07z M207.72,167.51c1.3,0,2.32-0.62,2.67-1.74v0.99
	c0,0.37,0.21,0.58,0.58,0.58h0.48c0.37,0,0.59-0.21,0.59-0.58v-6.86c0-0.37-0.22-0.58-0.59-0.58h-0.48c-0.37,0-0.58,0.21-0.58,0.58
	v3.18c0,2.42-1.66,2.99-2.5,2.99c-0.85,0-1.58-0.61-1.58-2.24v-3.94c0-0.37-0.22-0.58-0.59-0.58h-0.48c-0.37,0-0.58,0.21-0.58,0.58
	v3.95C204.66,166.36,205.94,167.51,207.72,167.51z M218.38,167.51c1.01,0,2.08-0.24,3.01-0.99c0.37-0.3,0.37-0.64,0.11-0.91
	l-0.11-0.13c-0.26-0.26-0.51-0.27-0.82-0.08c-0.69,0.46-1.39,0.67-2.18,0.67c-1.74,0-2.98-1.09-2.93-2.58h6.21
	c0.39,0,0.61-0.21,0.56-0.59c-0.22-2.56-2.06-3.76-4.08-3.76c-2.5,0-4.32,1.87-4.32,4.21C213.84,165.64,215.57,167.51,218.38,167.51
	z M215.61,162.28c0.5-1.36,1.65-1.73,2.58-1.73c0.88,0,2,0.3,2.42,1.73H215.61z M226.36,167.51c1.57,0,2.91-0.88,2.91-2.42
	c0-0.86-0.42-1.81-1.95-2.29l-1.15-0.38c-0.46-0.14-0.93-0.42-0.93-0.93c0-0.56,0.45-0.99,1.15-0.99c0.35,0,0.7,0.1,0.98,0.42
	c0.22,0.29,0.42,0.43,0.75,0.34l0.3-0.06c0.38-0.08,0.58-0.37,0.37-0.74c-0.53-0.98-1.47-1.31-2.45-1.31c-1.6,0-2.69,1.02-2.69,2.4
	c0,1.14,0.77,1.82,2,2.19l1.07,0.37c0.56,0.19,0.99,0.46,0.99,0.98c0,0.61-0.58,1.06-1.34,1.06c-0.62,0-1.17-0.26-1.49-0.66
	c-0.21-0.27-0.4-0.42-0.72-0.34l-0.34,0.1c-0.38,0.1-0.58,0.35-0.38,0.72C223.99,166.98,225.13,167.51,226.36,167.51z
	 M238.22,167.51c1.54,0,2.4-0.88,2.4-2.08c0-0.02,0-0.32-0.06-0.59c-0.03-0.21-0.18-0.29-0.37-0.29h-0.74
	c-0.22,0-0.32,0.14-0.29,0.37c0.03,0.13,0.03,0.24,0.03,0.3c0,0.58-0.45,0.86-0.94,0.86c-0.51,0-0.93-0.34-0.93-1.2v-4.29h2.19
	c0.21,0,0.32-0.13,0.32-0.34v-0.62c0-0.21-0.11-0.32-0.32-0.32h-2.19v-1.81c0-0.3-0.18-0.5-0.48-0.5h-0.34
	c-0.29,0-0.46,0.16-0.51,0.46l-0.29,1.84h-1.01c-0.21,0-0.32,0.11-0.32,0.32v0.62c0,0.21,0.11,0.34,0.32,0.34h0.98v4.19
	C235.67,166.85,236.94,167.51,238.22,167.51z M245.67,167.51c2.35,0,4.26-1.87,4.26-4.19c0-2.29-1.9-4.18-4.26-4.18
	c-2.34,0-4.22,1.87-4.22,4.18C241.45,165.65,243.33,167.51,245.67,167.51z M245.67,166.07c-1.42,0-2.59-1.22-2.59-2.74
	s1.17-2.75,2.59-2.75c1.46,0,2.61,1.23,2.61,2.75S247.13,166.07,245.67,166.07z M34.46,190.92h0.48c0.37,0,0.58-0.21,0.58-0.58
	v-4.27c0.75,1.07,1.81,1.44,2.88,1.44c2.38,0,3.97-1.89,3.97-4.19s-1.58-4.18-3.97-4.18c-1.07,0-2.13,0.37-2.88,1.44v-0.69
	c0-0.37-0.21-0.58-0.58-0.58h-0.48c-0.37,0-0.59,0.21-0.59,0.58v10.45C33.87,190.71,34.09,190.92,34.46,190.92z M38.15,186.07
	c-1.57,0-2.66-1.17-2.67-2.75c0.02-1.58,1.1-2.75,2.67-2.75c1.63,0,2.56,1.26,2.56,2.75C40.71,184.82,39.79,186.07,38.15,186.07z
	 M44.77,187.33h0.48c0.37,0,0.58-0.21,0.58-0.58v-2.48c0-3.28,1.44-3.57,2.02-3.57c0.14,0,0.29,0.02,0.43,0.05
	c0.27,0.06,0.43-0.1,0.43-0.5v-0.46c0-0.32-0.05-0.59-0.38-0.64l-0.35-0.02c-0.96,0-1.87,0.69-2.14,1.97v-1.22
	c0-0.37-0.21-0.58-0.58-0.58h-0.48c-0.37,0-0.59,0.21-0.59,0.58v6.86C44.18,187.13,44.4,187.33,44.77,187.33z M53.58,187.51
	c2.35,0,4.26-1.87,4.26-4.19c0-2.29-1.9-4.18-4.26-4.18c-2.34,0-4.22,1.87-4.22,4.18C49.35,185.65,51.24,187.51,53.58,187.51z
	 M53.58,186.07c-1.42,0-2.59-1.22-2.59-2.74s1.17-2.75,2.59-2.75c1.46,0,2.61,1.23,2.61,2.75S55.03,186.07,53.58,186.07z
	 M63.06,187.51c1.07,0,2.11-0.37,2.86-1.44v0.69c0,0.37,0.22,0.58,0.59,0.58h0.48c0.37,0,0.58-0.21,0.58-0.58v-10.42
	c0-0.37-0.21-0.58-0.58-0.58h-0.48c-0.37,0-0.59,0.21-0.59,0.58v4.24c-0.75-1.07-1.79-1.44-2.86-1.44c-2.38,0-3.97,1.87-3.97,4.18
	S60.67,187.51,63.06,187.51z M63.28,186.07c-1.62,0-2.54-1.25-2.54-2.75c0-1.49,0.93-2.75,2.54-2.75c1.58,0,2.66,1.17,2.67,2.75
	C65.94,184.9,64.86,186.07,63.28,186.07z M72.94,187.51c1.3,0,2.32-0.62,2.67-1.74v0.99c0,0.37,0.21,0.58,0.58,0.58h0.48
	c0.37,0,0.59-0.21,0.59-0.58v-6.86c0-0.37-0.22-0.58-0.59-0.58h-0.48c-0.37,0-0.58,0.21-0.58,0.58v3.18c0,2.42-1.66,2.99-2.5,2.99
	c-0.85,0-1.58-0.61-1.58-2.24v-3.94c0-0.37-0.22-0.58-0.59-0.58h-0.48c-0.37,0-0.58,0.21-0.58,0.58v3.95
	C69.88,186.36,71.16,187.51,72.94,187.51z M83.58,187.51c0.58,0,1.36-0.1,2.16-0.53c0.51-0.26,0.62-0.64,0.4-0.94l-0.11-0.16
	c-0.21-0.3-0.46-0.34-0.82-0.16c-0.69,0.34-1.38,0.35-1.55,0.35c-1.7,0-2.94-1.14-2.94-2.75c0-1.62,1.25-2.74,2.94-2.74
	c0.18,0,0.86,0.02,1.55,0.35c0.35,0.16,0.59,0.14,0.82-0.16l0.13-0.16c0.22-0.3,0.18-0.62-0.16-0.82c-0.91-0.53-1.78-0.66-2.42-0.66
	c-2.9,0-4.51,1.92-4.51,4.27C79.07,185.7,80.75,187.51,83.58,187.51z M91.91,187.51c1.01,0,2.08-0.24,3.01-0.99
	c0.37-0.3,0.37-0.64,0.11-0.91l-0.11-0.13c-0.26-0.26-0.51-0.27-0.82-0.08c-0.69,0.46-1.39,0.67-2.18,0.67
	c-1.74,0-2.98-1.09-2.93-2.58h6.21c0.38,0,0.61-0.21,0.56-0.59c-0.22-2.56-2.06-3.76-4.08-3.76c-2.5,0-4.32,1.87-4.32,4.21
	C87.37,185.64,89.1,187.51,91.91,187.51z M89.14,182.28c0.5-1.36,1.65-1.73,2.58-1.73c0.88,0,2,0.3,2.42,1.73H89.14z M104.64,187.51
	c1.54,0,2.4-0.88,2.4-2.08c0-0.02,0-0.32-0.06-0.59c-0.03-0.21-0.18-0.29-0.37-0.29h-0.74c-0.22,0-0.32,0.14-0.29,0.37
	c0.03,0.13,0.03,0.24,0.03,0.3c0,0.58-0.45,0.86-0.94,0.86c-0.51,0-0.93-0.34-0.93-1.2v-4.29h2.19c0.21,0,0.32-0.13,0.32-0.34v-0.62
	c0-0.21-0.11-0.32-0.32-0.32h-2.19v-1.81c0-0.3-0.18-0.5-0.48-0.5h-0.34c-0.29,0-0.46,0.16-0.51,0.46l-0.29,1.84h-1.01
	c-0.21,0-0.32,0.11-0.32,0.32v0.62c0,0.21,0.11,0.34,0.32,0.34h0.98v4.19C102.09,186.85,103.36,187.51,104.64,187.51z
	 M112.41,187.51c1.01,0,2.08-0.24,3.01-0.99c0.37-0.3,0.37-0.64,0.11-0.91l-0.11-0.13c-0.26-0.26-0.51-0.27-0.82-0.08
	c-0.69,0.46-1.39,0.67-2.18,0.67c-1.74,0-2.98-1.09-2.93-2.58h6.21c0.38,0,0.61-0.21,0.56-0.59c-0.22-2.56-2.06-3.76-4.08-3.76
	c-2.5,0-4.32,1.87-4.32,4.21C107.87,185.64,109.6,187.51,112.41,187.51z M109.64,182.28c0.5-1.36,1.65-1.73,2.58-1.73
	c0.88,0,2,0.3,2.42,1.73H109.64z M117.64,187.33h0.58c0.3,0,0.51-0.1,0.72-0.34l2.32-2.8l2.34,2.8c0.19,0.24,0.4,0.34,0.7,0.34h0.58
	c0.5,0,0.64-0.34,0.34-0.72l-2.86-3.44l2.62-3.15c0.32-0.38,0.18-0.7-0.34-0.7h-0.48c-0.3,0-0.53,0.1-0.72,0.32l-2.18,2.58
	l-2.18-2.58c-0.19-0.22-0.4-0.32-0.7-0.32h-0.5c-0.5,0-0.64,0.32-0.34,0.7l2.62,3.15l-2.85,3.44
	C117,187,117.15,187.33,117.64,187.33z M130.04,187.51c1.54,0,2.4-0.88,2.4-2.08c0-0.02,0-0.32-0.06-0.59
	c-0.03-0.21-0.18-0.29-0.37-0.29h-0.74c-0.22,0-0.32,0.14-0.29,0.37c0.03,0.13,0.03,0.24,0.03,0.3c0,0.58-0.45,0.86-0.94,0.86
	c-0.51,0-0.93-0.34-0.93-1.2v-4.29h2.19c0.21,0,0.32-0.13,0.32-0.34v-0.62c0-0.21-0.11-0.32-0.32-0.32h-2.19v-1.81
	c0-0.3-0.18-0.5-0.48-0.5h-0.34c-0.29,0-0.46,0.16-0.51,0.46l-0.29,1.84h-1.01c-0.21,0-0.32,0.11-0.32,0.32v0.62
	c0,0.21,0.11,0.34,0.32,0.34h0.98v4.19C127.5,186.85,128.76,187.51,130.04,187.51z M141,187.51c1.54,0,2.4-0.88,2.4-2.08
	c0-0.02,0-0.32-0.06-0.59c-0.03-0.21-0.18-0.29-0.37-0.29h-0.74c-0.22,0-0.32,0.14-0.29,0.37c0.03,0.13,0.03,0.24,0.03,0.3
	c0,0.58-0.45,0.86-0.94,0.86c-0.51,0-0.93-0.34-0.93-1.2v-4.29h2.19c0.21,0,0.32-0.13,0.32-0.34v-0.62c0-0.21-0.11-0.32-0.32-0.32
	h-2.19v-1.81c0-0.3-0.18-0.5-0.48-0.5h-0.34c-0.29,0-0.46,0.16-0.51,0.46l-0.29,1.84h-1.01c-0.21,0-0.32,0.11-0.32,0.32v0.62
	c0,0.21,0.11,0.34,0.32,0.34h0.98v4.19C138.45,186.85,139.72,187.51,141,187.51z M145.41,187.33h0.48c0.37,0,0.58-0.21,0.58-0.58
	v-3.18c0-2.43,1.66-2.99,2.5-2.99c0.85,0,1.6,0.59,1.6,2.24v3.94c0,0.37,0.21,0.58,0.58,0.58h0.48c0.37,0,0.59-0.21,0.59-0.58v-3.95
	c0-2.51-1.3-3.66-3.07-3.66c-1.3,0-2.32,0.62-2.67,1.74v-4.54c0-0.37-0.21-0.58-0.58-0.58h-0.48c-0.37,0-0.59,0.21-0.59,0.58v10.42
	C144.82,187.13,145.04,187.33,145.41,187.33z M157.87,187.51c1.07,0,2.11-0.37,2.86-1.44v0.69c0,0.37,0.22,0.58,0.59,0.58h0.48
	c0.37,0,0.58-0.21,0.58-0.58v-6.86c0-0.37-0.21-0.58-0.58-0.58h-0.48c-0.37,0-0.59,0.21-0.59,0.58v0.69
	c-0.75-1.07-1.79-1.44-2.86-1.44c-2.38,0-3.97,1.87-3.97,4.18S155.48,187.51,157.87,187.51z M158.09,186.07
	c-1.62,0-2.54-1.25-2.54-2.75c0-1.49,0.93-2.75,2.54-2.75c1.58,0,2.66,1.17,2.67,2.75C160.75,184.9,159.68,186.07,158.09,186.07z
	 M167.73,187.51c1.54,0,2.4-0.88,2.4-2.08c0-0.02,0-0.32-0.06-0.59c-0.03-0.21-0.18-0.29-0.37-0.29h-0.74
	c-0.22,0-0.32,0.14-0.29,0.37c0.03,0.13,0.03,0.24,0.03,0.3c0,0.58-0.45,0.86-0.94,0.86c-0.51,0-0.93-0.34-0.93-1.2v-4.29h2.19
	c0.21,0,0.32-0.13,0.32-0.34v-0.62c0-0.21-0.11-0.32-0.32-0.32h-2.19v-1.81c0-0.3-0.18-0.5-0.48-0.5h-0.34
	c-0.29,0-0.46,0.16-0.51,0.46l-0.29,1.84h-1.01c-0.21,0-0.32,0.11-0.32,0.32v0.62c0,0.21,0.11,0.34,0.32,0.34h0.98v4.19
	C165.19,186.85,166.45,187.51,167.73,187.51z M176.61,177.86c0.64,0,1.14-0.48,1.14-1.09c0-0.62-0.48-1.12-1.14-1.12
	c-0.64,0-1.1,0.5-1.1,1.12C175.5,177.38,175.97,177.86,176.61,177.86z M176.38,187.33h0.48c0.37,0,0.58-0.21,0.58-0.58v-6.86
	c0-0.37-0.21-0.58-0.58-0.58h-0.48c-0.37,0-0.59,0.21-0.59,0.58v6.86C175.79,187.13,176.01,187.33,176.38,187.33z M182.28,187.51
	c1.57,0,2.91-0.88,2.91-2.42c0-0.86-0.42-1.81-1.95-2.29l-1.15-0.38c-0.46-0.14-0.93-0.42-0.93-0.93c0-0.56,0.45-0.99,1.15-0.99
	c0.35,0,0.7,0.1,0.98,0.42c0.22,0.29,0.42,0.43,0.75,0.34l0.3-0.06c0.38-0.08,0.58-0.37,0.37-0.74c-0.53-0.98-1.47-1.31-2.45-1.31
	c-1.6,0-2.69,1.02-2.69,2.4c0,1.14,0.77,1.82,2,2.19l1.07,0.37c0.56,0.19,0.99,0.46,0.99,0.98c0,0.61-0.58,1.06-1.34,1.06
	c-0.62,0-1.17-0.26-1.49-0.66c-0.21-0.27-0.4-0.42-0.72-0.34l-0.34,0.1c-0.38,0.1-0.58,0.35-0.38,0.72
	C179.91,186.98,181.05,187.51,182.28,187.51z M198.04,190.92h0.48c0.37,0,0.58-0.21,0.58-0.58v-10.45c0-0.37-0.21-0.58-0.58-0.58
	h-0.48c-0.37,0-0.59,0.21-0.59,0.58v0.69c-0.75-1.07-1.79-1.44-2.86-1.44c-2.38,0-3.97,1.87-3.97,4.18s1.58,4.19,3.97,4.19
	c1.07,0,2.11-0.37,2.86-1.44v4.27C197.45,190.71,197.67,190.92,198.04,190.92z M194.81,186.07c-1.62,0-2.54-1.25-2.54-2.75
	c0-1.49,0.93-2.75,2.54-2.75c1.58,0,2.66,1.17,2.67,2.75C197.47,184.9,196.39,186.07,194.81,186.07z M204.45,187.51
	c1.3,0,2.32-0.62,2.67-1.74v0.99c0,0.37,0.21,0.58,0.58,0.58h0.48c0.37,0,0.59-0.21,0.59-0.58v-6.86c0-0.37-0.22-0.58-0.59-0.58
	h-0.48c-0.37,0-0.58,0.21-0.58,0.58v3.18c0,2.42-1.66,2.99-2.5,2.99c-0.85,0-1.58-0.61-1.58-2.24v-3.94c0-0.37-0.22-0.58-0.59-0.58
	h-0.48c-0.37,0-0.58,0.21-0.58,0.58v3.95C201.4,186.36,202.68,187.51,204.45,187.51z M212.03,177.86c0.64,0,1.14-0.48,1.14-1.09
	c0-0.62-0.48-1.12-1.14-1.12c-0.64,0-1.1,0.5-1.1,1.12C210.92,177.38,211.39,177.86,212.03,177.86z M211.8,187.33h0.48
	c0.37,0,0.58-0.21,0.58-0.58v-6.86c0-0.37-0.21-0.58-0.58-0.58h-0.48c-0.37,0-0.59,0.21-0.59,0.58v6.86
	C211.21,187.13,211.44,187.33,211.8,187.33z M219.26,187.51c0.58,0,1.36-0.1,2.16-0.53c0.51-0.26,0.62-0.64,0.4-0.94l-0.11-0.16
	c-0.21-0.3-0.46-0.34-0.82-0.16c-0.69,0.34-1.38,0.35-1.55,0.35c-1.7,0-2.94-1.14-2.94-2.75c0-1.62,1.25-2.74,2.94-2.74
	c0.18,0,0.86,0.02,1.55,0.35c0.35,0.16,0.59,0.14,0.82-0.16l0.13-0.16c0.22-0.3,0.18-0.62-0.16-0.82c-0.91-0.53-1.78-0.66-2.42-0.66
	c-2.9,0-4.51,1.92-4.51,4.27C214.74,185.7,216.42,187.51,219.26,187.51z M229.58,187.51c0.16,0,0.7,0,1.25-0.26
	c0.4-0.19,0.48-0.46,0.4-0.66l-0.26-0.51c-0.11-0.19-0.24-0.22-0.46-0.14c-0.29,0.13-0.59,0.14-0.72,0.14c-0.7,0-0.93-0.4-1.39-1.06
	l-1.33-2.03l2.46-2.98c0.32-0.38,0.18-0.7-0.34-0.7h-0.61c-0.3,0-0.53,0.1-0.7,0.34l-2.45,3.02v-6.34c0-0.37-0.21-0.58-0.58-0.58
	h-0.48c-0.37,0-0.59,0.21-0.59,0.58v10.42c0,0.37,0.22,0.58,0.59,0.58h0.48c0.37,0,0.58-0.21,0.58-0.58v-3.52l1.57,2.54
	C227.5,186.5,228.04,187.51,229.58,187.51z M239.48,187.51c1.54,0,2.4-0.88,2.4-2.08c0-0.02,0-0.32-0.06-0.59
	c-0.03-0.21-0.18-0.29-0.37-0.29h-0.74c-0.22,0-0.32,0.14-0.29,0.37c0.03,0.13,0.03,0.24,0.03,0.3c0,0.58-0.45,0.86-0.94,0.86
	c-0.51,0-0.93-0.34-0.93-1.2v-4.29h2.19c0.21,0,0.32-0.13,0.32-0.34v-0.62c0-0.21-0.11-0.32-0.32-0.32h-2.19v-1.81
	c0-0.3-0.18-0.5-0.48-0.5h-0.34c-0.29,0-0.46,0.16-0.51,0.46l-0.29,1.84h-1.01c-0.21,0-0.32,0.11-0.32,0.32v0.62
	c0,0.21,0.11,0.34,0.32,0.34h0.98v4.19C236.94,186.85,238.2,187.51,239.48,187.51z M246.94,187.51c2.35,0,4.26-1.87,4.26-4.19
	c0-2.29-1.9-4.18-4.26-4.18c-2.34,0-4.22,1.87-4.22,4.18C242.71,185.65,244.6,187.51,246.94,187.51z M246.94,186.07
	c-1.42,0-2.59-1.22-2.59-2.74s1.17-2.75,2.59-2.75c1.46,0,2.61,1.23,2.61,2.75S248.39,186.07,246.94,186.07z M257.79,187.33h0.48
	c0.37,0,0.58-0.21,0.58-0.58v-2.48c0-3.28,1.44-3.57,2.02-3.57c0.14,0,0.29,0.02,0.43,0.05c0.27,0.06,0.43-0.1,0.43-0.5v-0.46
	c0-0.32-0.05-0.59-0.38-0.64l-0.35-0.02c-0.96,0-1.87,0.69-2.14,1.97v-1.22c0-0.37-0.21-0.58-0.58-0.58h-0.48
	c-0.37,0-0.59,0.21-0.59,0.58v6.86C257.19,187.13,257.42,187.33,257.79,187.33z M266.91,187.51c1.01,0,2.08-0.24,3.01-0.99
	c0.37-0.3,0.37-0.64,0.11-0.91l-0.11-0.13c-0.26-0.26-0.51-0.27-0.82-0.08c-0.69,0.46-1.39,0.67-2.18,0.67
	c-1.74,0-2.98-1.09-2.93-2.58h6.21c0.38,0,0.61-0.21,0.56-0.59c-0.22-2.56-2.06-3.76-4.08-3.76c-2.5,0-4.32,1.87-4.32,4.21
	C262.37,185.64,264.1,187.51,266.91,187.51z M264.14,182.28c0.5-1.36,1.65-1.73,2.58-1.73c0.88,0,2,0.3,2.42,1.73H264.14z
	 M275.9,187.51c1.07,0,2.11-0.37,2.86-1.44v0.69c0,0.37,0.22,0.58,0.59,0.58h0.48c0.37,0,0.58-0.21,0.58-0.58v-6.86
	c0-0.37-0.21-0.58-0.58-0.58h-0.48c-0.37,0-0.59,0.21-0.59,0.58v0.69c-0.75-1.07-1.79-1.44-2.86-1.44c-2.38,0-3.97,1.87-3.97,4.18
	S273.52,187.51,275.9,187.51z M276.12,186.07c-1.62,0-2.54-1.25-2.54-2.75c0-1.49,0.93-2.75,2.54-2.75c1.58,0,2.66,1.17,2.67,2.75
	C278.78,184.9,277.71,186.07,276.12,186.07z M286.23,187.51c1.07,0,2.11-0.37,2.86-1.44v0.69c0,0.37,0.22,0.58,0.59,0.58h0.48
	c0.37,0,0.58-0.21,0.58-0.58v-10.42c0-0.37-0.21-0.58-0.58-0.58h-0.48c-0.37,0-0.59,0.21-0.59,0.58v4.24
	c-0.75-1.07-1.79-1.44-2.86-1.44c-2.38,0-3.97,1.87-3.97,4.18S283.84,187.51,286.23,187.51z M286.45,186.07
	c-1.62,0-2.54-1.25-2.54-2.75c0-1.49,0.93-2.75,2.54-2.75c1.58,0,2.66,1.17,2.67,2.75C289.11,184.9,288.04,186.07,286.45,186.07z
	 M37.26,207.51c1.07,0,2.11-0.37,2.86-1.44v0.69c0,0.37,0.22,0.58,0.59,0.58h0.48c0.37,0,0.58-0.21,0.58-0.58v-6.86
	c0-0.37-0.21-0.58-0.58-0.58h-0.48c-0.37,0-0.59,0.21-0.59,0.58v0.69c-0.75-1.07-1.79-1.44-2.86-1.44c-2.38,0-3.97,1.87-3.97,4.18
	S34.87,207.51,37.26,207.51z M37.48,206.07c-1.62,0-2.54-1.25-2.54-2.75c0-1.49,0.93-2.75,2.54-2.75c1.58,0,2.66,1.17,2.67,2.75
	C40.14,204.9,39.07,206.07,37.48,206.07z M44.77,207.33h0.48c0.37,0,0.58-0.21,0.58-0.58v-3.18c0-2.43,1.66-2.99,2.5-2.99
	c0.85,0,1.6,0.59,1.6,2.24v3.94c0,0.37,0.21,0.58,0.58,0.58h0.48c0.37,0,0.59-0.21,0.59-0.58v-3.95c0-2.51-1.3-3.66-3.07-3.66
	c-1.3,0-2.32,0.62-2.67,1.74v-0.99c0-0.37-0.21-0.58-0.58-0.58h-0.48c-0.37,0-0.59,0.21-0.59,0.58v6.86
	C44.18,207.13,44.4,207.33,44.77,207.33z M57.27,207.51c1.07,0,2.11-0.37,2.86-1.44v0.69c0,0.37,0.22,0.58,0.59,0.58h0.48
	c0.37,0,0.58-0.21,0.58-0.58v-10.42c0-0.37-0.21-0.58-0.58-0.58h-0.48c-0.37,0-0.59,0.21-0.59,0.58v4.24
	c-0.75-1.07-1.79-1.44-2.86-1.44c-2.38,0-3.97,1.87-3.97,4.18S54.89,207.51,57.27,207.51z M57.5,206.07c-1.62,0-2.54-1.25-2.54-2.75
	c0-1.49,0.93-2.75,2.54-2.75c1.58,0,2.66,1.17,2.67,2.75C60.15,204.9,59.08,206.07,57.5,206.07z M72.35,207.51
	c1.01,0,2.08-0.24,3.01-0.99c0.37-0.3,0.37-0.64,0.11-0.91l-0.11-0.13c-0.26-0.26-0.51-0.27-0.82-0.08
	c-0.69,0.46-1.39,0.67-2.18,0.67c-1.74,0-2.98-1.09-2.93-2.58h6.21c0.38,0,0.61-0.21,0.56-0.59c-0.22-2.56-2.06-3.76-4.08-3.76
	c-2.5,0-4.32,1.87-4.32,4.21C67.81,205.64,69.53,207.51,72.35,207.51z M69.58,202.28c0.5-1.36,1.65-1.73,2.58-1.73
	c0.88,0,2,0.3,2.42,1.73H69.58z M81.34,207.51c1.07,0,2.11-0.37,2.86-1.44v0.69c0,0.37,0.22,0.58,0.59,0.58h0.48
	c0.37,0,0.58-0.21,0.58-0.58v-6.86c0-0.37-0.21-0.58-0.58-0.58h-0.48c-0.37,0-0.59,0.21-0.59,0.58v0.69
	c-0.75-1.07-1.79-1.44-2.86-1.44c-2.38,0-3.97,1.87-3.97,4.18S78.95,207.51,81.34,207.51z M81.56,206.07
	c-1.62,0-2.54-1.25-2.54-2.75c0-1.49,0.93-2.75,2.54-2.75c1.58,0,2.66,1.17,2.67,2.75C84.22,204.9,83.14,206.07,81.56,206.07z
	 M90.64,207.51c1.57,0,2.91-0.88,2.91-2.42c0-0.86-0.42-1.81-1.95-2.29l-1.15-0.38c-0.46-0.14-0.93-0.42-0.93-0.93
	c0-0.56,0.45-0.99,1.15-0.99c0.35,0,0.7,0.1,0.98,0.42c0.22,0.29,0.42,0.43,0.75,0.34l0.3-0.06c0.38-0.08,0.58-0.37,0.37-0.74
	c-0.53-0.98-1.47-1.31-2.45-1.31c-1.6,0-2.69,1.02-2.69,2.4c0,1.14,0.77,1.82,2,2.19l1.07,0.37c0.56,0.19,0.99,0.46,0.99,0.98
	c0,0.61-0.58,1.06-1.34,1.06c-0.62,0-1.17-0.26-1.49-0.66c-0.21-0.27-0.4-0.42-0.72-0.34l-0.34,0.1c-0.38,0.1-0.58,0.35-0.38,0.72
	C88.27,206.98,89.41,207.51,90.64,207.51z M96.75,210.92h0.38c0.34,0,0.54-0.13,0.67-0.45l4.46-10.48c0.18-0.42-0.02-0.67-0.45-0.67
	h-0.66c-0.34,0-0.58,0.14-0.69,0.46l-2.05,5.41l-2.22-5.42c-0.11-0.3-0.32-0.45-0.66-0.45h-0.64c-0.43,0-0.62,0.27-0.45,0.67
	l3.07,7.04l-1.23,3.22C96.14,210.65,96.32,210.92,96.75,210.92z M110.67,207.51c1.54,0,2.4-0.88,2.4-2.08c0-0.02,0-0.32-0.06-0.59
	c-0.03-0.21-0.18-0.29-0.37-0.29h-0.74c-0.22,0-0.32,0.14-0.29,0.37c0.03,0.13,0.03,0.24,0.03,0.3c0,0.58-0.45,0.86-0.94,0.86
	c-0.51,0-0.93-0.34-0.93-1.2v-4.29h2.19c0.21,0,0.32-0.13,0.32-0.34v-0.62c0-0.21-0.11-0.32-0.32-0.32h-2.19v-1.81
	c0-0.3-0.18-0.5-0.48-0.5h-0.34c-0.29,0-0.46,0.16-0.51,0.46l-0.29,1.84h-1.01c-0.21,0-0.32,0.11-0.32,0.32v0.62
	c0,0.21,0.11,0.34,0.32,0.34h0.98v4.19C108.13,206.85,109.39,207.51,110.67,207.51z M118.12,207.51c2.35,0,4.26-1.87,4.26-4.19
	c0-2.29-1.9-4.18-4.26-4.18c-2.34,0-4.22,1.87-4.22,4.18C113.9,205.65,115.79,207.51,118.12,207.51z M118.12,206.07
	c-1.42,0-2.59-1.22-2.59-2.74s1.17-2.75,2.59-2.75c1.46,0,2.61,1.23,2.61,2.75S119.58,206.07,118.12,206.07z M131.33,207.51
	c1.3,0,2.32-0.62,2.67-1.74v0.99c0,0.37,0.21,0.58,0.58,0.58h0.48c0.37,0,0.59-0.21,0.59-0.58v-6.86c0-0.37-0.22-0.58-0.59-0.58
	h-0.48c-0.37,0-0.58,0.21-0.58,0.58v3.18c0,2.42-1.66,2.99-2.5,2.99c-0.85,0-1.58-0.61-1.58-2.24v-3.94c0-0.37-0.22-0.58-0.59-0.58
	h-0.48c-0.37,0-0.58,0.21-0.58,0.58v3.95C128.27,206.36,129.55,207.51,131.33,207.51z M138.63,207.33h0.48
	c0.37,0,0.58-0.21,0.58-0.58v-3.18c0-2.43,1.66-2.99,2.5-2.99c0.85,0,1.6,0.59,1.6,2.24v3.94c0,0.37,0.21,0.58,0.58,0.58h0.48
	c0.37,0,0.59-0.21,0.59-0.58v-3.95c0-2.51-1.3-3.66-3.07-3.66c-1.3,0-2.32,0.62-2.67,1.74v-0.99c0-0.37-0.21-0.58-0.58-0.58h-0.48
	c-0.37,0-0.59,0.21-0.59,0.58v6.86C138.04,207.13,138.26,207.33,138.63,207.33z M151.13,207.51c1.07,0,2.11-0.37,2.86-1.44v0.69
	c0,0.37,0.22,0.58,0.59,0.58h0.48c0.37,0,0.58-0.21,0.58-0.58v-10.42c0-0.37-0.21-0.58-0.58-0.58h-0.48c-0.37,0-0.59,0.21-0.59,0.58
	v4.24c-0.75-1.07-1.79-1.44-2.86-1.44c-2.38,0-3.97,1.87-3.97,4.18S148.75,207.51,151.13,207.51z M151.36,206.07
	c-1.62,0-2.54-1.25-2.54-2.75c0-1.49,0.93-2.75,2.54-2.75c1.58,0,2.66,1.17,2.67,2.75C154.01,204.9,152.94,206.07,151.36,206.07z
	 M162.02,207.51c1.01,0,2.08-0.24,3.01-0.99c0.37-0.3,0.37-0.64,0.11-0.91l-0.11-0.13c-0.26-0.26-0.51-0.27-0.82-0.08
	c-0.69,0.46-1.39,0.67-2.18,0.67c-1.74,0-2.98-1.09-2.93-2.58h6.21c0.38,0,0.61-0.21,0.56-0.59c-0.22-2.56-2.06-3.76-4.08-3.76
	c-2.5,0-4.32,1.87-4.32,4.21C157.48,205.64,159.21,207.51,162.02,207.51z M159.25,202.28c0.5-1.36,1.65-1.73,2.58-1.73
	c0.88,0,2,0.3,2.42,1.73H159.25z M168.21,207.33h0.48c0.37,0,0.58-0.21,0.58-0.58v-2.48c0-3.28,1.44-3.57,2.02-3.57
	c0.14,0,0.29,0.02,0.43,0.05c0.27,0.06,0.43-0.1,0.43-0.5v-0.46c0-0.32-0.05-0.59-0.38-0.64l-0.35-0.02c-0.96,0-1.87,0.69-2.14,1.97
	v-1.22c0-0.37-0.21-0.58-0.58-0.58h-0.48c-0.37,0-0.59,0.21-0.59,0.58v6.86C167.62,207.13,167.84,207.33,168.21,207.33z
	 M175.92,207.51c1.57,0,2.91-0.88,2.91-2.42c0-0.86-0.42-1.81-1.95-2.29l-1.15-0.38c-0.46-0.14-0.93-0.42-0.93-0.93
	c0-0.56,0.45-0.99,1.15-0.99c0.35,0,0.7,0.1,0.98,0.42c0.22,0.29,0.42,0.43,0.75,0.34l0.3-0.06c0.38-0.08,0.58-0.37,0.37-0.74
	c-0.53-0.98-1.47-1.31-2.45-1.31c-1.6,0-2.69,1.02-2.69,2.4c0,1.14,0.77,1.82,2,2.19l1.07,0.37c0.56,0.19,0.99,0.46,0.99,0.98
	c0,0.61-0.58,1.06-1.34,1.06c-0.62,0-1.17-0.26-1.49-0.66c-0.21-0.27-0.4-0.42-0.72-0.34l-0.34,0.1c-0.38,0.1-0.58,0.35-0.38,0.72
	C173.55,206.98,174.69,207.51,175.92,207.51z M183.59,207.51c1.54,0,2.4-0.88,2.4-2.08c0-0.02,0-0.32-0.06-0.59
	c-0.03-0.21-0.18-0.29-0.37-0.29h-0.74c-0.22,0-0.32,0.14-0.29,0.37c0.03,0.13,0.03,0.24,0.03,0.3c0,0.58-0.45,0.86-0.94,0.86
	c-0.51,0-0.93-0.34-0.93-1.2v-4.29h2.19c0.21,0,0.32-0.13,0.32-0.34v-0.62c0-0.21-0.11-0.32-0.32-0.32h-2.19v-1.81
	c0-0.3-0.18-0.5-0.48-0.5h-0.34c-0.29,0-0.46,0.16-0.51,0.46l-0.29,1.84h-1.01c-0.21,0-0.32,0.11-0.32,0.32v0.62
	c0,0.21,0.11,0.34,0.32,0.34h0.98v4.19C181.05,206.85,182.31,207.51,183.59,207.51z M190.81,207.51c1.07,0,2.11-0.37,2.86-1.44v0.69
	c0,0.37,0.22,0.58,0.59,0.58h0.48c0.37,0,0.58-0.21,0.58-0.58v-6.86c0-0.37-0.21-0.58-0.58-0.58h-0.48c-0.37,0-0.59,0.21-0.59,0.58
	v0.69c-0.75-1.07-1.79-1.44-2.86-1.44c-2.38,0-3.97,1.87-3.97,4.18S188.42,207.51,190.81,207.51z M191.03,206.07
	c-1.62,0-2.54-1.25-2.54-2.75c0-1.49,0.93-2.75,2.54-2.75c1.58,0,2.66,1.17,2.67,2.75C193.69,204.9,192.61,206.07,191.03,206.07z
	 M198.32,207.33h0.48c0.37,0,0.58-0.21,0.58-0.58v-3.18c0-2.43,1.66-2.99,2.5-2.99c0.85,0,1.6,0.59,1.6,2.24v3.94
	c0,0.37,0.21,0.58,0.58,0.58h0.48c0.37,0,0.59-0.21,0.59-0.58v-3.95c0-2.51-1.3-3.66-3.07-3.66c-1.3,0-2.32,0.62-2.67,1.74v-0.99
	c0-0.37-0.21-0.58-0.58-0.58h-0.48c-0.37,0-0.59,0.21-0.59,0.58v6.86C197.73,207.13,197.95,207.33,198.32,207.33z M210.82,207.51
	c1.07,0,2.11-0.37,2.86-1.44v0.69c0,0.37,0.22,0.58,0.59,0.58h0.48c0.37,0,0.58-0.21,0.58-0.58v-10.42c0-0.37-0.21-0.58-0.58-0.58
	h-0.48c-0.37,0-0.59,0.21-0.59,0.58v4.24c-0.75-1.07-1.79-1.44-2.86-1.44c-2.38,0-3.97,1.87-3.97,4.18S208.44,207.51,210.82,207.51z
	 M211.05,206.07c-1.62,0-2.54-1.25-2.54-2.75c0-1.49,0.93-2.75,2.54-2.75c1.58,0,2.66,1.17,2.67,2.75
	C213.7,204.9,212.63,206.07,211.05,206.07z M218.64,207.51c0.67,0,1.22-0.53,1.22-1.18c0-0.67-0.54-1.22-1.22-1.22
	c-0.67,0-1.2,0.54-1.2,1.22C217.44,206.98,217.97,207.51,218.64,207.51z"/>
<circle class="st7" cx="39.67" cy="321.33" r="11"/>
<path class="st1" d="M129.96,343.63c0.19-0.19,0.44-0.29,0.71-0.29s0.52,0.11,0.71,0.29l4.29,4.29l4.29-4.29
	c0.09-0.1,0.2-0.17,0.32-0.22c0.12-0.05,0.25-0.08,0.39-0.08c0.13,0,0.26,0.02,0.39,0.07c0.12,0.05,0.24,0.12,0.33,0.22
	c0.09,0.09,0.17,0.2,0.22,0.33c0.05,0.12,0.07,0.26,0.07,0.39c0,0.13-0.03,0.26-0.08,0.39c-0.05,0.12-0.13,0.23-0.22,0.33
	l-4.29,4.29l4.29,4.29c0.18,0.19,0.28,0.44,0.28,0.7c0,0.26-0.11,0.51-0.29,0.7c-0.19,0.18-0.44,0.29-0.7,0.29
	c-0.26,0-0.51-0.1-0.7-0.28l-4.29-4.29l-4.29,4.29c-0.19,0.18-0.44,0.28-0.7,0.28c-0.26,0-0.51-0.11-0.7-0.29
	c-0.18-0.19-0.29-0.44-0.29-0.7c0-0.26,0.1-0.51,0.28-0.7l4.29-4.29l-4.29-4.29c-0.19-0.19-0.29-0.44-0.29-0.71
	S129.77,343.81,129.96,343.63z"/>
<path d="M65.37,355.51c1.49,0,2.56-0.43,3.5-1.1c0.35-0.26,0.37-0.61,0.08-1.02l-0.4-0.5c-0.29-0.4-0.64-0.4-1.07-0.14
	c-0.64,0.37-1.41,0.56-2.11,0.56c-2.24,0-3.6-1.6-3.6-3.57c0-1.97,1.36-3.57,3.6-3.57c0.7,0,1.47,0.19,2.11,0.56
	c0.43,0.26,0.78,0.26,1.07-0.14l0.4-0.5c0.29-0.4,0.24-0.8-0.16-1.07c-0.93-0.64-1.98-1.06-3.42-1.06c-3.79,0-6.14,2.66-6.14,5.78
	S61.58,355.51,65.37,355.51z M73.99,355.51c1.09,0,2.05-0.42,2.64-1.33v0.38c0,0.5,0.27,0.77,0.77,0.77h0.94
	c0.5,0,0.77-0.27,0.77-0.77v-6.69c0-0.5-0.27-0.77-0.77-0.77H77.4c-0.5,0-0.77,0.27-0.77,0.77v0.4c-0.59-0.93-1.55-1.34-2.64-1.34
	c-2.3,0-3.95,1.87-3.95,4.29C70.04,353.65,71.69,355.51,73.99,355.51z M74.57,353.53c-1.3,0-2.05-1.02-2.05-2.3
	c0-1.26,0.75-2.3,2.05-2.3c1.26,0,2.1,0.99,2.1,2.3S75.83,353.53,74.57,353.53z M81.86,355.33h0.94c0.5,0,0.77-0.27,0.77-0.77v-3.42
	c0-1.54,0.88-2.19,1.73-2.19s1.3,0.67,1.3,1.82v3.79c0,0.5,0.27,0.77,0.77,0.77h0.93c0.5,0,0.78-0.27,0.78-0.77v-3.97
	c0-1.94-0.8-3.66-3.01-3.66c-1.22,0-2.1,0.54-2.5,1.49v-0.54c0-0.5-0.27-0.77-0.77-0.77h-0.94c-0.5,0-0.77,0.27-0.77,0.77v6.69
	C81.1,355.06,81.37,355.33,81.86,355.33z M94.43,355.51c1.07,0,2.03-0.42,2.62-1.33v0.38c0,0.5,0.29,0.77,0.78,0.77h0.93
	c0.5,0,0.77-0.27,0.77-0.77v-10.03c0-0.5-0.27-0.77-0.77-0.77h-0.93c-0.5,0-0.78,0.27-0.78,0.77v3.74
	c-0.59-0.93-1.55-1.34-2.62-1.34c-2.32,0-3.97,1.87-3.97,4.29C90.46,353.65,92.11,355.51,94.43,355.51z M94.99,353.53
	c-1.28,0-2.05-1.02-2.05-2.3c0-1.26,0.77-2.3,2.05-2.3c1.26,0,2.1,0.99,2.11,2.3C97.08,352.53,96.25,353.53,94.99,353.53z
	 M102.78,346.13c0.91,0,1.49-0.56,1.49-1.28c0-0.74-0.54-1.3-1.49-1.3c-0.96,0-1.49,0.56-1.49,1.3
	C101.29,345.57,101.87,346.13,102.78,346.13z M102.32,355.33h0.93c0.5,0,0.78-0.27,0.78-0.77v-6.69c0-0.5-0.29-0.77-0.78-0.77h-0.93
	c-0.5,0-0.77,0.27-0.77,0.77v6.69C101.55,355.06,101.82,355.33,102.32,355.33z M109.51,355.51c1.07,0,2.03-0.42,2.62-1.33v0.38
	c0,0.5,0.29,0.77,0.78,0.77h0.93c0.5,0,0.77-0.27,0.77-0.77v-10.03c0-0.5-0.27-0.77-0.77-0.77h-0.93c-0.5,0-0.78,0.27-0.78,0.77
	v3.74c-0.59-0.93-1.55-1.34-2.62-1.34c-2.32,0-3.97,1.87-3.97,4.29C105.54,353.65,107.19,355.51,109.51,355.51z M110.07,353.53
	c-1.28,0-2.05-1.02-2.05-2.3c0-1.26,0.77-2.3,2.05-2.3c1.26,0,2.1,0.99,2.11,2.3C112.16,352.53,111.33,353.53,110.07,353.53z
	 M120.82,355.51c1.06,0,2.16-0.24,3.1-0.93c0.43-0.32,0.46-0.75,0.14-1.14l-0.18-0.22c-0.3-0.37-0.66-0.4-1.09-0.16
	c-0.62,0.35-1.23,0.5-1.82,0.5c-1.58,0-2.56-0.94-2.53-1.92h5.73c0.48,0,0.8-0.21,0.78-0.67c-0.11-2.62-2.03-4.03-4.37-4.03
	c-2.77,0-4.51,2-4.51,4.32C116.08,353.61,117.88,355.51,120.82,355.51z M118.52,350.26c0.27-1.07,1.25-1.46,2.11-1.46
	c0.85,0,1.79,0.35,2.02,1.46H118.52z"/>
<circle class="st7" cx="39.67" cy="350.33" r="11"/>
<path d="M36.82,479.51c1.01,0,2.08-0.24,3.01-0.99c0.37-0.3,0.37-0.64,0.11-0.91l-0.11-0.13c-0.26-0.26-0.51-0.27-0.82-0.08
	c-0.69,0.46-1.39,0.67-2.18,0.67c-1.74,0-2.98-1.09-2.93-2.58h6.21c0.38,0,0.61-0.21,0.56-0.59c-0.22-2.56-2.06-3.76-4.08-3.76
	c-2.5,0-4.32,1.87-4.32,4.21C32.27,477.64,34,479.51,36.82,479.51z M34.05,474.28c0.5-1.36,1.65-1.73,2.58-1.73
	c0.88,0,2,0.3,2.42,1.73H34.05z M43.01,479.33h0.48c0.37,0,0.58-0.21,0.58-0.58v-3.18c0-2.43,1.38-2.99,2.19-2.99
	c0.85,0,1.58,0.59,1.58,2.22v3.95c0,0.37,0.22,0.58,0.59,0.58h0.48c0.37,0,0.58-0.21,0.58-0.58v-3.36c0.08-2.35,1.46-2.82,2.19-2.82
	c0.85,0,1.58,0.59,1.58,2.22v3.95c0,0.37,0.22,0.58,0.59,0.58h0.48c0.37,0,0.58-0.21,0.58-0.58v-3.95c0-2.51-1.17-3.66-3.07-3.66
	c-0.96,0-2.05,0.27-2.72,1.65c-0.61-1.39-1.74-1.65-2.53-1.65c-1.17,0-2.19,0.59-2.53,1.74v-0.99c0-0.37-0.21-0.58-0.58-0.58h-0.48
	c-0.37,0-0.59,0.21-0.59,0.58v6.86C42.41,479.13,42.64,479.33,43.01,479.33z M60.6,479.51c1.07,0,2.11-0.37,2.86-1.44v0.69
	c0,0.37,0.22,0.58,0.59,0.58h0.48c0.37,0,0.58-0.21,0.58-0.58v-6.86c0-0.37-0.21-0.58-0.58-0.58h-0.48c-0.37,0-0.59,0.21-0.59,0.58
	v0.69c-0.75-1.07-1.79-1.44-2.86-1.44c-2.38,0-3.97,1.87-3.97,4.18C56.63,477.62,58.22,479.51,60.6,479.51z M60.83,478.07
	c-1.62,0-2.54-1.25-2.54-2.75c0-1.49,0.93-2.75,2.54-2.75c1.58,0,2.66,1.17,2.67,2.75C63.48,476.9,62.41,478.07,60.83,478.07z
	 M68.39,469.86c0.64,0,1.14-0.48,1.14-1.09c0-0.62-0.48-1.12-1.14-1.12c-0.64,0-1.1,0.5-1.1,1.12
	C67.28,469.38,67.75,469.86,68.39,469.86z M68.16,479.33h0.48c0.37,0,0.58-0.21,0.58-0.58v-6.86c0-0.37-0.21-0.58-0.58-0.58h-0.48
	c-0.37,0-0.59,0.21-0.59,0.58v6.86C67.57,479.13,67.79,479.33,68.16,479.33z M72.32,479.33h0.48c0.37,0,0.58-0.21,0.58-0.58v-10.42
	c0-0.37-0.21-0.58-0.58-0.58h-0.48c-0.37,0-0.59,0.21-0.59,0.58v10.42C71.73,479.13,71.95,479.33,72.32,479.33z M82.97,479.51
	c1.54,0,2.4-0.88,2.4-2.08c0-0.02,0-0.32-0.06-0.59c-0.03-0.21-0.18-0.29-0.37-0.29H84.2c-0.22,0-0.32,0.14-0.29,0.37
	c0.03,0.13,0.03,0.24,0.03,0.3c0,0.58-0.45,0.86-0.94,0.86c-0.51,0-0.93-0.34-0.93-1.2v-4.29h2.19c0.21,0,0.32-0.13,0.32-0.34v-0.62
	c0-0.21-0.11-0.32-0.32-0.32h-2.19v-1.81c0-0.3-0.18-0.5-0.48-0.5h-0.34c-0.29,0-0.46,0.16-0.51,0.46l-0.29,1.84h-1.01
	c-0.21,0-0.32,0.11-0.32,0.32v0.62c0,0.21,0.11,0.34,0.32,0.34h0.98v4.19C80.42,478.85,81.69,479.51,82.97,479.51z M90.42,479.51
	c2.35,0,4.26-1.87,4.26-4.19c0-2.29-1.9-4.18-4.26-4.18c-2.34,0-4.22,1.87-4.22,4.18C86.2,477.65,88.08,479.51,90.42,479.51z
	 M90.42,478.07c-1.42,0-2.59-1.22-2.59-2.74s1.17-2.75,2.59-2.75c1.46,0,2.61,1.23,2.61,2.75S91.88,478.07,90.42,478.07z
	 M104.36,483.09c2.22,0,4.22-1.17,4.22-3.89v-7.31c0-0.37-0.22-0.58-0.59-0.58h-0.46c-0.37,0-0.59,0.21-0.59,0.56v0.7
	c-0.75-1.07-1.79-1.44-2.86-1.44c-2.4,0-3.97,1.89-3.97,4.18c0,2.3,1.57,4.19,3.97,4.19c1.07,0,2.11-0.37,2.86-1.44v1.02
	c0,1.7-1.06,2.58-2.59,2.58c-0.82,0-1.6-0.19-2.29-0.62c-0.34-0.21-0.61-0.18-0.78,0.19l-0.13,0.22c-0.16,0.32-0.11,0.61,0.18,0.8
	C102.06,482.74,102.97,483.09,104.36,483.09z M104.3,478.07c-1.62,0-2.54-1.25-2.54-2.75c0-1.49,0.93-2.75,2.54-2.75
	c1.58,0,2.66,1.17,2.67,2.75C106.95,476.9,105.88,478.07,104.3,478.07z M111.57,479.33h0.48c0.37,0,0.58-0.21,0.58-0.58v-2.48
	c0-3.28,1.44-3.57,2.02-3.57c0.14,0,0.29,0.02,0.43,0.05c0.27,0.06,0.43-0.1,0.43-0.5v-0.46c0-0.32-0.05-0.59-0.38-0.64l-0.35-0.02
	c-0.96,0-1.87,0.69-2.14,1.97v-1.22c0-0.37-0.21-0.58-0.58-0.58h-0.48c-0.37,0-0.59,0.21-0.59,0.58v6.86
	C110.98,479.13,111.2,479.33,111.57,479.33z M120.37,479.51c2.35,0,4.26-1.87,4.26-4.19c0-2.29-1.9-4.18-4.26-4.18
	c-2.34,0-4.22,1.87-4.22,4.18C116.15,477.65,118.04,479.51,120.37,479.51z M120.37,478.07c-1.42,0-2.59-1.22-2.59-2.74
	s1.17-2.75,2.59-2.75c1.46,0,2.61,1.23,2.61,2.75S121.83,478.07,120.37,478.07z M129.39,479.51c1.3,0,2.32-0.62,2.67-1.74v0.99
	c0,0.37,0.21,0.58,0.58,0.58h0.48c0.37,0,0.59-0.21,0.59-0.58v-6.86c0-0.37-0.22-0.58-0.59-0.58h-0.48c-0.37,0-0.58,0.21-0.58,0.58
	v3.18c0,2.42-1.66,2.99-2.5,2.99c-0.85,0-1.58-0.61-1.58-2.24v-3.94c0-0.37-0.22-0.58-0.59-0.58h-0.48c-0.37,0-0.58,0.21-0.58,0.58
	v3.95C126.33,478.36,127.61,479.51,129.39,479.51z M136.69,482.92h0.48c0.37,0,0.58-0.21,0.58-0.58v-4.27
	c0.75,1.07,1.81,1.44,2.88,1.44c2.38,0,3.97-1.89,3.97-4.19c0-2.3-1.58-4.18-3.97-4.18c-1.07,0-2.13,0.37-2.88,1.44v-0.69
	c0-0.37-0.21-0.58-0.58-0.58h-0.48c-0.37,0-0.59,0.21-0.59,0.58v10.45C136.1,482.71,136.32,482.92,136.69,482.92z M140.39,478.07
	c-1.57,0-2.66-1.17-2.67-2.75c0.02-1.58,1.1-2.75,2.67-2.75c1.63,0,2.56,1.26,2.56,2.75C142.95,476.82,142.02,478.07,140.39,478.07z
	"/>
<path class="st5" d="M26.67,461.83h127c1.93,0,3.5,1.57,3.5,3.5v20c0,1.93-1.57,3.5-3.5,3.5h-127c-1.93,0-3.5-1.57-3.5-3.5v-20
	C23.17,463.4,24.73,461.83,26.67,461.83z"/>
<line class="st8" x1="315.31" y1="245.98" x2="323.31" y2="237.98"/>
<line class="st8" x1="319.31" y1="245.98" x2="323.31" y2="241.98"/>
</svg>
