<?xml version="1.0" encoding="utf-8"?>
<!-- Generator: Adobe Illustrator 27.2.0, SVG Export Plug-In . SVG Version: 6.00 Build 0)  -->
<svg version="1.1" id="Calque_1" xmlns="http://www.w3.org/2000/svg" xmlns:xlink="http://www.w3.org/1999/xlink" x="0px" y="0px"
	 viewBox="0 0 360 520" style="enable-background:new 0 0 360 520;" xml:space="preserve">
<style type="text/css">
	.st0{fill:#FFFFFF;}
	.st1{fill:#242B35;}
	.st2{fill-rule:evenodd;clip-rule:evenodd;fill:#FFFFFF;}
	.st3{fill:none;stroke:#3F3F46;}
	.st4{fill:#3F3F46;}
	.st5{fill:#242B35;stroke:#3F3F46;}
	.st6{fill-rule:evenodd;clip-rule:evenodd;fill:#3F3F46;}
</style>
<rect x="-0.12" class="st0" width="360" height="520"/>
<rect x="-0.12" class="st1" width="360" height="30"/>
<path class="st2" d="M348.59,15.71c-0.19,0.19-0.44,0.29-0.71,0.29s-0.52-0.11-0.71-0.29l-3.29-3.29l-3.29,3.29
	c-0.19,0.18-0.44,0.28-0.7,0.28c-0.26,0-0.51-0.11-0.7-0.29c-0.18-0.19-0.29-0.44-0.29-0.7c0-0.26,0.1-0.51,0.28-0.7l4-4
	c0.19-0.19,0.44-0.29,0.71-0.29s0.52,0.11,0.71,0.29l4,4c0.19,0.19,0.29,0.44,0.29,0.71C348.88,15.27,348.78,15.52,348.59,15.71z"/>
<path class="st0" d="M9,19h0.54c0.37,0,0.58-0.21,0.58-0.58V8.38c0-0.37-0.21-0.58-0.58-0.58H9c-0.37,0-0.58,0.21-0.58,0.58v10.05
	C8.42,18.79,8.63,19,9,19z M18.83,13.26c1.46-0.37,2.11-1.41,2.11-2.56c0-1.81-1.58-2.9-3.73-2.9h-3.46c-0.37,0-0.58,0.21-0.58,0.58
	v10.05c0,0.37,0.21,0.58,0.58,0.58h3.97c2.24,0,3.74-1.18,3.74-2.99C21.47,14.63,20.59,13.45,18.83,13.26z M17.2,9.19
	c1.07,0,2,0.56,2,1.63c0,0.96-0.72,1.9-2.62,1.9h-1.7V9.19H17.2z M17.71,17.61h-2.83v-3.6h2.05c1.98,0,2.82,0.94,2.82,1.94
	C19.75,16.95,18.9,17.61,17.71,17.61z M24.31,19h0.54c0.37,0,0.58-0.21,0.58-0.58V8.38c0-0.37-0.21-0.58-0.58-0.58h-0.54
	c-0.37,0-0.58,0.21-0.58,0.58v10.05C23.73,18.79,23.94,19,24.31,19z M31.63,19.18c2.34,0,3.94-1.25,3.94-3.26
	c0-1.2-0.86-2.45-2.75-3.04l-1.66-0.62c-1.28-0.48-1.42-1.09-1.42-1.55c0-0.99,0.88-1.57,1.94-1.57c0.93,0,1.62,0.35,1.98,1.09
	c0.16,0.34,0.38,0.46,0.74,0.37l0.4-0.13c0.35-0.1,0.53-0.37,0.38-0.72c-0.51-1.26-1.76-2.11-3.52-2.11c-1.94,0-3.63,1.18-3.63,3.12
	c0,1.04,0.51,2.3,2.62,3.01l1.66,0.56c0.91,0.34,1.62,0.86,1.62,1.71c0,0.96-0.88,1.66-2.32,1.66c-1.12,0-1.97-0.54-2.37-1.23
	c-0.18-0.34-0.37-0.46-0.72-0.38l-0.46,0.11c-0.35,0.1-0.54,0.37-0.38,0.72C28.24,18.22,29.65,19.18,31.63,19.18z"/>
<path class="st3" d="M18.88,54.5h105c1.93,0,3.5,1.57,3.5,3.5v20c0,1.93-1.57,3.5-3.5,3.5h-105c-1.93,0-3.5-1.57-3.5-3.5V58
	C15.38,56.07,16.95,54.5,18.88,54.5z"/>
<path d="M23,72h3.09c3.57,0,5.76-2.51,5.76-5.6c0-3.09-2.19-5.6-5.76-5.6H23c-0.37,0-0.58,0.21-0.58,0.58v10.05
	C22.42,71.79,22.63,72,23,72z M24.12,70.61v-8.42h1.94c2.51,0,4.06,1.87,4.06,4.21s-1.55,4.21-4.06,4.21H24.12z M37.4,72.18
	c2.35,0,4.26-1.87,4.26-4.19c0-2.29-1.9-4.18-4.26-4.18c-2.34,0-4.22,1.87-4.22,4.18C33.18,70.32,35.07,72.18,37.4,72.18z
	 M37.4,70.74c-1.42,0-2.59-1.22-2.59-2.74s1.17-2.75,2.59-2.75c1.46,0,2.61,1.23,2.61,2.75S38.86,70.74,37.4,70.74z M47.41,72.18
	c0.58,0,1.36-0.1,2.16-0.53c0.51-0.26,0.62-0.64,0.4-0.94l-0.11-0.16c-0.21-0.3-0.46-0.34-0.82-0.16c-0.69,0.34-1.38,0.35-1.55,0.35
	c-1.7,0-2.94-1.14-2.94-2.75c0-1.62,1.25-2.74,2.94-2.74c0.18,0,0.86,0.02,1.55,0.35c0.35,0.16,0.59,0.14,0.82-0.16l0.13-0.16
	c0.22-0.3,0.18-0.62-0.16-0.82c-0.91-0.53-1.78-0.66-2.42-0.66c-2.9,0-4.51,1.92-4.51,4.27C42.9,70.37,44.58,72.18,47.41,72.18z
	 M54.9,72.18c1.3,0,2.32-0.62,2.67-1.74v0.99c0,0.37,0.21,0.58,0.58,0.58h0.48c0.37,0,0.59-0.21,0.59-0.58v-6.86
	c0-0.37-0.22-0.58-0.59-0.58h-0.48c-0.37,0-0.58,0.21-0.58,0.58v3.18c0,2.42-1.66,2.99-2.5,2.99c-0.85,0-1.58-0.61-1.58-2.24v-3.94
	c0-0.37-0.22-0.58-0.59-0.58h-0.48c-0.37,0-0.58,0.21-0.58,0.58v3.95C51.85,71.02,53.13,72.18,54.9,72.18z M62.21,72h0.48
	c0.37,0,0.58-0.21,0.58-0.58v-3.18c0-2.43,1.38-2.99,2.19-2.99c0.85,0,1.58,0.59,1.58,2.22v3.95c0,0.37,0.22,0.58,0.59,0.58h0.48
	c0.37,0,0.58-0.21,0.58-0.58v-3.36c0.08-2.35,1.46-2.82,2.19-2.82c0.85,0,1.58,0.59,1.58,2.22v3.95c0,0.37,0.22,0.58,0.59,0.58h0.48
	c0.37,0,0.58-0.21,0.58-0.58v-3.95c0-2.51-1.17-3.66-3.07-3.66c-0.96,0-2.05,0.27-2.72,1.65c-0.61-1.39-1.74-1.65-2.53-1.65
	c-1.17,0-2.19,0.59-2.53,1.74v-0.99c0-0.37-0.21-0.58-0.58-0.58h-0.48c-0.37,0-0.59,0.21-0.59,0.58v6.86
	C61.62,71.79,61.84,72,62.21,72z M80.36,72.18c1.01,0,2.08-0.24,3.01-0.99c0.37-0.3,0.37-0.64,0.11-0.91l-0.11-0.13
	c-0.26-0.26-0.51-0.27-0.82-0.08c-0.69,0.46-1.39,0.67-2.18,0.67c-1.74,0-2.98-1.09-2.93-2.58h6.21c0.38,0,0.61-0.21,0.56-0.59
	c-0.22-2.56-2.06-3.76-4.08-3.76c-2.5,0-4.32,1.87-4.32,4.21C75.82,70.3,77.55,72.18,80.36,72.18z M77.6,66.94
	c0.5-1.36,1.65-1.73,2.58-1.73c0.88,0,2,0.3,2.42,1.73H77.6z M86.55,72h0.48c0.37,0,0.58-0.21,0.58-0.58v-3.18
	c0-2.43,1.66-2.99,2.5-2.99c0.85,0,1.6,0.59,1.6,2.24v3.94c0,0.37,0.21,0.58,0.58,0.58h0.48c0.37,0,0.59-0.21,0.59-0.58v-3.95
	c0-2.51-1.3-3.66-3.07-3.66c-1.3,0-2.32,0.62-2.67,1.74v-0.99c0-0.37-0.21-0.58-0.58-0.58h-0.48c-0.37,0-0.59,0.21-0.59,0.58v6.86
	C85.96,71.79,86.18,72,86.55,72z M98.5,72.18c1.54,0,2.4-0.88,2.4-2.08c0-0.02,0-0.32-0.06-0.59c-0.03-0.21-0.18-0.29-0.37-0.29
	h-0.74c-0.22,0-0.32,0.14-0.29,0.37c0.03,0.13,0.03,0.24,0.03,0.3c0,0.58-0.45,0.86-0.94,0.86c-0.51,0-0.93-0.34-0.93-1.2v-4.29
	h2.19c0.21,0,0.32-0.13,0.32-0.34V64.3c0-0.21-0.11-0.32-0.32-0.32H97.6v-1.81c0-0.3-0.18-0.5-0.48-0.5h-0.34
	c-0.29,0-0.46,0.16-0.51,0.46l-0.29,1.84h-1.01c-0.21,0-0.32,0.11-0.32,0.32v0.62c0,0.21,0.11,0.34,0.32,0.34h0.98v4.19
	C95.95,71.52,97.22,72.18,98.5,72.18z M105.72,72h0.53c0.34,0,0.54-0.14,0.67-0.46l0.69-1.82h5.34l0.69,1.82
	c0.13,0.32,0.35,0.46,0.69,0.46h0.51c0.43,0,0.59-0.27,0.45-0.67l-3.89-10.06c-0.11-0.3-0.34-0.46-0.67-0.46h-0.93
	c-0.32,0-0.56,0.16-0.67,0.46l-3.86,10.06C105.11,71.73,105.29,72,105.72,72z M108.09,68.34l2.18-5.89l2.21,5.89H108.09z"/>
<path class="st3" d="M42.88,105.5h122c1.93,0,3.5,1.57,3.5,3.5v20c0,1.93-1.57,3.5-3.5,3.5h-122c-1.93,0-3.5-1.57-3.5-3.5v-20
	C39.38,107.07,40.95,105.5,42.88,105.5z"/>
<path d="M67,123h3.09c3.57,0,5.76-2.51,5.76-5.6c0-3.09-2.19-5.6-5.76-5.6H67c-0.37,0-0.58,0.21-0.58,0.58v10.05
	C66.42,122.79,66.63,123,67,123z M68.12,121.61v-8.42h1.94c2.51,0,4.06,1.87,4.06,4.21s-1.55,4.21-4.06,4.21H68.12z M81.4,123.18
	c2.35,0,4.26-1.87,4.26-4.19c0-2.29-1.9-4.18-4.26-4.18c-2.34,0-4.22,1.87-4.22,4.18C77.18,121.32,79.07,123.18,81.4,123.18z
	 M81.4,121.74c-1.42,0-2.59-1.22-2.59-2.74s1.17-2.75,2.59-2.75c1.46,0,2.61,1.23,2.61,2.75S82.86,121.74,81.4,121.74z
	 M91.41,123.18c0.58,0,1.36-0.1,2.16-0.53c0.51-0.26,0.62-0.64,0.4-0.94l-0.11-0.16c-0.21-0.3-0.46-0.34-0.82-0.16
	c-0.69,0.34-1.38,0.35-1.55,0.35c-1.7,0-2.94-1.14-2.94-2.75c0-1.62,1.25-2.74,2.94-2.74c0.18,0,0.86,0.02,1.55,0.35
	c0.35,0.16,0.59,0.14,0.82-0.16l0.13-0.16c0.22-0.3,0.18-0.62-0.16-0.82c-0.91-0.53-1.78-0.66-2.42-0.66c-2.9,0-4.51,1.92-4.51,4.27
	C86.9,121.37,88.58,123.18,91.41,123.18z M98.9,123.18c1.3,0,2.32-0.62,2.67-1.74v0.99c0,0.37,0.21,0.58,0.58,0.58h0.48
	c0.37,0,0.59-0.21,0.59-0.58v-6.86c0-0.37-0.22-0.58-0.59-0.58h-0.48c-0.37,0-0.58,0.21-0.58,0.58v3.18c0,2.42-1.66,2.99-2.5,2.99
	c-0.85,0-1.58-0.61-1.58-2.24v-3.94c0-0.37-0.22-0.58-0.59-0.58h-0.48c-0.37,0-0.58,0.21-0.58,0.58v3.95
	C95.85,122.02,97.13,123.18,98.9,123.18z M106.21,123h0.48c0.37,0,0.58-0.21,0.58-0.58v-3.18c0-2.43,1.38-2.99,2.19-2.99
	c0.85,0,1.58,0.59,1.58,2.22v3.95c0,0.37,0.22,0.58,0.59,0.58h0.48c0.37,0,0.58-0.21,0.58-0.58v-3.36c0.08-2.35,1.46-2.82,2.19-2.82
	c0.85,0,1.58,0.59,1.58,2.22v3.95c0,0.37,0.22,0.58,0.59,0.58h0.48c0.37,0,0.58-0.21,0.58-0.58v-3.95c0-2.51-1.17-3.66-3.07-3.66
	c-0.96,0-2.05,0.27-2.72,1.65c-0.61-1.39-1.74-1.65-2.53-1.65c-1.17,0-2.19,0.59-2.53,1.74v-0.99c0-0.37-0.21-0.58-0.58-0.58h-0.48
	c-0.37,0-0.59,0.21-0.59,0.58v6.86C105.61,122.79,105.84,123,106.21,123z M124.36,123.18c1.01,0,2.08-0.24,3.01-0.99
	c0.37-0.3,0.37-0.64,0.11-0.91l-0.11-0.13c-0.26-0.26-0.51-0.27-0.82-0.08c-0.69,0.46-1.39,0.67-2.18,0.67
	c-1.74,0-2.98-1.09-2.93-2.58h6.21c0.38,0,0.61-0.21,0.56-0.59c-0.22-2.56-2.06-3.76-4.08-3.76c-2.5,0-4.32,1.87-4.32,4.21
	C119.82,121.3,121.55,123.18,124.36,123.18z M121.6,117.94c0.5-1.36,1.65-1.73,2.58-1.73c0.88,0,2,0.3,2.42,1.73H121.6z M130.55,123
	h0.48c0.37,0,0.58-0.21,0.58-0.58v-3.18c0-2.43,1.66-2.99,2.5-2.99c0.85,0,1.6,0.59,1.6,2.24v3.94c0,0.37,0.21,0.58,0.58,0.58h0.48
	c0.37,0,0.59-0.21,0.59-0.58v-3.95c0-2.51-1.3-3.66-3.07-3.66c-1.3,0-2.32,0.62-2.67,1.74v-0.99c0-0.37-0.21-0.58-0.58-0.58h-0.48
	c-0.37,0-0.59,0.21-0.59,0.58v6.86C129.96,122.79,130.18,123,130.55,123z M142.5,123.18c1.54,0,2.4-0.88,2.4-2.08
	c0-0.02,0-0.32-0.06-0.59c-0.03-0.21-0.18-0.29-0.37-0.29h-0.74c-0.22,0-0.32,0.14-0.29,0.37c0.03,0.13,0.03,0.24,0.03,0.3
	c0,0.58-0.45,0.86-0.94,0.86c-0.51,0-0.93-0.34-0.93-1.2v-4.29h2.19c0.21,0,0.32-0.13,0.32-0.34v-0.62c0-0.21-0.11-0.32-0.32-0.32
	h-2.19v-1.81c0-0.3-0.18-0.5-0.48-0.5h-0.34c-0.29,0-0.46,0.16-0.51,0.46l-0.29,1.84h-1.01c-0.21,0-0.32,0.11-0.32,0.32v0.62
	c0,0.21,0.11,0.34,0.32,0.34h0.98v4.19C139.95,122.52,141.22,123.18,142.5,123.18z M156.49,117.26c1.46-0.37,2.11-1.41,2.11-2.56
	c0-1.81-1.58-2.9-3.73-2.9h-3.46c-0.37,0-0.58,0.21-0.58,0.58v10.05c0,0.37,0.21,0.58,0.58,0.58h3.97c2.24,0,3.74-1.18,3.74-2.99
	C159.13,118.63,158.25,117.45,156.49,117.26z M154.86,113.19c1.07,0,2,0.56,2,1.63c0,0.96-0.72,1.9-2.62,1.9h-1.7v-3.54H154.86z
	 M155.37,121.61h-2.83v-3.6h2.05c1.98,0,2.82,0.94,2.82,1.94C157.4,120.95,156.55,121.61,155.37,121.61z"/>
<path class="st4" d="M43.97,101.13c1.09,0,1.86-0.29,2.52-0.73c0.18-0.13,0.2-0.3,0.07-0.55l-0.11-0.19
	c-0.13-0.24-0.34-0.29-0.6-0.14c-0.53,0.29-1.22,0.48-1.88,0.48c-2.06,0-3.25-1.46-3.25-3.19c0-1.73,1.19-3.19,3.25-3.19
	c0.66,0,1.36,0.19,1.88,0.48c0.26,0.14,0.47,0.1,0.6-0.14l0.11-0.19c0.13-0.25,0.08-0.44-0.14-0.6c-0.65-0.42-1.4-0.68-2.45-0.68
	c-2.86,0-4.55,1.99-4.55,4.33C39.42,99.14,41.12,101.13,43.97,101.13z M48.47,101h0.36c0.28,0,0.43-0.16,0.43-0.43v-7.81
	c0-0.28-0.16-0.43-0.43-0.43h-0.36c-0.28,0-0.44,0.16-0.44,0.43v7.81C48.02,100.84,48.19,101,48.47,101z M53.65,101.13
	c0.8,0,1.58-0.28,2.15-1.08v0.52c0,0.28,0.17,0.43,0.44,0.43h0.36c0.28,0,0.43-0.16,0.43-0.43v-5.15c0-0.28-0.16-0.43-0.43-0.43
	h-0.36c-0.28,0-0.44,0.16-0.44,0.43v0.52c-0.56-0.8-1.34-1.08-2.15-1.08c-1.79,0-2.98,1.4-2.98,3.13
	C50.67,99.72,51.86,101.13,53.65,101.13z M53.82,100.05c-1.21,0-1.91-0.94-1.91-2.06c0-1.12,0.7-2.06,1.91-2.06
	c1.19,0,1.99,0.88,2,2.06C55.81,99.18,55,100.05,53.82,100.05z M59.49,93.9c0.48,0,0.85-0.36,0.85-0.82c0-0.47-0.36-0.84-0.85-0.84
	c-0.48,0-0.83,0.37-0.83,0.84C58.66,93.54,59.01,93.9,59.49,93.9z M59.32,101h0.36c0.28,0,0.43-0.16,0.43-0.43v-5.15
	c0-0.28-0.16-0.43-0.43-0.43h-0.36c-0.28,0-0.44,0.16-0.44,0.43v5.15C58.87,100.84,59.04,101,59.32,101z M62.4,101h0.36
	c0.28,0,0.43-0.16,0.43-0.43v-2.39c0-1.82,1.03-2.24,1.64-2.24c0.64,0,1.19,0.44,1.19,1.67v2.96c0,0.28,0.17,0.43,0.44,0.43h0.36
	c0.28,0,0.43-0.16,0.43-0.43v-2.52c0.06-1.76,1.09-2.11,1.64-2.11c0.64,0,1.19,0.44,1.19,1.67v2.96c0,0.28,0.17,0.43,0.44,0.43h0.36
	c0.28,0,0.43-0.16,0.43-0.43V97.6c0-1.88-0.88-2.75-2.3-2.75c-0.72,0-1.54,0.2-2.04,1.24c-0.46-1.04-1.31-1.24-1.9-1.24
	c-0.88,0-1.64,0.44-1.9,1.31v-0.74c0-0.28-0.16-0.43-0.43-0.43H62.4c-0.28,0-0.44,0.16-0.44,0.43v5.15
	C61.96,100.84,62.12,101,62.4,101z M73.45,101.47c0.14,0,0.23-0.07,0.3-0.19l4.33-8.8c0.08-0.18,0.01-0.3-0.18-0.3h-0.67
	c-0.14,0-0.23,0.06-0.29,0.18l-4.33,8.8c-0.08,0.18-0.01,0.31,0.18,0.31H73.45z M80.09,93.9c0.48,0,0.85-0.36,0.85-0.82
	c0-0.47-0.36-0.84-0.85-0.84c-0.48,0-0.83,0.37-0.83,0.84C79.26,93.54,79.61,93.9,80.09,93.9z M79.92,101h0.36
	c0.28,0,0.43-0.16,0.43-0.43v-5.15c0-0.28-0.16-0.43-0.43-0.43h-0.36c-0.28,0-0.44,0.16-0.44,0.43v5.15
	C79.48,100.84,79.64,101,79.92,101z M83,101h0.36c0.28,0,0.43-0.16,0.43-0.43v-2.39c0-1.82,1.25-2.24,1.87-2.24
	c0.64,0,1.2,0.44,1.2,1.68v2.95c0,0.28,0.16,0.43,0.43,0.43h0.36c0.28,0,0.44-0.16,0.44-0.43V97.6c0-1.88-0.97-2.75-2.3-2.75
	c-0.97,0-1.74,0.47-2,1.31v-0.74c0-0.28-0.16-0.43-0.43-0.43H83c-0.28,0-0.44,0.16-0.44,0.43v5.15C82.56,100.84,82.73,101,83,101z
	 M90.57,101h0.4c0.28,0,0.43-0.16,0.43-0.43v-4.62h1.31c0.16,0,0.24-0.1,0.24-0.25v-0.46c0-0.16-0.08-0.25-0.24-0.25H91.4v-0.65
	c0-0.66,0.26-1.08,0.82-1.08c0.37,0,0.68,0.2,0.68,0.5v0.08c0,0.14,0.12,0.22,0.25,0.22h0.59c0.1,0,0.19-0.05,0.22-0.13
	c0.01-0.05,0.02-0.13,0.02-0.2c0-0.88-0.66-1.52-1.84-1.52c-0.95,0-2,0.41-2,2.34v0.44h-0.7c-0.16,0-0.24,0.1-0.24,0.25v0.46
	c0,0.16,0.08,0.25,0.24,0.25h0.7v4.62C90.14,100.84,90.29,101,90.57,101z M96.66,101.13c1.76,0,3.19-1.4,3.19-3.14
	c0-1.72-1.43-3.13-3.19-3.13c-1.75,0-3.17,1.4-3.17,3.13C93.49,99.74,94.91,101.13,96.66,101.13z M96.66,100.05
	c-1.07,0-1.94-0.91-1.94-2.05s0.88-2.06,1.94-2.06c1.09,0,1.96,0.92,1.96,2.06S97.75,100.05,96.66,100.05z M101.66,101h0.36
	c0.28,0,0.43-0.16,0.43-0.43v-1.86c0-2.46,1.08-2.68,1.51-2.68c0.11,0,0.22,0.01,0.32,0.04c0.2,0.05,0.32-0.07,0.32-0.37v-0.35
	c0-0.24-0.04-0.44-0.29-0.48l-0.26-0.01c-0.72,0-1.4,0.52-1.61,1.48v-0.91c0-0.28-0.16-0.43-0.43-0.43h-0.36
	c-0.28,0-0.44,0.16-0.44,0.43v5.15C101.21,100.84,101.38,101,101.66,101z M106.1,101h0.36c0.28,0,0.43-0.16,0.43-0.43v-2.39
	c0-1.82,1.03-2.24,1.64-2.24c0.64,0,1.19,0.44,1.19,1.67v2.96c0,0.28,0.17,0.43,0.44,0.43h0.36c0.28,0,0.43-0.16,0.43-0.43v-2.52
	c0.06-1.76,1.09-2.11,1.64-2.11c0.64,0,1.19,0.44,1.19,1.67v2.96c0,0.28,0.17,0.43,0.44,0.43h0.36c0.28,0,0.43-0.16,0.43-0.43V97.6
	c0-1.88-0.88-2.75-2.3-2.75c-0.72,0-1.54,0.2-2.04,1.24c-0.46-1.04-1.31-1.24-1.9-1.24c-0.88,0-1.64,0.44-1.9,1.31v-0.74
	c0-0.28-0.16-0.43-0.43-0.43h-0.36c-0.28,0-0.44,0.16-0.44,0.43v5.15C105.65,100.84,105.82,101,106.1,101z"/>
<path class="st3" d="M100.88,360.5h127c1.93,0,3.5,1.57,3.5,3.5v20c0,1.93-1.57,3.5-3.5,3.5h-127c-1.93,0-3.5-1.57-3.5-3.5v-20
	C97.38,362.07,98.95,360.5,100.88,360.5z"/>
<path d="M129,378h3.09c3.57,0,5.76-2.51,5.76-5.6c0-3.09-2.19-5.6-5.76-5.6H129c-0.37,0-0.58,0.21-0.58,0.58v10.05
	C128.42,377.79,128.63,378,129,378z M130.12,376.61v-8.42h1.94c2.51,0,4.06,1.87,4.06,4.21s-1.55,4.21-4.06,4.21H130.12z
	 M143.4,378.18c2.35,0,4.26-1.87,4.26-4.19c0-2.29-1.9-4.18-4.26-4.18c-2.34,0-4.22,1.87-4.22,4.18
	C139.18,376.32,141.07,378.18,143.4,378.18z M143.4,376.74c-1.42,0-2.59-1.22-2.59-2.74s1.17-2.75,2.59-2.75
	c1.46,0,2.61,1.23,2.61,2.75S144.86,376.74,143.4,376.74z M153.41,378.18c0.58,0,1.36-0.1,2.16-0.53c0.51-0.26,0.62-0.64,0.4-0.94
	l-0.11-0.16c-0.21-0.3-0.46-0.34-0.82-0.16c-0.69,0.34-1.38,0.35-1.55,0.35c-1.7,0-2.94-1.14-2.94-2.75s1.25-2.74,2.94-2.74
	c0.18,0,0.86,0.02,1.55,0.35c0.35,0.16,0.59,0.14,0.82-0.16l0.13-0.16c0.22-0.3,0.18-0.62-0.16-0.82c-0.91-0.53-1.78-0.66-2.42-0.66
	c-2.9,0-4.51,1.92-4.51,4.27C148.9,376.37,150.58,378.18,153.41,378.18z M160.9,378.18c1.3,0,2.32-0.62,2.67-1.74v0.99
	c0,0.37,0.21,0.58,0.58,0.58h0.48c0.37,0,0.59-0.21,0.59-0.58v-6.86c0-0.37-0.22-0.58-0.59-0.58h-0.48c-0.37,0-0.58,0.21-0.58,0.58
	v3.18c0,2.42-1.66,2.99-2.5,2.99c-0.85,0-1.58-0.61-1.58-2.24v-3.94c0-0.37-0.22-0.58-0.59-0.58h-0.48c-0.37,0-0.58,0.21-0.58,0.58
	v3.95C157.85,377.02,159.13,378.18,160.9,378.18z M168.21,378h0.48c0.37,0,0.58-0.21,0.58-0.58v-3.18c0-2.43,1.38-2.99,2.19-2.99
	c0.85,0,1.58,0.59,1.58,2.22v3.95c0,0.37,0.22,0.58,0.59,0.58h0.48c0.37,0,0.58-0.21,0.58-0.58v-3.36c0.08-2.35,1.46-2.82,2.19-2.82
	c0.85,0,1.58,0.59,1.58,2.22v3.95c0,0.37,0.22,0.58,0.59,0.58h0.48c0.37,0,0.58-0.21,0.58-0.58v-3.95c0-2.51-1.17-3.66-3.07-3.66
	c-0.96,0-2.05,0.27-2.72,1.65c-0.61-1.39-1.74-1.65-2.53-1.65c-1.17,0-2.19,0.59-2.53,1.74v-0.99c0-0.37-0.21-0.58-0.58-0.58h-0.48
	c-0.37,0-0.59,0.21-0.59,0.58v6.86C167.61,377.79,167.84,378,168.21,378z M186.36,378.18c1.01,0,2.08-0.24,3.01-0.99
	c0.37-0.3,0.37-0.64,0.11-0.91l-0.11-0.13c-0.26-0.26-0.51-0.27-0.82-0.08c-0.69,0.46-1.39,0.67-2.18,0.67
	c-1.74,0-2.98-1.09-2.93-2.58h6.21c0.38,0,0.61-0.21,0.56-0.59c-0.22-2.56-2.06-3.76-4.08-3.76c-2.5,0-4.32,1.87-4.32,4.21
	C181.82,376.3,183.55,378.18,186.36,378.18z M183.6,372.94c0.5-1.36,1.65-1.73,2.58-1.73c0.88,0,2,0.3,2.42,1.73H183.6z M192.55,378
	h0.48c0.37,0,0.58-0.21,0.58-0.58v-3.18c0-2.43,1.66-2.99,2.5-2.99c0.85,0,1.6,0.59,1.6,2.24v3.94c0,0.37,0.21,0.58,0.58,0.58h0.48
	c0.37,0,0.59-0.21,0.59-0.58v-3.95c0-2.51-1.3-3.66-3.07-3.66c-1.3,0-2.32,0.62-2.67,1.74v-0.99c0-0.37-0.21-0.58-0.58-0.58h-0.48
	c-0.37,0-0.59,0.21-0.59,0.58v6.86C191.96,377.79,192.18,378,192.55,378z M204.5,378.18c1.54,0,2.4-0.88,2.4-2.08
	c0-0.02,0-0.32-0.06-0.59c-0.03-0.21-0.18-0.29-0.37-0.29h-0.74c-0.22,0-0.32,0.14-0.29,0.37c0.03,0.13,0.03,0.24,0.03,0.3
	c0,0.58-0.45,0.86-0.94,0.86c-0.51,0-0.93-0.34-0.93-1.2v-4.29h2.19c0.21,0,0.32-0.13,0.32-0.34v-0.62c0-0.21-0.11-0.32-0.32-0.32
	h-2.19v-1.81c0-0.3-0.18-0.5-0.48-0.5h-0.34c-0.29,0-0.46,0.16-0.51,0.46l-0.29,1.84h-1.01c-0.21,0-0.32,0.11-0.32,0.32v0.62
	c0,0.21,0.11,0.34,0.32,0.34h0.98v4.19C201.95,377.52,203.22,378.18,204.5,378.18z M219.43,366.8h-6.02c-0.37,0-0.58,0.21-0.58,0.58
	v10.05c0,0.37,0.21,0.58,0.58,0.58h0.54c0.37,0,0.58-0.21,0.58-0.58v-4.22h4.19c0.37,0,0.59-0.22,0.59-0.59v-0.21
	c0-0.37-0.22-0.58-0.59-0.58h-4.19v-3.63h4.9c0.37,0,0.58-0.21,0.58-0.58v-0.24C220.01,367.01,219.8,366.8,219.43,366.8z"/>
<path d="M100.39,356.13c1.75,0,2.95-0.94,2.95-2.45c0-0.9-0.65-1.84-2.06-2.28l-1.25-0.47c-0.96-0.36-1.07-0.82-1.07-1.16
	c0-0.74,0.66-1.18,1.45-1.18c0.7,0,1.21,0.26,1.49,0.82c0.12,0.25,0.29,0.35,0.55,0.28l0.3-0.1c0.26-0.07,0.4-0.28,0.29-0.54
	c-0.38-0.95-1.32-1.58-2.64-1.58c-1.45,0-2.72,0.89-2.72,2.34c0,0.78,0.38,1.73,1.97,2.26l1.25,0.42c0.68,0.25,1.21,0.65,1.21,1.28
	c0,0.72-0.66,1.25-1.74,1.25c-0.84,0-1.48-0.41-1.78-0.92c-0.13-0.25-0.28-0.35-0.54-0.29l-0.35,0.08
	c-0.26,0.07-0.41,0.28-0.29,0.54C97.84,355.41,98.9,356.13,100.39,356.13z M107.49,356.13c1.76,0,3.19-1.4,3.19-3.14
	c0-1.72-1.43-3.13-3.19-3.13c-1.75,0-3.17,1.4-3.17,3.13C104.32,354.74,105.74,356.13,107.49,356.13z M107.49,355.05
	c-1.07,0-1.94-0.91-1.94-2.05s0.88-2.06,1.94-2.06c1.09,0,1.96,0.92,1.96,2.06S108.58,355.05,107.49,355.05z M114.25,356.13
	c0.97,0,1.74-0.47,2-1.31v0.74c0,0.28,0.16,0.43,0.43,0.43h0.36c0.28,0,0.44-0.16,0.44-0.43v-5.15c0-0.28-0.17-0.43-0.44-0.43h-0.36
	c-0.28,0-0.43,0.16-0.43,0.43v2.39c0,1.81-1.25,2.24-1.87,2.24c-0.64,0-1.19-0.46-1.19-1.68v-2.95c0-0.28-0.17-0.43-0.44-0.43h-0.36
	c-0.28,0-0.43,0.16-0.43,0.43v2.96C111.96,355.27,112.92,356.13,114.25,356.13z M119.73,356h0.36c0.28,0,0.43-0.16,0.43-0.43v-1.86
	c0-2.46,1.08-2.68,1.51-2.68c0.11,0,0.22,0.01,0.32,0.04c0.2,0.05,0.32-0.07,0.32-0.37v-0.35c0-0.24-0.04-0.44-0.29-0.48l-0.26-0.01
	c-0.72,0-1.4,0.52-1.61,1.48v-0.91c0-0.28-0.16-0.43-0.43-0.43h-0.36c-0.28,0-0.44,0.16-0.44,0.43v5.15
	C119.29,355.84,119.46,356,119.73,356z M126.56,356.13c0.43,0,1.02-0.07,1.62-0.4c0.38-0.19,0.47-0.48,0.3-0.71l-0.08-0.12
	c-0.16-0.23-0.35-0.25-0.61-0.12c-0.52,0.25-1.03,0.26-1.16,0.26c-1.27,0-2.21-0.85-2.21-2.06s0.94-2.05,2.21-2.05
	c0.13,0,0.65,0.01,1.16,0.26c0.26,0.12,0.44,0.11,0.61-0.12l0.1-0.12c0.17-0.23,0.13-0.47-0.12-0.61c-0.68-0.4-1.33-0.49-1.81-0.49
	c-2.17,0-3.38,1.44-3.38,3.2C123.18,354.78,124.44,356.13,126.56,356.13z M132.81,356.13c0.76,0,1.56-0.18,2.26-0.74
	c0.28-0.23,0.28-0.48,0.08-0.68l-0.08-0.1c-0.19-0.19-0.38-0.2-0.61-0.06c-0.52,0.35-1.04,0.5-1.63,0.5c-1.31,0-2.23-0.82-2.2-1.93
	h4.65c0.29,0,0.46-0.16,0.42-0.44c-0.17-1.92-1.55-2.82-3.06-2.82c-1.87,0-3.24,1.4-3.24,3.16
	C129.4,354.73,130.7,356.13,132.81,356.13z M130.73,352.21c0.37-1.02,1.24-1.3,1.93-1.3c0.66,0,1.5,0.23,1.81,1.3H130.73z
	 M137.4,356.47c0.14,0,0.23-0.07,0.3-0.19l4.33-8.8c0.08-0.18,0.01-0.3-0.18-0.3h-0.67c-0.14,0-0.23,0.06-0.29,0.18l-4.33,8.8
	c-0.08,0.18-0.01,0.31,0.18,0.31H137.4z M145.99,356.13c1.75,0,2.95-0.94,2.95-2.45c0-0.9-0.65-1.84-2.06-2.28l-1.25-0.47
	c-0.96-0.36-1.07-0.82-1.07-1.16c0-0.74,0.66-1.18,1.45-1.18c0.7,0,1.21,0.26,1.49,0.82c0.12,0.25,0.29,0.35,0.55,0.28l0.3-0.1
	c0.26-0.07,0.4-0.28,0.29-0.54c-0.38-0.95-1.32-1.58-2.64-1.58c-1.45,0-2.72,0.89-2.72,2.34c0,0.78,0.38,1.73,1.97,2.26l1.25,0.42
	c0.68,0.25,1.21,0.65,1.21,1.28c0,0.72-0.66,1.25-1.74,1.25c-0.84,0-1.48-0.41-1.78-0.92c-0.13-0.25-0.28-0.35-0.54-0.29l-0.35,0.08
	c-0.26,0.07-0.41,0.28-0.29,0.54C143.44,355.41,144.5,356.13,145.99,356.13z M152.51,356.13c0.97,0,1.74-0.47,2-1.31v0.74
	c0,0.28,0.16,0.43,0.43,0.43h0.36c0.28,0,0.44-0.16,0.44-0.43v-5.15c0-0.28-0.17-0.43-0.44-0.43h-0.36c-0.28,0-0.43,0.16-0.43,0.43
	v2.39c0,1.81-1.25,2.24-1.87,2.24c-0.64,0-1.19-0.46-1.19-1.68v-2.95c0-0.28-0.17-0.43-0.44-0.43h-0.36c-0.28,0-0.43,0.16-0.43,0.43
	v2.96C150.22,355.27,151.18,356.13,152.51,356.13z M160.95,356.13c1.79,0,2.98-1.42,2.98-3.14s-1.19-3.13-2.98-3.13
	c-0.8,0-1.6,0.28-2.16,1.08v-3.18c0-0.28-0.16-0.43-0.43-0.43h-0.36c-0.28,0-0.44,0.16-0.44,0.43v7.81c0,0.28,0.17,0.43,0.44,0.43
	h0.36c0.28,0,0.43-0.16,0.43-0.43v-0.52C159.35,355.86,160.14,356.13,160.95,356.13z M160.77,355.05c-1.18,0-1.99-0.88-2-2.06
	c0.01-1.19,0.83-2.06,2-2.06c1.22,0,1.92,0.95,1.92,2.06C162.69,354.12,161.99,355.05,160.77,355.05z M167.09,356.13
	c1.18,0,2.18-0.66,2.18-1.81c0-0.65-0.31-1.36-1.46-1.72l-0.86-0.29c-0.35-0.11-0.7-0.31-0.7-0.7c0-0.42,0.34-0.74,0.86-0.74
	c0.26,0,0.53,0.07,0.73,0.31c0.17,0.22,0.31,0.32,0.56,0.25l0.23-0.05c0.29-0.06,0.43-0.28,0.28-0.55c-0.4-0.73-1.1-0.98-1.84-0.98
	c-1.2,0-2.02,0.77-2.02,1.8c0,0.85,0.58,1.37,1.5,1.64l0.8,0.28c0.42,0.14,0.74,0.35,0.74,0.73c0,0.46-0.43,0.79-1.01,0.79
	c-0.47,0-0.88-0.19-1.12-0.49c-0.16-0.2-0.3-0.31-0.54-0.25l-0.25,0.07c-0.29,0.07-0.43,0.26-0.29,0.54
	C165.32,355.74,166.17,356.13,167.09,356.13z M172.85,356.13c1.15,0,1.8-0.66,1.8-1.56c0-0.01,0-0.24-0.05-0.44
	c-0.02-0.16-0.13-0.22-0.28-0.22h-0.55c-0.17,0-0.24,0.11-0.22,0.28c0.02,0.1,0.02,0.18,0.02,0.23c0,0.43-0.34,0.65-0.71,0.65
	c-0.38,0-0.7-0.25-0.7-0.9v-3.22h1.64c0.16,0,0.24-0.1,0.24-0.25v-0.47c0-0.16-0.08-0.24-0.24-0.24h-1.64v-1.36
	c0-0.23-0.13-0.37-0.36-0.37h-0.25c-0.22,0-0.35,0.12-0.38,0.35l-0.22,1.38h-0.76c-0.16,0-0.24,0.08-0.24,0.24v0.47
	c0,0.16,0.08,0.25,0.24,0.25h0.73v3.14C170.94,355.64,171.89,356.13,172.85,356.13z M178.26,356.13c0.8,0,1.58-0.28,2.15-1.08v0.52
	c0,0.28,0.17,0.43,0.44,0.43h0.36c0.28,0,0.43-0.16,0.43-0.43v-5.15c0-0.28-0.16-0.43-0.43-0.43h-0.36c-0.28,0-0.44,0.16-0.44,0.43
	v0.52c-0.56-0.8-1.34-1.08-2.15-1.08c-1.79,0-2.98,1.4-2.98,3.13S176.47,356.13,178.26,356.13z M178.43,355.05
	c-1.21,0-1.91-0.94-1.91-2.06c0-1.12,0.7-2.06,1.91-2.06c1.19,0,1.99,0.88,2,2.06C180.42,354.18,179.61,355.05,178.43,355.05z
	 M183.89,356h0.36c0.28,0,0.43-0.16,0.43-0.43v-2.39c0-1.82,1.25-2.24,1.87-2.24c0.64,0,1.2,0.44,1.2,1.68v2.95
	c0,0.28,0.16,0.43,0.43,0.43h0.36c0.28,0,0.44-0.16,0.44-0.43v-2.96c0-1.88-0.97-2.75-2.3-2.75c-0.97,0-1.74,0.47-2,1.31v-0.74
	c0-0.28-0.16-0.43-0.43-0.43h-0.36c-0.28,0-0.44,0.16-0.44,0.43v5.15C183.45,355.84,183.62,356,183.89,356z M193.67,356.13
	c0.43,0,1.02-0.07,1.62-0.4c0.38-0.19,0.47-0.48,0.3-0.71l-0.08-0.12c-0.16-0.23-0.35-0.25-0.61-0.12
	c-0.52,0.25-1.03,0.26-1.16,0.26c-1.27,0-2.21-0.85-2.21-2.06s0.94-2.05,2.21-2.05c0.13,0,0.65,0.01,1.16,0.26
	c0.26,0.12,0.44,0.11,0.61-0.12l0.1-0.12c0.17-0.23,0.13-0.47-0.12-0.61c-0.68-0.4-1.33-0.49-1.81-0.49c-2.17,0-3.38,1.44-3.38,3.2
	C190.28,354.78,191.54,356.13,193.67,356.13z M197.72,348.9c0.48,0,0.85-0.36,0.85-0.82c0-0.47-0.36-0.84-0.85-0.84
	c-0.48,0-0.83,0.37-0.83,0.84C196.9,348.54,197.24,348.9,197.72,348.9z M197.56,356h0.36c0.28,0,0.43-0.16,0.43-0.43v-5.15
	c0-0.28-0.16-0.43-0.43-0.43h-0.36c-0.28,0-0.44,0.16-0.44,0.43v5.15C197.11,355.84,197.28,356,197.56,356z M202.74,356.13
	c0.8,0,1.58-0.28,2.15-1.08v0.52c0,0.28,0.17,0.43,0.44,0.43h0.36c0.28,0,0.43-0.16,0.43-0.43v-5.15c0-0.28-0.16-0.43-0.43-0.43
	h-0.36c-0.28,0-0.44,0.16-0.44,0.43v0.52c-0.56-0.8-1.34-1.08-2.15-1.08c-1.79,0-2.98,1.4-2.98,3.13S200.95,356.13,202.74,356.13z
	 M202.91,355.05c-1.21,0-1.91-0.94-1.91-2.06c0-1.12,0.7-2.06,1.91-2.06c1.19,0,1.99,0.88,2,2.06
	C204.9,354.18,204.09,355.05,202.91,355.05z M210.14,356.13c1.15,0,1.8-0.66,1.8-1.56c0-0.01,0-0.24-0.05-0.44
	c-0.02-0.16-0.13-0.22-0.28-0.22h-0.55c-0.17,0-0.24,0.11-0.22,0.28c0.02,0.1,0.02,0.18,0.02,0.23c0,0.43-0.34,0.65-0.71,0.65
	c-0.38,0-0.7-0.25-0.7-0.9v-3.22h1.64c0.16,0,0.24-0.1,0.24-0.25v-0.47c0-0.16-0.08-0.24-0.24-0.24h-1.64v-1.36
	c0-0.23-0.13-0.37-0.36-0.37h-0.25c-0.22,0-0.35,0.12-0.38,0.35l-0.22,1.38h-0.76c-0.16,0-0.24,0.08-0.24,0.24v0.47
	c0,0.16,0.08,0.25,0.24,0.25h0.73v3.14C208.23,355.64,209.18,356.13,210.14,356.13z M215.97,356.13c0.76,0,1.56-0.18,2.26-0.74
	c0.28-0.23,0.28-0.48,0.08-0.68l-0.08-0.1c-0.19-0.19-0.38-0.2-0.61-0.06c-0.52,0.35-1.04,0.5-1.63,0.5c-1.31,0-2.23-0.82-2.2-1.93
	h4.66c0.29,0,0.46-0.16,0.42-0.44c-0.17-1.92-1.55-2.82-3.06-2.82c-1.87,0-3.24,1.4-3.24,3.16
	C212.56,354.73,213.85,356.13,215.97,356.13z M213.89,352.21c0.37-1.02,1.24-1.3,1.93-1.3c0.66,0,1.5,0.23,1.81,1.3H213.89z"/>
<path class="st3" d="M100.88,258.5h127c1.93,0,3.5,1.57,3.5,3.5v20c0,1.93-1.57,3.5-3.5,3.5h-127c-1.93,0-3.5-1.57-3.5-3.5v-20
	C97.38,260.07,98.95,258.5,100.88,258.5z"/>
<path d="M133,276h3.09c3.57,0,5.76-2.51,5.76-5.6c0-3.09-2.19-5.6-5.76-5.6H133c-0.37,0-0.58,0.21-0.58,0.58v10.05
	C132.42,275.79,132.63,276,133,276z M134.12,274.61v-8.42h1.94c2.51,0,4.06,1.87,4.06,4.21s-1.55,4.21-4.06,4.21H134.12z
	 M147.4,276.18c2.35,0,4.26-1.87,4.26-4.19c0-2.29-1.9-4.18-4.26-4.18c-2.34,0-4.22,1.87-4.22,4.18
	C143.18,274.32,145.07,276.18,147.4,276.18z M147.4,274.74c-1.42,0-2.59-1.22-2.59-2.74s1.17-2.75,2.59-2.75
	c1.46,0,2.61,1.23,2.61,2.75S148.86,274.74,147.4,274.74z M157.41,276.18c0.58,0,1.36-0.1,2.16-0.53c0.51-0.26,0.62-0.64,0.4-0.94
	l-0.11-0.16c-0.21-0.3-0.46-0.34-0.82-0.16c-0.69,0.34-1.38,0.35-1.55,0.35c-1.7,0-2.94-1.14-2.94-2.75s1.25-2.74,2.94-2.74
	c0.18,0,0.86,0.02,1.55,0.35c0.35,0.16,0.59,0.14,0.82-0.16l0.13-0.16c0.22-0.3,0.18-0.62-0.16-0.82c-0.91-0.53-1.78-0.66-2.42-0.66
	c-2.9,0-4.51,1.92-4.51,4.27C152.9,274.37,154.58,276.18,157.41,276.18z M164.9,276.18c1.3,0,2.32-0.62,2.67-1.74v0.99
	c0,0.37,0.21,0.58,0.58,0.58h0.48c0.37,0,0.59-0.21,0.59-0.58v-6.86c0-0.37-0.22-0.58-0.59-0.58h-0.48c-0.37,0-0.58,0.21-0.58,0.58
	v3.18c0,2.42-1.66,2.99-2.5,2.99c-0.85,0-1.58-0.61-1.58-2.24v-3.94c0-0.37-0.22-0.58-0.59-0.58h-0.48c-0.37,0-0.58,0.21-0.58,0.58
	v3.95C161.85,275.02,163.13,276.18,164.9,276.18z M172.21,276h0.48c0.37,0,0.58-0.21,0.58-0.58v-3.18c0-2.43,1.38-2.99,2.19-2.99
	c0.85,0,1.58,0.59,1.58,2.22v3.95c0,0.37,0.22,0.58,0.59,0.58h0.48c0.37,0,0.58-0.21,0.58-0.58v-3.36c0.08-2.35,1.46-2.82,2.19-2.82
	c0.85,0,1.58,0.59,1.58,2.22v3.95c0,0.37,0.22,0.58,0.59,0.58h0.48c0.37,0,0.58-0.21,0.58-0.58v-3.95c0-2.51-1.17-3.66-3.07-3.66
	c-0.96,0-2.05,0.27-2.72,1.65c-0.61-1.39-1.74-1.65-2.53-1.65c-1.17,0-2.19,0.59-2.53,1.74v-0.99c0-0.37-0.21-0.58-0.58-0.58h-0.48
	c-0.37,0-0.59,0.21-0.59,0.58v6.86C171.61,275.79,171.84,276,172.21,276z M190.36,276.18c1.01,0,2.08-0.24,3.01-0.99
	c0.37-0.3,0.37-0.64,0.11-0.91l-0.11-0.13c-0.26-0.26-0.51-0.27-0.82-0.08c-0.69,0.46-1.39,0.67-2.18,0.67
	c-1.74,0-2.98-1.09-2.93-2.58h6.21c0.38,0,0.61-0.21,0.56-0.59c-0.22-2.56-2.06-3.76-4.08-3.76c-2.5,0-4.32,1.87-4.32,4.21
	C185.82,274.3,187.55,276.18,190.36,276.18z M187.6,270.94c0.5-1.36,1.65-1.73,2.58-1.73c0.88,0,2,0.3,2.42,1.73H187.6z M196.55,276
	h0.48c0.37,0,0.58-0.21,0.58-0.58v-3.18c0-2.43,1.66-2.99,2.5-2.99c0.85,0,1.6,0.59,1.6,2.24v3.94c0,0.37,0.21,0.58,0.58,0.58h0.48
	c0.37,0,0.59-0.21,0.59-0.58v-3.95c0-2.51-1.3-3.66-3.07-3.66c-1.3,0-2.32,0.62-2.67,1.74v-0.99c0-0.37-0.21-0.58-0.58-0.58h-0.48
	c-0.37,0-0.59,0.21-0.59,0.58v6.86C195.96,275.79,196.18,276,196.55,276z M208.5,276.18c1.54,0,2.4-0.88,2.4-2.08
	c0-0.02,0-0.32-0.06-0.59c-0.03-0.21-0.18-0.29-0.37-0.29h-0.74c-0.22,0-0.32,0.14-0.29,0.37c0.03,0.13,0.03,0.24,0.03,0.3
	c0,0.58-0.45,0.86-0.94,0.86c-0.51,0-0.93-0.34-0.93-1.2v-4.29h2.19c0.21,0,0.32-0.13,0.32-0.34v-0.62c0-0.21-0.11-0.32-0.32-0.32
	h-2.19v-1.81c0-0.3-0.18-0.5-0.48-0.5h-0.34c-0.29,0-0.46,0.16-0.51,0.46l-0.29,1.84h-1.01c-0.21,0-0.32,0.11-0.32,0.32v0.62
	c0,0.21,0.11,0.34,0.32,0.34h0.98v4.19C205.95,275.52,207.22,276.18,208.5,276.18z M223.43,266.19c0.35,0,0.58-0.21,0.58-0.58v-0.24
	c0-0.37-0.22-0.58-0.58-0.58h-6.02c-0.37,0-0.58,0.21-0.58,0.58v10.05c0,0.37,0.21,0.58,0.58,0.58h6.02c0.35,0,0.58-0.21,0.58-0.58
	v-0.24c0-0.37-0.22-0.58-0.58-0.58h-4.9v-3.41h4.19c0.37,0,0.58-0.22,0.58-0.59v-0.21c0-0.37-0.21-0.58-0.58-0.58h-4.19v-3.63
	H223.43z"/>
<path d="M100.39,254.13c1.75,0,2.95-0.94,2.95-2.45c0-0.9-0.65-1.84-2.06-2.28l-1.25-0.47c-0.96-0.36-1.07-0.82-1.07-1.16
	c0-0.74,0.66-1.18,1.45-1.18c0.7,0,1.21,0.26,1.49,0.82c0.12,0.25,0.29,0.35,0.55,0.28l0.3-0.1c0.26-0.07,0.4-0.28,0.29-0.54
	c-0.38-0.95-1.32-1.58-2.64-1.58c-1.45,0-2.72,0.89-2.72,2.34c0,0.78,0.38,1.73,1.97,2.26l1.25,0.42c0.68,0.25,1.21,0.65,1.21,1.28
	c0,0.72-0.66,1.25-1.74,1.25c-0.84,0-1.48-0.41-1.78-0.92c-0.13-0.25-0.28-0.35-0.54-0.29l-0.35,0.08
	c-0.26,0.07-0.41,0.28-0.29,0.54C97.84,253.41,98.9,254.13,100.39,254.13z M107.49,254.13c1.76,0,3.19-1.4,3.19-3.14
	c0-1.72-1.43-3.13-3.19-3.13c-1.75,0-3.17,1.4-3.17,3.13C104.32,252.74,105.74,254.13,107.49,254.13z M107.49,253.05
	c-1.07,0-1.94-0.91-1.94-2.05s0.88-2.06,1.94-2.06c1.09,0,1.96,0.92,1.96,2.06S108.58,253.05,107.49,253.05z M114.25,254.13
	c0.97,0,1.74-0.47,2-1.31v0.74c0,0.28,0.16,0.43,0.43,0.43h0.36c0.28,0,0.44-0.16,0.44-0.43v-5.15c0-0.28-0.17-0.43-0.44-0.43h-0.36
	c-0.28,0-0.43,0.16-0.43,0.43v2.39c0,1.81-1.25,2.24-1.87,2.24c-0.64,0-1.19-0.46-1.19-1.68v-2.95c0-0.28-0.17-0.43-0.44-0.43h-0.36
	c-0.28,0-0.43,0.16-0.43,0.43v2.96C111.96,253.27,112.92,254.13,114.25,254.13z M119.73,254h0.36c0.28,0,0.43-0.16,0.43-0.43v-1.86
	c0-2.46,1.08-2.68,1.51-2.68c0.11,0,0.22,0.01,0.32,0.04c0.2,0.05,0.32-0.07,0.32-0.37v-0.35c0-0.24-0.04-0.44-0.29-0.48l-0.26-0.01
	c-0.72,0-1.4,0.52-1.61,1.48v-0.91c0-0.28-0.16-0.43-0.43-0.43h-0.36c-0.28,0-0.44,0.16-0.44,0.43v5.15
	C119.29,253.84,119.46,254,119.73,254z M126.56,254.13c0.43,0,1.02-0.07,1.62-0.4c0.38-0.19,0.47-0.48,0.3-0.71l-0.08-0.12
	c-0.16-0.23-0.35-0.25-0.61-0.12c-0.52,0.25-1.03,0.26-1.16,0.26c-1.27,0-2.21-0.85-2.21-2.06c0-1.21,0.94-2.05,2.21-2.05
	c0.13,0,0.65,0.01,1.16,0.26c0.26,0.12,0.44,0.11,0.61-0.12l0.1-0.12c0.17-0.23,0.13-0.47-0.12-0.61c-0.68-0.4-1.33-0.49-1.81-0.49
	c-2.17,0-3.38,1.44-3.38,3.2C123.18,252.78,124.44,254.13,126.56,254.13z M132.81,254.13c0.76,0,1.56-0.18,2.26-0.74
	c0.28-0.23,0.28-0.48,0.08-0.68l-0.08-0.1c-0.19-0.19-0.38-0.2-0.61-0.06c-0.52,0.35-1.04,0.5-1.63,0.5c-1.31,0-2.23-0.82-2.2-1.93
	h4.65c0.29,0,0.46-0.16,0.42-0.44c-0.17-1.92-1.55-2.82-3.06-2.82c-1.87,0-3.24,1.4-3.24,3.16
	C129.4,252.73,130.7,254.13,132.81,254.13z M130.73,250.21c0.37-1.02,1.24-1.3,1.93-1.3c0.66,0,1.5,0.23,1.81,1.3H130.73z
	 M137.4,254.47c0.14,0,0.23-0.07,0.3-0.19l4.33-8.8c0.08-0.18,0.01-0.3-0.18-0.3h-0.67c-0.14,0-0.23,0.06-0.29,0.18l-4.33,8.8
	c-0.08,0.18-0.01,0.31,0.18,0.31H137.4z M145.99,254.13c1.75,0,2.95-0.94,2.95-2.45c0-0.9-0.65-1.84-2.06-2.28l-1.25-0.47
	c-0.96-0.36-1.07-0.82-1.07-1.16c0-0.74,0.66-1.18,1.45-1.18c0.7,0,1.21,0.26,1.49,0.82c0.12,0.25,0.29,0.35,0.55,0.28l0.3-0.1
	c0.26-0.07,0.4-0.28,0.29-0.54c-0.38-0.95-1.32-1.58-2.64-1.58c-1.45,0-2.72,0.89-2.72,2.34c0,0.78,0.38,1.73,1.97,2.26l1.25,0.42
	c0.68,0.25,1.21,0.65,1.21,1.28c0,0.72-0.66,1.25-1.74,1.25c-0.84,0-1.48-0.41-1.78-0.92c-0.13-0.25-0.28-0.35-0.54-0.29l-0.35,0.08
	c-0.26,0.07-0.41,0.28-0.29,0.54C143.44,253.41,144.5,254.13,145.99,254.13z M152.51,254.13c0.97,0,1.74-0.47,2-1.31v0.74
	c0,0.28,0.16,0.43,0.43,0.43h0.36c0.28,0,0.44-0.16,0.44-0.43v-5.15c0-0.28-0.17-0.43-0.44-0.43h-0.36c-0.28,0-0.43,0.16-0.43,0.43
	v2.39c0,1.81-1.25,2.24-1.87,2.24c-0.64,0-1.19-0.46-1.19-1.68v-2.95c0-0.28-0.17-0.43-0.44-0.43h-0.36c-0.28,0-0.43,0.16-0.43,0.43
	v2.96C150.22,253.27,151.18,254.13,152.51,254.13z M160.95,254.13c1.79,0,2.98-1.42,2.98-3.14c0-1.73-1.19-3.13-2.98-3.13
	c-0.8,0-1.6,0.28-2.16,1.08v-3.18c0-0.28-0.16-0.43-0.43-0.43h-0.36c-0.28,0-0.44,0.16-0.44,0.43v7.81c0,0.28,0.17,0.43,0.44,0.43
	h0.36c0.28,0,0.43-0.16,0.43-0.43v-0.52C159.35,253.86,160.14,254.13,160.95,254.13z M160.77,253.05c-1.18,0-1.99-0.88-2-2.06
	c0.01-1.19,0.83-2.06,2-2.06c1.22,0,1.92,0.95,1.92,2.06C162.69,252.12,161.99,253.05,160.77,253.05z M167.09,254.13
	c1.18,0,2.18-0.66,2.18-1.81c0-0.65-0.31-1.36-1.46-1.72l-0.86-0.29c-0.35-0.11-0.7-0.31-0.7-0.7c0-0.42,0.34-0.74,0.86-0.74
	c0.26,0,0.53,0.07,0.73,0.31c0.17,0.22,0.31,0.32,0.56,0.25l0.23-0.05c0.29-0.06,0.43-0.28,0.28-0.55c-0.4-0.73-1.1-0.98-1.84-0.98
	c-1.2,0-2.02,0.77-2.02,1.8c0,0.85,0.58,1.37,1.5,1.64l0.8,0.28c0.42,0.14,0.74,0.35,0.74,0.73c0,0.46-0.43,0.79-1.01,0.79
	c-0.47,0-0.88-0.19-1.12-0.49c-0.16-0.2-0.3-0.31-0.54-0.25l-0.25,0.07c-0.29,0.07-0.43,0.26-0.29,0.54
	C165.32,253.74,166.17,254.13,167.09,254.13z M172.85,254.13c1.15,0,1.8-0.66,1.8-1.56c0-0.01,0-0.24-0.05-0.44
	c-0.02-0.16-0.13-0.22-0.28-0.22h-0.55c-0.17,0-0.24,0.11-0.22,0.28c0.02,0.1,0.02,0.18,0.02,0.23c0,0.43-0.34,0.65-0.71,0.65
	c-0.38,0-0.7-0.25-0.7-0.9v-3.22h1.64c0.16,0,0.24-0.1,0.24-0.25v-0.47c0-0.16-0.08-0.24-0.24-0.24h-1.64v-1.36
	c0-0.23-0.13-0.37-0.36-0.37h-0.25c-0.22,0-0.35,0.12-0.38,0.35l-0.22,1.38h-0.76c-0.16,0-0.24,0.08-0.24,0.24v0.47
	c0,0.16,0.08,0.25,0.24,0.25h0.73v3.14C170.94,253.64,171.89,254.13,172.85,254.13z M178.26,254.13c0.8,0,1.58-0.28,2.15-1.08v0.52
	c0,0.28,0.17,0.43,0.44,0.43h0.36c0.28,0,0.43-0.16,0.43-0.43v-5.15c0-0.28-0.16-0.43-0.43-0.43h-0.36c-0.28,0-0.44,0.16-0.44,0.43
	v0.52c-0.56-0.8-1.34-1.08-2.15-1.08c-1.79,0-2.98,1.4-2.98,3.13C175.28,252.72,176.47,254.13,178.26,254.13z M178.43,253.05
	c-1.21,0-1.91-0.94-1.91-2.06c0-1.12,0.7-2.06,1.91-2.06c1.19,0,1.99,0.88,2,2.06C180.42,252.18,179.61,253.05,178.43,253.05z
	 M183.89,254h0.36c0.28,0,0.43-0.16,0.43-0.43v-2.39c0-1.82,1.25-2.24,1.87-2.24c0.64,0,1.2,0.44,1.2,1.68v2.95
	c0,0.28,0.16,0.43,0.43,0.43h0.36c0.28,0,0.44-0.16,0.44-0.43v-2.96c0-1.88-0.97-2.75-2.3-2.75c-0.97,0-1.74,0.47-2,1.31v-0.74
	c0-0.28-0.16-0.43-0.43-0.43h-0.36c-0.28,0-0.44,0.16-0.44,0.43v5.15C183.45,253.84,183.62,254,183.89,254z M193.67,254.13
	c0.43,0,1.02-0.07,1.62-0.4c0.38-0.19,0.47-0.48,0.3-0.71l-0.08-0.12c-0.16-0.23-0.35-0.25-0.61-0.12
	c-0.52,0.25-1.03,0.26-1.16,0.26c-1.27,0-2.21-0.85-2.21-2.06c0-1.21,0.94-2.05,2.21-2.05c0.13,0,0.65,0.01,1.16,0.26
	c0.26,0.12,0.44,0.11,0.61-0.12l0.1-0.12c0.17-0.23,0.13-0.47-0.12-0.61c-0.68-0.4-1.33-0.49-1.81-0.49c-2.17,0-3.38,1.44-3.38,3.2
	C190.28,252.78,191.54,254.13,193.67,254.13z M197.72,246.9c0.48,0,0.85-0.36,0.85-0.82c0-0.47-0.36-0.84-0.85-0.84
	c-0.48,0-0.83,0.37-0.83,0.84C196.9,246.54,197.24,246.9,197.72,246.9z M197.56,254h0.36c0.28,0,0.43-0.16,0.43-0.43v-5.15
	c0-0.28-0.16-0.43-0.43-0.43h-0.36c-0.28,0-0.44,0.16-0.44,0.43v5.15C197.11,253.84,197.28,254,197.56,254z M202.74,254.13
	c0.8,0,1.58-0.28,2.15-1.08v0.52c0,0.28,0.17,0.43,0.44,0.43h0.36c0.28,0,0.43-0.16,0.43-0.43v-5.15c0-0.28-0.16-0.43-0.43-0.43
	h-0.36c-0.28,0-0.44,0.16-0.44,0.43v0.52c-0.56-0.8-1.34-1.08-2.15-1.08c-1.79,0-2.98,1.4-2.98,3.13
	C199.76,252.72,200.95,254.13,202.74,254.13z M202.91,253.05c-1.21,0-1.91-0.94-1.91-2.06c0-1.12,0.7-2.06,1.91-2.06
	c1.19,0,1.99,0.88,2,2.06C204.9,252.18,204.09,253.05,202.91,253.05z M210.14,254.13c1.15,0,1.8-0.66,1.8-1.56
	c0-0.01,0-0.24-0.05-0.44c-0.02-0.16-0.13-0.22-0.28-0.22h-0.55c-0.17,0-0.24,0.11-0.22,0.28c0.02,0.1,0.02,0.18,0.02,0.23
	c0,0.43-0.34,0.65-0.71,0.65c-0.38,0-0.7-0.25-0.7-0.9v-3.22h1.64c0.16,0,0.24-0.1,0.24-0.25v-0.47c0-0.16-0.08-0.24-0.24-0.24
	h-1.64v-1.36c0-0.23-0.13-0.37-0.36-0.37h-0.25c-0.22,0-0.35,0.12-0.38,0.35l-0.22,1.38h-0.76c-0.16,0-0.24,0.08-0.24,0.24v0.47
	c0,0.16,0.08,0.25,0.24,0.25h0.73v3.14C208.23,253.64,209.18,254.13,210.14,254.13z M215.97,254.13c0.76,0,1.56-0.18,2.26-0.74
	c0.28-0.23,0.28-0.48,0.08-0.68l-0.08-0.1c-0.19-0.19-0.38-0.2-0.61-0.06c-0.52,0.35-1.04,0.5-1.63,0.5c-1.31,0-2.23-0.82-2.2-1.93
	h4.66c0.29,0,0.46-0.16,0.42-0.44c-0.17-1.92-1.55-2.82-3.06-2.82c-1.87,0-3.24,1.4-3.24,3.16
	C212.56,252.73,213.85,254.13,215.97,254.13z M213.89,250.21c0.37-1.02,1.24-1.3,1.93-1.3c0.66,0,1.5,0.23,1.81,1.3H213.89z"/>
<path class="st3" d="M100.88,411.5h127c1.93,0,3.5,1.57,3.5,3.5v20c0,1.93-1.57,3.5-3.5,3.5h-127c-1.93,0-3.5-1.57-3.5-3.5v-20
	C97.38,413.07,98.95,411.5,100.88,411.5z"/>
<path d="M129,429h3.09c3.57,0,5.76-2.51,5.76-5.6c0-3.09-2.19-5.6-5.76-5.6H129c-0.37,0-0.58,0.21-0.58,0.58v10.05
	C128.42,428.79,128.63,429,129,429z M130.12,427.61v-8.42h1.94c2.51,0,4.06,1.87,4.06,4.21s-1.55,4.21-4.06,4.21H130.12z
	 M143.4,429.18c2.35,0,4.26-1.87,4.26-4.19c0-2.29-1.9-4.18-4.26-4.18c-2.34,0-4.22,1.87-4.22,4.18
	C139.18,427.32,141.07,429.18,143.4,429.18z M143.4,427.74c-1.42,0-2.59-1.22-2.59-2.74s1.17-2.75,2.59-2.75
	c1.46,0,2.61,1.23,2.61,2.75S144.86,427.74,143.4,427.74z M153.41,429.18c0.58,0,1.36-0.1,2.16-0.53c0.51-0.26,0.62-0.64,0.4-0.94
	l-0.11-0.16c-0.21-0.3-0.46-0.34-0.82-0.16c-0.69,0.34-1.38,0.35-1.55,0.35c-1.7,0-2.94-1.14-2.94-2.75s1.25-2.74,2.94-2.74
	c0.18,0,0.86,0.02,1.55,0.35c0.35,0.16,0.59,0.14,0.82-0.16l0.13-0.16c0.22-0.3,0.18-0.62-0.16-0.82c-0.91-0.53-1.78-0.66-2.42-0.66
	c-2.9,0-4.51,1.92-4.51,4.27C148.9,427.37,150.58,429.18,153.41,429.18z M160.9,429.18c1.3,0,2.32-0.62,2.67-1.74v0.99
	c0,0.37,0.21,0.58,0.58,0.58h0.48c0.37,0,0.59-0.21,0.59-0.58v-6.86c0-0.37-0.22-0.58-0.59-0.58h-0.48c-0.37,0-0.58,0.21-0.58,0.58
	v3.18c0,2.42-1.66,2.99-2.5,2.99c-0.85,0-1.58-0.61-1.58-2.24v-3.94c0-0.37-0.22-0.58-0.59-0.58h-0.48c-0.37,0-0.58,0.21-0.58,0.58
	v3.95C157.85,428.02,159.13,429.18,160.9,429.18z M168.21,429h0.48c0.37,0,0.58-0.21,0.58-0.58v-3.18c0-2.43,1.38-2.99,2.19-2.99
	c0.85,0,1.58,0.59,1.58,2.22v3.95c0,0.37,0.22,0.58,0.59,0.58h0.48c0.37,0,0.58-0.21,0.58-0.58v-3.36c0.08-2.35,1.46-2.82,2.19-2.82
	c0.85,0,1.58,0.59,1.58,2.22v3.95c0,0.37,0.22,0.58,0.59,0.58h0.48c0.37,0,0.58-0.21,0.58-0.58v-3.95c0-2.51-1.17-3.66-3.07-3.66
	c-0.96,0-2.05,0.27-2.72,1.65c-0.61-1.39-1.74-1.65-2.53-1.65c-1.17,0-2.19,0.59-2.53,1.74v-0.99c0-0.37-0.21-0.58-0.58-0.58h-0.48
	c-0.37,0-0.59,0.21-0.59,0.58v6.86C167.61,428.79,167.84,429,168.21,429z M186.36,429.18c1.01,0,2.08-0.24,3.01-0.99
	c0.37-0.3,0.37-0.64,0.11-0.91l-0.11-0.13c-0.26-0.26-0.51-0.27-0.82-0.08c-0.69,0.46-1.39,0.67-2.18,0.67
	c-1.74,0-2.98-1.09-2.93-2.58h6.21c0.38,0,0.61-0.21,0.56-0.59c-0.22-2.56-2.06-3.76-4.08-3.76c-2.5,0-4.32,1.87-4.32,4.21
	C181.82,427.3,183.55,429.18,186.36,429.18z M183.6,423.94c0.5-1.36,1.65-1.73,2.58-1.73c0.88,0,2,0.3,2.42,1.73H183.6z M192.55,429
	h0.48c0.37,0,0.58-0.21,0.58-0.58v-3.18c0-2.43,1.66-2.99,2.5-2.99c0.85,0,1.6,0.59,1.6,2.24v3.94c0,0.37,0.21,0.58,0.58,0.58h0.48
	c0.37,0,0.59-0.21,0.59-0.58v-3.95c0-2.51-1.3-3.66-3.07-3.66c-1.3,0-2.32,0.62-2.67,1.74v-0.99c0-0.37-0.21-0.58-0.58-0.58h-0.48
	c-0.37,0-0.59,0.21-0.59,0.58v6.86C191.96,428.79,192.18,429,192.55,429z M204.5,429.18c1.54,0,2.4-0.88,2.4-2.08
	c0-0.02,0-0.32-0.06-0.59c-0.03-0.21-0.18-0.29-0.37-0.29h-0.74c-0.22,0-0.32,0.14-0.29,0.37c0.03,0.13,0.03,0.24,0.03,0.3
	c0,0.58-0.45,0.86-0.94,0.86c-0.51,0-0.93-0.34-0.93-1.2v-4.29h2.19c0.21,0,0.32-0.13,0.32-0.34v-0.62c0-0.21-0.11-0.32-0.32-0.32
	h-2.19v-1.81c0-0.3-0.18-0.5-0.48-0.5h-0.34c-0.29,0-0.46,0.16-0.51,0.46l-0.29,1.84h-1.01c-0.21,0-0.32,0.11-0.32,0.32v0.62
	c0,0.21,0.11,0.34,0.32,0.34h0.98v4.19C201.95,428.52,203.22,429.18,204.5,429.18z M217.99,429.18c1.02,0,2.42-0.22,3.7-1.17
	c0.37-0.29,0.5-0.54,0.5-0.85v-3.23c0-0.37-0.21-0.58-0.58-0.58h-3.5c-0.37,0-0.58,0.21-0.58,0.58v0.19c0,0.37,0.21,0.59,0.58,0.59
	h2.53v2.22c-0.75,0.48-1.58,0.72-2.56,0.72c-2.88,0-4.32-2.1-4.32-4.24c0-2.38,1.82-4.27,4.1-4.27c0.85,0,1.62,0.02,2.86,0.69
	c0.35,0.19,0.62,0.14,0.8-0.21l0.16-0.27c0.18-0.34,0.11-0.61-0.19-0.8c-1.09-0.67-2.26-0.93-3.63-0.93c-3.23,0-5.82,2.58-5.82,5.81
	C212.03,426.58,214.52,429.18,217.99,429.18z"/>
<path d="M100.39,407.13c1.75,0,2.95-0.94,2.95-2.45c0-0.9-0.65-1.84-2.06-2.28l-1.25-0.47c-0.96-0.36-1.07-0.82-1.07-1.16
	c0-0.74,0.66-1.18,1.45-1.18c0.7,0,1.21,0.26,1.49,0.82c0.12,0.25,0.29,0.35,0.55,0.28l0.3-0.1c0.26-0.07,0.4-0.28,0.29-0.54
	c-0.38-0.95-1.32-1.58-2.64-1.58c-1.45,0-2.72,0.89-2.72,2.34c0,0.78,0.38,1.73,1.97,2.26l1.25,0.42c0.68,0.25,1.21,0.65,1.21,1.28
	c0,0.72-0.66,1.25-1.74,1.25c-0.84,0-1.48-0.41-1.78-0.92c-0.13-0.25-0.28-0.35-0.54-0.29l-0.35,0.08
	c-0.26,0.07-0.41,0.28-0.29,0.54C97.84,406.41,98.9,407.13,100.39,407.13z M107.49,407.13c1.76,0,3.19-1.4,3.19-3.14
	c0-1.72-1.43-3.13-3.19-3.13c-1.75,0-3.17,1.4-3.17,3.13C104.32,405.74,105.74,407.13,107.49,407.13z M107.49,406.05
	c-1.07,0-1.94-0.91-1.94-2.05s0.88-2.06,1.94-2.06c1.09,0,1.96,0.92,1.96,2.06S108.58,406.05,107.49,406.05z M114.25,407.13
	c0.97,0,1.74-0.47,2-1.31v0.74c0,0.28,0.16,0.43,0.43,0.43h0.36c0.28,0,0.44-0.16,0.44-0.43v-5.15c0-0.28-0.17-0.43-0.44-0.43h-0.36
	c-0.28,0-0.43,0.16-0.43,0.43v2.39c0,1.81-1.25,2.24-1.87,2.24c-0.64,0-1.19-0.46-1.19-1.68v-2.95c0-0.28-0.17-0.43-0.44-0.43h-0.36
	c-0.28,0-0.43,0.16-0.43,0.43v2.96C111.96,406.27,112.92,407.13,114.25,407.13z M119.73,407h0.36c0.28,0,0.43-0.16,0.43-0.43v-1.86
	c0-2.46,1.08-2.68,1.51-2.68c0.11,0,0.22,0.01,0.32,0.04c0.2,0.05,0.32-0.07,0.32-0.37v-0.35c0-0.24-0.04-0.44-0.29-0.48l-0.26-0.01
	c-0.72,0-1.4,0.52-1.61,1.48v-0.91c0-0.28-0.16-0.43-0.43-0.43h-0.36c-0.28,0-0.44,0.16-0.44,0.43v5.15
	C119.29,406.84,119.46,407,119.73,407z M126.56,407.13c0.43,0,1.02-0.07,1.62-0.4c0.38-0.19,0.47-0.48,0.3-0.71l-0.08-0.12
	c-0.16-0.23-0.35-0.25-0.61-0.12c-0.52,0.25-1.03,0.26-1.16,0.26c-1.27,0-2.21-0.85-2.21-2.06s0.94-2.05,2.21-2.05
	c0.13,0,0.65,0.01,1.16,0.26c0.26,0.12,0.44,0.11,0.61-0.12l0.1-0.12c0.17-0.23,0.13-0.47-0.12-0.61c-0.68-0.4-1.33-0.49-1.81-0.49
	c-2.17,0-3.38,1.44-3.38,3.2C123.18,405.78,124.44,407.13,126.56,407.13z M132.81,407.13c0.76,0,1.56-0.18,2.26-0.74
	c0.28-0.23,0.28-0.48,0.08-0.68l-0.08-0.1c-0.19-0.19-0.38-0.2-0.61-0.06c-0.52,0.35-1.04,0.5-1.63,0.5c-1.31,0-2.23-0.82-2.2-1.93
	h4.65c0.29,0,0.46-0.16,0.42-0.44c-0.17-1.92-1.55-2.82-3.06-2.82c-1.87,0-3.24,1.4-3.24,3.16
	C129.4,405.73,130.7,407.13,132.81,407.13z M130.73,403.21c0.37-1.02,1.24-1.3,1.93-1.3c0.66,0,1.5,0.23,1.81,1.3H130.73z
	 M137.4,407.47c0.14,0,0.23-0.07,0.3-0.19l4.33-8.8c0.08-0.18,0.01-0.3-0.18-0.3h-0.67c-0.14,0-0.23,0.06-0.29,0.18l-4.33,8.8
	c-0.08,0.18-0.01,0.31,0.18,0.31H137.4z M147.3,407.13c1.09,0,1.86-0.29,2.52-0.73c0.18-0.13,0.2-0.3,0.07-0.55l-0.11-0.19
	c-0.13-0.24-0.34-0.29-0.6-0.14c-0.53,0.29-1.22,0.48-1.88,0.48c-2.06,0-3.25-1.46-3.25-3.19c0-1.73,1.19-3.19,3.25-3.19
	c0.66,0,1.36,0.19,1.88,0.48c0.26,0.14,0.47,0.1,0.6-0.14l0.11-0.19c0.13-0.25,0.08-0.44-0.14-0.6c-0.65-0.42-1.4-0.68-2.45-0.68
	c-2.86,0-4.55,1.99-4.55,4.33C142.75,405.14,144.44,407.13,147.3,407.13z M153.93,407.13c1.76,0,3.19-1.4,3.19-3.14
	c0-1.72-1.43-3.13-3.19-3.13c-1.75,0-3.17,1.4-3.17,3.13C150.77,405.74,152.18,407.13,153.93,407.13z M153.93,406.05
	c-1.07,0-1.94-0.91-1.94-2.05s0.88-2.06,1.94-2.06c1.09,0,1.96,0.92,1.96,2.06S155.03,406.05,153.93,406.05z M158.93,407h0.36
	c0.28,0,0.43-0.16,0.43-0.43v-2.39c0-1.82,1.25-2.24,1.87-2.24c0.64,0,1.2,0.44,1.2,1.68v2.95c0,0.28,0.16,0.43,0.43,0.43h0.36
	c0.28,0,0.44-0.16,0.44-0.43v-2.96c0-1.88-0.97-2.75-2.3-2.75c-0.97,0-1.74,0.47-2,1.31v-0.74c0-0.28-0.16-0.43-0.43-0.43h-0.36
	c-0.28,0-0.44,0.16-0.44,0.43v5.15C158.49,406.84,158.65,407,158.93,407z M167.89,407.13c1.15,0,1.8-0.66,1.8-1.56
	c0-0.01,0-0.24-0.05-0.44c-0.02-0.16-0.13-0.22-0.28-0.22h-0.55c-0.17,0-0.24,0.11-0.22,0.28c0.02,0.1,0.02,0.18,0.02,0.23
	c0,0.43-0.34,0.65-0.71,0.65c-0.38,0-0.7-0.25-0.7-0.9v-3.22h1.64c0.16,0,0.24-0.1,0.24-0.25v-0.47c0-0.16-0.08-0.24-0.24-0.24
	h-1.64v-1.36c0-0.23-0.13-0.37-0.36-0.37h-0.25c-0.22,0-0.35,0.12-0.38,0.35l-0.22,1.38h-0.76c-0.16,0-0.24,0.08-0.24,0.24v0.47
	c0,0.16,0.08,0.25,0.24,0.25h0.73v3.14C165.98,406.64,166.93,407.13,167.89,407.13z M173.72,407.13c0.76,0,1.56-0.18,2.26-0.74
	c0.28-0.23,0.28-0.48,0.08-0.68l-0.08-0.1c-0.19-0.19-0.38-0.2-0.61-0.06c-0.52,0.35-1.04,0.5-1.63,0.5c-1.31,0-2.23-0.82-2.2-1.93
	h4.66c0.29,0,0.46-0.16,0.42-0.44c-0.17-1.92-1.55-2.82-3.06-2.82c-1.87,0-3.24,1.4-3.24,3.16
	C170.31,405.73,171.61,407.13,173.72,407.13z M171.64,403.21c0.37-1.02,1.24-1.3,1.93-1.3c0.66,0,1.5,0.23,1.81,1.3H171.64z
	 M177.64,407h0.43c0.23,0,0.38-0.07,0.54-0.25l1.74-2.1l1.75,2.1c0.14,0.18,0.3,0.25,0.53,0.25h0.43c0.37,0,0.48-0.25,0.25-0.54
	l-2.15-2.58l1.97-2.36c0.24-0.29,0.13-0.53-0.25-0.53h-0.36c-0.23,0-0.4,0.07-0.54,0.24l-1.63,1.93l-1.63-1.93
	c-0.14-0.17-0.3-0.24-0.53-0.24h-0.37c-0.37,0-0.48,0.24-0.25,0.53l1.97,2.36l-2.14,2.58C177.16,406.75,177.27,407,177.64,407z
	 M186.94,407.13c1.15,0,1.8-0.66,1.8-1.56c0-0.01,0-0.24-0.05-0.44c-0.02-0.16-0.13-0.22-0.28-0.22h-0.55
	c-0.17,0-0.24,0.11-0.22,0.28c0.02,0.1,0.02,0.18,0.02,0.23c0,0.43-0.34,0.65-0.71,0.65c-0.38,0-0.7-0.25-0.7-0.9v-3.22h1.64
	c0.16,0,0.24-0.1,0.24-0.25v-0.47c0-0.16-0.08-0.24-0.24-0.24h-1.64v-1.36c0-0.23-0.13-0.37-0.36-0.37h-0.25
	c-0.22,0-0.35,0.12-0.38,0.35l-0.22,1.38h-0.76c-0.16,0-0.24,0.08-0.24,0.24v0.47c0,0.16,0.08,0.25,0.24,0.25h0.73v3.14
	C185.04,406.64,185.98,407.13,186.94,407.13z M192.02,407.13c0.97,0,1.74-0.47,2-1.31v0.74c0,0.28,0.16,0.43,0.43,0.43h0.36
	c0.28,0,0.44-0.16,0.44-0.43v-5.15c0-0.28-0.17-0.43-0.44-0.43h-0.36c-0.28,0-0.43,0.16-0.43,0.43v2.39c0,1.81-1.25,2.24-1.87,2.24
	c-0.64,0-1.19-0.46-1.19-1.68v-2.95c0-0.28-0.17-0.43-0.44-0.43h-0.36c-0.28,0-0.43,0.16-0.43,0.43v2.96
	C189.73,406.27,190.69,407.13,192.02,407.13z M199.6,407.13c0.8,0,1.58-0.28,2.15-1.08v0.52c0,0.28,0.17,0.43,0.44,0.43h0.36
	c0.28,0,0.43-0.16,0.43-0.43v-5.15c0-0.28-0.16-0.43-0.43-0.43h-0.36c-0.28,0-0.44,0.16-0.44,0.43v0.52
	c-0.56-0.8-1.34-1.08-2.15-1.08c-1.79,0-2.98,1.4-2.98,3.13S197.81,407.13,199.6,407.13z M199.77,406.05
	c-1.21,0-1.91-0.94-1.91-2.06c0-1.12,0.7-2.06,1.91-2.06c1.19,0,1.99,0.88,2,2.06C201.76,405.18,200.95,406.05,199.77,406.05z
	 M205.27,407h0.36c0.28,0,0.43-0.16,0.43-0.43v-7.81c0-0.28-0.16-0.43-0.43-0.43h-0.36c-0.28,0-0.44,0.16-0.44,0.43v7.81
	C204.82,406.84,204.99,407,205.27,407z M208.55,399.9c0.48,0,0.85-0.36,0.85-0.82c0-0.47-0.36-0.84-0.85-0.84
	c-0.48,0-0.83,0.37-0.83,0.84C207.72,399.54,208.07,399.9,208.55,399.9z M208.38,407h0.36c0.28,0,0.43-0.16,0.43-0.43v-5.15
	c0-0.28-0.16-0.43-0.43-0.43h-0.36c-0.28,0-0.44,0.16-0.44,0.43v5.15C207.94,406.84,208.11,407,208.38,407z M210.91,407h5.11
	c0.26,0,0.43-0.16,0.44-0.43v-0.12c0-0.28-0.17-0.43-0.44-0.43h-3.8l3.78-4.04c0.14-0.16,0.2-0.32,0.2-0.53v-0.02
	c0-0.28-0.16-0.43-0.43-0.43h-4.6c-0.28,0-0.44,0.16-0.44,0.43v0.12c0,0.26,0.17,0.43,0.44,0.43h3.3L210.7,406
	c-0.16,0.17-0.22,0.32-0.22,0.54v0.02C210.48,406.84,210.64,407,210.91,407z M220.61,407.13c0.76,0,1.56-0.18,2.26-0.74
	c0.28-0.23,0.28-0.48,0.08-0.68l-0.08-0.1c-0.19-0.19-0.38-0.2-0.61-0.06c-0.52,0.35-1.04,0.5-1.63,0.5c-1.31,0-2.23-0.82-2.2-1.93
	h4.66c0.29,0,0.46-0.16,0.42-0.44c-0.17-1.92-1.55-2.82-3.06-2.82c-1.87,0-3.24,1.4-3.24,3.16
	C217.2,405.73,218.49,407.13,220.61,407.13z M218.53,403.21c0.37-1.02,1.24-1.3,1.93-1.3c0.66,0,1.5,0.23,1.81,1.3H218.53z"/>
<path class="st3" d="M42.88,156.5h122c1.93,0,3.5,1.57,3.5,3.5v20c0,1.93-1.57,3.5-3.5,3.5h-122c-1.93,0-3.5-1.57-3.5-3.5v-20
	C39.38,158.07,40.95,156.5,42.88,156.5z"/>
<path d="M67,174h3.09c3.57,0,5.76-2.51,5.76-5.6c0-3.09-2.19-5.6-5.76-5.6H67c-0.37,0-0.58,0.21-0.58,0.58v10.05
	C66.42,173.79,66.63,174,67,174z M68.12,172.61v-8.42h1.94c2.51,0,4.06,1.87,4.06,4.21s-1.55,4.21-4.06,4.21H68.12z M81.4,174.18
	c2.35,0,4.26-1.87,4.26-4.19c0-2.29-1.9-4.18-4.26-4.18c-2.34,0-4.22,1.87-4.22,4.18C77.18,172.32,79.07,174.18,81.4,174.18z
	 M81.4,172.74c-1.42,0-2.59-1.22-2.59-2.74s1.17-2.75,2.59-2.75c1.46,0,2.61,1.23,2.61,2.75S82.86,172.74,81.4,172.74z
	 M91.41,174.18c0.58,0,1.36-0.1,2.16-0.53c0.51-0.26,0.62-0.64,0.4-0.94l-0.11-0.16c-0.21-0.3-0.46-0.34-0.82-0.16
	c-0.69,0.34-1.38,0.35-1.55,0.35c-1.7,0-2.94-1.14-2.94-2.75c0-1.62,1.25-2.74,2.94-2.74c0.18,0,0.86,0.02,1.55,0.35
	c0.35,0.16,0.59,0.14,0.82-0.16l0.13-0.16c0.22-0.3,0.18-0.62-0.16-0.82c-0.91-0.53-1.78-0.66-2.42-0.66c-2.9,0-4.51,1.92-4.51,4.27
	C86.9,172.37,88.58,174.18,91.41,174.18z M98.9,174.18c1.3,0,2.32-0.62,2.67-1.74v0.99c0,0.37,0.21,0.58,0.58,0.58h0.48
	c0.37,0,0.59-0.21,0.59-0.58v-6.86c0-0.37-0.22-0.58-0.59-0.58h-0.48c-0.37,0-0.58,0.21-0.58,0.58v3.18c0,2.42-1.66,2.99-2.5,2.99
	c-0.85,0-1.58-0.61-1.58-2.24v-3.94c0-0.37-0.22-0.58-0.59-0.58h-0.48c-0.37,0-0.58,0.21-0.58,0.58v3.95
	C95.85,173.02,97.13,174.18,98.9,174.18z M106.21,174h0.48c0.37,0,0.58-0.21,0.58-0.58v-3.18c0-2.43,1.38-2.99,2.19-2.99
	c0.85,0,1.58,0.59,1.58,2.22v3.95c0,0.37,0.22,0.58,0.59,0.58h0.48c0.37,0,0.58-0.21,0.58-0.58v-3.36c0.08-2.35,1.46-2.82,2.19-2.82
	c0.85,0,1.58,0.59,1.58,2.22v3.95c0,0.37,0.22,0.58,0.59,0.58h0.48c0.37,0,0.58-0.21,0.58-0.58v-3.95c0-2.51-1.17-3.66-3.07-3.66
	c-0.96,0-2.05,0.27-2.72,1.65c-0.61-1.39-1.74-1.65-2.53-1.65c-1.17,0-2.19,0.59-2.53,1.74v-0.99c0-0.37-0.21-0.58-0.58-0.58h-0.48
	c-0.37,0-0.59,0.21-0.59,0.58v6.86C105.61,173.79,105.84,174,106.21,174z M124.36,174.18c1.01,0,2.08-0.24,3.01-0.99
	c0.37-0.3,0.37-0.64,0.11-0.91l-0.11-0.13c-0.26-0.26-0.51-0.27-0.82-0.08c-0.69,0.46-1.39,0.67-2.18,0.67
	c-1.74,0-2.98-1.09-2.93-2.58h6.21c0.38,0,0.61-0.21,0.56-0.59c-0.22-2.56-2.06-3.76-4.08-3.76c-2.5,0-4.32,1.87-4.32,4.21
	C119.82,172.3,121.55,174.18,124.36,174.18z M121.6,168.94c0.5-1.36,1.65-1.73,2.58-1.73c0.88,0,2,0.3,2.42,1.73H121.6z M130.55,174
	h0.48c0.37,0,0.58-0.21,0.58-0.58v-3.18c0-2.43,1.66-2.99,2.5-2.99c0.85,0,1.6,0.59,1.6,2.24v3.94c0,0.37,0.21,0.58,0.58,0.58h0.48
	c0.37,0,0.59-0.21,0.59-0.58v-3.95c0-2.51-1.3-3.66-3.07-3.66c-1.3,0-2.32,0.62-2.67,1.74v-0.99c0-0.37-0.21-0.58-0.58-0.58h-0.48
	c-0.37,0-0.59,0.21-0.59,0.58v6.86C129.96,173.79,130.18,174,130.55,174z M142.5,174.18c1.54,0,2.4-0.88,2.4-2.08
	c0-0.02,0-0.32-0.06-0.59c-0.03-0.21-0.18-0.29-0.37-0.29h-0.74c-0.22,0-0.32,0.14-0.29,0.37c0.03,0.13,0.03,0.24,0.03,0.3
	c0,0.58-0.45,0.86-0.94,0.86c-0.51,0-0.93-0.34-0.93-1.2v-4.29h2.19c0.21,0,0.32-0.13,0.32-0.34v-0.62c0-0.21-0.11-0.32-0.32-0.32
	h-2.19v-1.81c0-0.3-0.18-0.5-0.48-0.5h-0.34c-0.29,0-0.46,0.16-0.51,0.46l-0.29,1.84h-1.01c-0.21,0-0.32,0.11-0.32,0.32v0.62
	c0,0.21,0.11,0.34,0.32,0.34h0.98v4.19C139.95,173.52,141.22,174.18,142.5,174.18z M156.09,174.18c1.46,0,2.48-0.38,3.36-0.98
	c0.24-0.18,0.27-0.4,0.1-0.74l-0.14-0.26c-0.18-0.32-0.45-0.38-0.8-0.19c-0.7,0.38-1.63,0.64-2.51,0.64c-2.75,0-4.34-1.95-4.34-4.26
	s1.58-4.26,4.34-4.26c0.88,0,1.81,0.26,2.51,0.64c0.35,0.19,0.62,0.13,0.8-0.19l0.14-0.26c0.18-0.34,0.11-0.59-0.19-0.8
	c-0.86-0.56-1.87-0.91-3.26-0.91c-3.81,0-6.06,2.66-6.06,5.78C150.03,171.52,152.28,174.18,156.09,174.18z"/>
<path class="st4" d="M43.97,152.13c1.09,0,1.86-0.29,2.52-0.73c0.18-0.13,0.2-0.3,0.07-0.55l-0.11-0.19
	c-0.13-0.24-0.34-0.29-0.6-0.14c-0.53,0.29-1.22,0.48-1.88,0.48c-2.06,0-3.25-1.46-3.25-3.19s1.19-3.19,3.25-3.19
	c0.66,0,1.36,0.19,1.88,0.48c0.26,0.14,0.47,0.1,0.6-0.14l0.11-0.19c0.13-0.25,0.08-0.44-0.14-0.6c-0.65-0.42-1.4-0.68-2.45-0.68
	c-2.86,0-4.55,1.99-4.55,4.33S41.12,152.13,43.97,152.13z M48.47,152h0.36c0.28,0,0.43-0.16,0.43-0.43v-7.81
	c0-0.28-0.16-0.43-0.43-0.43h-0.36c-0.28,0-0.44,0.16-0.44,0.43v7.81C48.02,151.84,48.19,152,48.47,152z M53.65,152.13
	c0.8,0,1.58-0.28,2.15-1.08v0.52c0,0.28,0.17,0.43,0.44,0.43h0.36c0.28,0,0.43-0.16,0.43-0.43v-5.15c0-0.28-0.16-0.43-0.43-0.43
	h-0.36c-0.28,0-0.44,0.16-0.44,0.43v0.52c-0.56-0.8-1.34-1.08-2.15-1.08c-1.79,0-2.98,1.4-2.98,3.13
	C50.67,150.72,51.86,152.13,53.65,152.13z M53.82,151.05c-1.21,0-1.91-0.94-1.91-2.06c0-1.12,0.7-2.06,1.91-2.06
	c1.19,0,1.99,0.88,2,2.06C55.81,150.18,55,151.05,53.82,151.05z M59.49,144.9c0.48,0,0.85-0.36,0.85-0.82
	c0-0.47-0.36-0.84-0.85-0.84c-0.48,0-0.83,0.37-0.83,0.84C58.66,144.54,59.01,144.9,59.49,144.9z M59.32,152h0.36
	c0.28,0,0.43-0.16,0.43-0.43v-5.15c0-0.28-0.16-0.43-0.43-0.43h-0.36c-0.28,0-0.44,0.16-0.44,0.43v5.15
	C58.87,151.84,59.04,152,59.32,152z M62.4,152h0.36c0.28,0,0.43-0.16,0.43-0.43v-2.39c0-1.82,1.03-2.24,1.64-2.24
	c0.64,0,1.19,0.44,1.19,1.67v2.96c0,0.28,0.17,0.43,0.44,0.43h0.36c0.28,0,0.43-0.16,0.43-0.43v-2.52c0.06-1.76,1.09-2.11,1.64-2.11
	c0.64,0,1.19,0.44,1.19,1.67v2.96c0,0.28,0.17,0.43,0.44,0.43h0.36c0.28,0,0.43-0.16,0.43-0.43v-2.96c0-1.88-0.88-2.75-2.3-2.75
	c-0.72,0-1.54,0.2-2.04,1.24c-0.46-1.04-1.31-1.24-1.9-1.24c-0.88,0-1.64,0.44-1.9,1.31v-0.74c0-0.28-0.16-0.43-0.43-0.43H62.4
	c-0.28,0-0.44,0.16-0.44,0.43v5.15C61.96,151.84,62.12,152,62.4,152z M73.45,152.47c0.14,0,0.23-0.07,0.3-0.19l4.33-8.8
	c0.08-0.18,0.01-0.3-0.18-0.3h-0.67c-0.14,0-0.23,0.06-0.29,0.18l-4.33,8.8c-0.08,0.18-0.01,0.31,0.18,0.31H73.45z M81.58,154.82
	c1.67,0,3.17-0.88,3.17-2.92v-5.48c0-0.28-0.17-0.43-0.44-0.43h-0.35c-0.28,0-0.44,0.16-0.44,0.42v0.53
	c-0.56-0.8-1.34-1.08-2.15-1.08c-1.8,0-2.98,1.42-2.98,3.13c0,1.73,1.18,3.14,2.98,3.14c0.8,0,1.58-0.28,2.15-1.08v0.77
	c0,1.27-0.79,1.93-1.94,1.93c-0.61,0-1.2-0.14-1.72-0.47c-0.25-0.16-0.46-0.13-0.59,0.14l-0.1,0.17c-0.12,0.24-0.08,0.46,0.13,0.6
	C79.85,154.56,80.53,154.82,81.58,154.82z M81.53,151.05c-1.21,0-1.91-0.94-1.91-2.06c0-1.12,0.7-2.06,1.91-2.06
	c1.19,0,1.99,0.88,2,2.06C83.52,150.18,82.72,151.05,81.53,151.05z M89.17,145.12h0.52c0.13,0,0.23-0.05,0.3-0.16l1.02-1.37
	c0.13-0.17,0.06-0.3-0.14-0.3h-0.8c-0.13,0-0.23,0.06-0.29,0.18l-0.78,1.34C88.89,144.98,88.97,145.12,89.17,145.12z M89.51,152.13
	c0.76,0,1.56-0.18,2.26-0.74c0.28-0.23,0.28-0.48,0.08-0.68l-0.08-0.1c-0.19-0.19-0.38-0.2-0.61-0.06c-0.52,0.35-1.04,0.5-1.63,0.5
	c-1.31,0-2.23-0.82-2.2-1.93h4.66c0.29,0,0.46-0.16,0.42-0.44c-0.17-1.92-1.55-2.82-3.06-2.82c-1.87,0-3.24,1.4-3.24,3.16
	C86.1,150.73,87.39,152.13,89.51,152.13z M87.43,148.21c0.37-1.02,1.24-1.3,1.93-1.3c0.66,0,1.5,0.23,1.81,1.3H87.43z M94.15,152
	h0.36c0.28,0,0.43-0.16,0.43-0.43v-2.39c0-1.82,1.25-2.24,1.87-2.24c0.64,0,1.2,0.44,1.2,1.68v2.95c0,0.28,0.16,0.43,0.43,0.43h0.36
	c0.28,0,0.44-0.16,0.44-0.43v-2.96c0-1.88-0.97-2.75-2.3-2.75c-0.97,0-1.74,0.47-2,1.31v-0.74c0-0.28-0.16-0.43-0.43-0.43h-0.36
	c-0.28,0-0.44,0.16-0.44,0.43v5.15C93.7,151.84,93.87,152,94.15,152z M103.6,145.12h0.52c0.13,0,0.23-0.05,0.3-0.16l1.02-1.37
	c0.13-0.17,0.06-0.3-0.14-0.3h-0.8c-0.13,0-0.23,0.06-0.29,0.18l-0.78,1.34C103.32,144.98,103.39,145.12,103.6,145.12z
	 M103.93,152.13c0.76,0,1.56-0.18,2.26-0.74c0.28-0.23,0.28-0.48,0.08-0.68l-0.08-0.1c-0.19-0.19-0.38-0.2-0.61-0.06
	c-0.52,0.35-1.04,0.5-1.63,0.5c-1.31,0-2.23-0.82-2.2-1.93h4.66c0.29,0,0.46-0.16,0.42-0.44c-0.17-1.92-1.55-2.82-3.06-2.82
	c-1.87,0-3.24,1.4-3.24,3.16C100.52,150.73,101.82,152.13,103.93,152.13z M101.86,148.21c0.37-1.02,1.24-1.3,1.93-1.3
	c0.66,0,1.5,0.23,1.81,1.3H101.86z M108.57,152h0.36c0.28,0,0.43-0.16,0.43-0.43v-1.86c0-2.46,1.08-2.68,1.51-2.68
	c0.11,0,0.22,0.01,0.32,0.04c0.2,0.05,0.32-0.07,0.32-0.37v-0.35c0-0.24-0.04-0.44-0.29-0.48l-0.26-0.01c-0.72,0-1.4,0.52-1.61,1.48
	v-0.91c0-0.28-0.16-0.43-0.43-0.43h-0.36c-0.28,0-0.44,0.16-0.44,0.43v5.15C108.13,151.84,108.3,152,108.57,152z M115.01,152.13
	c0.8,0,1.58-0.28,2.15-1.08v0.52c0,0.28,0.17,0.43,0.44,0.43h0.36c0.28,0,0.43-0.16,0.43-0.43v-5.15c0-0.28-0.16-0.43-0.43-0.43
	h-0.36c-0.28,0-0.44,0.16-0.44,0.43v0.52c-0.56-0.8-1.34-1.08-2.15-1.08c-1.79,0-2.98,1.4-2.98,3.13
	C112.03,150.72,113.22,152.13,115.01,152.13z M115.18,151.05c-1.21,0-1.91-0.94-1.91-2.06c0-1.12,0.7-2.06,1.91-2.06
	c1.19,0,1.99,0.88,2,2.06C117.17,150.18,116.36,151.05,115.18,151.05z M122.41,152.13c1.15,0,1.8-0.66,1.8-1.56
	c0-0.01,0-0.24-0.05-0.44c-0.02-0.16-0.13-0.22-0.28-0.22h-0.55c-0.17,0-0.24,0.11-0.22,0.28c0.02,0.1,0.02,0.18,0.02,0.23
	c0,0.43-0.34,0.65-0.71,0.65c-0.38,0-0.7-0.25-0.7-0.9v-3.22h1.64c0.16,0,0.24-0.1,0.24-0.25v-0.47c0-0.16-0.08-0.24-0.24-0.24
	h-1.64v-1.36c0-0.23-0.13-0.37-0.36-0.37h-0.25c-0.22,0-0.35,0.12-0.38,0.35l-0.22,1.38h-0.76c-0.16,0-0.24,0.08-0.24,0.24v0.47
	c0,0.16,0.08,0.25,0.24,0.25h0.73v3.14C120.5,151.64,121.45,152.13,122.41,152.13z M128.24,152.13c0.76,0,1.56-0.18,2.26-0.74
	c0.28-0.23,0.28-0.48,0.08-0.68l-0.08-0.1c-0.19-0.19-0.38-0.2-0.61-0.06c-0.52,0.35-1.04,0.5-1.63,0.5c-1.31,0-2.23-0.82-2.2-1.93
	h4.66c0.29,0,0.46-0.16,0.42-0.44c-0.17-1.92-1.55-2.82-3.06-2.82c-1.87,0-3.24,1.4-3.24,3.16
	C124.83,150.73,126.12,152.13,128.24,152.13z M126.16,148.21c0.37-1.02,1.24-1.3,1.93-1.3c0.66,0,1.5,0.23,1.81,1.3H126.16z"/>
<path class="st5" d="M72.88,207.5h136c1.93,0,3.5,1.57,3.5,3.5v20c0,1.93-1.57,3.5-3.5,3.5h-136c-1.93,0-3.5-1.57-3.5-3.5v-20
	C69.38,209.07,70.95,207.5,72.88,207.5z"/>
<path class="st0" d="M97.55,225h0.53c0.37,0,0.58-0.18,0.61-0.54l0.7-8.08l3.33,8.03c0.13,0.3,0.32,0.45,0.66,0.45h0.27
	c0.34,0,0.54-0.14,0.67-0.45l3.33-8.03l0.69,8.08c0.03,0.37,0.26,0.54,0.62,0.54h0.53c0.38,0,0.59-0.21,0.56-0.61l-0.94-10.05
	c-0.03-0.37-0.24-0.54-0.61-0.54h-0.83c-0.34,0-0.53,0.13-0.67,0.45l-3.47,8.34l-3.49-8.34c-0.13-0.32-0.34-0.45-0.66-0.45h-0.85
	c-0.35,0-0.56,0.18-0.59,0.54l-0.96,10.05C96.94,224.79,97.16,225,97.55,225z M113.84,228.58h0.38c0.34,0,0.54-0.13,0.67-0.45
	l4.46-10.48c0.18-0.42-0.02-0.67-0.45-0.67h-0.66c-0.34,0-0.58,0.14-0.69,0.46l-2.05,5.41l-2.22-5.42c-0.11-0.3-0.32-0.45-0.66-0.45
	H112c-0.43,0-0.62,0.27-0.45,0.67l3.07,7.04l-1.23,3.22C113.23,228.31,113.41,228.58,113.84,228.58z M125.73,225h3.09
	c3.57,0,5.76-2.51,5.76-5.6c0-3.09-2.19-5.6-5.76-5.6h-3.09c-0.37,0-0.58,0.21-0.58,0.58v10.05C125.15,224.79,125.36,225,125.73,225
	z M126.85,223.61v-8.42h1.94c2.51,0,4.06,1.87,4.06,4.21s-1.55,4.21-4.06,4.21H126.85z M140.14,225.18c2.35,0,4.26-1.87,4.26-4.19
	c0-2.29-1.9-4.18-4.26-4.18c-2.34,0-4.22,1.87-4.22,4.18C135.91,223.32,137.8,225.18,140.14,225.18z M140.14,223.74
	c-1.42,0-2.59-1.22-2.59-2.74s1.17-2.75,2.59-2.75c1.46,0,2.61,1.23,2.61,2.75S141.59,223.74,140.14,223.74z M150.14,225.18
	c0.58,0,1.36-0.1,2.16-0.53c0.51-0.26,0.62-0.64,0.4-0.94l-0.11-0.16c-0.21-0.3-0.46-0.34-0.82-0.16c-0.69,0.34-1.38,0.35-1.55,0.35
	c-1.7,0-2.94-1.14-2.94-2.75c0-1.62,1.25-2.74,2.94-2.74c0.18,0,0.86,0.02,1.55,0.35c0.35,0.16,0.59,0.14,0.82-0.16l0.13-0.16
	c0.22-0.3,0.18-0.62-0.16-0.82c-0.91-0.53-1.78-0.66-2.42-0.66c-2.9,0-4.51,1.92-4.51,4.27
	C145.63,223.37,147.31,225.18,150.14,225.18z M157.64,225.18c1.3,0,2.32-0.62,2.67-1.74v0.99c0,0.37,0.21,0.58,0.58,0.58h0.48
	c0.37,0,0.59-0.21,0.59-0.58v-6.86c0-0.37-0.22-0.58-0.59-0.58h-0.48c-0.37,0-0.58,0.21-0.58,0.58v3.18c0,2.42-1.66,2.99-2.5,2.99
	c-0.85,0-1.58-0.61-1.58-2.24v-3.94c0-0.37-0.22-0.58-0.59-0.58h-0.48c-0.37,0-0.58,0.21-0.58,0.58v3.95
	C154.58,224.02,155.86,225.18,157.64,225.18z M164.94,225h0.48c0.37,0,0.58-0.21,0.58-0.58v-3.18c0-2.43,1.38-2.99,2.19-2.99
	c0.85,0,1.58,0.59,1.58,2.22v3.95c0,0.37,0.22,0.58,0.59,0.58h0.48c0.37,0,0.58-0.21,0.58-0.58v-3.36c0.08-2.35,1.46-2.82,2.19-2.82
	c0.85,0,1.58,0.59,1.58,2.22v3.95c0,0.37,0.22,0.58,0.59,0.58h0.48c0.37,0,0.58-0.21,0.58-0.58v-3.95c0-2.51-1.17-3.66-3.07-3.66
	c-0.96,0-2.05,0.27-2.72,1.65c-0.61-1.39-1.74-1.65-2.53-1.65c-1.17,0-2.19,0.59-2.53,1.74v-0.99c0-0.37-0.21-0.58-0.58-0.58h-0.48
	c-0.37,0-0.59,0.21-0.59,0.58v6.86C164.35,224.79,164.57,225,164.94,225z M183.1,225.18c1.01,0,2.08-0.24,3.01-0.99
	c0.37-0.3,0.37-0.64,0.11-0.91l-0.11-0.13c-0.26-0.26-0.51-0.27-0.82-0.08c-0.69,0.46-1.39,0.67-2.18,0.67
	c-1.74,0-2.98-1.09-2.93-2.58h6.21c0.39,0,0.61-0.21,0.56-0.59c-0.22-2.56-2.06-3.76-4.08-3.76c-2.5,0-4.32,1.87-4.32,4.21
	C178.55,223.3,180.28,225.18,183.1,225.18z M180.33,219.94c0.5-1.36,1.65-1.73,2.58-1.73c0.88,0,2,0.3,2.42,1.73H180.33z
	 M189.28,225h0.48c0.37,0,0.58-0.21,0.58-0.58v-3.18c0-2.43,1.66-2.99,2.5-2.99c0.85,0,1.6,0.59,1.6,2.24v3.94
	c0,0.37,0.21,0.58,0.58,0.58h0.48c0.37,0,0.59-0.21,0.59-0.58v-3.95c0-2.51-1.3-3.66-3.07-3.66c-1.3,0-2.32,0.62-2.67,1.74v-0.99
	c0-0.37-0.21-0.58-0.58-0.58h-0.48c-0.37,0-0.59,0.21-0.59,0.58v6.86C188.69,224.79,188.92,225,189.28,225z M201.23,225.18
	c1.54,0,2.4-0.88,2.4-2.08c0-0.02,0-0.32-0.06-0.59c-0.03-0.21-0.18-0.29-0.37-0.29h-0.74c-0.22,0-0.32,0.14-0.29,0.37
	c0.03,0.13,0.03,0.24,0.03,0.3c0,0.58-0.45,0.86-0.94,0.86c-0.51,0-0.93-0.34-0.93-1.2v-4.29h2.19c0.21,0,0.32-0.13,0.32-0.34v-0.62
	c0-0.21-0.11-0.32-0.32-0.32h-2.19v-1.81c0-0.3-0.18-0.5-0.48-0.5h-0.34c-0.29,0-0.46,0.16-0.51,0.46l-0.29,1.84h-1.01
	c-0.21,0-0.32,0.11-0.32,0.32v0.62c0,0.21,0.11,0.34,0.32,0.34h0.98v4.19C198.69,224.52,199.95,225.18,201.23,225.18z"/>
<path class="st4" d="M74.98,195.64c0.26,0,0.43-0.16,0.43-0.43v-0.18c0-0.28-0.17-0.43-0.43-0.43h-4.51c-0.28,0-0.43,0.16-0.43,0.43
	v7.54c0,0.28,0.16,0.43,0.43,0.43h4.51c0.26,0,0.43-0.16,0.43-0.43v-0.18c0-0.28-0.17-0.43-0.43-0.43h-3.67v-2.56h3.14
	c0.28,0,0.43-0.17,0.43-0.44v-0.16c0-0.28-0.16-0.43-0.43-0.43h-3.14v-2.72H74.98z M78.84,203h0.62c0.25,0,0.42-0.12,0.52-0.35
	l2-5.17c0.11-0.3-0.01-0.49-0.34-0.49h-0.4c-0.25,0-0.41,0.11-0.5,0.35l-1.6,4.31l-1.6-4.31c-0.1-0.24-0.25-0.35-0.5-0.35h-0.4
	c-0.32,0-0.44,0.19-0.34,0.49l2,5.17C78.42,202.88,78.59,203,78.84,203z M83.99,195.9c0.48,0,0.85-0.36,0.85-0.82
	c0-0.47-0.36-0.84-0.85-0.84c-0.48,0-0.83,0.37-0.83,0.84C83.16,195.54,83.51,195.9,83.99,195.9z M83.82,203h0.36
	c0.28,0,0.43-0.16,0.43-0.43v-5.15c0-0.28-0.16-0.43-0.43-0.43h-0.36c-0.28,0-0.44,0.16-0.44,0.43v5.15
	C83.38,202.84,83.55,203,83.82,203z M89.02,203.13c0.8,0,1.58-0.28,2.15-1.08v0.52c0,0.28,0.17,0.43,0.44,0.43h0.36
	c0.28,0,0.43-0.16,0.43-0.43v-7.81c0-0.28-0.16-0.43-0.43-0.43h-0.36c-0.28,0-0.44,0.16-0.44,0.43v3.18
	c-0.56-0.8-1.34-1.08-2.15-1.08c-1.79,0-2.98,1.4-2.98,3.13C86.04,201.72,87.23,203.13,89.02,203.13z M89.18,202.05
	c-1.21,0-1.91-0.94-1.91-2.06c0-1.12,0.7-2.06,1.91-2.06c1.19,0,1.99,0.88,2,2.06C91.18,201.18,90.37,202.05,89.18,202.05z
	 M97.18,203.13c0.76,0,1.56-0.18,2.26-0.74c0.28-0.23,0.28-0.48,0.08-0.68l-0.08-0.1c-0.19-0.19-0.38-0.2-0.61-0.06
	c-0.52,0.35-1.04,0.5-1.63,0.5c-1.31,0-2.23-0.82-2.2-1.93h4.66c0.29,0,0.46-0.16,0.42-0.44c-0.17-1.92-1.55-2.82-3.06-2.82
	c-1.87,0-3.24,1.4-3.24,3.16C93.77,201.73,95.07,203.13,97.18,203.13z M95.11,199.21c0.37-1.02,1.24-1.3,1.93-1.3
	c0.66,0,1.5,0.23,1.81,1.3H95.11z M101.82,203h0.36c0.28,0,0.43-0.16,0.43-0.43v-2.39c0-1.82,1.25-2.24,1.87-2.24
	c0.64,0,1.2,0.44,1.2,1.68v2.95c0,0.28,0.16,0.43,0.43,0.43h0.36c0.28,0,0.44-0.16,0.44-0.43v-2.96c0-1.88-0.97-2.75-2.3-2.75
	c-0.97,0-1.74,0.47-2,1.31v-0.74c0-0.28-0.16-0.43-0.43-0.43h-0.36c-0.28,0-0.44,0.16-0.44,0.43v5.15
	C101.38,202.84,101.55,203,101.82,203z M111.59,203.13c0.43,0,1.02-0.07,1.62-0.4c0.38-0.19,0.47-0.48,0.3-0.71l-0.08-0.12
	c-0.16-0.23-0.35-0.25-0.61-0.12c-0.52,0.25-1.03,0.26-1.16,0.26c-1.27,0-2.21-0.85-2.21-2.06c0-1.21,0.94-2.05,2.21-2.05
	c0.13,0,0.65,0.01,1.16,0.26c0.26,0.12,0.44,0.11,0.61-0.12l0.1-0.12c0.17-0.23,0.13-0.47-0.12-0.61c-0.68-0.4-1.33-0.49-1.81-0.49
	c-2.17,0-3.38,1.44-3.38,3.2C108.21,201.78,109.47,203.13,111.59,203.13z M117.84,203.13c0.76,0,1.56-0.18,2.26-0.74
	c0.28-0.23,0.28-0.48,0.08-0.68l-0.08-0.1c-0.19-0.19-0.38-0.2-0.61-0.06c-0.52,0.35-1.04,0.5-1.63,0.5c-1.31,0-2.23-0.82-2.2-1.93
	h4.66c0.29,0,0.46-0.16,0.42-0.44c-0.17-1.92-1.55-2.82-3.06-2.82c-1.87,0-3.24,1.4-3.24,3.16
	C114.43,201.73,115.73,203.13,117.84,203.13z M115.77,199.21c0.37-1.02,1.24-1.3,1.93-1.3c0.66,0,1.5,0.23,1.81,1.3H115.77z
	 M122.43,203.47c0.14,0,0.23-0.07,0.3-0.19l4.33-8.8c0.08-0.18,0.01-0.3-0.18-0.3h-0.67c-0.14,0-0.23,0.06-0.29,0.18l-4.33,8.8
	c-0.08,0.18-0.01,0.31,0.18,0.31H122.43z M132.15,203.13c2.42,0,4.37-1.94,4.37-4.33s-1.94-4.33-4.37-4.33s-4.37,1.94-4.37,4.33
	S129.73,203.13,132.15,203.13z M132.15,201.99c-1.69,0-3.07-1.38-3.07-3.19s1.38-3.19,3.07-3.19s3.07,1.38,3.07,3.19
	S133.84,201.99,132.15,201.99z M138.34,205.69h0.36c0.28,0,0.43-0.16,0.43-0.43v-3.2c0.56,0.8,1.36,1.08,2.16,1.08
	c1.79,0,2.98-1.42,2.98-3.14c0-1.73-1.19-3.13-2.98-3.13c-0.8,0-1.6,0.28-2.16,1.08v-0.52c0-0.28-0.16-0.43-0.43-0.43h-0.36
	c-0.28,0-0.44,0.16-0.44,0.43v7.84C137.89,205.53,138.06,205.69,138.34,205.69z M141.11,202.05c-1.18,0-1.99-0.88-2-2.06
	c0.01-1.19,0.83-2.06,2-2.06c1.22,0,1.92,0.95,1.92,2.06C143.03,201.12,142.33,202.05,141.11,202.05z M146.07,205.69h0.36
	c0.28,0,0.43-0.16,0.43-0.43v-3.2c0.56,0.8,1.36,1.08,2.16,1.08c1.79,0,2.98-1.42,2.98-3.14c0-1.73-1.19-3.13-2.98-3.13
	c-0.8,0-1.6,0.28-2.16,1.08v-0.52c0-0.28-0.16-0.43-0.43-0.43h-0.36c-0.28,0-0.44,0.16-0.44,0.43v7.84
	C145.63,205.53,145.8,205.69,146.07,205.69z M148.84,202.05c-1.18,0-1.99-0.88-2-2.06c0.01-1.19,0.83-2.06,2-2.06
	c1.22,0,1.92,0.95,1.92,2.06C150.76,201.12,150.07,202.05,148.84,202.05z M156.09,203.13c1.76,0,3.19-1.4,3.19-3.14
	c0-1.72-1.43-3.13-3.19-3.13c-1.75,0-3.17,1.4-3.17,3.13C152.92,201.74,154.33,203.13,156.09,203.13z M156.09,202.05
	c-1.07,0-1.94-0.91-1.94-2.05s0.88-2.06,1.94-2.06c1.09,0,1.96,0.92,1.96,2.06S157.18,202.05,156.09,202.05z M162.43,203.13
	c1.18,0,2.18-0.66,2.18-1.81c0-0.65-0.31-1.36-1.46-1.72l-0.86-0.29c-0.35-0.11-0.7-0.31-0.7-0.7c0-0.42,0.34-0.74,0.86-0.74
	c0.26,0,0.53,0.07,0.73,0.31c0.17,0.22,0.31,0.32,0.56,0.25l0.23-0.05c0.29-0.06,0.43-0.28,0.28-0.55c-0.4-0.73-1.1-0.98-1.84-0.98
	c-1.2,0-2.02,0.77-2.02,1.8c0,0.85,0.58,1.37,1.5,1.64l0.8,0.28c0.42,0.14,0.74,0.35,0.74,0.73c0,0.46-0.43,0.79-1.01,0.79
	c-0.47,0-0.88-0.19-1.12-0.49c-0.16-0.2-0.3-0.31-0.54-0.25l-0.25,0.07c-0.29,0.07-0.43,0.26-0.29,0.54
	C160.65,202.74,161.5,203.13,162.43,203.13z M168.94,203.13c0.76,0,1.56-0.18,2.26-0.74c0.28-0.23,0.28-0.48,0.08-0.68l-0.08-0.1
	c-0.19-0.19-0.38-0.2-0.61-0.06c-0.52,0.35-1.04,0.5-1.63,0.5c-1.31,0-2.23-0.82-2.2-1.93h4.65c0.29,0,0.46-0.16,0.42-0.44
	c-0.17-1.92-1.55-2.82-3.06-2.82c-1.87,0-3.24,1.4-3.24,3.16C165.53,201.73,166.82,203.13,168.94,203.13z M166.86,199.21
	c0.37-1.02,1.24-1.3,1.93-1.3c0.66,0,1.5,0.23,1.81,1.3H166.86z"/>
<path class="st3" d="M42.88,462.5h122c1.93,0,3.5,1.57,3.5,3.5v20c0,1.93-1.57,3.5-3.5,3.5h-122c-1.93,0-3.5-1.57-3.5-3.5v-20
	C39.38,464.07,40.95,462.5,42.88,462.5z"/>
<path d="M65,480h3.09c3.57,0,5.76-2.51,5.76-5.6c0-3.09-2.19-5.6-5.76-5.6H65c-0.37,0-0.58,0.21-0.58,0.58v10.05
	C64.42,479.79,64.63,480,65,480z M66.12,478.61v-8.42h1.94c2.51,0,4.06,1.87,4.06,4.21s-1.55,4.21-4.06,4.21H66.12z M79.4,480.18
	c2.35,0,4.26-1.87,4.26-4.19c0-2.29-1.9-4.18-4.26-4.18c-2.34,0-4.22,1.87-4.22,4.18C75.18,478.32,77.07,480.18,79.4,480.18z
	 M79.4,478.74c-1.42,0-2.59-1.22-2.59-2.74s1.17-2.75,2.59-2.75c1.46,0,2.61,1.23,2.61,2.75S80.86,478.74,79.4,478.74z
	 M89.41,480.18c0.58,0,1.36-0.1,2.16-0.53c0.51-0.26,0.62-0.64,0.4-0.94l-0.11-0.16c-0.21-0.3-0.46-0.34-0.82-0.16
	c-0.69,0.34-1.38,0.35-1.55,0.35c-1.7,0-2.94-1.14-2.94-2.75s1.25-2.74,2.94-2.74c0.18,0,0.86,0.02,1.55,0.35
	c0.35,0.16,0.59,0.14,0.82-0.16l0.13-0.16c0.22-0.3,0.18-0.62-0.16-0.82c-0.91-0.53-1.78-0.66-2.42-0.66c-2.9,0-4.51,1.92-4.51,4.27
	C84.9,478.37,86.58,480.18,89.41,480.18z M96.9,480.18c1.3,0,2.32-0.62,2.67-1.74v0.99c0,0.37,0.21,0.58,0.58,0.58h0.48
	c0.37,0,0.59-0.21,0.59-0.58v-6.86c0-0.37-0.22-0.58-0.59-0.58h-0.48c-0.37,0-0.58,0.21-0.58,0.58v3.18c0,2.42-1.66,2.99-2.5,2.99
	c-0.85,0-1.58-0.61-1.58-2.24v-3.94c0-0.37-0.22-0.58-0.59-0.58h-0.48c-0.37,0-0.58,0.21-0.58,0.58v3.95
	C93.85,479.02,95.13,480.18,96.9,480.18z M104.21,480h0.48c0.37,0,0.58-0.21,0.58-0.58v-3.18c0-2.43,1.38-2.99,2.19-2.99
	c0.85,0,1.58,0.59,1.58,2.22v3.95c0,0.37,0.22,0.58,0.59,0.58h0.48c0.37,0,0.58-0.21,0.58-0.58v-3.36c0.08-2.35,1.46-2.82,2.19-2.82
	c0.85,0,1.58,0.59,1.58,2.22v3.95c0,0.37,0.22,0.58,0.59,0.58h0.48c0.37,0,0.58-0.21,0.58-0.58v-3.95c0-2.51-1.17-3.66-3.07-3.66
	c-0.96,0-2.05,0.27-2.72,1.65c-0.61-1.39-1.74-1.65-2.53-1.65c-1.17,0-2.19,0.59-2.53,1.74v-0.99c0-0.37-0.21-0.58-0.58-0.58h-0.48
	c-0.37,0-0.59,0.21-0.59,0.58v6.86C103.61,479.79,103.84,480,104.21,480z M122.36,480.18c1.01,0,2.08-0.24,3.01-0.99
	c0.37-0.3,0.37-0.64,0.11-0.91l-0.11-0.13c-0.26-0.26-0.51-0.27-0.82-0.08c-0.69,0.46-1.39,0.67-2.18,0.67
	c-1.74,0-2.98-1.09-2.93-2.58h6.21c0.38,0,0.61-0.21,0.56-0.59c-0.22-2.56-2.06-3.76-4.08-3.76c-2.5,0-4.32,1.87-4.32,4.21
	C117.82,478.3,119.55,480.18,122.36,480.18z M119.6,474.94c0.5-1.36,1.65-1.73,2.58-1.73c0.88,0,2,0.3,2.42,1.73H119.6z M128.55,480
	h0.48c0.37,0,0.58-0.21,0.58-0.58v-3.18c0-2.43,1.66-2.99,2.5-2.99c0.85,0,1.6,0.59,1.6,2.24v3.94c0,0.37,0.21,0.58,0.58,0.58h0.48
	c0.37,0,0.59-0.21,0.59-0.58v-3.95c0-2.51-1.3-3.66-3.07-3.66c-1.3,0-2.32,0.62-2.67,1.74v-0.99c0-0.37-0.21-0.58-0.58-0.58h-0.48
	c-0.37,0-0.59,0.21-0.59,0.58v6.86C127.96,479.79,128.18,480,128.55,480z M140.5,480.18c1.54,0,2.4-0.88,2.4-2.08
	c0-0.02,0-0.32-0.06-0.59c-0.03-0.21-0.18-0.29-0.37-0.29h-0.74c-0.22,0-0.32,0.14-0.29,0.37c0.03,0.13,0.03,0.24,0.03,0.3
	c0,0.58-0.45,0.86-0.94,0.86c-0.51,0-0.93-0.34-0.93-1.2v-4.29h2.19c0.21,0,0.32-0.13,0.32-0.34v-0.62c0-0.21-0.11-0.32-0.32-0.32
	h-2.19v-1.81c0-0.3-0.18-0.5-0.48-0.5h-0.34c-0.29,0-0.46,0.16-0.51,0.46l-0.29,1.84h-1.01c-0.21,0-0.32,0.11-0.32,0.32v0.62
	c0,0.21,0.11,0.34,0.32,0.34h0.98v4.19C137.95,479.52,139.22,480.18,140.5,480.18z M149.42,480h0.54c0.37,0,0.58-0.21,0.58-0.58
	v-4.08h5.12v4.08c0,0.37,0.22,0.58,0.59,0.58h0.53c0.37,0,0.58-0.21,0.58-0.58v-10.05c0-0.37-0.21-0.58-0.58-0.58h-0.53
	c-0.37,0-0.59,0.21-0.59,0.58v4.59h-5.12v-4.59c0-0.37-0.21-0.58-0.58-0.58h-0.54c-0.37,0-0.58,0.21-0.58,0.58v10.05
	C148.84,479.79,149.05,480,149.42,480z"/>
<path class="st4" d="M44.98,450.64c0.26,0,0.43-0.16,0.43-0.43v-0.18c0-0.28-0.17-0.43-0.43-0.43h-4.51c-0.28,0-0.43,0.16-0.43,0.43
	v7.54c0,0.28,0.16,0.43,0.43,0.43h4.51c0.26,0,0.43-0.16,0.43-0.43v-0.18c0-0.28-0.17-0.43-0.43-0.43h-3.67v-2.56h3.14
	c0.28,0,0.43-0.17,0.43-0.44v-0.16c0-0.28-0.16-0.43-0.43-0.43h-3.14v-2.72H44.98z M48.84,458h0.62c0.25,0,0.42-0.12,0.52-0.35
	l2-5.17c0.11-0.3-0.01-0.49-0.34-0.49h-0.4c-0.25,0-0.41,0.11-0.5,0.35l-1.6,4.31l-1.6-4.31c-0.1-0.24-0.25-0.35-0.5-0.35h-0.4
	c-0.32,0-0.44,0.19-0.34,0.49l2,5.17C48.42,457.88,48.59,458,48.84,458z M53.99,450.9c0.48,0,0.85-0.36,0.85-0.82
	c0-0.47-0.36-0.84-0.85-0.84c-0.48,0-0.83,0.37-0.83,0.84C53.16,450.54,53.51,450.9,53.99,450.9z M53.82,458h0.36
	c0.28,0,0.43-0.16,0.43-0.43v-5.15c0-0.28-0.16-0.43-0.43-0.43h-0.36c-0.28,0-0.44,0.16-0.44,0.43v5.15
	C53.38,457.84,53.55,458,53.82,458z M59.02,458.13c0.8,0,1.58-0.28,2.15-1.08v0.52c0,0.28,0.17,0.43,0.44,0.43h0.36
	c0.28,0,0.43-0.16,0.43-0.43v-7.81c0-0.28-0.16-0.43-0.43-0.43h-0.36c-0.28,0-0.44,0.16-0.44,0.43v3.18
	c-0.56-0.8-1.34-1.08-2.15-1.08c-1.79,0-2.98,1.4-2.98,3.13S57.23,458.13,59.02,458.13z M59.18,457.05c-1.21,0-1.91-0.94-1.91-2.06
	c0-1.12,0.7-2.06,1.91-2.06c1.19,0,1.99,0.88,2,2.06C61.18,456.18,60.37,457.05,59.18,457.05z M67.18,458.13
	c0.76,0,1.56-0.18,2.26-0.74c0.28-0.23,0.28-0.48,0.08-0.68l-0.08-0.1c-0.19-0.19-0.38-0.2-0.61-0.06c-0.52,0.35-1.04,0.5-1.63,0.5
	c-1.31,0-2.23-0.82-2.2-1.93h4.66c0.29,0,0.46-0.16,0.42-0.44c-0.17-1.92-1.55-2.82-3.06-2.82c-1.87,0-3.24,1.4-3.24,3.16
	C63.77,456.73,65.07,458.13,67.18,458.13z M65.11,454.21c0.37-1.02,1.24-1.3,1.93-1.3c0.66,0,1.5,0.23,1.81,1.3H65.11z M71.82,458
	h0.36c0.28,0,0.43-0.16,0.43-0.43v-2.39c0-1.82,1.25-2.24,1.87-2.24c0.64,0,1.2,0.44,1.2,1.68v2.95c0,0.28,0.16,0.43,0.43,0.43h0.36
	c0.28,0,0.44-0.16,0.44-0.43v-2.96c0-1.88-0.97-2.75-2.3-2.75c-0.97,0-1.74,0.47-2,1.31v-0.74c0-0.28-0.16-0.43-0.43-0.43h-0.36
	c-0.28,0-0.44,0.16-0.44,0.43v5.15C71.38,457.84,71.55,458,71.82,458z M81.6,458.13c0.43,0,1.02-0.07,1.62-0.4
	c0.38-0.19,0.47-0.48,0.3-0.71l-0.08-0.12c-0.16-0.23-0.35-0.25-0.61-0.12c-0.52,0.25-1.03,0.26-1.16,0.26
	c-1.27,0-2.21-0.85-2.21-2.06s0.94-2.05,2.21-2.05c0.13,0,0.65,0.01,1.16,0.26c0.26,0.12,0.44,0.11,0.61-0.12l0.1-0.12
	c0.17-0.23,0.13-0.47-0.12-0.61c-0.68-0.4-1.33-0.49-1.81-0.49c-2.17,0-3.38,1.44-3.38,3.2C78.21,456.78,79.47,458.13,81.6,458.13z
	 M87.84,458.13c0.76,0,1.56-0.18,2.26-0.74c0.28-0.23,0.28-0.48,0.08-0.68l-0.08-0.1c-0.19-0.19-0.38-0.2-0.61-0.06
	c-0.52,0.35-1.04,0.5-1.63,0.5c-1.31,0-2.23-0.82-2.2-1.93h4.66c0.29,0,0.46-0.16,0.42-0.44c-0.17-1.92-1.55-2.82-3.06-2.82
	c-1.87,0-3.24,1.4-3.24,3.16C84.43,456.73,85.73,458.13,87.84,458.13z M85.77,454.21c0.37-1.02,1.24-1.3,1.93-1.3
	c0.66,0,1.5,0.23,1.81,1.3H85.77z M92.43,458.47c0.14,0,0.23-0.07,0.3-0.19l4.33-8.8c0.08-0.18,0.01-0.3-0.18-0.3h-0.67
	c-0.14,0-0.23,0.06-0.29,0.18l-4.33,8.8c-0.08,0.18-0.01,0.31,0.18,0.31H92.43z M99.11,458h0.41c0.28,0,0.43-0.16,0.43-0.43v-7.54
	c0-0.28-0.16-0.43-0.43-0.43h-0.41c-0.28,0-0.43,0.16-0.43,0.43v7.54C98.68,457.84,98.83,458,99.11,458z M102.38,458h0.36
	c0.28,0,0.43-0.16,0.43-0.43v-2.39c0-1.82,1.25-2.24,1.87-2.24c0.64,0,1.2,0.44,1.2,1.68v2.95c0,0.28,0.16,0.43,0.43,0.43h0.36
	c0.28,0,0.44-0.16,0.44-0.43v-2.96c0-1.88-0.97-2.75-2.3-2.75c-0.97,0-1.74,0.47-2,1.31v-0.74c0-0.28-0.16-0.43-0.43-0.43h-0.36
	c-0.28,0-0.44,0.16-0.44,0.43v5.15C101.94,457.84,102.11,458,102.38,458z M109.95,458h0.4c0.28,0,0.43-0.16,0.43-0.43v-4.62h1.31
	c0.16,0,0.24-0.1,0.24-0.25v-0.46c0-0.16-0.08-0.25-0.24-0.25h-1.31v-0.65c0-0.66,0.26-1.08,0.82-1.08c0.37,0,0.68,0.2,0.68,0.5
	v0.08c0,0.14,0.12,0.22,0.25,0.22h0.59c0.1,0,0.19-0.05,0.22-0.13c0.01-0.05,0.02-0.13,0.02-0.2c0-0.88-0.66-1.52-1.84-1.52
	c-0.95,0-2,0.41-2,2.34v0.44h-0.7c-0.16,0-0.24,0.1-0.24,0.25v0.46c0,0.16,0.08,0.25,0.24,0.25h0.7v4.62
	C109.52,457.84,109.68,458,109.95,458z M116.04,458.13c1.76,0,3.19-1.4,3.19-3.14c0-1.72-1.43-3.13-3.19-3.13
	c-1.75,0-3.17,1.4-3.17,3.13C112.87,456.74,114.29,458.13,116.04,458.13z M116.04,457.05c-1.07,0-1.94-0.91-1.94-2.05
	s0.88-2.06,1.94-2.06c1.09,0,1.96,0.92,1.96,2.06S117.13,457.05,116.04,457.05z M121.04,458h0.36c0.28,0,0.43-0.16,0.43-0.43v-1.86
	c0-2.46,1.08-2.68,1.51-2.68c0.11,0,0.22,0.01,0.32,0.04c0.2,0.05,0.32-0.07,0.32-0.37v-0.35c0-0.24-0.04-0.44-0.29-0.48l-0.26-0.01
	c-0.72,0-1.4,0.52-1.61,1.48v-0.91c0-0.28-0.16-0.43-0.43-0.43h-0.36c-0.28,0-0.44,0.16-0.44,0.43v5.15
	C120.6,457.84,120.76,458,121.04,458z M125.48,458h0.36c0.28,0,0.43-0.16,0.43-0.43v-2.39c0-1.82,1.03-2.24,1.64-2.24
	c0.64,0,1.19,0.44,1.19,1.67v2.96c0,0.28,0.17,0.43,0.44,0.43h0.36c0.28,0,0.43-0.16,0.43-0.43v-2.52c0.06-1.76,1.09-2.11,1.64-2.11
	c0.64,0,1.19,0.44,1.19,1.67v2.96c0,0.28,0.17,0.43,0.44,0.43h0.36c0.28,0,0.43-0.16,0.43-0.43v-2.96c0-1.88-0.88-2.75-2.3-2.75
	c-0.72,0-1.54,0.2-2.04,1.24c-0.46-1.04-1.31-1.24-1.9-1.24c-0.88,0-1.64,0.44-1.9,1.31v-0.74c0-0.28-0.16-0.43-0.43-0.43h-0.36
	c-0.28,0-0.44,0.16-0.44,0.43v5.15C125.04,457.84,125.21,458,125.48,458z"/>
<path class="st3" d="M72.88,309.5h125c1.93,0,3.5,1.57,3.5,3.5v20c0,1.93-1.57,3.5-3.5,3.5h-125c-1.93,0-3.5-1.57-3.5-3.5v-20
	C69.38,311.07,70.95,309.5,72.88,309.5z"/>
<path d="M99,327h3.09c3.57,0,5.76-2.51,5.76-5.6c0-3.09-2.19-5.6-5.76-5.6H99c-0.37,0-0.58,0.21-0.58,0.58v10.05
	C98.42,326.79,98.63,327,99,327z M100.12,325.61v-8.42h1.94c2.51,0,4.06,1.87,4.06,4.21s-1.55,4.21-4.06,4.21H100.12z M113.4,327.18
	c2.35,0,4.26-1.87,4.26-4.19c0-2.29-1.9-4.18-4.26-4.18c-2.34,0-4.22,1.87-4.22,4.18C109.18,325.32,111.07,327.18,113.4,327.18z
	 M113.4,325.74c-1.42,0-2.59-1.22-2.59-2.74s1.17-2.75,2.59-2.75c1.46,0,2.61,1.23,2.61,2.75S114.86,325.74,113.4,325.74z
	 M123.41,327.18c0.58,0,1.36-0.1,2.16-0.53c0.51-0.26,0.62-0.64,0.4-0.94l-0.11-0.16c-0.21-0.3-0.46-0.34-0.82-0.16
	c-0.69,0.34-1.38,0.35-1.55,0.35c-1.7,0-2.94-1.14-2.94-2.75s1.25-2.74,2.94-2.74c0.18,0,0.86,0.02,1.55,0.35
	c0.35,0.16,0.59,0.14,0.82-0.16l0.13-0.16c0.22-0.3,0.18-0.62-0.16-0.82c-0.91-0.53-1.78-0.66-2.42-0.66c-2.9,0-4.51,1.92-4.51,4.27
	C118.9,325.37,120.58,327.18,123.41,327.18z M130.9,327.18c1.3,0,2.32-0.62,2.67-1.74v0.99c0,0.37,0.21,0.58,0.58,0.58h0.48
	c0.37,0,0.59-0.21,0.59-0.58v-6.86c0-0.37-0.22-0.58-0.59-0.58h-0.48c-0.37,0-0.58,0.21-0.58,0.58v3.18c0,2.42-1.66,2.99-2.5,2.99
	c-0.85,0-1.58-0.61-1.58-2.24v-3.94c0-0.37-0.22-0.58-0.59-0.58h-0.48c-0.37,0-0.58,0.21-0.58,0.58v3.95
	C127.85,326.02,129.13,327.18,130.9,327.18z M138.21,327h0.48c0.37,0,0.58-0.21,0.58-0.58v-3.18c0-2.43,1.38-2.99,2.19-2.99
	c0.85,0,1.58,0.59,1.58,2.22v3.95c0,0.37,0.22,0.58,0.59,0.58h0.48c0.37,0,0.58-0.21,0.58-0.58v-3.36c0.08-2.35,1.46-2.82,2.19-2.82
	c0.85,0,1.58,0.59,1.58,2.22v3.95c0,0.37,0.22,0.58,0.59,0.58h0.48c0.37,0,0.58-0.21,0.58-0.58v-3.95c0-2.51-1.17-3.66-3.07-3.66
	c-0.96,0-2.05,0.27-2.72,1.65c-0.61-1.39-1.74-1.65-2.53-1.65c-1.17,0-2.19,0.59-2.53,1.74v-0.99c0-0.37-0.21-0.58-0.58-0.58h-0.48
	c-0.37,0-0.59,0.21-0.59,0.58v6.86C137.61,326.79,137.84,327,138.21,327z M156.36,327.18c1.01,0,2.08-0.24,3.01-0.99
	c0.37-0.3,0.37-0.64,0.11-0.91l-0.11-0.13c-0.26-0.26-0.51-0.27-0.82-0.08c-0.69,0.46-1.39,0.67-2.18,0.67
	c-1.74,0-2.98-1.09-2.93-2.58h6.21c0.38,0,0.61-0.21,0.56-0.59c-0.22-2.56-2.06-3.76-4.08-3.76c-2.5,0-4.32,1.87-4.32,4.21
	C151.82,325.3,153.55,327.18,156.36,327.18z M153.6,321.94c0.5-1.36,1.65-1.73,2.58-1.73c0.88,0,2,0.3,2.42,1.73H153.6z M162.55,327
	h0.48c0.37,0,0.58-0.21,0.58-0.58v-3.18c0-2.43,1.66-2.99,2.5-2.99c0.85,0,1.6,0.59,1.6,2.24v3.94c0,0.37,0.21,0.58,0.58,0.58h0.48
	c0.37,0,0.59-0.21,0.59-0.58v-3.95c0-2.51-1.3-3.66-3.07-3.66c-1.3,0-2.32,0.62-2.67,1.74v-0.99c0-0.37-0.21-0.58-0.58-0.58h-0.48
	c-0.37,0-0.59,0.21-0.59,0.58v6.86C161.96,326.79,162.18,327,162.55,327z M174.5,327.18c1.54,0,2.4-0.88,2.4-2.08
	c0-0.02,0-0.32-0.06-0.59c-0.03-0.21-0.18-0.29-0.37-0.29h-0.74c-0.22,0-0.32,0.14-0.29,0.37c0.03,0.13,0.03,0.24,0.03,0.3
	c0,0.58-0.45,0.86-0.94,0.86c-0.51,0-0.93-0.34-0.93-1.2v-4.29h2.19c0.21,0,0.32-0.13,0.32-0.34v-0.62c0-0.21-0.11-0.32-0.32-0.32
	h-2.19v-1.81c0-0.3-0.18-0.5-0.48-0.5h-0.34c-0.29,0-0.46,0.16-0.51,0.46l-0.29,1.84h-1.01c-0.21,0-0.32,0.11-0.32,0.32v0.62
	c0,0.21,0.11,0.34,0.32,0.34h0.98v4.19C171.95,326.52,173.22,327.18,174.5,327.18z M183.42,327h3.09c3.57,0,5.76-2.51,5.76-5.6
	c0-3.09-2.19-5.6-5.76-5.6h-3.09c-0.37,0-0.58,0.21-0.58,0.58v10.05C182.84,326.79,183.05,327,183.42,327z M184.54,325.61v-8.42
	h1.94c2.51,0,4.06,1.87,4.06,4.21s-1.55,4.21-4.06,4.21H184.54z"/>
<path class="st4" d="M74.98,297.64c0.26,0,0.43-0.16,0.43-0.43v-0.18c0-0.28-0.17-0.43-0.43-0.43h-4.51c-0.28,0-0.43,0.16-0.43,0.43
	v7.54c0,0.28,0.16,0.43,0.43,0.43h4.51c0.26,0,0.43-0.16,0.43-0.43v-0.18c0-0.28-0.17-0.43-0.43-0.43h-3.67v-2.56h3.14
	c0.28,0,0.43-0.17,0.43-0.44v-0.16c0-0.28-0.16-0.43-0.43-0.43h-3.14v-2.72H74.98z M78.84,305h0.62c0.25,0,0.42-0.12,0.52-0.35
	l2-5.17c0.11-0.3-0.01-0.49-0.34-0.49h-0.4c-0.25,0-0.41,0.11-0.5,0.35l-1.6,4.31l-1.6-4.31c-0.1-0.24-0.25-0.35-0.5-0.35h-0.4
	c-0.32,0-0.44,0.19-0.34,0.49l2,5.17C78.42,304.88,78.59,305,78.84,305z M83.99,297.9c0.48,0,0.85-0.36,0.85-0.82
	c0-0.47-0.36-0.84-0.85-0.84c-0.48,0-0.83,0.37-0.83,0.84C83.16,297.54,83.51,297.9,83.99,297.9z M83.82,305h0.36
	c0.28,0,0.43-0.16,0.43-0.43v-5.15c0-0.28-0.16-0.43-0.43-0.43h-0.36c-0.28,0-0.44,0.16-0.44,0.43v5.15
	C83.38,304.84,83.55,305,83.82,305z M89.02,305.13c0.8,0,1.58-0.28,2.15-1.08v0.52c0,0.28,0.17,0.43,0.44,0.43h0.36
	c0.28,0,0.43-0.16,0.43-0.43v-7.81c0-0.28-0.16-0.43-0.43-0.43h-0.36c-0.28,0-0.44,0.16-0.44,0.43v3.18
	c-0.56-0.8-1.34-1.08-2.15-1.08c-1.79,0-2.98,1.4-2.98,3.13S87.23,305.13,89.02,305.13z M89.18,304.05c-1.21,0-1.91-0.94-1.91-2.06
	c0-1.12,0.7-2.06,1.91-2.06c1.19,0,1.99,0.88,2,2.06C91.18,303.18,90.37,304.05,89.18,304.05z M97.18,305.13
	c0.76,0,1.56-0.18,2.26-0.74c0.28-0.23,0.28-0.48,0.08-0.68l-0.08-0.1c-0.19-0.19-0.38-0.2-0.61-0.06c-0.52,0.35-1.04,0.5-1.63,0.5
	c-1.31,0-2.23-0.82-2.2-1.93h4.66c0.29,0,0.46-0.16,0.42-0.44c-0.17-1.92-1.55-2.82-3.06-2.82c-1.87,0-3.24,1.4-3.24,3.16
	C93.77,303.73,95.07,305.13,97.18,305.13z M95.11,301.21c0.37-1.02,1.24-1.3,1.93-1.3c0.66,0,1.5,0.23,1.81,1.3H95.11z M101.82,305
	h0.36c0.28,0,0.43-0.16,0.43-0.43v-2.39c0-1.82,1.25-2.24,1.87-2.24c0.64,0,1.2,0.44,1.2,1.68v2.95c0,0.28,0.16,0.43,0.43,0.43h0.36
	c0.28,0,0.44-0.16,0.44-0.43v-2.96c0-1.88-0.97-2.75-2.3-2.75c-0.97,0-1.74,0.47-2,1.31v-0.74c0-0.28-0.16-0.43-0.43-0.43h-0.36
	c-0.28,0-0.44,0.16-0.44,0.43v5.15C101.38,304.84,101.55,305,101.82,305z M111.59,305.13c0.43,0,1.02-0.07,1.62-0.4
	c0.38-0.19,0.47-0.48,0.3-0.71l-0.08-0.12c-0.16-0.23-0.35-0.25-0.61-0.12c-0.52,0.25-1.03,0.26-1.16,0.26
	c-1.27,0-2.21-0.85-2.21-2.06s0.94-2.05,2.21-2.05c0.13,0,0.65,0.01,1.16,0.26c0.26,0.12,0.44,0.11,0.61-0.12l0.1-0.12
	c0.17-0.23,0.13-0.47-0.12-0.61c-0.68-0.4-1.33-0.49-1.81-0.49c-2.17,0-3.38,1.44-3.38,3.2
	C108.21,303.78,109.47,305.13,111.59,305.13z M117.84,305.13c0.76,0,1.56-0.18,2.26-0.74c0.28-0.23,0.28-0.48,0.08-0.68l-0.08-0.1
	c-0.19-0.19-0.38-0.2-0.61-0.06c-0.52,0.35-1.04,0.5-1.63,0.5c-1.31,0-2.23-0.82-2.2-1.93h4.66c0.29,0,0.46-0.16,0.42-0.44
	c-0.17-1.92-1.55-2.82-3.06-2.82c-1.87,0-3.24,1.4-3.24,3.16C114.43,303.73,115.73,305.13,117.84,305.13z M115.77,301.21
	c0.37-1.02,1.24-1.3,1.93-1.3c0.66,0,1.5,0.23,1.81,1.3H115.77z M122.43,305.47c0.14,0,0.23-0.07,0.3-0.19l4.33-8.8
	c0.08-0.18,0.01-0.3-0.18-0.3h-0.67c-0.14,0-0.23,0.06-0.29,0.18l-4.33,8.8c-0.08,0.18-0.01,0.31,0.18,0.31H122.43z M131.02,305.13
	c1.75,0,2.95-0.94,2.95-2.45c0-0.9-0.65-1.84-2.06-2.28l-1.25-0.47c-0.96-0.36-1.07-0.82-1.07-1.16c0-0.74,0.66-1.18,1.45-1.18
	c0.7,0,1.21,0.26,1.49,0.82c0.12,0.25,0.29,0.35,0.55,0.28l0.3-0.1c0.26-0.07,0.4-0.28,0.29-0.54c-0.38-0.95-1.32-1.58-2.64-1.58
	c-1.45,0-2.72,0.89-2.72,2.34c0,0.78,0.38,1.73,1.97,2.26l1.25,0.42c0.68,0.25,1.21,0.65,1.21,1.28c0,0.72-0.66,1.25-1.74,1.25
	c-0.84,0-1.48-0.41-1.78-0.92c-0.13-0.25-0.28-0.35-0.54-0.29l-0.35,0.08c-0.26,0.07-0.41,0.28-0.29,0.54
	C128.47,304.41,129.53,305.13,131.02,305.13z M137.55,305.13c0.97,0,1.74-0.47,2-1.31v0.74c0,0.28,0.16,0.43,0.43,0.43h0.36
	c0.28,0,0.44-0.16,0.44-0.43v-5.15c0-0.28-0.17-0.43-0.44-0.43h-0.36c-0.28,0-0.43,0.16-0.43,0.43v2.39c0,1.81-1.25,2.24-1.87,2.24
	c-0.64,0-1.19-0.46-1.19-1.68v-2.95c0-0.28-0.17-0.43-0.44-0.43h-0.36c-0.28,0-0.43,0.16-0.43,0.43v2.96
	C135.25,304.27,136.21,305.13,137.55,305.13z M143.02,307.69h0.36c0.28,0,0.43-0.16,0.43-0.43v-3.2c0.56,0.8,1.36,1.08,2.16,1.08
	c1.79,0,2.98-1.42,2.98-3.14s-1.19-3.13-2.98-3.13c-0.8,0-1.6,0.28-2.16,1.08v-0.52c0-0.28-0.16-0.43-0.43-0.43h-0.36
	c-0.28,0-0.44,0.16-0.44,0.43v7.84C142.58,307.53,142.75,307.69,143.02,307.69z M145.8,304.05c-1.18,0-1.99-0.88-2-2.06
	c0.01-1.19,0.83-2.06,2-2.06c1.22,0,1.92,0.95,1.92,2.06C147.72,303.12,147.02,304.05,145.8,304.05z M150.76,307.69h0.36
	c0.28,0,0.43-0.16,0.43-0.43v-3.2c0.56,0.8,1.36,1.08,2.16,1.08c1.79,0,2.98-1.42,2.98-3.14s-1.19-3.13-2.98-3.13
	c-0.8,0-1.6,0.28-2.16,1.08v-0.52c0-0.28-0.16-0.43-0.43-0.43h-0.36c-0.28,0-0.44,0.16-0.44,0.43v7.84
	C150.31,307.53,150.48,307.69,150.76,307.69z M153.53,304.05c-1.18,0-1.99-0.88-2-2.06c0.01-1.19,0.83-2.06,2-2.06
	c1.22,0,1.92,0.95,1.92,2.06C155.45,303.12,154.75,304.05,153.53,304.05z M160.77,305.13c1.76,0,3.19-1.4,3.19-3.14
	c0-1.72-1.43-3.13-3.19-3.13c-1.75,0-3.17,1.4-3.17,3.13C157.61,303.74,159.02,305.13,160.77,305.13z M160.77,304.05
	c-1.07,0-1.94-0.91-1.94-2.05s0.88-2.06,1.94-2.06c1.09,0,1.96,0.92,1.96,2.06S161.87,304.05,160.77,304.05z M165.77,305h0.36
	c0.28,0,0.43-0.16,0.43-0.43v-1.86c0-2.46,1.08-2.68,1.51-2.68c0.11,0,0.22,0.01,0.32,0.04c0.2,0.05,0.32-0.07,0.32-0.37v-0.35
	c0-0.24-0.04-0.44-0.29-0.48l-0.26-0.01c-0.72,0-1.4,0.52-1.61,1.48v-0.91c0-0.28-0.16-0.43-0.43-0.43h-0.36
	c-0.28,0-0.44,0.16-0.44,0.43v5.15C165.33,304.84,165.49,305,165.77,305z M171.98,305.13c1.15,0,1.8-0.66,1.8-1.56
	c0-0.01,0-0.24-0.05-0.44c-0.02-0.16-0.13-0.22-0.28-0.22h-0.55c-0.17,0-0.24,0.11-0.22,0.28c0.02,0.1,0.02,0.18,0.02,0.23
	c0,0.43-0.34,0.65-0.71,0.65c-0.38,0-0.7-0.25-0.7-0.9v-3.22h1.64c0.16,0,0.24-0.1,0.24-0.25v-0.47c0-0.16-0.08-0.24-0.24-0.24
	h-1.64v-1.36c0-0.23-0.13-0.37-0.36-0.37h-0.25c-0.22,0-0.35,0.12-0.38,0.35l-0.22,1.38h-0.76c-0.16,0-0.24,0.08-0.24,0.24v0.47
	c0,0.16,0.08,0.25,0.24,0.25h0.73v3.14C170.07,304.64,171.02,305.13,171.98,305.13z"/>
<path d="M252.09,222.89h-3.27l-0.66,2.11h-1.03l2.69-8.26h1.33l2.69,8.26h-1.09L252.09,222.89z M249.09,222.03h2.73l-1.36-4.42
	L249.09,222.03z M258.14,224.27c0.32,0,0.61-0.05,0.88-0.16c0.28-0.1,0.53-0.24,0.76-0.4l0.49,0.66c-0.28,0.24-0.61,0.42-1,0.56
	s-0.77,0.2-1.14,0.2c-0.63,0-1.16-0.13-1.61-0.4c-0.44-0.27-0.78-0.65-1.01-1.14c-0.23-0.49-0.35-1.07-0.35-1.73
	c0-0.63,0.12-1.2,0.35-1.7c0.24-0.5,0.57-0.9,1.01-1.19c0.44-0.29,0.98-0.43,1.61-0.43c0.4,0,0.78,0.06,1.13,0.19
	c0.36,0.12,0.68,0.3,0.98,0.55l-0.49,0.67c-0.27-0.19-0.54-0.33-0.81-0.42c-0.27-0.1-0.54-0.14-0.82-0.14
	c-0.54,0-0.99,0.2-1.34,0.61c-0.35,0.41-0.53,1.03-0.53,1.87c0,0.56,0.08,1.02,0.24,1.37c0.16,0.35,0.39,0.61,0.67,0.78
	C257.46,224.19,257.78,224.27,258.14,224.27z M267.5,224.68c-0.22,0.14-0.48,0.26-0.79,0.34c-0.31,0.08-0.61,0.12-0.91,0.12
	c-0.68,0-1.2-0.18-1.57-0.53s-0.55-0.81-0.55-1.37v-3.77h-1.45v-0.78h1.45v-1.43l1.01-0.12v1.55h2.18l-0.12,0.78h-2.06v3.76
	c0,0.35,0.09,0.62,0.28,0.8c0.19,0.18,0.5,0.28,0.93,0.28c0.24,0,0.45-0.03,0.65-0.08c0.2-0.06,0.39-0.13,0.56-0.22L267.5,224.68z
	 M272.87,218.68v5.52h1.78v0.8h-4.74v-0.8h1.95v-4.72h-1.89v-0.8H272.87z M272.07,215.72c0.22,0,0.4,0.07,0.53,0.2
	c0.14,0.14,0.2,0.3,0.2,0.5c0,0.2-0.07,0.38-0.2,0.52c-0.13,0.14-0.31,0.2-0.53,0.2c-0.21,0-0.39-0.07-0.52-0.2
	c-0.14-0.14-0.2-0.31-0.2-0.52c0-0.2,0.07-0.36,0.2-0.5C271.68,215.79,271.86,215.72,272.07,215.72z M282.14,218.68l-2.3,6.32h-1.17
	l-2.28-6.32h1.07l1.83,5.4l1.81-5.4H282.14z M284.86,222.2c0.02,0.49,0.11,0.89,0.28,1.2c0.17,0.31,0.39,0.54,0.67,0.68
	c0.28,0.14,0.58,0.22,0.9,0.22s0.62-0.05,0.88-0.14c0.26-0.1,0.53-0.24,0.81-0.43l0.47,0.67c-0.3,0.23-0.63,0.41-1.01,0.55
	c-0.38,0.13-0.76,0.2-1.16,0.2c-0.61,0-1.13-0.14-1.57-0.41s-0.76-0.66-0.99-1.15c-0.22-0.5-0.34-1.07-0.34-1.72
	c0-0.64,0.11-1.21,0.34-1.7c0.23-0.5,0.55-0.89,0.96-1.17c0.41-0.28,0.9-0.43,1.46-0.43c0.53,0,0.99,0.13,1.37,0.38
	c0.38,0.25,0.68,0.6,0.88,1.07c0.21,0.46,0.31,1.01,0.31,1.65c0,0.11,0,0.21-0.01,0.31c0,0.09-0.01,0.17-0.02,0.25H284.86z
	 M286.57,219.38c-0.47,0-0.86,0.17-1.18,0.5c-0.31,0.33-0.49,0.85-0.53,1.54h3.29c-0.01-0.68-0.16-1.18-0.44-1.52
	C287.43,219.55,287.05,219.38,286.57,219.38z M298.46,225v-6.32h0.86l0.08,0.88c0.26-0.32,0.58-0.57,0.96-0.74
	c0.39-0.18,0.76-0.26,1.13-0.26c0.62,0,1.07,0.16,1.35,0.49c0.28,0.33,0.43,0.78,0.43,1.37V225h-1.01v-3.85
	c0-0.43-0.02-0.78-0.07-1.04c-0.05-0.27-0.15-0.46-0.3-0.58c-0.15-0.12-0.39-0.19-0.71-0.19c-0.25,0-0.48,0.05-0.7,0.16
	c-0.22,0.11-0.41,0.24-0.58,0.41c-0.17,0.16-0.31,0.32-0.42,0.49v4.6H298.46z M308.06,218.55c0.6,0,1.09,0.14,1.49,0.41
	c0.4,0.27,0.71,0.65,0.91,1.14c0.2,0.49,0.31,1.07,0.31,1.74c0,0.64-0.1,1.21-0.31,1.71s-0.51,0.89-0.92,1.17
	c-0.4,0.28-0.9,0.42-1.49,0.42c-0.59,0-1.09-0.14-1.49-0.41s-0.71-0.65-0.92-1.15c-0.2-0.5-0.31-1.07-0.31-1.73
	c0-0.65,0.11-1.23,0.31-1.72c0.21-0.5,0.51-0.88,0.92-1.16C306.97,218.69,307.47,218.55,308.06,218.55z M308.06,219.37
	c-0.54,0-0.96,0.2-1.24,0.61c-0.28,0.4-0.41,1.02-0.41,1.87c0,0.83,0.14,1.45,0.41,1.85c0.28,0.4,0.69,0.61,1.23,0.61
	s0.95-0.2,1.22-0.61c0.28-0.4,0.41-1.03,0.41-1.87s-0.14-1.46-0.41-1.86C309,219.57,308.6,219.37,308.06,219.37z M317.86,224.68
	c-0.22,0.14-0.48,0.26-0.79,0.34s-0.61,0.12-0.91,0.12c-0.68,0-1.2-0.18-1.57-0.53s-0.55-0.81-0.55-1.37v-3.77h-1.45v-0.78h1.45
	v-1.43l1.01-0.12v1.55h2.18l-0.12,0.78h-2.06v3.76c0,0.35,0.09,0.62,0.28,0.8c0.19,0.18,0.5,0.28,0.93,0.28
	c0.24,0,0.45-0.03,0.65-0.08c0.2-0.06,0.39-0.13,0.56-0.22L317.86,224.68z M320.83,222.2c0.02,0.49,0.11,0.89,0.28,1.2
	c0.17,0.31,0.39,0.54,0.67,0.68c0.28,0.14,0.58,0.22,0.9,0.22c0.32,0,0.62-0.05,0.88-0.14c0.26-0.1,0.53-0.24,0.81-0.43l0.47,0.67
	c-0.3,0.23-0.63,0.41-1.01,0.55c-0.38,0.13-0.76,0.2-1.16,0.2c-0.61,0-1.13-0.14-1.57-0.41s-0.76-0.66-0.99-1.15
	c-0.22-0.5-0.34-1.07-0.34-1.72c0-0.64,0.11-1.21,0.34-1.7s0.55-0.89,0.96-1.17c0.41-0.28,0.9-0.43,1.46-0.43
	c0.53,0,0.99,0.13,1.37,0.38c0.38,0.25,0.68,0.6,0.88,1.07c0.21,0.46,0.31,1.01,0.31,1.65c0,0.11,0,0.21-0.01,0.31
	c0,0.09-0.01,0.17-0.02,0.25H320.83z M322.55,219.38c-0.47,0-0.86,0.17-1.18,0.5c-0.31,0.33-0.49,0.85-0.53,1.54h3.29
	c-0.01-0.68-0.16-1.18-0.44-1.52C323.41,219.55,323.03,219.38,322.55,219.38z"/>
<path class="st6" d="M208.18,320.29c0.19-0.19,0.44-0.29,0.71-0.29s0.52,0.11,0.71,0.29l3.29,3.29l3.29-3.29
	c0.09-0.1,0.2-0.17,0.32-0.22c0.12-0.05,0.25-0.08,0.39-0.08c0.13,0,0.26,0.02,0.39,0.07c0.12,0.05,0.24,0.12,0.33,0.22
	c0.09,0.09,0.17,0.2,0.22,0.33c0.05,0.12,0.07,0.26,0.07,0.39c0,0.13-0.03,0.26-0.08,0.39c-0.05,0.12-0.13,0.23-0.22,0.33l-4,4
	c-0.19,0.19-0.44,0.29-0.71,0.29s-0.52-0.11-0.71-0.29l-4-4c-0.19-0.19-0.29-0.44-0.29-0.71S207.99,320.48,208.18,320.29
	L208.18,320.29z"/>
<path class="st6" d="M222.18,218.29c0.19-0.19,0.44-0.29,0.71-0.29s0.52,0.11,0.71,0.29l3.29,3.29l3.29-3.29
	c0.09-0.1,0.2-0.17,0.32-0.22c0.12-0.05,0.25-0.08,0.39-0.08c0.13,0,0.26,0.02,0.39,0.07s0.24,0.12,0.33,0.22
	c0.09,0.09,0.17,0.2,0.22,0.33s0.07,0.26,0.07,0.39c0,0.13-0.03,0.26-0.08,0.39c-0.05,0.12-0.13,0.23-0.22,0.32l-4,4
	c-0.19,0.19-0.44,0.29-0.71,0.29s-0.52-0.11-0.71-0.29l-4-4c-0.19-0.19-0.29-0.44-0.29-0.71S221.99,218.48,222.18,218.29
	L222.18,218.29z"/>
<path class="st6" d="M179.18,167.29c0.19-0.19,0.44-0.29,0.71-0.29s0.52,0.11,0.71,0.29l3.29,3.29l3.29-3.29
	c0.09-0.1,0.2-0.17,0.32-0.22c0.12-0.05,0.25-0.08,0.39-0.08c0.13,0,0.26,0.02,0.39,0.07s0.24,0.12,0.33,0.22
	c0.09,0.09,0.17,0.2,0.22,0.33s0.07,0.26,0.07,0.39c0,0.13-0.03,0.26-0.08,0.39c-0.05,0.12-0.13,0.23-0.22,0.32l-4,4
	c-0.19,0.19-0.44,0.29-0.71,0.29s-0.52-0.11-0.71-0.29l-4-4c-0.19-0.19-0.29-0.44-0.29-0.71S178.99,167.48,179.18,167.29
	L179.18,167.29z"/>
<path class="st6" d="M181.18,123.71c-0.19-0.19-0.29-0.44-0.29-0.71s0.11-0.52,0.29-0.71l3.29-3.29l-3.29-3.29
	c-0.18-0.19-0.28-0.44-0.28-0.7c0-0.26,0.11-0.51,0.29-0.7c0.19-0.18,0.44-0.29,0.7-0.29c0.26,0,0.51,0.1,0.7,0.28l4,4
	c0.19,0.19,0.29,0.44,0.29,0.71s-0.1,0.52-0.29,0.71l-4,4c-0.19,0.19-0.44,0.29-0.71,0.29S181.36,123.89,181.18,123.71z"/>
<path class="st6" d="M59.88,111c0-0.17-0.04-0.34-0.13-0.49c-0.08-0.15-0.2-0.27-0.35-0.36c-0.15-0.09-0.31-0.14-0.48-0.15
	c-0.17-0.01-0.34,0.03-0.49,0.1L50.65,114h-3.76c-0.8,0-1.56,0.32-2.12,0.88c-0.56,0.56-0.88,1.33-0.88,2.12s0.32,1.56,0.88,2.12
	c0.56,0.56,1.33,0.88,2.12,0.88h0.28l1.77,5.32c0.07,0.2,0.19,0.37,0.36,0.49c0.17,0.12,0.38,0.19,0.58,0.19h1
	c0.27,0,0.52-0.11,0.71-0.29c0.19-0.19,0.29-0.44,0.29-0.71v-4.38l6.55,3.28c0.15,0.08,0.32,0.11,0.49,0.1
	c0.17-0.01,0.34-0.06,0.48-0.15c0.15-0.09,0.26-0.21,0.35-0.36c0.08-0.15,0.13-0.32,0.13-0.49V111z"/>
<path class="st6" d="M59.88,162c0-0.17-0.04-0.34-0.13-0.49c-0.08-0.15-0.2-0.27-0.35-0.36c-0.15-0.09-0.31-0.14-0.48-0.15
	c-0.17-0.01-0.34,0.03-0.49,0.1L50.65,165h-3.76c-0.8,0-1.56,0.32-2.12,0.88c-0.56,0.56-0.88,1.32-0.88,2.12s0.32,1.56,0.88,2.12
	c0.56,0.56,1.33,0.88,2.12,0.88h0.28l1.77,5.32c0.07,0.2,0.19,0.37,0.36,0.5c0.17,0.12,0.38,0.19,0.58,0.19h1
	c0.27,0,0.52-0.1,0.71-0.29c0.19-0.19,0.29-0.44,0.29-0.71v-4.38l6.55,3.28c0.15,0.08,0.32,0.11,0.49,0.1
	c0.17-0.01,0.34-0.06,0.48-0.15c0.15-0.09,0.26-0.21,0.35-0.36c0.08-0.15,0.13-0.32,0.13-0.49V162z"/>
<path class="st4" d="M111.88,419.8c-1.09-0.53-2.29-0.81-3.5-0.8c-1.25,0-2.44,0.29-3.5,0.8v10c1.09-0.53,2.29-0.81,3.5-0.8
	c1.67,0,3.22,0.51,4.5,1.39c1.33-0.9,2.89-1.39,4.5-1.39c1.25,0,2.44,0.29,3.5,0.8v-10c-1.09-0.53-2.29-0.81-3.5-0.8
	c-1.25,0-2.44,0.29-3.5,0.8v7.2c0,0.27-0.11,0.52-0.29,0.71c-0.19,0.19-0.44,0.29-0.71,0.29s-0.52-0.11-0.71-0.29
	c-0.19-0.19-0.29-0.44-0.29-0.71V419.8z"/>
<path class="st4" d="M111.88,368.8c-1.09-0.53-2.29-0.81-3.5-0.8c-1.25,0-2.44,0.29-3.5,0.8v10c1.09-0.53,2.29-0.81,3.5-0.8
	c1.67,0,3.22,0.51,4.5,1.39c1.33-0.9,2.89-1.39,4.5-1.39c1.25,0,2.44,0.29,3.5,0.8v-10c-1.09-0.53-2.29-0.81-3.5-0.8
	c-1.25,0-2.44,0.29-3.5,0.8v7.2c0,0.27-0.11,0.52-0.29,0.71c-0.19,0.19-0.44,0.29-0.71,0.29s-0.52-0.11-0.71-0.29
	c-0.19-0.19-0.29-0.44-0.29-0.71V368.8z"/>
<path class="st4" d="M111.88,266.8c-1.09-0.53-2.29-0.81-3.5-0.8c-1.25,0-2.44,0.29-3.5,0.8v10c1.09-0.53,2.29-0.81,3.5-0.8
	c1.67,0,3.22,0.51,4.5,1.39c1.33-0.9,2.89-1.39,4.5-1.39c1.25,0,2.44,0.29,3.5,0.8v-10c-1.09-0.53-2.29-0.81-3.5-0.8
	c-1.25,0-2.44,0.29-3.5,0.8v7.2c0,0.27-0.11,0.52-0.29,0.71c-0.19,0.19-0.44,0.29-0.71,0.29s-0.52-0.11-0.71-0.29
	c-0.19-0.19-0.29-0.44-0.29-0.71V266.8z"/>
<path class="st6" d="M52.18,467.05c0.2,0.06,0.38,0.19,0.51,0.36c0.13,0.17,0.19,0.38,0.19,0.59v5h4c0.18,0,0.36,0.05,0.52,0.14
	c0.16,0.1,0.28,0.23,0.37,0.39c0.08,0.16,0.12,0.34,0.11,0.53c-0.01,0.18-0.07,0.36-0.18,0.51l-7,10c-0.12,0.17-0.3,0.31-0.5,0.37
	c-0.2,0.07-0.42,0.07-0.62,0.01c-0.2-0.06-0.38-0.19-0.51-0.36c-0.13-0.17-0.19-0.38-0.19-0.59v-5h-4c-0.18,0-0.36-0.05-0.52-0.14
	c-0.16-0.1-0.28-0.23-0.37-0.39c-0.08-0.16-0.12-0.34-0.11-0.53c0.01-0.18,0.07-0.36,0.18-0.51l7-10c0.12-0.17,0.3-0.3,0.5-0.37
	C51.76,466.98,51.98,466.98,52.18,467.05L52.18,467.05z"/>
<path class="st6" d="M84.18,313.05c0.2,0.06,0.38,0.19,0.51,0.36c0.13,0.17,0.19,0.38,0.19,0.59v5h4c0.18,0,0.36,0.05,0.52,0.14
	c0.16,0.1,0.28,0.23,0.37,0.39c0.08,0.16,0.12,0.34,0.11,0.53c-0.01,0.18-0.07,0.36-0.18,0.51l-7,10c-0.12,0.17-0.3,0.31-0.5,0.37
	c-0.2,0.07-0.42,0.07-0.62,0.01c-0.2-0.06-0.38-0.19-0.51-0.36c-0.13-0.17-0.19-0.38-0.19-0.59v-5h-4c-0.18,0-0.36-0.05-0.52-0.14
	c-0.16-0.1-0.28-0.23-0.37-0.39c-0.08-0.16-0.12-0.34-0.11-0.53c0.01-0.18,0.07-0.36,0.18-0.51l7-10c0.12-0.17,0.3-0.3,0.5-0.37
	C83.76,312.98,83.98,312.98,84.18,313.05L84.18,313.05z"/>
<path class="st2" d="M84.18,212.05c0.2,0.06,0.38,0.19,0.51,0.36c0.13,0.17,0.19,0.38,0.19,0.59v5h4c0.18,0,0.36,0.05,0.52,0.15
	c0.16,0.1,0.28,0.23,0.37,0.39c0.08,0.16,0.12,0.34,0.11,0.53c-0.01,0.18-0.07,0.36-0.18,0.51l-7,10c-0.12,0.18-0.3,0.31-0.5,0.37
	c-0.2,0.07-0.42,0.07-0.62,0.01c-0.2-0.06-0.38-0.19-0.51-0.36c-0.13-0.17-0.19-0.38-0.19-0.59v-5h-4c-0.18,0-0.36-0.05-0.52-0.15
	c-0.16-0.1-0.28-0.23-0.37-0.39c-0.08-0.16-0.12-0.34-0.11-0.53c0.01-0.18,0.07-0.36,0.18-0.51l7-10c0.12-0.17,0.3-0.31,0.5-0.37
	C83.76,211.99,83.98,211.98,84.18,212.05L84.18,212.05z"/>
</svg>
