<?xml version="1.0" encoding="utf-8"?>
<!-- Generator: Adobe Illustrator 27.2.0, SVG Export Plug-In . SVG Version: 6.00 Build 0)  -->
<svg version="1.1" id="Calque_1" xmlns="http://www.w3.org/2000/svg" xmlns:xlink="http://www.w3.org/1999/xlink" x="0px" y="0px"
	 viewBox="0 0 400 250.19" style="enable-background:new 0 0 400 250.19;" xml:space="preserve">
<style type="text/css">
	.st0{fill:#F4526A;}
	.st1{fill:#FFFFFF;}
</style>
<circle class="st0" cx="200.17" cy="150.19" r="100"/>
<path class="st1" d="M200.17,100.19c-9.95,0-19.48,3.95-26.52,10.98c-7.03,7.03-10.98,16.57-10.98,26.52v22.41l-4.42,4.42
	c-0.87,0.87-1.47,1.99-1.71,3.2c-0.24,1.21-0.12,2.47,0.36,3.61c0.47,1.14,1.27,2.12,2.3,2.8c1.03,0.69,2.24,1.05,3.47,1.05h75
	c1.24,0,2.44-0.37,3.47-1.05c1.03-0.69,1.83-1.66,2.3-2.8s0.6-2.4,0.36-3.61s-0.84-2.33-1.71-3.2l-4.42-4.42v-22.41
	c0-9.95-3.95-19.48-10.98-26.52C219.65,104.14,210.11,100.19,200.17,100.19L200.17,100.19z M200.17,200.19
	c-4.97,0-9.74-1.98-13.26-5.49s-5.49-8.29-5.49-13.26h37.5c0,4.97-1.98,9.74-5.49,13.26S205.14,200.19,200.17,200.19z"/>
</svg>
