<?xml version="1.0" encoding="utf-8"?>
<!-- Generator: Adobe Illustrator 27.2.0, SVG Export Plug-In . SVG Version: 6.00 Build 0)  -->
<svg version="1.1" id="Calque_1" xmlns="http://www.w3.org/2000/svg" xmlns:xlink="http://www.w3.org/1999/xlink" x="0px" y="0px"
	 viewBox="0 0 400 250.19" style="enable-background:new 0 0 400 250.19;" xml:space="preserve">
<style type="text/css">
	.st0{fill:#F4526A;}
	.st1{fill-rule:evenodd;clip-rule:evenodd;fill:#FFFFFF;}
</style>
<circle class="st0" cx="200.17" cy="150.19" r="100"/>
<path class="st1" d="M131.42,162.69c0,16.88,13.68,30.55,30.55,30.56l0,0h68.61h0.14c21.09,0,38.19-17.1,38.19-38.19
	s-17.1-38.19-38.19-38.19c-0.65,0-1.3,0.02-1.94,0.05c-4.71-13.38-17.45-22.97-32.44-22.97c-18.98,0-34.37,15.39-34.37,34.38
	c0,1.29,0.07,2.57,0.21,3.82h-0.21C145.1,132.14,131.42,145.82,131.42,162.69z M179.4,175.82c-2.87-2.87-2.87-7.52,0-10.38
	l10.38-10.38l-10.38-10.38c-2.87-2.87-2.87-7.52,0-10.38c2.87-2.87,7.52-2.87,10.38,0l10.38,10.38l10.38-10.38
	c2.87-2.87,7.52-2.87,10.38,0c2.87,2.87,2.87,7.52,0,10.38l-10.38,10.38l10.38,10.38c2.87,2.87,2.87,7.52,0,10.38
	c-2.87,2.87-7.52,2.87-10.38,0l-10.38-10.38l-10.38,10.38C186.92,178.69,182.27,178.69,179.4,175.82z"/>
</svg>
