<?xml version="1.0" encoding="utf-8"?>
<!-- Generator: Adobe Illustrator 27.2.0, SVG Export Plug-In . SVG Version: 6.00 Build 0)  -->
<svg version="1.1" id="Calque_1" xmlns="http://www.w3.org/2000/svg" xmlns:xlink="http://www.w3.org/1999/xlink" x="0px" y="0px"
	 viewBox="0 0 400 250.19" style="enable-background:new 0 0 400 250.19;" xml:space="preserve">
<style type="text/css">
	.st0{fill:#F4526A;}
	.st1{fill-rule:evenodd;clip-rule:evenodd;fill:#FFFFFF;}
</style>
<circle class="st0" cx="200.17" cy="150.19" r="100"/>
<path class="st1" d="M143.92,189.73v-14.54c0-2.86,0.65-5.69,1.91-8.26c1.26-2.57,3.09-4.82,5.35-6.57c2.26-1.75,4.9-2.96,7.7-3.54
	c2.8-0.58,5.7-0.51,8.47,0.21c-3.08,5.56-4.7,11.81-4.69,18.16v32.63C155.33,203.04,148.96,196.89,143.92,189.73z M175.17,214.26
	V175.2c0-6.63,2.63-12.99,7.32-17.68s11.05-7.32,17.68-7.32s12.99,2.63,17.68,7.32c4.69,4.69,7.32,11.05,7.32,17.68v39.06
	c-7.75,3.03-16.18,4.69-25,4.69C191.35,218.94,182.92,217.28,175.17,214.26z M237.67,207.83V175.2c0.01-6.35-1.6-12.61-4.69-18.16
	c2.77-0.71,5.67-0.78,8.47-0.2s5.43,1.79,7.69,3.54s4.09,4,5.35,6.56c1.26,2.57,1.92,5.39,1.92,8.25v14.54
	C251.38,196.89,245.01,203.04,237.67,207.83z M213.43,132.2c3.52-3.52,5.49-8.29,5.49-13.26s-1.98-9.74-5.49-13.26
	s-8.29-5.49-13.26-5.49s-9.74,1.98-13.26,5.49s-5.49,8.29-5.49,13.26s1.98,9.74,5.49,13.26s8.29,5.49,13.26,5.49
	S209.91,135.72,213.43,132.2z M246.51,140.28c2.34-2.34,3.66-5.52,3.66-8.84s-1.32-6.49-3.66-8.84c-2.34-2.34-5.52-3.66-8.84-3.66
	c-3.31,0-6.49,1.32-8.84,3.66s-3.66,5.52-3.66,8.84s1.32,6.49,3.66,8.84s5.52,3.66,8.84,3.66
	C240.98,143.94,244.16,142.63,246.51,140.28z M171.51,140.28c2.34-2.34,3.66-5.52,3.66-8.84s-1.32-6.49-3.66-8.84
	s-5.52-3.66-8.84-3.66c-3.32,0-6.49,1.32-8.84,3.66c-2.34,2.34-3.66,5.52-3.66,8.84s1.32,6.49,3.66,8.84
	c2.34,2.34,5.52,3.66,8.84,3.66C165.98,143.94,169.16,142.63,171.51,140.28z"/>
</svg>
