<?xml version="1.0" encoding="utf-8"?>
<!-- Generator: Adobe Illustrator 27.2.0, SVG Export Plug-In . SVG Version: 6.00 Build 0)  -->
<svg version="1.1" id="Calque_1" xmlns="http://www.w3.org/2000/svg" xmlns:xlink="http://www.w3.org/1999/xlink" x="0px" y="0px"
	 viewBox="0 0 400 250.19" style="enable-background:new 0 0 400 250.19;" xml:space="preserve">
<style type="text/css">
	.st0{fill:#F4526A;}
	.st1{fill:#FFFFFF;}
</style>
<circle class="st0" cx="200.17" cy="150.19" r="100"/>
<path class="st1" d="M150.17,125.19c0-3.32,1.32-6.49,3.66-8.84c2.34-2.34,5.52-3.66,8.84-3.66h43.75c3.32,0,6.49,1.32,8.84,3.66
	c2.34,2.34,3.66,5.52,3.66,8.84v25c0,3.31-1.32,6.49-3.66,8.84c-2.34,2.34-5.52,3.66-8.84,3.66h-12.5l-18.75,18.75v-18.75h-12.5
	c-3.32,0-6.49-1.32-8.84-3.66c-2.34-2.34-3.66-5.52-3.66-8.84V125.19z"/>
<path class="st1" d="M231.42,137.69v12.5c0,6.63-2.63,12.99-7.32,17.68c-4.69,4.69-11.05,7.32-17.68,7.32h-7.32l-11.04,11.04
	c1.75,0.93,3.74,1.46,5.86,1.46h12.5l18.75,18.75v-18.75h12.5c3.32,0,6.49-1.32,8.84-3.66c2.34-2.34,3.66-5.52,3.66-8.84v-25
	c0-3.32-1.32-6.49-3.66-8.84c-2.34-2.34-5.52-3.66-8.84-3.66H231.42z"/>
</svg>
