<?xml version="1.0" encoding="utf-8"?>
<!-- Generator: Adobe Illustrator 27.2.0, SVG Export Plug-In . SVG Version: 6.00 Build 0)  -->
<svg version="1.1" id="Calque_1" xmlns="http://www.w3.org/2000/svg" xmlns:xlink="http://www.w3.org/1999/xlink" x="0px" y="0px"
	 viewBox="0 0 400 250.19" style="enable-background:new 0 0 400 250.19;" xml:space="preserve">
<style type="text/css">
	.st0{fill:#F4526A;}
	.st1{fill:#FFFFFF;}
</style>
<circle class="st0" cx="200.17" cy="150.19" r="100"/>
<path class="st1" d="M225.16,137.69c3.81,0,7.52-1.16,10.66-3.32c3.13-2.16,5.53-5.23,6.88-8.79c1.35-3.56,1.58-7.45,0.66-11.14
	c-0.92-3.7-2.93-7.02-5.79-9.55c-2.85-2.52-6.41-4.11-10.19-4.57c-3.78-0.45-7.61,0.26-10.98,2.03c-3.37,1.78-6.11,4.54-7.88,7.91
	c-1.76,3.38-2.45,7.21-1.98,10.99l-30.88,15.44c-2.65-2.55-5.99-4.27-9.61-4.94s-7.35-0.26-10.74,1.18
	c-3.39,1.44-6.27,3.84-8.3,6.91s-3.11,6.67-3.11,10.35c0,3.68,1.08,7.28,3.11,10.35s4.92,5.47,8.3,6.91
	c3.39,1.44,7.12,1.85,10.74,1.18c3.62-0.67,6.96-2.39,9.61-4.94l30.88,15.44c-0.55,4.39,0.48,8.83,2.89,12.54
	c2.41,3.71,6.06,6.45,10.29,7.73s8.78,1.02,12.85-0.72c4.06-1.75,7.38-4.88,9.35-8.83c1.98-3.96,2.5-8.48,1.46-12.78
	s-3.56-8.1-7.12-10.71c-3.56-2.62-7.94-3.89-12.35-3.6s-8.58,2.14-11.77,5.21l-30.88-15.44c0.19-1.54,0.19-3.09,0-4.62l30.88-15.44
	C215.51,135.69,220.1,137.69,225.16,137.69z"/>
</svg>
