<?xml version="1.0" encoding="utf-8"?>
<!-- Generator: Adobe Illustrator 27.2.0, SVG Export Plug-In . SVG Version: 6.00 Build 0)  -->
<svg version="1.1" id="Calque_1" xmlns="http://www.w3.org/2000/svg" xmlns:xlink="http://www.w3.org/1999/xlink" x="0px" y="0px"
	 viewBox="0 0 600 600" style="enable-background:new 0 0 600 600;" xml:space="preserve">
<style type="text/css">
	.st0{fill:#FFFFFF;}
	.st1{fill:#3F3F46;}
	.st2{fill-rule:evenodd;clip-rule:evenodd;fill:#3F3F46;}
	.st3{clip-path:url(#SVGID_00000013195080913587123110000010763703792527797136_);}
	.st4{fill:none;stroke:#3F3F46;}
	.st5{fill-rule:evenodd;clip-rule:evenodd;fill:#FFFFFF;}
	.st6{fill:#B2B2BD;}
	.st7{fill:none;stroke:#FFFFFF;}
	.st8{fill:#C0C0CE;}
	.st9{fill-rule:evenodd;clip-rule:evenodd;fill:#B2B2BD;}
</style>
<rect x="0.01" y="0.45" class="st0" width="600" height="600"/>
<path class="st1" d="M72.38,126.65c3.64,0,6.55-2.92,6.55-6.5s-2.92-6.5-6.55-6.5s-6.55,2.92-6.55,6.5S68.74,126.65,72.38,126.65z
	 M72.38,124.94c-2.54,0-4.61-2.07-4.61-4.79c0-2.72,2.07-4.79,4.61-4.79s4.61,2.07,4.61,4.79
	C76.98,122.87,74.91,124.94,72.38,124.94z M86.17,126.65c2.68,0,4.46-2.12,4.46-4.72c0-2.59-1.78-4.7-4.46-4.7
	c-1.21,0-2.39,0.41-3.24,1.62v-4.77c0-0.41-0.23-0.65-0.65-0.65h-0.54c-0.41,0-0.67,0.23-0.67,0.65v11.72
	c0,0.41,0.25,0.65,0.67,0.65h0.54c0.41,0,0.65-0.23,0.65-0.65v-0.77C83.78,126.23,84.96,126.65,86.17,126.65z M85.9,125.03
	c-1.76,0-2.99-1.31-3.01-3.1c0.02-1.78,1.24-3.1,3.01-3.1c1.84,0,2.88,1.42,2.88,3.1C88.78,123.62,87.74,125.03,85.9,125.03z
	 M95.4,126.65c1.76,0,3.28-0.99,3.28-2.72c0-0.97-0.47-2.03-2.2-2.57l-1.3-0.43c-0.52-0.16-1.04-0.47-1.04-1.04
	c0-0.63,0.5-1.12,1.3-1.12c0.4,0,0.79,0.11,1.1,0.47c0.25,0.32,0.47,0.49,0.85,0.38l0.34-0.07c0.43-0.09,0.65-0.41,0.41-0.83
	c-0.59-1.1-1.66-1.48-2.75-1.48c-1.8,0-3.02,1.15-3.02,2.7c0,1.28,0.86,2.05,2.25,2.47l1.21,0.41c0.63,0.22,1.12,0.52,1.12,1.1
	c0,0.68-0.65,1.19-1.51,1.19c-0.7,0-1.31-0.29-1.67-0.74c-0.23-0.31-0.45-0.47-0.81-0.38l-0.38,0.11c-0.43,0.11-0.65,0.4-0.43,0.81
	C92.73,126.05,94.01,126.65,95.4,126.65z M101.68,115.79c0.72,0,1.28-0.54,1.28-1.22c0-0.7-0.54-1.26-1.28-1.26
	c-0.72,0-1.24,0.56-1.24,1.26C100.44,115.25,100.96,115.79,101.68,115.79z M101.43,126.45h0.54c0.41,0,0.65-0.23,0.65-0.65v-7.72
	c0-0.41-0.23-0.65-0.65-0.65h-0.54c-0.41,0-0.67,0.23-0.67,0.65v7.72C100.77,126.22,101.02,126.45,101.43,126.45z M109.22,126.65
	c1.21,0,2.38-0.41,3.22-1.62v0.77c0,0.41,0.25,0.65,0.67,0.65h0.54c0.41,0,0.65-0.23,0.65-0.65v-11.72c0-0.41-0.23-0.65-0.65-0.65
	h-0.54c-0.41,0-0.67,0.23-0.67,0.65v4.77c-0.85-1.21-2.02-1.62-3.22-1.62c-2.68,0-4.46,2.11-4.46,4.7
	C104.76,124.52,106.54,126.65,109.22,126.65z M109.47,125.03c-1.82,0-2.86-1.4-2.86-3.1c0-1.67,1.04-3.1,2.86-3.1
	c1.78,0,2.99,1.31,3.01,3.1C112.46,123.71,111.25,125.03,109.47,125.03z M118,115.79c0.72,0,1.28-0.54,1.28-1.22
	c0-0.7-0.54-1.26-1.28-1.26c-0.72,0-1.24,0.56-1.24,1.26C116.75,115.25,117.28,115.79,118,115.79z M117.74,126.45h0.54
	c0.41,0,0.65-0.23,0.65-0.65v-7.72c0-0.41-0.23-0.65-0.65-0.65h-0.54c-0.41,0-0.67,0.23-0.67,0.65v7.72
	C117.08,126.22,117.33,126.45,117.74,126.45z M125.52,126.65c1.21,0,2.38-0.41,3.22-1.62v0.77c0,0.41,0.25,0.65,0.67,0.65h0.54
	c0.41,0,0.65-0.23,0.65-0.65v-7.72c0-0.41-0.23-0.65-0.65-0.65h-0.54c-0.41,0-0.67,0.23-0.67,0.65v0.77
	c-0.85-1.21-2.02-1.62-3.22-1.62c-2.68,0-4.46,2.11-4.46,4.7C121.05,124.52,122.83,126.65,125.52,126.65z M125.77,125.03
	c-1.82,0-2.86-1.4-2.86-3.1c0-1.67,1.04-3.1,2.86-3.1c1.78,0,2.99,1.31,3.01,3.1C128.76,123.71,127.55,125.03,125.77,125.03z
	 M133.97,126.45h0.54c0.41,0,0.65-0.23,0.65-0.65v-3.58c0-2.74,1.87-3.37,2.81-3.37c0.95,0,1.8,0.67,1.8,2.52v4.43
	c0,0.41,0.23,0.65,0.65,0.65h0.54c0.41,0,0.67-0.23,0.67-0.65v-4.45c0-2.83-1.46-4.12-3.46-4.12c-1.46,0-2.61,0.7-3.01,1.96v-1.12
	c0-0.41-0.23-0.65-0.65-0.65h-0.54c-0.41,0-0.67,0.23-0.67,0.65v7.72C133.3,126.22,133.55,126.45,133.97,126.45z"/>
<path class="st1" d="M240.05,42.65h-6.31c-0.74,0-1.18,0.41-1.18,1.15v14.5c0,0.74,0.43,1.15,1.18,1.15h1.49
	c0.74,0,1.15-0.41,1.15-1.15v-4.56h3.67c3.58,0,5.57-2.4,5.57-5.45C245.61,45.27,243.65,42.65,240.05,42.65z M239.54,50.71h-3.17
	v-4.85h3.17c1.34,0,2.23,1.06,2.23,2.45C241.77,49.66,240.89,50.71,239.54,50.71z M254.86,59.71c3.79,0,6.98-2.3,6.98-6.62V43.8
	c0-0.74-0.41-1.15-1.15-1.15h-1.49c-0.74,0-1.18,0.41-1.18,1.15v9.29c0,2.18-1.46,3.31-3.17,3.31c-1.7,0-3.14-1.13-3.14-3.31V43.8
	c0-0.74-0.41-1.15-1.15-1.15h-1.49c-0.74,0-1.18,0.41-1.18,1.15v9.29C247.9,57.41,251.1,59.71,254.86,59.71z M275.28,50.74
	c1.94-0.65,2.69-2.09,2.69-3.48c0-2.88-2.5-4.61-5.9-4.61h-5.52c-0.74,0-1.18,0.41-1.18,1.15v14.5c0,0.74,0.43,1.15,1.18,1.15h6.22
	c3.6,0,5.98-1.87,5.98-4.75C278.74,52.99,277.59,51.05,275.28,50.74z M271.78,45.67c1.42,0,2.47,0.72,2.47,1.97
	c0,1.08-0.89,2.11-3.05,2.11h-2.02v-4.08H271.78z M272.62,56.38h-3.43v-4.15h2.64c2.23,0,3.17,1.08,3.17,2.18
	S274.13,56.38,272.62,56.38z M282.62,59.45h9.07c0.74,0,1.18-0.41,1.18-1.15v-0.91c0-0.74-0.43-1.15-1.18-1.15h-6.43V43.8
	c0-0.74-0.41-1.15-1.15-1.15h-1.49c-0.74,0-1.18,0.41-1.18,1.15v14.5C281.45,59.04,281.88,59.45,282.62,59.45z M296.31,59.45h1.49
	c0.74,0,1.15-0.41,1.15-1.15V43.8c0-0.74-0.41-1.15-1.15-1.15h-1.49c-0.74,0-1.18,0.41-1.18,1.15v14.5
	C295.14,59.04,295.57,59.45,296.31,59.45z M310.89,59.71c2.23,0,3.84-0.65,5.26-1.66c0.53-0.38,0.55-0.91,0.12-1.54l-0.6-0.74
	c-0.43-0.6-0.96-0.6-1.61-0.22c-0.96,0.55-2.11,0.84-3.17,0.84c-3.36,0-5.4-2.4-5.4-5.35s2.04-5.35,5.4-5.35
	c1.06,0,2.21,0.29,3.17,0.84c0.65,0.38,1.18,0.38,1.61-0.22l0.6-0.74c0.43-0.6,0.36-1.2-0.24-1.61c-1.39-0.96-2.98-1.58-5.14-1.58
	c-5.69,0-9.22,3.98-9.22,8.66S305.2,59.71,310.89,59.71z M326.24,59.45h9.07c0.74,0,1.18-0.41,1.18-1.15v-0.91
	c0-0.74-0.43-1.15-1.18-1.15h-6.43V43.8c0-0.74-0.41-1.15-1.15-1.15h-1.49c-0.74,0-1.18,0.41-1.18,1.15v14.5
	C325.07,59.04,325.5,59.45,326.24,59.45z M339.93,59.45h1.49c0.74,0,1.15-0.41,1.15-1.15V43.8c0-0.74-0.41-1.15-1.15-1.15h-1.49
	c-0.74,0-1.18,0.41-1.18,1.15v14.5C338.75,59.04,339.18,59.45,339.93,59.45z M347.5,59.45h1.49c0.74,0,1.15-0.41,1.15-1.15v-8.93
	l6.79,9.36c0.34,0.5,0.79,0.72,1.39,0.72h0.86c0.74,0,1.15-0.41,1.15-1.15V43.8c0-0.74-0.41-1.15-1.15-1.15h-1.49
	c-0.74,0-1.18,0.41-1.18,1.15v8.83l-6.74-9.26c-0.36-0.5-0.79-0.72-1.42-0.72h-0.86c-0.74,0-1.18,0.41-1.18,1.15v14.5
	C346.32,59.04,346.76,59.45,347.5,59.45z M375.42,59.71c0.72,0,1.46-0.12,2.16-0.41c0.77-0.31,0.94-0.94,0.65-1.58l-0.24-0.53
	c-0.29-0.62-0.58-0.89-1.2-0.7c-0.26,0.1-0.58,0.14-0.74,0.17c-0.84,0.05-1.51-0.5-2.28-1.9l-2.26-3.82l4.68-7.03
	c0.5-0.79,0.31-1.27-0.55-1.27h-1.92c-0.62,0-1.06,0.24-1.37,0.79l-4.44,6.89V43.8c0-0.74-0.41-1.15-1.15-1.15h-1.49
	c-0.74,0-1.18,0.41-1.18,1.15v14.5c0,0.74,0.43,1.15,1.18,1.15h1.49c0.74,0,1.15-0.41,1.15-1.15v-6.58l2.5,4.56
	C371.46,58.42,373.23,59.71,375.42,59.71z"/>
<path class="st1" d="M285.27,127.65c2.63,0,4.43-1.4,4.43-3.67c0-1.35-0.97-2.75-3.1-3.42l-1.87-0.7c-1.44-0.54-1.6-1.22-1.6-1.75
	c0-1.12,0.99-1.76,2.18-1.76c1.04,0,1.82,0.4,2.23,1.22c0.18,0.38,0.43,0.52,0.83,0.41l0.45-0.14c0.4-0.11,0.59-0.41,0.43-0.81
	c-0.58-1.42-1.98-2.38-3.96-2.38c-2.18,0-4.09,1.33-4.09,3.51c0,1.17,0.58,2.59,2.95,3.38l1.87,0.63c1.03,0.38,1.82,0.97,1.82,1.93
	c0,1.08-0.99,1.87-2.61,1.87c-1.26,0-2.21-0.61-2.66-1.39c-0.2-0.38-0.41-0.52-0.81-0.43l-0.52,0.13c-0.4,0.11-0.61,0.41-0.43,0.81
	C281.45,126.57,283.04,127.65,285.27,127.65z M296.29,127.65c1.13,0,2.34-0.27,3.38-1.12c0.41-0.34,0.41-0.72,0.13-1.03l-0.13-0.14
	c-0.29-0.29-0.58-0.31-0.92-0.09c-0.77,0.52-1.57,0.76-2.45,0.76c-1.96,0-3.35-1.22-3.29-2.9h6.98c0.43,0,0.68-0.23,0.63-0.67
	c-0.25-2.88-2.32-4.23-4.59-4.23c-2.81,0-4.86,2.11-4.86,4.73C291.17,125.54,293.12,127.65,296.29,127.65z M293.17,121.76
	c0.56-1.53,1.85-1.94,2.9-1.94c0.99,0,2.25,0.34,2.72,1.94H293.17z M309.08,127.65c0.18,0,0.79,0,1.4-0.29
	c0.45-0.22,0.54-0.52,0.45-0.74l-0.29-0.58c-0.13-0.22-0.27-0.25-0.52-0.16c-0.32,0.14-0.67,0.16-0.81,0.16
	c-0.79,0-1.04-0.45-1.57-1.19l-1.49-2.29l2.77-3.35c0.36-0.43,0.2-0.79-0.38-0.79h-0.68c-0.34,0-0.59,0.11-0.79,0.38l-2.75,3.4
	v-7.13c0-0.41-0.23-0.65-0.65-0.65h-0.54c-0.41,0-0.67,0.23-0.67,0.65v11.72c0,0.41,0.25,0.65,0.67,0.65h0.54
	c0.41,0,0.65-0.23,0.65-0.65v-3.96l1.76,2.86C306.74,126.51,307.35,127.65,309.08,127.65z M315.24,127.65c1.46,0,2.61-0.7,3.01-1.96
	v1.12c0,0.41,0.23,0.65,0.65,0.65h0.54c0.41,0,0.67-0.23,0.67-0.65v-7.72c0-0.41-0.25-0.65-0.67-0.65h-0.54
	c-0.41,0-0.65,0.23-0.65,0.65v3.58c0,2.72-1.87,3.37-2.81,3.37c-0.95,0-1.78-0.68-1.78-2.52v-4.43c0-0.41-0.25-0.65-0.67-0.65h-0.54
	c-0.41,0-0.65,0.23-0.65,0.65v4.45C311.81,126.35,313.25,127.65,315.24,127.65z M323.46,127.45H324c0.41,0,0.65-0.23,0.65-0.65
	v-3.58c0-2.74,1.87-3.37,2.81-3.37c0.95,0,1.8,0.67,1.8,2.52v4.43c0,0.41,0.23,0.65,0.65,0.65h0.54c0.41,0,0.67-0.23,0.67-0.65
	v-4.45c0-2.83-1.46-4.12-3.46-4.12c-1.46,0-2.61,0.7-3.01,1.96v-1.12c0-0.41-0.23-0.65-0.65-0.65h-0.54c-0.41,0-0.67,0.23-0.67,0.65
	v7.72C322.8,127.22,323.05,127.45,323.46,127.45z M337.53,127.65c1.21,0,2.38-0.41,3.22-1.62v0.77c0,0.41,0.25,0.65,0.67,0.65h0.54
	c0.41,0,0.65-0.23,0.65-0.65v-11.72c0-0.41-0.23-0.65-0.65-0.65h-0.54c-0.41,0-0.67,0.23-0.67,0.65v4.77
	c-0.85-1.21-2.02-1.62-3.22-1.62c-2.68,0-4.46,2.11-4.46,4.7C333.06,125.52,334.85,127.65,337.53,127.65z M337.78,126.03
	c-1.82,0-2.86-1.4-2.86-3.1c0-1.67,1.04-3.1,2.86-3.1c1.78,0,2.99,1.31,3.01,3.1C340.77,124.71,339.56,126.03,337.78,126.03z"/>
<path class="st1" d="M437.03,131.48h0.54c0.41,0,0.65-0.23,0.65-0.65v-4.81c0.85,1.21,2.03,1.62,3.24,1.62
	c2.68,0,4.46-2.12,4.46-4.72c0-2.59-1.78-4.7-4.46-4.7c-1.21,0-2.39,0.41-3.24,1.62v-0.77c0-0.41-0.23-0.65-0.65-0.65h-0.54
	c-0.41,0-0.67,0.23-0.67,0.65v11.75C436.36,131.25,436.62,131.48,437.03,131.48z M441.19,126.03c-1.76,0-2.99-1.31-3.01-3.1
	c0.02-1.78,1.24-3.1,3.01-3.1c1.84,0,2.88,1.42,2.88,3.1C444.07,124.62,443.02,126.03,441.19,126.03z M451.28,127.65
	c1.46,0,2.61-0.7,3.01-1.96v1.12c0,0.41,0.23,0.65,0.65,0.65h0.54c0.41,0,0.67-0.23,0.67-0.65v-7.72c0-0.41-0.25-0.65-0.67-0.65
	h-0.54c-0.41,0-0.65,0.23-0.65,0.65v3.58c0,2.72-1.87,3.37-2.81,3.37c-0.95,0-1.78-0.68-1.78-2.52v-4.43c0-0.41-0.25-0.65-0.67-0.65
	h-0.54c-0.41,0-0.65,0.23-0.65,0.65v4.45C447.84,126.35,449.28,127.65,451.28,127.65z M463.92,127.65c2.68,0,4.46-2.12,4.46-4.72
	c0-2.59-1.78-4.7-4.46-4.7c-1.21,0-2.39,0.41-3.24,1.62v-4.77c0-0.41-0.23-0.65-0.65-0.65h-0.54c-0.41,0-0.67,0.23-0.67,0.65v11.72
	c0,0.41,0.25,0.65,0.67,0.65h0.54c0.41,0,0.65-0.23,0.65-0.65v-0.77C461.53,127.23,462.72,127.65,463.92,127.65z M463.65,126.03
	c-1.76,0-2.99-1.31-3.01-3.1c0.02-1.78,1.24-3.1,3.01-3.1c1.84,0,2.88,1.42,2.88,3.1C466.53,124.62,465.49,126.03,463.65,126.03z
	 M471.19,127.45h0.54c0.41,0,0.65-0.23,0.65-0.65v-11.72c0-0.41-0.23-0.65-0.65-0.65h-0.54c-0.41,0-0.67,0.23-0.67,0.65v11.72
	C470.52,127.22,470.77,127.45,471.19,127.45z M476.11,116.79c0.72,0,1.28-0.54,1.28-1.22c0-0.7-0.54-1.26-1.28-1.26
	c-0.72,0-1.24,0.56-1.24,1.26C474.87,116.25,475.39,116.79,476.11,116.79z M475.86,127.45h0.54c0.41,0,0.65-0.23,0.65-0.65v-7.72
	c0-0.41-0.23-0.65-0.65-0.65h-0.54c-0.41,0-0.67,0.23-0.67,0.65v7.72C475.19,127.22,475.45,127.45,475.86,127.45z M484.24,127.65
	c0.65,0,1.53-0.11,2.43-0.59c0.58-0.29,0.7-0.72,0.45-1.06l-0.13-0.18c-0.23-0.34-0.52-0.38-0.92-0.18c-0.77,0.38-1.55,0.4-1.75,0.4
	c-1.91,0-3.31-1.28-3.31-3.1s1.4-3.08,3.31-3.08c0.2,0,0.97,0.02,1.75,0.4c0.4,0.18,0.67,0.16,0.92-0.18l0.14-0.18
	c0.25-0.34,0.2-0.7-0.18-0.92c-1.03-0.59-2-0.74-2.72-0.74c-3.26,0-5.08,2.16-5.08,4.81C479.17,125.61,481.06,127.65,484.24,127.65z
	 M490.35,127.65c0.76,0,1.37-0.59,1.37-1.33c0-0.76-0.61-1.37-1.37-1.37c-0.76,0-1.35,0.61-1.35,1.37
	C489,127.05,489.6,127.65,490.35,127.65z M496.74,127.65c1.76,0,3.28-0.99,3.28-2.72c0-0.97-0.47-2.03-2.2-2.57l-1.3-0.43
	c-0.52-0.16-1.04-0.47-1.04-1.04c0-0.63,0.5-1.12,1.3-1.12c0.4,0,0.79,0.11,1.1,0.47c0.25,0.32,0.47,0.49,0.85,0.38l0.34-0.07
	c0.43-0.09,0.65-0.41,0.41-0.83c-0.59-1.1-1.66-1.48-2.75-1.48c-1.8,0-3.02,1.15-3.02,2.7c0,1.28,0.86,2.05,2.25,2.47l1.21,0.41
	c0.63,0.22,1.12,0.52,1.12,1.1c0,0.68-0.65,1.19-1.51,1.19c-0.7,0-1.31-0.29-1.67-0.74c-0.23-0.31-0.45-0.47-0.81-0.38l-0.38,0.11
	c-0.43,0.11-0.65,0.4-0.43,0.81C494.07,127.05,495.35,127.65,496.74,127.65z M506.5,127.65c1.13,0,2.34-0.27,3.38-1.12
	c0.41-0.34,0.41-0.72,0.13-1.03l-0.13-0.14c-0.29-0.29-0.58-0.31-0.92-0.09c-0.77,0.52-1.57,0.76-2.45,0.76
	c-1.96,0-3.35-1.22-3.29-2.9h6.98c0.43,0,0.68-0.23,0.63-0.67c-0.25-2.88-2.32-4.23-4.59-4.23c-2.81,0-4.86,2.11-4.86,4.73
	C501.39,125.54,503.33,127.65,506.5,127.65z M503.38,121.76c0.56-1.53,1.85-1.94,2.9-1.94c0.99,0,2.25,0.34,2.72,1.94H503.38z
	 M519.29,127.65c0.18,0,0.79,0,1.4-0.29c0.45-0.22,0.54-0.52,0.45-0.74l-0.29-0.58c-0.13-0.22-0.27-0.25-0.52-0.16
	c-0.32,0.14-0.67,0.16-0.81,0.16c-0.79,0-1.04-0.45-1.57-1.19l-1.49-2.29l2.77-3.35c0.36-0.43,0.2-0.79-0.38-0.79h-0.68
	c-0.34,0-0.59,0.11-0.79,0.38l-2.75,3.4v-7.13c0-0.41-0.23-0.65-0.65-0.65h-0.54c-0.41,0-0.67,0.23-0.67,0.65v11.72
	c0,0.41,0.25,0.65,0.67,0.65h0.54c0.41,0,0.65-0.23,0.65-0.65v-3.96l1.76,2.86C516.95,126.51,517.56,127.65,519.29,127.65z
	 M525.46,127.65c1.46,0,2.61-0.7,3.01-1.96v1.12c0,0.41,0.23,0.65,0.65,0.65h0.54c0.41,0,0.67-0.23,0.67-0.65v-7.72
	c0-0.41-0.25-0.65-0.67-0.65h-0.54c-0.41,0-0.65,0.23-0.65,0.65v3.58c0,2.72-1.87,3.37-2.81,3.37c-0.95,0-1.78-0.68-1.78-2.52v-4.43
	c0-0.41-0.25-0.65-0.67-0.65h-0.54c-0.41,0-0.65,0.23-0.65,0.65v4.45C522.02,126.35,523.46,127.65,525.46,127.65z M533.67,127.45
	h0.54c0.41,0,0.65-0.23,0.65-0.65v-3.58c0-2.74,1.87-3.37,2.81-3.37c0.95,0,1.8,0.67,1.8,2.52v4.43c0,0.41,0.23,0.65,0.65,0.65h0.54
	c0.41,0,0.67-0.23,0.67-0.65v-4.45c0-2.83-1.46-4.12-3.46-4.12c-1.46,0-2.61,0.7-3.01,1.96v-1.12c0-0.41-0.23-0.65-0.65-0.65h-0.54
	c-0.41,0-0.67,0.23-0.67,0.65v7.72C533.01,127.22,533.26,127.45,533.67,127.45z M547.74,127.65c1.21,0,2.38-0.41,3.22-1.62v0.77
	c0,0.41,0.25,0.65,0.67,0.65h0.54c0.41,0,0.65-0.23,0.65-0.65v-11.72c0-0.41-0.23-0.65-0.65-0.65h-0.54c-0.41,0-0.67,0.23-0.67,0.65
	v4.77c-0.85-1.21-2.02-1.62-3.22-1.62c-2.68,0-4.46,2.11-4.46,4.7C543.28,125.52,545.06,127.65,547.74,127.65z M547.99,126.03
	c-1.82,0-2.86-1.4-2.86-3.1c0-1.67,1.04-3.1,2.86-3.1c1.78,0,2.99,1.31,3.01,3.1C550.98,124.71,549.77,126.03,547.99,126.03z
	 M556.53,127.65c0.76,0,1.37-0.59,1.37-1.33c0-0.76-0.61-1.37-1.37-1.37c-0.76,0-1.35,0.61-1.35,1.37
	C555.18,127.05,555.78,127.65,556.53,127.65z M564.16,127.65c2.65,0,4.79-2.11,4.79-4.72c0-2.57-2.14-4.7-4.79-4.7
	c-2.63,0-4.75,2.11-4.75,4.7C559.41,125.56,561.54,127.65,564.16,127.65z M564.16,126.03c-1.6,0-2.92-1.37-2.92-3.08
	s1.31-3.1,2.92-3.1c1.64,0,2.93,1.39,2.93,3.1S565.8,126.03,564.16,126.03z M571.66,127.45h0.54c0.41,0,0.65-0.23,0.65-0.65v-2.79
	c0-3.69,1.62-4.01,2.27-4.01c0.16,0,0.32,0.02,0.49,0.05c0.31,0.07,0.49-0.11,0.49-0.56v-0.52c0-0.36-0.05-0.67-0.43-0.72l-0.4-0.02
	c-1.08,0-2.11,0.77-2.41,2.21v-1.37c0-0.41-0.23-0.65-0.65-0.65h-0.54c-0.41,0-0.67,0.23-0.67,0.65v7.72
	C570.99,127.22,571.25,127.45,571.66,127.45z M581.64,131.68c2.5,0,4.75-1.31,4.75-4.37v-8.23c0-0.41-0.25-0.65-0.67-0.65h-0.52
	c-0.41,0-0.67,0.23-0.67,0.63v0.79c-0.85-1.21-2.02-1.62-3.22-1.62c-2.7,0-4.46,2.12-4.46,4.7c0,2.59,1.76,4.72,4.46,4.72
	c1.21,0,2.38-0.41,3.22-1.62v1.15c0,1.91-1.19,2.9-2.92,2.9c-0.92,0-1.8-0.22-2.57-0.7c-0.38-0.23-0.68-0.2-0.88,0.22l-0.14,0.25
	c-0.18,0.36-0.13,0.68,0.2,0.9C579.05,131.28,580.07,131.68,581.64,131.68z M581.57,126.03c-1.82,0-2.86-1.4-2.86-3.1
	c0-1.67,1.04-3.1,2.86-3.1c1.78,0,2.99,1.31,3.01,3.1C584.55,124.71,583.35,126.03,581.57,126.03z"/>
<path class="st1" d="M56.09,107.45c-2.49,1.37-4.97,2.75-7.46,4.12l0.82,4.27l6.36-5.01L56.09,107.45z M56.26,107.51l-0.27,3.31
	l4.5,2.75L56.26,107.51z M55.91,110.97l-6.41,5.05l7.39,15.37l1.18-2.36l2.53-15.18C60.58,113.84,55.91,110.97,55.91,110.97z
	 M48.48,111.75l-3.05,6.59l4.62,10.61l-0.74-12.93l-0.01-0.06L48.48,111.75z M49.51,116.44l0.73,12.78l6.49,2.22L49.51,116.44z"/>
<path class="st2" d="M419.1,120.45h1.95c0.09-1.55,0.38-2.97,0.84-4.12c-0.73,0.45-1.36,1.05-1.84,1.76
	C419.56,118.8,419.24,119.6,419.1,120.45z M425.01,113.45c-2.12,0-4.16,0.84-5.66,2.34s-2.34,3.53-2.34,5.66s0.84,4.16,2.34,5.66
	s3.54,2.34,5.66,2.34s4.16-0.84,5.66-2.34s2.34-3.53,2.34-5.66s-0.84-4.16-2.34-5.66S427.14,113.45,425.01,113.45L425.01,113.45z
	 M425.01,115.45c-0.08,0-0.23,0.03-0.46,0.26c-0.24,0.23-0.5,0.62-0.74,1.18c-0.39,0.91-0.67,2.14-0.77,3.56h3.94
	c-0.09-1.41-0.38-2.65-0.77-3.56c-0.24-0.56-0.5-0.95-0.74-1.18C425.25,115.48,425.09,115.45,425.01,115.45z M428.98,120.45
	c-0.09-1.55-0.38-2.97-0.84-4.12c0.73,0.45,1.36,1.05,1.84,1.76c0.48,0.71,0.8,1.51,0.95,2.36H428.98z M426.98,122.45h-3.94
	c0.09,1.41,0.38,2.65,0.77,3.56c0.24,0.56,0.5,0.95,0.74,1.18c0.23,0.23,0.39,0.26,0.46,0.26s0.23-0.03,0.46-0.26
	c0.24-0.23,0.5-0.62,0.74-1.18C426.6,125.1,426.89,123.86,426.98,122.45z M428.15,126.57c0.45-1.15,0.75-2.57,0.84-4.12h1.95
	c-0.14,0.85-0.46,1.65-0.95,2.36C429.51,125.52,428.88,126.12,428.15,126.57L428.15,126.57z M421.88,126.57
	c-0.45-1.15-0.75-2.57-0.84-4.12h-1.95c0.14,0.85,0.46,1.65,0.95,2.36C420.52,125.52,421.15,126.12,421.88,126.57L421.88,126.57z"/>
<g>
	<defs>
		<rect id="SVGID_1_" x="256.01" y="111.45" width="20" height="20"/>
	</defs>
	<clipPath id="SVGID_00000099656738451145116420000013378659097851432111_">
		<use xlink:href="#SVGID_1_"  style="overflow:visible;"/>
	</clipPath>
	<g style="clip-path:url(#SVGID_00000099656738451145116420000013378659097851432111_);">
		<path class="st1" d="M266.01,131.45c5.52,0,10-4.48,10-10s-4.48-10-10-10s-10,4.48-10,10S260.49,131.45,266.01,131.45z"/>
		<path class="st0" d="M262.06,118.17c-1.82,0-3.3,1.45-3.3,3.31c0,2.31,1.93,3.34,3.03,3.34c-0.24,1.28-0.83,2.38-2.38,3.76
			c4.06-1.1,6.09-4.06,6.09-6.89C265.5,119.44,263.89,118.17,262.06,118.17z"/>
		<path class="st0" d="M269.89,118.17c-1.83,0-3.3,1.45-3.3,3.31c0,2.31,1.93,3.34,3.03,3.34c-0.24,1.28-0.83,2.38-2.38,3.76
			c4.06-1.1,6.09-4.06,6.09-6.89C273.33,119.44,271.71,118.17,269.89,118.17z"/>
	</g>
</g>
<path class="st1" d="M65.86,230.45h0.48c0.32,0,0.5-0.18,0.5-0.5v-6.61l5.03,6.8c0.17,0.22,0.36,0.31,0.63,0.31h0.2
	c0.32,0,0.52-0.18,0.52-0.5v-8.79c0-0.32-0.2-0.5-0.52-0.5h-0.48c-0.32,0-0.5,0.18-0.5,0.5v6.58l-5.01-6.78
	c-0.17-0.22-0.36-0.31-0.63-0.31h-0.21c-0.32,0-0.5,0.18-0.5,0.5v8.79C65.36,230.27,65.54,230.45,65.86,230.45z M78.66,230.6
	c2.06,0,3.72-1.64,3.72-3.67c0-2-1.67-3.65-3.72-3.65c-2.04,0-3.7,1.64-3.7,3.65C74.96,228.98,76.62,230.6,78.66,230.6z
	 M78.66,229.34c-1.25,0-2.27-1.06-2.27-2.39s1.02-2.41,2.27-2.41c1.27,0,2.28,1.08,2.28,2.41S79.93,229.34,78.66,229.34z
	 M86.42,230.6c1.34,0,2.1-0.77,2.1-1.82c0-0.01,0-0.28-0.06-0.52c-0.03-0.18-0.15-0.25-0.32-0.25H87.5c-0.2,0-0.28,0.13-0.25,0.32
	c0.03,0.11,0.03,0.21,0.03,0.27c0,0.5-0.39,0.76-0.83,0.76c-0.45,0-0.81-0.29-0.81-1.05v-3.75h1.92c0.18,0,0.28-0.11,0.28-0.29
	v-0.55c0-0.18-0.1-0.28-0.28-0.28h-1.92v-1.58c0-0.27-0.15-0.43-0.42-0.43h-0.29c-0.25,0-0.41,0.14-0.45,0.41l-0.25,1.61h-0.88
	c-0.18,0-0.28,0.1-0.28,0.28v0.55c0,0.18,0.1,0.29,0.28,0.29h0.85v3.67C84.2,230.03,85.3,230.6,86.42,230.6z M93.23,230.6
	c0.88,0,1.82-0.21,2.63-0.87c0.32-0.27,0.32-0.56,0.1-0.8l-0.1-0.11c-0.22-0.22-0.45-0.24-0.71-0.07c-0.6,0.41-1.22,0.59-1.9,0.59
	c-1.53,0-2.6-0.95-2.56-2.25h5.43c0.34,0,0.53-0.18,0.49-0.52c-0.2-2.24-1.81-3.29-3.57-3.29c-2.18,0-3.78,1.64-3.78,3.68
	C89.25,228.97,90.76,230.6,93.23,230.6z M90.8,226.03c0.43-1.19,1.44-1.51,2.25-1.51c0.77,0,1.75,0.27,2.11,1.51H90.8z
	 M101.1,230.45h0.46c0.29,0,0.48-0.13,0.59-0.41l0.6-1.6h4.68l0.6,1.6c0.11,0.28,0.31,0.41,0.6,0.41h0.45
	c0.38,0,0.52-0.24,0.39-0.59l-3.4-8.81c-0.1-0.27-0.29-0.41-0.59-0.41h-0.81c-0.28,0-0.49,0.14-0.59,0.41l-3.37,8.81
	C100.56,230.21,100.72,230.45,101.1,230.45z M103.17,227.24l1.9-5.15l1.93,5.15H103.17z M112.57,230.45h0.42
	c0.32,0,0.5-0.18,0.5-0.5v-8.79c0-0.32-0.14-0.5-0.38-0.5c-0.25,0-0.43,0.04-0.66,0.14l-2.55,1.18c-0.27,0.13-0.38,0.35-0.28,0.66
	l0.06,0.21c0.1,0.32,0.35,0.45,0.66,0.31l1.71-0.77v7.57C112.05,230.27,112.25,230.45,112.57,230.45z"/>
<path class="st1" d="M65.86,254.45h0.48c0.32,0,0.5-0.18,0.5-0.5v-6.61l5.03,6.8c0.17,0.22,0.36,0.31,0.63,0.31h0.2
	c0.32,0,0.52-0.18,0.52-0.5v-8.79c0-0.32-0.2-0.5-0.52-0.5h-0.48c-0.32,0-0.5,0.18-0.5,0.5v6.58l-5.01-6.78
	c-0.17-0.22-0.36-0.31-0.63-0.31h-0.21c-0.32,0-0.5,0.18-0.5,0.5v8.79C65.36,254.27,65.54,254.45,65.86,254.45z M78.66,254.6
	c2.06,0,3.72-1.64,3.72-3.67c0-2-1.67-3.65-3.72-3.65c-2.04,0-3.7,1.64-3.7,3.65C74.96,252.98,76.62,254.6,78.66,254.6z
	 M78.66,253.34c-1.25,0-2.27-1.06-2.27-2.39s1.02-2.41,2.27-2.41c1.27,0,2.28,1.08,2.28,2.41S79.93,253.34,78.66,253.34z
	 M86.42,254.6c1.34,0,2.1-0.77,2.1-1.82c0-0.01,0-0.28-0.06-0.52c-0.03-0.18-0.15-0.25-0.32-0.25H87.5c-0.2,0-0.28,0.13-0.25,0.32
	c0.03,0.11,0.03,0.21,0.03,0.27c0,0.5-0.39,0.76-0.83,0.76c-0.45,0-0.81-0.29-0.81-1.05v-3.75h1.92c0.18,0,0.28-0.11,0.28-0.29
	v-0.55c0-0.18-0.1-0.28-0.28-0.28h-1.92v-1.58c0-0.27-0.15-0.43-0.42-0.43h-0.29c-0.25,0-0.41,0.14-0.45,0.41l-0.25,1.61h-0.88
	c-0.18,0-0.28,0.1-0.28,0.28v0.55c0,0.18,0.1,0.29,0.28,0.29h0.85v3.67C84.2,254.03,85.3,254.6,86.42,254.6z M93.23,254.6
	c0.88,0,1.82-0.21,2.63-0.87c0.32-0.27,0.32-0.56,0.1-0.8l-0.1-0.11c-0.22-0.22-0.45-0.24-0.71-0.07c-0.6,0.41-1.22,0.59-1.9,0.59
	c-1.53,0-2.6-0.95-2.56-2.25h5.43c0.34,0,0.53-0.18,0.49-0.52c-0.2-2.24-1.81-3.29-3.57-3.29c-2.18,0-3.78,1.64-3.78,3.68
	C89.25,252.97,90.76,254.6,93.23,254.6z M90.8,250.03c0.43-1.19,1.44-1.51,2.25-1.51c0.77,0,1.75,0.27,2.11,1.51H90.8z
	 M107.02,249.42c1.27-0.32,1.85-1.23,1.85-2.24c0-1.58-1.39-2.53-3.26-2.53h-3.02c-0.32,0-0.5,0.18-0.5,0.5v8.79
	c0,0.32,0.18,0.5,0.5,0.5h3.47c1.96,0,3.28-1.04,3.28-2.62C109.33,250.63,108.56,249.59,107.02,249.42z M105.59,245.87
	c0.94,0,1.75,0.49,1.75,1.43c0,0.84-0.63,1.67-2.3,1.67h-1.48v-3.09H105.59z M106.04,253.23h-2.48v-3.15h1.79
	c1.74,0,2.46,0.83,2.46,1.69C107.82,252.66,107.08,253.23,106.04,253.23z M113.27,254.45h0.42c0.32,0,0.5-0.18,0.5-0.5v-8.79
	c0-0.32-0.14-0.5-0.38-0.5c-0.25,0-0.43,0.04-0.66,0.14l-2.55,1.18c-0.27,0.13-0.38,0.35-0.28,0.66l0.06,0.21
	c0.1,0.32,0.35,0.45,0.66,0.31l1.71-0.77v7.57C112.75,254.27,112.95,254.45,113.27,254.45z"/>
<path class="st1" d="M65.86,279.45h0.48c0.32,0,0.5-0.18,0.5-0.5v-6.61l5.03,6.8c0.17,0.22,0.36,0.31,0.63,0.31h0.2
	c0.32,0,0.52-0.18,0.52-0.5v-8.79c0-0.32-0.2-0.5-0.52-0.5h-0.48c-0.32,0-0.5,0.18-0.5,0.5v6.58l-5.01-6.78
	c-0.17-0.22-0.36-0.31-0.63-0.31h-0.21c-0.32,0-0.5,0.18-0.5,0.5v8.79C65.36,279.27,65.54,279.45,65.86,279.45z M78.66,279.6
	c2.06,0,3.72-1.64,3.72-3.67c0-2-1.67-3.65-3.72-3.65c-2.04,0-3.7,1.64-3.7,3.65C74.96,277.98,76.62,279.6,78.66,279.6z
	 M78.66,278.34c-1.25,0-2.27-1.06-2.27-2.39s1.02-2.41,2.27-2.41c1.27,0,2.28,1.08,2.28,2.41S79.93,278.34,78.66,278.34z
	 M86.42,279.6c1.34,0,2.1-0.77,2.1-1.82c0-0.01,0-0.28-0.06-0.52c-0.03-0.18-0.15-0.25-0.32-0.25H87.5c-0.2,0-0.28,0.13-0.25,0.32
	c0.03,0.11,0.03,0.21,0.03,0.27c0,0.5-0.39,0.76-0.83,0.76c-0.45,0-0.81-0.29-0.81-1.05v-3.75h1.92c0.18,0,0.28-0.11,0.28-0.29
	v-0.55c0-0.18-0.1-0.28-0.28-0.28h-1.92v-1.58c0-0.27-0.15-0.43-0.42-0.43h-0.29c-0.25,0-0.41,0.14-0.45,0.41l-0.25,1.61h-0.88
	c-0.18,0-0.28,0.1-0.28,0.28v0.55c0,0.18,0.1,0.29,0.28,0.29h0.85v3.67C84.2,279.03,85.3,279.6,86.42,279.6z M93.23,279.6
	c0.88,0,1.82-0.21,2.63-0.87c0.32-0.27,0.32-0.56,0.1-0.8l-0.1-0.11c-0.22-0.22-0.45-0.24-0.71-0.07c-0.6,0.41-1.22,0.59-1.9,0.59
	c-1.53,0-2.6-0.95-2.56-2.25h5.43c0.34,0,0.53-0.18,0.49-0.52c-0.2-2.24-1.81-3.29-3.57-3.29c-2.18,0-3.78,1.64-3.78,3.68
	C89.25,277.97,90.76,279.6,93.23,279.6z M90.8,275.03c0.43-1.19,1.44-1.51,2.25-1.51c0.77,0,1.75,0.27,2.11,1.51H90.8z
	 M106.67,279.6c1.27,0,2.17-0.34,2.94-0.85c0.21-0.15,0.24-0.35,0.08-0.64l-0.13-0.22c-0.15-0.28-0.39-0.34-0.7-0.17
	c-0.62,0.34-1.43,0.56-2.2,0.56c-2.41,0-3.79-1.71-3.79-3.72s1.39-3.72,3.79-3.72c0.77,0,1.58,0.22,2.2,0.56
	c0.31,0.17,0.55,0.11,0.7-0.17l0.13-0.22c0.15-0.29,0.1-0.52-0.17-0.7c-0.76-0.49-1.64-0.8-2.86-0.8c-3.33,0-5.31,2.32-5.31,5.05
	C101.37,277.28,103.34,279.6,106.67,279.6z M113.61,279.45h0.42c0.32,0,0.5-0.18,0.5-0.5v-8.79c0-0.32-0.14-0.5-0.38-0.5
	c-0.25,0-0.43,0.04-0.66,0.14l-2.55,1.18c-0.27,0.13-0.38,0.35-0.28,0.66l0.06,0.21c0.1,0.32,0.35,0.45,0.66,0.31l1.71-0.77v7.57
	C113.09,279.27,113.29,279.45,113.61,279.45z"/>
<path class="st2" d="M44.01,219.45c0-0.53,0.21-1.04,0.59-1.41s0.88-0.59,1.41-0.59h4.59c0.53,0,1.04,0.21,1.41,0.59l3.41,3.41
	c0.38,0.38,0.59,0.88,0.59,1.41v8.59c0,0.53-0.21,1.04-0.59,1.41s-0.88,0.59-1.41,0.59h-8c-0.53,0-1.04-0.21-1.41-0.59
	s-0.59-0.88-0.59-1.41V219.45z M46.01,225.45c0-0.26,0.11-0.52,0.29-0.71c0.19-0.19,0.44-0.29,0.71-0.29h6
	c0.27,0,0.52,0.1,0.71,0.29c0.19,0.19,0.29,0.44,0.29,0.71s-0.11,0.52-0.29,0.71c-0.19,0.19-0.44,0.29-0.71,0.29h-6
	c-0.27,0-0.52-0.1-0.71-0.29C46.12,225.97,46.01,225.71,46.01,225.45z M47.01,228.45c-0.27,0-0.52,0.1-0.71,0.29
	c-0.19,0.19-0.29,0.44-0.29,0.71s0.11,0.52,0.29,0.71c0.19,0.19,0.44,0.29,0.71,0.29h6c0.27,0,0.52-0.1,0.71-0.29
	c0.19-0.19,0.29-0.44,0.29-0.71s-0.11-0.52-0.29-0.71c-0.19-0.19-0.44-0.29-0.71-0.29H47.01z"/>
<path class="st2" d="M44.01,243.45c0-0.53,0.21-1.04,0.59-1.41s0.88-0.59,1.41-0.59h4.59c0.53,0,1.04,0.21,1.41,0.59l3.41,3.41
	c0.38,0.38,0.59,0.88,0.59,1.41v8.59c0,0.53-0.21,1.04-0.59,1.41s-0.88,0.59-1.41,0.59h-8c-0.53,0-1.04-0.21-1.41-0.59
	s-0.59-0.88-0.59-1.41V243.45z M46.01,249.45c0-0.26,0.11-0.52,0.29-0.71c0.19-0.19,0.44-0.29,0.71-0.29h6
	c0.27,0,0.52,0.1,0.71,0.29c0.19,0.19,0.29,0.44,0.29,0.71s-0.11,0.52-0.29,0.71c-0.19,0.19-0.44,0.29-0.71,0.29h-6
	c-0.27,0-0.52-0.1-0.71-0.29C46.12,249.97,46.01,249.71,46.01,249.45z M47.01,252.45c-0.27,0-0.52,0.1-0.71,0.29
	c-0.19,0.19-0.29,0.44-0.29,0.71s0.11,0.52,0.29,0.71c0.19,0.19,0.44,0.29,0.71,0.29h6c0.27,0,0.52-0.1,0.71-0.29
	c0.19-0.19,0.29-0.44,0.29-0.71s-0.11-0.52-0.29-0.71c-0.19-0.19-0.44-0.29-0.71-0.29H47.01z"/>
<path class="st2" d="M44.01,268.45c0-0.53,0.21-1.04,0.59-1.41s0.88-0.59,1.41-0.59h4.59c0.53,0,1.04,0.21,1.41,0.59l3.41,3.41
	c0.38,0.38,0.59,0.88,0.59,1.41v8.59c0,0.53-0.21,1.04-0.59,1.41s-0.88,0.59-1.41,0.59h-8c-0.53,0-1.04-0.21-1.41-0.59
	s-0.59-0.88-0.59-1.41V268.45z M46.01,274.45c0-0.27,0.11-0.52,0.29-0.71c0.19-0.19,0.44-0.29,0.71-0.29h6
	c0.27,0,0.52,0.11,0.71,0.29c0.19,0.19,0.29,0.44,0.29,0.71s-0.11,0.52-0.29,0.71c-0.19,0.19-0.44,0.29-0.71,0.29h-6
	c-0.27,0-0.52-0.11-0.71-0.29C46.12,274.97,46.01,274.71,46.01,274.45z M47.01,277.45c-0.27,0-0.52,0.11-0.71,0.29
	c-0.19,0.19-0.29,0.44-0.29,0.71s0.11,0.52,0.29,0.71c0.19,0.19,0.44,0.29,0.71,0.29h6c0.27,0,0.52-0.11,0.71-0.29
	c0.19-0.19,0.29-0.44,0.29-0.71s-0.11-0.52-0.29-0.71c-0.19-0.19-0.44-0.29-0.71-0.29H47.01z"/>
<path class="st4" d="M32.01,175.95h129c1.93,0,3.5,1.57,3.5,3.5v114c0,1.93-1.57,3.5-3.5,3.5h-129c-1.93,0-3.5-1.57-3.5-3.5v-114
	C28.51,177.52,30.08,175.95,32.01,175.95z"/>
<path class="st1" d="M28.01,179.45c0-2.21,1.79-4,4-4h128c2.21,0,4,1.79,4,4v26h-136V179.45z"/>
<path class="st0" d="M88.11,195.6c2.11,0,3.91-1.3,3.91-3.79v-5.66c0-0.32-0.2-0.5-0.52-0.5h-0.46c-0.32,0-0.5,0.18-0.5,0.5v5.66
	c0,1.65-1.12,2.46-2.42,2.46c-1.29,0-2.41-0.81-2.41-2.46v-5.66c0-0.32-0.18-0.5-0.5-0.5h-0.48c-0.31,0-0.5,0.18-0.5,0.5v5.66
	C84.22,194.3,86.01,195.6,88.11,195.6z M96.23,195.6c1.37,0,2.55-0.77,2.55-2.11c0-0.76-0.36-1.58-1.71-2l-1.01-0.34
	c-0.41-0.13-0.81-0.36-0.81-0.81c0-0.49,0.39-0.87,1.01-0.87c0.31,0,0.62,0.08,0.85,0.36c0.2,0.25,0.36,0.38,0.66,0.29l0.27-0.06
	c0.34-0.07,0.5-0.32,0.32-0.64c-0.46-0.85-1.29-1.15-2.14-1.15c-1.4,0-2.35,0.9-2.35,2.1c0,0.99,0.67,1.6,1.75,1.92l0.94,0.32
	c0.49,0.17,0.87,0.41,0.87,0.85c0,0.53-0.5,0.92-1.18,0.92c-0.55,0-1.02-0.22-1.3-0.57c-0.18-0.24-0.35-0.36-0.63-0.29l-0.29,0.08
	c-0.34,0.08-0.5,0.31-0.34,0.63C94.15,195.14,95.15,195.6,96.23,195.6z M103.82,195.6c0.88,0,1.82-0.21,2.63-0.87
	c0.32-0.27,0.32-0.56,0.1-0.8l-0.1-0.11c-0.22-0.22-0.45-0.24-0.71-0.07c-0.6,0.41-1.22,0.59-1.9,0.59c-1.53,0-2.6-0.95-2.56-2.25
	h5.43c0.34,0,0.53-0.18,0.49-0.52c-0.2-2.24-1.81-3.29-3.57-3.29c-2.18,0-3.78,1.64-3.78,3.68
	C99.84,193.97,101.35,195.6,103.82,195.6z M101.4,191.03c0.43-1.19,1.44-1.51,2.25-1.51c0.77,0,1.75,0.27,2.11,1.51H101.4z
	 M109.23,195.45h0.42c0.32,0,0.5-0.18,0.5-0.5v-2.17c0-2.87,1.26-3.12,1.76-3.12c0.13,0,0.25,0.01,0.38,0.04
	c0.24,0.06,0.38-0.08,0.38-0.43v-0.41c0-0.28-0.04-0.52-0.34-0.56l-0.31-0.01c-0.84,0-1.64,0.6-1.88,1.72v-1.06
	c0-0.32-0.18-0.5-0.5-0.5h-0.42c-0.32,0-0.52,0.18-0.52,0.5v6.01C108.71,195.27,108.91,195.45,109.23,195.45z M119.46,195.45h0.42
	c0.32,0,0.5-0.18,0.5-0.5v-8.79c0-0.32-0.14-0.5-0.38-0.5c-0.25,0-0.43,0.04-0.66,0.14l-2.55,1.18c-0.27,0.13-0.38,0.35-0.28,0.66
	l0.06,0.21c0.1,0.32,0.35,0.45,0.66,0.31l1.71-0.77v7.57C118.94,195.27,119.14,195.45,119.46,195.45z"/>
<path class="st5" d="M70.01,188.45c0.8,0,1.56-0.32,2.12-0.88c0.56-0.56,0.88-1.32,0.88-2.12s-0.32-1.56-0.88-2.12
	c-0.56-0.56-1.33-0.88-2.12-0.88s-1.56,0.32-2.12,0.88c-0.56,0.56-0.88,1.32-0.88,2.12s0.32,1.56,0.88,2.12
	C68.45,188.13,69.22,188.45,70.01,188.45L70.01,188.45z M63.01,197.45c0-0.92,0.18-1.83,0.53-2.68c0.35-0.85,0.87-1.62,1.52-2.27
	c0.65-0.65,1.42-1.17,2.27-1.52c0.85-0.35,1.76-0.53,2.68-0.53s1.83,0.18,2.68,0.53c0.85,0.35,1.62,0.87,2.27,1.52
	c0.65,0.65,1.17,1.42,1.52,2.27c0.35,0.85,0.53,1.76,0.53,2.68H63.01z"/>
<path class="st1" d="M65.86,366.45h0.48c0.32,0,0.5-0.18,0.5-0.5v-6.61l5.03,6.8c0.17,0.22,0.36,0.31,0.63,0.31h0.2
	c0.32,0,0.52-0.18,0.52-0.5v-8.79c0-0.32-0.2-0.5-0.52-0.5h-0.48c-0.32,0-0.5,0.18-0.5,0.5v6.58l-5.01-6.78
	c-0.17-0.22-0.36-0.31-0.63-0.31h-0.21c-0.32,0-0.5,0.18-0.5,0.5v8.79C65.36,366.27,65.54,366.45,65.86,366.45z M78.66,366.6
	c2.06,0,3.72-1.64,3.72-3.67c0-2-1.67-3.65-3.72-3.65c-2.04,0-3.7,1.64-3.7,3.65C74.96,364.98,76.62,366.6,78.66,366.6z
	 M78.66,365.34c-1.25,0-2.27-1.06-2.27-2.39s1.02-2.41,2.27-2.41c1.27,0,2.28,1.08,2.28,2.41S79.93,365.34,78.66,365.34z
	 M86.42,366.6c1.34,0,2.1-0.77,2.1-1.82c0-0.01,0-0.28-0.06-0.52c-0.03-0.18-0.15-0.25-0.32-0.25H87.5c-0.2,0-0.28,0.13-0.25,0.32
	c0.03,0.11,0.03,0.21,0.03,0.27c0,0.5-0.39,0.76-0.83,0.76c-0.45,0-0.81-0.29-0.81-1.05v-3.75h1.92c0.18,0,0.28-0.11,0.28-0.29
	v-0.55c0-0.18-0.1-0.28-0.28-0.28h-1.92v-1.58c0-0.27-0.15-0.43-0.42-0.43h-0.29c-0.25,0-0.41,0.14-0.45,0.41l-0.25,1.61h-0.88
	c-0.18,0-0.28,0.1-0.28,0.28v0.55c0,0.18,0.1,0.29,0.28,0.29h0.85v3.67C84.2,366.03,85.3,366.6,86.42,366.6z M93.23,366.6
	c0.88,0,1.82-0.21,2.63-0.87c0.32-0.27,0.32-0.56,0.1-0.8l-0.1-0.11c-0.22-0.22-0.45-0.24-0.71-0.07c-0.6,0.41-1.22,0.59-1.9,0.59
	c-1.53,0-2.6-0.95-2.56-2.25h5.43c0.34,0,0.53-0.18,0.49-0.52c-0.2-2.24-1.81-3.29-3.57-3.29c-2.18,0-3.78,1.64-3.78,3.68
	C89.25,364.97,90.76,366.6,93.23,366.6z M90.8,362.03c0.43-1.19,1.44-1.51,2.25-1.51c0.77,0,1.75,0.27,2.11,1.51H90.8z
	 M101.1,366.45h0.46c0.29,0,0.48-0.13,0.59-0.41l0.6-1.6h4.68l0.6,1.6c0.11,0.28,0.31,0.41,0.6,0.41h0.45
	c0.38,0,0.52-0.24,0.39-0.59l-3.4-8.81c-0.1-0.27-0.29-0.41-0.59-0.41h-0.81c-0.28,0-0.49,0.14-0.59,0.41l-3.37,8.81
	C100.56,366.21,100.72,366.45,101.1,366.45z M103.17,363.24l1.9-5.15l1.93,5.15H103.17z M111.2,366.45h6.09c0.32,0,0.5-0.18,0.5-0.5
	v-0.2c0-0.32-0.18-0.52-0.5-0.52h-2.3c-0.15,0-1.71,0.03-2.18,0.07v-0.06l2.8-2.49c0.92-0.81,1.79-1.74,1.79-3.22
	c0-1.86-1.34-3.04-3.43-3.04c-2.28,0-3.18,1.27-3.39,2.34c-0.07,0.34,0.15,0.52,0.48,0.52h0.45c0.31,0,0.46-0.15,0.55-0.46
	c0.17-0.56,0.67-1.13,1.92-1.13c1.19,0,2,0.67,2,1.79c0,0.92-0.63,1.65-1.39,2.31l-3.74,3.37c-0.2,0.2-0.28,0.41-0.22,0.67l0.03,0.1
	C110.71,366.3,110.89,366.45,111.2,366.45z"/>
<path class="st1" d="M65.86,390.45h0.48c0.32,0,0.5-0.18,0.5-0.5v-6.61l5.03,6.8c0.17,0.22,0.36,0.31,0.63,0.31h0.2
	c0.32,0,0.52-0.18,0.52-0.5v-8.79c0-0.32-0.2-0.5-0.52-0.5h-0.48c-0.32,0-0.5,0.18-0.5,0.5v6.58l-5.01-6.78
	c-0.17-0.22-0.36-0.31-0.63-0.31h-0.21c-0.32,0-0.5,0.18-0.5,0.5v8.79C65.36,390.27,65.54,390.45,65.86,390.45z M78.66,390.6
	c2.06,0,3.72-1.64,3.72-3.67c0-2-1.67-3.65-3.72-3.65c-2.04,0-3.7,1.64-3.7,3.65C74.96,388.98,76.62,390.6,78.66,390.6z
	 M78.66,389.34c-1.25,0-2.27-1.06-2.27-2.39s1.02-2.41,2.27-2.41c1.27,0,2.28,1.08,2.28,2.41S79.93,389.34,78.66,389.34z
	 M86.42,390.6c1.34,0,2.1-0.77,2.1-1.82c0-0.01,0-0.28-0.06-0.52c-0.03-0.18-0.15-0.25-0.32-0.25H87.5c-0.2,0-0.28,0.13-0.25,0.32
	c0.03,0.11,0.03,0.21,0.03,0.27c0,0.5-0.39,0.76-0.83,0.76c-0.45,0-0.81-0.29-0.81-1.05v-3.75h1.92c0.18,0,0.28-0.11,0.28-0.29
	v-0.55c0-0.18-0.1-0.28-0.28-0.28h-1.92v-1.58c0-0.27-0.15-0.43-0.42-0.43h-0.29c-0.25,0-0.41,0.14-0.45,0.41l-0.25,1.61h-0.88
	c-0.18,0-0.28,0.1-0.28,0.28v0.55c0,0.18,0.1,0.29,0.28,0.29h0.85v3.67C84.2,390.03,85.3,390.6,86.42,390.6z M93.23,390.6
	c0.88,0,1.82-0.21,2.63-0.87c0.32-0.27,0.32-0.56,0.1-0.8l-0.1-0.11c-0.22-0.22-0.45-0.24-0.71-0.07c-0.6,0.41-1.22,0.59-1.9,0.59
	c-1.53,0-2.6-0.95-2.56-2.25h5.43c0.34,0,0.53-0.18,0.49-0.52c-0.2-2.24-1.81-3.29-3.57-3.29c-2.18,0-3.78,1.64-3.78,3.68
	C89.25,388.97,90.76,390.6,93.23,390.6z M90.8,386.03c0.43-1.19,1.44-1.51,2.25-1.51c0.77,0,1.75,0.27,2.11,1.51H90.8z
	 M107.02,385.42c1.27-0.32,1.85-1.23,1.85-2.24c0-1.58-1.39-2.53-3.26-2.53h-3.02c-0.32,0-0.5,0.18-0.5,0.5v8.79
	c0,0.32,0.18,0.5,0.5,0.5h3.47c1.96,0,3.28-1.04,3.28-2.62C109.33,386.63,108.56,385.59,107.02,385.42z M105.59,381.87
	c0.94,0,1.75,0.49,1.75,1.43c0,0.84-0.63,1.67-2.3,1.67h-1.48v-3.09H105.59z M106.04,389.23h-2.48v-3.15h1.79
	c1.74,0,2.46,0.83,2.46,1.69C107.82,388.66,107.08,389.23,106.04,389.23z M111.31,390.45h6.09c0.32,0,0.5-0.18,0.5-0.5v-0.2
	c0-0.32-0.18-0.52-0.5-0.52h-2.3c-0.15,0-1.71,0.03-2.18,0.07v-0.06l2.8-2.49c0.92-0.81,1.79-1.74,1.79-3.22
	c0-1.86-1.34-3.04-3.43-3.04c-2.28,0-3.18,1.27-3.39,2.34c-0.07,0.34,0.15,0.52,0.48,0.52h0.45c0.31,0,0.46-0.15,0.55-0.46
	c0.17-0.56,0.67-1.13,1.92-1.13c1.19,0,2,0.67,2,1.79c0,0.92-0.63,1.65-1.39,2.31l-3.74,3.37c-0.2,0.2-0.28,0.41-0.22,0.67l0.03,0.1
	C110.82,390.3,111,390.45,111.31,390.45z"/>
<path class="st1" d="M65.86,415.45h0.48c0.32,0,0.5-0.18,0.5-0.5v-6.61l5.03,6.8c0.17,0.22,0.36,0.31,0.63,0.31h0.2
	c0.32,0,0.52-0.18,0.52-0.5v-8.79c0-0.32-0.2-0.5-0.52-0.5h-0.48c-0.32,0-0.5,0.18-0.5,0.5v6.58l-5.01-6.78
	c-0.17-0.22-0.36-0.31-0.63-0.31h-0.21c-0.32,0-0.5,0.18-0.5,0.5v8.79C65.36,415.27,65.54,415.45,65.86,415.45z M78.66,415.6
	c2.06,0,3.72-1.64,3.72-3.67c0-2-1.67-3.65-3.72-3.65c-2.04,0-3.7,1.64-3.7,3.65C74.96,413.98,76.62,415.6,78.66,415.6z
	 M78.66,414.34c-1.25,0-2.27-1.06-2.27-2.39s1.02-2.41,2.27-2.41c1.27,0,2.28,1.08,2.28,2.41S79.93,414.34,78.66,414.34z
	 M86.42,415.6c1.34,0,2.1-0.77,2.1-1.82c0-0.01,0-0.28-0.06-0.52c-0.03-0.18-0.15-0.25-0.32-0.25H87.5c-0.2,0-0.28,0.13-0.25,0.32
	c0.03,0.11,0.03,0.21,0.03,0.27c0,0.5-0.39,0.76-0.83,0.76c-0.45,0-0.81-0.29-0.81-1.05v-3.75h1.92c0.18,0,0.28-0.11,0.28-0.29
	v-0.55c0-0.18-0.1-0.28-0.28-0.28h-1.92v-1.58c0-0.27-0.15-0.43-0.42-0.43h-0.29c-0.25,0-0.41,0.14-0.45,0.41l-0.25,1.61h-0.88
	c-0.18,0-0.28,0.1-0.28,0.28v0.55c0,0.18,0.1,0.29,0.28,0.29h0.85v3.67C84.2,415.03,85.3,415.6,86.42,415.6z M93.23,415.6
	c0.88,0,1.82-0.21,2.63-0.87c0.32-0.27,0.32-0.56,0.1-0.8l-0.1-0.11c-0.22-0.22-0.45-0.24-0.71-0.07c-0.6,0.41-1.22,0.59-1.9,0.59
	c-1.53,0-2.6-0.95-2.56-2.25h5.43c0.34,0,0.53-0.18,0.49-0.52c-0.2-2.24-1.81-3.29-3.57-3.29c-2.18,0-3.78,1.64-3.78,3.68
	C89.25,413.97,90.76,415.6,93.23,415.6z M90.8,411.03c0.43-1.19,1.44-1.51,2.25-1.51c0.77,0,1.75,0.27,2.11,1.51H90.8z
	 M106.67,415.6c1.27,0,2.17-0.34,2.94-0.85c0.21-0.15,0.24-0.35,0.08-0.64l-0.13-0.22c-0.15-0.28-0.39-0.34-0.7-0.17
	c-0.62,0.34-1.43,0.56-2.2,0.56c-2.41,0-3.79-1.71-3.79-3.72s1.39-3.72,3.79-3.72c0.77,0,1.58,0.22,2.2,0.56
	c0.31,0.17,0.55,0.11,0.7-0.17l0.13-0.22c0.15-0.29,0.1-0.52-0.17-0.7c-0.76-0.49-1.64-0.8-2.86-0.8c-3.33,0-5.31,2.32-5.31,5.05
	C101.37,413.28,103.34,415.6,106.67,415.6z M111.65,415.45h6.09c0.32,0,0.5-0.18,0.5-0.5v-0.2c0-0.32-0.18-0.52-0.5-0.52h-2.3
	c-0.15,0-1.71,0.03-2.18,0.07v-0.06l2.8-2.49c0.92-0.81,1.79-1.74,1.79-3.22c0-1.86-1.34-3.04-3.43-3.04
	c-2.28,0-3.18,1.27-3.39,2.34c-0.07,0.34,0.15,0.52,0.48,0.52h0.45c0.31,0,0.46-0.15,0.55-0.46c0.17-0.56,0.67-1.13,1.92-1.13
	c1.19,0,2,0.67,2,1.79c0,0.92-0.63,1.65-1.39,2.31l-3.74,3.37c-0.2,0.2-0.28,0.41-0.22,0.67l0.03,0.1
	C111.16,415.3,111.34,415.45,111.65,415.45z"/>
<path class="st2" d="M44.01,355.45c0-0.53,0.21-1.04,0.59-1.41s0.88-0.59,1.41-0.59h4.59c0.53,0,1.04,0.21,1.41,0.59l3.41,3.41
	c0.38,0.38,0.59,0.88,0.59,1.41v8.59c0,0.53-0.21,1.04-0.59,1.41s-0.88,0.59-1.41,0.59h-8c-0.53,0-1.04-0.21-1.41-0.59
	s-0.59-0.88-0.59-1.41V355.45z M46.01,361.45c0-0.27,0.11-0.52,0.29-0.71c0.19-0.19,0.44-0.29,0.71-0.29h6
	c0.27,0,0.52,0.11,0.71,0.29c0.19,0.19,0.29,0.44,0.29,0.71s-0.11,0.52-0.29,0.71c-0.19,0.19-0.44,0.29-0.71,0.29h-6
	c-0.27,0-0.52-0.11-0.71-0.29C46.12,361.97,46.01,361.71,46.01,361.45z M47.01,364.45c-0.27,0-0.52,0.11-0.71,0.29
	c-0.19,0.19-0.29,0.44-0.29,0.71s0.11,0.52,0.29,0.71c0.19,0.19,0.44,0.29,0.71,0.29h6c0.27,0,0.52-0.11,0.71-0.29
	c0.19-0.19,0.29-0.44,0.29-0.71s-0.11-0.52-0.29-0.71c-0.19-0.19-0.44-0.29-0.71-0.29H47.01z"/>
<path class="st2" d="M44.01,379.45c0-0.53,0.21-1.04,0.59-1.41s0.88-0.59,1.41-0.59h4.59c0.53,0,1.04,0.21,1.41,0.59l3.41,3.41
	c0.38,0.38,0.59,0.88,0.59,1.41v8.59c0,0.53-0.21,1.04-0.59,1.41s-0.88,0.59-1.41,0.59h-8c-0.53,0-1.04-0.21-1.41-0.59
	s-0.59-0.88-0.59-1.41V379.45z M46.01,385.45c0-0.27,0.11-0.52,0.29-0.71c0.19-0.19,0.44-0.29,0.71-0.29h6
	c0.27,0,0.52,0.11,0.71,0.29c0.19,0.19,0.29,0.44,0.29,0.71s-0.11,0.52-0.29,0.71c-0.19,0.19-0.44,0.29-0.71,0.29h-6
	c-0.27,0-0.52-0.11-0.71-0.29C46.12,385.97,46.01,385.71,46.01,385.45z M47.01,388.45c-0.27,0-0.52,0.11-0.71,0.29
	c-0.19,0.19-0.29,0.44-0.29,0.71s0.11,0.52,0.29,0.71c0.19,0.19,0.44,0.29,0.71,0.29h6c0.27,0,0.52-0.11,0.71-0.29
	c0.19-0.19,0.29-0.44,0.29-0.71s-0.11-0.52-0.29-0.71c-0.19-0.19-0.44-0.29-0.71-0.29H47.01z"/>
<path class="st2" d="M44.01,404.45c0-0.53,0.21-1.04,0.59-1.41s0.88-0.59,1.41-0.59h4.59c0.53,0,1.04,0.21,1.41,0.59l3.41,3.41
	c0.38,0.38,0.59,0.88,0.59,1.41v8.59c0,0.53-0.21,1.04-0.59,1.41s-0.88,0.59-1.41,0.59h-8c-0.53,0-1.04-0.21-1.41-0.59
	s-0.59-0.88-0.59-1.41V404.45z M46.01,410.45c0-0.27,0.11-0.52,0.29-0.71c0.19-0.19,0.44-0.29,0.71-0.29h6
	c0.27,0,0.52,0.11,0.71,0.29c0.19,0.19,0.29,0.44,0.29,0.71s-0.11,0.52-0.29,0.71c-0.19,0.19-0.44,0.29-0.71,0.29h-6
	c-0.27,0-0.52-0.11-0.71-0.29C46.12,410.97,46.01,410.71,46.01,410.45z M47.01,413.45c-0.27,0-0.52,0.11-0.71,0.29
	c-0.19,0.19-0.29,0.44-0.29,0.71s0.11,0.52,0.29,0.71c0.19,0.19,0.44,0.29,0.71,0.29h6c0.27,0,0.52-0.11,0.71-0.29
	c0.19-0.19,0.29-0.44,0.29-0.71s-0.11-0.52-0.29-0.71c-0.19-0.19-0.44-0.29-0.71-0.29H47.01z"/>
<path class="st4" d="M32.01,311.95h129c1.93,0,3.5,1.57,3.5,3.5v114c0,1.93-1.57,3.5-3.5,3.5h-129c-1.93,0-3.5-1.57-3.5-3.5v-114
	C28.51,313.52,30.08,311.95,32.01,311.95z"/>
<path class="st1" d="M28.01,315.45c0-2.21,1.79-4,4-4h128c2.21,0,4,1.79,4,4v26h-136V315.45z"/>
<path class="st0" d="M88.11,331.6c2.11,0,3.91-1.3,3.91-3.79v-5.66c0-0.32-0.2-0.5-0.52-0.5h-0.46c-0.32,0-0.5,0.18-0.5,0.5v5.66
	c0,1.65-1.12,2.46-2.42,2.46c-1.29,0-2.41-0.81-2.41-2.46v-5.66c0-0.32-0.18-0.5-0.5-0.5h-0.48c-0.31,0-0.5,0.18-0.5,0.5v5.66
	C84.22,330.3,86.01,331.6,88.11,331.6z M96.23,331.6c1.37,0,2.55-0.77,2.55-2.11c0-0.76-0.36-1.58-1.71-2l-1.01-0.34
	c-0.41-0.13-0.81-0.36-0.81-0.81c0-0.49,0.39-0.87,1.01-0.87c0.31,0,0.62,0.08,0.85,0.36c0.2,0.25,0.36,0.38,0.66,0.29l0.27-0.06
	c0.34-0.07,0.5-0.32,0.32-0.64c-0.46-0.85-1.29-1.15-2.14-1.15c-1.4,0-2.35,0.9-2.35,2.1c0,0.99,0.67,1.6,1.75,1.92l0.94,0.32
	c0.49,0.17,0.87,0.41,0.87,0.85c0,0.53-0.5,0.92-1.18,0.92c-0.55,0-1.02-0.22-1.3-0.57c-0.18-0.24-0.35-0.36-0.63-0.29l-0.29,0.08
	c-0.34,0.08-0.5,0.31-0.34,0.63C94.15,331.14,95.15,331.6,96.23,331.6z M103.82,331.6c0.88,0,1.82-0.21,2.63-0.87
	c0.32-0.27,0.32-0.56,0.1-0.8l-0.1-0.11c-0.22-0.22-0.45-0.24-0.71-0.07c-0.6,0.41-1.22,0.59-1.9,0.59c-1.53,0-2.6-0.95-2.56-2.25
	h5.43c0.34,0,0.53-0.18,0.49-0.52c-0.2-2.24-1.81-3.29-3.57-3.29c-2.18,0-3.78,1.64-3.78,3.68
	C99.84,329.97,101.35,331.6,103.82,331.6z M101.4,327.03c0.43-1.19,1.44-1.51,2.25-1.51c0.77,0,1.75,0.27,2.11,1.51H101.4z
	 M109.23,331.45h0.42c0.32,0,0.5-0.18,0.5-0.5v-2.17c0-2.87,1.26-3.12,1.76-3.12c0.13,0,0.25,0.01,0.38,0.04
	c0.24,0.06,0.38-0.08,0.38-0.43v-0.41c0-0.28-0.04-0.52-0.34-0.56l-0.31-0.01c-0.84,0-1.64,0.6-1.88,1.72v-1.06
	c0-0.32-0.18-0.5-0.5-0.5h-0.42c-0.32,0-0.52,0.18-0.52,0.5v6.01C108.71,331.27,108.91,331.45,109.23,331.45z M117.5,331.45h6.09
	c0.32,0,0.5-0.18,0.5-0.5v-0.2c0-0.32-0.18-0.52-0.5-0.52h-2.3c-0.15,0-1.71,0.03-2.18,0.07v-0.06l2.8-2.49
	c0.92-0.81,1.79-1.74,1.79-3.22c0-1.86-1.34-3.04-3.43-3.04c-2.28,0-3.18,1.27-3.39,2.34c-0.07,0.34,0.15,0.52,0.48,0.52h0.45
	c0.31,0,0.46-0.15,0.55-0.46c0.17-0.56,0.67-1.13,1.92-1.13c1.19,0,2,0.67,2,1.79c0,0.92-0.63,1.65-1.39,2.31l-3.74,3.37
	c-0.2,0.2-0.28,0.41-0.22,0.67l0.03,0.1C117.01,331.3,117.19,331.45,117.5,331.45z"/>
<path class="st5" d="M70.01,324.45c0.8,0,1.56-0.32,2.12-0.88c0.56-0.56,0.88-1.33,0.88-2.12s-0.32-1.56-0.88-2.12
	c-0.56-0.56-1.33-0.88-2.12-0.88s-1.56,0.32-2.12,0.88c-0.56,0.56-0.88,1.33-0.88,2.12s0.32,1.56,0.88,2.12
	C68.45,324.13,69.22,324.45,70.01,324.45L70.01,324.45z M63.01,333.45c0-0.92,0.18-1.83,0.53-2.68c0.35-0.85,0.87-1.62,1.52-2.27
	c0.65-0.65,1.42-1.16,2.27-1.52c0.85-0.35,1.76-0.53,2.68-0.53s1.83,0.18,2.68,0.53c0.85,0.35,1.62,0.87,2.27,1.52
	c0.65,0.65,1.17,1.42,1.52,2.27c0.35,0.85,0.53,1.76,0.53,2.68H63.01z"/>
<path class="st1" d="M65.86,502.45h0.48c0.32,0,0.5-0.18,0.5-0.5v-6.61l5.03,6.8c0.17,0.22,0.36,0.31,0.63,0.31h0.2
	c0.32,0,0.52-0.18,0.52-0.5v-8.79c0-0.32-0.2-0.5-0.52-0.5h-0.48c-0.32,0-0.5,0.18-0.5,0.5v6.58l-5.01-6.78
	c-0.17-0.22-0.36-0.31-0.63-0.31h-0.21c-0.32,0-0.5,0.18-0.5,0.5v8.79C65.36,502.27,65.54,502.45,65.86,502.45z M78.66,502.6
	c2.06,0,3.72-1.64,3.72-3.67c0-2-1.67-3.65-3.72-3.65c-2.04,0-3.7,1.64-3.7,3.65C74.96,500.98,76.62,502.6,78.66,502.6z
	 M78.66,501.34c-1.25,0-2.27-1.06-2.27-2.39s1.02-2.41,2.27-2.41c1.27,0,2.28,1.08,2.28,2.41S79.93,501.34,78.66,501.34z
	 M86.42,502.6c1.34,0,2.1-0.77,2.1-1.82c0-0.01,0-0.28-0.06-0.52c-0.03-0.18-0.15-0.25-0.32-0.25H87.5c-0.2,0-0.28,0.13-0.25,0.32
	c0.03,0.11,0.03,0.21,0.03,0.27c0,0.5-0.39,0.76-0.83,0.76c-0.45,0-0.81-0.29-0.81-1.05v-3.75h1.92c0.18,0,0.28-0.11,0.28-0.29
	v-0.55c0-0.18-0.1-0.28-0.28-0.28h-1.92v-1.58c0-0.27-0.15-0.43-0.42-0.43h-0.29c-0.25,0-0.41,0.14-0.45,0.41l-0.25,1.61h-0.88
	c-0.18,0-0.28,0.1-0.28,0.28v0.55c0,0.18,0.1,0.29,0.28,0.29h0.85v3.67C84.2,502.03,85.3,502.6,86.42,502.6z M93.23,502.6
	c0.88,0,1.82-0.21,2.63-0.87c0.32-0.27,0.32-0.56,0.1-0.8l-0.1-0.11c-0.22-0.22-0.45-0.24-0.71-0.07c-0.6,0.41-1.22,0.59-1.9,0.59
	c-1.53,0-2.6-0.95-2.56-2.25h5.43c0.34,0,0.53-0.18,0.49-0.52c-0.2-2.24-1.81-3.29-3.57-3.29c-2.18,0-3.78,1.64-3.78,3.68
	C89.25,500.97,90.76,502.6,93.23,502.6z M90.8,498.03c0.43-1.19,1.44-1.51,2.25-1.51c0.77,0,1.75,0.27,2.11,1.51H90.8z
	 M101.1,502.45h0.46c0.29,0,0.48-0.13,0.59-0.41l0.6-1.6h4.68l0.6,1.6c0.11,0.28,0.31,0.41,0.6,0.41h0.45
	c0.38,0,0.52-0.24,0.39-0.59l-3.4-8.81c-0.1-0.27-0.29-0.41-0.59-0.41h-0.81c-0.28,0-0.49,0.14-0.59,0.41l-3.37,8.81
	C100.56,502.21,100.72,502.45,101.1,502.45z M103.17,499.24l1.9-5.15l1.93,5.15H103.17z M113.75,502.6c2.51,0,3.93-1.5,3.93-3.39
	c0-1.68-1.26-2.7-2.67-2.93c-0.18-0.04-0.39-0.06-0.6-0.06l2.7-2.46c0.17-0.17,0.24-0.32,0.24-0.55v-0.14
	c0-0.28-0.15-0.43-0.43-0.43h-5.73c-0.28,0-0.43,0.15-0.43,0.43v0.34c0,0.28,0.15,0.45,0.43,0.45h3.96l-2.86,2.77
	c-0.21,0.21-0.21,0.41-0.04,0.62l0.15,0.18c0.17,0.22,0.36,0.22,0.62,0.1c0.38-0.18,0.83-0.22,1.05-0.22c1.22,0,2.17,0.8,2.17,1.92
	c0,0.95-0.81,2.09-2.51,2.09c-0.92,0-1.51-0.11-2.24-0.56c-0.22-0.15-0.45-0.14-0.62,0.07l-0.27,0.29
	c-0.18,0.22-0.17,0.45,0.07,0.62C111.35,502.23,112.38,502.6,113.75,502.6z"/>
<path class="st1" d="M65.86,526.45h0.48c0.32,0,0.5-0.18,0.5-0.5v-6.61l5.03,6.8c0.17,0.22,0.36,0.31,0.63,0.31h0.2
	c0.32,0,0.52-0.18,0.52-0.5v-8.79c0-0.32-0.2-0.5-0.52-0.5h-0.48c-0.32,0-0.5,0.18-0.5,0.5v6.58l-5.01-6.78
	c-0.17-0.22-0.36-0.31-0.63-0.31h-0.21c-0.32,0-0.5,0.18-0.5,0.5v8.79C65.36,526.27,65.54,526.45,65.86,526.45z M78.66,526.6
	c2.06,0,3.72-1.64,3.72-3.67c0-2-1.67-3.65-3.72-3.65c-2.04,0-3.7,1.64-3.7,3.65C74.96,524.98,76.62,526.6,78.66,526.6z
	 M78.66,525.34c-1.25,0-2.27-1.06-2.27-2.39s1.02-2.41,2.27-2.41c1.27,0,2.28,1.08,2.28,2.41S79.93,525.34,78.66,525.34z
	 M86.42,526.6c1.34,0,2.1-0.77,2.1-1.82c0-0.01,0-0.28-0.06-0.52c-0.03-0.18-0.15-0.25-0.32-0.25H87.5c-0.2,0-0.28,0.13-0.25,0.32
	c0.03,0.11,0.03,0.21,0.03,0.27c0,0.5-0.39,0.76-0.83,0.76c-0.45,0-0.81-0.29-0.81-1.05v-3.75h1.92c0.18,0,0.28-0.11,0.28-0.29
	v-0.55c0-0.18-0.1-0.28-0.28-0.28h-1.92v-1.58c0-0.27-0.15-0.43-0.42-0.43h-0.29c-0.25,0-0.41,0.14-0.45,0.41l-0.25,1.61h-0.88
	c-0.18,0-0.28,0.1-0.28,0.28v0.55c0,0.18,0.1,0.29,0.28,0.29h0.85v3.67C84.2,526.03,85.3,526.6,86.42,526.6z M93.23,526.6
	c0.88,0,1.82-0.21,2.63-0.87c0.32-0.27,0.32-0.56,0.1-0.8l-0.1-0.11c-0.22-0.22-0.45-0.24-0.71-0.07c-0.6,0.41-1.22,0.59-1.9,0.59
	c-1.53,0-2.6-0.95-2.56-2.25h5.43c0.34,0,0.53-0.18,0.49-0.52c-0.2-2.24-1.81-3.29-3.57-3.29c-2.18,0-3.78,1.64-3.78,3.68
	C89.25,524.97,90.76,526.6,93.23,526.6z M90.8,522.03c0.43-1.19,1.44-1.51,2.25-1.51c0.77,0,1.75,0.27,2.11,1.51H90.8z
	 M107.02,521.42c1.27-0.32,1.85-1.23,1.85-2.24c0-1.58-1.39-2.53-3.26-2.53h-3.02c-0.32,0-0.5,0.18-0.5,0.5v8.79
	c0,0.32,0.18,0.5,0.5,0.5h3.47c1.96,0,3.28-1.04,3.28-2.62C109.33,522.63,108.56,521.59,107.02,521.42z M105.59,517.87
	c0.94,0,1.75,0.49,1.75,1.43c0,0.84-0.63,1.67-2.3,1.67h-1.48v-3.09H105.59z M106.04,525.23h-2.48v-3.15h1.79
	c1.74,0,2.46,0.83,2.46,1.69C107.82,524.66,107.08,525.23,106.04,525.23z M113.86,526.6c2.51,0,3.93-1.5,3.93-3.39
	c0-1.68-1.26-2.7-2.67-2.93c-0.18-0.04-0.39-0.06-0.6-0.06l2.7-2.46c0.17-0.17,0.24-0.32,0.24-0.55v-0.14
	c0-0.28-0.15-0.43-0.43-0.43h-5.73c-0.28,0-0.43,0.15-0.43,0.43v0.34c0,0.28,0.15,0.45,0.43,0.45h3.96l-2.86,2.77
	c-0.21,0.21-0.21,0.41-0.04,0.62l0.15,0.18c0.17,0.22,0.36,0.22,0.62,0.1c0.38-0.18,0.83-0.22,1.05-0.22c1.22,0,2.17,0.8,2.17,1.92
	c0,0.95-0.81,2.09-2.51,2.09c-0.92,0-1.51-0.11-2.24-0.56c-0.22-0.15-0.45-0.14-0.62,0.07l-0.27,0.29
	c-0.18,0.22-0.17,0.45,0.07,0.62C111.46,526.23,112.48,526.6,113.86,526.6z"/>
<path class="st1" d="M65.86,551.45h0.48c0.32,0,0.5-0.18,0.5-0.5v-6.61l5.03,6.8c0.17,0.22,0.36,0.31,0.63,0.31h0.2
	c0.32,0,0.52-0.18,0.52-0.5v-8.79c0-0.32-0.2-0.5-0.52-0.5h-0.48c-0.32,0-0.5,0.18-0.5,0.5v6.58l-5.01-6.78
	c-0.17-0.22-0.36-0.31-0.63-0.31h-0.21c-0.32,0-0.5,0.18-0.5,0.5v8.79C65.36,551.27,65.54,551.45,65.86,551.45z M78.66,551.6
	c2.06,0,3.72-1.64,3.72-3.67c0-2-1.67-3.65-3.72-3.65c-2.04,0-3.7,1.64-3.7,3.65C74.96,549.98,76.62,551.6,78.66,551.6z
	 M78.66,550.34c-1.25,0-2.27-1.06-2.27-2.39s1.02-2.41,2.27-2.41c1.27,0,2.28,1.08,2.28,2.41S79.93,550.34,78.66,550.34z
	 M86.42,551.6c1.34,0,2.1-0.77,2.1-1.82c0-0.01,0-0.28-0.06-0.52c-0.03-0.18-0.15-0.25-0.32-0.25H87.5c-0.2,0-0.28,0.13-0.25,0.32
	c0.03,0.11,0.03,0.21,0.03,0.27c0,0.5-0.39,0.76-0.83,0.76c-0.45,0-0.81-0.29-0.81-1.05v-3.75h1.92c0.18,0,0.28-0.11,0.28-0.29
	v-0.55c0-0.18-0.1-0.28-0.28-0.28h-1.92v-1.58c0-0.27-0.15-0.43-0.42-0.43h-0.29c-0.25,0-0.41,0.14-0.45,0.41l-0.25,1.61h-0.88
	c-0.18,0-0.28,0.1-0.28,0.28v0.55c0,0.18,0.1,0.29,0.28,0.29h0.85v3.67C84.2,551.03,85.3,551.6,86.42,551.6z M93.23,551.6
	c0.88,0,1.82-0.21,2.63-0.87c0.32-0.27,0.32-0.56,0.1-0.8l-0.1-0.11c-0.22-0.22-0.45-0.24-0.71-0.07c-0.6,0.41-1.22,0.59-1.9,0.59
	c-1.53,0-2.6-0.95-2.56-2.25h5.43c0.34,0,0.53-0.18,0.49-0.52c-0.2-2.24-1.81-3.29-3.57-3.29c-2.18,0-3.78,1.64-3.78,3.68
	C89.25,549.97,90.76,551.6,93.23,551.6z M90.8,547.03c0.43-1.19,1.44-1.51,2.25-1.51c0.77,0,1.75,0.27,2.11,1.51H90.8z
	 M106.67,551.6c1.27,0,2.17-0.34,2.94-0.85c0.21-0.15,0.24-0.35,0.08-0.64l-0.13-0.22c-0.15-0.28-0.39-0.34-0.7-0.17
	c-0.62,0.34-1.43,0.56-2.2,0.56c-2.41,0-3.79-1.71-3.79-3.72c0-2.02,1.39-3.72,3.79-3.72c0.77,0,1.58,0.22,2.2,0.56
	c0.31,0.17,0.55,0.11,0.7-0.17l0.13-0.22c0.15-0.29,0.1-0.52-0.17-0.7c-0.76-0.49-1.64-0.8-2.86-0.8c-3.33,0-5.31,2.32-5.31,5.05
	C101.37,549.28,103.34,551.6,106.67,551.6z M114.2,551.6c2.51,0,3.93-1.5,3.93-3.39c0-1.68-1.26-2.7-2.67-2.93
	c-0.18-0.04-0.39-0.06-0.6-0.06l2.7-2.46c0.17-0.17,0.24-0.32,0.24-0.55v-0.14c0-0.28-0.15-0.43-0.43-0.43h-5.73
	c-0.28,0-0.43,0.15-0.43,0.43v0.34c0,0.28,0.15,0.45,0.43,0.45h3.96l-2.86,2.77c-0.21,0.21-0.21,0.41-0.04,0.62l0.15,0.18
	c0.17,0.22,0.36,0.22,0.62,0.1c0.38-0.18,0.83-0.22,1.05-0.22c1.22,0,2.17,0.8,2.17,1.92c0,0.95-0.81,2.09-2.51,2.09
	c-0.92,0-1.51-0.11-2.24-0.56c-0.22-0.15-0.45-0.14-0.62,0.07l-0.27,0.29c-0.18,0.22-0.17,0.45,0.07,0.62
	C111.8,551.23,112.83,551.6,114.2,551.6z"/>
<path class="st2" d="M44.01,491.45c0-0.53,0.21-1.04,0.59-1.41s0.88-0.59,1.41-0.59h4.59c0.53,0,1.04,0.21,1.41,0.59l3.41,3.41
	c0.38,0.38,0.59,0.88,0.59,1.41v8.59c0,0.53-0.21,1.04-0.59,1.41s-0.88,0.59-1.41,0.59h-8c-0.53,0-1.04-0.21-1.41-0.59
	s-0.59-0.88-0.59-1.41V491.45z M46.01,497.45c0-0.27,0.11-0.52,0.29-0.71c0.19-0.19,0.44-0.29,0.71-0.29h6
	c0.27,0,0.52,0.11,0.71,0.29c0.19,0.19,0.29,0.44,0.29,0.71s-0.11,0.52-0.29,0.71c-0.19,0.19-0.44,0.29-0.71,0.29h-6
	c-0.27,0-0.52-0.11-0.71-0.29C46.12,497.97,46.01,497.71,46.01,497.45z M47.01,500.45c-0.27,0-0.52,0.11-0.71,0.29
	c-0.19,0.19-0.29,0.44-0.29,0.71s0.11,0.52,0.29,0.71c0.19,0.19,0.44,0.29,0.71,0.29h6c0.27,0,0.52-0.11,0.71-0.29
	c0.19-0.19,0.29-0.44,0.29-0.71s-0.11-0.52-0.29-0.71c-0.19-0.19-0.44-0.29-0.71-0.29H47.01z"/>
<path class="st2" d="M44.01,515.45c0-0.53,0.21-1.04,0.59-1.41s0.88-0.59,1.41-0.59h4.59c0.53,0,1.04,0.21,1.41,0.59l3.41,3.41
	c0.38,0.38,0.59,0.88,0.59,1.41v8.59c0,0.53-0.21,1.04-0.59,1.41s-0.88,0.59-1.41,0.59h-8c-0.53,0-1.04-0.21-1.41-0.59
	s-0.59-0.88-0.59-1.41V515.45z M46.01,521.45c0-0.27,0.11-0.52,0.29-0.71c0.19-0.19,0.44-0.29,0.71-0.29h6
	c0.27,0,0.52,0.1,0.71,0.29c0.19,0.19,0.29,0.44,0.29,0.71s-0.11,0.52-0.29,0.71c-0.19,0.19-0.44,0.29-0.71,0.29h-6
	c-0.27,0-0.52-0.1-0.71-0.29C46.12,521.97,46.01,521.71,46.01,521.45z M47.01,524.45c-0.27,0-0.52,0.1-0.71,0.29
	c-0.19,0.19-0.29,0.44-0.29,0.71s0.11,0.52,0.29,0.71c0.19,0.19,0.44,0.29,0.71,0.29h6c0.27,0,0.52-0.1,0.71-0.29
	c0.19-0.19,0.29-0.44,0.29-0.71s-0.11-0.52-0.29-0.71c-0.19-0.19-0.44-0.29-0.71-0.29H47.01z"/>
<path class="st2" d="M44.01,540.45c0-0.53,0.21-1.04,0.59-1.41s0.88-0.59,1.41-0.59h4.59c0.53,0,1.04,0.21,1.41,0.59l3.41,3.41
	c0.38,0.38,0.59,0.88,0.59,1.41v8.59c0,0.53-0.21,1.04-0.59,1.41s-0.88,0.59-1.41,0.59h-8c-0.53,0-1.04-0.21-1.41-0.59
	s-0.59-0.88-0.59-1.41V540.45z M46.01,546.45c0-0.27,0.11-0.52,0.29-0.71c0.19-0.19,0.44-0.29,0.71-0.29h6
	c0.27,0,0.52,0.1,0.71,0.29c0.19,0.19,0.29,0.44,0.29,0.71s-0.11,0.52-0.29,0.71c-0.19,0.19-0.44,0.29-0.71,0.29h-6
	c-0.27,0-0.52-0.1-0.71-0.29C46.12,546.97,46.01,546.71,46.01,546.45z M47.01,549.45c-0.27,0-0.52,0.1-0.71,0.29
	c-0.19,0.19-0.29,0.44-0.29,0.71s0.11,0.52,0.29,0.71c0.19,0.19,0.44,0.29,0.71,0.29h6c0.27,0,0.52-0.1,0.71-0.29
	c0.19-0.19,0.29-0.44,0.29-0.71s-0.11-0.52-0.29-0.71c-0.19-0.19-0.44-0.29-0.71-0.29H47.01z"/>
<path class="st4" d="M32.01,447.95h129c1.93,0,3.5,1.57,3.5,3.5v114c0,1.93-1.57,3.5-3.5,3.5h-129c-1.93,0-3.5-1.57-3.5-3.5v-114
	C28.51,449.52,30.08,447.95,32.01,447.95z"/>
<path class="st1" d="M28.01,451.45c0-2.21,1.79-4,4-4h128c2.21,0,4,1.79,4,4v26h-136V451.45z"/>
<path class="st0" d="M88.11,467.6c2.11,0,3.91-1.3,3.91-3.79v-5.66c0-0.32-0.2-0.5-0.52-0.5h-0.46c-0.32,0-0.5,0.18-0.5,0.5v5.66
	c0,1.65-1.12,2.46-2.42,2.46c-1.29,0-2.41-0.81-2.41-2.46v-5.66c0-0.32-0.18-0.5-0.5-0.5h-0.48c-0.31,0-0.5,0.18-0.5,0.5v5.66
	C84.22,466.3,86.01,467.6,88.11,467.6z M96.23,467.6c1.37,0,2.55-0.77,2.55-2.11c0-0.76-0.36-1.58-1.71-2l-1.01-0.34
	c-0.41-0.13-0.81-0.36-0.81-0.81c0-0.49,0.39-0.87,1.01-0.87c0.31,0,0.62,0.08,0.85,0.36c0.2,0.25,0.36,0.38,0.66,0.29l0.27-0.06
	c0.34-0.07,0.5-0.32,0.32-0.64c-0.46-0.85-1.29-1.15-2.14-1.15c-1.4,0-2.35,0.9-2.35,2.1c0,0.99,0.67,1.6,1.75,1.92l0.94,0.32
	c0.49,0.17,0.87,0.41,0.87,0.85c0,0.53-0.5,0.92-1.18,0.92c-0.55,0-1.02-0.22-1.3-0.57c-0.18-0.24-0.35-0.36-0.63-0.29l-0.29,0.08
	c-0.34,0.08-0.5,0.31-0.34,0.63C94.15,467.14,95.15,467.6,96.23,467.6z M103.82,467.6c0.88,0,1.82-0.21,2.63-0.87
	c0.32-0.27,0.32-0.56,0.1-0.8l-0.1-0.11c-0.22-0.22-0.45-0.24-0.71-0.07c-0.6,0.41-1.22,0.59-1.9,0.59c-1.53,0-2.6-0.95-2.56-2.25
	h5.43c0.34,0,0.53-0.18,0.49-0.52c-0.2-2.24-1.81-3.29-3.57-3.29c-2.18,0-3.78,1.64-3.78,3.68
	C99.84,465.97,101.35,467.6,103.82,467.6z M101.4,463.03c0.43-1.19,1.44-1.51,2.25-1.51c0.77,0,1.75,0.27,2.11,1.51H101.4z
	 M109.23,467.45h0.42c0.32,0,0.5-0.18,0.5-0.5v-2.17c0-2.87,1.26-3.12,1.76-3.12c0.13,0,0.25,0.01,0.38,0.04
	c0.24,0.06,0.38-0.08,0.38-0.43v-0.41c0-0.28-0.04-0.52-0.34-0.56l-0.31-0.01c-0.84,0-1.64,0.6-1.88,1.72v-1.06
	c0-0.32-0.18-0.5-0.5-0.5h-0.42c-0.32,0-0.52,0.18-0.52,0.5v6.01C108.71,467.27,108.91,467.45,109.23,467.45z M120.05,467.6
	c2.51,0,3.93-1.5,3.93-3.39c0-1.68-1.26-2.7-2.67-2.93c-0.18-0.04-0.39-0.06-0.6-0.06l2.7-2.46c0.17-0.17,0.24-0.32,0.24-0.55v-0.14
	c0-0.28-0.15-0.43-0.43-0.43h-5.73c-0.28,0-0.43,0.15-0.43,0.43v0.34c0,0.28,0.15,0.45,0.43,0.45h3.96l-2.86,2.77
	c-0.21,0.21-0.21,0.41-0.04,0.62l0.15,0.18c0.17,0.22,0.36,0.22,0.62,0.1c0.38-0.18,0.83-0.22,1.05-0.22c1.22,0,2.17,0.8,2.17,1.92
	c0,0.95-0.81,2.09-2.51,2.09c-0.92,0-1.51-0.11-2.24-0.56c-0.22-0.15-0.45-0.14-0.62,0.07l-0.27,0.29
	c-0.18,0.22-0.17,0.45,0.07,0.62C117.65,467.23,118.67,467.6,120.05,467.6z"/>
<path class="st5" d="M70.01,460.45c0.8,0,1.56-0.32,2.12-0.88c0.56-0.56,0.88-1.33,0.88-2.12s-0.32-1.56-0.88-2.12
	c-0.56-0.56-1.33-0.88-2.12-0.88s-1.56,0.32-2.12,0.88c-0.56,0.56-0.88,1.33-0.88,2.12s0.32,1.56,0.88,2.12
	C68.45,460.13,69.22,460.45,70.01,460.45L70.01,460.45z M63.01,469.45c0-0.92,0.18-1.83,0.53-2.68c0.35-0.85,0.87-1.62,1.52-2.27
	c0.65-0.65,1.42-1.16,2.27-1.52c0.85-0.35,1.76-0.53,2.68-0.53s1.83,0.18,2.68,0.53c0.85,0.35,1.62,0.87,2.27,1.52
	c0.65,0.65,1.17,1.42,1.52,2.27c0.35,0.85,0.53,1.76,0.53,2.68H63.01z"/>
<line class="st4" x1="197.51" y1="100.45" x2="197.51" y2="600.45"/>
<line class="st4" x1="403.51" y1="100.45" x2="403.51" y2="600.45"/>
<path class="st0" d="M229.01,194.45v3c0,1.66,3.13,3,7,3s7-1.34,7-3v-3c0,1.66-3.13,3-7,3S229.01,196.11,229.01,194.45z"/>
<path class="st0" d="M229.01,189.45v3c0,1.66,3.13,3,7,3s7-1.34,7-3v-3c0,1.66-3.13,3-7,3S229.01,191.11,229.01,189.45z"/>
<path class="st0" d="M243.01,187.45c0,1.66-3.13,3-7,3s-7-1.34-7-3s3.13-3,7-3S243.01,185.79,243.01,187.45z"/>
<line class="st4" x1="0.01" y1="99.95" x2="600.01" y2="99.95"/>
<path class="st1" d="M473.32,221.45h0.46c0.29,0,0.49-0.14,0.57-0.42l1.41-4.37l1.41,4.37c0.1,0.28,0.28,0.42,0.57,0.42h0.46
	c0.29,0,0.48-0.11,0.59-0.41l2.17-6.03c0.13-0.36-0.03-0.57-0.41-0.57h-0.45c-0.29,0-0.49,0.11-0.59,0.41l-1.61,4.68l-1.44-4.45
	c-0.08-0.28-0.27-0.43-0.56-0.43h-0.31c-0.28,0-0.48,0.15-0.56,0.43l-1.43,4.45l-1.62-4.68c-0.1-0.29-0.29-0.41-0.59-0.41h-0.45
	c-0.36,0-0.53,0.21-0.41,0.57l2.18,6.03C472.84,221.32,473.02,221.45,473.32,221.45z M485.8,221.6c0.88,0,1.82-0.21,2.63-0.87
	c0.32-0.27,0.32-0.56,0.1-0.8l-0.1-0.11c-0.22-0.22-0.45-0.24-0.71-0.07c-0.6,0.41-1.22,0.59-1.9,0.59c-1.53,0-2.6-0.95-2.56-2.25
	h5.43c0.34,0,0.53-0.18,0.49-0.52c-0.2-2.24-1.81-3.29-3.57-3.29c-2.18,0-3.78,1.64-3.78,3.68
	C481.82,219.97,483.34,221.6,485.8,221.6z M483.38,217.03c0.43-1.19,1.44-1.51,2.25-1.51c0.77,0,1.75,0.27,2.11,1.51H483.38z
	 M494.66,221.6c2.09,0,3.47-1.65,3.47-3.67c0-2.02-1.39-3.65-3.47-3.65c-0.94,0-1.86,0.32-2.52,1.26v-3.71c0-0.32-0.18-0.5-0.5-0.5
	h-0.42c-0.32,0-0.52,0.18-0.52,0.5v9.11c0,0.32,0.2,0.5,0.52,0.5h0.42c0.32,0,0.5-0.18,0.5-0.5v-0.6
	C492.8,221.28,493.72,221.6,494.66,221.6z M494.45,220.34c-1.37,0-2.32-1.02-2.34-2.41c0.01-1.39,0.97-2.41,2.34-2.41
	c1.43,0,2.24,1.11,2.24,2.41C496.69,219.25,495.88,220.34,494.45,220.34z M503.93,224.59h0.42c0.32,0,0.5-0.18,0.5-0.5v-3.74
	c0.66,0.94,1.58,1.26,2.52,1.26c2.09,0,3.47-1.65,3.47-3.67c0-2.02-1.39-3.65-3.47-3.65c-0.94,0-1.86,0.32-2.52,1.26v-0.6
	c0-0.32-0.18-0.5-0.5-0.5h-0.42c-0.32,0-0.52,0.18-0.52,0.5v9.14C503.41,224.4,503.61,224.59,503.93,224.59z M507.16,220.34
	c-1.37,0-2.32-1.02-2.34-2.41c0.01-1.39,0.97-2.41,2.34-2.41c1.43,0,2.24,1.11,2.24,2.41C509.4,219.25,508.59,220.34,507.16,220.34z
	 M515.4,221.6c0.94,0,1.85-0.32,2.51-1.26v0.6c0,0.32,0.2,0.5,0.52,0.5h0.42c0.32,0,0.5-0.18,0.5-0.5v-6.01c0-0.32-0.18-0.5-0.5-0.5
	h-0.42c-0.32,0-0.52,0.18-0.52,0.5v0.6c-0.66-0.94-1.57-1.26-2.51-1.26c-2.09,0-3.47,1.64-3.47,3.65
	C511.93,219.95,513.32,221.6,515.4,221.6z M515.6,220.34c-1.41,0-2.23-1.09-2.23-2.41c0-1.3,0.81-2.41,2.23-2.41
	c1.39,0,2.32,1.02,2.34,2.41C517.92,219.32,516.98,220.34,515.6,220.34z M524.68,224.74c1.95,0,3.7-1.02,3.7-3.4v-6.4
	c0-0.32-0.2-0.5-0.52-0.5h-0.41c-0.32,0-0.52,0.18-0.52,0.49v0.62c-0.66-0.94-1.57-1.26-2.51-1.26c-2.1,0-3.47,1.65-3.47,3.65
	c0,2.02,1.37,3.67,3.47,3.67c0.94,0,1.85-0.32,2.51-1.26v0.9c0,1.48-0.92,2.25-2.27,2.25c-0.71,0-1.4-0.17-2-0.55
	c-0.29-0.18-0.53-0.15-0.69,0.17l-0.11,0.2c-0.14,0.28-0.1,0.53,0.15,0.7C522.66,224.43,523.46,224.74,524.68,224.74z
	 M524.62,220.34c-1.41,0-2.23-1.09-2.23-2.41c0-1.3,0.81-2.41,2.23-2.41c1.39,0,2.32,1.02,2.34,2.41
	C526.95,219.32,526.01,220.34,524.62,220.34z M533.93,221.6c0.88,0,1.82-0.21,2.63-0.87c0.32-0.27,0.32-0.56,0.1-0.8l-0.1-0.11
	c-0.22-0.22-0.45-0.24-0.71-0.07c-0.6,0.41-1.22,0.59-1.9,0.59c-1.53,0-2.6-0.95-2.56-2.25h5.43c0.34,0,0.53-0.18,0.49-0.52
	c-0.2-2.24-1.81-3.29-3.57-3.29c-2.18,0-3.78,1.64-3.78,3.68C529.95,219.97,531.46,221.6,533.93,221.6z M531.5,217.03
	c0.43-1.19,1.44-1.51,2.25-1.51c0.77,0,1.75,0.27,2.11,1.51H531.5z M541.8,221.45h0.46c0.29,0,0.48-0.13,0.59-0.41l0.6-1.6h4.68
	l0.6,1.6c0.11,0.28,0.31,0.41,0.6,0.41h0.45c0.38,0,0.52-0.24,0.39-0.59l-3.4-8.81c-0.1-0.27-0.29-0.41-0.59-0.41h-0.81
	c-0.28,0-0.49,0.14-0.59,0.41l-3.37,8.81C541.26,221.21,541.42,221.45,541.8,221.45z M543.87,218.24l1.9-5.15l1.93,5.15H543.87z
	 M553.27,221.45h0.42c0.32,0,0.5-0.18,0.5-0.5v-8.79c0-0.32-0.14-0.5-0.38-0.5c-0.25,0-0.43,0.04-0.66,0.14l-2.55,1.18
	c-0.27,0.13-0.38,0.35-0.28,0.66l0.06,0.21c0.1,0.32,0.35,0.45,0.66,0.31l1.71-0.77v7.57C552.75,221.27,552.95,221.45,553.27,221.45
	z"/>
<path class="st2" d="M450.01,210.45c0-0.53,0.21-1.04,0.59-1.41s0.88-0.59,1.41-0.59h4.59c0.53,0,1.04,0.21,1.41,0.59l3.41,3.41
	c0.38,0.38,0.59,0.88,0.59,1.41v8.59c0,0.53-0.21,1.04-0.59,1.41s-0.88,0.59-1.41,0.59h-8c-0.53,0-1.04-0.21-1.41-0.59
	s-0.59-0.88-0.59-1.41V210.45z M452.01,216.45c0-0.26,0.11-0.52,0.29-0.71c0.19-0.19,0.44-0.29,0.71-0.29h6
	c0.27,0,0.52,0.1,0.71,0.29c0.19,0.19,0.29,0.44,0.29,0.71s-0.11,0.52-0.29,0.71c-0.19,0.19-0.44,0.29-0.71,0.29h-6
	c-0.27,0-0.52-0.1-0.71-0.29C452.12,216.97,452.01,216.71,452.01,216.45z M453.01,219.45c-0.27,0-0.52,0.1-0.71,0.29
	c-0.19,0.19-0.29,0.44-0.29,0.71s0.11,0.52,0.29,0.71c0.19,0.19,0.44,0.29,0.71,0.29h6c0.27,0,0.52-0.1,0.71-0.29
	c0.19-0.19,0.29-0.44,0.29-0.71s-0.11-0.52-0.29-0.71c-0.19-0.19-0.44-0.29-0.71-0.29H453.01z"/>
<path class="st4" d="M438.01,166.95h129c1.93,0,3.5,1.57,3.5,3.5v62c0,1.93-1.57,3.5-3.5,3.5h-129c-1.93,0-3.5-1.57-3.5-3.5v-62
	C434.51,168.52,436.08,166.95,438.01,166.95z"/>
<path class="st1" d="M434.01,170.45c0-2.21,1.79-4,4-4h128c2.21,0,4,1.79,4,4v26h-136V170.45z"/>
<path class="st0" d="M494.11,186.6c2.11,0,3.91-1.3,3.91-3.79v-5.66c0-0.32-0.2-0.5-0.52-0.5h-0.46c-0.32,0-0.5,0.18-0.5,0.5v5.66
	c0,1.65-1.12,2.46-2.42,2.46c-1.29,0-2.41-0.81-2.41-2.46v-5.66c0-0.32-0.18-0.5-0.5-0.5h-0.48c-0.31,0-0.5,0.18-0.5,0.5v5.66
	C490.22,185.3,492.01,186.6,494.11,186.6z M502.23,186.6c1.37,0,2.55-0.77,2.55-2.11c0-0.76-0.36-1.58-1.71-2l-1.01-0.34
	c-0.41-0.13-0.81-0.36-0.81-0.81c0-0.49,0.39-0.87,1.01-0.87c0.31,0,0.62,0.08,0.85,0.36c0.2,0.25,0.36,0.38,0.66,0.29l0.27-0.06
	c0.34-0.07,0.5-0.32,0.32-0.64c-0.46-0.85-1.29-1.15-2.14-1.15c-1.4,0-2.35,0.9-2.35,2.1c0,0.99,0.67,1.6,1.75,1.92l0.94,0.32
	c0.49,0.17,0.87,0.41,0.87,0.85c0,0.53-0.5,0.92-1.18,0.92c-0.55,0-1.02-0.22-1.3-0.57c-0.18-0.24-0.35-0.36-0.63-0.29l-0.29,0.08
	c-0.34,0.08-0.5,0.31-0.34,0.63C500.15,186.14,501.15,186.6,502.23,186.6z M509.82,186.6c0.88,0,1.82-0.21,2.63-0.87
	c0.32-0.27,0.32-0.56,0.1-0.8l-0.1-0.11c-0.22-0.22-0.45-0.24-0.71-0.07c-0.6,0.41-1.22,0.59-1.9,0.59c-1.53,0-2.6-0.95-2.56-2.25
	h5.43c0.34,0,0.53-0.18,0.49-0.52c-0.2-2.24-1.81-3.29-3.57-3.29c-2.18,0-3.78,1.64-3.78,3.68
	C505.84,184.97,507.35,186.6,509.82,186.6z M507.4,182.03c0.43-1.19,1.44-1.51,2.25-1.51c0.77,0,1.75,0.27,2.11,1.51H507.4z
	 M515.23,186.45h0.42c0.32,0,0.5-0.18,0.5-0.5v-2.17c0-2.87,1.26-3.12,1.76-3.12c0.13,0,0.25,0.01,0.38,0.04
	c0.24,0.06,0.38-0.08,0.38-0.43v-0.41c0-0.28-0.04-0.52-0.34-0.56l-0.31-0.01c-0.84,0-1.64,0.6-1.88,1.72v-1.06
	c0-0.32-0.18-0.5-0.5-0.5h-0.42c-0.32,0-0.52,0.18-0.52,0.5v6.01C514.71,186.27,514.91,186.45,515.23,186.45z M525.46,186.45h0.42
	c0.32,0,0.5-0.18,0.5-0.5v-8.79c0-0.32-0.14-0.5-0.38-0.5c-0.25,0-0.43,0.04-0.66,0.14l-2.55,1.18c-0.27,0.13-0.38,0.35-0.28,0.66
	l0.06,0.21c0.1,0.32,0.35,0.45,0.66,0.31l1.71-0.77v7.57C524.94,186.27,525.14,186.45,525.46,186.45z"/>
<path class="st5" d="M476.01,179.45c0.8,0,1.56-0.32,2.12-0.88c0.56-0.56,0.88-1.32,0.88-2.12s-0.32-1.56-0.88-2.12
	c-0.56-0.56-1.33-0.88-2.12-0.88s-1.56,0.32-2.12,0.88c-0.56,0.56-0.88,1.32-0.88,2.12s0.32,1.56,0.88,2.12
	C474.45,179.13,475.22,179.45,476.01,179.45L476.01,179.45z M469.01,188.45c0-0.92,0.18-1.83,0.53-2.68
	c0.35-0.85,0.87-1.62,1.52-2.27c0.65-0.65,1.42-1.17,2.27-1.52c0.85-0.35,1.76-0.53,2.68-0.53s1.83,0.18,2.68,0.53
	c0.85,0.35,1.62,0.87,2.27,1.52c0.65,0.65,1.16,1.42,1.52,2.27c0.35,0.85,0.53,1.76,0.53,2.68H469.01z"/>
<path class="st1" d="M473.32,300.45h0.46c0.29,0,0.49-0.14,0.57-0.42l1.41-4.37l1.41,4.37c0.1,0.28,0.28,0.42,0.57,0.42h0.46
	c0.29,0,0.48-0.11,0.59-0.41l2.17-6.03c0.13-0.36-0.03-0.57-0.41-0.57h-0.45c-0.29,0-0.49,0.11-0.59,0.41l-1.61,4.68l-1.44-4.45
	c-0.08-0.28-0.27-0.43-0.56-0.43h-0.31c-0.28,0-0.48,0.15-0.56,0.43l-1.43,4.45l-1.62-4.68c-0.1-0.29-0.29-0.41-0.59-0.41h-0.45
	c-0.36,0-0.53,0.21-0.41,0.57l2.18,6.03C472.84,300.32,473.02,300.45,473.32,300.45z M485.8,300.6c0.88,0,1.82-0.21,2.63-0.87
	c0.32-0.27,0.32-0.56,0.1-0.8l-0.1-0.11c-0.22-0.22-0.45-0.24-0.71-0.07c-0.6,0.41-1.22,0.59-1.9,0.59c-1.53,0-2.6-0.95-2.56-2.25
	h5.43c0.34,0,0.53-0.18,0.49-0.52c-0.2-2.24-1.81-3.29-3.57-3.29c-2.18,0-3.78,1.64-3.78,3.68
	C481.82,298.97,483.34,300.6,485.8,300.6z M483.38,296.03c0.43-1.19,1.44-1.51,2.25-1.51c0.77,0,1.75,0.27,2.11,1.51H483.38z
	 M494.66,300.6c2.09,0,3.47-1.65,3.47-3.67c0-2.02-1.39-3.65-3.47-3.65c-0.94,0-1.86,0.32-2.52,1.26v-3.71c0-0.32-0.18-0.5-0.5-0.5
	h-0.42c-0.32,0-0.52,0.18-0.52,0.5v9.11c0,0.32,0.2,0.5,0.52,0.5h0.42c0.32,0,0.5-0.18,0.5-0.5v-0.6
	C492.8,300.28,493.72,300.6,494.66,300.6z M494.45,299.34c-1.37,0-2.32-1.02-2.34-2.41c0.01-1.39,0.97-2.41,2.34-2.41
	c1.43,0,2.24,1.11,2.24,2.41C496.69,298.25,495.88,299.34,494.45,299.34z M503.93,303.59h0.42c0.32,0,0.5-0.18,0.5-0.5v-3.74
	c0.66,0.94,1.58,1.26,2.52,1.26c2.09,0,3.47-1.65,3.47-3.67c0-2.02-1.39-3.65-3.47-3.65c-0.94,0-1.86,0.32-2.52,1.26v-0.6
	c0-0.32-0.18-0.5-0.5-0.5h-0.42c-0.32,0-0.52,0.18-0.52,0.5v9.14C503.41,303.4,503.61,303.59,503.93,303.59z M507.16,299.34
	c-1.37,0-2.32-1.02-2.34-2.41c0.01-1.39,0.97-2.41,2.34-2.41c1.43,0,2.24,1.11,2.24,2.41C509.4,298.25,508.59,299.34,507.16,299.34z
	 M515.4,300.6c0.94,0,1.85-0.32,2.51-1.26v0.6c0,0.32,0.2,0.5,0.52,0.5h0.42c0.32,0,0.5-0.18,0.5-0.5v-6.01c0-0.32-0.18-0.5-0.5-0.5
	h-0.42c-0.32,0-0.52,0.18-0.52,0.5v0.6c-0.66-0.94-1.57-1.26-2.51-1.26c-2.09,0-3.47,1.64-3.47,3.65
	C511.93,298.95,513.32,300.6,515.4,300.6z M515.6,299.34c-1.41,0-2.23-1.09-2.23-2.41c0-1.3,0.81-2.41,2.23-2.41
	c1.39,0,2.32,1.02,2.34,2.41C517.92,298.32,516.98,299.34,515.6,299.34z M524.68,303.74c1.95,0,3.7-1.02,3.7-3.4v-6.4
	c0-0.32-0.2-0.5-0.52-0.5h-0.41c-0.32,0-0.52,0.18-0.52,0.49v0.62c-0.66-0.94-1.57-1.26-2.51-1.26c-2.1,0-3.47,1.65-3.47,3.65
	c0,2.02,1.37,3.67,3.47,3.67c0.94,0,1.85-0.32,2.51-1.26v0.9c0,1.48-0.92,2.25-2.27,2.25c-0.71,0-1.4-0.17-2-0.55
	c-0.29-0.18-0.53-0.15-0.69,0.17l-0.11,0.2c-0.14,0.28-0.1,0.53,0.15,0.7C522.66,303.43,523.46,303.74,524.68,303.74z
	 M524.62,299.34c-1.41,0-2.23-1.09-2.23-2.41c0-1.3,0.81-2.41,2.23-2.41c1.39,0,2.32,1.02,2.34,2.41
	C526.95,298.32,526.01,299.34,524.62,299.34z M533.93,300.6c0.88,0,1.82-0.21,2.63-0.87c0.32-0.27,0.32-0.56,0.1-0.8l-0.1-0.11
	c-0.22-0.22-0.45-0.24-0.71-0.07c-0.6,0.41-1.22,0.59-1.9,0.59c-1.53,0-2.6-0.95-2.56-2.25h5.43c0.34,0,0.53-0.18,0.49-0.52
	c-0.2-2.24-1.81-3.29-3.57-3.29c-2.18,0-3.78,1.64-3.78,3.68C529.95,298.97,531.46,300.6,533.93,300.6z M531.5,296.03
	c0.43-1.19,1.44-1.51,2.25-1.51c0.77,0,1.75,0.27,2.11,1.51H531.5z M547.37,300.6c1.27,0,2.17-0.34,2.94-0.85
	c0.21-0.15,0.24-0.35,0.08-0.64l-0.13-0.22c-0.15-0.28-0.39-0.34-0.7-0.17c-0.62,0.34-1.43,0.56-2.2,0.56
	c-2.41,0-3.79-1.71-3.79-3.72s1.39-3.72,3.79-3.72c0.77,0,1.58,0.22,2.2,0.56c0.31,0.17,0.55,0.11,0.7-0.17l0.13-0.22
	c0.15-0.29,0.1-0.52-0.17-0.7c-0.76-0.49-1.64-0.8-2.86-0.8c-3.33,0-5.31,2.32-5.31,5.05C542.07,298.28,544.04,300.6,547.37,300.6z
	 M554.31,300.45h0.42c0.32,0,0.5-0.18,0.5-0.5v-8.79c0-0.32-0.14-0.5-0.38-0.5c-0.25,0-0.43,0.04-0.66,0.14l-2.55,1.18
	c-0.27,0.13-0.38,0.35-0.28,0.66l0.06,0.21c0.1,0.32,0.35,0.45,0.66,0.31l1.71-0.77v7.57C553.79,300.27,553.99,300.45,554.31,300.45
	z"/>
<path class="st2" d="M450.01,289.45c0-0.53,0.21-1.04,0.59-1.41s0.88-0.59,1.41-0.59h4.59c0.53,0,1.04,0.21,1.41,0.59l3.41,3.41
	c0.38,0.38,0.59,0.88,0.59,1.41v8.59c0,0.53-0.21,1.04-0.59,1.41s-0.88,0.59-1.41,0.59h-8c-0.53,0-1.04-0.21-1.41-0.59
	s-0.59-0.88-0.59-1.41V289.45z M452.01,295.45c0-0.27,0.11-0.52,0.29-0.71c0.19-0.19,0.44-0.29,0.71-0.29h6
	c0.27,0,0.52,0.11,0.71,0.29c0.19,0.19,0.29,0.44,0.29,0.71s-0.11,0.52-0.29,0.71c-0.19,0.19-0.44,0.29-0.71,0.29h-6
	c-0.27,0-0.52-0.11-0.71-0.29C452.12,295.97,452.01,295.71,452.01,295.45z M453.01,298.45c-0.27,0-0.52,0.11-0.71,0.29
	c-0.19,0.19-0.29,0.44-0.29,0.71s0.11,0.52,0.29,0.71c0.19,0.19,0.44,0.29,0.71,0.29h6c0.27,0,0.52-0.11,0.71-0.29
	c0.19-0.19,0.29-0.44,0.29-0.71s-0.11-0.52-0.29-0.71c-0.19-0.19-0.44-0.29-0.71-0.29H453.01z"/>
<path class="st4" d="M438.01,245.95h129c1.93,0,3.5,1.57,3.5,3.5v62c0,1.93-1.57,3.5-3.5,3.5h-129c-1.93,0-3.5-1.57-3.5-3.5v-62
	C434.51,247.52,436.08,245.95,438.01,245.95z"/>
<path class="st1" d="M434.01,249.45c0-2.21,1.79-4,4-4h128c2.21,0,4,1.79,4,4v26h-136V249.45z"/>
<path class="st0" d="M494.11,265.6c2.11,0,3.91-1.3,3.91-3.79v-5.66c0-0.32-0.2-0.5-0.52-0.5h-0.46c-0.32,0-0.5,0.18-0.5,0.5v5.66
	c0,1.65-1.12,2.46-2.42,2.46c-1.29,0-2.41-0.81-2.41-2.46v-5.66c0-0.32-0.18-0.5-0.5-0.5h-0.48c-0.31,0-0.5,0.18-0.5,0.5v5.66
	C490.22,264.3,492.01,265.6,494.11,265.6z M502.23,265.6c1.37,0,2.55-0.77,2.55-2.11c0-0.76-0.36-1.58-1.71-2l-1.01-0.34
	c-0.41-0.13-0.81-0.36-0.81-0.81c0-0.49,0.39-0.87,1.01-0.87c0.31,0,0.62,0.08,0.85,0.36c0.2,0.25,0.36,0.38,0.66,0.29l0.27-0.06
	c0.34-0.07,0.5-0.32,0.32-0.64c-0.46-0.85-1.29-1.15-2.14-1.15c-1.4,0-2.35,0.9-2.35,2.1c0,0.99,0.67,1.6,1.75,1.92l0.94,0.32
	c0.49,0.17,0.87,0.41,0.87,0.85c0,0.53-0.5,0.92-1.18,0.92c-0.55,0-1.02-0.22-1.3-0.57c-0.18-0.24-0.35-0.36-0.63-0.29l-0.29,0.08
	c-0.34,0.08-0.5,0.31-0.34,0.63C500.15,265.14,501.15,265.6,502.23,265.6z M509.82,265.6c0.88,0,1.82-0.21,2.63-0.87
	c0.32-0.27,0.32-0.56,0.1-0.8l-0.1-0.11c-0.22-0.22-0.45-0.24-0.71-0.07c-0.6,0.41-1.22,0.59-1.9,0.59c-1.53,0-2.6-0.95-2.56-2.25
	h5.43c0.34,0,0.53-0.18,0.49-0.52c-0.2-2.24-1.81-3.29-3.57-3.29c-2.18,0-3.78,1.64-3.78,3.68
	C505.84,263.97,507.35,265.6,509.82,265.6z M507.4,261.03c0.43-1.19,1.44-1.51,2.25-1.51c0.77,0,1.75,0.27,2.11,1.51H507.4z
	 M515.23,265.45h0.42c0.32,0,0.5-0.18,0.5-0.5v-2.17c0-2.87,1.26-3.12,1.76-3.12c0.13,0,0.25,0.01,0.38,0.04
	c0.24,0.06,0.38-0.08,0.38-0.43v-0.41c0-0.28-0.04-0.52-0.34-0.56l-0.31-0.01c-0.84,0-1.64,0.6-1.88,1.72v-1.06
	c0-0.32-0.18-0.5-0.5-0.5h-0.42c-0.32,0-0.52,0.18-0.52,0.5v6.01C514.71,265.27,514.91,265.45,515.23,265.45z M525.46,265.45h0.42
	c0.32,0,0.5-0.18,0.5-0.5v-8.79c0-0.32-0.14-0.5-0.38-0.5c-0.25,0-0.43,0.04-0.66,0.14l-2.55,1.18c-0.27,0.13-0.38,0.35-0.28,0.66
	l0.06,0.21c0.1,0.32,0.35,0.45,0.66,0.31l1.71-0.77v7.57C524.94,265.27,525.14,265.45,525.46,265.45z"/>
<path class="st5" d="M476.01,258.45c0.8,0,1.56-0.32,2.12-0.88c0.56-0.56,0.88-1.33,0.88-2.12s-0.32-1.56-0.88-2.12
	c-0.56-0.56-1.33-0.88-2.12-0.88s-1.56,0.32-2.12,0.88c-0.56,0.56-0.88,1.32-0.88,2.12s0.32,1.56,0.88,2.12
	C474.45,258.13,475.22,258.45,476.01,258.45L476.01,258.45z M469.01,267.45c0-0.92,0.18-1.83,0.53-2.68
	c0.35-0.85,0.87-1.62,1.52-2.27c0.65-0.65,1.42-1.16,2.27-1.52c0.85-0.35,1.76-0.53,2.68-0.53s1.83,0.18,2.68,0.53
	c0.85,0.35,1.62,0.87,2.27,1.52c0.65,0.65,1.16,1.42,1.52,2.27c0.35,0.85,0.53,1.76,0.53,2.68H469.01z"/>
<path class="st1" d="M473.32,508.45h0.46c0.29,0,0.49-0.14,0.57-0.42l1.41-4.37l1.41,4.37c0.1,0.28,0.28,0.42,0.57,0.42h0.46
	c0.29,0,0.48-0.11,0.59-0.41l2.17-6.03c0.13-0.36-0.03-0.57-0.41-0.57h-0.45c-0.29,0-0.49,0.11-0.59,0.41l-1.61,4.68l-1.44-4.45
	c-0.08-0.28-0.27-0.43-0.56-0.43h-0.31c-0.28,0-0.48,0.15-0.56,0.43l-1.43,4.45l-1.62-4.68c-0.1-0.29-0.29-0.41-0.59-0.41h-0.45
	c-0.36,0-0.53,0.21-0.41,0.57l2.18,6.03C472.84,508.32,473.02,508.45,473.32,508.45z M485.8,508.6c0.88,0,1.82-0.21,2.63-0.87
	c0.32-0.27,0.32-0.56,0.1-0.8l-0.1-0.11c-0.22-0.22-0.45-0.24-0.71-0.07c-0.6,0.41-1.22,0.59-1.9,0.59c-1.53,0-2.6-0.95-2.56-2.25
	h5.43c0.34,0,0.53-0.18,0.49-0.52c-0.2-2.24-1.81-3.29-3.57-3.29c-2.18,0-3.78,1.64-3.78,3.68
	C481.82,506.97,483.34,508.6,485.8,508.6z M483.38,504.03c0.43-1.19,1.44-1.51,2.25-1.51c0.77,0,1.75,0.27,2.11,1.51H483.38z
	 M494.66,508.6c2.09,0,3.47-1.65,3.47-3.67c0-2.02-1.39-3.65-3.47-3.65c-0.94,0-1.86,0.32-2.52,1.26v-3.71c0-0.32-0.18-0.5-0.5-0.5
	h-0.42c-0.32,0-0.52,0.18-0.52,0.5v9.11c0,0.32,0.2,0.5,0.52,0.5h0.42c0.32,0,0.5-0.18,0.5-0.5v-0.6
	C492.8,508.28,493.72,508.6,494.66,508.6z M494.45,507.34c-1.37,0-2.32-1.02-2.34-2.41c0.01-1.39,0.97-2.41,2.34-2.41
	c1.43,0,2.24,1.11,2.24,2.41C496.69,506.25,495.88,507.34,494.45,507.34z M503.93,511.59h0.42c0.32,0,0.5-0.18,0.5-0.5v-3.74
	c0.66,0.94,1.58,1.26,2.52,1.26c2.09,0,3.47-1.65,3.47-3.67c0-2.02-1.39-3.65-3.47-3.65c-0.94,0-1.86,0.32-2.52,1.26v-0.6
	c0-0.32-0.18-0.5-0.5-0.5h-0.42c-0.32,0-0.52,0.18-0.52,0.5v9.14C503.41,511.4,503.61,511.59,503.93,511.59z M507.16,507.34
	c-1.37,0-2.32-1.02-2.34-2.41c0.01-1.39,0.97-2.41,2.34-2.41c1.43,0,2.24,1.11,2.24,2.41C509.4,506.25,508.59,507.34,507.16,507.34z
	 M515.4,508.6c0.94,0,1.85-0.32,2.51-1.26v0.6c0,0.32,0.2,0.5,0.52,0.5h0.42c0.32,0,0.5-0.18,0.5-0.5v-6.01c0-0.32-0.18-0.5-0.5-0.5
	h-0.42c-0.32,0-0.52,0.18-0.52,0.5v0.6c-0.66-0.94-1.57-1.26-2.51-1.26c-2.09,0-3.47,1.64-3.47,3.65
	C511.93,506.95,513.32,508.6,515.4,508.6z M515.6,507.34c-1.41,0-2.23-1.09-2.23-2.41c0-1.3,0.81-2.41,2.23-2.41
	c1.39,0,2.32,1.02,2.34,2.41C517.92,506.32,516.98,507.34,515.6,507.34z M524.68,511.74c1.95,0,3.7-1.02,3.7-3.4v-6.4
	c0-0.32-0.2-0.5-0.52-0.5h-0.41c-0.32,0-0.52,0.18-0.52,0.49v0.62c-0.66-0.94-1.57-1.26-2.51-1.26c-2.1,0-3.47,1.65-3.47,3.65
	c0,2.02,1.37,3.67,3.47,3.67c0.94,0,1.85-0.32,2.51-1.26v0.9c0,1.48-0.92,2.25-2.27,2.25c-0.71,0-1.4-0.17-2-0.55
	c-0.29-0.18-0.53-0.15-0.69,0.17l-0.11,0.2c-0.14,0.28-0.1,0.53,0.15,0.7C522.66,511.43,523.46,511.74,524.68,511.74z
	 M524.62,507.34c-1.41,0-2.23-1.09-2.23-2.41c0-1.3,0.81-2.41,2.23-2.41c1.39,0,2.32,1.02,2.34,2.41
	C526.95,506.32,526.01,507.34,524.62,507.34z M533.93,508.6c0.88,0,1.82-0.21,2.63-0.87c0.32-0.27,0.32-0.56,0.1-0.8l-0.1-0.11
	c-0.22-0.22-0.45-0.24-0.71-0.07c-0.6,0.41-1.22,0.59-1.9,0.59c-1.53,0-2.6-0.95-2.56-2.25h5.43c0.34,0,0.53-0.18,0.49-0.52
	c-0.2-2.24-1.81-3.29-3.57-3.29c-2.18,0-3.78,1.64-3.78,3.68C529.95,506.97,531.46,508.6,533.93,508.6z M531.5,504.03
	c0.43-1.19,1.44-1.51,2.25-1.51c0.77,0,1.75,0.27,2.11,1.51H531.5z M541.8,508.45h0.46c0.29,0,0.48-0.13,0.59-0.41l0.6-1.6h4.68
	l0.6,1.6c0.11,0.28,0.31,0.41,0.6,0.41h0.45c0.38,0,0.52-0.24,0.39-0.59l-3.4-8.81c-0.1-0.27-0.29-0.41-0.59-0.41h-0.81
	c-0.28,0-0.49,0.14-0.59,0.41l-3.37,8.81C541.26,508.21,541.42,508.45,541.8,508.45z M543.87,505.24l1.9-5.15l1.93,5.15H543.87z
	 M554.45,508.6c2.51,0,3.93-1.5,3.93-3.39c0-1.68-1.26-2.7-2.67-2.93c-0.18-0.04-0.39-0.06-0.6-0.06l2.7-2.46
	c0.17-0.17,0.24-0.32,0.24-0.55v-0.14c0-0.28-0.15-0.43-0.43-0.43h-5.73c-0.28,0-0.43,0.15-0.43,0.43v0.34
	c0,0.28,0.15,0.45,0.43,0.45h3.96l-2.86,2.77c-0.21,0.21-0.21,0.41-0.04,0.62l0.15,0.18c0.17,0.22,0.36,0.22,0.62,0.1
	c0.38-0.18,0.83-0.22,1.05-0.22c1.22,0,2.17,0.8,2.17,1.92c0,0.95-0.81,2.09-2.51,2.09c-0.92,0-1.51-0.11-2.24-0.56
	c-0.22-0.15-0.45-0.14-0.62,0.07l-0.27,0.29c-0.18,0.22-0.17,0.45,0.07,0.62C552.05,508.23,553.07,508.6,554.45,508.6z"/>
<path class="st2" d="M450.01,497.45c0-0.53,0.21-1.04,0.59-1.41s0.88-0.59,1.41-0.59h4.59c0.53,0,1.04,0.21,1.41,0.59l3.41,3.41
	c0.38,0.38,0.59,0.88,0.59,1.41v8.59c0,0.53-0.21,1.04-0.59,1.41s-0.88,0.59-1.41,0.59h-8c-0.53,0-1.04-0.21-1.41-0.59
	s-0.59-0.88-0.59-1.41V497.45z M452.01,503.45c0-0.27,0.11-0.52,0.29-0.71c0.19-0.19,0.44-0.29,0.71-0.29h6
	c0.27,0,0.52,0.11,0.71,0.29c0.19,0.19,0.29,0.44,0.29,0.71s-0.11,0.52-0.29,0.71c-0.19,0.19-0.44,0.29-0.71,0.29h-6
	c-0.27,0-0.52-0.11-0.71-0.29C452.12,503.97,452.01,503.71,452.01,503.45z M453.01,506.45c-0.27,0-0.52,0.11-0.71,0.29
	c-0.19,0.19-0.29,0.44-0.29,0.71s0.11,0.52,0.29,0.71c0.19,0.19,0.44,0.29,0.71,0.29h6c0.27,0,0.52-0.11,0.71-0.29
	c0.19-0.19,0.29-0.44,0.29-0.71s-0.11-0.52-0.29-0.71c-0.19-0.19-0.44-0.29-0.71-0.29H453.01z"/>
<path class="st4" d="M438.01,453.95h129c1.93,0,3.5,1.57,3.5,3.5v62c0,1.93-1.57,3.5-3.5,3.5h-129c-1.93,0-3.5-1.57-3.5-3.5v-62
	C434.51,455.52,436.08,453.95,438.01,453.95z"/>
<path class="st1" d="M434.01,457.45c0-2.21,1.79-4,4-4h128c2.21,0,4,1.79,4,4v26h-136V457.45z"/>
<path class="st0" d="M494.11,473.6c2.11,0,3.91-1.3,3.91-3.79v-5.66c0-0.32-0.2-0.5-0.52-0.5h-0.46c-0.32,0-0.5,0.18-0.5,0.5v5.66
	c0,1.65-1.12,2.46-2.42,2.46c-1.29,0-2.41-0.81-2.41-2.46v-5.66c0-0.32-0.18-0.5-0.5-0.5h-0.48c-0.31,0-0.5,0.18-0.5,0.5v5.66
	C490.22,472.3,492.01,473.6,494.11,473.6z M502.23,473.6c1.37,0,2.55-0.77,2.55-2.11c0-0.76-0.36-1.58-1.71-2l-1.01-0.34
	c-0.41-0.13-0.81-0.36-0.81-0.81c0-0.49,0.39-0.87,1.01-0.87c0.31,0,0.62,0.08,0.85,0.36c0.2,0.25,0.36,0.38,0.66,0.29l0.27-0.06
	c0.34-0.07,0.5-0.32,0.32-0.64c-0.46-0.85-1.29-1.15-2.14-1.15c-1.4,0-2.35,0.9-2.35,2.1c0,0.99,0.67,1.6,1.75,1.92l0.94,0.32
	c0.49,0.17,0.87,0.41,0.87,0.85c0,0.53-0.5,0.92-1.18,0.92c-0.55,0-1.02-0.22-1.3-0.57c-0.18-0.24-0.35-0.36-0.63-0.29l-0.29,0.08
	c-0.34,0.08-0.5,0.31-0.34,0.63C500.15,473.14,501.15,473.6,502.23,473.6z M509.82,473.6c0.88,0,1.82-0.21,2.63-0.87
	c0.32-0.27,0.32-0.56,0.1-0.8l-0.1-0.11c-0.22-0.22-0.45-0.24-0.71-0.07c-0.6,0.41-1.22,0.59-1.9,0.59c-1.53,0-2.6-0.95-2.56-2.25
	h5.43c0.34,0,0.53-0.18,0.49-0.52c-0.2-2.24-1.81-3.29-3.57-3.29c-2.18,0-3.78,1.64-3.78,3.68
	C505.84,471.97,507.35,473.6,509.82,473.6z M507.4,469.03c0.43-1.19,1.44-1.51,2.25-1.51c0.77,0,1.75,0.27,2.11,1.51H507.4z
	 M515.23,473.45h0.42c0.32,0,0.5-0.18,0.5-0.5v-2.17c0-2.87,1.26-3.12,1.76-3.12c0.13,0,0.25,0.01,0.38,0.04
	c0.24,0.06,0.38-0.08,0.38-0.43v-0.41c0-0.28-0.04-0.52-0.34-0.56l-0.31-0.01c-0.84,0-1.64,0.6-1.88,1.72v-1.06
	c0-0.32-0.18-0.5-0.5-0.5h-0.42c-0.32,0-0.52,0.18-0.52,0.5v6.01C514.71,473.27,514.91,473.45,515.23,473.45z M526.05,473.6
	c2.51,0,3.93-1.5,3.93-3.39c0-1.68-1.26-2.7-2.67-2.93c-0.18-0.04-0.39-0.06-0.6-0.06l2.7-2.46c0.17-0.17,0.24-0.32,0.24-0.55v-0.14
	c0-0.28-0.15-0.43-0.43-0.43h-5.73c-0.28,0-0.43,0.15-0.43,0.43v0.34c0,0.28,0.15,0.45,0.43,0.45h3.96l-2.86,2.77
	c-0.21,0.21-0.21,0.41-0.04,0.62l0.15,0.18c0.17,0.22,0.36,0.22,0.62,0.1c0.38-0.18,0.83-0.22,1.05-0.22c1.22,0,2.17,0.8,2.17,1.92
	c0,0.95-0.81,2.09-2.51,2.09c-0.92,0-1.51-0.11-2.24-0.56c-0.22-0.15-0.45-0.14-0.62,0.07l-0.27,0.29
	c-0.18,0.22-0.17,0.45,0.07,0.62C523.65,473.23,524.67,473.6,526.05,473.6z"/>
<path class="st5" d="M476.01,466.45c0.8,0,1.56-0.32,2.12-0.88c0.56-0.56,0.88-1.33,0.88-2.12s-0.32-1.56-0.88-2.12
	c-0.56-0.56-1.33-0.88-2.12-0.88s-1.56,0.32-2.12,0.88c-0.56,0.56-0.88,1.33-0.88,2.12s0.32,1.56,0.88,2.12
	C474.45,466.13,475.22,466.45,476.01,466.45L476.01,466.45z M469.01,475.45c0-0.92,0.18-1.83,0.53-2.68
	c0.35-0.85,0.87-1.62,1.52-2.27c0.65-0.65,1.42-1.16,2.27-1.52c0.85-0.35,1.76-0.53,2.68-0.53s1.83,0.18,2.68,0.53
	c0.85,0.35,1.62,0.87,2.27,1.52c0.65,0.65,1.16,1.42,1.52,2.27c0.35,0.85,0.53,1.76,0.53,2.68H469.01z"/>
<path class="st6" d="M216.01,163.45h169c2.21,0,4,1.79,4,4v386c0,2.21-1.79,4-4,4h-169c-2.21,0-4-1.79-4-4v-386
	C212.01,165.24,213.8,163.45,216.01,163.45z"/>
<path class="st0" d="M287.86,229.45h0.48c0.32,0,0.5-0.18,0.5-0.5v-6.61l5.03,6.8c0.17,0.22,0.36,0.31,0.63,0.31h0.2
	c0.32,0,0.52-0.18,0.52-0.5v-8.79c0-0.32-0.2-0.5-0.52-0.5h-0.48c-0.32,0-0.5,0.18-0.5,0.5v6.58l-5.01-6.78
	c-0.17-0.22-0.36-0.31-0.63-0.31h-0.21c-0.32,0-0.5,0.18-0.5,0.5v8.79C287.36,229.27,287.54,229.45,287.86,229.45z M300.66,229.6
	c2.06,0,3.72-1.64,3.72-3.67c0-2-1.67-3.65-3.72-3.65c-2.04,0-3.7,1.64-3.7,3.65C296.96,227.98,298.62,229.6,300.66,229.6z
	 M300.66,228.34c-1.25,0-2.27-1.06-2.27-2.39s1.02-2.41,2.27-2.41c1.27,0,2.28,1.08,2.28,2.41S301.93,228.34,300.66,228.34z
	 M308.42,229.6c1.34,0,2.1-0.77,2.1-1.82c0-0.01,0-0.28-0.06-0.52c-0.03-0.18-0.15-0.25-0.32-0.25h-0.64c-0.2,0-0.28,0.13-0.25,0.32
	c0.03,0.11,0.03,0.21,0.03,0.27c0,0.5-0.39,0.76-0.83,0.76c-0.45,0-0.81-0.29-0.81-1.05v-3.75h1.92c0.18,0,0.28-0.11,0.28-0.29
	v-0.55c0-0.18-0.1-0.28-0.28-0.28h-1.92v-1.58c0-0.27-0.15-0.43-0.42-0.43h-0.29c-0.25,0-0.41,0.14-0.45,0.41l-0.25,1.61h-0.88
	c-0.18,0-0.28,0.1-0.28,0.28v0.55c0,0.18,0.1,0.29,0.28,0.29h0.85v3.67C306.2,229.03,307.3,229.6,308.42,229.6z M315.23,229.6
	c0.88,0,1.82-0.21,2.63-0.87c0.32-0.27,0.32-0.56,0.1-0.8l-0.1-0.11c-0.22-0.22-0.45-0.24-0.71-0.07c-0.6,0.41-1.22,0.59-1.9,0.59
	c-1.53,0-2.6-0.95-2.56-2.25h5.43c0.34,0,0.53-0.18,0.49-0.52c-0.2-2.24-1.81-3.29-3.57-3.29c-2.18,0-3.78,1.64-3.78,3.68
	C311.25,227.97,312.76,229.6,315.23,229.6z M312.8,225.03c0.43-1.19,1.44-1.51,2.25-1.51c0.77,0,1.75,0.27,2.11,1.51H312.8z
	 M323.1,229.45h0.46c0.29,0,0.48-0.13,0.59-0.41l0.6-1.6h4.68l0.6,1.6c0.11,0.28,0.31,0.41,0.6,0.41h0.45
	c0.38,0,0.52-0.24,0.39-0.59l-3.4-8.81c-0.1-0.27-0.29-0.41-0.59-0.41h-0.81c-0.28,0-0.49,0.14-0.59,0.41l-3.37,8.81
	C322.56,229.21,322.72,229.45,323.1,229.45z M325.17,226.24l1.9-5.15l1.93,5.15H325.17z M334.57,229.45h0.42
	c0.32,0,0.5-0.18,0.5-0.5v-8.79c0-0.32-0.14-0.5-0.38-0.5c-0.25,0-0.43,0.04-0.66,0.14l-2.55,1.18c-0.27,0.13-0.38,0.35-0.28,0.66
	l0.06,0.21c0.1,0.32,0.35,0.45,0.66,0.31l1.71-0.77v7.57C334.05,229.27,334.25,229.45,334.57,229.45z"/>
<path class="st5" d="M266.01,218.45c0-0.53,0.21-1.04,0.59-1.41s0.88-0.59,1.41-0.59h4.59c0.53,0,1.04,0.21,1.41,0.59l3.41,3.41
	c0.38,0.38,0.59,0.88,0.59,1.41v8.59c0,0.53-0.21,1.04-0.59,1.41s-0.88,0.59-1.41,0.59h-8c-0.53,0-1.04-0.21-1.41-0.59
	s-0.59-0.88-0.59-1.41V218.45z M268.01,224.45c0-0.26,0.11-0.52,0.29-0.71c0.19-0.19,0.44-0.29,0.71-0.29h6
	c0.27,0,0.52,0.1,0.71,0.29c0.19,0.19,0.29,0.44,0.29,0.71s-0.11,0.52-0.29,0.71c-0.19,0.19-0.44,0.29-0.71,0.29h-6
	c-0.27,0-0.52-0.1-0.71-0.29C268.12,224.97,268.01,224.71,268.01,224.45z M269.01,227.45c-0.27,0-0.52,0.1-0.71,0.29
	c-0.19,0.19-0.29,0.44-0.29,0.71s0.11,0.52,0.29,0.71c0.19,0.19,0.44,0.29,0.71,0.29h6c0.27,0,0.52-0.1,0.71-0.29
	c0.19-0.19,0.29-0.44,0.29-0.71s-0.11-0.52-0.29-0.71c-0.19-0.19-0.44-0.29-0.71-0.29H269.01z"/>
<path class="st0" d="M287.86,278.45h0.48c0.32,0,0.5-0.18,0.5-0.5v-6.61l5.03,6.8c0.17,0.22,0.36,0.31,0.63,0.31h0.2
	c0.32,0,0.52-0.18,0.52-0.5v-8.79c0-0.32-0.2-0.5-0.52-0.5h-0.48c-0.32,0-0.5,0.18-0.5,0.5v6.58l-5.01-6.78
	c-0.17-0.22-0.36-0.31-0.63-0.31h-0.21c-0.32,0-0.5,0.18-0.5,0.5v8.79C287.36,278.27,287.54,278.45,287.86,278.45z M300.66,278.6
	c2.06,0,3.72-1.64,3.72-3.67c0-2-1.67-3.65-3.72-3.65c-2.04,0-3.7,1.64-3.7,3.65C296.96,276.98,298.62,278.6,300.66,278.6z
	 M300.66,277.34c-1.25,0-2.27-1.06-2.27-2.39s1.02-2.41,2.27-2.41c1.27,0,2.28,1.08,2.28,2.41S301.93,277.34,300.66,277.34z
	 M308.42,278.6c1.34,0,2.1-0.77,2.1-1.82c0-0.01,0-0.28-0.06-0.52c-0.03-0.18-0.15-0.25-0.32-0.25h-0.64c-0.2,0-0.28,0.13-0.25,0.32
	c0.03,0.11,0.03,0.21,0.03,0.27c0,0.5-0.39,0.76-0.83,0.76c-0.45,0-0.81-0.29-0.81-1.05v-3.75h1.92c0.18,0,0.28-0.11,0.28-0.29
	v-0.55c0-0.18-0.1-0.28-0.28-0.28h-1.92v-1.58c0-0.27-0.15-0.43-0.42-0.43h-0.29c-0.25,0-0.41,0.14-0.45,0.41l-0.25,1.61h-0.88
	c-0.18,0-0.28,0.1-0.28,0.28v0.55c0,0.18,0.1,0.29,0.28,0.29h0.85v3.67C306.2,278.03,307.3,278.6,308.42,278.6z M315.23,278.6
	c0.88,0,1.82-0.21,2.63-0.87c0.32-0.27,0.32-0.56,0.1-0.8l-0.1-0.11c-0.22-0.22-0.45-0.24-0.71-0.07c-0.6,0.41-1.22,0.59-1.9,0.59
	c-1.53,0-2.6-0.95-2.56-2.25h5.43c0.34,0,0.53-0.18,0.49-0.52c-0.2-2.24-1.81-3.29-3.57-3.29c-2.18,0-3.78,1.64-3.78,3.68
	C311.25,276.97,312.76,278.6,315.23,278.6z M312.8,274.03c0.43-1.19,1.44-1.51,2.25-1.51c0.77,0,1.75,0.27,2.11,1.51H312.8z
	 M328.67,278.6c1.27,0,2.17-0.34,2.94-0.85c0.21-0.15,0.24-0.35,0.08-0.64l-0.13-0.22c-0.15-0.28-0.39-0.34-0.7-0.17
	c-0.62,0.34-1.43,0.56-2.2,0.56c-2.41,0-3.79-1.71-3.79-3.72s1.39-3.72,3.79-3.72c0.77,0,1.58,0.22,2.2,0.56
	c0.31,0.17,0.55,0.11,0.7-0.17l0.13-0.22c0.15-0.29,0.1-0.52-0.17-0.7c-0.76-0.49-1.64-0.8-2.86-0.8c-3.33,0-5.31,2.32-5.31,5.05
	C323.37,276.28,325.34,278.6,328.67,278.6z M335.61,278.45h0.42c0.32,0,0.5-0.18,0.5-0.5v-8.79c0-0.32-0.14-0.5-0.38-0.5
	c-0.25,0-0.43,0.04-0.66,0.14l-2.55,1.18c-0.27,0.13-0.38,0.35-0.28,0.66l0.06,0.21c0.1,0.32,0.35,0.45,0.66,0.31l1.71-0.77v7.57
	C335.09,278.27,335.29,278.45,335.61,278.45z"/>
<path class="st5" d="M266.01,267.45c0-0.53,0.21-1.04,0.59-1.41s0.88-0.59,1.41-0.59h4.59c0.53,0,1.04,0.21,1.41,0.59l3.41,3.41
	c0.38,0.38,0.59,0.88,0.59,1.41v8.59c0,0.53-0.21,1.04-0.59,1.41s-0.88,0.59-1.41,0.59h-8c-0.53,0-1.04-0.21-1.41-0.59
	s-0.59-0.88-0.59-1.41V267.45z M268.01,273.45c0-0.27,0.11-0.52,0.29-0.71c0.19-0.19,0.44-0.29,0.71-0.29h6
	c0.27,0,0.52,0.11,0.71,0.29c0.19,0.19,0.29,0.44,0.29,0.71s-0.11,0.52-0.29,0.71c-0.19,0.19-0.44,0.29-0.71,0.29h-6
	c-0.27,0-0.52-0.11-0.71-0.29C268.12,273.97,268.01,273.71,268.01,273.45z M269.01,276.45c-0.27,0-0.52,0.11-0.71,0.29
	c-0.19,0.19-0.29,0.44-0.29,0.71s0.11,0.52,0.29,0.71c0.19,0.19,0.44,0.29,0.71,0.29h6c0.27,0,0.52-0.11,0.71-0.29
	c0.19-0.19,0.29-0.44,0.29-0.71s-0.11-0.52-0.29-0.71c-0.19-0.19-0.44-0.29-0.71-0.29H269.01z"/>
<path class="st6" d="M257.1,154.6c2.04,0,3.44-1.09,3.44-2.86c0-1.05-0.76-2.14-2.41-2.66l-1.46-0.55
	c-1.12-0.42-1.25-0.95-1.25-1.36c0-0.87,0.77-1.37,1.69-1.37c0.81,0,1.41,0.31,1.74,0.95c0.14,0.29,0.34,0.41,0.64,0.32l0.35-0.11
	c0.31-0.08,0.46-0.32,0.34-0.63c-0.45-1.11-1.54-1.85-3.08-1.85c-1.69,0-3.18,1.04-3.18,2.73c0,0.91,0.45,2.02,2.3,2.63l1.46,0.49
	c0.8,0.29,1.41,0.76,1.41,1.5c0,0.84-0.77,1.46-2.03,1.46c-0.98,0-1.72-0.48-2.07-1.08c-0.15-0.29-0.32-0.41-0.63-0.34l-0.41,0.1
	c-0.31,0.08-0.48,0.32-0.34,0.63C254.13,153.76,255.37,154.6,257.1,154.6z M265.67,154.6c0.88,0,1.82-0.21,2.63-0.87
	c0.32-0.27,0.32-0.56,0.1-0.8l-0.1-0.11c-0.22-0.22-0.45-0.24-0.71-0.07c-0.6,0.41-1.22,0.59-1.9,0.59c-1.53,0-2.6-0.95-2.56-2.25
	h5.43c0.34,0,0.53-0.18,0.49-0.52c-0.2-2.24-1.81-3.29-3.57-3.29c-2.18,0-3.78,1.64-3.78,3.68
	C261.69,152.97,263.21,154.6,265.67,154.6z M263.25,150.03c0.43-1.19,1.44-1.51,2.25-1.51c0.77,0,1.75,0.27,2.11,1.51H263.25z
	 M275.62,154.6c0.14,0,0.62,0,1.09-0.22c0.35-0.17,0.42-0.41,0.35-0.57l-0.22-0.45c-0.1-0.17-0.21-0.2-0.41-0.13
	c-0.25,0.11-0.52,0.13-0.63,0.13c-0.62,0-0.81-0.35-1.22-0.92l-1.16-1.78l2.16-2.6c0.28-0.34,0.15-0.62-0.29-0.62h-0.53
	c-0.27,0-0.46,0.08-0.62,0.29l-2.14,2.65v-5.54c0-0.32-0.18-0.5-0.5-0.5h-0.42c-0.32,0-0.52,0.18-0.52,0.5v9.11
	c0,0.32,0.2,0.5,0.52,0.5h0.42c0.32,0,0.5-0.18,0.5-0.5v-3.08l1.37,2.23C273.8,153.72,274.28,154.6,275.62,154.6z M280.41,154.6
	c1.13,0,2.03-0.55,2.34-1.53v0.87c0,0.32,0.18,0.5,0.5,0.5h0.42c0.32,0,0.52-0.18,0.52-0.5v-6.01c0-0.32-0.2-0.5-0.52-0.5h-0.42
	c-0.32,0-0.5,0.18-0.5,0.5v2.79c0,2.11-1.46,2.62-2.18,2.62c-0.74,0-1.39-0.53-1.39-1.96v-3.44c0-0.32-0.2-0.5-0.52-0.5h-0.42
	c-0.32,0-0.5,0.18-0.5,0.5v3.46C277.74,153.6,278.86,154.6,280.41,154.6z M286.81,154.45h0.42c0.32,0,0.5-0.18,0.5-0.5v-2.79
	c0-2.13,1.46-2.62,2.18-2.62c0.74,0,1.4,0.52,1.4,1.96v3.44c0,0.32,0.18,0.5,0.5,0.5h0.42c0.32,0,0.52-0.18,0.52-0.5v-3.46
	c0-2.2-1.13-3.21-2.69-3.21c-1.13,0-2.03,0.55-2.34,1.53v-0.87c0-0.32-0.18-0.5-0.5-0.5h-0.42c-0.32,0-0.52,0.18-0.52,0.5v6.01
	C286.29,154.27,286.48,154.45,286.81,154.45z M297.75,154.6c0.94,0,1.85-0.32,2.51-1.26v0.6c0,0.32,0.2,0.5,0.52,0.5h0.42
	c0.32,0,0.5-0.18,0.5-0.5v-9.11c0-0.32-0.18-0.5-0.5-0.5h-0.42c-0.32,0-0.52,0.18-0.52,0.5v3.71c-0.66-0.94-1.57-1.26-2.51-1.26
	c-2.09,0-3.47,1.64-3.47,3.65C294.27,152.95,295.66,154.6,297.75,154.6z M297.94,153.34c-1.41,0-2.23-1.09-2.23-2.41
	c0-1.3,0.81-2.41,2.23-2.41c1.39,0,2.32,1.02,2.34,2.41C300.27,152.32,299.33,153.34,297.94,153.34z M309.91,154.45h0.39
	c0.29,0,0.48-0.14,0.56-0.42l2.1-6.8l2.09,6.8c0.08,0.28,0.28,0.42,0.57,0.42H316c0.29,0,0.49-0.14,0.57-0.42l2.74-8.79
	c0.11-0.35-0.07-0.59-0.43-0.59h-0.43c-0.29,0-0.49,0.14-0.57,0.42l-2.16,6.89l-2.03-6.57c-0.08-0.28-0.28-0.42-0.57-0.42h-0.32
	c-0.29,0-0.48,0.14-0.56,0.42l-2.04,6.57l-2.14-6.89c-0.1-0.28-0.28-0.42-0.57-0.42h-0.45c-0.36,0-0.53,0.24-0.43,0.59l2.76,8.79
	C309.44,154.31,309.62,154.45,309.91,154.45z M323.4,154.6c2.06,0,3.72-1.64,3.72-3.67c0-2-1.67-3.65-3.72-3.65
	c-2.04,0-3.7,1.64-3.7,3.65C319.7,152.98,321.36,154.6,323.4,154.6z M323.4,153.34c-1.25,0-2.27-1.06-2.27-2.39s1.02-2.41,2.27-2.41
	c1.27,0,2.28,1.08,2.28,2.41S324.67,153.34,323.4,153.34z M329.23,154.45h0.42c0.32,0,0.5-0.18,0.5-0.5v-2.17
	c0-2.87,1.26-3.12,1.76-3.12c0.13,0,0.25,0.01,0.38,0.04c0.24,0.06,0.38-0.08,0.38-0.43v-0.41c0-0.28-0.04-0.52-0.34-0.56
	l-0.31-0.01c-0.84,0-1.64,0.6-1.88,1.72v-1.06c0-0.32-0.18-0.5-0.5-0.5h-0.42c-0.32,0-0.52,0.18-0.52,0.5v6.01
	C328.71,154.27,328.91,154.45,329.23,154.45z M338.95,154.6c0.14,0,0.62,0,1.09-0.22c0.35-0.17,0.42-0.41,0.35-0.57l-0.22-0.45
	c-0.1-0.17-0.21-0.2-0.41-0.13c-0.25,0.11-0.52,0.13-0.63,0.13c-0.62,0-0.81-0.35-1.22-0.92l-1.16-1.78l2.16-2.6
	c0.28-0.34,0.15-0.62-0.29-0.62h-0.53c-0.27,0-0.46,0.08-0.62,0.29l-2.14,2.65v-5.54c0-0.32-0.18-0.5-0.5-0.5h-0.42
	c-0.32,0-0.52,0.18-0.52,0.5v9.11c0,0.32,0.2,0.5,0.52,0.5h0.42c0.32,0,0.5-0.18,0.5-0.5v-3.08l1.37,2.23
	C337.13,153.72,337.6,154.6,338.95,154.6z M343.49,154.6c1.37,0,2.55-0.77,2.55-2.11c0-0.76-0.36-1.58-1.71-2l-1.01-0.34
	c-0.41-0.13-0.81-0.36-0.81-0.81c0-0.49,0.39-0.87,1.01-0.87c0.31,0,0.62,0.08,0.85,0.36c0.2,0.25,0.36,0.38,0.66,0.29l0.27-0.06
	c0.34-0.07,0.5-0.32,0.32-0.64c-0.46-0.85-1.29-1.15-2.14-1.15c-1.4,0-2.35,0.9-2.35,2.1c0,0.99,0.67,1.6,1.75,1.92l0.94,0.32
	c0.49,0.17,0.87,0.41,0.87,0.85c0,0.53-0.5,0.92-1.18,0.92c-0.55,0-1.02-0.22-1.3-0.57c-0.18-0.24-0.35-0.36-0.63-0.29l-0.29,0.08
	c-0.34,0.08-0.5,0.31-0.34,0.63C341.41,154.14,342.41,154.6,343.49,154.6z M348.14,157.59h0.42c0.32,0,0.5-0.18,0.5-0.5v-3.74
	c0.66,0.94,1.58,1.26,2.52,1.26c2.09,0,3.47-1.65,3.47-3.67c0-2.02-1.39-3.65-3.47-3.65c-0.94,0-1.86,0.32-2.52,1.26v-0.6
	c0-0.32-0.18-0.5-0.5-0.5h-0.42c-0.32,0-0.52,0.18-0.52,0.5v9.14C347.62,157.4,347.82,157.59,348.14,157.59z M351.37,153.34
	c-1.37,0-2.32-1.02-2.34-2.41c0.01-1.39,0.97-2.41,2.34-2.41c1.43,0,2.24,1.11,2.24,2.41C353.61,152.25,352.8,153.34,351.37,153.34z
	 M359.61,154.6c0.94,0,1.85-0.32,2.51-1.26v0.6c0,0.32,0.2,0.5,0.52,0.5h0.42c0.32,0,0.5-0.18,0.5-0.5v-6.01
	c0-0.32-0.18-0.5-0.5-0.5h-0.42c-0.32,0-0.52,0.18-0.52,0.5v0.6c-0.66-0.94-1.57-1.26-2.51-1.26c-2.09,0-3.47,1.64-3.47,3.65
	C356.14,152.95,357.53,154.6,359.61,154.6z M359.81,153.34c-1.41,0-2.23-1.09-2.23-2.41c0-1.3,0.81-2.41,2.23-2.41
	c1.39,0,2.32,1.02,2.34,2.41C362.13,152.32,361.19,153.34,359.81,153.34z M369.11,154.6c0.5,0,1.19-0.08,1.89-0.46
	c0.45-0.22,0.55-0.56,0.35-0.83l-0.1-0.14c-0.18-0.27-0.41-0.29-0.71-0.14c-0.6,0.29-1.2,0.31-1.36,0.31
	c-1.48,0-2.58-0.99-2.58-2.41c0-1.41,1.09-2.39,2.58-2.39c0.15,0,0.76,0.01,1.36,0.31c0.31,0.14,0.52,0.13,0.71-0.14l0.11-0.14
	c0.2-0.27,0.15-0.55-0.14-0.71c-0.8-0.46-1.55-0.57-2.11-0.57c-2.53,0-3.95,1.68-3.95,3.74C365.16,153.02,366.63,154.6,369.11,154.6
	z M376.4,154.6c0.88,0,1.82-0.21,2.63-0.87c0.32-0.27,0.32-0.56,0.1-0.8l-0.1-0.11c-0.22-0.22-0.45-0.24-0.71-0.07
	c-0.6,0.41-1.22,0.59-1.9,0.59c-1.53,0-2.6-0.95-2.56-2.25h5.43c0.34,0,0.53-0.18,0.49-0.52c-0.2-2.24-1.81-3.29-3.57-3.29
	c-2.18,0-3.78,1.64-3.78,3.68C372.42,152.97,373.93,154.6,376.4,154.6z M373.98,150.03c0.43-1.19,1.44-1.51,2.25-1.51
	c0.77,0,1.75,0.27,2.11,1.51H373.98z"/>
<path class="st7" d="M240.01,173.95h129c1.93,0,3.5,1.57,3.5,3.5v116c0,1.93-1.57,3.5-3.5,3.5h-129c-1.93,0-3.5-1.57-3.5-3.5v-116
	C236.51,175.52,238.08,173.95,240.01,173.95z"/>
<path class="st0" d="M236.01,177.45c0-2.21,1.79-4,4-4h128c2.21,0,4,1.79,4,4v26h-136V177.45z"/>
<path class="st8" d="M296.08,193.6c2.16,0,3.98-1.33,3.98-3.84v-5.53c0-0.38-0.21-0.59-0.59-0.59h-0.67c-0.38,0-0.59,0.21-0.59,0.59
	v5.53c0,1.47-0.98,2.21-2.13,2.21c-1.15,0-2.13-0.74-2.13-2.21v-5.53c0-0.38-0.21-0.59-0.59-0.59h-0.67c-0.38,0-0.59,0.21-0.59,0.59
	v5.53C292.11,192.27,293.93,193.6,296.08,193.6z M304.26,193.6c1.46,0,2.72-0.76,2.72-2.18c-0.01-0.81-0.46-1.64-1.88-2.09
	l-0.95-0.34c-0.39-0.13-0.73-0.32-0.73-0.7c0-0.41,0.32-0.74,0.87-0.74c0.28,0,0.56,0.07,0.77,0.32c0.22,0.24,0.41,0.36,0.74,0.28
	l0.32-0.08c0.39-0.1,0.59-0.39,0.35-0.76c-0.49-0.84-1.32-1.13-2.21-1.13c-1.47,0-2.51,0.92-2.51,2.18c0,1.16,0.98,1.72,1.89,2
	l0.91,0.32c0.46,0.17,0.76,0.36,0.76,0.74c0,0.45-0.43,0.78-1.05,0.78c-0.49,0-0.92-0.2-1.18-0.5c-0.24-0.27-0.41-0.42-0.74-0.34
	l-0.36,0.08c-0.38,0.1-0.57,0.36-0.39,0.74C302.06,193.13,303.07,193.6,304.26,193.6z M311.98,193.6c0.9,0,1.86-0.21,2.67-0.84
	c0.35-0.27,0.36-0.62,0.11-0.9l-0.13-0.15c-0.24-0.27-0.52-0.29-0.83-0.11c-0.57,0.36-1.16,0.52-1.75,0.52
	c-1.47,0-2.42-0.88-2.39-1.96h5.22c0.38,0,0.62-0.2,0.59-0.56c-0.14-2.27-1.79-3.42-3.7-3.42c-2.31,0-3.86,1.71-3.86,3.74
	S309.46,193.6,311.98,193.6z M309.76,189.03c0.34-1.08,1.27-1.4,2.06-1.4c0.76,0,1.65,0.28,1.93,1.4H309.76z M317.45,193.45h0.62
	c0.38,0,0.6-0.21,0.6-0.59v-2.23c0-2.32,1.01-2.73,1.68-2.73c0.11,0,0.24,0.01,0.36,0.04c0.27,0.04,0.43-0.11,0.43-0.48v-0.7
	c0-0.28-0.06-0.53-0.36-0.56c-0.07-0.01-0.22-0.03-0.28-0.03c-0.73,0-1.64,0.52-1.88,1.74v-0.98c0-0.38-0.21-0.6-0.59-0.6h-0.59
	c-0.38,0-0.59,0.22-0.59,0.6v5.92C316.86,193.24,317.07,193.45,317.45,193.45z M327.84,193.45h0.63c0.38,0,0.59-0.21,0.59-0.59
	v-8.62c0-0.38-0.18-0.59-0.5-0.59c-0.35,0-0.56,0.04-0.83,0.15l-2.56,1.16c-0.32,0.15-0.45,0.42-0.34,0.77l0.1,0.31
	c0.11,0.36,0.39,0.5,0.76,0.35l1.57-0.69v7.15C327.25,193.24,327.46,193.45,327.84,193.45z"/>
<path class="st9" d="M277.01,186.45c0.8,0,1.56-0.32,2.12-0.88c0.56-0.56,0.88-1.32,0.88-2.12s-0.32-1.56-0.88-2.12
	c-0.56-0.56-1.33-0.88-2.12-0.88s-1.56,0.32-2.12,0.88c-0.56,0.56-0.88,1.32-0.88,2.12s0.32,1.56,0.88,2.12
	C275.45,186.13,276.22,186.45,277.01,186.45L277.01,186.45z M270.01,195.45c0-0.92,0.18-1.83,0.53-2.68
	c0.35-0.85,0.87-1.62,1.52-2.27c0.65-0.65,1.42-1.17,2.27-1.52c0.85-0.35,1.76-0.53,2.68-0.53s1.83,0.18,2.68,0.53
	c0.85,0.35,1.62,0.87,2.27,1.52c0.65,0.65,1.16,1.42,1.52,2.27c0.35,0.85,0.53,1.76,0.53,2.68H270.01z"/>
<path class="st0" d="M287.86,506.45h0.48c0.32,0,0.5-0.18,0.5-0.5v-6.61l5.03,6.8c0.17,0.22,0.36,0.31,0.63,0.31h0.2
	c0.32,0,0.52-0.18,0.52-0.5v-8.79c0-0.32-0.2-0.5-0.52-0.5h-0.48c-0.32,0-0.5,0.18-0.5,0.5v6.58l-5.01-6.78
	c-0.17-0.22-0.36-0.31-0.63-0.31h-0.21c-0.32,0-0.5,0.18-0.5,0.5v8.79C287.36,506.27,287.54,506.45,287.86,506.45z M300.66,506.6
	c2.06,0,3.72-1.64,3.72-3.67c0-2-1.67-3.65-3.72-3.65c-2.04,0-3.7,1.64-3.7,3.65C296.96,504.98,298.62,506.6,300.66,506.6z
	 M300.66,505.34c-1.25,0-2.27-1.06-2.27-2.39s1.02-2.41,2.27-2.41c1.27,0,2.28,1.08,2.28,2.41S301.93,505.34,300.66,505.34z
	 M308.42,506.6c1.34,0,2.1-0.77,2.1-1.82c0-0.01,0-0.28-0.06-0.52c-0.03-0.18-0.15-0.25-0.32-0.25h-0.64c-0.2,0-0.28,0.13-0.25,0.32
	c0.03,0.11,0.03,0.21,0.03,0.27c0,0.5-0.39,0.76-0.83,0.76c-0.45,0-0.81-0.29-0.81-1.05v-3.75h1.92c0.18,0,0.28-0.11,0.28-0.29
	v-0.55c0-0.18-0.1-0.28-0.28-0.28h-1.92v-1.58c0-0.27-0.15-0.43-0.42-0.43h-0.29c-0.25,0-0.41,0.14-0.45,0.41l-0.25,1.61h-0.88
	c-0.18,0-0.28,0.1-0.28,0.28v0.55c0,0.18,0.1,0.29,0.28,0.29h0.85v3.67C306.2,506.03,307.3,506.6,308.42,506.6z M315.23,506.6
	c0.88,0,1.82-0.21,2.63-0.87c0.32-0.27,0.32-0.56,0.1-0.8l-0.1-0.11c-0.22-0.22-0.45-0.24-0.71-0.07c-0.6,0.41-1.22,0.59-1.9,0.59
	c-1.53,0-2.6-0.95-2.56-2.25h5.43c0.34,0,0.53-0.18,0.49-0.52c-0.2-2.24-1.81-3.29-3.57-3.29c-2.18,0-3.78,1.64-3.78,3.68
	C311.25,504.97,312.76,506.6,315.23,506.6z M312.8,502.03c0.43-1.19,1.44-1.51,2.25-1.51c0.77,0,1.75,0.27,2.11,1.51H312.8z
	 M323.1,506.45h0.46c0.29,0,0.48-0.13,0.59-0.41l0.6-1.6h4.68l0.6,1.6c0.11,0.28,0.31,0.41,0.6,0.41h0.45
	c0.38,0,0.52-0.24,0.39-0.59l-3.4-8.81c-0.1-0.27-0.29-0.41-0.59-0.41h-0.81c-0.28,0-0.49,0.14-0.59,0.41l-3.37,8.81
	C322.56,506.21,322.72,506.45,323.1,506.45z M325.17,503.24l1.9-5.15l1.93,5.15H325.17z M335.75,506.6c2.51,0,3.93-1.5,3.93-3.39
	c0-1.68-1.26-2.7-2.67-2.93c-0.18-0.04-0.39-0.06-0.6-0.06l2.7-2.46c0.17-0.17,0.24-0.32,0.24-0.55v-0.14
	c0-0.28-0.15-0.43-0.43-0.43h-5.73c-0.28,0-0.43,0.15-0.43,0.43v0.34c0,0.28,0.15,0.45,0.43,0.45h3.96l-2.86,2.77
	c-0.21,0.21-0.21,0.41-0.04,0.62l0.15,0.18c0.17,0.22,0.36,0.22,0.62,0.1c0.38-0.18,0.83-0.22,1.05-0.22c1.22,0,2.17,0.8,2.17,1.92
	c0,0.95-0.81,2.09-2.51,2.09c-0.92,0-1.51-0.11-2.24-0.56c-0.22-0.15-0.45-0.14-0.62,0.07l-0.27,0.29
	c-0.18,0.22-0.17,0.45,0.07,0.62C333.35,506.23,334.38,506.6,335.75,506.6z"/>
<path class="st5" d="M266.01,495.45c0-0.53,0.21-1.04,0.59-1.41s0.88-0.59,1.41-0.59h4.59c0.53,0,1.04,0.21,1.41,0.59l3.41,3.41
	c0.38,0.38,0.59,0.88,0.59,1.41v8.59c0,0.53-0.21,1.04-0.59,1.41s-0.88,0.59-1.41,0.59h-8c-0.53,0-1.04-0.21-1.41-0.59
	s-0.59-0.88-0.59-1.41V495.45z M268.01,501.45c0-0.27,0.11-0.52,0.29-0.71c0.19-0.19,0.44-0.29,0.71-0.29h6
	c0.27,0,0.52,0.11,0.71,0.29c0.19,0.19,0.29,0.44,0.29,0.71s-0.11,0.52-0.29,0.71c-0.19,0.19-0.44,0.29-0.71,0.29h-6
	c-0.27,0-0.52-0.11-0.71-0.29C268.12,501.97,268.01,501.71,268.01,501.45z M269.01,504.45c-0.27,0-0.52,0.11-0.71,0.29
	c-0.19,0.19-0.29,0.44-0.29,0.71s0.11,0.52,0.29,0.71c0.19,0.19,0.44,0.29,0.71,0.29h6c0.27,0,0.52-0.11,0.71-0.29
	c0.19-0.19,0.29-0.44,0.29-0.71s-0.11-0.52-0.29-0.71c-0.19-0.19-0.44-0.29-0.71-0.29H269.01z"/>
<path class="st7" d="M240.01,450.95h129c1.93,0,3.5,1.57,3.5,3.5v64c0,1.93-1.57,3.5-3.5,3.5h-129c-1.93,0-3.5-1.57-3.5-3.5v-64
	C236.51,452.52,238.08,450.95,240.01,450.95z"/>
<path class="st0" d="M236.01,454.45c0-2.21,1.79-4,4-4h128c2.21,0,4,1.79,4,4v26h-136V454.45z"/>
<path class="st8" d="M296.08,470.6c2.16,0,3.98-1.33,3.98-3.84v-5.53c0-0.38-0.21-0.59-0.59-0.59h-0.67c-0.38,0-0.59,0.21-0.59,0.59
	v5.53c0,1.47-0.98,2.21-2.13,2.21c-1.15,0-2.13-0.74-2.13-2.21v-5.53c0-0.38-0.21-0.59-0.59-0.59h-0.67c-0.38,0-0.59,0.21-0.59,0.59
	v5.53C292.11,469.27,293.93,470.6,296.08,470.6z M304.26,470.6c1.46,0,2.72-0.76,2.72-2.18c-0.01-0.81-0.46-1.64-1.88-2.09
	l-0.95-0.34c-0.39-0.13-0.73-0.32-0.73-0.7c0-0.41,0.32-0.74,0.87-0.74c0.28,0,0.56,0.07,0.77,0.32c0.22,0.24,0.41,0.36,0.74,0.28
	l0.32-0.08c0.39-0.1,0.59-0.39,0.35-0.76c-0.49-0.84-1.32-1.13-2.21-1.13c-1.47,0-2.51,0.92-2.51,2.18c0,1.16,0.98,1.72,1.89,2
	l0.91,0.32c0.46,0.17,0.76,0.36,0.76,0.74c0,0.45-0.43,0.78-1.05,0.78c-0.49,0-0.92-0.2-1.18-0.5c-0.24-0.27-0.41-0.42-0.74-0.34
	l-0.36,0.08c-0.38,0.1-0.57,0.36-0.39,0.74C302.06,470.13,303.07,470.6,304.26,470.6z M311.98,470.6c0.9,0,1.86-0.21,2.67-0.84
	c0.35-0.27,0.36-0.62,0.11-0.9l-0.13-0.15c-0.24-0.27-0.52-0.29-0.83-0.11c-0.57,0.36-1.16,0.52-1.75,0.52
	c-1.47,0-2.42-0.88-2.39-1.96h5.22c0.38,0,0.62-0.2,0.59-0.56c-0.14-2.27-1.79-3.42-3.7-3.42c-2.31,0-3.86,1.71-3.86,3.74
	C307.92,468.95,309.46,470.6,311.98,470.6z M309.76,466.03c0.34-1.08,1.27-1.4,2.06-1.4c0.76,0,1.65,0.28,1.93,1.4H309.76z
	 M317.45,470.45h0.62c0.38,0,0.6-0.21,0.6-0.59v-2.23c0-2.32,1.01-2.73,1.68-2.73c0.11,0,0.24,0.01,0.36,0.04
	c0.27,0.04,0.43-0.11,0.43-0.48v-0.7c0-0.28-0.06-0.53-0.36-0.56c-0.07-0.01-0.22-0.03-0.28-0.03c-0.73,0-1.64,0.52-1.88,1.74v-0.98
	c0-0.38-0.21-0.6-0.59-0.6h-0.59c-0.38,0-0.59,0.22-0.59,0.6v5.92C316.86,470.24,317.07,470.45,317.45,470.45z M328.42,470.6
	c2.62,0,4.06-1.51,4.06-3.42c0-1.67-1.22-2.66-2.62-2.87c-0.18-0.04-0.38-0.06-0.59-0.06l2.58-2.28c0.2-0.18,0.29-0.38,0.29-0.64
	v-0.17c0-0.32-0.2-0.52-0.53-0.52h-5.71c-0.34,0-0.52,0.2-0.52,0.52v0.45c0,0.32,0.18,0.52,0.52,0.52h3.64l-2.56,2.39
	c-0.27,0.22-0.28,0.48-0.08,0.73l0.14,0.2c0.2,0.25,0.42,0.28,0.71,0.17c0.35-0.15,0.73-0.18,0.95-0.18c1.12,0,1.99,0.7,1.99,1.72
	c0,0.91-0.77,1.9-2.35,1.9c-0.78,0-1.34-0.1-2.07-0.52c-0.28-0.17-0.53-0.14-0.74,0.11l-0.29,0.36c-0.21,0.25-0.2,0.53,0.08,0.73
	C326.06,470.27,327.13,470.6,328.42,470.6z"/>
<path class="st9" d="M277.01,463.45c0.8,0,1.56-0.32,2.12-0.88c0.56-0.56,0.88-1.33,0.88-2.12s-0.32-1.56-0.88-2.12
	c-0.56-0.56-1.33-0.88-2.12-0.88s-1.56,0.32-2.12,0.88c-0.56,0.56-0.88,1.33-0.88,2.12s0.32,1.56,0.88,2.12
	C275.45,463.13,276.22,463.45,277.01,463.45L277.01,463.45z M270.01,472.45c0-0.92,0.18-1.83,0.53-2.68
	c0.35-0.85,0.87-1.62,1.52-2.27c0.65-0.65,1.42-1.16,2.27-1.52c0.85-0.35,1.76-0.53,2.68-0.53s1.83,0.18,2.68,0.53
	c0.85,0.35,1.62,0.87,2.27,1.52c0.65,0.65,1.16,1.42,1.52,2.27c0.35,0.85,0.53,1.76,0.53,2.68H270.01z"/>
<path class="st1" d="M128.68,226.45c0,2.95,2.39,5.33,5.33,5.33s5.33-2.39,5.33-5.33s-2.39-5.33-5.33-5.33
	S128.68,223.5,128.68,226.45z M236.72,227.16c0.39-0.39,0.39-1.02,0-1.41l-6.36-6.36c-0.39-0.39-1.02-0.39-1.41,0
	c-0.39,0.39-0.39,1.02,0,1.41l5.66,5.66l-5.66,5.66c-0.39,0.39-0.39,1.02,0,1.41c0.39,0.39,1.02,0.39,1.41,0L236.72,227.16z
	 M134.01,227.45h102v-2h-102V227.45z"/>
<path class="st1" d="M128.68,274.45c0,2.95,2.39,5.33,5.33,5.33s5.33-2.39,5.33-5.33s-2.39-5.33-5.33-5.33
	S128.68,271.5,128.68,274.45z M236.72,275.16c0.39-0.39,0.39-1.02,0-1.41l-6.36-6.36c-0.39-0.39-1.02-0.39-1.41,0
	c-0.39,0.39-0.39,1.02,0,1.41l5.66,5.66l-5.66,5.66c-0.39,0.39-0.39,1.02,0,1.41c0.39,0.39,1.02,0.39,1.41,0L236.72,275.16z
	 M134.01,275.45h102v-2h-102V275.45z"/>
<path class="st1" d="M367.68,226.45c0,2.95,2.39,5.33,5.33,5.33s5.33-2.39,5.33-5.33s-2.39-5.33-5.33-5.33
	S367.68,223.5,367.68,226.45z M435.72,227.16c0.39-0.39,0.39-1.02,0-1.41l-6.36-6.36c-0.39-0.39-1.02-0.39-1.41,0
	c-0.39,0.39-0.39,1.02,0,1.41l5.66,5.66l-5.66,5.66c-0.39,0.39-0.39,1.02,0,1.41c0.39,0.39,1.02,0.39,1.41,0L435.72,227.16z
	 M373.01,227.45h62v-2h-62V227.45z"/>
<path class="st1" d="M367.68,274.45c0,2.95,2.39,5.33,5.33,5.33s5.33-2.39,5.33-5.33s-2.39-5.33-5.33-5.33
	S367.68,271.5,367.68,274.45z M434.72,275.16c0.39-0.39,0.39-1.02,0-1.41l-6.36-6.36c-0.39-0.39-1.02-0.39-1.41,0
	c-0.39,0.39-0.39,1.02,0,1.41l5.66,5.66l-5.66,5.66c-0.39,0.39-0.39,1.02,0,1.41c0.39,0.39,1.02,0.39,1.41,0L434.72,275.16z
	 M373.01,275.45h61v-2h-61V275.45z"/>
<path class="st1" d="M128.68,497.45c0,2.95,2.39,5.33,5.33,5.33s5.33-2.39,5.33-5.33s-2.39-5.33-5.33-5.33
	S128.68,494.5,128.68,497.45z M236.72,498.16c0.39-0.39,0.39-1.02,0-1.41l-6.36-6.36c-0.39-0.39-1.02-0.39-1.41,0
	c-0.39,0.39-0.39,1.02,0,1.41l5.66,5.66l-5.66,5.66c-0.39,0.39-0.39,1.02,0,1.41c0.39,0.39,1.02,0.39,1.41,0L236.72,498.16z
	 M134.01,498.45h102v-2h-102V498.45z"/>
<path class="st1" d="M367.68,497.45c0,2.95,2.39,5.33,5.33,5.33s5.33-2.39,5.33-5.33s-2.39-5.33-5.33-5.33
	S367.68,494.5,367.68,497.45z M435.72,498.16c0.39-0.39,0.39-1.02,0-1.41l-6.36-6.36c-0.39-0.39-1.02-0.39-1.41,0
	c-0.39,0.39-0.39,1.02,0,1.41l5.66,5.66l-5.66,5.66c-0.39,0.39-0.39,1.02,0,1.41c0.39,0.39,1.02,0.39,1.41,0L435.72,498.16z
	 M373.01,498.45h62v-2h-62V498.45z"/>
</svg>
