<?xml version="1.0" encoding="utf-8"?>
<!-- Generator: Adobe Illustrator 25.4.1, SVG Export Plug-In . SVG Version: 6.00 Build 0)  -->
<svg version="1.1" id="Calque_1" xmlns="http://www.w3.org/2000/svg" xmlns:xlink="http://www.w3.org/1999/xlink" x="0px" y="0px"
	 viewBox="0 0 576.86 104.06" style="enable-background:new 0 0 576.86 104.06;" xml:space="preserve">
<style type="text/css">
	.st0{fill:#FFFFFF;}
	.st1{fill:#F4526A;}
</style>
<g>
	<path class="st0" d="M292.66,31.59L257.52,43.9l7.8,6.7v39.25c-2.33,0.82-4.79,1.37-6.98,1.37c-6.85,0-7.81-4.51-7.81-16V32.28
		L215.4,44.59l7.79,6.7V80.7c0,16.27,5.33,23.37,17.63,23.37c7.66,0,15.45-5.46,24.49-12.02v10.52h34.17v-2.17h-6.84V31.59H292.66z"
		/>
	<path class="st0" d="M121.7,90.54c-9.16,0-18.99-5.06-26.79-12.72c16.41-6.16,25.15-16.14,25.15-27.5
		c0-9.99-8.88-17.49-21.73-17.49c-21.89,0-35.28,16.54-35.28,36.51c0,21.21,15.85,34.59,35.15,34.59c12.71,0,21.87-4.92,27.61-13.66
		l-0.14-0.14C124.44,90.4,123.07,90.54,121.7,90.54z M79.99,45.67c0-5.06,2.05-8.07,5.61-8.07c5.88,0,13.82,10.13,13.82,22.03
		c0,6.98-1.51,12.45-5.34,17.37C85.88,68.51,79.99,57.02,79.99,45.67z"/>
	<path class="st0" d="M41.85,60.58l-10.26-5.47c-8.08-4.24-10.27-7.66-10.27-12.45c0-3.83,3.01-7.25,9.04-7.25
		c0.69,0,1.64,0.14,2.33,0.41l15.86,22.57h0.14l5.33-21.61c-6.7-2.46-13.8-3.95-22.69-3.95c-18.19,0-29.4,9.01-29.4,22.83
		c0,10.4,5.47,16.83,16.81,22.85l9.03,4.79c5.75,3.01,8.22,5.34,8.22,9.44c0,5.61-4.11,8.76-10.13,8.76c-1.64,0-2.6-0.14-4.52-0.68
		L4.37,78.09H4.24L0,100.39c9.57,2.86,18.59,3.54,25.02,3.54c16.83,0,31.18-8.74,31.18-22.96C56.19,72.48,51.28,65.64,41.85,60.58z"
		/>
	<path class="st0" d="M183.13,56.76l8.34-3.69c9.02-3.96,15.44-7.93,15.44-13.4c0-1.37-0.27-2.32-1.1-3.42h-27.34v0.68
		c4.38,2.19,5.89,6.15,5.89,9.71c0,6.15-3.29,9.44-9.99,14.36l-10.4,7.52V0l-35.13,12.31l7.79,6.7v81.38h-6.84v2.17h38.28v-2.17
		h-4.1V70.71l20.39,31.85h34.04v-2.17h-5.61L183.13,56.76z"/>
	<path class="st0" d="M470.73,0l-35.14,12.31l7.8,6.7v18.86c-4.24-2.86-9.17-5.04-16.43-5.04c-18.73,0-31.72,15.99-31.72,38.69
		c0,21.06,10.39,32.41,24.33,32.41c8.07,0,16.56-4.79,23.81-12.17v10.81h34.17v-2.17h-6.84V0H470.73z M443.39,89.86
		c-1.91,0.82-3.69,1.37-5.75,1.37c-9.17,0-13.14-9.16-13.14-27.5c0-16.97,5.06-25.58,12.18-25.58c2.33,0,4.79,0.68,6.71,2.05
		L443.39,89.86L443.39,89.86z"/>
	<path class="st0" d="M382.51,53.33c0-13.94-6.02-21.18-17.63-21.18c-9.3,0-17.23,5.32-26.14,12.98V31.46l-35.13,12.29l7.8,6.7
		v49.94h-6.84v2.17h39.65v-2.17h-5.48V47.03c2.74-1.23,5.48-2.05,8.21-2.05c5.61,0,8.21,3.56,8.21,14.23v41.18h-5.47v2.17h39.65
		v-2.17h-6.84V53.33H382.51z"/>
	<path class="st1" d="M504.81,0c-11.99,0-21.71,9.5-21.71,21.71c0,15.15,12.67,21.94,19.9,21.94c-1.58,8.38-5.43,15.62-15.6,24.67
		c26.69-7.24,40.03-26.69,40.03-45.24C527.43,8.37,516.8,0,504.81,0z"/>
	<path class="st1" d="M554.24,0c-11.99,0-21.71,9.5-21.71,21.71c0,15.15,12.67,21.94,19.9,21.94c-1.58,8.38-5.43,15.62-15.6,24.67
		c26.69-7.24,40.03-26.69,40.03-45.24C576.86,8.37,566.23,0,554.24,0z"/>
</g>
</svg>
