<?xml version="1.0" encoding="utf-8"?>
<!-- Generator: Adobe Illustrator 27.2.0, SVG Export Plug-In . SVG Version: 6.00 Build 0)  -->
<svg version="1.1" id="Calque_1" xmlns="http://www.w3.org/2000/svg" xmlns:xlink="http://www.w3.org/1999/xlink" x="0px" y="0px"
	 viewBox="0 0 360 360" style="enable-background:new 0 0 360 360;" xml:space="preserve">
<style type="text/css">
	.st0{fill:#FFFFFF;}
	.st1{fill:#959595;}
	.st2{fill:#242B35;}
	.st3{fill:#EFEFEF;}
	.st4{fill:#FFFFFF;stroke:#AAAAAA;}
	.st5{fill-rule:evenodd;clip-rule:evenodd;fill:#959595;}
	.st6{fill:#EED9D0;stroke:#FFFFFF;stroke-width:2;}
	.st7{fill:#222222;}
	.st8{fill:none;stroke:#AAAAAA;}
	.st9{fill:#1251F2;}
	.st10{fill:#3F3F46;}
	.st11{fill-rule:evenodd;clip-rule:evenodd;fill:#3F3F46;}
	.st12{fill:#3F3F46;stroke:#3F3F46;}
	.st13{fill-rule:evenodd;clip-rule:evenodd;fill:#FFFFFF;}
</style>
<rect x="0.4" y="-0.04" class="st0" width="360" height="348"/>
<path class="st1" d="M12.4,138.96c0-2.21,1.79-4,4-4h94v28h-94c-2.21,0-4-1.79-4-4V138.96z"/>
<rect x="0.4" y="-0.04" class="st2" width="360" height="30"/>
<rect x="0.4" y="29.96" class="st3" width="360" height="39"/>
<path class="st0" d="M12.07,19.14c2.34,0,3.94-1.25,3.94-3.26c0-1.2-0.86-2.45-2.75-3.04l-1.66-0.62c-1.28-0.48-1.42-1.09-1.42-1.55
	c0-0.99,0.88-1.57,1.94-1.57c0.93,0,1.62,0.35,1.98,1.09c0.16,0.34,0.38,0.46,0.74,0.37l0.4-0.13c0.35-0.1,0.53-0.37,0.38-0.72
	c-0.51-1.26-1.76-2.11-3.52-2.11c-1.94,0-3.63,1.18-3.63,3.12c0,1.04,0.51,2.3,2.62,3.01l1.66,0.56c0.91,0.34,1.62,0.86,1.62,1.71
	c0,0.96-0.88,1.66-2.32,1.66c-1.12,0-1.97-0.54-2.37-1.23c-0.18-0.34-0.37-0.46-0.72-0.38l-0.46,0.11c-0.35,0.1-0.54,0.37-0.38,0.72
	C8.68,18.18,10.09,19.14,12.07,19.14z M18.51,18.96h0.48c0.37,0,0.58-0.21,0.58-0.58V15.2c0-2.43,1.66-2.99,2.5-2.99
	c0.85,0,1.6,0.59,1.6,2.24v3.94c0,0.37,0.21,0.58,0.58,0.58h0.48c0.37,0,0.59-0.21,0.59-0.58v-3.95c0-2.51-1.3-3.66-3.07-3.66
	c-1.3,0-2.32,0.62-2.67,1.74V7.97c0-0.37-0.21-0.58-0.58-0.58h-0.48c-0.37,0-0.59,0.21-0.59,0.58v10.42
	C17.91,18.75,18.14,18.96,18.51,18.96z M30.96,19.14c1.07,0,2.11-0.37,2.86-1.44v0.69c0,0.37,0.22,0.58,0.59,0.58h0.48
	c0.37,0,0.58-0.21,0.58-0.58v-6.86c0-0.37-0.21-0.58-0.58-0.58h-0.48c-0.37,0-0.59,0.21-0.59,0.58v0.69
	c-0.75-1.07-1.79-1.44-2.86-1.44c-2.38,0-3.97,1.87-3.97,4.18S28.58,19.14,30.96,19.14z M31.19,17.7c-1.62,0-2.54-1.25-2.54-2.75
	c0-1.49,0.93-2.75,2.54-2.75c1.58,0,2.66,1.17,2.67,2.75C33.84,16.53,32.77,17.7,31.19,17.7z M38.47,18.96h0.48
	c0.37,0,0.58-0.21,0.58-0.58V15.9c0-3.28,1.44-3.57,2.02-3.57c0.14,0,0.29,0.02,0.43,0.05c0.27,0.06,0.43-0.1,0.43-0.5v-0.46
	c0-0.32-0.05-0.59-0.38-0.64l-0.35-0.02c-0.96,0-1.87,0.69-2.14,1.97v-1.22c0-0.37-0.21-0.58-0.58-0.58h-0.48
	c-0.37,0-0.59,0.21-0.59,0.58v6.86C37.88,18.75,38.11,18.96,38.47,18.96z M47.6,19.14c1.01,0,2.08-0.24,3.01-0.99
	c0.37-0.3,0.37-0.64,0.11-0.91l-0.11-0.13c-0.26-0.26-0.51-0.27-0.82-0.08c-0.69,0.46-1.39,0.67-2.18,0.67
	c-1.74,0-2.98-1.09-2.93-2.58h6.21c0.38,0,0.61-0.21,0.56-0.59c-0.22-2.56-2.06-3.76-4.08-3.76c-2.5,0-4.32,1.87-4.32,4.21
	C43.06,17.26,44.78,19.14,47.6,19.14z M44.83,13.9c0.5-1.36,1.65-1.73,2.58-1.73c0.88,0,2,0.3,2.42,1.73H44.83z"/>
<path class="st4" d="M18.4,183.46h322c1.93,0,3.5,1.57,3.5,3.5v23c0,1.93-1.57,3.5-3.5,3.5h-322c-1.93,0-3.5-1.57-3.5-3.5v-23
	C14.9,185.03,16.47,183.46,18.4,183.46z"/>
<path d="M29.31,202.96h0.53c0.34,0,0.54-0.14,0.67-0.46l0.69-1.82h5.34l0.69,1.82c0.13,0.32,0.35,0.46,0.69,0.46h0.51
	c0.43,0,0.59-0.27,0.45-0.67l-3.89-10.06c-0.11-0.3-0.34-0.46-0.67-0.46h-0.93c-0.32,0-0.56,0.16-0.67,0.46l-3.86,10.06
	C28.71,202.69,28.88,202.96,29.31,202.96z M31.68,199.3l2.18-5.89l2.21,5.89H31.68z M43.76,203.14c1.07,0,2.11-0.37,2.86-1.44v0.69
	c0,0.37,0.22,0.58,0.59,0.58h0.48c0.37,0,0.58-0.21,0.58-0.58v-10.42c0-0.37-0.21-0.58-0.58-0.58h-0.48c-0.37,0-0.59,0.21-0.59,0.58
	v4.24c-0.75-1.07-1.79-1.44-2.86-1.44c-2.38,0-3.97,1.87-3.97,4.18S41.38,203.14,43.76,203.14z M43.98,201.7
	c-1.62,0-2.54-1.25-2.54-2.75c0-1.49,0.93-2.75,2.54-2.75c1.58,0,2.66,1.17,2.67,2.75C46.64,200.53,45.57,201.7,43.98,201.7z
	 M54.1,203.14c1.07,0,2.11-0.37,2.86-1.44v0.69c0,0.37,0.22,0.58,0.59,0.58h0.48c0.37,0,0.58-0.21,0.58-0.58v-10.42
	c0-0.37-0.21-0.58-0.58-0.58h-0.48c-0.37,0-0.59,0.21-0.59,0.58v4.24c-0.75-1.07-1.79-1.44-2.86-1.44c-2.38,0-3.97,1.87-3.97,4.18
	S51.72,203.14,54.1,203.14z M54.33,201.7c-1.62,0-2.54-1.25-2.54-2.75c0-1.49,0.93-2.75,2.54-2.75c1.58,0,2.66,1.17,2.67,2.75
	C56.98,200.53,55.91,201.7,54.33,201.7z M65.82,202.96h0.48c0.37,0,0.58-0.21,0.58-0.58v-3.18c0-2.43,1.38-2.99,2.19-2.99
	c0.85,0,1.58,0.59,1.58,2.22v3.95c0,0.37,0.22,0.58,0.59,0.58h0.48c0.37,0,0.58-0.21,0.58-0.58v-3.36c0.08-2.35,1.46-2.82,2.19-2.82
	c0.85,0,1.58,0.59,1.58,2.22v3.95c0,0.37,0.22,0.58,0.59,0.58h0.48c0.37,0,0.58-0.21,0.58-0.58v-3.95c0-2.51-1.17-3.66-3.07-3.66
	c-0.96,0-2.05,0.27-2.72,1.65c-0.61-1.39-1.74-1.65-2.53-1.65c-1.17,0-2.19,0.59-2.53,1.74v-0.99c0-0.37-0.21-0.58-0.58-0.58h-0.48
	c-0.37,0-0.59,0.21-0.59,0.58v6.86C65.23,202.75,65.45,202.96,65.82,202.96z M83.66,203.14c2.35,0,4.26-1.87,4.26-4.19
	c0-2.29-1.9-4.18-4.26-4.18c-2.34,0-4.22,1.87-4.22,4.18C79.43,201.28,81.32,203.14,83.66,203.14z M83.66,201.7
	c-1.42,0-2.59-1.22-2.59-2.74s1.17-2.75,2.59-2.75c1.46,0,2.61,1.23,2.61,2.75S85.11,201.7,83.66,201.7z M90.32,202.96h0.48
	c0.37,0,0.58-0.21,0.58-0.58v-2.48c0-3.28,1.44-3.57,2.02-3.57c0.14,0,0.29,0.02,0.43,0.05c0.27,0.06,0.43-0.1,0.43-0.5v-0.46
	c0-0.32-0.05-0.59-0.38-0.64l-0.35-0.02c-0.96,0-1.87,0.69-2.14,1.97v-1.22c0-0.37-0.21-0.58-0.58-0.58h-0.48
	c-0.37,0-0.59,0.21-0.59,0.58v6.86C89.73,202.75,89.95,202.96,90.32,202.96z M99.44,203.14c1.01,0,2.08-0.24,3.01-0.99
	c0.37-0.3,0.37-0.64,0.11-0.91l-0.11-0.13c-0.26-0.26-0.51-0.27-0.82-0.08c-0.69,0.46-1.39,0.67-2.18,0.67
	c-1.74,0-2.98-1.09-2.93-2.58h6.21c0.38,0,0.61-0.21,0.56-0.59c-0.22-2.56-2.06-3.76-4.08-3.76c-2.5,0-4.32,1.87-4.32,4.21
	C94.9,201.26,96.63,203.14,99.44,203.14z M96.68,197.9c0.5-1.36,1.65-1.73,2.58-1.73c0.88,0,2,0.3,2.42,1.73H96.68z M109.82,202.96
	h0.48c0.37,0,0.58-0.21,0.58-0.58v-2.48c0-3.28,1.44-3.57,2.02-3.57c0.14,0,0.29,0.02,0.43,0.05c0.27,0.06,0.43-0.1,0.43-0.5v-0.46
	c0-0.32-0.05-0.59-0.38-0.64l-0.35-0.02c-0.96,0-1.87,0.69-2.14,1.97v-1.22c0-0.37-0.21-0.58-0.58-0.58h-0.48
	c-0.37,0-0.59,0.21-0.59,0.58v6.86C109.23,202.75,109.45,202.96,109.82,202.96z M118.94,203.14c1.01,0,2.08-0.24,3.01-0.99
	c0.37-0.3,0.37-0.64,0.11-0.91l-0.11-0.13c-0.26-0.26-0.51-0.27-0.82-0.08c-0.69,0.46-1.39,0.67-2.18,0.67
	c-1.74,0-2.98-1.09-2.93-2.58h6.21c0.38,0,0.61-0.21,0.56-0.59c-0.22-2.56-2.06-3.76-4.08-3.76c-2.5,0-4.32,1.87-4.32,4.21
	C114.4,201.26,116.13,203.14,118.94,203.14z M116.18,197.9c0.5-1.36,1.65-1.73,2.58-1.73c0.88,0,2,0.3,2.42,1.73H116.18z
	 M128.48,203.14c0.58,0,1.36-0.1,2.16-0.53c0.51-0.26,0.62-0.64,0.4-0.94l-0.11-0.16c-0.21-0.3-0.46-0.34-0.82-0.16
	c-0.69,0.34-1.38,0.35-1.55,0.35c-1.7,0-2.94-1.14-2.94-2.75c0-1.62,1.25-2.74,2.94-2.74c0.18,0,0.86,0.02,1.55,0.35
	c0.35,0.16,0.59,0.14,0.82-0.16l0.13-0.16c0.22-0.3,0.18-0.62-0.16-0.82c-0.91-0.53-1.78-0.66-2.42-0.66c-2.9,0-4.51,1.92-4.51,4.27
	C123.96,201.33,125.64,203.14,128.48,203.14z M133.89,193.49c0.64,0,1.14-0.48,1.14-1.09c0-0.62-0.48-1.12-1.14-1.12
	c-0.64,0-1.1,0.5-1.1,1.12C132.78,193.01,133.25,193.49,133.89,193.49z M133.66,202.96h0.48c0.37,0,0.58-0.21,0.58-0.58v-6.86
	c0-0.37-0.21-0.58-0.58-0.58h-0.48c-0.37,0-0.59,0.21-0.59,0.58v6.86C133.07,202.75,133.3,202.96,133.66,202.96z M137.77,206.54
	h0.48c0.37,0,0.58-0.21,0.58-0.58v-4.27c0.75,1.07,1.81,1.44,2.88,1.44c2.38,0,3.97-1.89,3.97-4.19s-1.58-4.18-3.97-4.18
	c-1.07,0-2.13,0.37-2.88,1.44v-0.69c0-0.37-0.21-0.58-0.58-0.58h-0.48c-0.37,0-0.59,0.21-0.59,0.58v10.45
	C137.18,206.34,137.4,206.54,137.77,206.54z M141.47,201.7c-1.57,0-2.66-1.17-2.67-2.75c0.02-1.58,1.1-2.75,2.67-2.75
	c1.63,0,2.56,1.26,2.56,2.75C144.03,200.45,143.1,201.7,141.47,201.7z M151.44,203.14c1.01,0,2.08-0.24,3.01-0.99
	c0.37-0.3,0.37-0.64,0.11-0.91l-0.11-0.13c-0.26-0.26-0.51-0.27-0.82-0.08c-0.69,0.46-1.39,0.67-2.18,0.67
	c-1.74,0-2.98-1.09-2.93-2.58h6.21c0.38,0,0.61-0.21,0.56-0.59c-0.22-2.56-2.06-3.76-4.08-3.76c-2.5,0-4.32,1.87-4.32,4.21
	C146.9,201.26,148.63,203.14,151.44,203.14z M148.68,197.9c0.5-1.36,1.65-1.73,2.58-1.73c0.88,0,2,0.3,2.42,1.73H148.68z
	 M157.63,202.96h0.48c0.37,0,0.58-0.21,0.58-0.58v-3.18c0-2.43,1.66-2.99,2.5-2.99c0.85,0,1.6,0.59,1.6,2.24v3.94
	c0,0.37,0.21,0.58,0.58,0.58h0.48c0.37,0,0.59-0.21,0.59-0.58v-3.95c0-2.51-1.3-3.66-3.07-3.66c-1.3,0-2.32,0.62-2.67,1.74v-0.99
	c0-0.37-0.21-0.58-0.58-0.58h-0.48c-0.37,0-0.59,0.21-0.59,0.58v6.86C157.04,202.75,157.26,202.96,157.63,202.96z M169.58,203.14
	c1.54,0,2.4-0.88,2.4-2.08c0-0.02,0-0.32-0.06-0.59c-0.03-0.21-0.18-0.29-0.37-0.29h-0.74c-0.22,0-0.32,0.14-0.29,0.37
	c0.03,0.13,0.03,0.24,0.03,0.3c0,0.58-0.45,0.86-0.94,0.86c-0.51,0-0.93-0.34-0.93-1.2v-4.29h2.19c0.21,0,0.32-0.13,0.32-0.34v-0.62
	c0-0.21-0.11-0.32-0.32-0.32h-2.19v-1.81c0-0.3-0.18-0.5-0.48-0.5h-0.34c-0.29,0-0.46,0.16-0.51,0.46l-0.29,1.84h-1.01
	c-0.21,0-0.32,0.11-0.32,0.32v0.62c0,0.21,0.11,0.34,0.32,0.34h0.98v4.19C167.03,202.48,168.3,203.14,169.58,203.14z M175.78,203.14
	c1.57,0,2.91-0.88,2.91-2.42c0-0.86-0.42-1.81-1.95-2.29l-1.15-0.38c-0.46-0.14-0.93-0.42-0.93-0.93c0-0.56,0.45-0.99,1.15-0.99
	c0.35,0,0.7,0.1,0.98,0.42c0.22,0.29,0.42,0.43,0.75,0.34l0.3-0.06c0.38-0.08,0.58-0.37,0.37-0.74c-0.53-0.98-1.47-1.31-2.45-1.31
	c-1.6,0-2.69,1.02-2.69,2.4c0,1.14,0.77,1.82,2,2.19l1.07,0.37c0.56,0.19,0.99,0.46,0.99,0.98c0,0.61-0.58,1.06-1.34,1.06
	c-0.62,0-1.17-0.26-1.49-0.66c-0.21-0.27-0.4-0.42-0.72-0.34l-0.34,0.1c-0.38,0.1-0.58,0.35-0.38,0.72
	C173.41,202.61,174.55,203.14,175.78,203.14z"/>
<path class="st5" d="M322.06,196.25c0.2-0.19,0.47-0.29,0.76-0.29c0.28,0,0.56,0.11,0.76,0.29l3.52,3.29l3.52-3.29
	c0.1-0.1,0.22-0.17,0.35-0.22c0.13-0.05,0.27-0.08,0.41-0.08c0.14,0,0.28,0.02,0.42,0.07c0.13,0.05,0.25,0.12,0.35,0.22
	c0.1,0.09,0.18,0.2,0.23,0.33c0.05,0.12,0.08,0.26,0.08,0.39c0,0.13-0.03,0.26-0.09,0.39c-0.06,0.12-0.14,0.23-0.24,0.32l-4.28,4
	c-0.2,0.19-0.47,0.29-0.76,0.29c-0.28,0-0.55-0.11-0.76-0.29l-4.28-4c-0.2-0.19-0.31-0.44-0.31-0.71S321.86,196.44,322.06,196.25z"
	/>
<path class="st6" d="M323.4,108.96c0,6.04-5.11,11-11.5,11s-11.5-4.96-11.5-11s5.11-11,11.5-11S323.4,102.92,323.4,108.96z"/>
<path class="st6" d="M305.4,108.96c0,6.04-5.11,11-11.5,11s-11.5-4.96-11.5-11s5.11-11,11.5-11S305.4,102.92,305.4,108.96z"/>
<circle class="st6" cx="275.4" cy="108.96" r="11"/>
<path d="M79.53,103.15c0.35,0,0.58-0.21,0.58-0.58v-0.24c0-0.37-0.22-0.58-0.58-0.58h-6.02c-0.37,0-0.58,0.21-0.58,0.58v10.05
	c0,0.37,0.21,0.58,0.58,0.58h6.02c0.35,0,0.58-0.21,0.58-0.58v-0.24c0-0.37-0.22-0.58-0.58-0.58h-4.9v-3.41h4.19
	c0.37,0,0.58-0.22,0.58-0.59v-0.21c0-0.37-0.21-0.58-0.58-0.58h-4.19v-3.63H79.53z M85.34,113.14c1.07,0,2.11-0.37,2.86-1.44v0.69
	c0,0.37,0.22,0.58,0.59,0.58h0.48c0.37,0,0.58-0.21,0.58-0.58v-6.86c0-0.37-0.21-0.58-0.58-0.58h-0.48c-0.37,0-0.59,0.21-0.59,0.58
	v0.69c-0.75-1.07-1.79-1.44-2.86-1.44c-2.38,0-3.97,1.87-3.97,4.18S82.95,113.14,85.34,113.14z M85.56,111.7
	c-1.62,0-2.54-1.25-2.54-2.75c0-1.49,0.93-2.75,2.54-2.75c1.58,0,2.66,1.17,2.67,2.75C88.22,110.53,87.15,111.7,85.56,111.7z
	 M94.64,113.14c1.57,0,2.91-0.88,2.91-2.42c0-0.86-0.42-1.81-1.95-2.29l-1.15-0.38c-0.46-0.14-0.93-0.42-0.93-0.93
	c0-0.56,0.45-0.99,1.15-0.99c0.35,0,0.7,0.1,0.98,0.42c0.22,0.29,0.42,0.43,0.75,0.34l0.3-0.06c0.38-0.08,0.58-0.37,0.37-0.74
	c-0.53-0.98-1.47-1.31-2.45-1.31c-1.6,0-2.69,1.02-2.69,2.4c0,1.14,0.77,1.82,2,2.19l1.07,0.37c0.56,0.19,0.99,0.46,0.99,0.98
	c0,0.61-0.58,1.06-1.34,1.06c-0.62,0-1.17-0.26-1.49-0.66c-0.21-0.27-0.4-0.42-0.72-0.34l-0.34,0.1c-0.38,0.1-0.58,0.35-0.38,0.72
	C92.27,112.61,93.41,113.14,94.64,113.14z M100.75,116.54h0.38c0.34,0,0.54-0.13,0.67-0.45l4.46-10.48
	c0.18-0.42-0.02-0.67-0.45-0.67h-0.66c-0.34,0-0.58,0.14-0.69,0.46l-2.05,5.41l-2.22-5.42c-0.11-0.3-0.32-0.45-0.66-0.45h-0.64
	c-0.43,0-0.62,0.27-0.45,0.67l3.07,7.04l-1.23,3.22C100.14,116.27,100.32,116.54,100.75,116.54z M114.51,112.96h0.45
	c0.34,0,0.54-0.16,0.64-0.48l2.4-7.78l2.38,7.78c0.1,0.32,0.32,0.48,0.66,0.48h0.43c0.34,0,0.56-0.16,0.66-0.48l3.14-10.05
	c0.13-0.4-0.08-0.67-0.5-0.67h-0.5c-0.34,0-0.56,0.16-0.66,0.48l-2.46,7.87l-2.32-7.5c-0.1-0.32-0.32-0.48-0.66-0.48h-0.37
	c-0.34,0-0.54,0.16-0.64,0.48l-2.34,7.5l-2.45-7.87c-0.11-0.32-0.32-0.48-0.66-0.48h-0.51c-0.42,0-0.61,0.27-0.5,0.67l3.15,10.05
	C113.96,112.8,114.17,112.96,114.51,112.96z M127.1,112.96h0.48c0.37,0,0.58-0.21,0.58-0.58v-2.48c0-3.28,1.44-3.57,2.02-3.57
	c0.14,0,0.29,0.02,0.43,0.05c0.27,0.06,0.43-0.1,0.43-0.5v-0.46c0-0.32-0.05-0.59-0.38-0.64l-0.35-0.02c-0.96,0-1.87,0.69-2.14,1.97
	v-1.22c0-0.37-0.21-0.58-0.58-0.58h-0.48c-0.37,0-0.59,0.21-0.59,0.58v6.86C126.51,112.75,126.73,112.96,127.1,112.96z
	 M133.29,103.49c0.64,0,1.14-0.48,1.14-1.09c0-0.62-0.48-1.12-1.14-1.12c-0.64,0-1.1,0.5-1.1,1.12
	C132.19,103.01,132.65,103.49,133.29,103.49z M133.07,112.96h0.48c0.37,0,0.58-0.21,0.58-0.58v-6.86c0-0.37-0.21-0.58-0.58-0.58
	h-0.48c-0.37,0-0.59,0.21-0.59,0.58v6.86C132.48,112.75,132.7,112.96,133.07,112.96z M139.53,113.14c1.54,0,2.4-0.88,2.4-2.08
	c0-0.02,0-0.32-0.06-0.59c-0.03-0.21-0.18-0.29-0.37-0.29h-0.74c-0.22,0-0.32,0.14-0.29,0.37c0.03,0.13,0.03,0.24,0.03,0.3
	c0,0.58-0.45,0.86-0.94,0.86c-0.51,0-0.93-0.34-0.93-1.2v-4.29h2.19c0.21,0,0.32-0.13,0.32-0.34v-0.62c0-0.21-0.11-0.32-0.32-0.32
	h-2.19v-1.81c0-0.3-0.18-0.5-0.48-0.5h-0.34c-0.29,0-0.46,0.16-0.51,0.46l-0.29,1.84h-1.01c-0.21,0-0.32,0.11-0.32,0.32v0.62
	c0,0.21,0.11,0.34,0.32,0.34h0.98v4.19C136.99,112.48,138.25,113.14,139.53,113.14z M147.3,113.14c1.01,0,2.08-0.24,3.01-0.99
	c0.37-0.3,0.37-0.64,0.11-0.91l-0.11-0.13c-0.26-0.26-0.51-0.27-0.82-0.08c-0.69,0.46-1.39,0.67-2.18,0.67
	c-1.74,0-2.98-1.09-2.93-2.58h6.21c0.38,0,0.61-0.21,0.56-0.59c-0.22-2.56-2.06-3.76-4.08-3.76c-2.5,0-4.32,1.87-4.32,4.21
	C142.76,111.26,144.49,113.14,147.3,113.14z M144.54,107.9c0.5-1.36,1.65-1.73,2.58-1.73c0.88,0,2,0.3,2.42,1.73H144.54z
	 M153.49,112.96h0.48c0.37,0,0.58-0.21,0.58-0.58v-2.48c0-3.28,1.44-3.57,2.02-3.57c0.14,0,0.29,0.02,0.43,0.05
	c0.27,0.06,0.43-0.1,0.43-0.5v-0.46c0-0.32-0.05-0.59-0.38-0.64l-0.35-0.02c-0.96,0-1.87,0.69-2.14,1.97v-1.22
	c0-0.37-0.21-0.58-0.58-0.58h-0.48c-0.37,0-0.59,0.21-0.59,0.58v6.86C152.9,112.75,153.12,112.96,153.49,112.96z M161.2,113.14
	c1.57,0,2.91-0.88,2.91-2.42c0-0.86-0.42-1.81-1.95-2.29l-1.15-0.38c-0.46-0.14-0.93-0.42-0.93-0.93c0-0.56,0.45-0.99,1.15-0.99
	c0.35,0,0.7,0.1,0.98,0.42c0.22,0.29,0.42,0.43,0.75,0.34l0.3-0.06c0.38-0.08,0.58-0.37,0.37-0.74c-0.53-0.98-1.47-1.31-2.45-1.31
	c-1.6,0-2.69,1.02-2.69,2.4c0,1.14,0.77,1.82,2,2.19l1.07,0.37c0.56,0.19,0.99,0.46,0.99,0.98c0,0.61-0.58,1.06-1.34,1.06
	c-0.62,0-1.17-0.26-1.49-0.66c-0.21-0.27-0.4-0.42-0.72-0.34l-0.34,0.1c-0.38,0.1-0.58,0.35-0.38,0.72
	C158.84,112.61,159.97,113.14,161.2,113.14z"/>
<path class="st7" d="M29.4,90.96h31c1.66,0,3,1.34,3,3v30c0,1.66-1.34,3-3,3h-31c-1.66,0-3-1.34-3-3v-30
	C26.4,92.3,27.74,90.96,29.4,90.96z"/>
<path class="st0" d="M38.55,101.93c0.4,0,0.65-0.23,0.65-0.65v-0.27c0-0.41-0.25-0.65-0.65-0.65h-6.77c-0.41,0-0.65,0.23-0.65,0.65
	v11.3c0,0.41,0.23,0.65,0.65,0.65h6.77c0.4,0,0.65-0.23,0.65-0.65v-0.27c0-0.41-0.25-0.65-0.65-0.65h-5.51v-3.83h4.72
	c0.41,0,0.65-0.25,0.65-0.67v-0.23c0-0.41-0.23-0.65-0.65-0.65h-4.72v-4.09H38.55z M45.09,112.96h0.5c0.38,0,0.61-0.18,0.72-0.54
	l2.7-8.75l2.68,8.75c0.11,0.36,0.36,0.54,0.74,0.54h0.49c0.38,0,0.63-0.18,0.74-0.54l3.53-11.3c0.14-0.45-0.09-0.76-0.56-0.76h-0.56
	c-0.38,0-0.63,0.18-0.74,0.54l-2.77,8.86l-2.61-8.44c-0.11-0.36-0.36-0.54-0.74-0.54H48.8c-0.38,0-0.61,0.18-0.72,0.54l-2.63,8.44
	l-2.75-8.86c-0.13-0.36-0.36-0.54-0.74-0.54h-0.58c-0.47,0-0.68,0.31-0.56,0.76l3.55,11.3C44.48,112.78,44.72,112.96,45.09,112.96z"
	/>
<path class="st8" d="M16.4,135.46h307c1.93,0,3.5,1.57,3.5,3.5v20c0,1.93-1.57,3.5-3.5,3.5h-307c-1.93,0-3.5-1.57-3.5-3.5v-20
	C12.9,137.03,14.47,135.46,16.4,135.46z"/>
<path class="st9" d="M119.19,153.96h0.48c0.37,0,0.58-0.21,0.58-0.58v-3.18c0-2.43,1.66-2.99,2.5-2.99c0.85,0,1.6,0.59,1.6,2.24
	v3.94c0,0.37,0.21,0.58,0.58,0.58h0.48c0.37,0,0.59-0.21,0.59-0.58v-3.95c0-2.51-1.3-3.66-3.07-3.66c-1.3,0-2.32,0.62-2.67,1.74
	v-4.54c0-0.37-0.21-0.58-0.58-0.58h-0.48c-0.37,0-0.59,0.21-0.59,0.58v10.42C118.6,153.75,118.83,153.96,119.19,153.96z
	 M131.11,154.14c1.54,0,2.4-0.88,2.4-2.08c0-0.02,0-0.32-0.06-0.59c-0.03-0.21-0.18-0.29-0.37-0.29h-0.74
	c-0.22,0-0.32,0.14-0.29,0.37c0.03,0.13,0.03,0.24,0.03,0.3c0,0.58-0.45,0.86-0.94,0.86c-0.51,0-0.93-0.34-0.93-1.2v-4.29h2.19
	c0.21,0,0.32-0.13,0.32-0.34v-0.62c0-0.21-0.11-0.32-0.32-0.32h-2.19v-1.81c0-0.3-0.18-0.5-0.48-0.5h-0.34
	c-0.29,0-0.46,0.16-0.51,0.46l-0.29,1.84h-1.01c-0.21,0-0.32,0.11-0.32,0.32v0.62c0,0.21,0.11,0.34,0.32,0.34h0.98v4.19
	C128.56,153.48,129.83,154.14,131.11,154.14z M137.86,154.14c1.54,0,2.4-0.88,2.4-2.08c0-0.02,0-0.32-0.06-0.59
	c-0.03-0.21-0.18-0.29-0.37-0.29h-0.74c-0.22,0-0.32,0.14-0.29,0.37c0.03,0.13,0.03,0.24,0.03,0.3c0,0.58-0.45,0.86-0.94,0.86
	c-0.51,0-0.93-0.34-0.93-1.2v-4.29h2.19c0.21,0,0.32-0.13,0.32-0.34v-0.62c0-0.21-0.11-0.32-0.32-0.32h-2.19v-1.81
	c0-0.3-0.18-0.5-0.48-0.5h-0.34c-0.29,0-0.46,0.16-0.51,0.46l-0.29,1.84h-1.01c-0.21,0-0.32,0.11-0.32,0.32v0.62
	c0,0.21,0.11,0.34,0.32,0.34h0.98v4.19C135.31,153.48,136.58,154.14,137.86,154.14z M142.27,157.54h0.48c0.37,0,0.58-0.21,0.58-0.58
	v-4.27c0.75,1.07,1.81,1.44,2.88,1.44c2.38,0,3.97-1.89,3.97-4.19s-1.58-4.18-3.97-4.18c-1.07,0-2.13,0.37-2.88,1.44v-0.69
	c0-0.37-0.21-0.58-0.58-0.58h-0.48c-0.37,0-0.59,0.21-0.59,0.58v10.45C141.68,157.34,141.9,157.54,142.27,157.54z M145.97,152.7
	c-1.57,0-2.66-1.17-2.67-2.75c0.02-1.58,1.1-2.75,2.67-2.75c1.63,0,2.56,1.26,2.56,2.75C148.53,151.45,147.6,152.7,145.97,152.7z
	 M154.38,154.14c1.57,0,2.91-0.88,2.91-2.42c0-0.86-0.42-1.81-1.95-2.29l-1.15-0.38c-0.46-0.14-0.93-0.42-0.93-0.93
	c0-0.56,0.45-0.99,1.15-0.99c0.35,0,0.7,0.1,0.98,0.42c0.22,0.29,0.42,0.43,0.75,0.34l0.3-0.06c0.38-0.08,0.58-0.37,0.37-0.74
	c-0.53-0.98-1.47-1.31-2.45-1.31c-1.6,0-2.69,1.02-2.69,2.4c0,1.14,0.77,1.82,2,2.19l1.07,0.37c0.56,0.19,0.99,0.46,0.99,0.98
	c0,0.61-0.58,1.06-1.34,1.06c-0.62,0-1.17-0.26-1.49-0.66c-0.21-0.27-0.4-0.42-0.72-0.34l-0.34,0.1c-0.38,0.1-0.58,0.35-0.38,0.72
	C152.01,153.61,153.14,154.14,154.38,154.14z M160.16,148.17c0.67,0,1.22-0.53,1.22-1.2s-0.54-1.2-1.22-1.2s-1.2,0.53-1.2,1.2
	S159.49,148.17,160.16,148.17z M160.16,154.14c0.67,0,1.22-0.53,1.22-1.18c0-0.67-0.54-1.22-1.22-1.22s-1.2,0.54-1.2,1.22
	C158.96,153.61,159.49,154.14,160.16,154.14z M164.16,154.58c0.19,0,0.3-0.1,0.4-0.26l5.78-11.73c0.11-0.24,0.02-0.4-0.24-0.4h-0.9
	c-0.19,0-0.3,0.08-0.38,0.24l-5.78,11.73c-0.11,0.24-0.02,0.42,0.24,0.42H164.16z M168.38,154.58c0.19,0,0.3-0.1,0.4-0.26
	l5.78-11.73c0.11-0.24,0.02-0.4-0.24-0.4h-0.9c-0.19,0-0.3,0.08-0.38,0.24l-5.78,11.73c-0.11,0.24-0.02,0.42,0.24,0.42H168.38z
	 M176.73,154.14c0.67,0,1.22-0.53,1.22-1.18c0-0.67-0.54-1.22-1.22-1.22s-1.2,0.54-1.2,1.22
	C175.53,153.61,176.06,154.14,176.73,154.14z M181.18,154.14c0.69,0,1.23-0.53,1.23-1.18c0-0.67-0.54-1.22-1.23-1.22
	c-0.67,0-1.2,0.54-1.2,1.22C179.98,153.61,180.51,154.14,181.18,154.14z M185.64,154.14c0.67,0,1.22-0.53,1.22-1.18
	c0-0.67-0.54-1.22-1.22-1.22c-0.69,0-1.22,0.54-1.22,1.22C184.43,153.61,184.96,154.14,185.64,154.14z"/>
<path class="st9" d="M117.4,155.56h57.76v0.8H117.4V155.56z"/>
<path class="st10" d="M312.4,141.96c0-0.26,0.11-0.52,0.29-0.71c0.19-0.19,0.44-0.29,0.71-0.29h2c0.27,0,0.52,0.1,0.71,0.29
	c0.19,0.19,0.29,0.44,0.29,0.71s-0.11,0.52-0.29,0.71c-0.19,0.19-0.44,0.29-0.71,0.29h-2c-0.27,0-0.52-0.1-0.71-0.29
	C312.51,142.48,312.4,142.22,312.4,141.96z"/>
<path class="st10" d="M310.4,141.96c-0.53,0-1.04,0.21-1.41,0.59s-0.59,0.88-0.59,1.41v11c0,0.53,0.21,1.04,0.59,1.41
	s0.88,0.59,1.41,0.59h8c0.53,0,1.04-0.21,1.41-0.59s0.59-0.88,0.59-1.41v-11c0-0.53-0.21-1.04-0.59-1.41s-0.88-0.59-1.41-0.59
	c0,0.8-0.32,1.56-0.88,2.12c-0.56,0.56-1.33,0.88-2.12,0.88h-2c-0.8,0-1.56-0.32-2.12-0.88C310.72,143.52,310.4,142.76,310.4,141.96
	z"/>
<path class="st11" d="M332.69,103.25c0.19-0.19,0.44-0.29,0.71-0.29s0.52,0.11,0.71,0.29l4.29,4.29l4.29-4.29
	c0.09-0.1,0.2-0.17,0.33-0.22c0.12-0.05,0.25-0.08,0.39-0.08c0.13,0,0.26,0.02,0.39,0.07c0.12,0.05,0.24,0.12,0.33,0.22
	c0.09,0.09,0.17,0.21,0.22,0.33c0.05,0.12,0.08,0.25,0.07,0.39c0,0.13-0.03,0.26-0.08,0.39c-0.05,0.12-0.13,0.23-0.22,0.32
	l-4.29,4.29l4.29,4.29c0.18,0.19,0.28,0.44,0.28,0.7c0,0.26-0.11,0.51-0.29,0.7c-0.19,0.18-0.44,0.29-0.7,0.29
	c-0.26,0-0.51-0.1-0.7-0.28l-4.29-4.29l-4.29,4.29c-0.19,0.18-0.44,0.28-0.7,0.28c-0.26,0-0.51-0.11-0.7-0.29
	c-0.18-0.19-0.29-0.44-0.29-0.7c0-0.26,0.1-0.51,0.28-0.7l4.29-4.29l-4.29-4.29c-0.19-0.19-0.29-0.44-0.29-0.71
	S332.51,103.44,332.69,103.25z"/>
<path class="st11" d="M333.69,143.25c0.19-0.19,0.44-0.29,0.71-0.29s0.52,0.11,0.71,0.29l4.29,4.29l4.29-4.29
	c0.09-0.1,0.2-0.17,0.33-0.22c0.12-0.05,0.25-0.08,0.39-0.08c0.13,0,0.26,0.02,0.39,0.07c0.12,0.05,0.24,0.12,0.33,0.22
	c0.09,0.09,0.17,0.2,0.22,0.33c0.05,0.12,0.08,0.26,0.07,0.39c0,0.13-0.03,0.26-0.08,0.39c-0.05,0.12-0.13,0.23-0.22,0.32
	l-4.29,4.29l4.29,4.29c0.18,0.19,0.28,0.44,0.28,0.7c0,0.26-0.11,0.51-0.29,0.7c-0.19,0.18-0.44,0.29-0.7,0.29
	c-0.26,0-0.51-0.1-0.7-0.28l-4.29-4.29l-4.29,4.29c-0.19,0.18-0.44,0.28-0.7,0.28c-0.26,0-0.51-0.11-0.7-0.29
	c-0.18-0.19-0.29-0.44-0.29-0.7c0-0.26,0.1-0.51,0.28-0.7l4.29-4.29l-4.29-4.29c-0.19-0.19-0.29-0.44-0.29-0.71
	S333.51,143.44,333.69,143.25z"/>
<path class="st12" d="M61.4,289.46h232c1.93,0,3.5,1.57,3.5,3.5v20c0,1.93-1.57,3.5-3.5,3.5h-232c-1.93,0-3.5-1.57-3.5-3.5v-20
	C57.9,291.03,59.47,289.46,61.4,289.46z"/>
<path class="st0" d="M82.38,308.14c0.58,0,1.14-0.14,1.62-0.46c0.3-0.19,0.32-0.48,0.18-0.8l-0.08-0.14
	c-0.18-0.34-0.42-0.37-0.77-0.21c-0.22,0.13-0.5,0.19-0.82,0.19c-1.22,0-1.97-1.82-2.08-3.04c1.66-0.32,2.62-1.71,2.62-3.38
	c0-1.9-1.25-3.54-3.41-3.54H75.5c-0.37,0-0.58,0.21-0.58,0.58v10.05c0,0.37,0.21,0.58,0.58,0.58h0.54c0.37,0,0.58-0.21,0.58-0.58
	v-3.63h2.21C78.94,305.1,79.74,308.14,82.38,308.14z M76.62,302.41v-4.26h2.69c1.22,0,1.98,0.88,1.98,2.14
	c0,1.23-0.75,2.11-1.98,2.11H76.62z M89.52,308.14c1.01,0,2.08-0.24,3.01-0.99c0.37-0.3,0.37-0.64,0.11-0.91l-0.11-0.13
	c-0.26-0.26-0.51-0.27-0.82-0.08c-0.69,0.46-1.39,0.67-2.18,0.67c-1.74,0-2.98-1.09-2.93-2.58h6.21c0.38,0,0.61-0.21,0.56-0.59
	c-0.22-2.56-2.06-3.76-4.08-3.76c-2.5,0-4.32,1.87-4.32,4.21C84.98,306.26,86.71,308.14,89.52,308.14z M86.75,302.9
	c0.5-1.36,1.65-1.73,2.58-1.73c0.88,0,2,0.3,2.42,1.73H86.75z M95.71,307.96h0.48c0.37,0,0.58-0.21,0.58-0.58v-3.18
	c0-2.43,1.38-2.99,2.19-2.99c0.85,0,1.58,0.59,1.58,2.22v3.95c0,0.37,0.22,0.58,0.59,0.58h0.48c0.37,0,0.58-0.21,0.58-0.58v-3.36
	c0.08-2.35,1.46-2.82,2.19-2.82c0.85,0,1.58,0.59,1.58,2.22v3.95c0,0.37,0.22,0.58,0.59,0.58h0.48c0.37,0,0.58-0.21,0.58-0.58v-3.95
	c0-2.51-1.17-3.66-3.07-3.66c-0.96,0-2.05,0.27-2.72,1.65c-0.61-1.39-1.74-1.65-2.53-1.65c-1.17,0-2.19,0.59-2.53,1.74v-0.99
	c0-0.37-0.21-0.58-0.58-0.58h-0.48c-0.37,0-0.59,0.21-0.59,0.58v6.86C95.12,307.75,95.34,307.96,95.71,307.96z M113.55,308.14
	c2.35,0,4.26-1.87,4.26-4.19c0-2.29-1.9-4.18-4.26-4.18c-2.34,0-4.22,1.87-4.22,4.18C109.32,306.28,111.21,308.14,113.55,308.14z
	 M113.55,306.7c-1.42,0-2.59-1.22-2.59-2.74s1.17-2.75,2.59-2.75c1.46,0,2.61,1.23,2.61,2.75S115,306.7,113.55,306.7z
	 M122.07,307.96h0.83c0.34,0,0.56-0.16,0.69-0.46l2.67-6.9c0.14-0.4-0.02-0.66-0.45-0.66h-0.53c-0.34,0-0.54,0.14-0.67,0.46
	l-2.13,5.74l-2.13-5.74c-0.13-0.32-0.34-0.46-0.67-0.46h-0.53c-0.43,0-0.59,0.26-0.45,0.66l2.67,6.9
	C121.51,307.8,121.74,307.96,122.07,307.96z M131.71,308.14c1.01,0,2.08-0.24,3.01-0.99c0.37-0.3,0.37-0.64,0.11-0.91l-0.11-0.13
	c-0.26-0.26-0.51-0.27-0.82-0.08c-0.69,0.46-1.39,0.67-2.18,0.67c-1.74,0-2.98-1.09-2.93-2.58h6.21c0.38,0,0.61-0.21,0.56-0.59
	c-0.22-2.56-2.06-3.76-4.08-3.76c-2.5,0-4.32,1.87-4.32,4.21C127.17,306.26,128.89,308.14,131.71,308.14z M128.94,302.9
	c0.5-1.36,1.65-1.73,2.58-1.73c0.88,0,2,0.3,2.42,1.73H128.94z M142.6,307.96h0.53c0.37,0,0.58-0.21,0.58-0.58v-6.16h1.74
	c0.21,0,0.32-0.13,0.32-0.34v-0.61c0-0.21-0.11-0.34-0.32-0.34h-1.74v-0.86c0-0.88,0.35-1.44,1.09-1.44c0.5,0,0.91,0.27,0.91,0.67
	v0.11c0,0.19,0.16,0.29,0.34,0.29h0.78c0.13,0,0.26-0.06,0.29-0.18c0.02-0.06,0.03-0.18,0.03-0.27c0-1.17-0.88-2.03-2.45-2.03
	c-1.26,0-2.67,0.54-2.67,3.12v0.59h-0.93c-0.21,0-0.32,0.13-0.32,0.34v0.61c0,0.21,0.11,0.34,0.32,0.34h0.93v6.16
	C142.02,307.75,142.23,307.96,142.6,307.96z M148.08,307.96h0.48c0.37,0,0.58-0.21,0.58-0.58v-2.48c0-3.28,1.44-3.57,2.02-3.57
	c0.14,0,0.29,0.02,0.43,0.05c0.27,0.06,0.43-0.1,0.43-0.5v-0.46c0-0.32-0.05-0.59-0.38-0.64l-0.35-0.02c-0.96,0-1.87,0.69-2.14,1.97
	v-1.22c0-0.37-0.21-0.58-0.58-0.58h-0.48c-0.37,0-0.59,0.21-0.59,0.58v6.86C147.49,307.75,147.72,307.96,148.08,307.96z
	 M156.89,308.14c2.35,0,4.26-1.87,4.26-4.19c0-2.29-1.9-4.18-4.26-4.18c-2.34,0-4.22,1.87-4.22,4.18
	C152.67,306.28,154.55,308.14,156.89,308.14z M156.89,306.7c-1.42,0-2.59-1.22-2.59-2.74s1.17-2.75,2.59-2.75
	c1.46,0,2.61,1.23,2.61,2.75S158.35,306.7,156.89,306.7z M163.55,307.96h0.48c0.37,0,0.58-0.21,0.58-0.58v-3.18
	c0-2.43,1.38-2.99,2.19-2.99c0.85,0,1.58,0.59,1.58,2.22v3.95c0,0.37,0.22,0.58,0.59,0.58h0.48c0.37,0,0.58-0.21,0.58-0.58v-3.36
	c0.08-2.35,1.46-2.82,2.19-2.82c0.85,0,1.58,0.59,1.58,2.22v3.95c0,0.37,0.22,0.58,0.59,0.58h0.48c0.37,0,0.58-0.21,0.58-0.58v-3.95
	c0-2.51-1.17-3.66-3.07-3.66c-0.96,0-2.05,0.27-2.72,1.65c-0.61-1.39-1.74-1.65-2.53-1.65c-1.17,0-2.19,0.59-2.53,1.74v-0.99
	c0-0.37-0.21-0.58-0.58-0.58h-0.48c-0.37,0-0.59,0.21-0.59,0.58v6.86C162.96,307.75,163.18,307.96,163.55,307.96z M185.42,308.14
	c2.34,0,3.94-1.25,3.94-3.26c0-1.2-0.86-2.45-2.75-3.04l-1.66-0.62c-1.28-0.48-1.42-1.09-1.42-1.55c0-0.99,0.88-1.57,1.94-1.57
	c0.93,0,1.62,0.35,1.98,1.09c0.16,0.34,0.38,0.46,0.74,0.37l0.4-0.13c0.35-0.1,0.53-0.37,0.38-0.72c-0.51-1.26-1.76-2.11-3.52-2.11
	c-1.94,0-3.63,1.18-3.63,3.12c0,1.04,0.51,2.3,2.62,3.01l1.66,0.56c0.91,0.34,1.62,0.86,1.62,1.71c0,0.96-0.88,1.66-2.32,1.66
	c-1.12,0-1.97-0.54-2.37-1.23c-0.18-0.34-0.37-0.46-0.72-0.38l-0.46,0.11c-0.35,0.1-0.54,0.37-0.38,0.72
	C182.03,307.18,183.43,308.14,185.42,308.14z M195.21,308.14c1.01,0,2.08-0.24,3.01-0.99c0.37-0.3,0.37-0.64,0.11-0.91l-0.11-0.13
	c-0.26-0.26-0.51-0.27-0.82-0.08c-0.69,0.46-1.39,0.67-2.18,0.67c-1.74,0-2.98-1.09-2.93-2.58h6.21c0.38,0,0.61-0.21,0.56-0.59
	c-0.22-2.56-2.06-3.76-4.08-3.76c-2.5,0-4.32,1.87-4.32,4.21C190.67,306.26,192.39,308.14,195.21,308.14z M192.44,302.9
	c0.5-1.36,1.65-1.73,2.58-1.73c0.88,0,2,0.3,2.42,1.73H192.44z M206.58,308.14c0.16,0,0.7,0,1.25-0.26c0.4-0.19,0.48-0.46,0.4-0.66
	l-0.26-0.51c-0.11-0.19-0.24-0.22-0.46-0.14c-0.29,0.13-0.59,0.14-0.72,0.14c-0.7,0-0.93-0.4-1.39-1.06l-1.33-2.03l2.46-2.98
	c0.32-0.38,0.18-0.7-0.34-0.7h-0.61c-0.3,0-0.53,0.1-0.7,0.34l-2.45,3.02v-6.34c0-0.37-0.21-0.58-0.58-0.58h-0.48
	c-0.37,0-0.59,0.21-0.59,0.58v10.42c0,0.37,0.22,0.58,0.59,0.58h0.48c0.37,0,0.58-0.21,0.58-0.58v-3.52l1.57,2.54
	C204.5,307.13,205.04,308.14,206.58,308.14z M212.06,308.14c1.3,0,2.32-0.62,2.67-1.74v0.99c0,0.37,0.21,0.58,0.58,0.58h0.48
	c0.37,0,0.59-0.21,0.59-0.58v-6.86c0-0.37-0.22-0.58-0.59-0.58h-0.48c-0.37,0-0.58,0.21-0.58,0.58v3.18c0,2.42-1.66,2.99-2.5,2.99
	c-0.85,0-1.58-0.61-1.58-2.24v-3.94c0-0.37-0.22-0.58-0.59-0.58h-0.48c-0.37,0-0.58,0.21-0.58,0.58v3.95
	C209.01,306.98,210.29,308.14,212.06,308.14z M219.37,307.96h0.48c0.37,0,0.58-0.21,0.58-0.58v-3.18c0-2.43,1.66-2.99,2.5-2.99
	c0.85,0,1.6,0.59,1.6,2.24v3.94c0,0.37,0.21,0.58,0.58,0.58h0.48c0.37,0,0.59-0.21,0.59-0.58v-3.95c0-2.51-1.3-3.66-3.07-3.66
	c-1.3,0-2.32,0.62-2.67,1.74v-0.99c0-0.37-0.21-0.58-0.58-0.58h-0.48c-0.37,0-0.59,0.21-0.59,0.58v6.86
	C218.77,307.75,219,307.96,219.37,307.96z M231.87,308.14c1.07,0,2.11-0.37,2.86-1.44v0.69c0,0.37,0.22,0.58,0.59,0.58h0.48
	c0.37,0,0.58-0.21,0.58-0.58v-10.42c0-0.37-0.21-0.58-0.58-0.58h-0.48c-0.37,0-0.59,0.21-0.59,0.58v4.24
	c-0.75-1.07-1.79-1.44-2.86-1.44c-2.38,0-3.97,1.87-3.97,4.18C227.9,306.25,229.48,308.14,231.87,308.14z M232.09,306.7
	c-1.62,0-2.54-1.25-2.54-2.75c0-1.49,0.93-2.75,2.54-2.75c1.58,0,2.66,1.17,2.67,2.75C234.75,305.53,233.68,306.7,232.09,306.7z
	 M245.38,308.14c1.57,0,2.91-0.88,2.91-2.42c0-0.86-0.42-1.81-1.95-2.29l-1.15-0.38c-0.46-0.14-0.93-0.42-0.93-0.93
	c0-0.56,0.45-0.99,1.15-0.99c0.35,0,0.7,0.1,0.98,0.42c0.22,0.29,0.42,0.43,0.75,0.34l0.3-0.06c0.38-0.08,0.58-0.37,0.37-0.74
	c-0.53-0.98-1.47-1.31-2.45-1.31c-1.6,0-2.69,1.02-2.69,2.4c0,1.14,0.77,1.82,2,2.19l1.07,0.37c0.56,0.19,0.99,0.46,0.99,0.98
	c0,0.61-0.58,1.06-1.34,1.06c-0.62,0-1.17-0.26-1.49-0.66c-0.21-0.27-0.4-0.42-0.72-0.34l-0.34,0.1c-0.38,0.1-0.58,0.35-0.38,0.72
	C243.01,307.61,244.14,308.14,245.38,308.14z M254.05,308.14c1.01,0,2.08-0.24,3.01-0.99c0.37-0.3,0.37-0.64,0.11-0.91l-0.11-0.13
	c-0.26-0.26-0.51-0.27-0.82-0.08c-0.69,0.46-1.39,0.67-2.18,0.67c-1.74,0-2.98-1.09-2.93-2.58h6.21c0.38,0,0.61-0.21,0.56-0.59
	c-0.22-2.56-2.06-3.76-4.08-3.76c-2.5,0-4.32,1.87-4.32,4.21C249.51,306.26,251.24,308.14,254.05,308.14z M251.29,302.9
	c0.5-1.36,1.65-1.73,2.58-1.73c0.88,0,2,0.3,2.42,1.73H251.29z M260.24,307.96h0.48c0.37,0,0.58-0.21,0.58-0.58v-2.48
	c0-3.28,1.44-3.57,2.02-3.57c0.14,0,0.29,0.02,0.43,0.05c0.27,0.06,0.43-0.1,0.43-0.5v-0.46c0-0.32-0.05-0.59-0.38-0.64l-0.35-0.02
	c-0.96,0-1.87,0.69-2.14,1.97v-1.22c0-0.37-0.21-0.58-0.58-0.58h-0.48c-0.37,0-0.59,0.21-0.59,0.58v6.86
	C259.65,307.75,259.87,307.96,260.24,307.96z M268.34,307.96h0.83c0.34,0,0.56-0.16,0.69-0.46l2.67-6.9
	c0.14-0.4-0.02-0.66-0.45-0.66h-0.53c-0.34,0-0.54,0.14-0.67,0.46l-2.13,5.74l-2.13-5.74c-0.13-0.32-0.34-0.46-0.67-0.46h-0.53
	c-0.43,0-0.59,0.26-0.45,0.66l2.67,6.9C267.78,307.8,268,307.96,268.34,307.96z M277.98,308.14c1.01,0,2.08-0.24,3.01-0.99
	c0.37-0.3,0.37-0.64,0.11-0.91l-0.11-0.13c-0.26-0.26-0.51-0.27-0.82-0.08c-0.69,0.46-1.39,0.67-2.18,0.67
	c-1.74,0-2.98-1.09-2.93-2.58h6.21c0.38,0,0.61-0.21,0.56-0.59c-0.22-2.56-2.06-3.76-4.08-3.76c-2.5,0-4.32,1.87-4.32,4.21
	C273.43,306.26,275.16,308.14,277.98,308.14z M275.21,302.9c0.5-1.36,1.65-1.73,2.58-1.73c0.88,0,2,0.3,2.42,1.73H275.21z
	 M284.16,307.96h0.48c0.37,0,0.58-0.21,0.58-0.58v-2.48c0-3.28,1.44-3.57,2.02-3.57c0.14,0,0.29,0.02,0.43,0.05
	c0.27,0.06,0.43-0.1,0.43-0.5v-0.46c0-0.32-0.05-0.59-0.38-0.64l-0.35-0.02c-0.96,0-1.87,0.69-2.14,1.97v-1.22
	c0-0.37-0.21-0.58-0.58-0.58h-0.48c-0.37,0-0.59,0.21-0.59,0.58v6.86C283.57,307.75,283.79,307.96,284.16,307.96z"/>
<path d="M73.12,53.14c1.46,0,2.48-0.38,3.36-0.98c0.24-0.18,0.27-0.4,0.1-0.74l-0.14-0.26c-0.18-0.32-0.45-0.38-0.8-0.19
	c-0.7,0.38-1.63,0.64-2.51,0.64c-2.75,0-4.34-1.95-4.34-4.26c0-2.3,1.58-4.26,4.34-4.26c0.88,0,1.81,0.26,2.51,0.64
	c0.35,0.19,0.62,0.13,0.8-0.19l0.14-0.26c0.18-0.34,0.11-0.59-0.19-0.8c-0.86-0.56-1.87-0.91-3.26-0.91c-3.81,0-6.06,2.66-6.06,5.78
	C67.05,50.48,69.31,53.14,73.12,53.14z M81.41,53.14c1.3,0,2.32-0.62,2.67-1.74v0.99c0,0.37,0.21,0.58,0.58,0.58h0.48
	c0.37,0,0.59-0.21,0.59-0.58v-6.86c0-0.37-0.22-0.58-0.59-0.58h-0.48c-0.37,0-0.58,0.21-0.58,0.58v3.18c0,2.42-1.66,2.99-2.5,2.99
	c-0.85,0-1.58-0.61-1.58-2.24v-3.94c0-0.37-0.22-0.58-0.59-0.58h-0.48c-0.37,0-0.58,0.21-0.58,0.58v3.95
	C78.36,51.98,79.64,53.14,81.41,53.14z M88.72,52.96h0.48c0.37,0,0.58-0.21,0.58-0.58V49.9c0-3.28,1.44-3.57,2.02-3.57
	c0.14,0,0.29,0.02,0.43,0.05c0.27,0.06,0.43-0.1,0.43-0.5v-0.46c0-0.32-0.05-0.59-0.38-0.64l-0.35-0.02c-0.96,0-1.87,0.69-2.14,1.97
	v-1.22c0-0.37-0.21-0.58-0.58-0.58h-0.48c-0.37,0-0.59,0.21-0.59,0.58v6.86C88.12,52.75,88.35,52.96,88.72,52.96z M94.64,52.96h0.48
	c0.37,0,0.58-0.21,0.58-0.58V49.9c0-3.28,1.44-3.57,2.02-3.57c0.14,0,0.29,0.02,0.43,0.05c0.27,0.06,0.43-0.1,0.43-0.5v-0.46
	c0-0.32-0.05-0.59-0.38-0.64l-0.35-0.02c-0.96,0-1.87,0.69-2.14,1.97v-1.22c0-0.37-0.21-0.58-0.58-0.58h-0.48
	c-0.37,0-0.59,0.21-0.59,0.58v6.86C94.05,52.75,94.27,52.96,94.64,52.96z M103.76,53.14c1.01,0,2.08-0.24,3.01-0.99
	c0.37-0.3,0.37-0.64,0.11-0.91l-0.11-0.13c-0.26-0.26-0.51-0.27-0.82-0.08c-0.69,0.46-1.39,0.67-2.18,0.67
	c-1.74,0-2.98-1.09-2.93-2.58h6.21c0.38,0,0.61-0.21,0.56-0.59c-0.22-2.56-2.06-3.76-4.08-3.76c-2.5,0-4.32,1.87-4.32,4.21
	C99.22,51.26,100.95,53.14,103.76,53.14z M101,47.9c0.5-1.36,1.65-1.73,2.58-1.73c0.88,0,2,0.3,2.42,1.73H101z M109.95,52.96h0.48
	c0.37,0,0.58-0.21,0.58-0.58V49.2c0-2.43,1.66-2.99,2.5-2.99c0.85,0,1.6,0.59,1.6,2.24v3.94c0,0.37,0.21,0.58,0.58,0.58h0.48
	c0.37,0,0.59-0.21,0.59-0.58v-3.95c0-2.51-1.3-3.66-3.07-3.66c-1.3,0-2.32,0.62-2.67,1.74v-0.99c0-0.37-0.21-0.58-0.58-0.58h-0.48
	c-0.37,0-0.59,0.21-0.59,0.58v6.86C109.36,52.75,109.58,52.96,109.95,52.96z M121.9,53.14c1.54,0,2.4-0.88,2.4-2.08
	c0-0.02,0-0.32-0.06-0.59c-0.03-0.21-0.18-0.29-0.37-0.29h-0.74c-0.22,0-0.32,0.14-0.29,0.37c0.03,0.13,0.03,0.24,0.03,0.3
	c0,0.58-0.45,0.86-0.94,0.86c-0.51,0-0.93-0.34-0.93-1.2v-4.29h2.19c0.21,0,0.32-0.13,0.32-0.34v-0.62c0-0.21-0.11-0.32-0.32-0.32
	H121v-1.81c0-0.3-0.18-0.5-0.48-0.5h-0.34c-0.29,0-0.46,0.16-0.51,0.46l-0.29,1.84h-1.01c-0.21,0-0.32,0.11-0.32,0.32v0.62
	c0,0.21,0.11,0.34,0.32,0.34h0.98v4.19C119.35,52.48,120.62,53.14,121.9,53.14z M130.5,52.96h0.48c0.37,0,0.58-0.21,0.58-0.58V49.2
	c0-2.43,1.66-2.99,2.5-2.99c0.85,0,1.6,0.59,1.6,2.24v3.94c0,0.37,0.21,0.58,0.58,0.58h0.48c0.37,0,0.59-0.21,0.59-0.58v-3.95
	c0-2.51-1.3-3.66-3.07-3.66c-1.3,0-2.32,0.62-2.67,1.74v-0.99c0-0.37-0.21-0.58-0.58-0.58h-0.48c-0.37,0-0.59,0.21-0.59,0.58v6.86
	C129.91,52.75,130.13,52.96,130.5,52.96z M143.23,53.14c2.35,0,4.26-1.87,4.26-4.19c0-2.29-1.9-4.18-4.26-4.18
	c-2.34,0-4.22,1.87-4.22,4.18C139,51.28,140.89,53.14,143.23,53.14z M143.23,51.7c-1.42,0-2.59-1.22-2.59-2.74s1.17-2.75,2.59-2.75
	c1.46,0,2.61,1.23,2.61,2.75S144.68,51.7,143.23,51.7z M152.1,53.14c1.54,0,2.4-0.88,2.4-2.08c0-0.02,0-0.32-0.06-0.59
	c-0.03-0.21-0.18-0.29-0.37-0.29h-0.74c-0.22,0-0.32,0.14-0.29,0.37c0.03,0.13,0.03,0.24,0.03,0.3c0,0.58-0.45,0.86-0.94,0.86
	c-0.51,0-0.93-0.34-0.93-1.2v-4.29h2.19c0.21,0,0.32-0.13,0.32-0.34v-0.62c0-0.21-0.11-0.32-0.32-0.32h-2.19v-1.81
	c0-0.3-0.18-0.5-0.48-0.5h-0.34c-0.29,0-0.46,0.16-0.51,0.46l-0.29,1.84h-1.01c-0.21,0-0.32,0.11-0.32,0.32v0.62
	c0,0.21,0.11,0.34,0.32,0.34h0.98v4.19C149.56,52.48,150.82,53.14,152.1,53.14z M159.87,53.14c1.01,0,2.08-0.24,3.01-0.99
	c0.37-0.3,0.37-0.64,0.11-0.91l-0.11-0.13c-0.26-0.26-0.51-0.27-0.82-0.08c-0.69,0.46-1.39,0.67-2.18,0.67
	c-1.74,0-2.98-1.09-2.93-2.58h6.21c0.38,0,0.61-0.21,0.56-0.59c-0.22-2.56-2.06-3.76-4.08-3.76c-2.5,0-4.32,1.87-4.32,4.21
	C155.33,51.26,157.06,53.14,159.87,53.14z M157.11,47.9c0.5-1.36,1.65-1.73,2.58-1.73c0.88,0,2,0.3,2.42,1.73H157.11z M170.71,47.17
	c0.67,0,1.22-0.53,1.22-1.2s-0.54-1.2-1.22-1.2s-1.2,0.53-1.2,1.2S170.04,47.17,170.71,47.17z M170.71,53.14
	c0.67,0,1.22-0.53,1.22-1.18c0-0.67-0.54-1.22-1.22-1.22s-1.2,0.54-1.2,1.22C169.51,52.61,170.04,53.14,170.71,53.14z M178.97,52.96
	h0.48c0.37,0,0.58-0.21,0.58-0.58V49.2c0-2.43,1.38-2.99,2.19-2.99c0.85,0,1.58,0.59,1.58,2.22v3.95c0,0.37,0.22,0.58,0.59,0.58
	h0.48c0.37,0,0.58-0.21,0.58-0.58v-3.36c0.08-2.35,1.46-2.82,2.19-2.82c0.85,0,1.58,0.59,1.58,2.22v3.95c0,0.37,0.22,0.58,0.59,0.58
	h0.48c0.37,0,0.58-0.21,0.58-0.58v-3.95c0-2.51-1.17-3.66-3.07-3.66c-0.96,0-2.05,0.27-2.72,1.65c-0.61-1.39-1.74-1.65-2.53-1.65
	c-1.17,0-2.19,0.59-2.53,1.74v-0.99c0-0.37-0.21-0.58-0.58-0.58h-0.48c-0.37,0-0.59,0.21-0.59,0.58v6.86
	C178.37,52.75,178.6,52.96,178.97,52.96z M194.6,56.54h0.38c0.34,0,0.54-0.13,0.67-0.45l4.46-10.48c0.18-0.42-0.02-0.67-0.45-0.67
	h-0.66c-0.34,0-0.58,0.14-0.69,0.46l-2.05,5.41l-2.22-5.42c-0.11-0.3-0.32-0.45-0.66-0.45h-0.64c-0.43,0-0.62,0.27-0.45,0.67
	l3.07,7.04l-1.23,3.22C193.99,56.27,194.17,56.54,194.6,56.54z M206.17,52.96h0.48c0.37,0,0.58-0.21,0.58-0.58V49.2
	c0-2.43,1.66-2.99,2.5-2.99c0.85,0,1.6,0.59,1.6,2.24v3.94c0,0.37,0.21,0.58,0.58,0.58h0.48c0.37,0,0.59-0.21,0.59-0.58v-3.95
	c0-2.51-1.3-3.66-3.07-3.66c-1.3,0-2.32,0.62-2.67,1.74v-0.99c0-0.37-0.21-0.58-0.58-0.58h-0.48c-0.37,0-0.59,0.21-0.59,0.58v6.86
	C205.58,52.75,205.8,52.96,206.17,52.96z M218.9,53.14c2.35,0,4.26-1.87,4.26-4.19c0-2.29-1.9-4.18-4.26-4.18
	c-2.34,0-4.22,1.87-4.22,4.18C214.67,51.28,216.56,53.14,218.9,53.14z M218.9,51.7c-1.42,0-2.59-1.22-2.59-2.74s1.17-2.75,2.59-2.75
	c1.46,0,2.61,1.23,2.61,2.75S220.35,51.7,218.9,51.7z M227.77,53.14c1.54,0,2.4-0.88,2.4-2.08c0-0.02,0-0.32-0.06-0.59
	c-0.03-0.21-0.18-0.29-0.37-0.29H229c-0.22,0-0.32,0.14-0.29,0.37c0.03,0.13,0.03,0.24,0.03,0.3c0,0.58-0.45,0.86-0.94,0.86
	c-0.51,0-0.93-0.34-0.93-1.2v-4.29h2.19c0.21,0,0.32-0.13,0.32-0.34v-0.62c0-0.21-0.11-0.32-0.32-0.32h-2.19v-1.81
	c0-0.3-0.18-0.5-0.48-0.5h-0.34c-0.29,0-0.46,0.16-0.51,0.46l-0.29,1.84h-1.01c-0.21,0-0.32,0.11-0.32,0.32v0.62
	c0,0.21,0.11,0.34,0.32,0.34h0.98v4.19C225.23,52.48,226.49,53.14,227.77,53.14z M235.55,53.14c1.01,0,2.08-0.24,3.01-0.99
	c0.37-0.3,0.37-0.64,0.11-0.91l-0.11-0.13c-0.26-0.26-0.51-0.27-0.82-0.08c-0.69,0.46-1.39,0.67-2.18,0.67
	c-1.74,0-2.98-1.09-2.93-2.58h6.21c0.38,0,0.61-0.21,0.56-0.59c-0.22-2.56-2.06-3.76-4.08-3.76c-2.5,0-4.32,1.87-4.32,4.21
	C231,51.26,232.73,53.14,235.55,53.14z M232.78,47.9c0.5-1.36,1.65-1.73,2.58-1.73c0.88,0,2,0.3,2.42,1.73H232.78z M245.92,52.96
	h0.48c0.37,0,0.58-0.21,0.58-0.58V49.2c0-2.43,1.66-2.99,2.5-2.99c0.85,0,1.6,0.59,1.6,2.24v3.94c0,0.37,0.21,0.58,0.58,0.58h0.48
	c0.37,0,0.59-0.21,0.59-0.58v-3.95c0-2.51-1.3-3.66-3.07-3.66c-1.3,0-2.32,0.62-2.67,1.74v-0.99c0-0.37-0.21-0.58-0.58-0.58h-0.48
	c-0.37,0-0.59,0.21-0.59,0.58v6.86C245.33,52.75,245.55,52.96,245.92,52.96z M258.41,53.14c1.07,0,2.11-0.37,2.86-1.44v0.69
	c0,0.37,0.22,0.58,0.59,0.58h0.48c0.37,0,0.58-0.21,0.58-0.58v-6.86c0-0.37-0.21-0.58-0.58-0.58h-0.48c-0.37,0-0.59,0.21-0.59,0.58
	v0.69c-0.75-1.07-1.79-1.44-2.86-1.44c-2.38,0-3.97,1.87-3.97,4.18C254.44,51.25,256.02,53.14,258.41,53.14z M258.63,51.7
	c-1.62,0-2.54-1.25-2.54-2.75c0-1.49,0.93-2.75,2.54-2.75c1.58,0,2.66,1.17,2.67,2.75C261.29,50.53,260.22,51.7,258.63,51.7z
	 M265.92,52.96h0.48c0.37,0,0.58-0.21,0.58-0.58V49.2c0-2.43,1.38-2.99,2.19-2.99c0.85,0,1.58,0.59,1.58,2.22v3.95
	c0,0.37,0.22,0.58,0.59,0.58h0.48c0.37,0,0.58-0.21,0.58-0.58v-3.36c0.08-2.35,1.46-2.82,2.19-2.82c0.85,0,1.58,0.59,1.58,2.22v3.95
	c0,0.37,0.22,0.58,0.59,0.58h0.48c0.37,0,0.58-0.21,0.58-0.58v-3.95c0-2.51-1.17-3.66-3.07-3.66c-0.96,0-2.05,0.27-2.72,1.65
	c-0.61-1.39-1.74-1.65-2.53-1.65c-1.17,0-2.19,0.59-2.53,1.74v-0.99c0-0.37-0.21-0.58-0.58-0.58h-0.48c-0.37,0-0.59,0.21-0.59,0.58
	v6.86C265.33,52.75,265.55,52.96,265.92,52.96z M284.08,53.14c1.01,0,2.08-0.24,3.01-0.99c0.37-0.3,0.37-0.64,0.11-0.91l-0.11-0.13
	c-0.26-0.26-0.51-0.27-0.82-0.08c-0.69,0.46-1.39,0.67-2.18,0.67c-1.74,0-2.98-1.09-2.93-2.58h6.21c0.38,0,0.61-0.21,0.56-0.59
	c-0.22-2.56-2.06-3.76-4.08-3.76c-2.5,0-4.32,1.87-4.32,4.21C279.53,51.26,281.26,53.14,284.08,53.14z M281.31,47.9
	c0.5-1.36,1.65-1.73,2.58-1.73c0.88,0,2,0.3,2.42,1.73H281.31z"/>
<path class="st12" d="M126.4,252.46h102c1.93,0,3.5,1.57,3.5,3.5v20c0,1.93-1.57,3.5-3.5,3.5h-102c-1.93,0-3.5-1.57-3.5-3.5v-20
	C122.9,254.03,124.47,252.46,126.4,252.46z"/>
<path class="st0" d="M144.23,271.14c2.42,0,4.46-1.49,4.46-4.34v-6.46c0-0.37-0.22-0.58-0.59-0.58h-0.53
	c-0.37,0-0.58,0.21-0.58,0.58v6.46c0,1.89-1.28,2.82-2.77,2.82c-1.47,0-2.75-0.93-2.75-2.82v-6.46c0-0.37-0.21-0.58-0.58-0.58h-0.54
	c-0.35,0-0.58,0.21-0.58,0.58v6.46C139.78,269.65,141.83,271.14,144.23,271.14z M151.77,274.54h0.48c0.37,0,0.58-0.21,0.58-0.58
	v-4.27c0.75,1.07,1.81,1.44,2.88,1.44c2.38,0,3.97-1.89,3.97-4.19c0-2.3-1.58-4.18-3.97-4.18c-1.07,0-2.13,0.37-2.88,1.44v-0.69
	c0-0.37-0.21-0.58-0.58-0.58h-0.48c-0.37,0-0.59,0.21-0.59,0.58v10.45C151.18,274.34,151.4,274.54,151.77,274.54z M155.47,269.7
	c-1.57,0-2.66-1.17-2.67-2.75c0.02-1.58,1.1-2.75,2.67-2.75c1.63,0,2.56,1.26,2.56,2.75C158.03,268.45,157.1,269.7,155.47,269.7z
	 M164.9,271.14c1.07,0,2.11-0.37,2.86-1.44v0.69c0,0.37,0.22,0.58,0.59,0.58h0.48c0.37,0,0.58-0.21,0.58-0.58v-10.42
	c0-0.37-0.21-0.58-0.58-0.58h-0.48c-0.37,0-0.59,0.21-0.59,0.58v4.24c-0.75-1.07-1.79-1.44-2.86-1.44c-2.38,0-3.97,1.87-3.97,4.18
	C160.93,269.25,162.52,271.14,164.9,271.14z M165.12,269.7c-1.62,0-2.54-1.25-2.54-2.75c0-1.49,0.93-2.75,2.54-2.75
	c1.58,0,2.66,1.17,2.67,2.75C167.78,268.53,166.71,269.7,165.12,269.7z M175.23,271.14c1.07,0,2.11-0.37,2.86-1.44v0.69
	c0,0.37,0.22,0.58,0.59,0.58h0.48c0.37,0,0.58-0.21,0.58-0.58v-6.86c0-0.37-0.21-0.58-0.58-0.58h-0.48c-0.37,0-0.59,0.21-0.59,0.58
	v0.69c-0.75-1.07-1.79-1.44-2.86-1.44c-2.38,0-3.97,1.87-3.97,4.18C171.26,269.25,172.84,271.14,175.23,271.14z M175.45,269.7
	c-1.62,0-2.54-1.25-2.54-2.75c0-1.49,0.93-2.75,2.54-2.75c1.58,0,2.66,1.17,2.67,2.75C178.11,268.53,177.04,269.7,175.45,269.7z
	 M185.09,271.14c1.54,0,2.4-0.88,2.4-2.08c0-0.02,0-0.32-0.06-0.59c-0.03-0.21-0.18-0.29-0.37-0.29h-0.74
	c-0.22,0-0.32,0.14-0.29,0.37c0.03,0.13,0.03,0.24,0.03,0.3c0,0.58-0.45,0.86-0.94,0.86c-0.51,0-0.93-0.34-0.93-1.2v-4.29h2.19
	c0.21,0,0.32-0.13,0.32-0.34v-0.62c0-0.21-0.11-0.32-0.32-0.32h-2.19v-1.81c0-0.3-0.18-0.5-0.48-0.5h-0.34
	c-0.29,0-0.46,0.16-0.51,0.46l-0.29,1.84h-1.01c-0.21,0-0.32,0.11-0.32,0.32v0.62c0,0.21,0.11,0.34,0.32,0.34h0.98v4.19
	C182.55,270.48,183.81,271.14,185.09,271.14z M192.87,271.14c1.01,0,2.08-0.24,3.01-0.99c0.37-0.3,0.37-0.64,0.11-0.91l-0.11-0.13
	c-0.26-0.26-0.51-0.27-0.82-0.08c-0.69,0.46-1.39,0.67-2.18,0.67c-1.74,0-2.98-1.09-2.93-2.58h6.21c0.39,0,0.61-0.21,0.56-0.59
	c-0.22-2.56-2.06-3.76-4.08-3.76c-2.5,0-4.32,1.87-4.32,4.21C188.32,269.26,190.05,271.14,192.87,271.14z M190.1,265.9
	c0.5-1.36,1.65-1.73,2.58-1.73c0.88,0,2,0.3,2.42,1.73H190.1z"/>
<path class="st13" d="M205.4,257.96c0.26,0,0.52,0.11,0.71,0.29c0.19,0.19,0.29,0.44,0.29,0.71v2.1c0.83-0.85,1.87-1.47,3.01-1.81
	c1.14-0.34,2.35-0.38,3.51-0.12c1.16,0.26,2.24,0.81,3.13,1.59c0.89,0.79,1.57,1.79,1.96,2.91c0.05,0.12,0.07,0.26,0.07,0.39
	c0,0.13-0.04,0.27-0.09,0.39c-0.06,0.12-0.14,0.23-0.23,0.32s-0.21,0.16-0.34,0.2c-0.13,0.04-0.26,0.06-0.39,0.05
	c-0.13-0.01-0.26-0.04-0.38-0.1c-0.12-0.06-0.23-0.14-0.31-0.24c-0.09-0.1-0.15-0.22-0.19-0.35c-0.3-0.85-0.83-1.61-1.53-2.18
	c-0.7-0.58-1.54-0.95-2.43-1.09c-0.9-0.14-1.81-0.03-2.65,0.31c-0.84,0.34-1.57,0.9-2.11,1.63h3c0.26,0,0.52,0.11,0.71,0.29
	c0.19,0.19,0.29,0.44,0.29,0.71s-0.1,0.52-0.29,0.71c-0.19,0.19-0.44,0.29-0.71,0.29h-5c-0.26,0-0.52-0.11-0.71-0.29
	c-0.19-0.19-0.29-0.44-0.29-0.71v-5c0-0.27,0.1-0.52,0.29-0.71C204.88,258.06,205.14,257.96,205.4,257.96z M205.41,267.02
	c0.12-0.04,0.26-0.06,0.39-0.06c0.13,0.01,0.26,0.04,0.38,0.1c0.12,0.06,0.22,0.14,0.31,0.23c0.09,0.1,0.15,0.21,0.2,0.34
	c0.3,0.85,0.83,1.61,1.53,2.18c0.7,0.58,1.54,0.95,2.43,1.09c0.9,0.14,1.81,0.03,2.65-0.31c0.84-0.34,1.57-0.9,2.11-1.63h-3
	c-0.26,0-0.52-0.11-0.71-0.29c-0.19-0.19-0.29-0.44-0.29-0.71s0.1-0.52,0.29-0.71c0.19-0.19,0.44-0.29,0.71-0.29h5
	c0.26,0,0.52,0.11,0.71,0.29c0.19,0.19,0.29,0.44,0.29,0.71v5c0,0.27-0.1,0.52-0.29,0.71c-0.19,0.19-0.44,0.29-0.71,0.29
	s-0.52-0.11-0.71-0.29c-0.19-0.19-0.29-0.44-0.29-0.71v-2.1c-0.83,0.85-1.87,1.47-3.01,1.81c-1.14,0.34-2.35,0.38-3.51,0.12
	c-1.16-0.26-2.24-0.81-3.13-1.59c-0.89-0.79-1.57-1.79-1.96-2.91c-0.04-0.12-0.06-0.26-0.06-0.39c0.01-0.13,0.04-0.26,0.1-0.38
	c0.06-0.12,0.14-0.23,0.23-0.31C205.17,267.13,205.29,267.06,205.41,267.02L205.41,267.02z"/>
<path class="st0" d="M26.47,142.76h-3.95c-0.37,0-0.58,0.21-0.58,0.58v10.05c0,0.37,0.21,0.58,0.58,0.58h0.54
	c0.37,0,0.58-0.21,0.58-0.58v-3.62h2.83c2.16,0,3.41-1.57,3.41-3.46C29.87,144.41,28.64,142.76,26.47,142.76z M26.13,148.41h-2.5
	v-4.26h2.5c1.23,0,2,0.88,2,2.14C28.13,147.53,27.38,148.41,26.13,148.41z M34.56,154.14c1.3,0,2.32-0.62,2.67-1.74v0.99
	c0,0.37,0.21,0.58,0.58,0.58h0.48c0.37,0,0.59-0.21,0.59-0.58v-6.86c0-0.37-0.22-0.58-0.59-0.58h-0.48c-0.37,0-0.58,0.21-0.58,0.58
	v3.18c0,2.42-1.66,2.99-2.5,2.99c-0.85,0-1.58-0.61-1.58-2.24v-3.94c0-0.37-0.22-0.58-0.59-0.58h-0.48c-0.37,0-0.58,0.21-0.58,0.58
	v3.95C31.51,152.98,32.79,154.14,34.56,154.14z M45.8,154.14c2.38,0,3.97-1.89,3.97-4.19s-1.58-4.18-3.97-4.18
	c-1.07,0-2.13,0.37-2.88,1.44v-4.24c0-0.37-0.21-0.58-0.58-0.58h-0.48c-0.37,0-0.59,0.21-0.59,0.58v10.42
	c0,0.37,0.22,0.58,0.59,0.58h0.48c0.37,0,0.58-0.21,0.58-0.58v-0.69C43.67,153.77,44.73,154.14,45.8,154.14z M45.56,152.7
	c-1.57,0-2.66-1.17-2.67-2.75c0.02-1.58,1.1-2.75,2.67-2.75c1.63,0,2.56,1.26,2.56,2.75C48.12,151.45,47.19,152.7,45.56,152.7z
	 M52.26,153.96h0.48c0.37,0,0.58-0.21,0.58-0.58v-10.42c0-0.37-0.21-0.58-0.58-0.58h-0.48c-0.37,0-0.59,0.21-0.59,0.58v10.42
	C51.67,153.75,51.89,153.96,52.26,153.96z M56.64,144.49c0.64,0,1.14-0.48,1.14-1.09c0-0.62-0.48-1.12-1.14-1.12
	c-0.64,0-1.1,0.5-1.1,1.12C55.53,144.01,56,144.49,56.64,144.49z M56.41,153.96h0.48c0.37,0,0.58-0.21,0.58-0.58v-6.86
	c0-0.37-0.21-0.58-0.58-0.58h-0.48c-0.37,0-0.59,0.21-0.59,0.58v6.86C55.82,153.75,56.05,153.96,56.41,153.96z M63.87,154.14
	c0.58,0,1.36-0.1,2.16-0.53c0.51-0.26,0.62-0.64,0.4-0.94l-0.11-0.16c-0.21-0.3-0.46-0.34-0.82-0.16c-0.69,0.34-1.38,0.35-1.55,0.35
	c-1.7,0-2.94-1.14-2.94-2.75c0-1.62,1.25-2.74,2.94-2.74c0.18,0,0.86,0.02,1.55,0.35c0.35,0.16,0.59,0.14,0.82-0.16l0.13-0.16
	c0.22-0.3,0.18-0.62-0.16-0.82c-0.91-0.53-1.78-0.66-2.42-0.66c-2.9,0-4.51,1.92-4.51,4.27C59.35,152.33,61.03,154.14,63.87,154.14z
	 M73.24,153.96h0.48c0.37,0,0.58-0.21,0.58-0.58v-10.42c0-0.37-0.21-0.58-0.58-0.58h-0.48c-0.37,0-0.59,0.21-0.59,0.58v10.42
	C72.65,153.75,72.87,153.96,73.24,153.96z M77.62,144.49c0.64,0,1.14-0.48,1.14-1.09c0-0.62-0.48-1.12-1.14-1.12
	c-0.64,0-1.1,0.5-1.1,1.12C76.52,144.01,76.98,144.49,77.62,144.49z M77.4,153.96h0.48c0.37,0,0.58-0.21,0.58-0.58v-6.86
	c0-0.37-0.21-0.58-0.58-0.58H77.4c-0.37,0-0.59,0.21-0.59,0.58v6.86C76.81,153.75,77.03,153.96,77.4,153.96z M81.51,153.96h0.48
	c0.37,0,0.58-0.21,0.58-0.58v-3.18c0-2.43,1.66-2.99,2.5-2.99c0.85,0,1.6,0.59,1.6,2.24v3.94c0,0.37,0.21,0.58,0.58,0.58h0.48
	c0.37,0,0.59-0.21,0.59-0.58v-3.95c0-2.51-1.3-3.66-3.07-3.66c-1.3,0-2.32,0.62-2.67,1.74v-0.99c0-0.37-0.21-0.58-0.58-0.58h-0.48
	c-0.37,0-0.59,0.21-0.59,0.58v6.86C80.91,153.75,81.14,153.96,81.51,153.96z M96.38,154.14c0.16,0,0.7,0,1.25-0.26
	c0.4-0.19,0.48-0.46,0.4-0.66l-0.26-0.51c-0.11-0.19-0.24-0.22-0.46-0.14c-0.29,0.13-0.59,0.14-0.72,0.14c-0.7,0-0.93-0.4-1.39-1.06
	l-1.33-2.03l2.46-2.98c0.32-0.38,0.18-0.7-0.34-0.7h-0.61c-0.3,0-0.53,0.1-0.7,0.34l-2.45,3.02v-6.34c0-0.37-0.21-0.58-0.58-0.58
	h-0.48c-0.37,0-0.59,0.21-0.59,0.58v10.42c0,0.37,0.22,0.58,0.59,0.58h0.48c0.37,0,0.58-0.21,0.58-0.58v-3.52l1.57,2.54
	C94.3,153.13,94.84,154.14,96.38,154.14z"/>
<path class="st13" d="M338.69,12.25c0.19-0.19,0.44-0.29,0.71-0.29s0.52,0.11,0.71,0.29l3.29,3.29l3.29-3.29
	c0.09-0.1,0.2-0.17,0.33-0.22c0.12-0.05,0.25-0.08,0.39-0.08c0.13,0,0.26,0.02,0.39,0.07c0.12,0.05,0.24,0.12,0.33,0.22
	c0.09,0.09,0.17,0.21,0.22,0.33c0.05,0.12,0.08,0.25,0.07,0.39s-0.03,0.26-0.08,0.39c-0.05,0.12-0.13,0.23-0.22,0.32l-4,4
	c-0.19,0.19-0.44,0.29-0.71,0.29s-0.52-0.11-0.71-0.29l-4-4c-0.19-0.19-0.29-0.44-0.29-0.71C338.4,12.69,338.51,12.44,338.69,12.25
	L338.69,12.25z"/>
</svg>
