<?xml version="1.0" encoding="utf-8"?>
<!-- Generator: Adobe Illustrator 27.2.0, SVG Export Plug-In . SVG Version: 6.00 Build 0)  -->
<svg version="1.1" id="Calque_1" xmlns="http://www.w3.org/2000/svg" xmlns:xlink="http://www.w3.org/1999/xlink" x="0px" y="0px"
	 viewBox="0 0 600 600" style="enable-background:new 0 0 600 600;" xml:space="preserve">
<style type="text/css">
	.st0{fill:#FFFFFF;}
	.st1{fill-rule:evenodd;clip-rule:evenodd;fill:#3F3F46;}
	.st2{fill:#3F3F46;}
	.st3{fill:none;stroke:#3F3F46;}
	.st4{fill-rule:evenodd;clip-rule:evenodd;fill:#FFFFFF;}
	.st5{fill:#B2B2BD;}
	.st6{clip-path:url(#SVGID_00000141418955577125496880000012588125919312844978_);}
</style>
<rect x="-0.28" y="-0.23" class="st0" width="600" height="600"/>
<path class="st1" d="M299.72,143.77c1.59,0,3.12-0.63,4.24-1.76c1.12-1.13,1.76-2.65,1.76-4.24s-0.63-3.12-1.76-4.24
	c-1.13-1.12-2.65-1.76-4.24-1.76s-3.12,0.63-4.24,1.76c-1.12,1.13-1.76,2.65-1.76,4.24s0.63,3.12,1.76,4.24
	C296.6,143.14,298.13,143.77,299.72,143.77L299.72,143.77z M285.72,161.77c0-1.84,0.36-3.66,1.07-5.36c0.7-1.7,1.73-3.24,3.04-4.54
	c1.3-1.3,2.84-2.33,4.54-3.04c1.7-0.7,3.52-1.07,5.36-1.07s3.66,0.36,5.36,1.07c1.7,0.7,3.24,1.73,4.54,3.04
	c1.3,1.3,2.33,2.84,3.04,4.54c0.7,1.7,1.07,3.52,1.07,5.36H285.72z"/>
<path class="st2" d="M271.32,59.03c3.58,0,6.38-1.75,6.38-5.04c-0.05-2.11-1.27-3.84-4.56-4.94l-2.18-0.79
	c-1.49-0.55-1.75-1.2-1.75-1.8c0-1.1,1.03-1.7,2.23-1.7c1.01,0,1.75,0.38,2.18,1.1c0.41,0.58,0.82,0.84,1.49,0.65l0.96-0.26
	c0.72-0.22,1.06-0.77,0.7-1.46c-0.91-1.92-2.76-3.07-5.38-3.07c-3.29,0-5.95,1.92-5.95,4.99c0.02,2.59,2.47,4.08,4.46,4.73
	l2.18,0.79c1.27,0.43,1.92,1.1,1.92,1.94c0,1.1-1.08,1.82-2.71,1.82c-1.42,0-2.47-0.6-3.02-1.49c-0.38-0.62-0.74-0.91-1.42-0.74
	l-1.03,0.24c-0.74,0.19-1.13,0.7-0.82,1.42C265.89,57.64,268.17,59.03,271.32,59.03z M281.58,58.77h1.49c0.74,0,1.15-0.41,1.15-1.15
	v-5.33h6.29v5.33c0,0.74,0.41,1.15,1.15,1.15h1.49c0.74,0,1.15-0.41,1.15-1.15v-14.5c0-0.74-0.41-1.15-1.15-1.15h-1.49
	c-0.74,0-1.15,0.41-1.15,1.15v6.07h-6.29v-6.07c0-0.74-0.41-1.15-1.15-1.15h-1.49c-0.74,0-1.18,0.41-1.18,1.15v14.5
	C280.4,58.36,280.84,58.77,281.58,58.77z M297.71,58.77h1.51c0.65,0,1.08-0.31,1.32-0.94l0.82-2.18h6.48l0.84,2.21
	c0.24,0.62,0.7,0.91,1.34,0.91h1.56c0.86,0,1.2-0.53,0.91-1.32l-5.69-14.57c-0.24-0.6-0.67-0.91-1.34-0.91h-1.7
	c-0.67,0-1.13,0.31-1.34,0.91l-5.62,14.57C296.51,58.24,296.85,58.77,297.71,58.77z M302.11,52.65l2.52-6.77l2.45,6.77H302.11z
	 M326.33,59.03c1.06,0,2.04-0.24,2.88-0.67c0.6-0.34,0.67-0.89,0.36-1.54l-0.22-0.48c-0.31-0.65-0.6-0.79-1.3-0.55
	c-0.31,0.14-0.6,0.19-1.1,0.19c-1.39,0-2.35-1.7-2.54-3.41c2.35-0.6,3.72-2.54,3.72-5.02c0-3.05-1.99-5.59-5.57-5.59h-6.46
	c-0.74,0-1.18,0.41-1.18,1.15v14.5c0,0.74,0.43,1.15,1.18,1.15h1.49c0.74,0,1.15-0.41,1.15-1.15v-4.85h2.23
	C321.17,54.66,322.17,59.03,326.33,59.03z M318.74,50.03v-4.85h3.29c1.34,0,2.23,1.06,2.23,2.45c0,1.34-0.86,2.4-2.23,2.4H318.74z
	 M342.03,45.18c0.74,0,1.15-0.41,1.15-1.15v-0.91c0-0.74-0.41-1.15-1.15-1.15h-9.05c-0.74,0-1.18,0.41-1.18,1.15v14.5
	c0,0.74,0.43,1.15,1.18,1.15h9.05c0.74,0,1.15-0.41,1.15-1.15V56.7c0-0.74-0.41-1.15-1.15-1.15h-6.41v-3.6h5.42
	c0.74,0,1.15-0.43,1.15-1.18v-0.65c0-0.74-0.41-1.15-1.15-1.15h-5.42v-3.79H342.03z"/>
<path class="st3" d="M64.72,191.27h88c1.93,0,3.5,1.57,3.5,3.5v22c0,1.93-1.57,3.5-3.5,3.5h-88c-1.93,0-3.5-1.57-3.5-3.5v-22
	C61.22,192.83,62.79,191.27,64.72,191.27z"/>
<path class="st3" d="M64.72,228.27h88c1.93,0,3.5,1.57,3.5,3.5v22c0,1.93-1.57,3.5-3.5,3.5h-88c-1.93,0-3.5-1.57-3.5-3.5v-22
	C61.22,229.83,62.79,228.27,64.72,228.27z"/>
<path class="st2" d="M60.72,194.77c0-2.21,1.79-4,4-4h88c2.21,0,4,1.79,4,4v22c0,2.21-1.79,4-4,4h-88c-2.21,0-4-1.79-4-4V194.77z"/>
<path class="st2" d="M60.72,231.77c0-2.21,1.79-4,4-4h88c2.21,0,4,1.79,4,4v22c0,2.21-1.79,4-4,4h-88c-2.21,0-4-1.79-4-4V231.77z"/>
<path class="st0" d="M101.82,210.92c2.11,0,3.91-1.3,3.91-3.79v-5.66c0-0.32-0.2-0.5-0.52-0.5h-0.46c-0.32,0-0.5,0.18-0.5,0.5v5.66
	c0,1.65-1.12,2.46-2.42,2.46c-1.29,0-2.41-0.81-2.41-2.46v-5.66c0-0.32-0.18-0.5-0.5-0.5h-0.48c-0.31,0-0.5,0.18-0.5,0.5v5.66
	C97.92,209.62,99.72,210.92,101.82,210.92z M109.93,210.92c1.37,0,2.55-0.77,2.55-2.11c0-0.76-0.36-1.58-1.71-2l-1.01-0.34
	c-0.41-0.13-0.81-0.36-0.81-0.81c0-0.49,0.39-0.87,1.01-0.87c0.31,0,0.62,0.08,0.85,0.36c0.2,0.25,0.36,0.38,0.66,0.29l0.27-0.06
	c0.34-0.07,0.5-0.32,0.32-0.64c-0.46-0.85-1.29-1.15-2.14-1.15c-1.4,0-2.35,0.9-2.35,2.1c0,0.99,0.67,1.6,1.75,1.92l0.94,0.32
	c0.49,0.17,0.87,0.41,0.87,0.85c0,0.53-0.5,0.92-1.18,0.92c-0.55,0-1.02-0.22-1.3-0.57c-0.18-0.24-0.35-0.36-0.63-0.29l-0.29,0.08
	c-0.34,0.08-0.5,0.31-0.34,0.63C107.86,210.46,108.85,210.92,109.93,210.92z M117.52,210.92c0.88,0,1.82-0.21,2.63-0.87
	c0.32-0.27,0.32-0.56,0.1-0.8l-0.1-0.11c-0.22-0.22-0.45-0.24-0.71-0.07c-0.6,0.41-1.22,0.59-1.9,0.59c-1.53,0-2.6-0.95-2.56-2.25
	h5.43c0.34,0,0.53-0.18,0.49-0.52c-0.2-2.24-1.81-3.29-3.57-3.29c-2.18,0-3.78,1.64-3.78,3.68
	C113.55,209.28,115.06,210.92,117.52,210.92z M115.1,206.34c0.43-1.19,1.44-1.51,2.25-1.51c0.77,0,1.75,0.27,2.11,1.51H115.1z
	 M122.94,210.77h0.42c0.32,0,0.5-0.18,0.5-0.5v-2.17c0-2.87,1.26-3.12,1.76-3.12c0.13,0,0.25,0.01,0.38,0.04
	c0.24,0.06,0.38-0.08,0.38-0.43v-0.41c0-0.28-0.04-0.52-0.34-0.56l-0.31-0.01c-0.84,0-1.64,0.6-1.88,1.72v-1.06
	c0-0.32-0.18-0.5-0.5-0.5h-0.42c-0.32,0-0.52,0.18-0.52,0.5v6.01C122.42,210.59,122.62,210.77,122.94,210.77z M133.16,210.77h0.42
	c0.32,0,0.5-0.18,0.5-0.5v-8.79c0-0.32-0.14-0.5-0.38-0.5c-0.25,0-0.43,0.04-0.66,0.14l-2.55,1.18c-0.27,0.13-0.38,0.35-0.28,0.66
	l0.06,0.21c0.1,0.32,0.35,0.45,0.66,0.31l1.71-0.77v7.57C132.65,210.59,132.84,210.77,133.16,210.77z"/>
<path class="st0" d="M101.82,247.92c2.11,0,3.91-1.3,3.91-3.79v-5.66c0-0.32-0.2-0.5-0.52-0.5h-0.46c-0.32,0-0.5,0.18-0.5,0.5v5.66
	c0,1.65-1.12,2.46-2.42,2.46c-1.29,0-2.41-0.81-2.41-2.46v-5.66c0-0.32-0.18-0.5-0.5-0.5h-0.48c-0.31,0-0.5,0.18-0.5,0.5v5.66
	C97.92,246.62,99.72,247.92,101.82,247.92z M109.93,247.92c1.37,0,2.55-0.77,2.55-2.11c0-0.76-0.36-1.58-1.71-2l-1.01-0.34
	c-0.41-0.13-0.81-0.36-0.81-0.81c0-0.49,0.39-0.87,1.01-0.87c0.31,0,0.62,0.08,0.85,0.36c0.2,0.25,0.36,0.38,0.66,0.29l0.27-0.06
	c0.34-0.07,0.5-0.32,0.32-0.64c-0.46-0.85-1.29-1.15-2.14-1.15c-1.4,0-2.35,0.9-2.35,2.1c0,0.99,0.67,1.6,1.75,1.92l0.94,0.32
	c0.49,0.17,0.87,0.41,0.87,0.85c0,0.53-0.5,0.92-1.18,0.92c-0.55,0-1.02-0.22-1.3-0.57c-0.18-0.24-0.35-0.36-0.63-0.29l-0.29,0.08
	c-0.34,0.08-0.5,0.31-0.34,0.63C107.86,247.46,108.85,247.92,109.93,247.92z M117.52,247.92c0.88,0,1.82-0.21,2.63-0.87
	c0.32-0.27,0.32-0.56,0.1-0.8l-0.1-0.11c-0.22-0.22-0.45-0.24-0.71-0.07c-0.6,0.41-1.22,0.59-1.9,0.59c-1.53,0-2.6-0.95-2.56-2.25
	h5.43c0.34,0,0.53-0.18,0.49-0.52c-0.2-2.24-1.81-3.29-3.57-3.29c-2.18,0-3.78,1.64-3.78,3.68
	C113.55,246.28,115.06,247.92,117.52,247.92z M115.1,243.34c0.43-1.19,1.44-1.51,2.25-1.51c0.77,0,1.75,0.27,2.11,1.51H115.1z
	 M122.94,247.77h0.42c0.32,0,0.5-0.18,0.5-0.5v-2.17c0-2.87,1.26-3.12,1.76-3.12c0.13,0,0.25,0.01,0.38,0.04
	c0.24,0.06,0.38-0.08,0.38-0.43v-0.41c0-0.28-0.04-0.52-0.34-0.56l-0.31-0.01c-0.84,0-1.64,0.6-1.88,1.72v-1.06
	c0-0.32-0.18-0.5-0.5-0.5h-0.42c-0.32,0-0.52,0.18-0.52,0.5v6.01C122.42,247.59,122.62,247.77,122.94,247.77z M131.2,247.77h6.09
	c0.32,0,0.5-0.18,0.5-0.5v-0.2c0-0.32-0.18-0.52-0.5-0.52H135c-0.15,0-1.71,0.03-2.18,0.07v-0.06l2.8-2.49
	c0.92-0.81,1.79-1.74,1.79-3.22c0-1.86-1.34-3.04-3.43-3.04c-2.28,0-3.18,1.27-3.39,2.34c-0.07,0.34,0.15,0.52,0.48,0.52h0.45
	c0.31,0,0.46-0.15,0.55-0.46c0.17-0.56,0.67-1.13,1.92-1.13c1.19,0,2,0.67,2,1.79c0,0.92-0.63,1.65-1.39,2.31l-3.74,3.37
	c-0.2,0.2-0.28,0.41-0.22,0.67l0.03,0.1C130.71,247.61,130.9,247.77,131.2,247.77z"/>
<path class="st4" d="M83.72,203.77c0.8,0,1.56-0.32,2.12-0.88c0.56-0.56,0.88-1.32,0.88-2.12s-0.32-1.56-0.88-2.12
	c-0.56-0.56-1.33-0.88-2.12-0.88s-1.56,0.32-2.12,0.88c-0.56,0.56-0.88,1.32-0.88,2.12s0.32,1.56,0.88,2.12
	C82.16,203.45,82.92,203.77,83.72,203.77L83.72,203.77z M76.72,212.77c0-0.92,0.18-1.83,0.53-2.68c0.35-0.85,0.87-1.62,1.52-2.27
	c0.65-0.65,1.42-1.17,2.27-1.52c0.85-0.35,1.76-0.53,2.68-0.53s1.83,0.18,2.68,0.53c0.85,0.35,1.62,0.87,2.27,1.52
	c0.65,0.65,1.17,1.42,1.52,2.27c0.35,0.85,0.53,1.76,0.53,2.68H76.72z"/>
<path class="st3" d="M437.72,270.27h113c1.93,0,3.5,1.57,3.5,3.5v100c0,1.93-1.57,3.5-3.5,3.5h-113c-1.93,0-3.5-1.57-3.5-3.5v-100
	C434.22,271.83,435.79,270.27,437.72,270.27z"/>
<path class="st2" d="M433.72,274.77c0-2.21,1.79-4,4-4h113c2.21,0,4,1.79,4,4v99c0,2.21-1.79,4-4,4h-113c-2.21,0-4-1.79-4-4V274.77z
	"/>
<path class="st0" d="M473.62,326.77h0.39c0.29,0,0.48-0.14,0.56-0.42l2.1-6.8l2.09,6.8c0.08,0.28,0.28,0.42,0.57,0.42h0.38
	c0.29,0,0.49-0.14,0.57-0.42l2.74-8.79c0.11-0.35-0.07-0.59-0.43-0.59h-0.43c-0.29,0-0.49,0.14-0.57,0.42l-2.16,6.89l-2.03-6.57
	c-0.08-0.28-0.28-0.42-0.57-0.42h-0.32c-0.29,0-0.48,0.14-0.56,0.42l-2.04,6.57l-2.14-6.89c-0.1-0.28-0.28-0.42-0.57-0.42h-0.45
	c-0.36,0-0.53,0.24-0.43,0.59l2.76,8.79C473.15,326.63,473.33,326.77,473.62,326.77z M487.39,326.92c0.88,0,1.82-0.21,2.63-0.87
	c0.32-0.27,0.32-0.56,0.1-0.8l-0.1-0.11c-0.22-0.22-0.45-0.24-0.71-0.07c-0.6,0.41-1.22,0.59-1.9,0.59c-1.53,0-2.6-0.95-2.56-2.25
	h5.43c0.34,0,0.53-0.18,0.49-0.52c-0.2-2.24-1.81-3.29-3.57-3.29c-2.18,0-3.78,1.64-3.78,3.68
	C483.42,325.28,484.93,326.92,487.39,326.92z M484.97,322.34c0.43-1.19,1.44-1.51,2.25-1.51c0.77,0,1.75,0.27,2.11,1.51H484.97z
	 M496.25,326.92c2.09,0,3.47-1.65,3.47-3.67c0-2.02-1.39-3.65-3.47-3.65c-0.94,0-1.86,0.32-2.52,1.26v-3.71c0-0.32-0.18-0.5-0.5-0.5
	h-0.42c-0.32,0-0.52,0.18-0.52,0.5v9.11c0,0.32,0.2,0.5,0.52,0.5h0.42c0.32,0,0.5-0.18,0.5-0.5v-0.6
	C494.39,326.6,495.31,326.92,496.25,326.92z M496.04,325.66c-1.37,0-2.32-1.02-2.34-2.41c0.01-1.39,0.97-2.41,2.34-2.41
	c1.43,0,2.24,1.11,2.24,2.41C498.28,324.57,497.47,325.66,496.04,325.66z M505.52,329.9h0.42c0.32,0,0.5-0.18,0.5-0.5v-3.74
	c0.66,0.94,1.58,1.26,2.52,1.26c2.09,0,3.47-1.65,3.47-3.67c0-2.02-1.39-3.65-3.47-3.65c-0.94,0-1.86,0.32-2.52,1.26v-0.6
	c0-0.32-0.18-0.5-0.5-0.5h-0.42c-0.32,0-0.52,0.18-0.52,0.5v9.14C505,329.72,505.2,329.9,505.52,329.9z M508.76,325.66
	c-1.37,0-2.32-1.02-2.34-2.41c0.01-1.39,0.97-2.41,2.34-2.41c1.43,0,2.24,1.11,2.24,2.41C510.99,324.57,510.18,325.66,508.76,325.66
	z M516.99,326.92c0.94,0,1.85-0.32,2.51-1.26v0.6c0,0.32,0.2,0.5,0.52,0.5h0.42c0.32,0,0.5-0.18,0.5-0.5v-6.01
	c0-0.32-0.18-0.5-0.5-0.5h-0.42c-0.32,0-0.52,0.18-0.52,0.5v0.6c-0.66-0.94-1.57-1.26-2.51-1.26c-2.09,0-3.47,1.64-3.47,3.65
	C513.52,325.27,514.91,326.92,516.99,326.92z M517.19,325.66c-1.41,0-2.23-1.09-2.23-2.41c0-1.3,0.81-2.41,2.23-2.41
	c1.39,0,2.32,1.02,2.34,2.41C519.52,324.64,518.58,325.66,517.19,325.66z M526.27,330.06c1.95,0,3.7-1.02,3.7-3.4v-6.4
	c0-0.32-0.2-0.5-0.52-0.5h-0.41c-0.32,0-0.52,0.18-0.52,0.49v0.62c-0.66-0.94-1.57-1.26-2.51-1.26c-2.1,0-3.47,1.65-3.47,3.65
	c0,2.02,1.37,3.67,3.47,3.67c0.94,0,1.85-0.32,2.51-1.26v0.9c0,1.48-0.92,2.25-2.27,2.25c-0.71,0-1.4-0.17-2-0.55
	c-0.29-0.18-0.53-0.15-0.69,0.17l-0.11,0.2c-0.14,0.28-0.1,0.53,0.15,0.7C524.25,329.75,525.05,330.06,526.27,330.06z
	 M526.21,325.66c-1.41,0-2.23-1.09-2.23-2.41c0-1.3,0.81-2.41,2.23-2.41c1.39,0,2.32,1.02,2.34,2.41
	C528.54,324.64,527.6,325.66,526.21,325.66z M535.52,326.92c0.88,0,1.82-0.21,2.63-0.87c0.32-0.27,0.32-0.56,0.1-0.8l-0.1-0.11
	c-0.22-0.22-0.45-0.24-0.71-0.07c-0.6,0.41-1.22,0.59-1.9,0.59c-1.53,0-2.6-0.95-2.56-2.25h5.43c0.34,0,0.53-0.18,0.49-0.52
	c-0.2-2.24-1.81-3.29-3.57-3.29c-2.18,0-3.78,1.64-3.78,3.68C531.54,325.28,533.05,326.92,535.52,326.92z M533.1,322.34
	c0.43-1.19,1.44-1.51,2.25-1.51c0.77,0,1.75,0.27,2.11,1.51H533.1z"/>
<path class="st4" d="M83.72,240.77c0.8,0,1.56-0.32,2.12-0.88c0.56-0.56,0.88-1.32,0.88-2.12s-0.32-1.56-0.88-2.12
	c-0.56-0.56-1.33-0.88-2.12-0.88s-1.56,0.32-2.12,0.88c-0.56,0.56-0.88,1.32-0.88,2.12s0.32,1.56,0.88,2.12
	C82.16,240.45,82.92,240.77,83.72,240.77L83.72,240.77z M76.72,249.77c0-0.92,0.18-1.83,0.53-2.68c0.35-0.85,0.87-1.62,1.52-2.27
	c0.65-0.65,1.42-1.17,2.27-1.52c0.85-0.35,1.76-0.53,2.68-0.53s1.83,0.18,2.68,0.53c0.85,0.35,1.62,0.87,2.27,1.52
	c0.65,0.65,1.17,1.42,1.52,2.27c0.35,0.85,0.53,1.76,0.53,2.68H76.72z"/>
<path class="st3" d="M64.72,265.27h88c1.93,0,3.5,1.57,3.5,3.5v105c0,1.93-1.57,3.5-3.5,3.5h-88c-1.93,0-3.5-1.57-3.5-3.5v-105
	C61.22,266.83,62.79,265.27,64.72,265.27z"/>
<path class="st3" d="M64.72,385.27h88c1.93,0,3.5,1.57,3.5,3.5v105c0,1.93-1.57,3.5-3.5,3.5h-88c-1.93,0-3.5-1.57-3.5-3.5v-105
	C61.22,386.83,62.79,385.27,64.72,385.27z"/>
<path class="st2" d="M60.72,268.77c0-2.21,1.79-4,4-4h88c2.21,0,4,1.79,4,4v26h-96V268.77z"/>
<path class="st2" d="M60.72,388.77c0-2.21,1.79-4,4-4h88c2.21,0,4,1.79,4,4v26h-96V388.77z"/>
<path class="st0" d="M102.57,284.92c0.9,0,2.11-0.2,3.23-1.02c0.32-0.25,0.43-0.48,0.43-0.74v-2.83c0-0.32-0.18-0.5-0.5-0.5h-3.07
	c-0.32,0-0.5,0.18-0.5,0.5v0.17c0,0.32,0.18,0.52,0.5,0.52h2.21v1.95c-0.66,0.42-1.39,0.63-2.24,0.63c-2.52,0-3.78-1.83-3.78-3.71
	c0-2.09,1.6-3.74,3.58-3.74c0.74,0,1.41,0.01,2.51,0.6c0.31,0.17,0.55,0.13,0.7-0.18l0.14-0.24c0.15-0.29,0.1-0.53-0.17-0.7
	c-0.95-0.59-1.97-0.81-3.18-0.81c-2.83,0-5.1,2.25-5.1,5.08C97.35,282.65,99.53,284.92,102.57,284.92z M108.58,284.77H109
	c0.32,0,0.5-0.18,0.5-0.5v-2.17c0-2.87,1.26-3.12,1.76-3.12c0.13,0,0.25,0.01,0.38,0.04c0.24,0.06,0.38-0.08,0.38-0.43v-0.41
	c0-0.28-0.04-0.52-0.34-0.56l-0.31-0.01c-0.84,0-1.64,0.6-1.88,1.72v-1.06c0-0.32-0.18-0.5-0.5-0.5h-0.42
	c-0.32,0-0.52,0.18-0.52,0.5v6.01C108.06,284.59,108.26,284.77,108.58,284.77z M116.29,284.92c2.06,0,3.72-1.64,3.72-3.67
	c0-2-1.67-3.65-3.72-3.65c-2.04,0-3.7,1.64-3.7,3.65C112.59,283.3,114.24,284.92,116.29,284.92z M116.29,283.66
	c-1.25,0-2.27-1.06-2.27-2.39s1.02-2.41,2.27-2.41c1.27,0,2.28,1.08,2.28,2.41S117.56,283.66,116.29,283.66z M124.18,284.92
	c1.13,0,2.03-0.55,2.34-1.53v0.87c0,0.32,0.18,0.5,0.5,0.5h0.42c0.32,0,0.52-0.18,0.52-0.5v-6.01c0-0.32-0.2-0.5-0.52-0.5h-0.42
	c-0.32,0-0.5,0.18-0.5,0.5v2.79c0,2.11-1.46,2.62-2.18,2.62c-0.74,0-1.39-0.53-1.39-1.96v-3.44c0-0.32-0.2-0.5-0.52-0.5h-0.42
	c-0.32,0-0.5,0.18-0.5,0.5v3.46C121.5,283.91,122.62,284.92,124.18,284.92z M130.57,287.9h0.42c0.32,0,0.5-0.18,0.5-0.5v-3.74
	c0.66,0.94,1.58,1.26,2.52,1.26c2.09,0,3.47-1.65,3.47-3.67c0-2.02-1.39-3.65-3.47-3.65c-0.94,0-1.86,0.32-2.52,1.26v-0.6
	c0-0.32-0.18-0.5-0.5-0.5h-0.42c-0.32,0-0.52,0.18-0.52,0.5v9.14C130.05,287.72,130.24,287.9,130.57,287.9z M133.8,283.66
	c-1.37,0-2.32-1.02-2.34-2.41c0.01-1.39,0.97-2.41,2.34-2.41c1.43,0,2.24,1.11,2.24,2.41C136.04,282.57,135.23,283.66,133.8,283.66z
	 M141.33,284.77h0.42c0.32,0,0.5-0.18,0.5-0.5v-8.79c0-0.32-0.14-0.5-0.38-0.5c-0.25,0-0.43,0.04-0.66,0.14l-2.55,1.18
	c-0.27,0.13-0.38,0.35-0.28,0.66l0.06,0.21c0.1,0.32,0.35,0.45,0.66,0.31l1.71-0.77v7.57C140.81,284.59,141,284.77,141.33,284.77z"
	/>
<path class="st0" d="M102.57,404.92c0.9,0,2.11-0.2,3.23-1.02c0.32-0.25,0.43-0.48,0.43-0.74v-2.83c0-0.32-0.18-0.5-0.5-0.5h-3.07
	c-0.32,0-0.5,0.18-0.5,0.5v0.17c0,0.32,0.18,0.52,0.5,0.52h2.21v1.95c-0.66,0.42-1.39,0.63-2.24,0.63c-2.52,0-3.78-1.83-3.78-3.71
	c0-2.09,1.6-3.74,3.58-3.74c0.74,0,1.41,0.01,2.51,0.6c0.31,0.17,0.55,0.13,0.7-0.18l0.14-0.24c0.15-0.29,0.1-0.53-0.17-0.7
	c-0.95-0.59-1.97-0.81-3.18-0.81c-2.83,0-5.1,2.25-5.1,5.08C97.35,402.65,99.53,404.92,102.57,404.92z M108.58,404.77H109
	c0.32,0,0.5-0.18,0.5-0.5v-2.17c0-2.87,1.26-3.12,1.76-3.12c0.13,0,0.25,0.01,0.38,0.04c0.24,0.06,0.38-0.08,0.38-0.43v-0.41
	c0-0.28-0.04-0.52-0.34-0.56l-0.31-0.01c-0.84,0-1.64,0.6-1.88,1.72v-1.06c0-0.32-0.18-0.5-0.5-0.5h-0.42
	c-0.32,0-0.52,0.18-0.52,0.5v6.01C108.06,404.59,108.26,404.77,108.58,404.77z M116.29,404.92c2.06,0,3.72-1.64,3.72-3.67
	c0-2-1.67-3.65-3.72-3.65c-2.04,0-3.7,1.64-3.7,3.65C112.59,403.3,114.24,404.92,116.29,404.92z M116.29,403.66
	c-1.25,0-2.27-1.06-2.27-2.39s1.02-2.41,2.27-2.41c1.27,0,2.28,1.08,2.28,2.41S117.56,403.66,116.29,403.66z M124.18,404.92
	c1.13,0,2.03-0.55,2.34-1.53v0.87c0,0.32,0.18,0.5,0.5,0.5h0.42c0.32,0,0.52-0.18,0.52-0.5v-6.01c0-0.32-0.2-0.5-0.52-0.5h-0.42
	c-0.32,0-0.5,0.18-0.5,0.5v2.79c0,2.11-1.46,2.62-2.18,2.62c-0.74,0-1.39-0.53-1.39-1.96v-3.44c0-0.32-0.2-0.5-0.52-0.5h-0.42
	c-0.32,0-0.5,0.18-0.5,0.5v3.46C121.5,403.91,122.62,404.92,124.18,404.92z M130.57,407.9h0.42c0.32,0,0.5-0.18,0.5-0.5v-3.74
	c0.66,0.94,1.58,1.26,2.52,1.26c2.09,0,3.47-1.65,3.47-3.67c0-2.02-1.39-3.65-3.47-3.65c-0.94,0-1.86,0.32-2.52,1.26v-0.6
	c0-0.32-0.18-0.5-0.5-0.5h-0.42c-0.32,0-0.52,0.18-0.52,0.5v9.14C130.05,407.72,130.24,407.9,130.57,407.9z M133.8,403.66
	c-1.37,0-2.32-1.02-2.34-2.41c0.01-1.39,0.97-2.41,2.34-2.41c1.43,0,2.24,1.11,2.24,2.41C136.04,402.57,135.23,403.66,133.8,403.66z
	 M139.37,404.77h6.09c0.32,0,0.5-0.18,0.5-0.5v-0.2c0-0.32-0.18-0.52-0.5-0.52h-2.3c-0.15,0-1.71,0.03-2.18,0.07v-0.06l2.8-2.49
	c0.92-0.81,1.79-1.74,1.79-3.22c0-1.86-1.34-3.04-3.43-3.04c-2.28,0-3.18,1.27-3.39,2.34c-0.07,0.34,0.15,0.52,0.48,0.52h0.45
	c0.31,0,0.46-0.15,0.55-0.46c0.17-0.56,0.67-1.13,1.92-1.13c1.19,0,2,0.67,2,1.79c0,0.92-0.63,1.65-1.39,2.31l-3.74,3.37
	c-0.2,0.2-0.28,0.41-0.22,0.67l0.03,0.1C138.88,404.61,139.06,404.77,139.37,404.77z"/>
<path class="st2" d="M101.82,316.92c2.11,0,3.91-1.3,3.91-3.79v-5.66c0-0.32-0.2-0.5-0.52-0.5h-0.46c-0.32,0-0.5,0.18-0.5,0.5v5.66
	c0,1.65-1.12,2.46-2.42,2.46c-1.29,0-2.41-0.81-2.41-2.46v-5.66c0-0.32-0.18-0.5-0.5-0.5h-0.48c-0.31,0-0.5,0.18-0.5,0.5v5.66
	C97.92,315.62,99.72,316.92,101.82,316.92z M109.93,316.92c1.37,0,2.55-0.77,2.55-2.11c0-0.76-0.36-1.58-1.71-2l-1.01-0.34
	c-0.41-0.13-0.81-0.36-0.81-0.81c0-0.49,0.39-0.87,1.01-0.87c0.31,0,0.62,0.08,0.85,0.36c0.2,0.25,0.36,0.38,0.66,0.29l0.27-0.06
	c0.34-0.07,0.5-0.32,0.32-0.64c-0.46-0.85-1.29-1.15-2.14-1.15c-1.4,0-2.35,0.9-2.35,2.1c0,0.99,0.67,1.6,1.75,1.92l0.94,0.32
	c0.49,0.17,0.87,0.41,0.87,0.85c0,0.53-0.5,0.92-1.18,0.92c-0.55,0-1.02-0.22-1.3-0.57c-0.18-0.24-0.35-0.36-0.63-0.29l-0.29,0.08
	c-0.34,0.08-0.5,0.31-0.34,0.63C107.86,316.46,108.85,316.92,109.93,316.92z M117.52,316.92c0.88,0,1.82-0.21,2.63-0.87
	c0.32-0.27,0.32-0.56,0.1-0.8l-0.1-0.11c-0.22-0.22-0.45-0.24-0.71-0.07c-0.6,0.41-1.22,0.59-1.9,0.59c-1.53,0-2.6-0.95-2.56-2.25
	h5.43c0.34,0,0.53-0.18,0.49-0.52c-0.2-2.24-1.81-3.29-3.57-3.29c-2.18,0-3.78,1.64-3.78,3.68
	C113.55,315.28,115.06,316.92,117.52,316.92z M115.1,312.34c0.43-1.19,1.44-1.51,2.25-1.51c0.77,0,1.75,0.27,2.11,1.51H115.1z
	 M122.94,316.77h0.42c0.32,0,0.5-0.18,0.5-0.5v-2.17c0-2.87,1.26-3.12,1.76-3.12c0.13,0,0.25,0.01,0.38,0.04
	c0.24,0.06,0.38-0.08,0.38-0.43v-0.41c0-0.28-0.04-0.52-0.34-0.56l-0.31-0.01c-0.84,0-1.64,0.6-1.88,1.72v-1.06
	c0-0.32-0.18-0.5-0.5-0.5h-0.42c-0.32,0-0.52,0.18-0.52,0.5v6.01C122.42,316.59,122.62,316.77,122.94,316.77z M133.16,316.77h0.42
	c0.32,0,0.5-0.18,0.5-0.5v-8.79c0-0.32-0.14-0.5-0.38-0.5c-0.25,0-0.43,0.04-0.66,0.14l-2.55,1.18c-0.27,0.13-0.38,0.35-0.28,0.66
	l0.06,0.21c0.1,0.32,0.35,0.45,0.66,0.31l1.71-0.77v7.57C132.65,316.59,132.84,316.77,133.16,316.77z"/>
<path class="st2" d="M101.82,436.92c2.11,0,3.91-1.3,3.91-3.79v-5.66c0-0.32-0.2-0.5-0.52-0.5h-0.46c-0.32,0-0.5,0.18-0.5,0.5v5.66
	c0,1.65-1.12,2.46-2.42,2.46c-1.29,0-2.41-0.81-2.41-2.46v-5.66c0-0.32-0.18-0.5-0.5-0.5h-0.48c-0.31,0-0.5,0.18-0.5,0.5v5.66
	C97.92,435.62,99.72,436.92,101.82,436.92z M109.93,436.92c1.37,0,2.55-0.77,2.55-2.11c0-0.76-0.36-1.58-1.71-2l-1.01-0.34
	c-0.41-0.13-0.81-0.36-0.81-0.81c0-0.49,0.39-0.87,1.01-0.87c0.31,0,0.62,0.08,0.85,0.36c0.2,0.25,0.36,0.38,0.66,0.29l0.27-0.06
	c0.34-0.07,0.5-0.32,0.32-0.64c-0.46-0.85-1.29-1.15-2.14-1.15c-1.4,0-2.35,0.9-2.35,2.1c0,0.99,0.67,1.6,1.75,1.92l0.94,0.32
	c0.49,0.17,0.87,0.41,0.87,0.85c0,0.53-0.5,0.92-1.18,0.92c-0.55,0-1.02-0.22-1.3-0.57c-0.18-0.24-0.35-0.36-0.63-0.29l-0.29,0.08
	c-0.34,0.08-0.5,0.31-0.34,0.63C107.86,436.46,108.85,436.92,109.93,436.92z M117.52,436.92c0.88,0,1.82-0.21,2.63-0.87
	c0.32-0.27,0.32-0.56,0.1-0.8l-0.1-0.11c-0.22-0.22-0.45-0.24-0.71-0.07c-0.6,0.41-1.22,0.59-1.9,0.59c-1.53,0-2.6-0.95-2.56-2.25
	h5.43c0.34,0,0.53-0.18,0.49-0.52c-0.2-2.24-1.81-3.29-3.57-3.29c-2.18,0-3.78,1.64-3.78,3.68
	C113.55,435.28,115.06,436.92,117.52,436.92z M115.1,432.34c0.43-1.19,1.44-1.51,2.25-1.51c0.77,0,1.75,0.27,2.11,1.51H115.1z
	 M122.94,436.77h0.42c0.32,0,0.5-0.18,0.5-0.5v-2.17c0-2.87,1.26-3.12,1.76-3.12c0.13,0,0.25,0.01,0.38,0.04
	c0.24,0.06,0.38-0.08,0.38-0.43v-0.41c0-0.28-0.04-0.52-0.34-0.56l-0.31-0.01c-0.84,0-1.64,0.6-1.88,1.72v-1.06
	c0-0.32-0.18-0.5-0.5-0.5h-0.42c-0.32,0-0.52,0.18-0.52,0.5v6.01C122.42,436.59,122.62,436.77,122.94,436.77z M133.16,436.77h0.42
	c0.32,0,0.5-0.18,0.5-0.5v-8.79c0-0.32-0.14-0.5-0.38-0.5c-0.25,0-0.43,0.04-0.66,0.14l-2.55,1.18c-0.27,0.13-0.38,0.35-0.28,0.66
	l0.06,0.21c0.1,0.32,0.35,0.45,0.66,0.31l1.71-0.77v7.57C132.65,436.59,132.84,436.77,133.16,436.77z"/>
<path class="st2" d="M101.82,339.92c2.11,0,3.91-1.3,3.91-3.79v-5.66c0-0.32-0.2-0.5-0.52-0.5h-0.46c-0.32,0-0.5,0.18-0.5,0.5v5.66
	c0,1.65-1.12,2.46-2.42,2.46c-1.29,0-2.41-0.81-2.41-2.46v-5.66c0-0.32-0.18-0.5-0.5-0.5h-0.48c-0.31,0-0.5,0.18-0.5,0.5v5.66
	C97.92,338.62,99.72,339.92,101.82,339.92z M109.93,339.92c1.37,0,2.55-0.77,2.55-2.11c0-0.76-0.36-1.58-1.71-2l-1.01-0.34
	c-0.41-0.13-0.81-0.36-0.81-0.81c0-0.49,0.39-0.87,1.01-0.87c0.31,0,0.62,0.08,0.85,0.36c0.2,0.25,0.36,0.38,0.66,0.29l0.27-0.06
	c0.34-0.07,0.5-0.32,0.32-0.64c-0.46-0.85-1.29-1.15-2.14-1.15c-1.4,0-2.35,0.9-2.35,2.1c0,0.99,0.67,1.6,1.75,1.92l0.94,0.32
	c0.49,0.17,0.87,0.41,0.87,0.85c0,0.53-0.5,0.92-1.18,0.92c-0.55,0-1.02-0.22-1.3-0.57c-0.18-0.24-0.35-0.36-0.63-0.29l-0.29,0.08
	c-0.34,0.08-0.5,0.31-0.34,0.63C107.86,339.46,108.85,339.92,109.93,339.92z M117.52,339.92c0.88,0,1.82-0.21,2.63-0.87
	c0.32-0.27,0.32-0.56,0.1-0.8l-0.1-0.11c-0.22-0.22-0.45-0.24-0.71-0.07c-0.6,0.41-1.22,0.59-1.9,0.59c-1.53,0-2.6-0.95-2.56-2.25
	h5.43c0.34,0,0.53-0.18,0.49-0.52c-0.2-2.24-1.81-3.29-3.57-3.29c-2.18,0-3.78,1.64-3.78,3.68
	C113.55,338.28,115.06,339.92,117.52,339.92z M115.1,335.34c0.43-1.19,1.44-1.51,2.25-1.51c0.77,0,1.75,0.27,2.11,1.51H115.1z
	 M122.94,339.77h0.42c0.32,0,0.5-0.18,0.5-0.5v-2.17c0-2.87,1.26-3.12,1.76-3.12c0.13,0,0.25,0.01,0.38,0.04
	c0.24,0.06,0.38-0.08,0.38-0.43v-0.41c0-0.28-0.04-0.52-0.34-0.56l-0.31-0.01c-0.84,0-1.64,0.6-1.88,1.72v-1.06
	c0-0.32-0.18-0.5-0.5-0.5h-0.42c-0.32,0-0.52,0.18-0.52,0.5v6.01C122.42,339.59,122.62,339.77,122.94,339.77z M133.75,339.92
	c2.51,0,3.93-1.5,3.93-3.39c0-1.68-1.26-2.7-2.67-2.93c-0.18-0.04-0.39-0.06-0.6-0.06l2.7-2.46c0.17-0.17,0.24-0.32,0.24-0.55v-0.14
	c0-0.28-0.15-0.43-0.43-0.43h-5.73c-0.28,0-0.43,0.15-0.43,0.43v0.34c0,0.28,0.15,0.45,0.43,0.45h3.96l-2.86,2.77
	c-0.21,0.21-0.21,0.41-0.04,0.62l0.15,0.18c0.17,0.22,0.36,0.22,0.62,0.1c0.38-0.18,0.83-0.22,1.05-0.22c1.22,0,2.17,0.8,2.17,1.92
	c0,0.95-0.81,2.09-2.51,2.09c-0.92,0-1.51-0.11-2.24-0.56c-0.22-0.15-0.45-0.14-0.62,0.07l-0.27,0.29
	c-0.18,0.22-0.17,0.45,0.07,0.62C131.36,339.54,132.38,339.92,133.75,339.92z"/>
<path class="st2" d="M101.82,459.92c2.11,0,3.91-1.3,3.91-3.79v-5.66c0-0.32-0.2-0.5-0.52-0.5h-0.46c-0.32,0-0.5,0.18-0.5,0.5v5.66
	c0,1.65-1.12,2.46-2.42,2.46c-1.29,0-2.41-0.81-2.41-2.46v-5.66c0-0.32-0.18-0.5-0.5-0.5h-0.48c-0.31,0-0.5,0.18-0.5,0.5v5.66
	C97.92,458.62,99.72,459.92,101.82,459.92z M109.93,459.92c1.37,0,2.55-0.77,2.55-2.11c0-0.76-0.36-1.58-1.71-2l-1.01-0.34
	c-0.41-0.13-0.81-0.36-0.81-0.81c0-0.49,0.39-0.87,1.01-0.87c0.31,0,0.62,0.08,0.85,0.36c0.2,0.25,0.36,0.38,0.66,0.29l0.27-0.06
	c0.34-0.07,0.5-0.32,0.32-0.64c-0.46-0.85-1.29-1.15-2.14-1.15c-1.4,0-2.35,0.9-2.35,2.1c0,0.99,0.67,1.6,1.75,1.92l0.94,0.32
	c0.49,0.17,0.87,0.41,0.87,0.85c0,0.53-0.5,0.92-1.18,0.92c-0.55,0-1.02-0.22-1.3-0.57c-0.18-0.24-0.35-0.36-0.63-0.29l-0.29,0.08
	c-0.34,0.08-0.5,0.31-0.34,0.63C107.86,459.46,108.85,459.92,109.93,459.92z M117.52,459.92c0.88,0,1.82-0.21,2.63-0.87
	c0.32-0.27,0.32-0.56,0.1-0.8l-0.1-0.11c-0.22-0.22-0.45-0.24-0.71-0.07c-0.6,0.41-1.22,0.59-1.9,0.59c-1.53,0-2.6-0.95-2.56-2.25
	h5.43c0.34,0,0.53-0.18,0.49-0.52c-0.2-2.24-1.81-3.29-3.57-3.29c-2.18,0-3.78,1.64-3.78,3.68
	C113.55,458.28,115.06,459.92,117.52,459.92z M115.1,455.34c0.43-1.19,1.44-1.51,2.25-1.51c0.77,0,1.75,0.27,2.11,1.51H115.1z
	 M122.94,459.77h0.42c0.32,0,0.5-0.18,0.5-0.5v-2.17c0-2.87,1.26-3.12,1.76-3.12c0.13,0,0.25,0.01,0.38,0.04
	c0.24,0.06,0.38-0.08,0.38-0.43v-0.41c0-0.28-0.04-0.52-0.34-0.56l-0.31-0.01c-0.84,0-1.64,0.6-1.88,1.72v-1.06
	c0-0.32-0.18-0.5-0.5-0.5h-0.42c-0.32,0-0.52,0.18-0.52,0.5v6.01C122.42,459.59,122.62,459.77,122.94,459.77z M131.2,459.77h6.09
	c0.32,0,0.5-0.18,0.5-0.5v-0.2c0-0.32-0.18-0.52-0.5-0.52H135c-0.15,0-1.71,0.03-2.18,0.07v-0.06l2.8-2.49
	c0.92-0.81,1.79-1.74,1.79-3.22c0-1.86-1.34-3.04-3.43-3.04c-2.28,0-3.18,1.27-3.39,2.34c-0.07,0.34,0.15,0.52,0.48,0.52h0.45
	c0.31,0,0.46-0.15,0.55-0.46c0.17-0.56,0.67-1.13,1.92-1.13c1.19,0,2,0.67,2,1.79c0,0.92-0.63,1.65-1.39,2.31l-3.74,3.37
	c-0.2,0.2-0.28,0.41-0.22,0.67l0.03,0.1C130.71,459.61,130.9,459.77,131.2,459.77z"/>
<path class="st2" d="M102.82,362.92c2.11,0,3.91-1.3,3.91-3.79v-5.66c0-0.32-0.2-0.5-0.52-0.5h-0.46c-0.32,0-0.5,0.18-0.5,0.5v5.66
	c0,1.65-1.12,2.46-2.42,2.46c-1.29,0-2.41-0.81-2.41-2.46v-5.66c0-0.32-0.18-0.5-0.5-0.5h-0.48c-0.31,0-0.5,0.18-0.5,0.5v5.66
	C98.92,361.62,100.72,362.92,102.82,362.92z M110.93,362.92c1.37,0,2.55-0.77,2.55-2.11c0-0.76-0.36-1.58-1.71-2l-1.01-0.34
	c-0.41-0.13-0.81-0.36-0.81-0.81c0-0.49,0.39-0.87,1.01-0.87c0.31,0,0.62,0.08,0.85,0.36c0.2,0.25,0.36,0.38,0.66,0.29l0.27-0.06
	c0.34-0.07,0.5-0.32,0.32-0.64c-0.46-0.85-1.29-1.15-2.14-1.15c-1.4,0-2.35,0.9-2.35,2.1c0,0.99,0.67,1.6,1.75,1.92l0.94,0.32
	c0.49,0.17,0.87,0.41,0.87,0.85c0,0.53-0.5,0.92-1.18,0.92c-0.55,0-1.02-0.22-1.3-0.57c-0.18-0.24-0.35-0.36-0.63-0.29l-0.29,0.08
	c-0.34,0.08-0.5,0.31-0.34,0.63C108.86,362.46,109.85,362.92,110.93,362.92z M118.52,362.92c0.88,0,1.82-0.21,2.63-0.87
	c0.32-0.27,0.32-0.56,0.1-0.8l-0.1-0.11c-0.22-0.22-0.45-0.24-0.71-0.07c-0.6,0.41-1.22,0.59-1.9,0.59c-1.53,0-2.6-0.95-2.56-2.25
	h5.43c0.34,0,0.53-0.18,0.49-0.52c-0.2-2.24-1.81-3.29-3.57-3.29c-2.18,0-3.78,1.64-3.78,3.68
	C114.55,361.28,116.06,362.92,118.52,362.92z M116.1,358.34c0.43-1.19,1.44-1.51,2.25-1.51c0.77,0,1.75,0.27,2.11,1.51H116.1z
	 M123.94,362.77h0.42c0.32,0,0.5-0.18,0.5-0.5v-2.17c0-2.87,1.26-3.12,1.76-3.12c0.13,0,0.25,0.01,0.38,0.04
	c0.24,0.06,0.38-0.08,0.38-0.43v-0.41c0-0.28-0.04-0.52-0.34-0.56l-0.31-0.01c-0.84,0-1.64,0.6-1.88,1.72v-1.06
	c0-0.32-0.18-0.5-0.5-0.5h-0.42c-0.32,0-0.52,0.18-0.52,0.5v6.01C123.42,362.59,123.62,362.77,123.94,362.77z M136.77,362.77h0.56
	c0.28,0,0.43-0.17,0.43-0.45v-2.17h1.68c0.28,0,0.45-0.15,0.45-0.43v-0.32c0-0.29-0.17-0.45-0.45-0.45h-1.68v-5.53
	c0-0.28-0.15-0.45-0.43-0.45h-0.15c-0.22,0-0.41,0.07-0.56,0.24l-5.22,5.74c-0.15,0.17-0.21,0.32-0.21,0.55v0.22
	c0,0.28,0.15,0.43,0.43,0.43h4.7v2.17C136.32,362.6,136.49,362.77,136.77,362.77z M132.93,358.95l3.39-3.67v3.67H132.93z"/>
<path class="st2" d="M102.82,482.92c2.11,0,3.91-1.3,3.91-3.79v-5.66c0-0.32-0.2-0.5-0.52-0.5h-0.46c-0.32,0-0.5,0.18-0.5,0.5v5.66
	c0,1.65-1.12,2.46-2.42,2.46c-1.29,0-2.41-0.81-2.41-2.46v-5.66c0-0.32-0.18-0.5-0.5-0.5h-0.48c-0.31,0-0.5,0.18-0.5,0.5v5.66
	C98.92,481.62,100.72,482.92,102.82,482.92z M110.93,482.92c1.37,0,2.55-0.77,2.55-2.11c0-0.76-0.36-1.58-1.71-2l-1.01-0.34
	c-0.41-0.13-0.81-0.36-0.81-0.81c0-0.49,0.39-0.87,1.01-0.87c0.31,0,0.62,0.08,0.85,0.36c0.2,0.25,0.36,0.38,0.66,0.29l0.27-0.06
	c0.34-0.07,0.5-0.32,0.32-0.64c-0.46-0.85-1.29-1.15-2.14-1.15c-1.4,0-2.35,0.9-2.35,2.1c0,0.99,0.67,1.6,1.75,1.92l0.94,0.32
	c0.49,0.17,0.87,0.41,0.87,0.85c0,0.53-0.5,0.92-1.18,0.92c-0.55,0-1.02-0.22-1.3-0.57c-0.18-0.24-0.35-0.36-0.63-0.29l-0.29,0.08
	c-0.34,0.08-0.5,0.31-0.34,0.63C108.86,482.46,109.85,482.92,110.93,482.92z M118.52,482.92c0.88,0,1.82-0.21,2.63-0.87
	c0.32-0.27,0.32-0.56,0.1-0.8l-0.1-0.11c-0.22-0.22-0.45-0.24-0.71-0.07c-0.6,0.41-1.22,0.59-1.9,0.59c-1.53,0-2.6-0.95-2.56-2.25
	h5.43c0.34,0,0.53-0.18,0.49-0.52c-0.2-2.24-1.81-3.29-3.57-3.29c-2.18,0-3.78,1.64-3.78,3.68
	C114.55,481.28,116.06,482.92,118.52,482.92z M116.1,478.34c0.43-1.19,1.44-1.51,2.25-1.51c0.77,0,1.75,0.27,2.11,1.51H116.1z
	 M123.94,482.77h0.42c0.32,0,0.5-0.18,0.5-0.5v-2.17c0-2.87,1.26-3.12,1.76-3.12c0.13,0,0.25,0.01,0.38,0.04
	c0.24,0.06,0.38-0.08,0.38-0.43v-0.41c0-0.28-0.04-0.52-0.34-0.56l-0.31-0.01c-0.84,0-1.64,0.6-1.88,1.72v-1.06
	c0-0.32-0.18-0.5-0.5-0.5h-0.42c-0.32,0-0.52,0.18-0.52,0.5v6.01C123.42,482.59,123.62,482.77,123.94,482.77z M134.86,482.92
	c2.49,0,3.88-1.41,3.88-3.44c0-1.68-1.29-3.23-3.43-3.23c-0.83,0-1.61,0.27-2.13,0.76l0.22-2.81h4.12c0.32,0,0.5-0.2,0.5-0.52v-0.2
	c0-0.32-0.18-0.5-0.5-0.5h-4.91c-0.32,0-0.5,0.15-0.52,0.49l-0.25,3.89c-0.01,0.31,0.08,0.49,0.36,0.62l0.25,0.11
	c0.25,0.13,0.45,0.08,0.7-0.06c0.57-0.34,1.26-0.5,1.93-0.5c1.51,0,2.25,0.99,2.25,1.96c0,1.18-0.78,2.16-2.46,2.16
	c-0.63,0-1.55-0.21-2.14-0.53c-0.28-0.15-0.52-0.15-0.71,0.08l-0.17,0.2c-0.21,0.25-0.21,0.53,0.07,0.71
	C132.62,482.57,133.66,482.92,134.86,482.92z"/>
<path class="st1" d="M83.72,309.77c0.8,0,1.56-0.32,2.12-0.88c0.56-0.56,0.88-1.33,0.88-2.12s-0.32-1.56-0.88-2.12
	c-0.56-0.56-1.33-0.88-2.12-0.88s-1.56,0.32-2.12,0.88c-0.56,0.56-0.88,1.33-0.88,2.12s0.32,1.56,0.88,2.12
	C82.16,309.45,82.92,309.77,83.72,309.77L83.72,309.77z M76.72,318.77c0-0.92,0.18-1.83,0.53-2.68c0.35-0.85,0.87-1.62,1.52-2.27
	c0.65-0.65,1.42-1.16,2.27-1.52c0.85-0.35,1.76-0.53,2.68-0.53s1.83,0.18,2.68,0.53c0.85,0.35,1.62,0.87,2.27,1.52
	c0.65,0.65,1.17,1.42,1.52,2.27c0.35,0.85,0.53,1.76,0.53,2.68H76.72z"/>
<path class="st1" d="M83.72,429.77c0.8,0,1.56-0.32,2.12-0.88c0.56-0.56,0.88-1.33,0.88-2.12s-0.32-1.56-0.88-2.12
	c-0.56-0.56-1.33-0.88-2.12-0.88s-1.56,0.32-2.12,0.88c-0.56,0.56-0.88,1.33-0.88,2.12s0.32,1.56,0.88,2.12
	C82.16,429.45,82.92,429.77,83.72,429.77L83.72,429.77z M76.72,438.77c0-0.92,0.18-1.83,0.53-2.68c0.35-0.85,0.87-1.62,1.52-2.27
	c0.65-0.65,1.42-1.16,2.27-1.52c0.85-0.35,1.76-0.53,2.68-0.53s1.83,0.18,2.68,0.53c0.85,0.35,1.62,0.87,2.27,1.52
	c0.65,0.65,1.17,1.42,1.52,2.27c0.35,0.85,0.53,1.76,0.53,2.68H76.72z"/>
<path class="st1" d="M83.72,332.77c0.8,0,1.56-0.32,2.12-0.88c0.56-0.56,0.88-1.33,0.88-2.12s-0.32-1.56-0.88-2.12
	c-0.56-0.56-1.33-0.88-2.12-0.88s-1.56,0.32-2.12,0.88c-0.56,0.56-0.88,1.33-0.88,2.12s0.32,1.56,0.88,2.12
	C82.16,332.45,82.92,332.77,83.72,332.77L83.72,332.77z M76.72,341.77c0-0.92,0.18-1.83,0.53-2.68c0.35-0.85,0.87-1.62,1.52-2.27
	c0.65-0.65,1.42-1.16,2.27-1.52c0.85-0.35,1.76-0.53,2.68-0.53s1.83,0.18,2.68,0.53c0.85,0.35,1.62,0.87,2.27,1.52
	c0.65,0.65,1.17,1.42,1.52,2.27c0.35,0.85,0.53,1.76,0.53,2.68H76.72z"/>
<path class="st1" d="M83.72,452.77c0.8,0,1.56-0.32,2.12-0.88c0.56-0.56,0.88-1.33,0.88-2.12s-0.32-1.56-0.88-2.12
	c-0.56-0.56-1.33-0.88-2.12-0.88s-1.56,0.32-2.12,0.88c-0.56,0.56-0.88,1.33-0.88,2.12s0.32,1.56,0.88,2.12
	C82.16,452.45,82.92,452.77,83.72,452.77L83.72,452.77z M76.72,461.77c0-0.92,0.18-1.83,0.53-2.68c0.35-0.85,0.87-1.62,1.52-2.27
	c0.65-0.65,1.42-1.16,2.27-1.52c0.85-0.35,1.76-0.53,2.68-0.53s1.83,0.18,2.68,0.53c0.85,0.35,1.62,0.87,2.27,1.52
	c0.65,0.65,1.17,1.42,1.52,2.27c0.35,0.85,0.53,1.76,0.53,2.68H76.72z"/>
<path class="st1" d="M84.72,355.77c0.8,0,1.56-0.32,2.12-0.88c0.56-0.56,0.88-1.33,0.88-2.12s-0.32-1.56-0.88-2.12
	c-0.56-0.56-1.33-0.88-2.12-0.88s-1.56,0.32-2.12,0.88c-0.56,0.56-0.88,1.33-0.88,2.12s0.32,1.56,0.88,2.12
	C83.16,355.45,83.92,355.77,84.72,355.77L84.72,355.77z M77.72,364.77c0-0.92,0.18-1.83,0.53-2.68c0.35-0.85,0.87-1.62,1.52-2.27
	c0.65-0.65,1.42-1.16,2.27-1.52c0.85-0.35,1.76-0.53,2.68-0.53s1.83,0.18,2.68,0.53c0.85,0.35,1.62,0.87,2.27,1.52
	c0.65,0.65,1.17,1.42,1.52,2.27c0.35,0.85,0.53,1.76,0.53,2.68H77.72z"/>
<path class="st1" d="M84.72,475.77c0.8,0,1.56-0.32,2.12-0.88c0.56-0.56,0.88-1.33,0.88-2.12s-0.32-1.56-0.88-2.12
	c-0.56-0.56-1.33-0.88-2.12-0.88s-1.56,0.32-2.12,0.88c-0.56,0.56-0.88,1.33-0.88,2.12s0.32,1.56,0.88,2.12
	C83.16,475.45,83.92,475.77,84.72,475.77L84.72,475.77z M77.72,484.77c0-0.92,0.18-1.83,0.53-2.68c0.35-0.85,0.87-1.62,1.52-2.27
	c0.65-0.65,1.42-1.16,2.27-1.52c0.85-0.35,1.76-0.53,2.68-0.53s1.83,0.18,2.68,0.53c0.85,0.35,1.62,0.87,2.27,1.52
	c0.65,0.65,1.17,1.42,1.52,2.27c0.35,0.85,0.53,1.76,0.53,2.68H77.72z"/>
<path class="st0" d="M86.72,273.77c0,0.8-0.32,1.56-0.88,2.12c-0.56,0.56-1.33,0.88-2.12,0.88s-1.56-0.32-2.12-0.88
	c-0.56-0.56-0.88-1.33-0.88-2.12s0.32-1.56,0.88-2.12c0.56-0.56,1.33-0.88,2.12-0.88s1.56,0.32,2.12,0.88
	C86.4,272.21,86.72,272.97,86.72,273.77L86.72,273.77z M91.72,275.77c0,0.53-0.21,1.04-0.59,1.41s-0.88,0.59-1.41,0.59
	s-1.04-0.21-1.41-0.59s-0.59-0.88-0.59-1.41s0.21-1.04,0.59-1.41s0.88-0.59,1.41-0.59s1.04,0.21,1.41,0.59
	S91.72,275.24,91.72,275.77L91.72,275.77z M87.72,282.77c0-1.06-0.42-2.08-1.17-2.83c-0.75-0.75-1.77-1.17-2.83-1.17
	s-2.08,0.42-2.83,1.17c-0.75,0.75-1.17,1.77-1.17,2.83v3h8V282.77z M79.72,275.77c0,0.53-0.21,1.04-0.59,1.41s-0.88,0.59-1.41,0.59
	s-1.04-0.21-1.41-0.59s-0.59-0.88-0.59-1.41s0.21-1.04,0.59-1.41s0.88-0.59,1.41-0.59s1.04,0.21,1.41,0.59
	S79.72,275.24,79.72,275.77L79.72,275.77z M89.72,285.77v-3c0-1.02-0.26-2.02-0.75-2.91c0.44-0.11,0.91-0.12,1.35-0.03
	c0.45,0.09,0.87,0.29,1.23,0.57s0.65,0.64,0.86,1.05c0.2,0.41,0.31,0.86,0.31,1.32v3H89.72z M78.47,279.86
	c-0.49,0.89-0.75,1.89-0.75,2.91v3h-3v-3c0-0.46,0.1-0.91,0.31-1.32c0.2-0.41,0.49-0.77,0.86-1.05c0.36-0.28,0.78-0.47,1.23-0.57
	C77.56,279.74,78.03,279.75,78.47,279.86L78.47,279.86z"/>
<path class="st0" d="M86.72,393.77c0,0.8-0.32,1.56-0.88,2.12c-0.56,0.56-1.33,0.88-2.12,0.88s-1.56-0.32-2.12-0.88
	c-0.56-0.56-0.88-1.33-0.88-2.12s0.32-1.56,0.88-2.12c0.56-0.56,1.33-0.88,2.12-0.88s1.56,0.32,2.12,0.88
	C86.4,392.21,86.72,392.97,86.72,393.77L86.72,393.77z M91.72,395.77c0,0.53-0.21,1.04-0.59,1.41s-0.88,0.59-1.41,0.59
	s-1.04-0.21-1.41-0.59s-0.59-0.88-0.59-1.41s0.21-1.04,0.59-1.41s0.88-0.59,1.41-0.59s1.04,0.21,1.41,0.59
	S91.72,395.24,91.72,395.77L91.72,395.77z M87.72,402.77c0-1.06-0.42-2.08-1.17-2.83c-0.75-0.75-1.77-1.17-2.83-1.17
	s-2.08,0.42-2.83,1.17c-0.75,0.75-1.17,1.77-1.17,2.83v3h8V402.77z M79.72,395.77c0,0.53-0.21,1.04-0.59,1.41s-0.88,0.59-1.41,0.59
	s-1.04-0.21-1.41-0.59s-0.59-0.88-0.59-1.41s0.21-1.04,0.59-1.41s0.88-0.59,1.41-0.59s1.04,0.21,1.41,0.59
	S79.72,395.24,79.72,395.77L79.72,395.77z M89.72,405.77v-3c0-1.02-0.26-2.02-0.75-2.91c0.44-0.11,0.91-0.12,1.35-0.03
	c0.45,0.09,0.87,0.29,1.23,0.57s0.65,0.64,0.86,1.05c0.2,0.41,0.31,0.86,0.31,1.32v3H89.72z M78.47,399.86
	c-0.49,0.89-0.75,1.89-0.75,2.91v3h-3v-3c0-0.46,0.1-0.91,0.31-1.32c0.2-0.41,0.49-0.77,0.86-1.05c0.36-0.28,0.78-0.47,1.23-0.57
	C77.56,399.74,78.03,399.75,78.47,399.86L78.47,399.86z"/>
<path class="st2" d="M288.57,178.77h0.59c0.41,0,0.67-0.23,0.67-0.65v-4.54l4.37-6.62c0.31-0.45,0.11-0.79-0.41-0.79h-0.77
	c-0.36,0-0.61,0.13-0.79,0.43l-3.37,5.36l-3.35-5.36c-0.18-0.32-0.43-0.43-0.77-0.43h-0.79c-0.52,0-0.72,0.34-0.41,0.79l4.39,6.62
	v4.54C287.92,178.53,288.15,178.77,288.57,178.77z M298.54,178.97c2.65,0,4.79-2.11,4.79-4.72c0-2.57-2.14-4.7-4.79-4.7
	c-2.63,0-4.75,2.11-4.75,4.7C293.79,176.88,295.92,178.97,298.54,178.97z M298.54,177.35c-1.6,0-2.92-1.37-2.92-3.08
	s1.31-3.1,2.92-3.1c1.64,0,2.93,1.39,2.93,3.1S300.18,177.35,298.54,177.35z M308.69,178.97c1.46,0,2.61-0.7,3.01-1.96v1.12
	c0,0.41,0.23,0.65,0.65,0.65h0.54c0.41,0,0.67-0.23,0.67-0.65v-7.72c0-0.41-0.25-0.65-0.67-0.65h-0.54c-0.41,0-0.65,0.23-0.65,0.65
	v3.58c0,2.72-1.87,3.37-2.81,3.37c-0.95,0-1.78-0.68-1.78-2.52v-4.43c0-0.41-0.25-0.65-0.67-0.65h-0.54c-0.41,0-0.65,0.23-0.65,0.65
	v4.45C305.25,177.67,306.69,178.97,308.69,178.97z"/>
<path class="st2" d="M267.57,240.77h0.59c0.41,0,0.67-0.23,0.67-0.65v-4.54l4.37-6.62c0.31-0.45,0.11-0.79-0.41-0.79h-0.77
	c-0.36,0-0.61,0.13-0.79,0.43l-3.37,5.36l-3.35-5.36c-0.18-0.32-0.43-0.43-0.77-0.43h-0.79c-0.52,0-0.72,0.34-0.41,0.79l4.39,6.62
	v4.54C266.92,240.53,267.15,240.77,267.57,240.77z M277.54,240.97c2.65,0,4.79-2.11,4.79-4.72c0-2.57-2.14-4.7-4.79-4.7
	c-2.63,0-4.75,2.11-4.75,4.7C272.79,238.88,274.92,240.97,277.54,240.97z M277.54,239.35c-1.6,0-2.92-1.37-2.92-3.08
	s1.31-3.1,2.92-3.1c1.64,0,2.93,1.39,2.93,3.1S279.18,239.35,277.54,239.35z M287.69,240.97c1.46,0,2.61-0.7,3.01-1.96v1.12
	c0,0.41,0.23,0.65,0.65,0.65h0.54c0.41,0,0.67-0.23,0.67-0.65v-7.72c0-0.41-0.25-0.65-0.67-0.65h-0.54c-0.41,0-0.65,0.23-0.65,0.65
	v3.58c0,2.72-1.87,3.37-2.81,3.37c-0.95,0-1.78-0.68-1.78-2.52v-4.43c0-0.41-0.25-0.65-0.67-0.65h-0.54c-0.41,0-0.65,0.23-0.65,0.65
	v4.45C284.25,239.67,285.69,240.97,287.69,240.97z M295.9,240.77h0.54c0.41,0,0.65-0.23,0.65-0.65v-2.79c0-3.69,1.62-4.01,2.27-4.01
	c0.16,0,0.32,0.02,0.49,0.05c0.31,0.07,0.49-0.11,0.49-0.56v-0.52c0-0.36-0.05-0.67-0.43-0.72l-0.4-0.02
	c-1.08,0-2.11,0.77-2.41,2.21v-1.37c0-0.41-0.23-0.65-0.65-0.65h-0.54c-0.41,0-0.67,0.23-0.67,0.65v7.72
	C295.24,240.53,295.49,240.77,295.9,240.77z M306.82,240.77h0.54c0.41,0,0.65-0.23,0.65-0.65v-3.58c0-2.74,1.87-3.37,2.81-3.37
	c0.95,0,1.8,0.67,1.8,2.52v4.43c0,0.41,0.23,0.65,0.65,0.65h0.54c0.41,0,0.67-0.23,0.67-0.65v-4.45c0-2.83-1.46-4.12-3.46-4.12
	c-1.46,0-2.61,0.7-3.01,1.96v-1.12c0-0.41-0.23-0.65-0.65-0.65h-0.54c-0.41,0-0.67,0.23-0.67,0.65v7.72
	C306.15,240.53,306.4,240.77,306.82,240.77z M321.14,240.97c2.65,0,4.79-2.11,4.79-4.72c0-2.57-2.14-4.7-4.79-4.7
	c-2.63,0-4.75,2.11-4.75,4.7C316.38,238.88,318.51,240.97,321.14,240.97z M321.14,239.35c-1.6,0-2.92-1.37-2.92-3.08
	s1.31-3.1,2.92-3.1c1.64,0,2.93,1.39,2.93,3.1S322.77,239.35,321.14,239.35z M331.12,240.97c1.73,0,2.7-0.99,2.7-2.34
	c0-0.02,0-0.36-0.07-0.67c-0.04-0.23-0.2-0.32-0.41-0.32h-0.83c-0.25,0-0.36,0.16-0.32,0.41c0.04,0.14,0.04,0.27,0.04,0.34
	c0,0.65-0.5,0.97-1.06,0.97c-0.58,0-1.04-0.38-1.04-1.35v-4.82h2.47c0.23,0,0.36-0.14,0.36-0.38v-0.7c0-0.23-0.13-0.36-0.36-0.36
	h-2.47v-2.03c0-0.34-0.2-0.56-0.54-0.56h-0.38c-0.32,0-0.52,0.18-0.58,0.52l-0.32,2.07h-1.13c-0.23,0-0.36,0.13-0.36,0.36v0.7
	c0,0.23,0.13,0.38,0.36,0.38h1.1v4.72C328.26,240.23,329.68,240.97,331.12,240.97z M339.87,240.97c1.13,0,2.34-0.27,3.38-1.12
	c0.41-0.34,0.41-0.72,0.13-1.03l-0.13-0.14c-0.29-0.29-0.58-0.31-0.92-0.09c-0.77,0.52-1.57,0.76-2.45,0.76
	c-1.96,0-3.35-1.22-3.29-2.9h6.98c0.43,0,0.68-0.23,0.63-0.67c-0.25-2.88-2.32-4.23-4.59-4.23c-2.81,0-4.86,2.11-4.86,4.73
	C334.76,238.86,336.7,240.97,339.87,240.97z M336.75,235.08c0.56-1.53,1.85-1.94,2.9-1.94c0.99,0,2.25,0.34,2.72,1.94H336.75z"/>
<path class="st1" d="M287.72,195.77c0-1.06,0.42-2.08,1.17-2.83c0.75-0.75,1.77-1.17,2.83-1.17h9.17c1.06,0,2.08,0.42,2.83,1.17
	l6.83,6.83c0.75,0.75,1.17,1.77,1.17,2.83v17.17c0,1.06-0.42,2.08-1.17,2.83c-0.75,0.75-1.77,1.17-2.83,1.17h-16
	c-1.06,0-2.08-0.42-2.83-1.17c-0.75-0.75-1.17-1.77-1.17-2.83V195.77z M291.72,207.77c0-0.53,0.21-1.04,0.59-1.41
	s0.88-0.59,1.41-0.59h12c0.53,0,1.04,0.21,1.41,0.59s0.59,0.88,0.59,1.41s-0.21,1.04-0.59,1.41s-0.88,0.59-1.41,0.59h-12
	c-0.53,0-1.04-0.21-1.41-0.59S291.72,208.3,291.72,207.77z M293.72,213.77c-0.53,0-1.04,0.21-1.41,0.59s-0.59,0.88-0.59,1.41
	s0.21,1.04,0.59,1.41s0.88,0.59,1.41,0.59h12c0.53,0,1.04-0.21,1.41-0.59s0.59-0.88,0.59-1.41s-0.21-1.04-0.59-1.41
	s-0.88-0.59-1.41-0.59H293.72z"/>
<path class="st5" d="M290.98,399.97c2.63,0,4.43-1.4,4.43-3.67c0-1.35-0.97-2.75-3.1-3.42l-1.87-0.7c-1.44-0.54-1.6-1.22-1.6-1.75
	c0-1.12,0.99-1.76,2.18-1.76c1.04,0,1.82,0.4,2.23,1.22c0.18,0.38,0.43,0.52,0.83,0.41l0.45-0.14c0.4-0.11,0.59-0.41,0.43-0.81
	c-0.58-1.42-1.98-2.38-3.96-2.38c-2.18,0-4.09,1.33-4.09,3.51c0,1.17,0.58,2.59,2.95,3.38l1.87,0.63c1.03,0.38,1.82,0.97,1.82,1.93
	c0,1.08-0.99,1.87-2.61,1.87c-1.26,0-2.21-0.61-2.66-1.39c-0.2-0.38-0.41-0.52-0.81-0.43l-0.52,0.13c-0.4,0.11-0.61,0.41-0.43,0.81
	C287.16,398.89,288.74,399.97,290.98,399.97z M301.99,399.97c1.13,0,2.34-0.27,3.38-1.12c0.41-0.34,0.41-0.72,0.13-1.03l-0.13-0.14
	c-0.29-0.29-0.58-0.31-0.92-0.09c-0.77,0.52-1.57,0.76-2.45,0.76c-1.96,0-3.35-1.22-3.29-2.9h6.98c0.43,0,0.68-0.23,0.63-0.67
	c-0.25-2.88-2.32-4.23-4.59-4.23c-2.81,0-4.86,2.11-4.86,4.73C296.88,397.86,298.82,399.97,301.99,399.97z M298.88,394.08
	c0.56-1.53,1.85-1.94,2.9-1.94c0.99,0,2.25,0.34,2.72,1.94H298.88z M314.78,399.97c0.18,0,0.79,0,1.4-0.29
	c0.45-0.22,0.54-0.52,0.45-0.74l-0.29-0.58c-0.13-0.22-0.27-0.25-0.52-0.16c-0.32,0.14-0.67,0.16-0.81,0.16
	c-0.79,0-1.04-0.45-1.57-1.19l-1.49-2.29l2.77-3.35c0.36-0.43,0.2-0.79-0.38-0.79h-0.68c-0.34,0-0.59,0.11-0.79,0.38l-2.75,3.4
	v-7.13c0-0.41-0.23-0.65-0.65-0.65h-0.54c-0.41,0-0.67,0.23-0.67,0.65v11.72c0,0.41,0.25,0.65,0.67,0.65h0.54
	c0.41,0,0.65-0.23,0.65-0.65v-3.96l1.76,2.86C312.44,398.83,313.06,399.97,314.78,399.97z M320.95,399.97c1.46,0,2.61-0.7,3.01-1.96
	v1.12c0,0.41,0.23,0.65,0.65,0.65h0.54c0.41,0,0.67-0.23,0.67-0.65v-7.72c0-0.41-0.25-0.65-0.67-0.65h-0.54
	c-0.41,0-0.65,0.23-0.65,0.65v3.58c0,2.72-1.87,3.37-2.81,3.37c-0.95,0-1.78-0.68-1.78-2.52v-4.43c0-0.41-0.25-0.65-0.67-0.65h-0.54
	c-0.41,0-0.65,0.23-0.65,0.65v4.45C317.51,398.67,318.95,399.97,320.95,399.97z M329.17,399.77h0.54c0.41,0,0.65-0.23,0.65-0.65
	v-3.58c0-2.74,1.87-3.37,2.81-3.37c0.95,0,1.8,0.67,1.8,2.52v4.43c0,0.41,0.23,0.65,0.65,0.65h0.54c0.41,0,0.67-0.23,0.67-0.65
	v-4.45c0-2.83-1.46-4.12-3.46-4.12c-1.46,0-2.61,0.7-3.01,1.96v-1.12c0-0.41-0.23-0.65-0.65-0.65h-0.54c-0.41,0-0.67,0.23-0.67,0.65
	v7.72C328.5,399.53,328.75,399.77,329.17,399.77z M343.23,399.97c1.21,0,2.38-0.41,3.22-1.62v0.77c0,0.41,0.25,0.65,0.67,0.65h0.54
	c0.41,0,0.65-0.23,0.65-0.65V387.4c0-0.41-0.23-0.65-0.65-0.65h-0.54c-0.41,0-0.67,0.23-0.67,0.65v4.77
	c-0.85-1.21-2.02-1.62-3.22-1.62c-2.68,0-4.46,2.11-4.46,4.7C338.77,397.84,340.55,399.97,343.23,399.97z M343.48,398.35
	c-1.82,0-2.86-1.4-2.86-3.1c0-1.67,1.04-3.1,2.86-3.1c1.78,0,2.99,1.31,3.01,3.1C346.47,397.03,345.27,398.35,343.48,398.35z"/>
<g>
	<defs>
		<rect id="SVGID_1_" x="261.72" y="383.77" width="20" height="20"/>
	</defs>
	<clipPath id="SVGID_00000038373574291560236960000012601884801300612252_">
		<use xlink:href="#SVGID_1_"  style="overflow:visible;"/>
	</clipPath>
	<g style="clip-path:url(#SVGID_00000038373574291560236960000012601884801300612252_);">
		<path class="st5" d="M271.72,403.77c5.52,0,10-4.48,10-10s-4.48-10-10-10s-10,4.48-10,10S266.2,403.77,271.72,403.77z"/>
		<path class="st0" d="M267.76,390.49c-1.82,0-3.3,1.45-3.3,3.31c0,2.31,1.93,3.34,3.03,3.34c-0.24,1.28-0.83,2.38-2.38,3.76
			c4.06-1.1,6.09-4.06,6.09-6.89C271.21,391.76,269.59,390.49,267.76,390.49z"/>
		<path class="st0" d="M275.6,390.49c-1.83,0-3.3,1.45-3.3,3.31c0,2.31,1.93,3.34,3.03,3.34c-0.24,1.28-0.83,2.38-2.38,3.76
			c4.06-1.1,6.09-4.06,6.09-6.89C279.04,391.76,277.42,390.49,275.6,390.49z"/>
	</g>
</g>
<path class="st5" d="M236.72,269.77h137c2.21,0,4,1.79,4,4v101c0,2.21-1.79,4-4,4h-137c-2.21,0-4-1.79-4-4v-101
	C232.72,271.56,234.51,269.77,236.72,269.77z"/>
<path class="st0" d="M269.57,347.77h0.59c0.41,0,0.67-0.23,0.67-0.65v-4.54l4.37-6.62c0.31-0.45,0.11-0.79-0.41-0.79h-0.77
	c-0.36,0-0.61,0.13-0.79,0.43l-3.37,5.36l-3.35-5.36c-0.18-0.32-0.43-0.43-0.77-0.43h-0.79c-0.52,0-0.72,0.34-0.41,0.79l4.39,6.62
	v4.54C268.92,347.53,269.15,347.77,269.57,347.77z M279.54,347.97c2.65,0,4.79-2.11,4.79-4.72c0-2.57-2.14-4.7-4.79-4.7
	c-2.63,0-4.75,2.11-4.75,4.7C274.79,345.88,276.92,347.97,279.54,347.97z M279.54,346.35c-1.6,0-2.92-1.37-2.92-3.08
	s1.31-3.1,2.92-3.1c1.64,0,2.93,1.39,2.93,3.1S281.18,346.35,279.54,346.35z M289.69,347.97c1.46,0,2.61-0.7,3.01-1.96v1.12
	c0,0.41,0.23,0.65,0.65,0.65h0.54c0.41,0,0.67-0.23,0.67-0.65v-7.72c0-0.41-0.25-0.65-0.67-0.65h-0.54c-0.41,0-0.65,0.23-0.65,0.65
	v3.58c0,2.72-1.87,3.37-2.81,3.37c-0.95,0-1.78-0.68-1.78-2.52v-4.43c0-0.41-0.25-0.65-0.67-0.65h-0.54c-0.41,0-0.65,0.23-0.65,0.65
	v4.45C286.25,346.67,287.69,347.97,289.69,347.97z M297.9,347.77h0.54c0.41,0,0.65-0.23,0.65-0.65v-2.79c0-3.69,1.62-4.01,2.27-4.01
	c0.16,0,0.32,0.02,0.49,0.05c0.31,0.07,0.49-0.11,0.49-0.56v-0.52c0-0.36-0.05-0.67-0.43-0.72l-0.4-0.02
	c-1.08,0-2.11,0.77-2.41,2.21v-1.37c0-0.41-0.23-0.65-0.65-0.65h-0.54c-0.41,0-0.67,0.23-0.67,0.65v7.72
	C297.24,347.53,297.49,347.77,297.9,347.77z M308.82,347.77h0.54c0.41,0,0.65-0.23,0.65-0.65v-3.58c0-2.74,1.87-3.37,2.81-3.37
	c0.95,0,1.8,0.67,1.8,2.52v4.43c0,0.41,0.23,0.65,0.65,0.65h0.54c0.41,0,0.67-0.23,0.67-0.65v-4.45c0-2.83-1.46-4.12-3.46-4.12
	c-1.46,0-2.61,0.7-3.01,1.96v-1.12c0-0.41-0.23-0.65-0.65-0.65h-0.54c-0.41,0-0.67,0.23-0.67,0.65v7.72
	C308.15,347.53,308.4,347.77,308.82,347.77z M323.14,347.97c2.65,0,4.79-2.11,4.79-4.72c0-2.57-2.14-4.7-4.79-4.7
	c-2.63,0-4.75,2.11-4.75,4.7C318.38,345.88,320.51,347.97,323.14,347.97z M323.14,346.35c-1.6,0-2.92-1.37-2.92-3.08
	s1.31-3.1,2.92-3.1c1.64,0,2.93,1.39,2.93,3.1S324.77,346.35,323.14,346.35z M333.12,347.97c1.73,0,2.7-0.99,2.7-2.34
	c0-0.02,0-0.36-0.07-0.67c-0.04-0.23-0.2-0.32-0.41-0.32h-0.83c-0.25,0-0.36,0.16-0.32,0.41c0.04,0.14,0.04,0.27,0.04,0.34
	c0,0.65-0.5,0.97-1.06,0.97c-0.58,0-1.04-0.38-1.04-1.35v-4.82h2.47c0.23,0,0.36-0.14,0.36-0.38v-0.7c0-0.23-0.13-0.36-0.36-0.36
	h-2.47v-2.03c0-0.34-0.2-0.56-0.54-0.56h-0.38c-0.32,0-0.52,0.18-0.58,0.52l-0.32,2.07h-1.13c-0.23,0-0.36,0.13-0.36,0.36v0.7
	c0,0.23,0.13,0.38,0.36,0.38h1.1v4.72C330.26,347.23,331.68,347.97,333.12,347.97z M341.87,347.97c1.13,0,2.34-0.27,3.38-1.12
	c0.41-0.34,0.41-0.72,0.13-1.03l-0.13-0.14c-0.29-0.29-0.58-0.31-0.92-0.09c-0.77,0.52-1.57,0.76-2.45,0.76
	c-1.96,0-3.35-1.22-3.29-2.9h6.98c0.43,0,0.68-0.23,0.63-0.67c-0.25-2.88-2.32-4.23-4.59-4.23c-2.81,0-4.86,2.11-4.86,4.73
	C336.76,345.86,338.7,347.97,341.87,347.97z M338.75,342.08c0.56-1.53,1.85-1.94,2.9-1.94c0.99,0,2.25,0.34,2.72,1.94H338.75z"/>
<path class="st4" d="M289.72,302.77c0-1.06,0.42-2.08,1.17-2.83c0.75-0.75,1.77-1.17,2.83-1.17h9.17c1.06,0,2.08,0.42,2.83,1.17
	l6.83,6.83c0.75,0.75,1.17,1.77,1.17,2.83v17.17c0,1.06-0.42,2.08-1.17,2.83c-0.75,0.75-1.77,1.17-2.83,1.17h-16
	c-1.06,0-2.08-0.42-2.83-1.17c-0.75-0.75-1.17-1.77-1.17-2.83V302.77z M293.72,314.77c0-0.53,0.21-1.04,0.59-1.41
	s0.88-0.59,1.41-0.59h12c0.53,0,1.04,0.21,1.41,0.59s0.59,0.88,0.59,1.41s-0.21,1.04-0.59,1.41s-0.88,0.59-1.41,0.59h-12
	c-0.53,0-1.04-0.21-1.41-0.59S293.72,315.3,293.72,314.77z M295.72,320.77c-0.53,0-1.04,0.21-1.41,0.59s-0.59,0.88-0.59,1.41
	s0.21,1.04,0.59,1.41s0.88,0.59,1.41,0.59h12c0.53,0,1.04-0.21,1.41-0.59s0.59-0.88,0.59-1.41s-0.21-1.04-0.59-1.41
	s-0.88-0.59-1.41-0.59H295.72z"/>
<path class="st4" d="M447.8,322.77h1.95c0.09-1.55,0.38-2.97,0.84-4.12c-0.73,0.45-1.36,1.05-1.84,1.76
	C448.27,321.12,447.95,321.92,447.8,322.77z M453.72,315.77c-2.12,0-4.16,0.84-5.66,2.34s-2.34,3.54-2.34,5.66s0.84,4.16,2.34,5.66
	s3.54,2.34,5.66,2.34s4.16-0.84,5.66-2.34s2.34-3.54,2.34-5.66s-0.84-4.16-2.34-5.66S455.84,315.77,453.72,315.77L453.72,315.77z
	 M453.72,317.77c-0.08,0-0.23,0.03-0.46,0.26c-0.24,0.23-0.5,0.62-0.74,1.18c-0.39,0.91-0.67,2.14-0.77,3.56h3.94
	c-0.09-1.41-0.38-2.65-0.77-3.56c-0.24-0.56-0.5-0.95-0.74-1.18C453.95,317.8,453.79,317.77,453.72,317.77z M457.69,322.77
	c-0.09-1.55-0.38-2.97-0.84-4.12c0.73,0.45,1.36,1.05,1.84,1.76c0.48,0.71,0.8,1.51,0.95,2.36H457.69z M455.69,324.77h-3.94
	c0.09,1.41,0.38,2.65,0.77,3.56c0.24,0.56,0.5,0.95,0.74,1.18c0.23,0.23,0.39,0.26,0.46,0.26s0.23-0.03,0.46-0.26
	c0.24-0.23,0.5-0.62,0.74-1.18C455.31,327.42,455.59,326.18,455.69,324.77z M456.85,328.89c0.45-1.15,0.75-2.57,0.84-4.12h1.95
	c-0.14,0.85-0.46,1.65-0.95,2.36C458.21,327.84,457.58,328.44,456.85,328.89L456.85,328.89z M450.58,328.89
	c-0.45-1.15-0.75-2.57-0.84-4.12h-1.95c0.14,0.85,0.46,1.65,0.95,2.36C449.23,327.84,449.85,328.44,450.58,328.89L450.58,328.89z"/>
<path class="st2" d="M459.28,385.97h-3.46c-0.32,0-0.5,0.18-0.5,0.5v8.79c0,0.32,0.18,0.5,0.5,0.5h0.48c0.32,0,0.5-0.18,0.5-0.5
	v-3.16h2.48c1.89,0,2.98-1.37,2.98-3.02C462.26,387.41,461.19,385.97,459.28,385.97z M458.99,390.91h-2.18v-3.72h2.18
	c1.08,0,1.75,0.77,1.75,1.88C460.74,390.14,460.08,390.91,458.99,390.91z M466.37,395.92c1.13,0,2.03-0.55,2.34-1.53v0.87
	c0,0.32,0.18,0.5,0.5,0.5h0.42c0.32,0,0.52-0.18,0.52-0.5v-6.01c0-0.32-0.2-0.5-0.52-0.5h-0.42c-0.32,0-0.5,0.18-0.5,0.5v2.79
	c0,2.11-1.46,2.62-2.18,2.62c-0.74,0-1.39-0.53-1.39-1.96v-3.44c0-0.32-0.2-0.5-0.52-0.5h-0.42c-0.32,0-0.5,0.18-0.5,0.5v3.46
	C463.69,394.91,464.81,395.92,466.37,395.92z M476.2,395.92c2.09,0,3.47-1.65,3.47-3.67c0-2.02-1.39-3.65-3.47-3.65
	c-0.94,0-1.86,0.32-2.52,1.26v-3.71c0-0.32-0.18-0.5-0.5-0.5h-0.42c-0.32,0-0.52,0.18-0.52,0.5v9.11c0,0.32,0.2,0.5,0.52,0.5h0.42
	c0.32,0,0.5-0.18,0.5-0.5v-0.6C474.34,395.6,475.26,395.92,476.2,395.92z M475.99,394.66c-1.37,0-2.32-1.02-2.34-2.41
	c0.01-1.39,0.97-2.41,2.34-2.41c1.43,0,2.24,1.11,2.24,2.41C478.23,393.57,477.42,394.66,475.99,394.66z M481.85,395.77h0.42
	c0.32,0,0.5-0.18,0.5-0.5v-9.11c0-0.32-0.18-0.5-0.5-0.5h-0.42c-0.32,0-0.52,0.18-0.52,0.5v9.11
	C481.33,395.59,481.53,395.77,481.85,395.77z M485.68,387.48c0.56,0,0.99-0.42,0.99-0.95c0-0.55-0.42-0.98-0.99-0.98
	c-0.56,0-0.97,0.43-0.97,0.98C484.72,387.06,485.12,387.48,485.68,387.48z M485.49,395.77h0.42c0.32,0,0.5-0.18,0.5-0.5v-6.01
	c0-0.32-0.18-0.5-0.5-0.5h-0.42c-0.32,0-0.52,0.18-0.52,0.5v6.01C484.97,395.59,485.17,395.77,485.49,395.77z M492.01,395.92
	c0.5,0,1.19-0.08,1.89-0.46c0.45-0.22,0.55-0.56,0.35-0.83l-0.1-0.14c-0.18-0.27-0.41-0.29-0.71-0.14c-0.6,0.29-1.2,0.31-1.36,0.31
	c-1.48,0-2.58-0.99-2.58-2.41s1.09-2.39,2.58-2.39c0.15,0,0.76,0.01,1.36,0.31c0.31,0.14,0.52,0.13,0.71-0.14l0.11-0.14
	c0.2-0.27,0.15-0.55-0.14-0.71c-0.8-0.46-1.55-0.57-2.11-0.57c-2.53,0-3.95,1.68-3.95,3.74
	C488.06,394.34,489.53,395.92,492.01,395.92z M500.21,395.77h0.42c0.32,0,0.5-0.18,0.5-0.5v-9.11c0-0.32-0.18-0.5-0.5-0.5h-0.42
	c-0.32,0-0.52,0.18-0.52,0.5v9.11C499.69,395.59,499.89,395.77,500.21,395.77z M504.04,387.48c0.56,0,0.99-0.42,0.99-0.95
	c0-0.55-0.42-0.98-0.99-0.98c-0.56,0-0.97,0.43-0.97,0.98C503.08,387.06,503.48,387.48,504.04,387.48z M503.85,395.77h0.42
	c0.32,0,0.5-0.18,0.5-0.5v-6.01c0-0.32-0.18-0.5-0.5-0.5h-0.42c-0.32,0-0.52,0.18-0.52,0.5v6.01
	C503.33,395.59,503.53,395.77,503.85,395.77z M507.44,395.77h0.42c0.32,0,0.5-0.18,0.5-0.5v-2.79c0-2.13,1.46-2.62,2.18-2.62
	c0.74,0,1.4,0.52,1.4,1.96v3.44c0,0.32,0.18,0.5,0.5,0.5h0.42c0.32,0,0.52-0.18,0.52-0.5v-3.46c0-2.2-1.13-3.21-2.69-3.21
	c-1.13,0-2.03,0.55-2.34,1.53v-0.87c0-0.32-0.18-0.5-0.5-0.5h-0.42c-0.32,0-0.52,0.18-0.52,0.5v6.01
	C506.92,395.59,507.12,395.77,507.44,395.77z M520.46,395.92c0.14,0,0.62,0,1.09-0.22c0.35-0.17,0.42-0.41,0.35-0.57l-0.22-0.45
	c-0.1-0.17-0.21-0.2-0.41-0.13c-0.25,0.11-0.52,0.13-0.63,0.13c-0.62,0-0.81-0.35-1.22-0.92l-1.16-1.78l2.16-2.6
	c0.28-0.34,0.15-0.62-0.29-0.62h-0.53c-0.27,0-0.46,0.08-0.62,0.29l-2.14,2.65v-5.54c0-0.32-0.18-0.5-0.5-0.5h-0.42
	c-0.32,0-0.52,0.18-0.52,0.5v9.11c0,0.32,0.2,0.5,0.52,0.5h0.42c0.32,0,0.5-0.18,0.5-0.5v-3.08l1.37,2.23
	C518.64,395.04,519.11,395.92,520.46,395.92z M529.72,395.92c2.06,0,3.72-1.64,3.72-3.67c0-2-1.67-3.65-3.72-3.65
	c-2.04,0-3.7,1.64-3.7,3.65C526.03,394.3,527.68,395.92,529.72,395.92z M529.72,394.66c-1.25,0-2.27-1.06-2.27-2.39
	s1.02-2.41,2.27-2.41c1.27,0,2.28,1.08,2.28,2.41S531,394.66,529.72,394.66z M535.55,395.77h0.42c0.32,0,0.5-0.18,0.5-0.5v-2.79
	c0-2.13,1.46-2.62,2.18-2.62c0.74,0,1.4,0.52,1.4,1.96v3.44c0,0.32,0.18,0.5,0.5,0.5h0.42c0.32,0,0.52-0.18,0.52-0.5v-3.46
	c0-2.2-1.13-3.21-2.69-3.21c-1.13,0-2.03,0.55-2.34,1.53v-0.87c0-0.32-0.18-0.5-0.5-0.5h-0.42c-0.32,0-0.52,0.18-0.52,0.5v6.01
	C535.03,395.59,535.23,395.77,535.55,395.77z M440.4,412.9h0.42c0.32,0,0.5-0.18,0.5-0.5v-3.74c0.66,0.94,1.58,1.26,2.52,1.26
	c2.09,0,3.47-1.65,3.47-3.67c0-2.02-1.39-3.65-3.47-3.65c-0.94,0-1.86,0.32-2.52,1.26v-0.6c0-0.32-0.18-0.5-0.5-0.5h-0.42
	c-0.32,0-0.52,0.18-0.52,0.5v9.14C439.88,412.72,440.07,412.9,440.4,412.9z M443.63,408.66c-1.37,0-2.32-1.02-2.34-2.41
	c0.01-1.39,0.97-2.41,2.34-2.41c1.43,0,2.24,1.11,2.24,2.41C445.87,407.57,445.06,408.66,443.63,408.66z M451.48,409.92
	c1.13,0,2.03-0.55,2.34-1.53v0.87c0,0.32,0.18,0.5,0.5,0.5h0.42c0.32,0,0.52-0.18,0.52-0.5v-6.01c0-0.32-0.2-0.5-0.52-0.5h-0.42
	c-0.32,0-0.5,0.18-0.5,0.5v2.79c0,2.11-1.46,2.62-2.18,2.62c-0.74,0-1.39-0.53-1.39-1.96v-3.44c0-0.32-0.2-0.5-0.52-0.5h-0.42
	c-0.32,0-0.5,0.18-0.5,0.5v3.46C448.8,408.91,449.92,409.92,451.48,409.92z M461.31,409.92c2.09,0,3.47-1.65,3.47-3.67
	c0-2.02-1.39-3.65-3.47-3.65c-0.94,0-1.86,0.32-2.52,1.26v-3.71c0-0.32-0.18-0.5-0.5-0.5h-0.42c-0.32,0-0.52,0.18-0.52,0.5v9.11
	c0,0.32,0.2,0.5,0.52,0.5h0.42c0.32,0,0.5-0.18,0.5-0.5v-0.6C459.45,409.6,460.38,409.92,461.31,409.92z M461.1,408.66
	c-1.37,0-2.32-1.02-2.34-2.41c0.01-1.39,0.97-2.41,2.34-2.41c1.43,0,2.24,1.11,2.24,2.41C463.34,407.57,462.53,408.66,461.1,408.66z
	 M466.96,409.77h0.42c0.32,0,0.5-0.18,0.5-0.5v-9.11c0-0.32-0.18-0.5-0.5-0.5h-0.42c-0.32,0-0.52,0.18-0.52,0.5v9.11
	C466.44,409.59,466.64,409.77,466.96,409.77z M470.79,401.48c0.56,0,0.99-0.42,0.99-0.95c0-0.55-0.42-0.98-0.99-0.98
	c-0.56,0-0.97,0.43-0.97,0.98C469.83,401.06,470.23,401.48,470.79,401.48z M470.6,409.77h0.42c0.32,0,0.5-0.18,0.5-0.5v-6.01
	c0-0.32-0.18-0.5-0.5-0.5h-0.42c-0.32,0-0.52,0.18-0.52,0.5v6.01C470.08,409.59,470.28,409.77,470.6,409.77z M477.12,409.92
	c0.5,0,1.19-0.08,1.89-0.46c0.45-0.22,0.55-0.56,0.35-0.83l-0.1-0.14c-0.18-0.27-0.41-0.29-0.71-0.14c-0.6,0.29-1.2,0.31-1.36,0.31
	c-1.48,0-2.58-0.99-2.58-2.41s1.09-2.39,2.58-2.39c0.15,0,0.76,0.01,1.36,0.31c0.31,0.14,0.52,0.13,0.71-0.14l0.11-0.14
	c0.2-0.27,0.15-0.55-0.14-0.71c-0.8-0.46-1.55-0.57-2.11-0.57c-2.53,0-3.95,1.68-3.95,3.74
	C473.17,408.34,474.64,409.92,477.12,409.92z M481.87,409.92c0.59,0,1.06-0.46,1.06-1.04c0-0.59-0.48-1.06-1.06-1.06
	c-0.59,0-1.05,0.48-1.05,1.06C480.82,409.46,481.28,409.92,481.87,409.92z M486.83,409.92c1.37,0,2.55-0.77,2.55-2.11
	c0-0.76-0.36-1.58-1.71-2l-1.01-0.34c-0.41-0.13-0.81-0.36-0.81-0.81c0-0.49,0.39-0.87,1.01-0.87c0.31,0,0.62,0.08,0.85,0.36
	c0.2,0.25,0.36,0.38,0.66,0.29l0.27-0.06c0.34-0.07,0.5-0.32,0.32-0.64c-0.46-0.85-1.29-1.15-2.14-1.15c-1.4,0-2.35,0.9-2.35,2.1
	c0,0.99,0.67,1.6,1.75,1.92l0.94,0.32c0.49,0.17,0.87,0.41,0.87,0.85c0,0.53-0.5,0.92-1.18,0.92c-0.55,0-1.02-0.22-1.3-0.57
	c-0.18-0.24-0.35-0.36-0.63-0.29l-0.29,0.08c-0.34,0.08-0.5,0.31-0.34,0.63C484.76,409.46,485.76,409.92,486.83,409.92z
	 M494.43,409.92c0.88,0,1.82-0.21,2.63-0.87c0.32-0.27,0.32-0.56,0.1-0.8l-0.1-0.11c-0.22-0.22-0.45-0.24-0.71-0.07
	c-0.6,0.41-1.22,0.59-1.9,0.59c-1.53,0-2.6-0.95-2.56-2.25h5.43c0.34,0,0.53-0.18,0.49-0.52c-0.2-2.24-1.81-3.29-3.57-3.29
	c-2.18,0-3.78,1.64-3.78,3.68C490.45,408.28,491.96,409.92,494.43,409.92z M492.01,405.34c0.43-1.19,1.44-1.51,2.25-1.51
	c0.77,0,1.75,0.27,2.11,1.51H492.01z M504.38,409.92c0.14,0,0.62,0,1.09-0.22c0.35-0.17,0.42-0.41,0.35-0.57l-0.22-0.45
	c-0.1-0.17-0.21-0.2-0.41-0.13c-0.25,0.11-0.52,0.13-0.63,0.13c-0.62,0-0.81-0.35-1.22-0.92l-1.16-1.78l2.16-2.6
	c0.28-0.34,0.15-0.62-0.29-0.62h-0.53c-0.27,0-0.46,0.08-0.62,0.29l-2.14,2.65v-5.54c0-0.32-0.18-0.5-0.5-0.5h-0.42
	c-0.32,0-0.52,0.18-0.52,0.5v9.11c0,0.32,0.2,0.5,0.52,0.5h0.42c0.32,0,0.5-0.18,0.5-0.5v-3.08l1.37,2.23
	C502.56,409.04,503.03,409.92,504.38,409.92z M509.17,409.92c1.13,0,2.03-0.55,2.34-1.53v0.87c0,0.32,0.18,0.5,0.5,0.5h0.42
	c0.32,0,0.52-0.18,0.52-0.5v-6.01c0-0.32-0.2-0.5-0.52-0.5h-0.42c-0.32,0-0.5,0.18-0.5,0.5v2.79c0,2.11-1.46,2.62-2.18,2.62
	c-0.74,0-1.39-0.53-1.39-1.96v-3.44c0-0.32-0.2-0.5-0.52-0.5H507c-0.32,0-0.5,0.18-0.5,0.5v3.46
	C506.5,408.91,507.62,409.92,509.17,409.92z M515.56,409.77h0.42c0.32,0,0.5-0.18,0.5-0.5v-2.79c0-2.13,1.46-2.62,2.18-2.62
	c0.74,0,1.4,0.52,1.4,1.96v3.44c0,0.32,0.18,0.5,0.5,0.5H521c0.32,0,0.52-0.18,0.52-0.5v-3.46c0-2.2-1.13-3.21-2.69-3.21
	c-1.13,0-2.03,0.55-2.34,1.53v-0.87c0-0.32-0.18-0.5-0.5-0.5h-0.42c-0.32,0-0.52,0.18-0.52,0.5v6.01
	C515.05,409.59,515.24,409.77,515.56,409.77z M526.51,409.92c0.94,0,1.85-0.32,2.51-1.26v0.6c0,0.32,0.2,0.5,0.52,0.5h0.42
	c0.32,0,0.5-0.18,0.5-0.5v-9.11c0-0.32-0.18-0.5-0.5-0.5h-0.42c-0.32,0-0.52,0.18-0.52,0.5v3.71c-0.66-0.94-1.57-1.26-2.51-1.26
	c-2.09,0-3.47,1.64-3.47,3.65C523.03,408.27,524.42,409.92,526.51,409.92z M526.7,408.66c-1.41,0-2.23-1.09-2.23-2.41
	c0-1.3,0.81-2.41,2.23-2.41c1.39,0,2.32,1.02,2.34,2.41C529.03,407.64,528.09,408.66,526.7,408.66z M533.34,409.92
	c0.59,0,1.06-0.46,1.06-1.04c0-0.59-0.48-1.06-1.06-1.06s-1.05,0.48-1.05,1.06C532.29,409.46,532.76,409.92,533.34,409.92z
	 M539.28,409.92c2.06,0,3.72-1.64,3.72-3.67c0-2-1.67-3.65-3.72-3.65c-2.04,0-3.7,1.64-3.7,3.65
	C535.58,408.3,537.23,409.92,539.28,409.92z M539.28,408.66c-1.25,0-2.27-1.06-2.27-2.39s1.02-2.41,2.27-2.41
	c1.27,0,2.28,1.08,2.28,2.41S540.55,408.66,539.28,408.66z M545.11,409.77h0.42c0.32,0,0.5-0.18,0.5-0.5v-2.17
	c0-2.87,1.26-3.12,1.76-3.12c0.13,0,0.25,0.01,0.38,0.04c0.24,0.06,0.38-0.08,0.38-0.43v-0.41c0-0.28-0.04-0.52-0.34-0.56
	l-0.31-0.01c-0.84,0-1.64,0.6-1.88,1.72v-1.06c0-0.32-0.18-0.5-0.5-0.5h-0.42c-0.32,0-0.52,0.18-0.52,0.5v6.01
	C544.59,409.59,544.79,409.77,545.11,409.77z M552.87,413.06c1.95,0,3.7-1.02,3.7-3.4v-6.4c0-0.32-0.2-0.5-0.52-0.5h-0.41
	c-0.32,0-0.52,0.18-0.52,0.49v0.62c-0.66-0.94-1.57-1.26-2.51-1.26c-2.1,0-3.47,1.65-3.47,3.65c0,2.02,1.37,3.67,3.47,3.67
	c0.94,0,1.85-0.32,2.51-1.26v0.9c0,1.48-0.92,2.25-2.27,2.25c-0.71,0-1.4-0.17-2-0.55c-0.29-0.18-0.53-0.15-0.69,0.17l-0.11,0.2
	c-0.14,0.28-0.1,0.53,0.15,0.7C550.85,412.75,551.65,413.06,552.87,413.06z M552.81,408.66c-1.41,0-2.23-1.09-2.23-2.41
	c0-1.3,0.81-2.41,2.23-2.41c1.39,0,2.32,1.02,2.34,2.41C555.14,407.64,554.2,408.66,552.81,408.66z"/>
<path class="st2" d="M68.27,513.77h0.46c0.32,0,0.52-0.18,0.52-0.5v-3.53l3.4-5.15c0.24-0.35,0.08-0.62-0.32-0.62h-0.6
	c-0.28,0-0.48,0.1-0.62,0.34l-2.62,4.17l-2.6-4.17c-0.14-0.25-0.34-0.34-0.6-0.34h-0.62c-0.41,0-0.56,0.27-0.32,0.62l3.42,5.15v3.53
	C67.77,513.59,67.95,513.77,68.27,513.77z M76.03,513.92c2.06,0,3.72-1.64,3.72-3.67c0-2-1.67-3.65-3.72-3.65
	c-2.04,0-3.7,1.64-3.7,3.65C72.33,512.3,73.98,513.92,76.03,513.92z M76.03,512.66c-1.25,0-2.27-1.06-2.27-2.39s1.02-2.41,2.27-2.41
	c1.27,0,2.28,1.08,2.28,2.41S77.3,512.66,76.03,512.66z M83.92,513.92c1.13,0,2.03-0.55,2.34-1.53v0.87c0,0.32,0.18,0.5,0.5,0.5
	h0.42c0.32,0,0.52-0.18,0.52-0.5v-6.01c0-0.32-0.2-0.5-0.52-0.5h-0.42c-0.32,0-0.5,0.18-0.5,0.5v2.79c0,2.11-1.46,2.62-2.18,2.62
	c-0.74,0-1.39-0.53-1.39-1.96v-3.44c0-0.32-0.2-0.5-0.52-0.5h-0.42c-0.32,0-0.5,0.18-0.5,0.5v3.46
	C81.24,512.91,82.36,513.92,83.92,513.92z M90.31,513.77h0.42c0.32,0,0.5-0.18,0.5-0.5v-2.17c0-2.87,1.26-3.12,1.76-3.12
	c0.13,0,0.25,0.01,0.38,0.04c0.24,0.06,0.38-0.08,0.38-0.43v-0.41c0-0.28-0.04-0.52-0.34-0.56l-0.31-0.01
	c-0.84,0-1.64,0.6-1.88,1.72v-1.06c0-0.32-0.18-0.5-0.5-0.5h-0.42c-0.32,0-0.52,0.18-0.52,0.5v6.01
	C89.79,513.59,89.98,513.77,90.31,513.77z M101.72,513.92c0.5,0,1.19-0.08,1.89-0.46c0.45-0.22,0.55-0.56,0.35-0.83l-0.1-0.14
	c-0.18-0.27-0.41-0.29-0.71-0.14c-0.6,0.29-1.2,0.31-1.36,0.31c-1.48,0-2.58-0.99-2.58-2.41s1.09-2.39,2.58-2.39
	c0.15,0,0.76,0.01,1.36,0.31c0.31,0.14,0.52,0.13,0.71-0.14l0.11-0.14c0.2-0.27,0.15-0.55-0.14-0.71c-0.8-0.46-1.55-0.57-2.11-0.57
	c-2.53,0-3.95,1.68-3.95,3.74C97.77,512.34,99.24,513.92,101.72,513.92z M108.73,513.92c2.06,0,3.72-1.64,3.72-3.67
	c0-2-1.67-3.65-3.72-3.65c-2.04,0-3.7,1.64-3.7,3.65C105.03,512.3,106.69,513.92,108.73,513.92z M108.73,512.66
	c-1.25,0-2.27-1.06-2.27-2.39s1.02-2.41,2.27-2.41c1.27,0,2.28,1.08,2.28,2.41S110,512.66,108.73,512.66z M114.56,513.77h0.42
	c0.32,0,0.5-0.18,0.5-0.5v-2.79c0-2.13,1.46-2.62,2.18-2.62c0.74,0,1.4,0.52,1.4,1.96v3.44c0,0.32,0.18,0.5,0.5,0.5h0.42
	c0.32,0,0.52-0.18,0.52-0.5v-3.46c0-2.2-1.13-3.21-2.69-3.21c-1.13,0-2.03,0.55-2.34,1.53v-0.87c0-0.32-0.18-0.5-0.5-0.5h-0.42
	c-0.32,0-0.52,0.18-0.52,0.5v6.01C114.04,513.59,114.24,513.77,114.56,513.77z M125.01,513.92c1.34,0,2.1-0.77,2.1-1.82
	c0-0.01,0-0.28-0.06-0.52c-0.03-0.18-0.15-0.25-0.32-0.25h-0.64c-0.2,0-0.28,0.13-0.25,0.32c0.03,0.11,0.03,0.21,0.03,0.27
	c0,0.5-0.39,0.76-0.83,0.76c-0.45,0-0.81-0.29-0.81-1.05v-3.75h1.92c0.18,0,0.28-0.11,0.28-0.29v-0.55c0-0.18-0.1-0.28-0.28-0.28
	h-1.92v-1.58c0-0.27-0.15-0.43-0.42-0.43h-0.29c-0.25,0-0.41,0.14-0.45,0.41l-0.25,1.61h-0.88c-0.18,0-0.28,0.1-0.28,0.28v0.55
	c0,0.18,0.1,0.29,0.28,0.29h0.85v3.67C122.79,513.35,123.89,513.92,125.01,513.92z M131.33,513.92c0.94,0,1.85-0.32,2.51-1.26v0.6
	c0,0.32,0.2,0.5,0.52,0.5h0.42c0.32,0,0.5-0.18,0.5-0.5v-6.01c0-0.32-0.18-0.5-0.5-0.5h-0.42c-0.32,0-0.52,0.18-0.52,0.5v0.6
	c-0.66-0.94-1.57-1.26-2.51-1.26c-2.09,0-3.47,1.64-3.47,3.65C127.85,512.27,129.24,513.92,131.33,513.92z M131.52,512.66
	c-1.41,0-2.23-1.09-2.23-2.41c0-1.3,0.81-2.41,2.23-2.41c1.39,0,2.32,1.02,2.34,2.41C133.85,511.64,132.91,512.66,131.52,512.66z
	 M140.82,513.92c0.5,0,1.19-0.08,1.89-0.46c0.45-0.22,0.55-0.56,0.35-0.83l-0.1-0.14c-0.18-0.27-0.41-0.29-0.71-0.14
	c-0.6,0.29-1.2,0.31-1.36,0.31c-1.48,0-2.58-0.99-2.58-2.41s1.09-2.39,2.58-2.39c0.15,0,0.76,0.01,1.36,0.31
	c0.31,0.14,0.52,0.13,0.71-0.14l0.11-0.14c0.2-0.27,0.15-0.55-0.14-0.71c-0.8-0.46-1.55-0.57-2.11-0.57c-2.53,0-3.95,1.68-3.95,3.74
	C136.88,512.34,138.35,513.92,140.82,513.92z M147.38,513.92c1.34,0,2.1-0.77,2.1-1.82c0-0.01,0-0.28-0.06-0.52
	c-0.03-0.18-0.15-0.25-0.32-0.25h-0.64c-0.2,0-0.28,0.13-0.25,0.32c0.03,0.11,0.03,0.21,0.03,0.27c0,0.5-0.39,0.76-0.83,0.76
	c-0.45,0-0.81-0.29-0.81-1.05v-3.75h1.92c0.18,0,0.28-0.11,0.28-0.29v-0.55c0-0.18-0.1-0.28-0.28-0.28h-1.92v-1.58
	c0-0.27-0.15-0.43-0.42-0.43h-0.29c-0.25,0-0.41,0.14-0.45,0.41l-0.25,1.61h-0.88c-0.18,0-0.28,0.1-0.28,0.28v0.55
	c0,0.18,0.1,0.29,0.28,0.29h0.85v3.67C145.15,513.35,146.26,513.92,147.38,513.92z M152.81,513.92c1.37,0,2.55-0.77,2.55-2.11
	c0-0.76-0.36-1.58-1.71-2l-1.01-0.34c-0.41-0.13-0.81-0.36-0.81-0.81c0-0.49,0.39-0.87,1.01-0.87c0.31,0,0.62,0.08,0.85,0.36
	c0.2,0.25,0.36,0.38,0.66,0.29l0.27-0.06c0.34-0.07,0.5-0.32,0.32-0.64c-0.46-0.85-1.29-1.15-2.14-1.15c-1.4,0-2.35,0.9-2.35,2.1
	c0,0.99,0.67,1.6,1.75,1.92l0.94,0.32c0.49,0.17,0.87,0.41,0.87,0.85c0,0.53-0.5,0.92-1.18,0.92c-0.55,0-1.02-0.22-1.3-0.57
	c-0.18-0.24-0.35-0.36-0.63-0.29l-0.29,0.08c-0.34,0.08-0.5,0.31-0.34,0.63C150.74,513.46,151.73,513.92,152.81,513.92z"/>
<path class="st2" d="M372.39,321.77c0,2.95,2.39,5.33,5.33,5.33s5.33-2.39,5.33-5.33s-2.39-5.33-5.33-5.33
	S372.39,318.82,372.39,321.77z M434.43,322.47c0.39-0.39,0.39-1.02,0-1.41l-6.36-6.36c-0.39-0.39-1.02-0.39-1.41,0
	c-0.39,0.39-0.39,1.02,0,1.41l5.66,5.66l-5.66,5.66c-0.39,0.39-0.39,1.02,0,1.41c0.39,0.39,1.02,0.39,1.41,0L434.43,322.47z
	 M377.72,322.77h56v-2h-56V322.77z"/>
<path class="st2" d="M299.72,246.43c-2.95,0-5.33,2.39-5.33,5.33s2.39,5.33,5.33,5.33s5.33-2.39,5.33-5.33
	S302.67,246.43,299.72,246.43z M299.01,290.47c0.39,0.39,1.02,0.39,1.41,0l6.36-6.36c0.39-0.39,0.39-1.02,0-1.41
	c-0.39-0.39-1.02-0.39-1.41,0l-5.66,5.66l-5.66-5.66c-0.39-0.39-1.02-0.39-1.41,0c-0.39,0.39-0.39,1.02,0,1.41L299.01,290.47z
	 M298.72,251.77v38h2v-38H298.72z"/>
<path class="st2" d="M156.01,321.06c-0.39,0.39-0.39,1.02,0,1.41l6.36,6.36c0.39,0.39,1.02,0.39,1.41,0c0.39-0.39,0.39-1.02,0-1.41
	l-5.66-5.66l5.66-5.66c0.39-0.39,0.39-1.02,0-1.41c-0.39-0.39-1.02-0.39-1.41,0L156.01,321.06z M227.39,321.77
	c0,2.95,2.39,5.33,5.33,5.33s5.33-2.39,5.33-5.33s-2.39-5.33-5.33-5.33S227.39,318.82,227.39,321.77z M156.72,322.77h76v-2h-76
	V322.77z"/>
<path class="st2" d="M156.93,203.79c-0.54-0.12-1.07,0.23-1.19,0.77l-1.87,8.8c-0.11,0.54,0.23,1.07,0.77,1.19
	c0.54,0.11,1.07-0.23,1.19-0.77l1.66-7.82l7.83,1.66c0.54,0.11,1.07-0.23,1.19-0.77c0.11-0.54-0.23-1.07-0.77-1.19L156.93,203.79z
	 M229.81,317.29c-2.47,1.6-3.17,4.91-1.57,7.38c1.61,2.47,4.91,3.17,7.38,1.57c2.47-1.6,3.17-4.91,1.57-7.38
	C235.59,316.39,232.28,315.69,229.81,317.29z M155.88,205.31l76,117l1.68-1.09l-76-117L155.88,205.31z"/>
<path class="st2" d="M155.72,401.79c0.01,0.55,0.47,0.99,1.03,0.97l9-0.23c0.55-0.01,0.99-0.47,0.97-1.03
	c-0.01-0.55-0.47-0.99-1.03-0.97l-8,0.21l-0.21-8c-0.01-0.55-0.47-0.99-1.02-0.97c-0.55,0.01-0.99,0.47-0.97,1.03L155.72,401.79z
	 M229.05,325.63c2.14,2.03,5.51,1.94,7.54-0.19c2.03-2.14,1.94-5.51-0.19-7.54c-2.14-2.03-5.51-1.94-7.54,0.19
	C226.82,320.23,226.91,323.61,229.05,325.63z M157.44,402.46l76-80l-1.45-1.38l-76,80L157.44,402.46z"/>
<path class="st2" d="M156.75,240.77c-0.55-0.01-1.01,0.42-1.03,0.97l-0.23,9c-0.01,0.55,0.42,1.01,0.97,1.03
	c0.55,0.01,1.01-0.42,1.02-0.97l0.21-8l8,0.21c0.55,0.01,1.01-0.42,1.03-0.97c0.01-0.55-0.42-1.01-0.97-1.02L156.75,240.77z
	 M229.05,317.9c-2.14,2.03-2.22,5.4-0.19,7.54c2.03,2.14,5.4,2.22,7.54,0.19c2.14-2.03,2.22-5.4,0.19-7.54
	C234.56,315.96,231.18,315.87,229.05,317.9z M155.99,242.46l76,80l1.45-1.38l-76-80L155.99,242.46z"/>
<line class="st3" x1="-0.28" y1="99.27" x2="599.72" y2="99.27"/>
</svg>
